<svg width="834" height="795" viewBox="0 0 834 795" fill="none" xmlns="http://www.w3.org/2000/svg">
<mask id="path-1-outside-1" maskUnits="userSpaceOnUse" x="-109" y="616" width="218" height="92" fill="black">
<rect fill="white" x="-109" y="616" width="218" height="92"/>
<path d="M86.08 704.8C96.83 704.8 105.55 696.08 105.55 685.33C105.55 674.58 96.83 665.86 86.08 665.86C83.9 665.86 81.81 666.23 79.85 666.9C77.28 640.02 54.65 619 27.1 619C8.97001 619 -7.02 628.11 -16.58 641.99C-20.05 636.63 -26.07 633.07 -32.93 633.07C-40.94 633.07 -47.81 637.91 -50.8 644.82C-56.66 639.15 -64.64 635.65 -73.44 635.65C-91.42 635.65 -106 650.23 -106 668.21C-106 686.19 -91.42 700.77 -73.44 700.77"/>
</mask>
<path d="M86.08 704.8C96.83 704.8 105.55 696.08 105.55 685.33C105.55 674.58 96.83 665.86 86.08 665.86C83.9 665.86 81.81 666.23 79.85 666.9C77.28 640.02 54.65 619 27.1 619C8.97001 619 -7.02 628.11 -16.58 641.99C-20.05 636.63 -26.07 633.07 -32.93 633.07C-40.94 633.07 -47.81 637.91 -50.8 644.82C-56.66 639.15 -64.64 635.65 -73.44 635.65C-91.42 635.65 -106 650.23 -106 668.21C-106 686.19 -91.42 700.77 -73.44 700.77" fill="#FFFBF1"/>
<path d="M79.85 666.9L76.8636 667.186L77.2252 670.968L80.8204 669.739L79.85 666.9ZM-16.58 641.99L-19.0983 643.62L-16.6573 647.391L-14.1093 643.692L-16.58 641.99ZM-50.8 644.82L-52.8861 646.976L-49.7691 649.992L-48.0467 646.011L-50.8 644.82ZM86.08 707.8C98.4869 707.8 108.55 697.737 108.55 685.33H102.55C102.55 694.423 95.1731 701.8 86.08 701.8V707.8ZM108.55 685.33C108.55 672.923 98.4869 662.86 86.08 662.86V668.86C95.1731 668.86 102.55 676.237 102.55 685.33H108.55ZM86.08 662.86C83.5571 662.86 81.1397 663.289 78.8796 664.061L80.8204 669.739C82.4803 669.171 84.2429 668.86 86.08 668.86V662.86ZM82.8364 666.614C80.1207 638.211 56.212 616 27.1 616V622C53.088 622 74.4393 641.829 76.8636 667.186L82.8364 666.614ZM27.1 616C7.93949 616 -8.95598 625.632 -19.0507 640.288L-14.1093 643.692C-5.08402 630.588 10.0005 622 27.1 622V616ZM-14.0617 640.36C-18.0577 634.187 -25.0041 630.07 -32.93 630.07V636.07C-27.1358 636.07 -22.0423 639.073 -19.0983 643.62L-14.0617 640.36ZM-32.93 630.07C-42.1814 630.07 -50.1064 635.663 -53.5533 643.629L-48.0467 646.011C-45.5136 640.157 -39.6986 636.07 -32.93 636.07V630.07ZM-48.7139 642.664C-55.1088 636.477 -63.8278 632.65 -73.44 632.65V638.65C-65.4522 638.65 -58.2112 641.824 -52.8861 646.976L-48.7139 642.664ZM-73.44 632.65C-93.0769 632.65 -109 648.573 -109 668.21H-103C-103 651.887 -89.7631 638.65 -73.44 638.65V632.65ZM-109 668.21C-109 687.847 -93.0769 703.77 -73.44 703.77V697.77C-89.7631 697.77 -103 684.533 -103 668.21H-109Z" fill="#D5D5D5" mask="url(#path-1-outside-1)"/>
<mask id="path-3-outside-2" maskUnits="userSpaceOnUse" x="63.8301" y="704.47" width="254" height="82" fill="black">
<rect fill="white" x="63.8301" y="704.47" width="254" height="82"/>
<path d="M86.4701 708C75.7201 708 67.0001 719.72 67.0001 730.47C67.0001 741.22 75.7201 749.94 86.4701 749.94C94.2401 749.94 100.92 745.38 104.04 738.81C107.16 745.39 113.85 749.94 121.61 749.94C124.22 749.94 126.7 749.42 128.98 748.49C136.35 768.89 155.89 783.47 178.83 783.47C202.68 783.47 222.85 767.71 229.5 746.04C235.33 754.86 245.32 760.69 256.69 760.69C268.79 760.69 279.34 754.08 284.96 744.28C287.97 746.19 291.53 747.31 295.36 747.31C306.11 747.31 314.83 738.59 314.83 727.84C314.83 717.09 306.11 708.37 295.36 708.37"/>
</mask>
<path d="M86.4701 708C75.7201 708 67.0001 719.72 67.0001 730.47C67.0001 741.22 75.7201 749.94 86.4701 749.94C94.2401 749.94 100.92 745.38 104.04 738.81C107.16 745.39 113.85 749.94 121.61 749.94C124.22 749.94 126.7 749.42 128.98 748.49C136.35 768.89 155.89 783.47 178.83 783.47C202.68 783.47 222.85 767.71 229.5 746.04C235.33 754.86 245.32 760.69 256.69 760.69C268.79 760.69 279.34 754.08 284.96 744.28C287.97 746.19 291.53 747.31 295.36 747.31C306.11 747.31 314.83 738.59 314.83 727.84C314.83 717.09 306.11 708.37 295.36 708.37" fill="#FFFBF1"/>
<path d="M104.04 738.81L106.751 737.524L104.042 731.812L101.33 737.523L104.04 738.81ZM128.98 748.49L131.802 747.47L130.74 744.532L127.847 745.712L128.98 748.49ZM229.5 746.04L232.003 744.385L228.497 739.082L226.632 745.16L229.5 746.04ZM284.96 744.28L286.567 741.747L283.918 740.066L282.358 742.787L284.96 744.28ZM86.4701 705C79.9608 705 74.3114 708.538 70.3892 713.295C66.4672 718.052 64.0001 724.331 64.0001 730.47L70.0001 730.47C70.0001 725.858 71.893 720.903 75.0185 717.112C78.1438 713.321 82.2294 711 86.4701 711L86.4701 705ZM64.0001 730.47C64.0001 742.877 74.0633 752.94 86.4701 752.94L86.4701 746.94C77.3769 746.94 70.0001 739.563 70.0001 730.47L64.0001 730.47ZM86.4701 752.94C95.4479 752.94 103.155 747.667 106.75 740.097L101.33 737.523C98.6854 743.092 93.0323 746.94 86.4701 746.94L86.4701 752.94ZM101.329 740.095C104.926 747.68 112.645 752.94 121.61 752.94L121.61 746.94C115.055 746.94 109.394 743.099 106.751 737.524L101.329 740.095ZM121.61 752.94C124.624 752.94 127.488 752.338 130.113 751.268L127.847 745.712C125.913 746.501 123.816 746.94 121.61 746.94L121.61 752.94ZM126.159 749.509C133.944 771.06 154.587 786.47 178.83 786.47L178.83 780.47C157.193 780.47 138.756 766.719 131.802 747.47L126.159 749.509ZM178.83 786.47C204.035 786.47 225.342 769.814 232.368 746.92L226.632 745.16C220.358 765.606 201.325 780.47 178.83 780.47L178.83 786.47ZM226.997 747.694C233.357 757.316 244.267 763.69 256.69 763.69L256.69 757.69C246.373 757.69 237.303 752.404 232.003 744.385L226.997 747.694ZM256.69 763.69C269.912 763.69 281.431 756.463 287.563 745.772L282.358 742.787C277.249 751.696 267.668 757.69 256.69 757.69L256.69 763.69ZM283.353 746.813C286.821 749.014 290.935 750.31 295.36 750.31L295.36 744.31C292.125 744.31 289.119 743.366 286.567 741.747L283.353 746.813ZM295.36 750.31C307.767 750.31 317.83 740.247 317.83 727.84L311.83 727.84C311.83 736.933 304.453 744.31 295.36 744.31L295.36 750.31ZM317.83 727.84C317.83 715.433 307.767 705.37 295.36 705.37L295.36 711.37C304.453 711.37 311.83 718.747 311.83 727.84L317.83 727.84Z" fill="#D5D5D5" mask="url(#path-3-outside-2)"/>
<mask id="path-5-outside-3" maskUnits="userSpaceOnUse" x="273" y="628" width="365" height="81" fill="black">
<rect fill="white" x="273" y="628" width="365" height="81"/>
<path d="M615.52 705.47C626.27 705.47 634.99 694.75 634.99 684C634.99 673.25 626.27 664.53 615.52 664.53C607.75 664.53 601.07 669.09 597.95 675.66C594.83 669.08 588.14 664.53 580.38 664.53C577.77 664.53 575.29 665.05 573.01 665.98C565.63 645.58 546.09 631 523.15 631C499.3 631 479.13 646.76 472.48 668.43C466.66 659.61 456.66 653.78 445.29 653.78C433.19 653.78 422.64 660.39 417.02 670.19C414.01 668.28 410.45 667.16 406.62 667.16C399.85 667.16 393.88 670.62 390.4 675.87C390.77 673.9 390.98 671.86 390.98 669.78C390.98 651.8 376.4 637.22 358.42 637.22C347.34 637.22 337.55 642.76 331.67 651.22C328.51 649 324.66 647.68 320.5 647.68C309.75 647.68 301.03 656.4 301.03 667.15C301.03 667.33 301.05 667.51 301.06 667.69C299.29 667.16 297.41 666.87 295.47 666.87C284.72 666.87 276 675.59 276 686.34C276 697.09 284.72 705.81 295.47 705.81"/>
</mask>
<path d="M615.52 705.47C626.27 705.47 634.99 694.75 634.99 684C634.99 673.25 626.27 664.53 615.52 664.53C607.75 664.53 601.07 669.09 597.95 675.66C594.83 669.08 588.14 664.53 580.38 664.53C577.77 664.53 575.29 665.05 573.01 665.98C565.63 645.58 546.09 631 523.15 631C499.3 631 479.13 646.76 472.48 668.43C466.66 659.61 456.66 653.78 445.29 653.78C433.19 653.78 422.64 660.39 417.02 670.19C414.01 668.28 410.45 667.16 406.62 667.16C399.85 667.16 393.88 670.62 390.4 675.87C390.77 673.9 390.98 671.86 390.98 669.78C390.98 651.8 376.4 637.22 358.42 637.22C347.34 637.22 337.55 642.76 331.67 651.22C328.51 649 324.66 647.68 320.5 647.68C309.75 647.68 301.03 656.4 301.03 667.15C301.03 667.33 301.05 667.51 301.06 667.69C299.29 667.16 297.41 666.87 295.47 666.87C284.72 666.87 276 675.59 276 686.34C276 697.09 284.72 705.81 295.47 705.81" fill="#FFFBF1"/>
<path d="M597.95 675.66L595.239 676.945L597.948 682.658L600.66 676.947L597.95 675.66ZM573.01 665.98L570.189 667.001L571.251 669.937L574.143 668.758L573.01 665.98ZM472.48 668.43L469.976 670.082L473.481 675.394L475.348 669.31L472.48 668.43ZM417.02 670.19L415.413 672.723L418.062 674.404L419.622 671.682L417.02 670.19ZM390.4 675.87L387.452 675.316L384.718 689.872L392.901 677.528L390.4 675.87ZM331.67 651.22L329.945 653.675L332.413 655.408L334.133 652.932L331.67 651.22ZM301.06 667.69L300.199 670.564L304.292 671.789L304.055 667.524L301.06 667.69ZM615.52 708.47C621.93 708.47 627.573 705.276 631.543 700.743C635.507 696.216 637.99 690.159 637.99 684H631.99C631.99 688.591 630.113 693.269 627.029 696.79C623.952 700.304 619.859 702.47 615.52 702.47V708.47ZM637.99 684C637.99 671.593 627.927 661.53 615.52 661.53V667.53C624.613 667.53 631.99 674.907 631.99 684H637.99ZM615.52 661.53C606.542 661.53 598.835 666.802 595.24 674.373L600.66 676.947C603.305 671.378 608.958 667.53 615.52 667.53V661.53ZM600.661 674.375C597.064 666.79 589.345 661.53 580.38 661.53V667.53C586.935 667.53 592.596 671.37 595.239 676.945L600.661 674.375ZM580.38 661.53C577.366 661.53 574.502 662.131 571.877 663.202L574.143 668.758C576.078 667.969 578.174 667.53 580.38 667.53V661.53ZM575.831 664.959C568.035 643.41 547.394 628 523.15 628V634C544.786 634 563.225 647.75 570.189 667.001L575.831 664.959ZM523.15 628C497.945 628 476.638 644.656 469.612 667.55L475.348 669.31C481.622 648.864 500.655 634 523.15 634V628ZM474.984 666.778C468.633 657.153 457.711 650.78 445.29 650.78V656.78C455.609 656.78 464.687 662.067 469.976 670.082L474.984 666.778ZM445.29 650.78C432.068 650.78 420.549 658.006 414.418 668.698L419.622 671.682C424.731 662.774 434.312 656.78 445.29 656.78V650.78ZM418.627 667.657C415.159 665.456 411.045 664.16 406.62 664.16V670.16C409.855 670.16 412.861 671.104 415.413 672.723L418.627 667.657ZM406.62 664.16C398.804 664.16 391.913 668.158 387.899 674.212L392.901 677.528C395.847 673.082 400.896 670.16 406.62 670.16V664.16ZM393.348 676.424C393.75 674.287 393.98 672.062 393.98 669.78H387.98C387.98 671.658 387.79 673.513 387.452 675.316L393.348 676.424ZM393.98 669.78C393.98 650.143 378.057 634.22 358.42 634.22V640.22C374.743 640.22 387.98 653.457 387.98 669.78H393.98ZM358.42 634.22C346.316 634.22 335.623 640.276 329.207 649.508L334.133 652.932C339.477 645.244 348.364 640.22 358.42 640.22V634.22ZM333.395 648.765C329.753 646.207 325.305 644.68 320.5 644.68V650.68C324.015 650.68 327.267 651.793 329.945 653.675L333.395 648.765ZM320.5 644.68C308.093 644.68 298.03 654.743 298.03 667.15H304.03C304.03 658.057 311.407 650.68 320.5 650.68V644.68ZM298.03 667.15C298.03 667.345 298.041 667.517 298.048 667.628C298.059 667.776 298.061 667.791 298.065 667.856L304.055 667.524C304.051 667.453 304.047 667.387 304.043 667.337C304.039 667.277 304.037 667.251 304.034 667.212C304.029 667.143 304.03 667.135 304.03 667.15H298.03ZM301.921 664.816C299.879 664.205 297.71 663.87 295.47 663.87V669.87C297.11 669.87 298.701 670.115 300.199 670.564L301.921 664.816ZM295.47 663.87C283.063 663.87 273 673.933 273 686.34H279C279 677.247 286.377 669.87 295.47 669.87V663.87ZM273 686.34C273 698.747 283.063 708.81 295.47 708.81V702.81C286.377 702.81 279 695.433 279 686.34H273Z" fill="#D5D5D5" mask="url(#path-5-outside-3)"/>
<mask id="path-7-outside-4" maskUnits="userSpaceOnUse" x="740" y="620" width="218" height="92" fill="black">
<rect fill="white" x="740" y="620" width="218" height="92"/>
<path d="M935.08 708.8C945.83 708.8 954.55 700.08 954.55 689.33C954.55 678.58 945.83 669.86 935.08 669.86C932.9 669.86 930.81 670.23 928.85 670.9C926.28 644.02 903.65 623 876.1 623C857.97 623 841.98 632.11 832.42 645.99C828.95 640.63 822.93 637.07 816.07 637.07C808.06 637.07 801.19 641.91 798.2 648.82C792.34 643.15 784.36 639.65 775.56 639.65C757.58 639.65 743 654.23 743 672.21C743 690.19 757.58 704.77 775.56 704.77"/>
</mask>
<path d="M935.08 708.8C945.83 708.8 954.55 700.08 954.55 689.33C954.55 678.58 945.83 669.86 935.08 669.86C932.9 669.86 930.81 670.23 928.85 670.9C926.28 644.02 903.65 623 876.1 623C857.97 623 841.98 632.11 832.42 645.99C828.95 640.63 822.93 637.07 816.07 637.07C808.06 637.07 801.19 641.91 798.2 648.82C792.34 643.15 784.36 639.65 775.56 639.65C757.58 639.65 743 654.23 743 672.21C743 690.19 757.58 704.77 775.56 704.77" fill="#FFFBF1"/>
<path d="M928.85 670.9L925.864 671.186L926.225 674.968L929.82 673.739L928.85 670.9ZM832.42 645.99L829.902 647.62L832.343 651.391L834.891 647.692L832.42 645.99ZM798.2 648.82L796.114 650.976L799.231 653.992L800.953 650.011L798.2 648.82ZM935.08 711.8C947.487 711.8 957.55 701.737 957.55 689.33H951.55C951.55 698.423 944.173 705.8 935.08 705.8V711.8ZM957.55 689.33C957.55 676.923 947.487 666.86 935.08 666.86V672.86C944.173 672.86 951.55 680.237 951.55 689.33H957.55ZM935.08 666.86C932.557 666.86 930.14 667.289 927.88 668.061L929.82 673.739C931.48 673.171 933.243 672.86 935.08 672.86V666.86ZM931.836 670.614C929.121 642.211 905.212 620 876.1 620V626C902.088 626 923.439 645.829 925.864 671.186L931.836 670.614ZM876.1 620C856.939 620 840.044 629.632 829.949 644.288L834.891 647.692C843.916 634.588 859.001 626 876.1 626V620ZM834.938 644.36C830.942 638.187 823.996 634.07 816.07 634.07V640.07C821.864 640.07 826.958 643.073 829.902 647.62L834.938 644.36ZM816.07 634.07C806.819 634.07 798.894 639.663 795.447 647.629L800.953 650.011C803.486 644.157 809.301 640.07 816.07 640.07V634.07ZM800.286 646.664C793.891 640.476 785.172 636.65 775.56 636.65V642.65C783.548 642.65 790.789 645.824 796.114 650.976L800.286 646.664ZM775.56 636.65C755.923 636.65 740 652.573 740 672.21H746C746 655.887 759.237 642.65 775.56 642.65V636.65ZM740 672.21C740 691.847 755.923 707.77 775.56 707.77V701.77C759.237 701.77 746 688.533 746 672.21H740Z" fill="#D5D5D5" mask="url(#path-7-outside-4)"/>
<mask id="path-9-outside-5" maskUnits="userSpaceOnUse" x="579.55" y="704.8" width="218" height="92" fill="black">
<rect fill="white" x="579.55" y="704.8" width="218" height="92"/>
<path d="M775.08 708C785.83 708 794.55 716.72 794.55 727.47C794.55 738.22 785.83 746.94 775.08 746.94C772.9 746.94 770.81 746.57 768.85 745.9C766.28 772.78 743.65 793.8 716.1 793.8C697.97 793.8 681.98 784.69 672.42 770.81C668.95 776.17 662.93 779.73 656.07 779.73C648.06 779.73 641.19 774.89 638.2 767.98C632.34 773.65 624.36 777.15 615.56 777.15C597.58 777.15 583 762.57 583 744.59C583 726.61 597.58 708.03 615.56 708.03"/>
</mask>
<path d="M775.08 708C785.83 708 794.55 716.72 794.55 727.47C794.55 738.22 785.83 746.94 775.08 746.94C772.9 746.94 770.81 746.57 768.85 745.9C766.28 772.78 743.65 793.8 716.1 793.8C697.97 793.8 681.98 784.69 672.42 770.81C668.95 776.17 662.93 779.73 656.07 779.73C648.06 779.73 641.19 774.89 638.2 767.98C632.34 773.65 624.36 777.15 615.56 777.15C597.58 777.15 583 762.57 583 744.59C583 726.61 597.58 708.03 615.56 708.03" fill="#FFFBF1"/>
<path d="M768.85 745.9L769.82 743.061L766.225 741.832L765.863 745.614L768.85 745.9ZM672.42 770.81L674.89 769.108L672.343 765.409L669.901 769.179L672.42 770.81ZM638.2 767.98L640.953 766.788L639.231 762.808L636.114 765.824L638.2 767.98ZM775.08 711C784.173 711 791.55 718.377 791.55 727.47L797.55 727.47C797.55 715.063 787.487 705 775.08 705L775.08 711ZM791.55 727.47C791.55 736.563 784.173 743.94 775.08 743.94L775.08 749.94C787.487 749.94 797.55 739.877 797.55 727.47L791.55 727.47ZM775.08 743.94C773.243 743.94 771.48 743.629 769.82 743.061L767.879 748.739C770.139 749.511 772.557 749.94 775.08 749.94L775.08 743.94ZM765.863 745.614C763.439 770.971 742.088 790.8 716.1 790.8L716.1 796.8C745.212 796.8 769.121 774.589 771.836 746.185L765.863 745.614ZM716.1 790.8C699 790.8 683.916 782.212 674.89 769.108L669.949 772.511C680.044 787.168 696.939 796.8 716.1 796.8L716.1 790.8ZM669.901 769.179C666.958 773.727 661.864 776.73 656.07 776.73L656.07 782.73C663.996 782.73 670.942 778.613 674.938 772.44L669.901 769.179ZM656.07 776.73C649.301 776.73 643.486 772.643 640.953 766.788L635.447 769.171C638.893 777.137 646.818 782.73 656.07 782.73L656.07 776.73ZM636.114 765.824C630.789 770.976 623.548 774.15 615.56 774.15L615.56 780.15C625.172 780.15 633.891 776.323 640.286 770.136L636.114 765.824ZM615.56 774.15C599.237 774.15 586 760.913 586 744.59L580 744.59C580 764.227 595.923 780.15 615.56 780.15L615.56 774.15ZM586 744.59C586 736.376 589.348 727.914 594.818 721.517C600.282 715.125 607.644 711.03 615.56 711.03L615.56 705.03C605.495 705.03 596.577 710.225 590.257 717.618C583.941 725.005 580 734.824 580 744.59L586 744.59Z" fill="#D5D5D5" mask="url(#path-9-outside-5)"/>
<path d="M542.47 481C531.72 481 523 489.72 523 500.47C523 511.22 531.72 519.94 542.47 519.94C544.65 519.94 546.74 519.57 548.7 518.9C551.27 545.78 573.9 562.8 601.45 562.8C619.58 562.8 635.57 553.69 645.13 539.81C648.6 545.17 654.62 548.73 661.48 548.73C669.49 548.73 676.36 543.89 679.35 536.98C685.21 542.65 693.19 546.15 701.99 546.15C719.97 546.15 734.55 531.57 734.55 513.59C734.55 495.61 719.97 481.03 701.99 481.03" fill="#FFFBF1"/>
<path d="M542.47 481C531.72 481 523 489.72 523 500.47C523 511.22 531.72 519.94 542.47 519.94C544.65 519.94 546.74 519.57 548.7 518.9C551.27 545.78 573.9 562.8 601.45 562.8C619.58 562.8 635.57 553.69 645.13 539.81C648.6 545.17 654.62 548.73 661.48 548.73C669.49 548.73 676.36 543.89 679.35 536.98C685.21 542.65 693.19 546.15 701.99 546.15C719.97 546.15 734.55 531.57 734.55 513.59C734.55 495.61 719.97 481.03 701.99 481.03" stroke="#D5D5D5" stroke-width="3" stroke-miterlimit="10"/>
<mask id="path-13-outside-6" maskUnits="userSpaceOnUse" x="667" y="391" width="358" height="92" fill="black">
<rect fill="white" x="667" y="391" width="358" height="92"/>
<path d="M1002.22 479.57C1012.97 479.57 1021.69 470.85 1021.69 460.1C1021.69 449.35 1012.97 440.63 1002.22 440.63C1000.85 440.63 999.51 440.78 998.21 441.05C994.11 415.86 972.26 396.63 945.91 396.63C921.29 396.63 900.59 413.42 894.64 436.18C891.1 432.48 886.12 430.16 880.59 430.16C874.77 430.16 869.56 432.73 866 436.77C861.01 425.18 849.5 417.06 836.08 417.06C828.25 417.06 821.07 419.82 815.45 424.43C806.97 406.45 788.69 394 767.49 394C747.85 394 730.72 404.69 721.56 420.57C716.21 416.72 709.65 414.44 702.56 414.44C684.58 414.44 670 429.02 670 447C670 464.98 684.58 479.56 702.56 479.56"/>
</mask>
<path d="M1002.22 479.57C1012.97 479.57 1021.69 470.85 1021.69 460.1C1021.69 449.35 1012.97 440.63 1002.22 440.63C1000.85 440.63 999.51 440.78 998.21 441.05C994.11 415.86 972.26 396.63 945.91 396.63C921.29 396.63 900.59 413.42 894.64 436.18C891.1 432.48 886.12 430.16 880.59 430.16C874.77 430.16 869.56 432.73 866 436.77C861.01 425.18 849.5 417.06 836.08 417.06C828.25 417.06 821.07 419.82 815.45 424.43C806.97 406.45 788.69 394 767.49 394C747.85 394 730.72 404.69 721.56 420.57C716.21 416.72 709.65 414.44 702.56 414.44C684.58 414.44 670 429.02 670 447C670 464.98 684.58 479.56 702.56 479.56" fill="#FFFBF1"/>
<path d="M998.21 441.05L995.249 441.532L995.752 444.624L998.82 443.987L998.21 441.05ZM894.64 436.18L892.472 438.254L896.184 442.134L897.542 436.939L894.64 436.18ZM866 436.77L863.245 437.956L865.118 442.308L868.251 438.753L866 436.77ZM815.45 424.43L812.737 425.71L814.378 429.19L817.353 426.749L815.45 424.43ZM721.56 420.57L719.808 423.005L722.501 424.943L724.159 422.069L721.56 420.57ZM1002.22 482.57C1014.63 482.57 1024.69 472.507 1024.69 460.1H1018.69C1018.69 469.193 1011.31 476.57 1002.22 476.57V482.57ZM1024.69 460.1C1024.69 447.693 1014.63 437.63 1002.22 437.63V443.63C1011.31 443.63 1018.69 451.007 1018.69 460.1H1024.69ZM1002.22 437.63C1000.63 437.63 999.086 437.804 997.6 438.113L998.82 443.987C999.934 443.756 1001.07 443.63 1002.22 443.63V437.63ZM1001.17 440.568C996.839 413.95 973.755 393.63 945.91 393.63V399.63C970.765 399.63 991.381 417.77 995.249 441.532L1001.17 440.568ZM945.91 393.63C919.892 393.63 898.024 411.374 891.738 435.421L897.542 436.939C903.156 415.466 922.688 399.63 945.91 399.63V393.63ZM896.808 434.106C892.73 429.844 886.979 427.16 880.59 427.16V433.16C885.261 433.16 889.47 435.116 892.472 438.254L896.808 434.106ZM880.59 427.16C873.866 427.16 867.85 430.133 863.749 434.787L868.251 438.753C871.27 435.327 875.674 433.16 880.59 433.16V427.16ZM868.755 435.584C863.31 422.935 850.743 414.06 836.08 414.06V420.06C848.257 420.06 858.711 427.425 863.245 437.956L868.755 435.584ZM836.08 414.06C827.532 414.06 819.685 417.076 813.547 422.111L817.353 426.749C822.456 422.564 828.968 420.06 836.08 420.06V414.06ZM818.163 423.15C809.207 404.161 789.896 391 767.49 391V397C787.484 397 804.733 408.739 812.737 425.71L818.163 423.15ZM767.49 391C746.733 391 728.634 402.302 718.961 419.071L724.159 422.069C732.806 407.078 748.967 397 767.49 397V391ZM723.312 418.135C717.472 413.932 710.304 411.44 702.56 411.44V417.44C708.996 417.44 714.948 419.508 719.808 423.005L723.312 418.135ZM702.56 411.44C682.923 411.44 667 427.363 667 447H673C673 430.677 686.237 417.44 702.56 417.44V411.44ZM667 447C667 466.637 682.923 482.56 702.56 482.56V476.56C686.237 476.56 673 463.323 673 447H667Z" fill="#D5D5D5" mask="url(#path-13-outside-6)"/>
<mask id="path-15-outside-7" maskUnits="userSpaceOnUse" x="-18.3105" y="478.57" width="358" height="92" fill="black">
<rect fill="white" x="-18.3105" y="478.57" width="358" height="92"/>
<path d="M4.46946 482C-6.28054 482 -15.0006 490.72 -15.0006 501.47C-15.0006 512.22 -6.28054 520.94 4.46946 520.94C5.83945 520.94 7.17948 520.79 8.47947 520.52C12.5795 545.71 34.4294 564.94 60.7794 564.94C85.3994 564.94 106.099 548.15 112.049 525.39C115.589 529.09 120.569 531.41 126.099 531.41C131.919 531.41 137.129 528.84 140.689 524.8C145.679 536.39 157.189 544.51 170.609 544.51C178.439 544.51 185.619 541.75 191.239 537.14C199.719 555.12 217.999 567.57 239.199 567.57C258.839 567.57 275.969 556.88 285.129 541C290.479 544.85 297.039 547.13 304.129 547.13C322.109 547.13 336.689 532.55 336.689 514.57C336.689 496.59 322.109 482.01 304.129 482.01"/>
</mask>
<path d="M4.46946 482C-6.28054 482 -15.0006 490.72 -15.0006 501.47C-15.0006 512.22 -6.28054 520.94 4.46946 520.94C5.83945 520.94 7.17948 520.79 8.47947 520.52C12.5795 545.71 34.4294 564.94 60.7794 564.94C85.3994 564.94 106.099 548.15 112.049 525.39C115.589 529.09 120.569 531.41 126.099 531.41C131.919 531.41 137.129 528.84 140.689 524.8C145.679 536.39 157.189 544.51 170.609 544.51C178.439 544.51 185.619 541.75 191.239 537.14C199.719 555.12 217.999 567.57 239.199 567.57C258.839 567.57 275.969 556.88 285.129 541C290.479 544.85 297.039 547.13 304.129 547.13C322.109 547.13 336.689 532.55 336.689 514.57C336.689 496.59 322.109 482.01 304.129 482.01" fill="#FFFBF1"/>
<path d="M8.47947 520.52L11.4405 520.038L10.9372 516.946L7.86942 517.583L8.47947 520.52ZM112.049 525.39L114.217 523.316L110.505 519.437L109.147 524.632L112.049 525.39ZM140.689 524.8L143.445 523.614L141.571 519.262L138.439 522.817L140.689 524.8ZM191.239 537.14L193.953 535.861L192.312 532.381L189.337 534.821L191.239 537.14ZM285.129 541L286.882 538.565L284.189 536.627L282.531 539.501L285.129 541ZM4.46946 479C-7.93737 479 -18.0006 489.063 -18.0006 501.47L-12.0006 501.47C-12.0006 492.377 -4.62371 485 4.46946 485L4.46946 479ZM-18.0006 501.47C-18.0006 513.877 -7.9374 523.94 4.46946 523.94L4.46946 517.94C-4.62368 517.94 -12.0006 510.563 -12.0006 501.47L-18.0006 501.47ZM4.46946 523.94C6.05921 523.94 7.60389 523.766 9.08951 523.458L7.86942 517.583C6.75504 517.814 5.61969 517.94 4.46946 517.94L4.46946 523.94ZM5.51844 521.002C9.8508 547.62 32.9344 567.94 60.7794 567.94L60.7794 561.94C35.9245 561.94 15.3081 543.801 11.4405 520.038L5.51844 521.002ZM60.7794 567.94C86.7975 567.94 108.665 550.197 114.952 526.149L109.147 524.632C103.534 546.104 84.0015 561.94 60.7794 561.94L60.7794 567.94ZM109.882 527.464C113.959 531.726 119.711 534.41 126.099 534.41L126.099 528.41C121.428 528.41 117.219 526.454 114.217 523.316L109.882 527.464ZM126.099 534.41C132.824 534.41 138.84 531.437 142.94 526.784L138.439 522.817C135.419 526.244 131.015 528.41 126.099 528.41L126.099 534.41ZM137.934 525.987C143.38 538.636 155.947 547.51 170.609 547.51L170.609 541.51C158.432 541.51 147.979 534.145 143.445 523.614L137.934 525.987ZM170.609 547.51C179.158 547.51 187.005 544.494 193.142 539.46L189.337 534.821C184.234 539.007 177.721 541.51 170.609 541.51L170.609 547.51ZM188.526 538.42C197.482 557.409 216.794 570.57 239.199 570.57L239.199 564.57C219.205 564.57 201.957 552.831 193.953 535.861L188.526 538.42ZM239.199 570.57C259.957 570.57 278.055 559.268 287.728 542.499L282.531 539.501C273.884 554.492 257.722 564.57 239.199 564.57L239.199 570.57ZM283.377 543.435C289.217 547.638 296.386 550.13 304.129 550.13L304.129 544.13C297.693 544.13 291.742 542.063 286.882 538.565L283.377 543.435ZM304.129 550.13C323.766 550.13 339.689 534.207 339.689 514.57L333.689 514.57C333.689 530.893 320.453 544.13 304.129 544.13L304.129 550.13ZM339.689 514.57C339.689 494.933 323.766 479.01 304.129 479.01L304.129 485.01C320.453 485.01 333.689 498.247 333.689 514.57L339.689 514.57Z" fill="#D5D5D5" mask="url(#path-15-outside-7)"/>
<mask id="path-17-outside-8" maskUnits="userSpaceOnUse" x="282" y="393" width="282" height="89" fill="black">
<rect fill="white" x="282" y="393" width="282" height="89"/>
<path d="M541.36 478.89C552.11 478.89 560.83 470.17 560.83 459.42C560.83 448.67 552.11 439.95 541.36 439.95C535.54 439.95 530.33 442.52 526.77 446.56C521.78 434.97 510.27 426.85 496.85 426.85C487.29 426.85 478.69 430.97 472.73 437.54C467.49 413.78 446.32 396 420.99 396C397.14 396 376.97 411.76 370.32 433.43C364.49 424.61 354.5 418.78 343.13 418.78C328.58 418.78 316.26 428.33 312.09 441.5C309.75 440.5 307.17 439.95 304.47 439.95C293.72 439.95 285 448.67 285 459.42C285 470.17 293.72 478.89 304.47 478.89"/>
</mask>
<path d="M541.36 478.89C552.11 478.89 560.83 470.17 560.83 459.42C560.83 448.67 552.11 439.95 541.36 439.95C535.54 439.95 530.33 442.52 526.77 446.56C521.78 434.97 510.27 426.85 496.85 426.85C487.29 426.85 478.69 430.97 472.73 437.54C467.49 413.78 446.32 396 420.99 396C397.14 396 376.97 411.76 370.32 433.43C364.49 424.61 354.5 418.78 343.13 418.78C328.58 418.78 316.26 428.33 312.09 441.5C309.75 440.5 307.17 439.95 304.47 439.95C293.72 439.95 285 448.67 285 459.42C285 470.17 293.72 478.89 304.47 478.89" fill="#FFFBF1"/>
<path d="M526.77 446.56L524.015 447.746L525.888 452.098L529.021 448.543L526.77 446.56ZM472.73 437.54L469.8 438.186L471.051 443.856L474.952 439.556L472.73 437.54ZM370.32 433.43L367.817 435.084L371.323 440.388L373.188 434.31L370.32 433.43ZM312.09 441.5L310.911 444.259L313.952 445.558L314.95 442.406L312.09 441.5ZM541.36 481.89C553.767 481.89 563.83 471.827 563.83 459.42H557.83C557.83 468.513 550.453 475.89 541.36 475.89V481.89ZM563.83 459.42C563.83 447.013 553.767 436.95 541.36 436.95V442.95C550.453 442.95 557.83 450.327 557.83 459.42H563.83ZM541.36 436.95C534.636 436.95 528.62 439.923 524.519 444.577L529.021 448.543C532.04 445.117 536.444 442.95 541.36 442.95V436.95ZM529.525 445.374C524.08 432.725 511.513 423.85 496.85 423.85V429.85C509.027 429.85 519.481 437.215 524.015 447.746L529.525 445.374ZM496.85 423.85C486.409 423.85 477.013 428.354 470.508 435.524L474.952 439.556C480.367 433.586 488.171 429.85 496.85 429.85V423.85ZM475.66 436.894C470.123 411.79 447.759 393 420.99 393V399C444.881 399 464.857 415.77 469.8 438.186L475.66 436.894ZM420.99 393C395.785 393 374.478 409.656 367.452 432.55L373.188 434.31C379.462 413.864 398.495 399 420.99 399V393ZM372.823 431.776C366.463 422.154 355.553 415.78 343.13 415.78V421.78C353.447 421.78 362.517 427.066 367.817 435.084L372.823 431.776ZM343.13 415.78C327.234 415.78 313.783 426.214 309.23 440.594L314.95 442.406C318.737 430.446 329.926 421.78 343.13 421.78V415.78ZM313.269 438.741C310.56 437.584 307.58 436.95 304.47 436.95V442.95C306.76 442.95 308.94 443.416 310.911 444.259L313.269 438.741ZM304.47 436.95C292.063 436.95 282 447.013 282 459.42H288C288 450.327 295.377 442.95 304.47 442.95V436.95ZM282 459.42C282 471.827 292.063 481.89 304.47 481.89V475.89C295.377 475.89 288 468.513 288 459.42H282Z" fill="#D5D5D5" mask="url(#path-17-outside-8)"/>
<mask id="path-19-outside-9" maskUnits="userSpaceOnUse" x="-191" y="390" width="218" height="92" fill="black">
<rect fill="white" x="-191" y="390" width="218" height="92"/>
<path d="M4.08 478.8C14.83 478.8 23.55 470.08 23.55 459.33C23.55 448.58 14.83 439.86 4.08 439.86C1.90001 439.86 -0.189987 440.23 -2.14999 440.9C-4.72 414.02 -27.35 393 -54.9 393C-73.03 393 -89.02 402.11 -98.58 415.99C-102.05 410.63 -108.07 407.07 -114.93 407.07C-122.94 407.07 -129.81 411.91 -132.8 418.82C-138.66 413.15 -146.64 409.65 -155.44 409.65C-173.42 409.65 -188 424.23 -188 442.21C-188 460.19 -173.42 474.77 -155.44 474.77"/>
</mask>
<path d="M4.08 478.8C14.83 478.8 23.55 470.08 23.55 459.33C23.55 448.58 14.83 439.86 4.08 439.86C1.90001 439.86 -0.189987 440.23 -2.14999 440.9C-4.72 414.02 -27.35 393 -54.9 393C-73.03 393 -89.02 402.11 -98.58 415.99C-102.05 410.63 -108.07 407.07 -114.93 407.07C-122.94 407.07 -129.81 411.91 -132.8 418.82C-138.66 413.15 -146.64 409.65 -155.44 409.65C-173.42 409.65 -188 424.23 -188 442.21C-188 460.19 -173.42 474.77 -155.44 474.77" fill="#FFFBF1"/>
<path d="M-2.14999 440.9L-5.13637 441.186L-4.77477 444.968L-1.17961 443.739L-2.14999 440.9ZM-98.58 415.99L-101.098 417.62L-98.6573 421.391L-96.1093 417.692L-98.58 415.99ZM-132.8 418.82L-134.886 420.976L-131.769 423.992L-130.047 420.011L-132.8 418.82ZM4.08 481.8C16.4869 481.8 26.55 471.737 26.55 459.33H20.55C20.55 468.423 13.1731 475.8 4.08 475.8V481.8ZM26.55 459.33C26.55 446.923 16.4869 436.86 4.08 436.86V442.86C13.1731 442.86 20.55 450.237 20.55 459.33H26.55ZM4.08 436.86C1.55707 436.86 -0.860336 437.289 -3.12038 438.061L-1.17961 443.739C0.480347 443.171 2.24294 442.86 4.08 442.86V436.86ZM0.83638 440.614C-1.87927 412.211 -25.788 390 -54.9 390V396C-28.912 396 -7.56071 415.829 -5.13637 441.186L0.83638 440.614ZM-54.9 390C-74.0605 390 -90.956 399.632 -101.051 414.288L-96.1093 417.692C-87.084 404.588 -71.9995 396 -54.9 396V390ZM-96.0617 414.36C-100.058 408.187 -107.004 404.07 -114.93 404.07V410.07C-109.136 410.07 -104.042 413.073 -101.098 417.62L-96.0617 414.36ZM-114.93 404.07C-124.181 404.07 -132.106 409.663 -135.553 417.629L-130.047 420.011C-127.514 414.157 -121.699 410.07 -114.93 410.07V404.07ZM-130.714 416.664C-137.109 410.477 -145.828 406.65 -155.44 406.65V412.65C-147.452 412.65 -140.211 415.824 -134.886 420.976L-130.714 416.664ZM-155.44 406.65C-175.077 406.65 -191 422.573 -191 442.21H-185C-185 425.887 -171.763 412.65 -155.44 412.65V406.65ZM-191 442.21C-191 461.847 -175.077 477.77 -155.44 477.77V471.77C-171.763 471.77 -185 458.533 -185 442.21H-191Z" fill="#D5D5D5" mask="url(#path-19-outside-9)"/>
<mask id="path-21-outside-10" maskUnits="userSpaceOnUse" x="-109" y="226" width="218" height="92" fill="black">
<rect fill="white" x="-109" y="226" width="218" height="92"/>
<path d="M86.08 314.8C96.83 314.8 105.55 306.08 105.55 295.33C105.55 284.58 96.83 275.86 86.08 275.86C83.9 275.86 81.81 276.23 79.85 276.9C77.28 250.02 54.65 229 27.1 229C8.97001 229 -7.02 238.11 -16.58 251.99C-20.05 246.63 -26.07 243.07 -32.93 243.07C-40.94 243.07 -47.81 247.91 -50.8 254.82C-56.66 249.15 -64.64 245.65 -73.44 245.65C-91.42 245.65 -106 260.23 -106 278.21C-106 296.19 -91.42 310.77 -73.44 310.77"/>
</mask>
<path d="M86.08 314.8C96.83 314.8 105.55 306.08 105.55 295.33C105.55 284.58 96.83 275.86 86.08 275.86C83.9 275.86 81.81 276.23 79.85 276.9C77.28 250.02 54.65 229 27.1 229C8.97001 229 -7.02 238.11 -16.58 251.99C-20.05 246.63 -26.07 243.07 -32.93 243.07C-40.94 243.07 -47.81 247.91 -50.8 254.82C-56.66 249.15 -64.64 245.65 -73.44 245.65C-91.42 245.65 -106 260.23 -106 278.21C-106 296.19 -91.42 310.77 -73.44 310.77" fill="#FFFBF1"/>
<path d="M79.85 276.9L76.8636 277.186L77.2252 280.968L80.8204 279.739L79.85 276.9ZM-16.58 251.99L-19.0983 253.62L-16.6573 257.391L-14.1093 253.692L-16.58 251.99ZM-50.8 254.82L-52.8861 256.976L-49.7691 259.992L-48.0467 256.011L-50.8 254.82ZM86.08 317.8C98.4869 317.8 108.55 307.737 108.55 295.33H102.55C102.55 304.423 95.1731 311.8 86.08 311.8V317.8ZM108.55 295.33C108.55 282.923 98.4869 272.86 86.08 272.86V278.86C95.1731 278.86 102.55 286.237 102.55 295.33H108.55ZM86.08 272.86C83.5571 272.86 81.1397 273.289 78.8796 274.061L80.8204 279.739C82.4803 279.171 84.2429 278.86 86.08 278.86V272.86ZM82.8364 276.614C80.1207 248.211 56.212 226 27.1 226V232C53.088 232 74.4393 251.829 76.8636 277.186L82.8364 276.614ZM27.1 226C7.93949 226 -8.95598 235.632 -19.0507 250.288L-14.1093 253.692C-5.08402 240.588 10.0005 232 27.1 232V226ZM-14.0617 250.36C-18.0577 244.187 -25.0041 240.07 -32.93 240.07V246.07C-27.1358 246.07 -22.0423 249.073 -19.0983 253.62L-14.0617 250.36ZM-32.93 240.07C-42.1814 240.07 -50.1064 245.663 -53.5533 253.629L-48.0467 256.011C-45.5136 250.157 -39.6986 246.07 -32.93 246.07V240.07ZM-48.7139 252.664C-55.1088 246.477 -63.8278 242.65 -73.44 242.65V248.65C-65.4522 248.65 -58.2112 251.824 -52.8861 256.976L-48.7139 252.664ZM-73.44 242.65C-93.0769 242.65 -109 258.573 -109 278.21H-103C-103 261.887 -89.7631 248.65 -73.44 248.65V242.65ZM-109 278.21C-109 297.847 -93.0769 313.77 -73.44 313.77V307.77C-89.7631 307.77 -103 294.533 -103 278.21H-109Z" fill="#D5D5D5" mask="url(#path-21-outside-10)"/>
<mask id="path-23-outside-11" maskUnits="userSpaceOnUse" x="63.8301" y="314.47" width="254" height="82" fill="black">
<rect fill="white" x="63.8301" y="314.47" width="254" height="82"/>
<path d="M86.4701 318C75.7201 318 67.0001 329.72 67.0001 340.47C67.0001 351.22 75.7201 359.94 86.4701 359.94C94.2401 359.94 100.92 355.38 104.04 348.81C107.16 355.39 113.85 359.94 121.61 359.94C124.22 359.94 126.7 359.42 128.98 358.49C136.35 378.89 155.89 393.47 178.83 393.47C202.68 393.47 222.85 377.71 229.5 356.04C235.33 364.86 245.32 370.69 256.69 370.69C268.79 370.69 279.34 364.08 284.96 354.28C287.97 356.19 291.53 357.31 295.36 357.31C306.11 357.31 314.83 348.59 314.83 337.84C314.83 327.09 306.11 318.37 295.36 318.37"/>
</mask>
<path d="M86.4701 318C75.7201 318 67.0001 329.72 67.0001 340.47C67.0001 351.22 75.7201 359.94 86.4701 359.94C94.2401 359.94 100.92 355.38 104.04 348.81C107.16 355.39 113.85 359.94 121.61 359.94C124.22 359.94 126.7 359.42 128.98 358.49C136.35 378.89 155.89 393.47 178.83 393.47C202.68 393.47 222.85 377.71 229.5 356.04C235.33 364.86 245.32 370.69 256.69 370.69C268.79 370.69 279.34 364.08 284.96 354.28C287.97 356.19 291.53 357.31 295.36 357.31C306.11 357.31 314.83 348.59 314.83 337.84C314.83 327.09 306.11 318.37 295.36 318.37" fill="#FFFBF1"/>
<path d="M104.04 348.81L106.751 347.524L104.042 341.812L101.33 347.523L104.04 348.81ZM128.98 358.49L131.802 357.47L130.74 354.532L127.847 355.712L128.98 358.49ZM229.5 356.04L232.003 354.385L228.497 349.082L226.632 355.16L229.5 356.04ZM284.96 354.28L286.567 351.747L283.918 350.066L282.358 352.787L284.96 354.28ZM86.4701 315C79.9608 315 74.3114 318.538 70.3892 323.295C66.4672 328.052 64.0001 334.331 64.0001 340.47L70.0001 340.47C70.0001 335.858 71.893 330.903 75.0185 327.112C78.1438 323.321 82.2294 321 86.4701 321L86.4701 315ZM64.0001 340.47C64.0001 352.877 74.0633 362.94 86.4701 362.94L86.4701 356.94C77.3769 356.94 70.0001 349.563 70.0001 340.47L64.0001 340.47ZM86.4701 362.94C95.4479 362.94 103.155 357.667 106.75 350.097L101.33 347.523C98.6854 353.092 93.0323 356.94 86.4701 356.94L86.4701 362.94ZM101.329 350.095C104.926 357.68 112.645 362.94 121.61 362.94L121.61 356.94C115.055 356.94 109.394 353.099 106.751 347.524L101.329 350.095ZM121.61 362.94C124.624 362.94 127.488 362.338 130.113 361.268L127.847 355.712C125.913 356.501 123.816 356.94 121.61 356.94L121.61 362.94ZM126.159 359.509C133.944 381.06 154.587 396.47 178.83 396.47L178.83 390.47C157.193 390.47 138.756 376.719 131.802 357.47L126.159 359.509ZM178.83 396.47C204.035 396.47 225.342 379.814 232.368 356.92L226.632 355.16C220.358 375.606 201.325 390.47 178.83 390.47L178.83 396.47ZM226.997 357.694C233.357 367.316 244.267 373.69 256.69 373.69L256.69 367.69C246.373 367.69 237.303 362.404 232.003 354.385L226.997 357.694ZM256.69 373.69C269.912 373.69 281.431 366.463 287.563 355.772L282.358 352.787C277.249 361.696 267.668 367.69 256.69 367.69L256.69 373.69ZM283.353 356.813C286.821 359.014 290.935 360.31 295.36 360.31L295.36 354.31C292.125 354.31 289.119 353.366 286.567 351.747L283.353 356.813ZM295.36 360.31C307.767 360.31 317.83 350.247 317.83 337.84L311.83 337.84C311.83 346.933 304.453 354.31 295.36 354.31L295.36 360.31ZM317.83 337.84C317.83 325.433 307.767 315.37 295.36 315.37L295.36 321.37C304.453 321.37 311.83 328.747 311.83 337.84L317.83 337.84Z" fill="#D5D5D5" mask="url(#path-23-outside-11)"/>
<mask id="path-25-outside-12" maskUnits="userSpaceOnUse" x="273" y="238" width="365" height="81" fill="black">
<rect fill="white" x="273" y="238" width="365" height="81"/>
<path d="M615.52 315.47C626.27 315.47 634.99 304.75 634.99 294C634.99 283.25 626.27 274.53 615.52 274.53C607.75 274.53 601.07 279.09 597.95 285.66C594.83 279.08 588.14 274.53 580.38 274.53C577.77 274.53 575.29 275.05 573.01 275.98C565.63 255.58 546.09 241 523.15 241C499.3 241 479.13 256.76 472.48 278.43C466.66 269.61 456.66 263.78 445.29 263.78C433.19 263.78 422.64 270.39 417.02 280.19C414.01 278.28 410.45 277.16 406.62 277.16C399.85 277.16 393.88 280.62 390.4 285.87C390.77 283.9 390.98 281.86 390.98 279.78C390.98 261.8 376.4 247.22 358.42 247.22C347.34 247.22 337.55 252.76 331.67 261.22C328.51 259 324.66 257.68 320.5 257.68C309.75 257.68 301.03 266.4 301.03 277.15C301.03 277.33 301.05 277.51 301.06 277.69C299.29 277.16 297.41 276.87 295.47 276.87C284.72 276.87 276 285.59 276 296.34C276 307.09 284.72 315.81 295.47 315.81"/>
</mask>
<path d="M615.52 315.47C626.27 315.47 634.99 304.75 634.99 294C634.99 283.25 626.27 274.53 615.52 274.53C607.75 274.53 601.07 279.09 597.95 285.66C594.83 279.08 588.14 274.53 580.38 274.53C577.77 274.53 575.29 275.05 573.01 275.98C565.63 255.58 546.09 241 523.15 241C499.3 241 479.13 256.76 472.48 278.43C466.66 269.61 456.66 263.78 445.29 263.78C433.19 263.78 422.64 270.39 417.02 280.19C414.01 278.28 410.45 277.16 406.62 277.16C399.85 277.16 393.88 280.62 390.4 285.87C390.77 283.9 390.98 281.86 390.98 279.78C390.98 261.8 376.4 247.22 358.42 247.22C347.34 247.22 337.55 252.76 331.67 261.22C328.51 259 324.66 257.68 320.5 257.68C309.75 257.68 301.03 266.4 301.03 277.15C301.03 277.33 301.05 277.51 301.06 277.69C299.29 277.16 297.41 276.87 295.47 276.87C284.72 276.87 276 285.59 276 296.34C276 307.09 284.72 315.81 295.47 315.81" fill="#FFFBF1"/>
<path d="M597.95 285.66L595.239 286.945L597.948 292.658L600.66 286.947L597.95 285.66ZM573.01 275.98L570.189 277.001L571.251 279.937L574.143 278.758L573.01 275.98ZM472.48 278.43L469.976 280.082L473.481 285.394L475.348 279.31L472.48 278.43ZM417.02 280.19L415.413 282.723L418.062 284.404L419.622 281.682L417.02 280.19ZM390.4 285.87L387.452 285.316L384.718 299.872L392.901 287.528L390.4 285.87ZM331.67 261.22L329.945 263.675L332.413 265.408L334.133 262.932L331.67 261.22ZM301.06 277.69L300.199 280.564L304.292 281.789L304.055 277.524L301.06 277.69ZM615.52 318.47C621.93 318.47 627.573 315.276 631.543 310.743C635.507 306.216 637.99 300.159 637.99 294H631.99C631.99 298.591 630.113 303.269 627.029 306.79C623.952 310.304 619.859 312.47 615.52 312.47V318.47ZM637.99 294C637.99 281.593 627.927 271.53 615.52 271.53V277.53C624.613 277.53 631.99 284.907 631.99 294H637.99ZM615.52 271.53C606.542 271.53 598.835 276.802 595.24 284.373L600.66 286.947C603.305 281.378 608.958 277.53 615.52 277.53V271.53ZM600.661 284.375C597.064 276.79 589.345 271.53 580.38 271.53V277.53C586.935 277.53 592.596 281.37 595.239 286.945L600.661 284.375ZM580.38 271.53C577.366 271.53 574.502 272.131 571.877 273.202L574.143 278.758C576.078 277.969 578.174 277.53 580.38 277.53V271.53ZM575.831 274.959C568.035 253.41 547.394 238 523.15 238V244C544.786 244 563.225 257.75 570.189 277.001L575.831 274.959ZM523.15 238C497.945 238 476.638 254.656 469.612 277.55L475.348 279.31C481.622 258.864 500.655 244 523.15 244V238ZM474.984 276.778C468.633 267.153 457.711 260.78 445.29 260.78V266.78C455.609 266.78 464.687 272.067 469.976 280.082L474.984 276.778ZM445.29 260.78C432.068 260.78 420.549 268.006 414.418 278.698L419.622 281.682C424.731 272.774 434.312 266.78 445.29 266.78V260.78ZM418.627 277.657C415.159 275.456 411.045 274.16 406.62 274.16V280.16C409.855 280.16 412.861 281.104 415.413 282.723L418.627 277.657ZM406.62 274.16C398.804 274.16 391.913 278.158 387.899 284.212L392.901 287.528C395.847 283.082 400.896 280.16 406.62 280.16V274.16ZM393.348 286.424C393.75 284.287 393.98 282.062 393.98 279.78H387.98C387.98 281.658 387.79 283.513 387.452 285.316L393.348 286.424ZM393.98 279.78C393.98 260.143 378.057 244.22 358.42 244.22V250.22C374.743 250.22 387.98 263.457 387.98 279.78H393.98ZM358.42 244.22C346.316 244.22 335.623 250.276 329.207 259.508L334.133 262.932C339.477 255.244 348.364 250.22 358.42 250.22V244.22ZM333.395 258.765C329.753 256.207 325.305 254.68 320.5 254.68V260.68C324.015 260.68 327.267 261.793 329.945 263.675L333.395 258.765ZM320.5 254.68C308.093 254.68 298.03 264.743 298.03 277.15H304.03C304.03 268.057 311.407 260.68 320.5 260.68V254.68ZM298.03 277.15C298.03 277.345 298.041 277.517 298.048 277.628C298.059 277.776 298.061 277.791 298.065 277.856L304.055 277.524C304.051 277.453 304.047 277.387 304.043 277.337C304.039 277.277 304.037 277.251 304.034 277.212C304.029 277.143 304.03 277.135 304.03 277.15H298.03ZM301.921 274.816C299.879 274.205 297.71 273.87 295.47 273.87V279.87C297.11 279.87 298.701 280.115 300.199 280.564L301.921 274.816ZM295.47 273.87C283.063 273.87 273 283.933 273 296.34H279C279 287.247 286.377 279.87 295.47 279.87V273.87ZM273 296.34C273 308.747 283.063 318.81 295.47 318.81V312.81C286.377 312.81 279 305.433 279 296.34H273Z" fill="#D5D5D5" mask="url(#path-25-outside-12)"/>
<mask id="path-27-outside-13" maskUnits="userSpaceOnUse" x="740" y="230" width="218" height="92" fill="black">
<rect fill="white" x="740" y="230" width="218" height="92"/>
<path d="M935.08 318.8C945.83 318.8 954.55 310.08 954.55 299.33C954.55 288.58 945.83 279.86 935.08 279.86C932.9 279.86 930.81 280.23 928.85 280.9C926.28 254.02 903.65 233 876.1 233C857.97 233 841.98 242.11 832.42 255.99C828.95 250.63 822.93 247.07 816.07 247.07C808.06 247.07 801.19 251.91 798.2 258.82C792.34 253.15 784.36 249.65 775.56 249.65C757.58 249.65 743 264.23 743 282.21C743 300.19 757.58 314.77 775.56 314.77"/>
</mask>
<path d="M935.08 318.8C945.83 318.8 954.55 310.08 954.55 299.33C954.55 288.58 945.83 279.86 935.08 279.86C932.9 279.86 930.81 280.23 928.85 280.9C926.28 254.02 903.65 233 876.1 233C857.97 233 841.98 242.11 832.42 255.99C828.95 250.63 822.93 247.07 816.07 247.07C808.06 247.07 801.19 251.91 798.2 258.82C792.34 253.15 784.36 249.65 775.56 249.65C757.58 249.65 743 264.23 743 282.21C743 300.19 757.58 314.77 775.56 314.77" fill="#FFFBF1"/>
<path d="M928.85 280.9L925.864 281.186L926.225 284.968L929.82 283.739L928.85 280.9ZM832.42 255.99L829.902 257.62L832.343 261.391L834.891 257.692L832.42 255.99ZM798.2 258.82L796.114 260.976L799.231 263.992L800.953 260.011L798.2 258.82ZM935.08 321.8C947.487 321.8 957.55 311.737 957.55 299.33H951.55C951.55 308.423 944.173 315.8 935.08 315.8V321.8ZM957.55 299.33C957.55 286.923 947.487 276.86 935.08 276.86V282.86C944.173 282.86 951.55 290.237 951.55 299.33H957.55ZM935.08 276.86C932.557 276.86 930.14 277.289 927.88 278.061L929.82 283.739C931.48 283.171 933.243 282.86 935.08 282.86V276.86ZM931.836 280.614C929.121 252.211 905.212 230 876.1 230V236C902.088 236 923.439 255.829 925.864 281.186L931.836 280.614ZM876.1 230C856.939 230 840.044 239.632 829.949 254.288L834.891 257.692C843.916 244.588 859.001 236 876.1 236V230ZM834.938 254.36C830.942 248.187 823.996 244.07 816.07 244.07V250.07C821.864 250.07 826.958 253.073 829.902 257.62L834.938 254.36ZM816.07 244.07C806.819 244.07 798.894 249.663 795.447 257.629L800.953 260.011C803.486 254.157 809.301 250.07 816.07 250.07V244.07ZM800.286 256.664C793.891 250.476 785.172 246.65 775.56 246.65V252.65C783.548 252.65 790.789 255.824 796.114 260.976L800.286 256.664ZM775.56 246.65C755.923 246.65 740 262.573 740 282.21H746C746 265.887 759.237 252.65 775.56 252.65V246.65ZM740 282.21C740 301.847 755.923 317.77 775.56 317.77V311.77C759.237 311.77 746 298.533 746 282.21H740Z" fill="#D5D5D5" mask="url(#path-27-outside-13)"/>
<mask id="path-29-outside-14" maskUnits="userSpaceOnUse" x="579.55" y="314.8" width="218" height="92" fill="black">
<rect fill="white" x="579.55" y="314.8" width="218" height="92"/>
<path d="M775.08 318C785.83 318 794.55 326.72 794.55 337.47C794.55 348.22 785.83 356.94 775.08 356.94C772.9 356.94 770.81 356.57 768.85 355.9C766.28 382.78 743.65 403.8 716.1 403.8C697.97 403.8 681.98 394.69 672.42 380.81C668.95 386.17 662.93 389.73 656.07 389.73C648.06 389.73 641.19 384.89 638.2 377.98C632.34 383.65 624.36 387.15 615.56 387.15C597.58 387.15 583 372.57 583 354.59C583 336.61 597.58 318.03 615.56 318.03"/>
</mask>
<path d="M775.08 318C785.83 318 794.55 326.72 794.55 337.47C794.55 348.22 785.83 356.94 775.08 356.94C772.9 356.94 770.81 356.57 768.85 355.9C766.28 382.78 743.65 403.8 716.1 403.8C697.97 403.8 681.98 394.69 672.42 380.81C668.95 386.17 662.93 389.73 656.07 389.73C648.06 389.73 641.19 384.89 638.2 377.98C632.34 383.65 624.36 387.15 615.56 387.15C597.58 387.15 583 372.57 583 354.59C583 336.61 597.58 318.03 615.56 318.03" fill="#FFFBF1"/>
<path d="M768.85 355.9L769.82 353.061L766.225 351.832L765.863 355.614L768.85 355.9ZM672.42 380.81L674.89 379.108L672.343 375.409L669.901 379.179L672.42 380.81ZM638.2 377.98L640.953 376.788L639.231 372.808L636.114 375.824L638.2 377.98ZM775.08 321C784.173 321 791.55 328.377 791.55 337.47L797.55 337.47C797.55 325.063 787.487 315 775.08 315L775.08 321ZM791.55 337.47C791.55 346.563 784.173 353.94 775.08 353.94L775.08 359.94C787.487 359.94 797.55 349.877 797.55 337.47L791.55 337.47ZM775.08 353.94C773.243 353.94 771.48 353.629 769.82 353.061L767.879 358.739C770.139 359.511 772.557 359.94 775.08 359.94L775.08 353.94ZM765.863 355.614C763.439 380.971 742.088 400.8 716.1 400.8L716.1 406.8C745.212 406.8 769.121 384.589 771.836 356.185L765.863 355.614ZM716.1 400.8C699 400.8 683.916 392.212 674.89 379.108L669.949 382.511C680.044 397.168 696.939 406.8 716.1 406.8L716.1 400.8ZM669.901 379.179C666.958 383.727 661.864 386.73 656.07 386.73L656.07 392.73C663.996 392.73 670.942 388.613 674.938 382.44L669.901 379.179ZM656.07 386.73C649.301 386.73 643.486 382.643 640.953 376.788L635.447 379.171C638.893 387.137 646.818 392.73 656.07 392.73L656.07 386.73ZM636.114 375.824C630.789 380.976 623.548 384.15 615.56 384.15L615.56 390.15C625.172 390.15 633.891 386.323 640.286 380.136L636.114 375.824ZM615.56 384.15C599.237 384.15 586 370.913 586 354.59L580 354.59C580 374.227 595.923 390.15 615.56 390.15L615.56 384.15ZM586 354.59C586 346.376 589.348 337.914 594.818 331.517C600.282 325.125 607.644 321.03 615.56 321.03L615.56 315.03C605.495 315.03 596.577 320.225 590.257 327.618C583.941 335.005 580 344.824 580 354.59L586 354.59Z" fill="#D5D5D5" mask="url(#path-29-outside-14)"/>
<path d="M542.47 90.9998C531.72 90.9998 523 99.7198 523 110.47C523 121.22 531.72 129.94 542.47 129.94C544.65 129.94 546.74 129.57 548.7 128.9C551.27 155.78 573.9 172.8 601.45 172.8C619.58 172.8 635.57 163.69 645.13 149.81C648.6 155.17 654.62 158.73 661.48 158.73C669.49 158.73 676.36 153.89 679.35 146.98C685.21 152.65 693.19 156.15 701.99 156.15C719.97 156.15 734.55 141.57 734.55 123.59C734.55 105.61 719.97 91.0298 701.99 91.0298" fill="#FFFBF1"/>
<path d="M542.47 90.9998C531.72 90.9998 523 99.7198 523 110.47C523 121.22 531.72 129.94 542.47 129.94C544.65 129.94 546.74 129.57 548.7 128.9C551.27 155.78 573.9 172.8 601.45 172.8C619.58 172.8 635.57 163.69 645.13 149.81C648.6 155.17 654.62 158.73 661.48 158.73C669.49 158.73 676.36 153.89 679.35 146.98C685.21 152.65 693.19 156.15 701.99 156.15C719.97 156.15 734.55 141.57 734.55 123.59C734.55 105.61 719.97 91.0298 701.99 91.0298" stroke="#D5D5D5" stroke-width="3" stroke-miterlimit="10"/>
<mask id="path-33-outside-15" maskUnits="userSpaceOnUse" x="667" y="1" width="358" height="92" fill="black">
<rect fill="white" x="667" y="1" width="358" height="92"/>
<path d="M1002.22 89.57C1012.97 89.57 1021.69 80.85 1021.69 70.1C1021.69 59.35 1012.97 50.63 1002.22 50.63C1000.85 50.63 999.51 50.78 998.21 51.05C994.11 25.86 972.26 6.63 945.91 6.63C921.29 6.63 900.59 23.42 894.64 46.18C891.1 42.48 886.12 40.16 880.59 40.16C874.77 40.16 869.56 42.73 866 46.77C861.01 35.18 849.5 27.06 836.08 27.06C828.25 27.06 821.07 29.82 815.45 34.43C806.97 16.45 788.69 4 767.49 4C747.85 4 730.72 14.69 721.56 30.57C716.21 26.72 709.65 24.44 702.56 24.44C684.58 24.44 670 39.02 670 57C670 74.98 684.58 89.56 702.56 89.56"/>
</mask>
<path d="M1002.22 89.57C1012.97 89.57 1021.69 80.85 1021.69 70.1C1021.69 59.35 1012.97 50.63 1002.22 50.63C1000.85 50.63 999.51 50.78 998.21 51.05C994.11 25.86 972.26 6.63 945.91 6.63C921.29 6.63 900.59 23.42 894.64 46.18C891.1 42.48 886.12 40.16 880.59 40.16C874.77 40.16 869.56 42.73 866 46.77C861.01 35.18 849.5 27.06 836.08 27.06C828.25 27.06 821.07 29.82 815.45 34.43C806.97 16.45 788.69 4 767.49 4C747.85 4 730.72 14.69 721.56 30.57C716.21 26.72 709.65 24.44 702.56 24.44C684.58 24.44 670 39.02 670 57C670 74.98 684.58 89.56 702.56 89.56" fill="#FFFBF1"/>
<path d="M998.21 51.05L995.249 51.5319L995.752 54.6245L998.82 53.9873L998.21 51.05ZM894.64 46.18L892.472 48.2539L896.184 52.1337L897.542 46.9388L894.64 46.18ZM866 46.77L863.245 47.9564L865.118 52.3083L868.251 48.7534L866 46.77ZM815.45 34.43L812.737 35.7097L814.378 39.1896L817.353 36.7495L815.45 34.43ZM721.56 30.57L719.808 33.005L722.501 34.9431L724.159 32.069L721.56 30.57ZM1002.22 92.57C1014.63 92.57 1024.69 82.5069 1024.69 70.1H1018.69C1018.69 79.1931 1011.31 86.57 1002.22 86.57V92.57ZM1024.69 70.1C1024.69 57.6931 1014.63 47.63 1002.22 47.63V53.63C1011.31 53.63 1018.69 61.0069 1018.69 70.1H1024.69ZM1002.22 47.63C1000.63 47.63 999.086 47.8041 997.6 48.1127L998.82 53.9873C999.934 53.7559 1001.07 53.63 1002.22 53.63V47.63ZM1001.17 50.5681C996.839 23.9504 973.755 3.63 945.91 3.63V9.63C970.765 9.63 991.381 27.7696 995.249 51.5319L1001.17 50.5681ZM945.91 3.63C919.892 3.63 898.024 21.3735 891.738 45.4212L897.542 46.9388C903.156 25.4664 922.688 9.63 945.91 9.63V3.63ZM896.808 44.1061C892.73 39.8441 886.979 37.16 880.59 37.16V43.16C885.261 43.16 889.47 45.1159 892.472 48.2539L896.808 44.1061ZM880.59 37.16C873.866 37.16 867.85 40.1333 863.749 44.7866L868.251 48.7534C871.27 45.3267 875.674 43.16 880.59 43.16V37.16ZM868.755 45.5837C863.31 32.9346 850.743 24.06 836.08 24.06V30.06C848.257 30.06 858.711 37.4254 863.245 47.9564L868.755 45.5837ZM836.08 24.06C827.532 24.06 819.685 27.0763 813.547 32.1105L817.353 36.7495C822.456 32.5637 828.968 30.06 836.08 30.06V24.06ZM818.163 33.1503C809.207 14.1609 789.896 1 767.49 1V7C787.484 7 804.733 18.7391 812.737 35.7097L818.163 33.1503ZM767.49 1C746.733 1 728.634 12.3021 718.961 29.071L724.159 32.069C732.806 17.0779 748.967 7 767.49 7V1ZM723.312 28.135C717.472 23.9324 710.304 21.44 702.56 21.44V27.44C708.996 27.44 714.948 29.5075 719.808 33.005L723.312 28.135ZM702.56 21.44C682.923 21.44 667 37.3631 667 57H673C673 40.6769 686.237 27.44 702.56 27.44V21.44ZM667 57C667 76.6369 682.923 92.56 702.56 92.56V86.56C686.237 86.56 673 73.3231 673 57H667Z" fill="#D5D5D5" mask="url(#path-33-outside-15)"/>
<mask id="path-35-outside-16" maskUnits="userSpaceOnUse" x="-18.3105" y="88.5703" width="358" height="92" fill="black">
<rect fill="white" x="-18.3105" y="88.5703" width="358" height="92"/>
<path d="M4.46946 92.0003C-6.28054 92.0003 -15.0006 100.72 -15.0006 111.47C-15.0006 122.22 -6.28054 130.94 4.46946 130.94C5.83945 130.94 7.17948 130.79 8.47947 130.52C12.5795 155.71 34.4294 174.94 60.7794 174.94C85.3994 174.94 106.099 158.15 112.049 135.39C115.589 139.09 120.569 141.41 126.099 141.41C131.919 141.41 137.129 138.84 140.689 134.8C145.679 146.39 157.189 154.51 170.609 154.51C178.439 154.51 185.619 151.75 191.239 147.14C199.719 165.12 217.999 177.57 239.199 177.57C258.839 177.57 275.969 166.88 285.129 151C290.479 154.85 297.039 157.13 304.129 157.13C322.109 157.13 336.689 142.55 336.689 124.57C336.689 106.59 322.109 92.0103 304.129 92.0103"/>
</mask>
<path d="M4.46946 92.0003C-6.28054 92.0003 -15.0006 100.72 -15.0006 111.47C-15.0006 122.22 -6.28054 130.94 4.46946 130.94C5.83945 130.94 7.17948 130.79 8.47947 130.52C12.5795 155.71 34.4294 174.94 60.7794 174.94C85.3994 174.94 106.099 158.15 112.049 135.39C115.589 139.09 120.569 141.41 126.099 141.41C131.919 141.41 137.129 138.84 140.689 134.8C145.679 146.39 157.189 154.51 170.609 154.51C178.439 154.51 185.619 151.75 191.239 147.14C199.719 165.12 217.999 177.57 239.199 177.57C258.839 177.57 275.969 166.88 285.129 151C290.479 154.85 297.039 157.13 304.129 157.13C322.109 157.13 336.689 142.55 336.689 124.57C336.689 106.59 322.109 92.0103 304.129 92.0103" fill="#FFFBF1"/>
<path d="M8.47947 130.52L11.4405 130.038L10.9372 126.946L7.86942 127.583L8.47947 130.52ZM112.049 135.39L114.217 133.316L110.505 129.437L109.147 134.632L112.049 135.39ZM140.689 134.8L143.445 133.614L141.571 129.262L138.439 132.817L140.689 134.8ZM191.239 147.14L193.953 145.861L192.312 142.381L189.337 144.821L191.239 147.14ZM285.129 151L286.882 148.565L284.189 146.627L282.531 149.501L285.129 151ZM4.46946 89.0003C-7.93737 89.0003 -18.0006 99.0634 -18.0006 111.47L-12.0006 111.47C-12.0006 102.377 -4.62371 95.0003 4.46946 95.0003L4.46946 89.0003ZM-18.0006 111.47C-18.0006 123.877 -7.9374 133.94 4.46946 133.94L4.46946 127.94C-4.62368 127.94 -12.0006 120.563 -12.0006 111.47L-18.0006 111.47ZM4.46946 133.94C6.05921 133.94 7.60389 133.766 9.08951 133.458L7.86942 127.583C6.75504 127.814 5.61969 127.94 4.46946 127.94L4.46946 133.94ZM5.51844 131.002C9.8508 157.62 32.9344 177.94 60.7794 177.94L60.7794 171.94C35.9245 171.94 15.3081 153.801 11.4405 130.038L5.51844 131.002ZM60.7794 177.94C86.7975 177.94 108.665 160.197 114.952 136.149L109.147 134.632C103.534 156.104 84.0015 171.94 60.7794 171.94L60.7794 177.94ZM109.882 137.464C113.959 141.726 119.711 144.41 126.099 144.41L126.099 138.41C121.428 138.41 117.219 136.454 114.217 133.316L109.882 137.464ZM126.099 144.41C132.824 144.41 138.84 141.437 142.94 136.784L138.439 132.817C135.419 136.244 131.015 138.41 126.099 138.41L126.099 144.41ZM137.934 135.987C143.38 148.636 155.947 157.51 170.609 157.51L170.609 151.51C158.432 151.51 147.979 144.145 143.445 133.614L137.934 135.987ZM170.609 157.51C179.158 157.51 187.005 154.494 193.142 149.46L189.337 144.821C184.234 149.007 177.721 151.51 170.609 151.51L170.609 157.51ZM188.526 148.42C197.482 167.409 216.794 180.57 239.199 180.57L239.199 174.57C219.205 174.57 201.957 162.831 193.953 145.861L188.526 148.42ZM239.199 180.57C259.957 180.57 278.055 169.268 287.728 152.499L282.531 149.501C273.884 164.492 257.722 174.57 239.199 174.57L239.199 180.57ZM283.377 153.435C289.217 157.638 296.386 160.13 304.129 160.13L304.129 154.13C297.693 154.13 291.742 152.063 286.882 148.565L283.377 153.435ZM304.129 160.13C323.766 160.13 339.689 144.207 339.689 124.57L333.689 124.57C333.689 140.893 320.453 154.13 304.129 154.13L304.129 160.13ZM339.689 124.57C339.689 104.933 323.766 89.0103 304.129 89.0103L304.129 95.0103C320.453 95.0103 333.689 108.247 333.689 124.57L339.689 124.57Z" fill="#D5D5D5" mask="url(#path-35-outside-16)"/>
<mask id="path-37-outside-17" maskUnits="userSpaceOnUse" x="282" y="3" width="282" height="89" fill="black">
<rect fill="white" x="282" y="3" width="282" height="89"/>
<path d="M541.36 88.89C552.11 88.89 560.83 80.17 560.83 69.42C560.83 58.67 552.11 49.95 541.36 49.95C535.54 49.95 530.33 52.52 526.77 56.56C521.78 44.97 510.27 36.85 496.85 36.85C487.29 36.85 478.69 40.97 472.73 47.54C467.49 23.78 446.32 6 420.99 6C397.14 6 376.97 21.76 370.32 43.43C364.49 34.61 354.5 28.78 343.13 28.78C328.58 28.78 316.26 38.33 312.09 51.5C309.75 50.5 307.17 49.95 304.47 49.95C293.72 49.95 285 58.67 285 69.42C285 80.17 293.72 88.89 304.47 88.89"/>
</mask>
<path d="M541.36 88.89C552.11 88.89 560.83 80.17 560.83 69.42C560.83 58.67 552.11 49.95 541.36 49.95C535.54 49.95 530.33 52.52 526.77 56.56C521.78 44.97 510.27 36.85 496.85 36.85C487.29 36.85 478.69 40.97 472.73 47.54C467.49 23.78 446.32 6 420.99 6C397.14 6 376.97 21.76 370.32 43.43C364.49 34.61 354.5 28.78 343.13 28.78C328.58 28.78 316.26 38.33 312.09 51.5C309.75 50.5 307.17 49.95 304.47 49.95C293.72 49.95 285 58.67 285 69.42C285 80.17 293.72 88.89 304.47 88.89" fill="#FFFBF1"/>
<path d="M526.77 56.56L524.015 57.7463L525.888 62.0983L529.021 58.5434L526.77 56.56ZM472.73 47.54L469.8 48.1861L471.051 53.8561L474.952 49.5557L472.73 47.54ZM370.32 43.43L367.817 45.0843L371.323 50.3878L373.188 44.3101L370.32 43.43ZM312.09 51.5L310.911 54.2587L313.952 55.5581L314.95 52.4056L312.09 51.5ZM541.36 91.89C553.767 91.89 563.83 81.8269 563.83 69.42H557.83C557.83 78.5131 550.453 85.89 541.36 85.89V91.89ZM563.83 69.42C563.83 57.0131 553.767 46.95 541.36 46.95V52.95C550.453 52.95 557.83 60.3269 557.83 69.42H563.83ZM541.36 46.95C534.636 46.95 528.62 49.9233 524.519 54.5766L529.021 58.5434C532.04 55.1167 536.444 52.95 541.36 52.95V46.95ZM529.525 55.3737C524.08 42.7246 511.513 33.85 496.85 33.85V39.85C509.027 39.85 519.481 47.2154 524.015 57.7463L529.525 55.3737ZM496.85 33.85C486.409 33.85 477.013 38.3537 470.508 45.5243L474.952 49.5557C480.367 43.5863 488.171 39.85 496.85 39.85V33.85ZM475.66 46.8939C470.123 21.7898 447.759 3 420.99 3V9C444.881 9 464.857 25.7702 469.8 48.1861L475.66 46.8939ZM420.99 3C395.785 3 374.478 19.656 367.452 42.5499L373.188 44.3101C379.462 23.864 398.495 9 420.99 9V3ZM372.823 41.7757C366.463 32.1542 355.553 25.78 343.13 25.78V31.78C353.447 31.78 362.517 37.0658 367.817 45.0843L372.823 41.7757ZM343.13 25.78C327.234 25.78 313.783 36.2141 309.23 50.5944L314.95 52.4056C318.737 40.4459 329.926 31.78 343.13 31.78V25.78ZM313.269 48.7413C310.56 47.5839 307.58 46.95 304.47 46.95V52.95C306.76 52.95 308.94 53.4161 310.911 54.2587L313.269 48.7413ZM304.47 46.95C292.063 46.95 282 57.0131 282 69.42H288C288 60.3269 295.377 52.95 304.47 52.95V46.95ZM282 69.42C282 81.8269 292.063 91.89 304.47 91.89V85.89C295.377 85.89 288 78.5131 288 69.42H282Z" fill="#D5D5D5" mask="url(#path-37-outside-17)"/>
<mask id="path-39-outside-18" maskUnits="userSpaceOnUse" x="-191" y="0" width="218" height="92" fill="black">
<rect fill="white" x="-191" width="218" height="92"/>
<path d="M4.08 88.8C14.83 88.8 23.55 80.08 23.55 69.33C23.55 58.58 14.83 49.86 4.08 49.86C1.90001 49.86 -0.189987 50.23 -2.14999 50.9C-4.72 24.02 -27.35 3 -54.9 3C-73.03 3 -89.02 12.11 -98.58 25.99C-102.05 20.63 -108.07 17.07 -114.93 17.07C-122.94 17.07 -129.81 21.91 -132.8 28.82C-138.66 23.15 -146.64 19.65 -155.44 19.65C-173.42 19.65 -188 34.23 -188 52.21C-188 70.19 -173.42 84.77 -155.44 84.77"/>
</mask>
<path d="M4.08 88.8C14.83 88.8 23.55 80.08 23.55 69.33C23.55 58.58 14.83 49.86 4.08 49.86C1.90001 49.86 -0.189987 50.23 -2.14999 50.9C-4.72 24.02 -27.35 3 -54.9 3C-73.03 3 -89.02 12.11 -98.58 25.99C-102.05 20.63 -108.07 17.07 -114.93 17.07C-122.94 17.07 -129.81 21.91 -132.8 28.82C-138.66 23.15 -146.64 19.65 -155.44 19.65C-173.42 19.65 -188 34.23 -188 52.21C-188 70.19 -173.42 84.77 -155.44 84.77" fill="#FFFBF1"/>
<path d="M-2.14999 50.9L-5.13637 51.1855L-4.77477 54.9677L-1.17961 53.7387L-2.14999 50.9ZM-98.58 25.99L-101.098 27.6203L-98.6573 31.391L-96.1093 27.6917L-98.58 25.99ZM-132.8 28.82L-134.886 30.976L-131.769 33.9919L-130.047 30.0114L-132.8 28.82ZM4.08 91.8C16.4869 91.8 26.55 81.7369 26.55 69.33H20.55C20.55 78.4231 13.1731 85.8 4.08 85.8V91.8ZM26.55 69.33C26.55 56.9231 16.4869 46.86 4.08 46.86V52.86C13.1731 52.86 20.55 60.2369 20.55 69.33H26.55ZM4.08 46.86C1.55707 46.86 -0.860336 47.2887 -3.12038 48.0613L-1.17961 53.7387C0.480347 53.1713 2.24294 52.86 4.08 52.86V46.86ZM0.83638 50.6145C-1.87927 22.211 -25.788 0 -54.9 0V6C-28.912 6 -7.56071 25.829 -5.13637 51.1855L0.83638 50.6145ZM-54.9 0C-74.0605 0 -90.956 9.63199 -101.051 24.2883L-96.1093 27.6917C-87.084 14.588 -71.9995 6 -54.9 6V0ZM-96.0617 24.3597C-100.058 18.1871 -107.004 14.07 -114.93 14.07V20.07C-109.136 20.07 -104.042 23.0729 -101.098 27.6203L-96.0617 24.3597ZM-114.93 14.07C-124.181 14.07 -132.106 19.6627 -135.553 27.6286L-130.047 30.0114C-127.514 24.1573 -121.699 20.07 -114.93 20.07V14.07ZM-130.714 26.664C-137.109 20.4765 -145.828 16.65 -155.44 16.65V22.65C-147.452 22.65 -140.211 25.8235 -134.886 30.976L-130.714 26.664ZM-155.44 16.65C-175.077 16.65 -191 32.5732 -191 52.21H-185C-185 35.8869 -171.763 22.65 -155.44 22.65V16.65ZM-191 52.21C-191 71.8469 -175.077 87.77 -155.44 87.77V81.77C-171.763 81.77 -185 68.5331 -185 52.21H-191Z" fill="#D5D5D5" mask="url(#path-39-outside-18)"/>
</svg>
