<svg width="742" height="904" viewBox="0 0 742 904" fill="none" xmlns="http://www.w3.org/2000/svg">
<mask id="path-1-outside-1" maskUnits="userSpaceOnUse" x="503.686" y="30.3379" width="239" height="311" fill="black">
<rect fill="white" x="503.686" y="30.3379" width="239" height="311"/>
<path d="M727.45 278.102C693.197 355.761 566.668 342.062 507.686 325.506L510.864 260.79C561.804 258.283 636.414 287.062 669.511 260.79C710.882 227.95 675.676 84.8725 669.511 50.6341C664.579 23.2434 682.932 35.5564 692.725 45.1366C692.5 47.5317 691.03 51.9843 686.946 50.6341C682.861 49.2838 682.194 52.7398 682.37 54.6366C711.669 96.7675 761.703 200.444 727.45 278.102Z"/>
</mask>
<path d="M727.45 278.102C693.197 355.761 566.668 342.062 507.686 325.506L510.864 260.79C561.804 258.283 636.414 287.062 669.511 260.79C710.882 227.95 675.676 84.8725 669.511 50.6341C664.579 23.2434 682.932 35.5564 692.725 45.1366C692.5 47.5317 691.03 51.9843 686.946 50.6341C682.861 49.2838 682.194 52.7398 682.37 54.6366C711.669 96.7675 761.703 200.444 727.45 278.102Z" fill="#009FE3"/>
<path d="M727.45 278.102C693.197 355.761 566.668 342.062 507.686 325.506L510.864 260.79C561.804 258.283 636.414 287.062 669.511 260.79C710.882 227.95 675.676 84.8725 669.511 50.6341C664.579 23.2434 682.932 35.5564 692.725 45.1366C692.5 47.5317 691.03 51.9843 686.946 50.6341C682.861 49.2838 682.194 52.7398 682.37 54.6366C711.669 96.7675 761.703 200.444 727.45 278.102Z" stroke="#1B1A1A" stroke-width="6" mask="url(#path-1-outside-1)"/>
<mask id="path-2-outside-2" maskUnits="userSpaceOnUse" x="0.160116" y="30.3379" width="239" height="311" fill="black">
<rect fill="white" x="0.160116" y="30.3379" width="239" height="311"/>
<path d="M15.3956 278.102C49.6486 355.761 176.177 342.062 235.16 325.506L231.981 260.79C181.042 258.283 106.432 287.062 73.3348 260.79C31.9634 227.95 67.17 84.8725 73.3348 50.6341C78.2666 23.2434 59.9136 35.5564 50.1206 45.1367C50.3453 47.5318 51.8159 51.9844 55.9 50.6341C59.9842 49.2839 60.6521 52.7399 60.4755 54.6366C31.1767 96.7675 -18.8574 200.444 15.3956 278.102Z"/>
</mask>
<path d="M15.3956 278.102C49.6486 355.761 176.177 342.062 235.16 325.506L231.981 260.79C181.042 258.283 106.432 287.062 73.3348 260.79C31.9634 227.95 67.17 84.8725 73.3348 50.6341C78.2666 23.2434 59.9136 35.5564 50.1206 45.1367C50.3453 47.5318 51.8159 51.9844 55.9 50.6341C59.9842 49.2839 60.6521 52.7399 60.4755 54.6366C31.1767 96.7675 -18.8574 200.444 15.3956 278.102Z" fill="#009FE3"/>
<path d="M15.3956 278.102C49.6486 355.761 176.177 342.062 235.16 325.506L231.981 260.79C181.042 258.283 106.432 287.062 73.3348 260.79C31.9634 227.95 67.17 84.8725 73.3348 50.6341C78.2666 23.2434 59.9136 35.5564 50.1206 45.1367C50.3453 47.5318 51.8159 51.9844 55.9 50.6341C59.9842 49.2839 60.6521 52.7399 60.4755 54.6366C31.1767 96.7675 -18.8574 200.444 15.3956 278.102Z" stroke="#1B1A1A" stroke-width="6" mask="url(#path-2-outside-2)"/>
<path d="M298.26 830.521C309.095 861.987 336.715 863.447 336.715 863.447C336.715 863.447 323.385 844.181 321.973 838.526C315.595 812.934 335.975 795.944 343.326 790.763C337.792 789.831 332.142 789.227 326.402 788.974L315.883 788.912C311.241 789.056 306.66 789.433 302.142 790.029C296.347 798.96 291.012 809.466 298.26 830.521Z" fill="#009FE3" stroke="#1B1A1A" stroke-width="3" stroke-miterlimit="10"/>
<path d="M197.799 746.847C183.21 776.758 201.709 797.321 201.709 797.321C201.709 797.321 205.906 774.272 208.905 769.275C222.492 746.669 248.917 749.066 257.778 750.6C254.524 746.028 250.955 741.606 247.076 737.368L239.682 729.887C236.298 726.706 232.792 723.733 229.175 720.96C218.763 723.177 207.561 726.834 197.799 746.847Z" fill="#009FE3" stroke="#1B1A1A" stroke-width="3" stroke-miterlimit="10"/>
<path d="M241.34 793.875C238.453 827.029 263.098 839.586 263.098 839.586C263.098 839.586 258.746 816.566 259.753 810.825C264.326 784.85 289.851 777.607 298.673 775.86C293.995 772.759 289.078 769.912 283.937 767.348L274.35 763.018C270.05 761.263 265.711 759.746 261.34 758.454C252.417 764.26 243.273 771.692 241.34 793.875Z" fill="#E30613" stroke="#1B1A1A" stroke-width="3" stroke-miterlimit="10"/>
<path d="M447.929 830.521C437.095 861.987 409.474 863.447 409.474 863.447C409.474 863.447 422.804 844.181 424.217 838.526C430.594 812.934 410.215 795.944 402.864 790.763C408.397 789.831 414.048 789.227 419.787 788.974L430.306 788.912C434.948 789.056 439.529 789.433 444.048 790.029C449.842 798.96 455.177 809.466 447.929 830.521Z" fill="#009FE3" stroke="#1B1A1A" stroke-width="3" stroke-miterlimit="10"/>
<path d="M548.392 746.847C562.98 776.758 544.482 797.321 544.482 797.321C544.482 797.321 540.285 774.272 537.285 769.275C523.698 746.669 497.274 749.066 488.412 750.6C491.666 746.028 495.235 741.606 499.114 737.368L506.508 729.887C509.893 726.706 513.398 723.733 517.015 720.96C527.427 723.177 538.629 726.834 548.392 746.847Z" fill="#009FE3" stroke="#1B1A1A" stroke-width="3" stroke-miterlimit="10"/>
<path d="M504.85 793.875C507.737 827.029 483.093 839.586 483.093 839.586C483.093 839.586 487.444 816.566 486.437 810.825C481.865 784.85 456.34 777.607 447.518 775.86C452.195 772.759 457.113 769.912 462.254 767.348L471.84 763.018C476.14 761.263 480.479 759.746 484.85 758.454C493.773 764.26 502.917 771.692 504.85 793.875Z" fill="#E30613" stroke="#1B1A1A" stroke-width="3" stroke-miterlimit="10"/>
<path d="M199.108 74.9222C184.52 45.0117 203.018 24.4487 203.018 24.4487C203.018 24.4487 207.215 47.4976 210.215 52.4947C223.802 75.1002 250.226 72.7038 259.088 71.1697C255.834 75.7418 252.265 80.1636 248.386 84.4013L240.992 91.8829C237.607 95.0638 234.102 98.0362 230.485 100.81C220.073 98.5923 208.871 94.9352 199.108 74.9222Z" fill="#009FE3" stroke="#1B1A1A" stroke-width="3" stroke-miterlimit="10"/>
<path d="M187.237 205.13C155.771 194.295 154.311 166.675 154.311 166.675C154.311 166.675 173.577 180.005 179.231 181.418C204.823 187.795 221.814 167.415 226.995 160.064C227.927 165.598 228.53 171.248 228.784 176.988L228.846 187.507C228.702 192.149 228.325 196.73 227.729 201.249C218.798 207.043 208.291 212.378 187.237 205.13Z" fill="#009FE3" stroke="#1B1A1A" stroke-width="3" stroke-miterlimit="10"/>
<path d="M184.772 141.083C159.288 119.681 167.835 93.3755 167.835 93.3755C167.835 93.3755 181.036 112.73 185.807 116.077C207.407 131.211 230.578 118.284 238.052 113.281C236.937 118.781 235.473 124.272 233.65 129.72L229.934 139.561C228.134 143.842 226.139 147.983 223.961 151.987C213.546 154.192 201.825 155.402 184.772 141.083Z" fill="#FFDE00" stroke="#1B1A1A" stroke-width="3" stroke-miterlimit="10"/>
<path d="M553.347 79.6214C567.935 49.7109 549.437 29.1479 549.437 29.1479C549.437 29.1479 545.24 52.1969 542.24 57.1939C528.654 79.7994 502.229 77.403 493.367 75.8689C496.621 80.441 500.19 84.8629 504.069 89.1006L511.464 96.5822C514.848 99.763 518.353 102.735 521.97 105.509C532.382 103.292 543.584 99.6345 553.347 79.6214Z" fill="#009FE3" stroke="#1B1A1A" stroke-width="3" stroke-miterlimit="10"/>
<path d="M565.218 209.829C596.684 198.995 598.144 171.374 598.144 171.374C598.144 171.374 578.878 184.704 573.224 186.117C547.632 192.494 530.641 172.114 525.46 164.764C524.528 170.297 523.925 175.948 523.671 181.687L523.609 192.206C523.753 196.848 524.13 201.429 524.727 205.948C533.657 211.742 544.164 217.077 565.218 209.829Z" fill="#009FE3" stroke="#1B1A1A" stroke-width="3" stroke-miterlimit="10"/>
<path d="M567.683 145.782C593.167 124.38 584.62 98.0747 584.62 98.0747C584.62 98.0747 571.419 117.429 566.648 120.777C545.048 135.911 521.877 122.983 514.403 117.981C515.518 123.48 516.983 128.971 518.805 134.419L522.521 144.26C524.321 148.542 526.316 152.682 528.494 156.686C538.909 158.891 550.63 160.101 567.683 145.782Z" fill="#FFDE00" stroke="#1B1A1A" stroke-width="3" stroke-miterlimit="10"/>
<path d="M284.56 302.441H461.218C500.259 302.441 531.891 270.793 531.891 231.768V161.002C531.891 73.1878 460.704 2.00049 372.889 2.00049C285.075 2.00049 213.888 73.1878 213.888 161.002V231.768C213.888 270.793 245.52 302.441 284.56 302.441Z" fill="#E30613" stroke="#1B1A1A" stroke-width="3" stroke-miterlimit="10"/>
<path d="M337.159 6.02479L337.502 8.87915L372.893 70.162L408.284 8.87915L408.627 6.02479C397.147 3.3888 385.184 2.00062 372.893 2.00062C360.602 1.98502 348.655 3.3888 337.159 6.02479Z" fill="#FFDE00" stroke="#1B1A1A" stroke-width="3" stroke-miterlimit="10"/>
<path d="M516.78 93.2522C506.548 71.5716 491.559 52.5582 473.154 37.6001L446.311 103.515L516.78 93.2522Z" fill="#FFDE00" stroke="#1B1A1A" stroke-width="3" stroke-miterlimit="10"/>
<path d="M531.896 161.001C531.896 136.762 526.468 113.803 516.782 93.2451L464.64 141.91L531.896 161.001Z" fill="#009FE3" stroke="#1B1A1A" stroke-width="3" stroke-miterlimit="10"/>
<path d="M473.173 37.5812C454.658 22.5139 432.681 11.5333 408.63 6.01172L415.446 79.2735L473.173 37.5812Z" fill="#009FE3" stroke="#1B1A1A" stroke-width="3" stroke-miterlimit="10"/>
<path d="M531.895 231.769V161.003L470.612 196.378L531.895 231.769Z" fill="#FFDE00" stroke="#1B1A1A" stroke-width="3" stroke-miterlimit="10"/>
<path d="M229.005 93.2522C239.237 71.5716 254.226 52.5582 272.631 37.6001L299.475 103.515L229.005 93.2522Z" fill="#FFDE00" stroke="#1B1A1A" stroke-width="3" stroke-miterlimit="10"/>
<path d="M213.888 161.001C213.888 136.762 219.316 113.803 229.002 93.2451L281.144 141.91L213.888 161.001Z" fill="#009FE3" stroke="#1B1A1A" stroke-width="3" stroke-miterlimit="10"/>
<path d="M272.63 37.5812C291.144 22.5139 313.121 11.5333 337.173 6.01172L330.357 79.2735L272.63 37.5812Z" fill="#009FE3" stroke="#1B1A1A" stroke-width="3" stroke-miterlimit="10"/>
<path d="M213.888 231.769V161.003L275.171 196.378L213.888 231.769Z" fill="#FFDE00" stroke="#1B1A1A" stroke-width="3" stroke-miterlimit="10"/>
<path d="M371.594 426.267C267.845 426.267 183.741 510.371 183.741 614.119C183.741 717.867 267.845 801.971 371.594 801.971C475.342 801.971 559.446 717.867 559.446 614.119C559.446 510.371 475.342 426.267 371.594 426.267Z" fill="#FFDE00" stroke="#1B1A1A" stroke-width="3" stroke-miterlimit="10"/>
<path d="M372.193 366.467C268.445 366.467 184.34 450.571 184.34 554.319C184.341 658.067 268.445 742.171 372.193 742.171C475.941 742.171 560.046 658.067 560.046 554.319C560.046 450.571 475.941 366.467 372.193 366.467Z" fill="#009FE3" stroke="#1B1A1A" stroke-width="3" stroke-miterlimit="10"/>
<path d="M389.586 542.519C383.577 548.528 428.609 603.302 490.167 664.86C551.725 726.418 606.499 771.45 612.508 765.441C618.517 759.432 573.485 704.658 511.927 643.1C450.369 581.542 395.595 536.51 389.586 542.519Z" fill="#E30613" stroke="#1B1A1A" stroke-width="3" stroke-miterlimit="10"/>
<path d="M356.059 542.53C350.05 536.521 295.276 581.552 233.718 643.11C172.16 704.668 127.129 759.442 133.137 765.451C139.146 771.46 193.92 726.428 255.478 664.87C317.036 603.312 362.068 548.539 356.059 542.53Z" fill="#E30613" stroke="#1B1A1A" stroke-width="3" stroke-miterlimit="10"/>
<path d="M389.586 402.411C383.577 408.42 428.609 463.194 490.167 524.752C551.725 586.31 606.499 631.342 612.508 625.333C618.517 619.324 573.485 564.55 511.927 502.992C450.369 441.434 395.595 396.403 389.586 402.411Z" fill="#E30613" stroke="#1B1A1A" stroke-width="3" stroke-miterlimit="10"/>
<path d="M356.059 402.402C350.05 396.393 295.276 441.424 233.718 502.982C172.16 564.54 127.129 619.314 133.137 625.323C139.146 631.332 193.92 586.3 255.478 524.742C317.036 463.184 362.068 408.411 356.059 402.402Z" fill="#E30613" stroke="#1B1A1A" stroke-width="3" stroke-miterlimit="10"/>
<path d="M371.728 557.495C354.733 557.495 340.955 628.068 340.955 715.124C340.955 802.18 354.733 872.753 371.728 872.753C388.724 872.753 402.502 802.18 402.502 715.124C402.502 628.068 388.724 557.495 371.728 557.495Z" fill="#E30613" stroke="#1B1A1A" stroke-width="3" stroke-miterlimit="10"/>
<path d="M231.197 324.787C231.197 398.94 286.24 533.523 327.334 586.55C349.59 615.277 393.057 615.277 415.313 586.55C456.407 533.523 511.45 398.94 511.45 324.787C511.44 249.475 448.702 160.252 371.319 160.252C293.935 160.252 231.197 249.475 231.197 324.787Z" fill="#FFDE00" stroke="#1B1A1A" stroke-width="3" stroke-miterlimit="10"/>
<path d="M395.945 467.876L347.651 467.876C347.651 467.876 345.159 593.479 357.791 622.189C364.744 638.001 367.884 645.289 367.884 673.733C367.884 699.474 362.603 701.552 362.65 707.989C362.65 707.989 356.408 742.144 371.798 742.144C387.188 742.144 380.946 707.989 380.946 707.989C380.993 701.552 375.712 699.474 375.712 673.733C375.712 645.289 378.852 638.001 385.805 622.189C398.437 593.479 395.945 467.876 395.945 467.876Z" fill="#009FE3" stroke="#1B1A1A" stroke-width="3" stroke-miterlimit="10"/>
<path d="M511.233 337.81L232.742 337.81C240.532 409.288 299.897 486.719 371.988 486.719C444.078 486.719 503.444 409.288 511.233 337.81Z" fill="#E30613" stroke="#1B1A1A" stroke-width="3" stroke-miterlimit="10"/>
<path d="M199.906 362.704L199.617 410.997C199.617 410.997 275.619 413.944 293.069 401.416C302.68 394.521 307.11 391.407 324.325 391.51C339.904 391.603 341.13 396.891 345.026 396.868C345.026 396.868 365.659 403.233 365.751 387.844C365.843 372.454 345.135 378.572 345.135 378.572C341.24 378.502 339.95 383.775 324.372 383.682C307.157 383.579 302.765 380.412 293.237 373.402C275.937 360.667 199.906 362.704 199.906 362.704Z" fill="#009FE3" stroke="#1B1A1A" stroke-width="3" stroke-miterlimit="10"/>
<path d="M534.536 413.004L534.825 364.711C534.825 364.711 460.431 361.774 443.348 374.304C433.939 381.2 429.602 384.315 412.752 384.214C397.502 384.123 396.303 378.835 392.489 378.859C392.489 378.859 372.293 372.496 372.201 387.885C372.109 403.275 392.38 397.154 392.38 397.154C396.193 397.224 397.456 391.95 412.705 392.042C429.555 392.142 433.854 395.309 443.18 402.317C460.112 415.051 534.536 413.004 534.536 413.004Z" fill="#009FE3" stroke="#1B1A1A" stroke-width="3" stroke-miterlimit="10"/>
<path d="M199.56 413.302L199.271 461.596C199.271 461.596 275.272 464.543 292.723 452.015C302.334 445.119 306.764 442.005 323.978 442.108C339.557 442.202 340.783 447.49 344.679 447.466C344.679 447.466 365.312 453.832 365.404 438.442C365.496 423.053 344.788 429.171 344.788 429.171C340.893 429.101 339.604 434.374 324.025 434.281C306.811 434.178 302.418 431.011 292.89 424.001C275.591 411.265 199.56 413.302 199.56 413.302Z" fill="#009FE3" stroke="#1B1A1A" stroke-width="3" stroke-miterlimit="10"/>
<path d="M534.195 463.604L534.484 415.31C534.484 415.31 460.09 412.373 443.007 424.903C433.598 431.8 429.261 434.914 412.411 434.814C397.162 434.722 395.962 429.434 392.148 429.458C392.148 429.458 371.952 423.095 371.86 438.485C371.768 453.875 392.039 447.754 392.039 447.754C395.852 447.824 397.115 442.55 412.364 442.641C429.214 442.742 433.514 445.908 442.839 452.917C459.771 465.651 534.195 463.604 534.195 463.604Z" fill="#009FE3" stroke="#1B1A1A" stroke-width="3" stroke-miterlimit="10"/>
<path d="M371.552 171.697C326.864 171.697 290.638 207.923 290.638 252.611C290.638 297.298 326.864 333.524 371.552 333.524C416.239 333.524 452.466 297.298 452.466 252.611C452.466 207.923 416.239 171.697 371.552 171.697Z" fill="#E30613" stroke="#1B1A1A" stroke-width="3" stroke-miterlimit="10"/>
<path d="M371.485 178.508C356.75 178.508 344.805 195.309 344.805 216.033C344.805 236.758 356.75 253.558 371.485 253.558C386.219 253.558 398.164 236.758 398.164 216.033C398.164 195.309 386.219 178.508 371.485 178.508Z" fill="#009FE3" stroke="#1B1A1A" stroke-width="3" stroke-miterlimit="10"/>
<path d="M322.905 222.319C312.959 222.319 304.895 230.383 304.895 240.329C304.895 250.276 312.959 258.339 322.905 258.339C332.852 258.339 340.915 250.276 340.915 240.329C340.915 230.383 332.852 222.319 322.905 222.319Z" fill="#1B1A1A" stroke="#1B1A1A" stroke-width="3" stroke-miterlimit="10"/>
<path d="M420.078 222.319C410.132 222.319 402.068 230.383 402.068 240.329C402.068 250.276 410.132 258.339 420.078 258.339C430.025 258.339 438.088 250.276 438.088 240.329C438.088 230.383 430.025 222.319 420.078 222.319Z" fill="#1B1A1A" stroke="#1B1A1A" stroke-width="3" stroke-miterlimit="10"/>
<path d="M290.007 337.969L453.394 337.969C448.824 296.034 413.995 250.606 371.7 250.606C329.406 250.606 294.577 296.034 290.007 337.969Z" fill="#009FE3" stroke="#1B1A1A" stroke-width="3" stroke-miterlimit="10"/>
<path d="M337.547 178.654L405.181 178.654L405.181 162.436C405.181 143.759 390.042 128.62 371.365 128.62C352.688 128.62 337.55 143.759 337.55 162.436L337.55 178.654L337.547 178.654Z" fill="#009FE3" stroke="#1B1A1A" stroke-width="3" stroke-miterlimit="10"/>
<path d="M371.635 398.186C346.655 398.186 326.405 404.992 326.405 413.388C326.405 421.784 346.655 428.59 371.635 428.59C396.614 428.59 416.864 421.784 416.864 413.388C416.864 404.992 396.614 398.186 371.635 398.186Z" fill="#FFFBF1" stroke="#1B1A1A" stroke-width="3" stroke-miterlimit="10"/>
<path d="M371.635 398.229C363.432 398.229 356.781 404.879 356.781 413.083C356.781 421.286 363.432 427.936 371.635 427.936C379.839 427.936 386.489 421.286 386.489 413.083C386.489 404.879 379.839 398.229 371.635 398.229Z" fill="#1B1A1A" stroke="#1B1A1A" stroke-width="3" stroke-miterlimit="10"/>
<path d="M360.456 794.005C360.456 811.858 365.32 826.33 371.321 826.33C377.321 826.33 382.186 811.858 382.186 794.005C382.186 776.152 377.321 761.679 371.321 761.679C365.32 761.679 360.456 776.152 360.456 794.005Z" fill="#FFFBF1" stroke="#1B1A1A" stroke-width="3" stroke-miterlimit="10"/>
<path d="M360.487 794.001C360.487 799.865 365.24 804.618 371.103 804.618C376.966 804.618 381.719 799.865 381.719 794.001C381.719 788.138 376.966 783.385 371.103 783.385C365.24 783.385 360.487 788.138 360.487 794.001Z" fill="#1B1A1A" stroke="#1B1A1A" stroke-width="3" stroke-miterlimit="10"/>
<path d="M360.851 217.33C360.851 235.183 365.716 249.656 371.716 249.656C377.717 249.656 382.581 235.183 382.581 217.33C382.581 199.477 377.717 185.005 371.716 185.005C365.716 185.005 360.851 199.477 360.851 217.33Z" fill="#FFFBF1" stroke="#1B1A1A" stroke-width="3" stroke-miterlimit="10"/>
<path d="M360.881 217.327C360.881 223.19 365.634 227.943 371.497 227.943C377.36 227.943 382.112 223.19 382.112 217.327C382.112 211.464 377.36 206.711 371.497 206.711C365.634 206.711 360.881 211.464 360.881 217.327Z" fill="#1B1A1A" stroke="#1B1A1A" stroke-width="3" stroke-miterlimit="10"/>
<path d="M371.635 448.105C346.655 448.105 326.405 454.911 326.405 463.307C326.405 471.703 346.655 478.509 371.635 478.509C396.614 478.509 416.864 471.703 416.864 463.307C416.864 454.911 396.614 448.105 371.635 448.105Z" fill="#FFFBF1" stroke="#1B1A1A" stroke-width="3" stroke-miterlimit="10"/>
<path d="M371.633 448.145C363.43 448.145 356.779 454.795 356.779 462.998C356.779 471.201 363.43 477.852 371.633 477.852C379.837 477.852 386.487 471.201 386.487 462.998C386.487 454.795 379.837 448.145 371.633 448.145Z" fill="#1B1A1A" stroke="#1B1A1A" stroke-width="3" stroke-miterlimit="10"/>
<path d="M371.635 345.534C346.655 345.534 326.405 352.34 326.405 360.736C326.405 369.132 346.655 375.938 371.635 375.938C396.614 375.938 416.864 369.132 416.864 360.736C416.864 352.34 396.614 345.534 371.635 345.534Z" fill="#FFFBF1" stroke="#1B1A1A" stroke-width="3" stroke-miterlimit="10"/>
<path d="M371.633 345.578C363.43 345.578 356.779 352.228 356.779 360.431C356.779 368.635 363.43 375.285 371.633 375.285C379.837 375.285 386.487 368.635 386.487 360.431C386.487 352.228 379.837 345.578 371.633 345.578Z" fill="#1B1A1A" stroke="#1B1A1A" stroke-width="3" stroke-miterlimit="10"/>
<path d="M371.596 426.268C267.848 426.268 183.744 510.372 183.744 614.12C183.744 717.868 267.848 801.972 371.597 801.972C475.345 801.972 559.449 717.868 559.449 614.12C559.449 510.372 475.345 426.268 371.596 426.268Z" fill="#FFDE00" stroke="#1B1A1A" stroke-width="3" stroke-miterlimit="10"/>
<path d="M371.678 366.467C267.929 366.467 183.825 450.572 183.825 554.32C183.825 658.068 267.929 742.172 371.678 742.172C475.426 742.172 559.53 658.068 559.53 554.32C559.53 450.572 475.426 366.467 371.678 366.467Z" fill="#009FE3" stroke="#1B1A1A" stroke-width="3" stroke-miterlimit="10"/>
<path d="M389.588 542.52C383.579 548.529 428.611 603.303 490.169 664.861C551.727 726.419 606.501 771.45 612.51 765.441C618.518 759.432 573.487 704.658 511.929 643.1C450.371 581.542 395.597 536.511 389.588 542.52Z" fill="#E30613" stroke="#1B1A1A" stroke-width="3" stroke-miterlimit="10"/>
<path d="M356.061 542.53C350.052 536.521 295.278 581.553 233.72 643.111C172.162 704.669 127.131 759.443 133.139 765.451C139.148 771.46 193.922 726.429 255.48 664.871C317.038 603.313 362.07 548.539 356.061 542.53Z" fill="#E30613" stroke="#1B1A1A" stroke-width="3" stroke-miterlimit="10"/>
<path d="M389.588 402.408C383.579 408.417 428.611 463.191 490.169 524.749C551.727 586.307 606.501 631.339 612.51 625.33C618.518 619.321 573.487 564.547 511.929 502.989C450.371 441.431 395.597 396.4 389.588 402.408Z" fill="#E30613" stroke="#1B1A1A" stroke-width="3" stroke-miterlimit="10"/>
<path d="M356.061 402.403C350.052 396.394 295.278 441.425 233.72 502.983C172.162 564.541 127.131 619.315 133.139 625.324C139.148 631.333 193.922 586.301 255.48 524.743C317.038 463.185 362.07 408.412 356.061 402.403Z" fill="#E30613" stroke="#1B1A1A" stroke-width="3" stroke-miterlimit="10"/>
<path d="M371.888 557.495C354.893 557.495 341.115 628.068 341.115 715.124C341.115 802.18 354.893 872.753 371.889 872.753C388.884 872.753 402.662 802.18 402.662 715.124C402.662 628.068 388.884 557.495 371.888 557.495Z" fill="#E30613" stroke="#1B1A1A" stroke-width="3" stroke-miterlimit="10"/>
<path d="M231.171 324.788C231.171 398.941 286.214 533.524 327.307 586.551C349.564 615.278 393.031 615.278 415.287 586.551C456.381 533.524 511.423 398.941 511.423 324.788C511.414 249.476 448.676 160.253 371.292 160.253C293.909 160.253 231.171 249.476 231.171 324.788Z" fill="#FFDE00" stroke="#1B1A1A" stroke-width="3" stroke-miterlimit="10"/>
<path d="M383.863 492.719L383.863 560.352L400.081 560.352C418.758 560.352 433.897 545.213 433.897 526.536C433.897 507.86 418.758 492.721 400.081 492.721L383.863 492.721L383.863 492.719Z" fill="#E30613" stroke="#1B1A1A" stroke-width="3" stroke-miterlimit="10"/>
<path d="M386.065 503.736L386.065 549.615L397.14 549.615C409.893 549.615 420.23 539.346 420.23 526.676C420.23 514.007 409.893 503.738 397.14 503.738L386.065 503.738L386.065 503.736Z" fill="#FFDE00" stroke="#1B1A1A" stroke-width="3" stroke-miterlimit="10"/>
<path d="M356.781 560.632L356.781 492.999L340.563 492.999C321.886 492.999 306.748 508.138 306.748 526.815C306.748 545.491 321.887 560.63 340.563 560.63L356.781 560.63L356.781 560.632Z" fill="#E30613" stroke="#1B1A1A" stroke-width="3" stroke-miterlimit="10"/>
<path d="M352.877 548.639L352.877 502.76L341.803 502.76C329.049 502.76 318.712 513.029 318.712 525.699C318.712 538.368 329.049 548.637 341.803 548.637L352.877 548.637L352.877 548.639Z" fill="#FFDE00" stroke="#1B1A1A" stroke-width="3" stroke-miterlimit="10"/>
<path d="M395.322 467.877L347.028 467.877C347.028 467.877 344.536 593.48 357.168 622.189C364.12 638.001 367.261 645.29 367.261 673.734C367.261 699.475 361.98 701.552 362.027 707.99C362.027 707.99 355.785 742.144 371.175 742.144C386.565 742.144 380.323 707.99 380.323 707.99C380.37 701.552 375.089 699.475 375.089 673.734C375.089 645.29 378.229 638.001 385.182 622.189C397.814 593.48 395.322 467.877 395.322 467.877Z" fill="#009FE3" stroke="#1B1A1A" stroke-width="3" stroke-miterlimit="10"/>
<path d="M509.285 337.81L230.794 337.81C238.583 409.288 297.949 486.719 370.04 486.719C442.13 486.719 501.496 409.288 509.285 337.81Z" fill="#E30613" stroke="#1B1A1A" stroke-width="3" stroke-miterlimit="10"/>
<path d="M534.538 413.005L534.827 364.712C534.827 364.712 460.433 361.774 443.349 374.305C433.941 381.201 429.604 384.316 412.754 384.215C397.504 384.124 396.305 378.836 392.491 378.86C392.491 378.86 372.295 372.497 372.203 387.886C372.111 403.276 392.382 397.155 392.382 397.155C396.195 397.225 397.458 391.951 412.707 392.043C429.557 392.143 433.856 395.31 443.182 402.318C460.114 415.052 534.538 413.005 534.538 413.005Z" fill="#009FE3" stroke="#1B1A1A" stroke-width="3" stroke-miterlimit="10"/>
<path d="M203.683 362.196L203.394 410.489C203.394 410.489 279.395 413.436 296.846 400.908C306.457 394.013 310.887 390.899 328.101 391.002C343.68 391.095 344.906 396.384 348.802 396.36C348.802 396.36 369.435 402.725 369.527 387.336C369.62 371.946 348.912 378.064 348.912 378.064C345.016 377.994 343.727 383.268 328.148 383.174C310.934 383.071 306.541 379.905 297.013 372.895C279.714 360.159 203.683 362.196 203.683 362.196Z" fill="#009FE3" stroke="#1B1A1A" stroke-width="3" stroke-miterlimit="10"/>
<path d="M203.336 412.797L203.047 461.091C203.047 461.091 279.048 464.037 296.499 451.509C306.11 444.614 310.54 441.5 327.755 441.603C343.333 441.696 344.559 446.985 348.455 446.961C348.455 446.961 369.089 453.326 369.181 437.937C369.273 422.547 348.565 428.665 348.565 428.665C344.669 428.595 343.38 433.869 327.801 433.775C310.587 433.672 306.195 430.506 296.667 423.496C279.367 410.76 203.336 412.797 203.336 412.797Z" fill="#009FE3" stroke="#1B1A1A" stroke-width="3" stroke-miterlimit="10"/>
<path d="M537.972 463.098L538.261 414.805C538.261 414.805 463.867 411.868 446.783 424.398C437.374 431.295 433.038 434.409 416.187 434.308C400.938 434.217 399.738 428.929 395.925 428.953C395.925 428.953 375.728 422.59 375.636 437.98C375.544 453.369 395.815 447.248 395.815 447.248C399.628 447.318 400.891 442.045 416.14 442.136C432.991 442.237 437.29 445.403 446.615 452.412C463.548 465.145 537.972 463.098 537.972 463.098Z" fill="#009FE3" stroke="#1B1A1A" stroke-width="3" stroke-miterlimit="10"/>
<path d="M370.936 171.698C326.248 171.698 290.022 207.924 290.022 252.612C290.022 297.299 326.248 333.525 370.936 333.525C415.623 333.525 451.85 297.299 451.85 252.612C451.85 207.924 415.623 171.698 370.936 171.698Z" fill="#E30613" stroke="#1B1A1A" stroke-width="3" stroke-miterlimit="10"/>
<path d="M370.667 178.509C355.932 178.509 343.988 195.31 343.988 216.034C343.988 236.759 355.932 253.559 370.667 253.559C385.402 253.559 397.347 236.759 397.347 216.034C397.347 195.31 385.402 178.509 370.667 178.509Z" fill="#FFDE00" stroke="#1B1A1A" stroke-width="3" stroke-miterlimit="10"/>
<path d="M264.585 288.108C254.638 288.108 246.575 296.171 246.575 306.118C246.575 316.064 254.638 324.127 264.585 324.127C274.531 324.127 282.595 316.064 282.595 306.118C282.595 296.171 274.531 288.108 264.585 288.108Z" fill="#009FE3" stroke="#1B1A1A" stroke-width="3" stroke-miterlimit="10"/>
<path d="M370.008 199.279C360.061 199.279 351.998 207.343 351.998 217.289C351.998 227.236 360.061 235.299 370.008 235.299C379.954 235.299 388.018 227.236 388.018 217.289C388.018 207.343 379.954 199.279 370.008 199.279Z" fill="#E30613" stroke="#1B1A1A" stroke-width="3" stroke-miterlimit="10"/>
<path d="M369.959 208.943C365.376 208.943 361.662 212.658 361.662 217.24C361.662 221.823 365.376 225.538 369.959 225.538C374.541 225.538 378.256 221.823 378.256 217.24C378.256 212.658 374.541 208.943 369.959 208.943Z" fill="#009FE3" stroke="#1B1A1A" stroke-width="3" stroke-miterlimit="10"/>
<path d="M475.431 288.108C465.484 288.108 457.421 296.171 457.421 306.118C457.421 316.064 465.484 324.127 475.431 324.127C485.377 324.127 493.44 316.064 493.44 306.118C493.44 296.171 485.377 288.108 475.431 288.108Z" fill="#009FE3" stroke="#1B1A1A" stroke-width="3" stroke-miterlimit="10"/>
<path d="M511.499 186.492C505.838 186.492 501.249 191.081 501.249 196.741C501.249 202.402 505.838 206.991 511.499 206.991C517.159 206.991 521.748 202.402 521.748 196.741C521.748 191.081 517.159 186.492 511.499 186.492Z" fill="#009FE3" stroke="#1B1A1A" stroke-width="3" stroke-miterlimit="10"/>
<path d="M481.239 66.4274C475.578 66.4274 470.989 71.0162 470.989 76.6768C470.989 82.3374 475.578 86.9263 481.239 86.9263C486.899 86.9263 491.488 82.3374 491.488 76.6768C491.488 71.0162 486.899 66.4274 481.239 66.4274Z" fill="#009FE3" stroke="#1B1A1A" stroke-width="3" stroke-miterlimit="10"/>
<path d="M372.887 14.6921C367.227 14.6921 362.638 19.2809 362.638 24.9415C362.638 30.6021 367.227 35.1909 372.887 35.1909C378.548 35.1909 383.137 30.6021 383.137 24.9415C383.137 19.2809 378.548 14.6921 372.887 14.6921Z" fill="#009FE3" stroke="#1B1A1A" stroke-width="3" stroke-miterlimit="10"/>
<path d="M264.537 66.4274C258.876 66.4274 254.287 71.0162 254.287 76.6768C254.287 82.3374 258.876 86.9263 264.537 86.9263C270.197 86.9263 274.786 82.3374 274.786 76.6768C274.786 71.0162 270.197 66.4274 264.537 66.4274Z" fill="#009FE3" stroke="#1B1A1A" stroke-width="3" stroke-miterlimit="10"/>
<path d="M233.3 186.492C227.64 186.492 223.051 191.081 223.051 196.741C223.051 202.402 227.64 206.991 233.3 206.991C238.961 206.991 243.55 202.402 243.55 196.741C243.55 191.081 238.961 186.492 233.3 186.492Z" fill="#009FE3" stroke="#1B1A1A" stroke-width="3" stroke-miterlimit="10"/>
<path d="M290.388 337.971L453.774 337.971C449.205 296.035 414.376 250.608 372.081 250.608C329.787 250.608 294.958 296.035 290.388 337.971Z" fill="#009FE3" stroke="#1B1A1A" stroke-width="3" stroke-miterlimit="10"/>
<path d="M337.688 178.656L405.321 178.656L405.321 162.438C405.321 143.761 390.183 128.623 371.506 128.623C352.829 128.623 337.69 143.762 337.69 162.438L337.69 178.656L337.688 178.656Z" fill="#009FE3" stroke="#1B1A1A" stroke-width="3" stroke-miterlimit="10"/>
<path d="M360.458 794.006C360.458 811.858 365.322 826.331 371.323 826.331C377.323 826.331 382.188 811.858 382.188 794.006C382.188 776.153 377.323 761.68 371.323 761.68C365.322 761.68 360.458 776.153 360.458 794.006Z" fill="#FFFBF1" stroke="#1B1A1A" stroke-width="3" stroke-miterlimit="10"/>
<path d="M360.49 794.002C360.49 799.866 365.243 804.619 371.106 804.619C376.969 804.619 381.722 799.866 381.722 794.002C381.722 788.139 376.969 783.386 371.106 783.386C365.243 783.386 360.49 788.139 360.49 794.002Z" fill="#1B1A1A" stroke="#1B1A1A" stroke-width="3" stroke-miterlimit="10"/>
<path d="M371.637 398.183C346.657 398.183 326.407 404.989 326.407 413.385C326.407 421.781 346.657 428.587 371.637 428.587C396.616 428.587 416.866 421.781 416.866 413.385C416.866 404.989 396.616 398.183 371.637 398.183Z" fill="#FFFBF1" stroke="#1B1A1A" stroke-width="3" stroke-miterlimit="10"/>
<path d="M371.637 398.226C363.434 398.226 356.783 404.876 356.783 413.08C356.783 421.283 363.434 427.933 371.637 427.933C379.841 427.933 386.491 421.283 386.491 413.08C386.491 404.876 379.841 398.226 371.637 398.226Z" fill="#1B1A1A" stroke="#1B1A1A" stroke-width="3" stroke-miterlimit="10"/>
<path d="M371.637 448.106C346.657 448.106 326.407 454.912 326.407 463.308C326.407 471.704 346.657 478.51 371.637 478.51C396.616 478.51 416.866 471.704 416.866 463.308C416.866 454.912 396.616 448.106 371.637 448.106Z" fill="#FFFBF1" stroke="#1B1A1A" stroke-width="3" stroke-miterlimit="10"/>
<path d="M371.635 448.146C363.432 448.146 356.781 454.796 356.781 462.999C356.781 471.202 363.432 477.853 371.635 477.853C379.839 477.853 386.489 471.202 386.489 462.999C386.489 454.796 379.839 448.146 371.635 448.146Z" fill="#1B1A1A" stroke="#1B1A1A" stroke-width="3" stroke-miterlimit="10"/>
<path d="M371.637 345.535C346.657 345.535 326.407 352.341 326.407 360.737C326.407 369.133 346.657 375.939 371.637 375.939C396.616 375.939 416.866 369.133 416.866 360.737C416.866 352.341 396.616 345.535 371.637 345.535Z" fill="#FFFBF1" stroke="#1B1A1A" stroke-width="3" stroke-miterlimit="10"/>
<path d="M371.635 345.579C363.432 345.579 356.781 352.229 356.781 360.432C356.781 368.636 363.432 375.286 371.635 375.286C379.839 375.286 386.489 368.636 386.489 360.432C386.489 352.229 379.839 345.579 371.635 345.579Z" fill="#1B1A1A" stroke="#1B1A1A" stroke-width="3" stroke-miterlimit="10"/>
<path d="M371.272 283.154C335.599 283.154 306.68 292.874 306.68 304.865C306.68 316.855 335.599 326.575 371.272 326.575C406.946 326.575 435.865 316.855 435.865 304.865C435.865 292.874 406.946 283.154 371.272 283.154Z" fill="#FFFBF1" stroke="#1B1A1A" stroke-width="3" stroke-miterlimit="10"/>
<path d="M371.273 283.211C359.557 283.211 350.06 292.708 350.06 304.423C350.06 316.139 359.557 325.636 371.273 325.636C382.989 325.636 392.486 316.139 392.486 304.423C392.486 292.708 382.989 283.211 371.273 283.211Z" fill="#1B1A1A" stroke="#1B1A1A" stroke-width="3" stroke-miterlimit="10"/>
<path d="M372.088 875.412C364.746 875.412 358.794 881.364 358.794 888.706C358.794 896.048 364.746 902 372.088 902C379.43 902 385.382 896.048 385.382 888.706C385.382 881.364 379.43 875.412 372.088 875.412Z" fill="#FFDE00" stroke="#1B1A1A" stroke-width="3" stroke-miterlimit="10"/>
<path d="M370.758 99.0484C363.416 99.0484 357.464 105 357.464 112.342C357.464 119.684 363.416 125.636 370.758 125.636C378.1 125.636 384.052 119.684 384.052 112.342C384.052 105 378.1 99.0484 370.758 99.0484Z" fill="#FFDE00" stroke="#1B1A1A" stroke-width="3" stroke-miterlimit="10"/>
<path d="M123.492 622.828C116.15 622.828 110.198 628.78 110.198 636.122C110.198 643.464 116.15 649.416 123.492 649.416C130.834 649.416 136.786 643.464 136.786 636.122C136.786 628.78 130.834 622.828 123.492 622.828Z" fill="#FFDE00" stroke="#1B1A1A" stroke-width="3" stroke-miterlimit="10"/>
<path d="M122.163 761.086C114.821 761.086 108.869 767.038 108.869 774.38C108.869 781.722 114.821 787.674 122.163 787.674C129.505 787.674 135.457 781.722 135.457 774.38C135.457 767.038 129.505 761.086 122.163 761.086Z" fill="#009FE3" stroke="#1B1A1A" stroke-width="3" stroke-miterlimit="10"/>
<path d="M100.217 200.573C149.021 263.403 190.835 439.604 100.217 557.819C183.003 500.844 338.113 392.969 100.217 200.573Z" fill="#E30613" stroke="#1B1A1A" stroke-width="3"/>
<path d="M92.2393 551.043C84.8973 551.043 78.9454 556.995 78.9454 564.337C78.9454 571.679 84.8973 577.631 92.2393 577.631C99.5813 577.631 105.533 571.679 105.533 564.337C105.533 556.995 99.5813 551.043 92.2393 551.043Z" fill="#009FE3" stroke="#1B1A1A" stroke-width="3" stroke-miterlimit="10"/>
<path d="M152.759 381.195C145.417 381.195 139.465 387.147 139.465 394.489C139.465 401.831 145.417 407.783 152.759 407.783C160.101 407.783 166.053 401.831 166.053 394.489C166.053 387.147 160.101 381.195 152.759 381.195Z" fill="#009FE3" stroke="#1B1A1A" stroke-width="3" stroke-miterlimit="10"/>
<path d="M92.2393 176.155C84.8973 176.155 78.9454 182.107 78.9454 189.449C78.9454 196.791 84.8973 202.743 92.2393 202.743C99.5813 202.743 105.533 196.791 105.533 189.449C105.533 182.107 99.5813 176.155 92.2393 176.155Z" fill="#FFDE00" stroke="#1B1A1A" stroke-width="3" stroke-miterlimit="10"/>
<path d="M644.613 200.573C595.809 263.403 553.996 439.604 644.613 557.819C561.827 500.844 406.717 392.969 644.613 200.573Z" fill="#E30613" stroke="#1B1A1A" stroke-width="3"/>
<path d="M655.25 551.043C662.592 551.043 668.544 556.995 668.544 564.337C668.544 571.679 662.592 577.631 655.25 577.631C647.908 577.631 641.956 571.679 641.956 564.337C641.956 556.995 647.908 551.043 655.25 551.043Z" fill="#009FE3" stroke="#1B1A1A" stroke-width="3" stroke-miterlimit="10"/>
<path d="M655.25 176.155C662.592 176.155 668.544 182.107 668.544 189.449C668.544 196.791 662.592 202.743 655.25 202.743C647.908 202.743 641.956 196.791 641.956 189.449C641.956 182.107 647.908 176.155 655.25 176.155Z" fill="#FFDE00" stroke="#1B1A1A" stroke-width="3" stroke-miterlimit="10"/>
<path d="M626.001 622.828C633.343 622.828 639.295 628.78 639.295 636.122C639.295 643.464 633.343 649.416 626.001 649.416C618.659 649.416 612.707 643.464 612.707 636.122C612.707 628.78 618.659 622.828 626.001 622.828Z" fill="#FFDE00" stroke="#1B1A1A" stroke-width="3" stroke-miterlimit="10"/>
<path d="M470.462 544.393C477.804 544.393 483.756 550.345 483.756 557.687C483.756 565.029 477.804 570.981 470.462 570.981C463.12 570.981 457.168 565.029 457.168 557.687C457.168 550.345 463.12 544.393 470.462 544.393Z" fill="#FFDE00" stroke="#1B1A1A" stroke-width="3" stroke-miterlimit="10"/>
<path d="M511.672 578.958C519.014 578.958 524.966 584.91 524.966 592.252C524.966 599.594 519.014 605.546 511.672 605.546C504.33 605.546 498.378 599.594 498.378 592.252C498.378 584.91 504.33 578.958 511.672 578.958Z" fill="#E30613" stroke="#1B1A1A" stroke-width="3" stroke-miterlimit="10"/>
<path d="M443.875 670.688C451.217 670.688 457.169 676.639 457.169 683.981C457.169 691.324 451.217 697.275 443.875 697.275C436.533 697.275 430.581 691.324 430.581 683.981C430.581 676.639 436.533 670.688 443.875 670.688Z" fill="#E30613" stroke="#1B1A1A" stroke-width="3" stroke-miterlimit="10"/>
<path d="M298.971 670.688C306.313 670.688 312.265 676.639 312.265 683.981C312.265 691.324 306.313 697.275 298.971 697.275C291.629 697.275 285.677 691.324 285.677 683.981C285.677 676.639 291.629 670.688 298.971 670.688Z" fill="#E30613" stroke="#1B1A1A" stroke-width="3" stroke-miterlimit="10"/>
<path d="M231.171 578.958C238.513 578.958 244.465 584.91 244.465 592.252C244.465 599.594 238.513 605.546 231.171 605.546C223.829 605.546 217.877 599.594 217.877 592.252C217.877 584.91 223.829 578.958 231.171 578.958Z" fill="#E30613" stroke="#1B1A1A" stroke-width="3" stroke-miterlimit="10"/>
<path d="M425.263 618.841C432.605 618.841 438.557 624.793 438.557 632.135C438.557 639.477 432.605 645.429 425.263 645.429C417.921 645.429 411.969 639.477 411.969 632.135C411.969 624.793 417.921 618.841 425.263 618.841Z" fill="#FFDE00" stroke="#1B1A1A" stroke-width="3" stroke-miterlimit="10"/>
<path d="M322.899 618.841C330.241 618.841 336.193 624.793 336.193 632.135C336.193 639.477 330.241 645.429 322.899 645.429C315.557 645.429 309.605 639.477 309.605 632.135C309.605 624.793 315.557 618.841 322.899 618.841Z" fill="#FFDE00" stroke="#1B1A1A" stroke-width="3" stroke-miterlimit="10"/>
<path d="M273.713 544.394C281.055 544.394 287.007 550.346 287.007 557.688C287.007 565.03 281.055 570.981 273.713 570.981C266.371 570.981 260.419 565.03 260.419 557.688C260.419 550.346 266.371 544.394 273.713 544.394Z" fill="#FFDE00" stroke="#1B1A1A" stroke-width="3" stroke-miterlimit="10"/>
<path d="M627.33 761.086C634.672 761.086 640.624 767.038 640.624 774.38C640.624 781.722 634.672 787.674 627.33 787.674C619.988 787.674 614.036 781.722 614.036 774.38C614.036 767.038 619.988 761.086 627.33 761.086Z" fill="#009FE3" stroke="#1B1A1A" stroke-width="3" stroke-miterlimit="10"/>
<path d="M136.086 402.931C136.086 421.969 146.658 437.403 159.699 437.403C172.74 437.403 183.313 421.969 183.313 402.931C183.313 383.892 172.74 368.458 159.699 368.458C146.658 368.459 136.086 383.892 136.086 402.931Z" fill="#009FE3" stroke="#1B1A1A" stroke-width="3" stroke-miterlimit="10"/>
<path d="M117.861 402.934C117.861 421.973 128.433 437.406 141.474 437.406C154.516 437.406 165.088 421.973 165.088 402.934C165.088 383.896 154.516 368.462 141.474 368.462C128.433 368.462 117.861 383.896 117.861 402.934Z" fill="#E30613" stroke="#1B1A1A" stroke-width="3" stroke-miterlimit="10"/>
<path d="M92.3864 402.931C92.3864 421.969 102.958 437.403 116 437.403C129.041 437.403 139.613 421.969 139.613 402.931C139.613 383.892 129.041 368.458 116 368.458C102.958 368.459 92.3864 383.892 92.3864 402.931Z" fill="#FFDE00" stroke="#1B1A1A" stroke-width="3" stroke-miterlimit="10"/>
<path d="M59.6608 402.931C59.6608 421.969 70.2329 437.403 83.2743 437.403C96.3156 437.403 106.888 421.969 106.888 402.931C106.888 383.892 96.3156 368.458 83.2743 368.458C70.2329 368.459 59.6608 383.892 59.6608 402.931Z" fill="#E30613" stroke="#1B1A1A" stroke-width="3" stroke-miterlimit="10"/>
<path d="M26.9352 402.934C26.9352 421.973 37.5073 437.406 50.5486 437.406C63.59 437.406 74.1621 421.973 74.1621 402.934C74.1621 383.896 63.59 368.462 50.5486 368.462C37.5073 368.462 26.9352 383.896 26.9352 402.934Z" fill="#009FE3" stroke="#1B1A1A" stroke-width="3" stroke-miterlimit="10"/>
<path d="M611.238 403.118C611.238 384.079 600.666 368.646 587.624 368.646C574.583 368.646 564.011 384.079 564.011 403.118C564.011 422.156 574.583 437.59 587.624 437.59C600.666 437.59 611.238 422.156 611.238 403.118Z" fill="#009FE3" stroke="#1B1A1A" stroke-width="3" stroke-miterlimit="10"/>
<path d="M629.461 403.114C629.461 384.076 618.889 368.642 605.848 368.642C592.806 368.642 582.234 384.076 582.234 403.114C582.234 422.152 592.806 437.586 605.848 437.586C618.889 437.586 629.461 422.152 629.461 403.114Z" fill="#E30613" stroke="#1B1A1A" stroke-width="3" stroke-miterlimit="10"/>
<path d="M654.937 403.118C654.937 384.079 644.365 368.646 631.323 368.646C618.282 368.646 607.71 384.079 607.71 403.118C607.71 422.156 618.282 437.59 631.323 437.59C644.365 437.59 654.937 422.156 654.937 403.118Z" fill="#FFDE00" stroke="#1B1A1A" stroke-width="3" stroke-miterlimit="10"/>
<path d="M687.661 403.118C687.661 384.079 677.089 368.646 664.048 368.646C651.007 368.646 640.435 384.079 640.435 403.118C640.435 422.156 651.007 437.59 664.048 437.59C677.089 437.59 687.661 422.156 687.661 403.118Z" fill="#E30613" stroke="#1B1A1A" stroke-width="3" stroke-miterlimit="10"/>
<path d="M720.387 403.114C720.387 384.076 709.815 368.642 696.774 368.642C683.732 368.642 673.16 384.076 673.16 403.114C673.16 422.152 683.732 437.586 696.774 437.586C709.815 437.586 720.387 422.152 720.387 403.114Z" fill="#009FE3" stroke="#1B1A1A" stroke-width="3" stroke-miterlimit="10"/>
<path d="M117.969 282.775L90.6103 282.775C84.8722 282.775 79.9239 286.796 78.7488 292.412L74.7161 311.682C73.1404 319.209 78.8861 326.282 86.5776 326.282L122.002 326.282C129.693 326.282 135.439 319.209 133.864 311.682L129.831 292.412C128.656 286.796 123.704 282.775 117.969 282.775Z" fill="#FFDE00" stroke="#1B1A1A" stroke-width="3" stroke-miterlimit="10"/>
<path d="M118.848 282.958C120.413 293.488 122.699 309.554 107.094 325.718C84.7792 348.838 60.0183 338.846 60.0183 338.846C60.0183 338.846 79.1746 327.099 83.0852 323.051C92.2723 313.533 90.523 282.959 90.523 282.959L118.848 282.958Z" fill="#E30613" stroke="#1B1A1A" stroke-width="3" stroke-miterlimit="10"/>
<path d="M627.872 282.775L655.23 282.775C660.969 282.775 665.917 286.796 667.092 292.412L671.125 311.682C672.7 319.209 666.955 326.282 659.263 326.282L623.839 326.282C616.147 326.282 610.402 319.209 611.977 311.682L616.01 292.412C617.185 286.796 622.137 282.775 627.872 282.775Z" fill="#FFDE00" stroke="#1B1A1A" stroke-width="3" stroke-miterlimit="10"/>
<path d="M626.993 282.958C625.428 293.488 623.142 309.554 638.746 325.718C661.062 348.838 685.822 338.846 685.822 338.846C685.822 338.846 666.666 327.099 662.756 323.051C653.569 313.533 655.318 282.959 655.318 282.959L626.993 282.958Z" fill="#E30613" stroke="#1B1A1A" stroke-width="3" stroke-miterlimit="10"/>
<path d="M707.094 403.114C707.094 386.28 702.507 372.632 696.849 372.632C691.191 372.632 686.604 386.28 686.604 403.114C686.604 419.949 691.191 433.597 696.849 433.597C702.507 433.597 707.094 419.949 707.094 403.114Z" fill="#FFFBF1" stroke="#1B1A1A" stroke-width="3" stroke-miterlimit="10"/>
<path d="M707.066 403.115C707.066 397.586 702.584 393.104 697.055 393.104C691.527 393.104 687.045 397.586 687.045 403.115C687.045 408.644 691.527 413.126 697.055 413.126C702.584 413.126 707.066 408.644 707.066 403.115Z" fill="#1B1A1A" stroke="#1B1A1A" stroke-width="3" stroke-miterlimit="10"/>
<path d="M61.0093 403.114C61.0093 386.28 56.4222 372.632 50.7639 372.632C45.1055 372.632 40.5186 386.28 40.5186 403.114C40.5186 419.949 45.1056 433.597 50.7639 433.597C56.4223 433.597 61.0093 419.949 61.0093 403.114Z" fill="#FFFBF1" stroke="#1B1A1A" stroke-width="3" stroke-miterlimit="10"/>
<path d="M60.9797 403.115C60.9797 397.586 56.4979 393.104 50.9694 393.104C45.4408 393.104 40.959 397.586 40.959 403.115C40.959 408.644 45.4408 413.126 50.9694 413.126C56.4979 413.126 60.9797 408.644 60.9797 403.115Z" fill="#1B1A1A" stroke="#1B1A1A" stroke-width="3" stroke-miterlimit="10"/>
</svg>
