<svg width="731" height="904" viewBox="0 0 731 904" fill="none" xmlns="http://www.w3.org/2000/svg">
<path d="M232.353 583.406L232.411 582.212L231.26 581.889C202.088 573.7 156.211 566.212 113.335 570.385C70.5077 574.553 30.2059 590.422 13.0044 629.422C-4.07061 668.134 -0.0920625 713.197 11.6639 753.631C23.3611 793.863 42.8224 829.739 57.3076 850.656C57.3142 851.333 57.1717 852.038 56.8758 852.459C56.7331 852.661 56.5664 852.787 56.3264 852.849C56.06 852.917 55.5688 852.941 54.7464 852.669C53.4678 852.246 52.2694 852.243 51.1991 852.64C50.1469 853.029 49.3613 853.751 48.7911 854.534C47.6805 856.058 47.2136 858.041 47.0891 859.368L47.0222 860.08L47.5335 860.581C49.9912 862.985 52.9964 865.572 56.0593 867.674C59.0853 869.752 62.3201 871.463 65.2125 871.938C66.68 872.178 68.163 872.118 69.502 871.522C70.87 870.914 71.9315 869.817 72.6437 868.279C74.0134 865.322 74.1489 860.62 72.9258 853.827C72.2298 849.962 71.1655 844.72 69.8855 838.417C65.5449 817.04 58.7245 783.451 55.3827 749.921C53.2199 728.222 52.5272 706.648 54.8905 688.524C57.2623 670.334 62.6692 655.965 72.3821 648.255C80.2104 642.041 90.5848 639.012 102.689 638.005C114.791 636.998 128.479 638.022 142.812 639.791C150.739 640.769 158.758 641.959 166.796 643.151C173.372 644.127 179.962 645.105 186.525 645.97C201.001 647.879 215.112 649.203 227.797 648.578L229.155 648.512L229.222 647.154L232.353 583.406Z" fill="#009FE3" stroke="#1B1A1A" stroke-width="3"/>
<path d="M497.806 583.406L497.748 582.212L498.899 581.889C528.072 573.7 573.949 566.212 616.824 570.385C659.651 574.553 699.953 590.422 717.155 629.422C734.23 668.134 730.251 713.197 718.495 753.631C706.798 793.863 687.337 829.739 672.852 850.656C672.845 851.333 672.988 852.038 673.283 852.459C673.426 852.661 673.593 852.787 673.833 852.849C674.099 852.917 674.59 852.941 675.413 852.669C676.691 852.246 677.89 852.243 678.96 852.64C680.012 853.029 680.798 853.751 681.368 854.534C682.479 856.058 682.946 858.041 683.07 859.368L683.137 860.08L682.626 860.581C680.168 862.985 677.163 865.572 674.1 867.674C671.074 869.752 667.839 871.463 664.947 871.938C663.479 872.178 661.996 872.118 660.657 871.522C659.289 870.914 658.228 869.817 657.516 868.279C656.146 865.322 656.01 860.62 657.233 853.827C657.929 849.962 658.994 844.72 660.274 838.417C664.614 817.04 671.435 783.451 674.777 749.921C676.939 728.222 677.632 706.648 675.269 688.524C672.897 670.334 667.49 655.965 657.777 648.255C649.949 642.041 639.574 639.012 627.47 638.005C615.368 636.998 601.68 638.022 587.347 639.791C579.42 640.769 571.401 641.959 563.363 643.151C556.787 644.127 550.198 645.105 543.634 645.97C529.158 647.879 515.047 649.203 502.362 648.578L501.004 648.512L500.938 647.154L497.806 583.406Z" fill="#009FE3" stroke="#1B1A1A" stroke-width="3"/>
<path d="M534.816 830.169C549.186 859.632 530.964 879.887 530.964 879.887C530.964 879.887 526.83 857.183 523.876 852.261C510.492 829.993 484.463 832.354 475.734 833.865C478.939 829.361 482.454 825.006 486.275 820.831L493.559 813.461C496.893 810.328 500.346 807.4 503.909 804.668C514.165 806.852 525.199 810.455 534.816 830.169Z" fill="#009FE3" stroke="#1B1A1A" stroke-width="3" stroke-miterlimit="10"/>
<path d="M546.51 701.909C577.505 712.581 578.943 739.789 578.943 739.789C578.943 739.789 559.965 726.658 554.396 725.266C529.187 718.984 512.45 739.059 507.346 746.3C506.428 740.849 505.834 735.283 505.584 729.63L505.523 719.268C505.665 714.695 506.037 710.183 506.624 705.732C515.421 700.024 525.77 694.769 546.51 701.909Z" fill="#009FE3" stroke="#1B1A1A" stroke-width="3" stroke-miterlimit="10"/>
<path d="M548.938 764.997C574.041 786.079 565.622 811.991 565.622 811.991C565.622 811.991 552.619 792.926 547.919 789.629C526.641 774.721 503.817 787.455 496.455 792.383C497.554 786.966 498.996 781.557 500.791 776.19L504.452 766.497C506.225 762.279 508.19 758.201 510.335 754.256C520.594 752.085 532.14 750.892 548.938 764.997Z" fill="#FFDE00" stroke="#1B1A1A" stroke-width="3" stroke-miterlimit="10"/>
<path d="M185.877 825.539C171.507 855.002 189.729 875.257 189.729 875.257C189.729 875.257 193.863 852.553 196.818 847.631C210.201 825.363 236.231 827.724 244.96 829.235C241.755 824.731 238.239 820.376 234.418 816.201L227.134 808.832C223.801 805.698 220.347 802.77 216.785 800.038C206.528 802.223 195.494 805.825 185.877 825.539Z" fill="#009FE3" stroke="#1B1A1A" stroke-width="3" stroke-miterlimit="10"/>
<path d="M174.183 697.279C143.188 707.951 141.75 735.159 141.75 735.159C141.75 735.159 160.728 722.028 166.298 720.636C191.507 714.354 208.243 734.429 213.347 741.67C214.265 736.219 214.859 730.653 215.109 725L215.17 714.638C215.028 710.065 214.657 705.553 214.069 701.102C205.273 695.394 194.923 690.139 174.183 697.279Z" fill="#009FE3" stroke="#1B1A1A" stroke-width="3" stroke-miterlimit="10"/>
<path d="M171.755 760.368C146.653 781.449 155.071 807.361 155.071 807.361C155.071 807.361 168.075 788.296 172.775 784.999C194.052 770.091 216.876 782.825 224.238 787.753C223.139 782.336 221.697 776.927 219.902 771.56L216.241 761.867C214.469 757.649 212.503 753.571 210.358 749.626C200.099 747.455 188.553 746.263 171.755 760.368Z" fill="#FFDE00" stroke="#1B1A1A" stroke-width="3" stroke-miterlimit="10"/>
<path d="M450.642 606.053L276.626 606.053C238.17 606.053 207.011 637.227 207.011 675.669L207.011 745.376C207.011 831.877 277.133 902 363.634 902C450.135 902 520.258 831.877 520.258 745.376L520.258 675.669C520.258 637.227 489.099 606.053 450.642 606.053Z" fill="#E30613" stroke="#1B1A1A" stroke-width="3" stroke-miterlimit="10"/>
<path d="M398.831 898.036L398.493 895.224L363.631 834.858L328.77 895.224L328.432 898.036C339.74 900.632 351.524 902 363.631 902C375.739 902.015 387.508 900.632 398.831 898.036Z" fill="#FFDE00" stroke="#1B1A1A" stroke-width="3" stroke-miterlimit="10"/>
<path d="M221.896 812.113C231.975 833.47 246.74 852.199 264.87 866.933L291.312 802.004L221.896 812.113Z" fill="#FFDE00" stroke="#1B1A1A" stroke-width="3" stroke-miterlimit="10"/>
<path d="M207.006 745.378C207.006 769.254 212.353 791.87 221.894 812.12L273.257 764.184L207.006 745.378Z" fill="#009FE3" stroke="#1B1A1A" stroke-width="3" stroke-miterlimit="10"/>
<path d="M264.851 866.952C283.089 881.794 304.737 892.61 328.429 898.049L321.715 825.883L264.851 866.952Z" fill="#009FE3" stroke="#1B1A1A" stroke-width="3" stroke-miterlimit="10"/>
<path d="M207.008 675.668L207.008 745.376L267.374 710.53L207.008 675.668Z" fill="#FFDE00" stroke="#1B1A1A" stroke-width="3" stroke-miterlimit="10"/>
<path d="M505.367 812.113C495.288 833.47 480.523 852.199 462.393 866.933L435.951 802.004L505.367 812.113Z" fill="#FFDE00" stroke="#1B1A1A" stroke-width="3" stroke-miterlimit="10"/>
<path d="M520.258 745.378C520.258 769.254 514.911 791.87 505.37 812.12L454.007 764.184L520.258 745.378Z" fill="#009FE3" stroke="#1B1A1A" stroke-width="3" stroke-miterlimit="10"/>
<path d="M462.395 866.952C444.157 881.794 422.509 892.61 398.817 898.049L405.531 825.883L462.395 866.952Z" fill="#009FE3" stroke="#1B1A1A" stroke-width="3" stroke-miterlimit="10"/>
<path d="M520.258 675.668L520.258 745.376L459.892 710.53L520.258 675.668Z" fill="#FFDE00" stroke="#1B1A1A" stroke-width="3" stroke-miterlimit="10"/>
<path d="M364.908 484.078C467.105 484.078 549.951 401.232 549.951 299.035C549.951 196.839 467.105 113.993 364.908 113.993C262.712 113.993 179.865 196.839 179.865 299.035C179.865 401.232 262.712 484.078 364.908 484.078Z" fill="#FFDE00" stroke="#1B1A1A" stroke-width="3" stroke-miterlimit="10"/>
<path d="M364.828 542.984C467.025 542.984 549.871 460.137 549.871 357.941C549.871 255.745 467.025 172.898 364.828 172.898C262.632 172.898 179.785 255.745 179.785 357.941C179.785 460.137 262.632 542.984 364.828 542.984Z" fill="#009FE3" stroke="#1B1A1A" stroke-width="3" stroke-miterlimit="10"/>
<path d="M503.233 584.04C503.233 510.996 449.014 378.426 408.535 326.192C386.612 297.895 343.795 297.895 321.871 326.192C281.392 378.426 227.173 510.996 227.173 584.04C227.182 658.226 288.981 746.114 365.208 746.114C441.434 746.114 503.233 658.226 503.233 584.04Z" fill="#FFDE00" stroke="#1B1A1A" stroke-width="3" stroke-miterlimit="10"/>
<path d="M352.825 418.621L352.825 351.999L336.85 351.999C318.452 351.999 303.54 366.911 303.54 385.309C303.54 403.706 318.452 418.619 336.85 418.619L352.825 418.619L352.825 418.621Z" fill="#E30613" stroke="#1B1A1A" stroke-width="3" stroke-miterlimit="10"/>
<path d="M350.656 407.768L350.656 362.576L339.748 362.576C327.185 362.576 317.002 372.691 317.002 385.171C317.002 397.651 327.185 407.766 339.748 407.766L350.656 407.766L350.656 407.768Z" fill="#FFDE00" stroke="#1B1A1A" stroke-width="3" stroke-miterlimit="10"/>
<path d="M379.502 351.723L379.502 418.345L395.477 418.345C413.875 418.345 428.787 403.432 428.787 385.035C428.787 366.637 413.875 351.725 395.477 351.725L379.502 351.725L379.502 351.723Z" fill="#E30613" stroke="#1B1A1A" stroke-width="3" stroke-miterlimit="10"/>
<path d="M383.348 363.537L383.348 408.729L394.256 408.729C406.819 408.729 417.001 398.614 417.001 386.134C417.001 373.654 406.819 363.539 394.256 363.539L383.348 363.539L383.348 363.537Z" fill="#FFDE00" stroke="#1B1A1A" stroke-width="3" stroke-miterlimit="10"/>
<path d="M341.537 443.091H389.109C389.109 443.091 391.564 319.366 379.121 291.086C372.272 275.511 369.178 268.331 369.178 240.313C369.178 214.957 374.38 212.91 374.334 206.569C374.334 206.569 380.483 172.926 365.323 172.926C350.163 172.926 356.312 206.569 356.312 206.569C356.266 212.91 361.468 214.957 361.468 240.313C361.468 268.331 358.374 275.511 351.526 291.086C339.082 319.366 341.537 443.091 341.537 443.091Z" fill="#009FE3" stroke="#1B1A1A" stroke-width="3" stroke-miterlimit="10"/>
<path d="M229.278 571.213H503.604C495.931 500.804 437.453 424.531 366.441 424.531C295.429 424.531 236.951 500.804 229.278 571.213Z" fill="#E30613" stroke="#1B1A1A" stroke-width="3" stroke-miterlimit="10"/>
<path d="M365.559 734.84C409.578 734.84 445.263 699.156 445.263 655.137C445.263 611.118 409.578 575.433 365.559 575.433C321.54 575.433 285.855 611.118 285.855 655.137C285.855 699.156 321.54 734.84 365.559 734.84Z" fill="#E30613" stroke="#1B1A1A" stroke-width="3" stroke-miterlimit="10"/>
<path d="M365.824 728.131C380.339 728.131 392.105 711.582 392.105 691.167C392.105 670.753 380.339 654.204 365.824 654.204C351.31 654.204 339.544 670.753 339.544 691.167C339.544 711.582 351.31 728.131 365.824 728.131Z" fill="#FFDE00" stroke="#1B1A1A" stroke-width="3" stroke-miterlimit="10"/>
<path d="M470.32 620.172C480.117 620.172 488.06 612.229 488.06 602.431C488.06 592.634 480.117 584.691 470.32 584.691C460.522 584.691 452.579 592.634 452.579 602.431C452.579 612.229 460.522 620.172 470.32 620.172Z" fill="#009FE3" stroke="#1B1A1A" stroke-width="3" stroke-miterlimit="10"/>
<path d="M366.473 707.671C376.271 707.671 384.213 699.729 384.213 689.931C384.213 680.133 376.271 672.19 366.473 672.19C356.675 672.19 348.732 680.133 348.732 689.931C348.732 699.729 356.675 707.671 366.473 707.671Z" fill="#E30613" stroke="#1B1A1A" stroke-width="3" stroke-miterlimit="10"/>
<path d="M366.522 698.152C371.036 698.152 374.695 694.493 374.695 689.979C374.695 685.465 371.036 681.806 366.522 681.806C362.008 681.806 358.349 685.465 358.349 689.979C358.349 694.493 362.008 698.152 366.522 698.152Z" fill="#009FE3" stroke="#1B1A1A" stroke-width="3" stroke-miterlimit="10"/>
<path d="M262.627 620.172C272.425 620.172 280.368 612.229 280.368 602.431C280.368 592.634 272.425 584.691 262.627 584.691C252.829 584.691 244.887 592.634 244.887 602.431C244.887 612.229 252.829 620.172 262.627 620.172Z" fill="#009FE3" stroke="#1B1A1A" stroke-width="3" stroke-miterlimit="10"/>
<path d="M227.098 720.267C232.674 720.267 237.194 715.747 237.194 710.171C237.194 704.595 232.674 700.075 227.098 700.075C221.522 700.075 217.002 704.595 217.002 710.171C217.002 715.747 221.522 720.267 227.098 720.267Z" fill="#009FE3" stroke="#1B1A1A" stroke-width="3" stroke-miterlimit="10"/>
<path d="M256.906 838.537C262.482 838.537 267.002 834.016 267.002 828.44C267.002 822.864 262.482 818.344 256.906 818.344C251.33 818.344 246.81 822.864 246.81 828.44C246.81 834.016 251.33 838.537 256.906 838.537Z" fill="#009FE3" stroke="#1B1A1A" stroke-width="3" stroke-miterlimit="10"/>
<path d="M363.636 889.498C369.212 889.498 373.732 884.978 373.732 879.402C373.732 873.826 369.212 869.306 363.636 869.306C358.06 869.306 353.54 873.826 353.54 879.402C353.54 884.978 358.06 889.498 363.636 889.498Z" fill="#009FE3" stroke="#1B1A1A" stroke-width="3" stroke-miterlimit="10"/>
<path d="M470.368 838.537C475.944 838.537 480.464 834.016 480.464 828.44C480.464 822.864 475.944 818.344 470.368 818.344C464.792 818.344 460.271 822.864 460.271 828.44C460.271 834.016 464.792 838.537 470.368 838.537Z" fill="#009FE3" stroke="#1B1A1A" stroke-width="3" stroke-miterlimit="10"/>
<path d="M501.136 720.267C506.712 720.267 511.232 715.747 511.232 710.171C511.232 704.595 506.712 700.075 501.136 700.075C495.56 700.075 491.04 704.595 491.04 710.171C491.04 715.747 495.56 720.267 501.136 720.267Z" fill="#009FE3" stroke="#1B1A1A" stroke-width="3" stroke-miterlimit="10"/>
<path d="M444.902 571.055H283.959C288.461 612.363 322.769 657.111 364.431 657.111C406.093 657.111 440.401 612.363 444.902 571.055Z" fill="#009FE3" stroke="#1B1A1A" stroke-width="3" stroke-miterlimit="10"/>
<path d="M398.31 727.986H331.688V743.962C331.688 762.359 346.601 777.271 364.998 777.271C383.396 777.271 398.308 762.359 398.308 743.962V727.986H398.31Z" fill="#009FE3" stroke="#1B1A1A" stroke-width="3" stroke-miterlimit="10"/>
<path d="M365.227 625.051C400.367 625.051 428.854 615.476 428.854 603.665C428.854 591.854 400.367 582.28 365.227 582.28C330.087 582.28 301.601 591.854 301.601 603.665C301.601 615.476 330.087 625.051 365.227 625.051Z" fill="#FFFBF1" stroke="#1B1A1A" stroke-width="3" stroke-miterlimit="10"/>
<path d="M365.226 624.995C376.767 624.995 386.122 615.64 386.122 604.1C386.122 592.56 376.767 583.205 365.226 583.205C353.686 583.205 344.33 592.56 344.33 604.1C344.33 615.64 353.686 624.995 365.226 624.995Z" fill="#1B1A1A" stroke="#1B1A1A" stroke-width="3" stroke-miterlimit="10"/>
<path d="M365.734 806.403C372.966 806.403 378.829 800.54 378.829 793.308C378.829 786.076 372.966 780.213 365.734 780.213C358.502 780.213 352.639 786.076 352.639 793.308C352.639 800.54 358.502 806.403 365.734 806.403Z" fill="#FFDE00" stroke="#1B1A1A" stroke-width="3" stroke-miterlimit="10"/>
<path d="M614.742 625.425L641.692 625.425C647.344 625.425 652.219 621.464 653.376 615.932L657.348 596.95C658.901 589.536 653.241 582.568 645.664 582.568L610.77 582.568C603.193 582.568 597.534 589.536 599.086 596.95L603.058 615.932C604.216 621.464 609.094 625.425 614.742 625.425Z" fill="#FFDE00" stroke="#1B1A1A" stroke-width="3" stroke-miterlimit="10"/>
<path d="M613.877 625.244C612.336 614.872 610.084 599.047 625.455 583.124C647.437 560.35 671.827 570.193 671.827 570.193C671.827 570.193 652.958 581.764 649.105 585.751C640.056 595.127 641.779 625.244 641.779 625.244L613.877 625.244Z" fill="#E30613" stroke="#1B1A1A" stroke-width="3" stroke-miterlimit="10"/>
<path d="M112.467 625.424L85.517 625.424C79.8647 625.424 74.9904 621.464 73.8329 615.932L69.8605 596.95C68.3084 589.535 73.9682 582.568 81.5446 582.568L116.439 582.568C124.016 582.568 129.675 589.535 128.123 596.95L124.151 615.932C122.993 621.464 118.115 625.424 112.467 625.424Z" fill="#FFDE00" stroke="#1B1A1A" stroke-width="3" stroke-miterlimit="10"/>
<path d="M113.332 625.244C114.873 614.871 117.125 599.046 101.754 583.124C79.7722 560.35 55.3817 570.192 55.3817 570.192C55.3817 570.192 74.2514 581.763 78.1036 585.75C87.1532 595.127 85.4301 625.244 85.4301 625.244L113.332 625.244Z" fill="#E30613" stroke="#1B1A1A" stroke-width="3" stroke-miterlimit="10"/>
<path d="M228.6 348.594L300.497 420.491C309.696 429.689 323.788 431.928 335.387 426.015L360.193 413.384C378.388 404.119 382.236 379.809 367.795 365.368L283.723 281.296C269.296 266.868 244.986 270.716 235.707 288.898L223.076 313.704C217.176 325.316 219.402 339.395 228.6 348.594Z" fill="#FFDE00" stroke="#1B1A1A" stroke-width="3" stroke-miterlimit="10"/>
<path d="M358.115 357.269C338.539 383.684 307.136 422.489 237.746 423.709C138.495 425.452 106.234 349.559 106.234 349.559C106.234 349.559 173.733 365.757 191.111 365.435C231.967 364.724 293.848 293.86 293.848 293.86L358.115 357.269Z" fill="#E30613" stroke="#1B1A1A" stroke-width="3" stroke-miterlimit="10"/>
<path d="M426.469 450.258L426.469 348.58C426.469 335.572 418.087 324.023 405.705 320.003L379.233 311.394C359.815 305.08 339.904 319.548 339.904 339.971L339.904 458.867C339.904 479.271 359.815 493.739 379.233 487.444L405.705 478.835C418.087 474.796 426.469 463.266 426.469 450.258Z" fill="#FFDE00" stroke="#1B1A1A" stroke-width="3" stroke-miterlimit="10"/>
<path d="M341.022 352.542C373.543 347.707 423.187 342.473 473.116 390.676C544.529 459.624 513.677 536.101 513.677 536.101C513.677 536.101 477.401 476.918 464.886 464.858C435.494 436.471 341.628 442.823 341.628 442.823L341.022 352.542Z" fill="#E30613" stroke="#1B1A1A" stroke-width="3" stroke-miterlimit="10"/>
<path d="M306.539 455.311L306.539 353.633C306.539 340.625 314.921 329.077 327.303 325.057L353.775 316.448C373.193 310.133 393.104 324.601 393.104 345.024L393.104 463.92C393.104 484.324 373.193 498.792 353.775 492.497L327.303 483.888C314.921 479.849 306.539 468.319 306.539 455.311Z" fill="#FFDE00" stroke="#1B1A1A" stroke-width="3" stroke-miterlimit="10"/>
<path d="M391.986 357.595C359.465 352.759 309.821 347.526 259.892 395.729C188.479 464.677 219.331 541.153 219.331 541.153C219.331 541.153 255.607 481.971 268.122 469.911C297.514 441.524 391.379 447.876 391.379 447.876L391.986 357.595Z" fill="#E30613" stroke="#1B1A1A" stroke-width="3" stroke-miterlimit="10"/>
<path d="M208.795 267.335L259.634 355.39C266.138 366.656 279.171 372.466 291.904 369.756L319.134 363.976C339.108 359.736 349.117 337.25 338.905 319.564L279.457 216.597C269.256 198.927 244.778 196.352 231.11 211.513L212.489 232.205C203.785 241.894 202.291 256.069 208.795 267.335Z" fill="#FFDE00" stroke="#1B1A1A" stroke-width="3" stroke-miterlimit="10"/>
<path d="M331.652 309.234C305.906 329.683 265.53 359.037 198.189 342.257C101.869 318.252 90.3493 236.596 90.3493 236.596C90.3493 236.596 151.356 269.711 168.225 273.898C207.873 283.786 285.986 231.352 285.986 231.352L331.652 309.234Z" fill="#E30613" stroke="#1B1A1A" stroke-width="3" stroke-miterlimit="10"/>
<path d="M220.056 197.075L246.373 295.288C249.739 307.853 260.824 316.839 273.825 317.517L301.623 318.981C322.014 320.055 337.501 300.926 332.216 281.199L301.443 166.354C296.162 146.646 273.185 137.824 256.058 148.93L232.717 164.098C221.801 171.204 216.69 184.51 220.056 197.075Z" fill="#FFDE00" stroke="#1B1A1A" stroke-width="3" stroke-miterlimit="10"/>
<path d="M327.882 269.344C297.72 282.431 251.122 300.336 190.419 266.698C103.594 218.582 113.601 136.726 113.601 136.726C113.601 136.726 163.958 184.503 179.169 192.913C214.906 212.726 303.929 182.296 303.929 182.296L327.882 269.344Z" fill="#E30613" stroke="#1B1A1A" stroke-width="3" stroke-miterlimit="10"/>
<path d="M255.264 136.251L228.948 234.464C225.581 247.029 230.688 260.353 241.608 267.441L264.95 282.609C282.072 293.734 305.049 284.911 310.335 265.184L341.107 150.34C346.388 130.631 330.9 111.502 310.515 112.558L282.717 114.022C269.711 114.719 258.631 123.686 255.264 136.251Z" fill="#FFDE00" stroke="#1B1A1A" stroke-width="3" stroke-miterlimit="10"/>
<path d="M312.507 252.751C279.843 249.005 230.536 241.211 194.784 181.728C143.649 96.646 193.244 30.7606 193.244 30.7606C193.244 30.7606 212.966 97.3153 221.933 112.204C242.977 147.231 335.288 165.389 335.288 165.389L312.507 252.751Z" fill="#E30613" stroke="#1B1A1A" stroke-width="3" stroke-miterlimit="10"/>
<path d="M507.495 348.593L435.598 420.49C426.4 429.688 412.307 431.928 400.709 426.015L375.903 413.384C357.708 404.118 353.859 379.808 368.3 365.367L452.372 281.295C466.8 266.867 491.11 270.716 500.389 288.898L513.02 313.704C518.919 325.316 516.694 339.395 507.495 348.593Z" fill="#FFDE00" stroke="#1B1A1A" stroke-width="3" stroke-miterlimit="10"/>
<path d="M377.981 357.269C397.558 383.684 428.961 422.488 498.351 423.708C597.601 425.451 629.862 349.559 629.862 349.559C629.862 349.559 562.363 365.756 544.986 365.434C504.13 364.724 442.249 293.859 442.249 293.859L377.981 357.269Z" fill="#E30613" stroke="#1B1A1A" stroke-width="3" stroke-miterlimit="10"/>
<path d="M527.304 267.335L476.465 355.39C469.961 366.656 456.928 372.466 444.194 369.756L416.964 363.976C396.991 359.736 386.982 337.25 397.193 319.564L456.641 216.597C466.843 198.927 491.321 196.352 504.989 211.513L523.61 232.205C532.314 241.894 533.808 256.069 527.304 267.335Z" fill="#FFDE00" stroke="#1B1A1A" stroke-width="3" stroke-miterlimit="10"/>
<path d="M404.446 309.234C430.193 329.683 470.569 359.037 537.91 342.257C634.23 318.252 645.749 236.596 645.749 236.596C645.749 236.596 584.743 269.711 567.874 273.898C528.226 283.786 450.113 231.352 450.113 231.352L404.446 309.234Z" fill="#E30613" stroke="#1B1A1A" stroke-width="3" stroke-miterlimit="10"/>
<path d="M516.049 197.075L489.733 295.288C486.366 307.853 475.281 316.839 462.28 317.517L434.482 318.981C414.092 320.055 398.604 300.926 403.89 281.199L434.662 166.354C439.943 146.646 462.92 137.824 480.047 148.93L503.389 164.098C514.304 171.204 519.416 184.51 516.049 197.075Z" fill="#FFDE00" stroke="#1B1A1A" stroke-width="3" stroke-miterlimit="10"/>
<path d="M408.222 269.344C438.383 282.431 484.981 300.336 545.684 266.698C632.51 218.582 622.502 136.726 622.502 136.726C622.502 136.726 572.145 184.503 556.935 192.913C521.197 212.726 432.174 182.296 432.174 182.296L408.222 269.344Z" fill="#E30613" stroke="#1B1A1A" stroke-width="3" stroke-miterlimit="10"/>
<path d="M480.835 136.247L507.151 234.46C510.518 247.025 505.411 260.35 494.49 267.438L471.149 282.605C454.027 293.73 431.05 284.907 425.764 265.181L394.992 150.336C389.711 130.627 405.198 111.499 425.584 112.554L453.382 114.018C466.388 114.715 477.468 123.682 480.835 136.247Z" fill="#FFDE00" stroke="#1B1A1A" stroke-width="3" stroke-miterlimit="10"/>
<path d="M423.591 252.751C456.256 249.005 505.563 241.211 541.314 181.728C592.449 96.646 542.855 30.7606 542.855 30.7606C542.855 30.7606 523.133 97.3153 514.165 112.204C493.122 147.231 400.811 165.389 400.811 165.389L423.591 252.751Z" fill="#E30613" stroke="#1B1A1A" stroke-width="3" stroke-miterlimit="10"/>
<path d="M365.581 468.836C455.758 468.836 528.861 395.734 528.861 305.557C528.861 215.38 455.758 142.277 365.581 142.277C275.404 142.277 202.301 215.38 202.301 305.557C202.301 395.734 275.404 468.836 365.581 468.836Z" fill="#009FE3" stroke="#1B1A1A" stroke-width="3" stroke-miterlimit="10"/>
<path d="M314.977 543.329H421.302C444.799 543.329 463.837 524.282 463.837 500.794V458.202C463.837 405.349 420.992 362.504 368.139 362.504C315.287 362.504 272.441 405.349 272.441 458.202V500.794C272.441 524.282 291.48 543.329 314.977 543.329Z" fill="#009FE3" stroke="#1B1A1A" stroke-width="3" stroke-miterlimit="10"/>
<path d="M346.634 364.926L346.84 366.644L368.141 403.529L389.442 366.644L389.648 364.926C382.739 363.34 375.538 362.504 368.141 362.504C360.743 362.495 353.553 363.34 346.634 364.926Z" fill="#E30613" stroke="#1B1A1A" stroke-width="3" stroke-miterlimit="10"/>
<path d="M454.745 417.424C448.586 404.376 439.565 392.932 428.487 383.929L412.331 423.602L454.745 417.424Z" fill="#E30613" stroke="#1B1A1A" stroke-width="3" stroke-miterlimit="10"/>
<path d="M463.841 458.2C463.841 443.612 460.574 429.793 454.744 417.42L423.361 446.71L463.841 458.2Z" fill="#FFDE00" stroke="#1B1A1A" stroke-width="3" stroke-miterlimit="10"/>
<path d="M428.495 383.919C417.351 374.851 404.124 368.242 389.648 364.918L393.751 409.012L428.495 383.919Z" fill="#FFDE00" stroke="#1B1A1A" stroke-width="3" stroke-miterlimit="10"/>
<path d="M463.838 500.795V458.203L426.954 479.494L463.838 500.795Z" fill="#E30613" stroke="#1B1A1A" stroke-width="3" stroke-miterlimit="10"/>
<path d="M281.54 417.424C287.698 404.376 296.72 392.932 307.797 383.929L323.954 423.602L281.54 417.424Z" fill="#E30613" stroke="#1B1A1A" stroke-width="3" stroke-miterlimit="10"/>
<path d="M272.441 458.2C272.441 443.612 275.708 429.793 281.538 417.42L312.921 446.71L272.441 458.2Z" fill="#FFDE00" stroke="#1B1A1A" stroke-width="3" stroke-miterlimit="10"/>
<path d="M307.798 383.919C318.941 374.851 332.168 368.242 346.644 364.918L342.542 409.012L307.798 383.919Z" fill="#FFDE00" stroke="#1B1A1A" stroke-width="3" stroke-miterlimit="10"/>
<path d="M272.441 500.795V458.203L309.326 479.494L272.441 500.795Z" fill="#E30613" stroke="#1B1A1A" stroke-width="3" stroke-miterlimit="10"/>
<path d="M540.962 40.9335C550.893 40.9335 558.943 32.2179 558.943 21.4667C558.943 10.7155 550.893 2 540.962 2C531.032 2 522.981 10.7155 522.981 21.4667C522.981 32.2179 531.032 40.9335 540.962 40.9335Z" fill="#FFDE00" stroke="#1B1A1A" stroke-width="3" stroke-miterlimit="10"/>
<path d="M622.991 157.141C632.922 157.141 640.972 148.426 640.972 137.675C640.972 126.924 632.922 118.208 622.991 118.208C613.061 118.208 605.011 126.924 605.011 137.675C605.011 148.426 613.061 157.141 622.991 157.141Z" fill="#FFDE00" stroke="#1B1A1A" stroke-width="3" stroke-miterlimit="10"/>
<path d="M649.441 254.326C659.371 254.326 667.421 245.61 667.421 234.859C667.421 224.108 659.371 215.392 649.441 215.392C639.51 215.392 631.46 224.108 631.46 234.859C631.46 245.61 639.51 254.326 649.441 254.326Z" fill="#FFDE00" stroke="#1B1A1A" stroke-width="3" stroke-miterlimit="10"/>
<path d="M640.821 367.559C650.751 367.559 658.801 358.843 658.801 348.092C658.801 337.341 650.751 328.625 640.821 328.625C630.89 328.625 622.84 337.341 622.84 348.092C622.84 358.843 630.89 367.559 640.821 367.559Z" fill="#FFDE00" stroke="#1B1A1A" stroke-width="3" stroke-miterlimit="10"/>
<path d="M94.2669 369.34C104.197 369.34 112.248 360.624 112.248 349.873C112.248 339.122 104.197 330.406 94.2669 330.406C84.3364 330.406 76.2861 339.122 76.2861 349.873C76.2861 360.624 84.3364 369.34 94.2669 369.34Z" fill="#FFDE00" stroke="#1B1A1A" stroke-width="3" stroke-miterlimit="10"/>
<path d="M80.596 256.703C90.5264 256.703 98.5767 247.988 98.5767 237.237C98.5767 226.486 90.5264 217.77 80.596 217.77C70.6655 217.77 62.6152 226.486 62.6152 237.237C62.6152 247.988 70.6655 256.703 80.596 256.703Z" fill="#FFDE00" stroke="#1B1A1A" stroke-width="3" stroke-miterlimit="10"/>
<path d="M108.83 161.894C118.761 161.894 126.811 153.178 126.811 142.427C126.811 131.676 118.761 122.96 108.83 122.96C98.8999 122.96 90.8496 131.676 90.8496 142.427C90.8496 153.178 98.8999 161.894 108.83 161.894Z" fill="#FFDE00" stroke="#1B1A1A" stroke-width="3" stroke-miterlimit="10"/>
<path d="M191.749 55.7919C201.68 55.7919 209.73 47.0763 209.73 36.3251C209.73 25.5739 201.68 16.8584 191.749 16.8584C181.819 16.8584 173.769 25.5739 173.769 36.3251C173.769 47.0763 181.819 55.7919 191.749 55.7919Z" fill="#FFDE00" stroke="#1B1A1A" stroke-width="3" stroke-miterlimit="10"/>
<path d="M338.349 534.877H394.6C406.394 534.877 416.577 526.608 418.984 515.066L427.271 475.443C430.51 459.961 418.699 445.422 402.887 445.422H330.054C314.242 445.422 302.431 459.961 305.669 475.443L313.956 515.066C316.381 526.608 326.555 534.877 338.349 534.877Z" fill="#FFDE00" stroke="#1B1A1A" stroke-width="3" stroke-miterlimit="10"/>
<path d="M366.476 504.963C385.653 504.963 401.199 494.314 401.199 481.177C401.199 468.04 385.653 457.391 366.476 457.391C347.298 457.391 331.752 468.04 331.752 481.177C331.752 494.314 347.298 504.963 366.476 504.963Z" fill="#009FE3" stroke="#1B1A1A" stroke-width="3" stroke-miterlimit="10"/>
<path d="M369.322 250.856C369.322 337.337 937.661 250.856 369.322 250.856C937.661 250.856 369.322 164.375 369.322 250.856C-199.017 250.856 369.322 164.363 369.322 250.856C369.322 337.349 -199.028 250.856 369.322 250.856Z" fill="#FFDE00"/>
<path d="M369.322 250.856C937.661 250.856 369.322 337.337 369.322 250.856ZM369.322 250.856C369.322 164.375 937.661 250.856 369.322 250.856ZM369.322 250.856C-199.017 250.856 369.322 164.363 369.322 250.856ZM369.322 250.856C369.322 337.349 -199.028 250.856 369.322 250.856Z" stroke="#1B1A1A" stroke-width="3" stroke-miterlimit="10"/>
<path d="M369.62 330.805C369.62 417.286 937.959 330.805 369.62 330.805C937.959 330.805 369.62 244.324 369.62 330.805C-198.719 330.805 369.62 244.312 369.62 330.805C369.62 417.298 -198.73 330.805 369.62 330.805Z" fill="#FFDE00"/>
<path d="M369.62 330.805C937.959 330.805 369.62 417.286 369.62 330.805ZM369.62 330.805C369.62 244.324 937.959 330.805 369.62 330.805ZM369.62 330.805C-198.719 330.805 369.62 244.312 369.62 330.805ZM369.62 330.805C369.62 417.298 -198.73 330.805 369.62 330.805Z" stroke="#1B1A1A" stroke-width="3" stroke-miterlimit="10"/>
<path d="M285.32 321.784C278.745 318.614 268.015 316.961 257.108 316.961C246.2 316.961 235.471 318.614 228.896 321.784C226.342 323.016 224.531 324.271 223.377 325.48C222.23 326.681 221.808 327.753 221.808 328.677C221.808 329.601 222.23 330.672 223.377 331.874C224.531 333.083 226.342 334.338 228.896 335.569C235.471 338.74 246.2 340.393 257.108 340.393C268.015 340.393 278.745 338.74 285.32 335.569C287.874 334.338 289.685 333.083 290.839 331.874C291.985 330.672 292.408 329.601 292.408 328.677C292.408 327.753 291.985 326.681 290.839 325.48C289.685 324.271 287.874 323.016 285.32 321.784Z" fill="white" stroke="#1B1A1A" stroke-width="3"/>
<circle r="11.3906" transform="matrix(-1 0 0 1 257.223 328.715)" fill="#1B1A1A" stroke="#1B1A1A" stroke-width="3"/>
<path d="M449.806 321.784C456.381 318.614 467.111 316.961 478.018 316.961C488.926 316.961 499.655 318.614 506.23 321.784C508.784 323.016 510.595 324.271 511.749 325.48C512.895 326.681 513.318 327.753 513.318 328.677C513.318 329.601 512.895 330.672 511.749 331.874C510.595 333.083 508.784 334.338 506.23 335.569C499.655 338.74 488.926 340.393 478.018 340.393C467.111 340.393 456.381 338.74 449.806 335.569C447.252 334.338 445.441 333.083 444.287 331.874C443.141 330.672 442.718 329.601 442.718 328.677C442.718 327.753 443.141 326.681 444.287 325.48C445.441 324.271 447.252 323.016 449.806 321.784Z" fill="white" stroke="#1B1A1A" stroke-width="3"/>
<circle cx="477.903" cy="328.715" r="11.3906" fill="#1B1A1A" stroke="#1B1A1A" stroke-width="3"/>
<path d="M290.279 241.973C282.379 238.164 269.532 236.192 256.506 236.192C243.48 236.192 230.633 238.164 222.733 241.973C219.67 243.45 217.476 244.965 216.067 246.442C214.666 247.91 214.115 249.256 214.115 250.454C214.115 251.652 214.666 252.998 216.067 254.466C217.476 255.943 219.67 257.458 222.733 258.935C230.633 262.744 243.48 264.716 256.506 264.716C269.532 264.716 282.379 262.744 290.279 258.935C293.342 257.458 295.536 255.943 296.945 254.466C298.346 252.998 298.896 251.652 298.896 250.454C298.896 249.256 298.346 247.91 296.945 246.442C295.536 244.965 293.342 243.45 290.279 241.973Z" fill="white" stroke="#1B1A1A" stroke-width="3"/>
<circle r="12.826" transform="matrix(-1 0 0 1 256.675 250.265)" fill="#1B1A1A" stroke="#1B1A1A" stroke-width="3"/>
<path d="M444.847 241.973C452.747 238.164 465.594 236.192 478.62 236.192C491.646 236.192 504.493 238.164 512.393 241.973C515.456 243.45 517.65 244.965 519.059 246.442C520.46 247.91 521.011 249.256 521.011 250.454C521.011 251.652 520.46 252.998 519.059 254.466C517.65 255.943 515.456 257.458 512.393 258.935C504.493 262.744 491.646 264.716 478.62 264.716C465.594 264.716 452.747 262.744 444.847 258.935C441.784 257.458 439.59 255.943 438.181 254.466C436.78 252.998 436.229 251.652 436.229 250.454C436.229 249.256 436.78 247.91 438.181 246.442C439.59 244.965 441.784 243.45 444.847 241.973Z" fill="white" stroke="#1B1A1A" stroke-width="3"/>
<circle cx="478.451" cy="250.265" r="12.826" fill="#1B1A1A" stroke="#1B1A1A" stroke-width="3"/>
<path d="M433.26 276.084C418.49 268.962 394.656 265.334 370.643 265.334C346.63 265.334 322.796 268.962 308.025 276.084C302.318 278.836 298.142 281.7 295.411 284.561C292.688 287.415 291.477 290.182 291.477 292.803C291.477 295.423 292.688 298.191 295.411 301.045C298.142 303.906 302.318 306.77 308.025 309.521C322.796 316.643 346.63 320.272 370.643 320.272C394.656 320.272 418.49 316.643 433.26 309.521C438.967 306.77 443.144 303.906 445.874 301.045C448.597 298.191 449.809 295.423 449.809 292.803C449.809 290.182 448.597 287.415 445.874 284.561C443.144 281.7 438.967 278.836 433.26 276.084Z" fill="white" stroke="#1B1A1A" stroke-width="3"/>
<circle r="26.6243" transform="matrix(-1 0 0 1 369.585 292.623)" fill="#1B1A1A" stroke="#1B1A1A" stroke-width="3"/>
<path d="M390.604 106.314H348.627C348.627 106.314 346.46 215.488 357.44 240.442C363.484 254.185 366.213 260.52 366.213 285.244C366.213 307.617 361.623 309.424 361.664 315.019C361.664 315.019 356.238 344.706 369.615 344.706C382.992 344.706 377.566 315.019 377.566 315.019C377.607 309.424 373.017 307.617 373.017 285.244C373.017 260.52 375.747 254.185 381.79 240.442C392.77 215.488 390.604 106.314 390.604 106.314Z" fill="#E30613" stroke="#1B1A1A" stroke-width="3" stroke-miterlimit="10"/>
</svg>
