<svg width="206" height="53" viewBox="0 0 206 53" fill="none" xmlns="http://www.w3.org/2000/svg">
<path d="M194.089 31.2401C191.217 31.2401 188.509 31.8951 186.086 33.0479C179.222 14.6258 161.486 1.5 140.687 1.5C125.407 1.5 111.789 8.59489 102.904 19.6528C102.543 19.6386 102.176 19.6301 101.803 19.6301C90.5912 19.6301 80.8035 25.7214 75.5533 34.765C72.4818 32.5505 68.7149 31.2401 64.6342 31.2401C58.6402 31.2401 53.3 34.0591 49.8692 38.4403C45.3252 27.4031 34.4776 19.6301 21.8083 19.6301C19.2443 19.6301 16.7632 19.9431 14.3797 20.5457C-3.56472 25.0654 -0.290062 51.5 18.2117 51.5H194.362C200.839 51.5 204.277 46.5435 204.489 41.6887C204.595 39.2634 203.916 36.7618 202.357 34.7965C200.777 32.804 198.362 31.4535 195.208 31.2669C194.814 31.24 194.439 31.24 194.109 31.2401H194.089Z" fill="#FFDE00" stroke="#1B1A1A" stroke-width="3" stroke-miterlimit="10"/>
</svg>
