<svg width="834" height="1194" viewBox="0 0 834 1194" fill="none" xmlns="http://www.w3.org/2000/svg">
<g clip-path="url(#clip0)">
<path d="M107.68 696.663L228.922 623.868C238.773 617.954 244.797 607.311 244.797 595.829L244.797 575.085C244.797 571.195 246.721 567.551 249.932 565.36C260.346 558.253 266.573 546.46 266.573 533.858L266.573 492.363C266.573 483.968 262.097 476.217 254.828 472.024C246.121 466.999 246.121 454.425 254.828 449.4C262.097 445.207 266.573 437.448 266.573 429.061C266.573 422.474 270.088 416.386 275.795 413.089C281.985 409.518 285.797 402.916 285.797 395.766L285.797 376.179C285.797 367.307 281.067 359.115 273.379 354.683C269.163 352.253 266.566 347.756 266.566 342.89C266.566 332.775 261.171 323.426 252.405 318.372L215.579 297.115C209.185 293.427 209.185 284.201 215.579 280.514C221.184 277.275 224.641 271.295 224.641 264.817C224.641 243.155 213.084 223.134 194.316 212.303L107.673 162.291L107.673 696.663L107.68 696.663Z" fill="#FFFBF1" stroke="#E5E3E3" stroke-width="3" stroke-miterlimit="10"/>
<path d="M177.414 338.725C177.414 345.456 180.741 351.754 186.303 355.55C194.063 360.85 198.706 369.634 198.706 379.034L198.706 421.122C198.706 431.28 193.289 440.665 184.488 445.741L183.005 446.594C176.366 450.426 176.366 460.014 183.005 463.846L191.105 468.524C195.806 471.235 198.706 476.253 198.706 481.683C198.706 490.902 203.624 499.419 211.609 504.025C215.254 506.129 217.503 510.019 217.503 514.227L217.503 541.991C217.503 548.108 214.241 553.762 208.94 556.821C202.604 560.472 198.706 567.232 198.706 574.542C198.706 581.881 194.794 588.656 188.436 592.321L142.121 619.052C138.866 620.932 138.866 625.632 142.121 627.504C151.769 633.072 157.714 643.368 157.714 654.51L157.714 662.962C157.714 674.104 151.769 684.393 142.121 689.967L100.39 714.059L100.391 347.249L100.391 259.538L148.391 287.895C166.378 298.517 177.414 317.844 177.414 338.725Z" fill="#FFFBF1" stroke="#E5E3E3" stroke-width="3" stroke-miterlimit="10"/>
<path d="M34.6341 96.8124L70.7883 120.362C107.622 144.352 130.31 188.688 130.31 236.669C130.31 243.762 126.954 250.312 121.516 253.855C110.175 261.245 110.175 279.718 121.516 287.108C126.961 290.65 130.31 297.208 130.31 304.294L130.31 391.318C130.31 400.797 134.794 409.56 142.07 414.296C152.166 420.876 158.386 433.03 158.386 446.182L158.386 460.983C158.386 493.743 142.894 524.017 117.748 540.401C108.049 546.72 102.075 558.39 102.075 571.021C102.075 614.367 81.7235 654.466 48.5851 676.403L34.6268 685.644L34.6269 96.8124L34.6341 96.8124Z" fill="#FFFBF1" stroke="#E5E3E3" stroke-width="3" stroke-miterlimit="10"/>
<path d="M117.942 645.255L117.942 646.962C117.942 655.161 113.567 662.738 106.465 666.845C103.189 668.732 103.189 673.454 106.465 675.348C111.289 678.132 114.261 683.272 114.261 688.84L114.261 697.307C114.261 707.877 108.642 717.653 99.5073 722.981L34.6337 760.774L34.6337 538.348L75.2574 565.454C101.923 583.255 117.942 613.196 117.942 645.255Z" fill="#FFFBF1" stroke="#E5E3E3" stroke-width="3" stroke-miterlimit="10"/>
<path d="M-40.3922 646.183L82.7643 718.837C92.7702 724.74 98.8899 735.362 98.8899 746.821L98.8899 767.525C98.8899 771.407 100.844 775.045 104.106 777.231C114.685 784.325 121.01 796.095 121.01 808.673L121.01 850.087C121.01 858.465 116.463 866.201 109.079 870.387C100.234 875.402 100.234 887.951 109.079 892.966C116.463 897.152 121.01 904.895 121.01 913.266C121.01 919.84 124.581 925.916 130.377 929.207C136.665 932.772 140.537 939.36 140.537 946.497L140.537 966.046C140.537 974.901 135.732 983.077 127.923 987.5C123.64 989.925 121.003 994.414 121.003 999.27C121.003 1009.37 115.522 1018.7 106.618 1023.74L69.21 1044.96C62.7157 1048.64 62.7157 1057.85 69.21 1061.53C74.9035 1064.76 78.4152 1070.73 78.4152 1077.19C78.4152 1098.81 66.6755 1118.79 47.6113 1129.6L-40.3996 1179.52L-40.3995 646.183L-40.3922 646.183Z" fill="#FFFBF1" stroke="#E5E3E3" stroke-width="3" stroke-miterlimit="10"/>
<path d="M75.3702 471.42C75.3702 464.702 78.7496 458.416 84.399 454.628C92.2818 449.338 96.9982 440.57 96.9982 431.189L96.9982 389.183C96.9982 379.044 91.4957 369.677 82.5551 364.611L81.049 363.76C74.3049 359.935 74.3049 350.366 81.049 346.542L89.2771 341.873C94.0523 339.166 96.9982 334.158 96.9982 328.739C96.9982 319.538 101.994 311.037 110.104 306.44C113.807 304.341 116.092 300.458 116.092 296.258L116.092 268.548C116.092 262.443 112.779 256.799 107.394 253.747C100.958 250.103 96.9983 243.355 96.9983 236.06C96.9983 228.735 93.0238 221.973 86.5662 218.315L39.5193 191.636C36.2134 189.76 36.2134 185.069 39.5193 183.2C49.3195 177.644 55.3584 167.367 55.3584 156.247L55.3584 147.811C55.3584 136.691 49.3195 126.422 39.5193 120.858L-2.86989 96.8135L-2.86993 462.912L-2.86994 550.453L45.8887 522.151C64.1594 511.55 75.3702 492.261 75.3702 471.42Z" fill="#FFFBF1" stroke="#E5E3E3" stroke-width="3" stroke-miterlimit="10"/>
<path d="M44.0439 101.462L44.0439 99.7591C44.0439 91.5758 39.5993 84.0131 32.3851 79.9143C29.0571 78.0308 29.0571 73.3185 32.3851 71.4279C37.2852 68.6496 40.3046 63.5188 40.3046 57.9622L40.3046 49.5119C40.3046 38.9616 34.5964 29.2051 25.3178 23.8867L-40.5802 -13.833L-40.5803 208.163L0.684964 181.109C27.7715 163.342 44.0439 133.459 44.0439 101.462Z" fill="#FFFBF1" stroke="#E5E3E3" stroke-width="3" stroke-miterlimit="10"/>
<path d="M20.8848 924.805L20.8848 926.049C20.8848 932.025 17.6412 937.547 12.3765 940.54C9.94788 941.916 9.94788 945.357 12.3765 946.738C15.9525 948.766 18.1559 952.513 18.1559 956.571L18.1559 962.741C18.1559 970.446 13.9902 977.57 7.21902 981.454L-40.8712 1009L-40.8711 846.889L-10.7571 866.645C9.00968 879.618 20.8848 901.44 20.8848 924.805Z" fill="#FFFBF1" stroke="#E5E3E3" stroke-width="3" stroke-miterlimit="10"/>
<path d="M-40.8665 846.89L25.074 792.244C27.6761 790.085 29.2743 786.167 29.2743 781.928C29.2743 773.161 32.6116 765.066 38.027 760.686L63.66 739.949C71.4222 733.662 76.208 722.05 76.208 709.483L76.208 701.69C76.208 672.081 64.9369 644.718 46.6345 629.917L33.5362 619.317C30.8989 617.182 29.2699 613.234 29.2699 608.964C29.2699 600.24 25.9502 592.176 20.5568 587.814L-40.8709 538.11L-40.8709 846.89L-40.8665 846.89Z" fill="#FFFBF1" stroke="#E5E3E3" stroke-width="3" stroke-miterlimit="10"/>
<path d="M-40.492 728.61L-3.76687 705.107C33.6488 681.163 56.6947 636.912 56.6947 589.025C56.6948 581.946 53.286 575.408 47.7614 571.872C36.2421 564.496 36.2421 546.059 47.7614 538.684C53.2933 535.148 56.6948 528.602 56.6948 521.53L56.6948 434.675C56.6948 425.214 61.2496 416.468 68.6402 411.741C78.8959 405.174 85.2138 393.044 85.2138 379.917L85.2138 365.146C85.2138 332.448 69.4777 302.234 43.9339 285.881C34.0823 279.574 28.0141 267.927 28.0141 255.32C28.0141 212.058 7.34108 172.037 -26.3205 150.142L-40.4993 140.92L-40.4993 728.61L-40.492 728.61Z" fill="#FFFBF1" stroke="#E5E3E3" stroke-width="3" stroke-miterlimit="10"/>
<path d="M6.51486 778.057C6.51486 771.331 8.56158 765.039 11.9831 761.246C16.7573 755.95 19.6138 747.172 19.6138 737.78L19.6138 695.725C19.6138 685.575 16.2812 676.197 10.8664 671.125L9.95424 670.273C5.86972 666.444 5.86972 656.864 9.95424 653.035L14.9375 648.36C17.8296 645.651 19.6138 640.637 19.6138 635.212C19.6138 626 22.6394 617.49 27.5515 612.887C29.794 610.785 31.1777 606.898 31.1777 602.693L31.1777 574.951C31.1777 568.839 29.1711 563.189 25.9097 560.133C22.012 556.485 19.6138 549.73 19.6138 542.425C19.6138 535.092 17.2067 528.323 13.2957 524.66L-15.198 497.95C-17.2002 496.072 -17.2002 491.376 -15.198 489.505C-9.26256 483.942 -5.60518 473.654 -5.60518 462.521L-5.60518 454.075C-5.60517 442.942 -9.26255 432.661 -15.198 427.091L-40.8708 403.019L-40.8709 769.54L-40.8709 857.182L-11.3404 828.847C-0.274865 818.234 6.51486 798.922 6.51486 778.057Z" fill="#FFFBF1" stroke="#E5E3E3" stroke-width="3" stroke-miterlimit="10"/>
<path d="M77.3593 1240.15L141.398 1131.83C143.929 1127.55 148.52 1124.93 153.487 1124.93C163.762 1124.93 173.248 1119.45 178.382 1110.55L202.683 1068.44C210.05 1055.69 223.658 1047.83 238.386 1047.83L247.518 1047.83C282.216 1047.83 314.283 1066.35 331.628 1096.41L344.05 1117.93C346.552 1122.26 351.179 1124.93 356.183 1124.93C366.406 1124.93 375.856 1130.39 380.968 1139.25L439.216 1240.15L77.3593 1240.15L77.3593 1240.15Z" fill="#FFFBF1" stroke="#E5E3E3" stroke-width="3" stroke-miterlimit="10"/>
<path d="M415.652 1128.42C422.383 1128.42 428.681 1125.09 432.476 1119.53C437.776 1111.77 446.561 1107.13 455.961 1107.13L498.048 1107.13C508.207 1107.13 517.592 1112.55 522.668 1121.35L523.521 1122.83C527.353 1129.47 536.94 1129.47 540.772 1122.83L545.45 1114.73C548.162 1110.03 553.18 1107.13 558.61 1107.13C567.828 1107.13 576.346 1102.21 580.951 1094.23C583.055 1090.58 586.945 1088.33 591.153 1088.33L618.918 1088.33C625.035 1088.33 630.689 1091.59 633.747 1096.9C637.399 1103.23 644.159 1107.13 651.469 1107.13C658.808 1107.13 665.582 1111.04 669.248 1117.4L695.979 1163.71C697.859 1166.97 702.558 1166.97 704.431 1163.71C709.998 1154.07 720.294 1148.12 731.436 1148.12L739.889 1148.12C751.031 1148.12 761.319 1154.07 766.894 1163.71L790.985 1205.44L424.176 1205.44L336.465 1205.44L364.822 1157.44C375.444 1139.46 394.77 1128.42 415.652 1128.42Z" fill="#FFFBF1" stroke="#E5E3E3" stroke-width="3" stroke-miterlimit="10"/>
<path d="M510.279 -46.9928L437.625 76.1637C431.722 86.1697 421.1 92.2893 409.64 92.2893L388.937 92.2893C385.054 92.2893 381.417 94.2435 379.231 97.5053C372.137 108.084 360.367 114.41 347.789 114.41L306.375 114.41C297.997 114.41 290.261 109.862 286.075 102.479C281.06 93.6337 268.511 93.6337 263.495 102.479C259.31 109.862 251.567 114.41 243.196 114.41C236.622 114.41 230.546 117.98 227.255 123.776C223.69 130.065 217.102 133.937 209.965 133.937L190.416 133.937C181.561 133.937 173.385 129.132 168.962 121.323C166.537 117.04 162.048 114.402 157.192 114.402C147.096 114.402 137.765 108.922 132.721 100.018L111.505 62.6095C107.825 56.1152 98.6169 56.1152 94.9366 62.6095C91.7036 68.303 85.7357 71.8146 79.2699 71.8146C57.6498 71.8146 37.6678 60.075 26.8578 41.0108L-23.0575 -47.0001L510.279 -47.0001L510.279 -46.9928Z" fill="#FFFBF1" stroke="#E5E3E3" stroke-width="3" stroke-miterlimit="10"/>
<path d="M582.328 29.9229L581.085 29.9229C575.109 29.9229 569.586 26.6793 566.593 21.4146C565.218 18.986 561.777 18.986 560.396 21.4146C558.367 24.9905 554.621 27.194 550.563 27.194L544.392 27.194C536.688 27.194 529.564 23.0283 525.68 16.2571L498.136 -31.8331L660.245 -31.8331L640.489 -1.71907C627.515 18.0478 605.694 29.9229 582.328 29.9229Z" fill="#FFFBF1" stroke="#E5E3E3" stroke-width="3" stroke-miterlimit="10"/>
<path d="M754.656 533.69L763.224 528.4L763.224 531.262L756.907 534.993L763.224 538.665L763.224 541.429L754.656 536.158L749.129 536.158L749.129 533.69L754.656 533.69ZM748.853 545.37C748.853 544.554 748.984 543.823 749.247 543.179C749.524 542.547 749.899 542.007 750.373 541.56C750.846 541.126 751.412 540.79 752.07 540.553C752.728 540.329 753.452 540.217 754.242 540.217C755.018 540.217 755.736 540.329 756.394 540.553C757.052 540.79 757.618 541.126 758.091 541.56C758.565 542.007 758.934 542.547 759.197 543.179C759.473 543.823 759.611 544.554 759.611 545.37C759.611 546.186 759.473 546.91 759.197 547.541C758.934 548.186 758.565 548.726 758.091 549.16C757.618 549.608 757.052 549.943 756.394 550.167C755.736 550.404 755.018 550.522 754.242 550.522C753.452 550.522 752.728 550.404 752.07 550.167C751.412 549.943 750.846 549.608 750.373 549.16C749.899 548.726 749.524 548.186 749.247 547.541C748.984 546.91 748.853 546.186 748.853 545.37ZM750.629 545.37C750.629 545.87 750.735 546.304 750.945 546.673C751.156 547.041 751.432 547.344 751.774 547.581C752.116 547.818 752.498 547.989 752.919 548.094C753.353 548.213 753.794 548.272 754.242 548.272C754.676 548.272 755.11 548.213 755.545 548.094C755.979 547.989 756.361 547.818 756.69 547.581C757.032 547.344 757.308 547.041 757.519 546.673C757.729 546.304 757.835 545.87 757.835 545.37C757.835 544.87 757.729 544.435 757.519 544.067C757.308 543.698 757.032 543.396 756.69 543.159C756.361 542.922 755.979 542.744 755.545 542.626C755.11 542.521 754.676 542.468 754.242 542.468C753.794 542.468 753.353 542.521 752.919 542.626C752.498 542.744 752.116 542.922 751.774 543.159C751.432 543.396 751.156 543.698 750.945 544.067C750.735 544.435 750.629 544.87 750.629 545.37ZM749.129 561.356L749.129 559.145L750.55 559.145L750.55 559.105C750.037 558.829 749.622 558.414 749.307 557.861C749.004 557.322 748.853 556.769 748.853 556.203C748.853 554.861 749.182 553.887 749.84 553.282C750.511 552.689 751.518 552.393 752.86 552.393L759.335 552.393L759.335 554.644L753.077 554.644C752.182 554.644 751.55 554.815 751.182 555.157C750.813 555.499 750.629 555.979 750.629 556.598C750.629 557.072 750.702 557.467 750.846 557.782C750.991 558.098 751.182 558.355 751.419 558.552C751.669 558.75 751.965 558.888 752.307 558.967C752.649 559.059 753.018 559.105 753.413 559.105L759.335 559.105L759.335 561.356L749.129 561.356ZM759.335 563.729L759.335 565.841L757.361 565.841L757.361 565.881C757.637 565.946 757.907 566.071 758.17 566.256C758.433 566.453 758.67 566.683 758.881 566.947C759.105 567.223 759.282 567.526 759.414 567.855C759.546 568.184 759.611 568.519 759.611 568.862C759.611 569.125 759.605 569.302 759.592 569.395C759.578 569.5 759.565 569.605 759.552 569.71L757.381 569.71C757.407 569.552 757.427 569.388 757.44 569.217C757.466 569.059 757.479 568.901 757.479 568.743C757.479 568.361 757.4 567.999 757.242 567.657C757.098 567.328 756.874 567.039 756.571 566.789C756.282 566.539 755.92 566.341 755.486 566.196C755.051 566.052 754.551 565.979 753.985 565.979L749.129 565.979L749.129 563.729L759.335 563.729ZM759.335 575.236L759.335 577.624L751.715 579.618L751.715 579.658L759.335 581.572L759.335 583.843L751.715 585.679L751.715 585.718L759.335 587.791L759.335 590.081L749.129 586.883L749.129 584.573L756.709 582.678L756.709 582.638L749.129 580.763L749.129 578.394L759.335 575.236ZM748.853 596.207C748.853 595.391 748.984 594.66 749.247 594.016C749.524 593.384 749.899 592.844 750.373 592.397C750.846 591.962 751.412 591.627 752.07 591.39C752.728 591.166 753.452 591.054 754.242 591.054C755.018 591.054 755.736 591.166 756.394 591.39C757.052 591.627 757.618 591.962 758.091 592.397C758.565 592.844 758.934 593.384 759.197 594.016C759.473 594.66 759.611 595.391 759.611 596.207C759.611 597.023 759.473 597.747 759.197 598.378C758.934 599.023 758.565 599.563 758.091 599.997C757.618 600.445 757.052 600.78 756.394 601.004C755.736 601.241 755.018 601.359 754.242 601.359C753.452 601.359 752.728 601.241 752.07 601.004C751.412 600.78 750.846 600.445 750.373 599.997C749.899 599.563 749.524 599.023 749.247 598.378C748.984 597.747 748.853 597.023 748.853 596.207ZM750.629 596.207C750.629 596.707 750.735 597.141 750.945 597.51C751.156 597.878 751.432 598.181 751.774 598.418C752.116 598.655 752.498 598.826 752.919 598.931C753.353 599.05 753.794 599.109 754.242 599.109C754.676 599.109 755.11 599.05 755.545 598.931C755.979 598.826 756.361 598.655 756.69 598.418C757.032 598.181 757.308 597.878 757.519 597.51C757.729 597.141 757.835 596.707 757.835 596.207C757.835 595.707 757.729 595.272 757.519 594.904C757.308 594.535 757.032 594.233 756.69 593.996C756.361 593.759 755.979 593.581 755.545 593.463C755.11 593.358 754.676 593.305 754.242 593.305C753.794 593.305 753.353 593.358 752.919 593.463C752.498 593.581 752.116 593.759 751.774 593.996C751.432 594.233 751.156 594.535 750.945 594.904C750.735 595.272 750.629 595.707 750.629 596.207ZM759.335 603.23L759.335 605.342L757.361 605.342L757.361 605.382C757.637 605.448 757.907 605.573 758.17 605.757C758.433 605.954 758.67 606.185 758.881 606.448C759.105 606.724 759.282 607.027 759.414 607.356C759.546 607.685 759.611 608.021 759.611 608.363C759.611 608.626 759.605 608.804 759.592 608.896C759.578 609.001 759.565 609.106 759.552 609.212L757.381 609.212C757.407 609.054 757.427 608.889 757.44 608.718C757.466 608.56 757.479 608.402 757.479 608.244C757.479 607.863 757.4 607.501 757.242 607.159C757.098 606.83 756.874 606.54 756.571 606.29C756.282 606.04 755.92 605.843 755.486 605.698C755.051 605.553 754.551 605.481 753.985 605.481L749.129 605.481L749.129 603.23L759.335 603.23ZM763.224 610.23L763.224 612.48L749.129 612.48L749.129 610.23L763.224 610.23ZM749.129 624.546L749.129 622.414L750.511 622.414L750.511 622.374C749.919 622.072 749.491 621.631 749.228 621.052C748.978 620.473 748.853 619.861 748.853 619.216C748.853 618.413 748.991 617.709 749.267 617.104C749.557 616.511 749.945 616.018 750.432 615.623C750.919 615.228 751.491 614.932 752.149 614.735C752.82 614.537 753.538 614.439 754.301 614.439C755.222 614.439 756.019 614.564 756.69 614.814C757.361 615.064 757.914 615.393 758.348 615.801C758.782 616.222 759.098 616.696 759.296 617.222C759.506 617.762 759.611 618.308 759.611 618.861C759.611 619.176 759.578 619.499 759.513 619.828C759.46 620.157 759.368 620.473 759.236 620.775C759.105 621.078 758.934 621.354 758.723 621.605C758.526 621.868 758.289 622.085 758.012 622.256L758.012 622.295L763.224 622.295L763.224 624.546L749.129 624.546ZM754.123 616.689C753.689 616.689 753.261 616.742 752.84 616.847C752.419 616.965 752.044 617.136 751.715 617.36C751.386 617.597 751.123 617.893 750.925 618.249C750.728 618.604 750.629 619.025 750.629 619.512C750.629 620.012 750.734 620.44 750.945 620.795C751.156 621.164 751.432 621.46 751.774 621.684C752.116 621.92 752.498 622.091 752.919 622.197C753.353 622.315 753.794 622.374 754.242 622.374C755.374 622.374 756.255 622.118 756.887 621.605C757.519 621.104 757.835 620.42 757.835 619.551C757.835 619.025 757.723 618.578 757.499 618.209C757.289 617.854 757.006 617.558 756.65 617.321C756.308 617.097 755.913 616.933 755.466 616.827C755.031 616.735 754.584 616.689 754.123 616.689Z" fill="#E5E3E3"/>
<path d="M874.993 17.0234L753.751 89.8184C743.9 95.7329 737.876 106.376 737.876 117.858L737.876 138.602C737.876 142.491 735.952 146.136 732.741 148.326C722.326 155.434 716.099 167.226 716.099 179.829L716.099 221.324C716.099 229.718 720.576 237.469 727.845 241.663C736.552 246.688 736.552 259.261 727.845 264.286C720.576 268.48 716.099 276.238 716.099 284.625C716.099 291.212 712.585 297.3 706.878 300.597C700.687 304.169 696.876 310.77 696.876 317.921L696.876 337.508C696.876 346.38 701.606 354.572 709.294 359.004C713.51 361.433 716.107 365.93 716.107 370.796C716.107 380.912 721.502 390.26 730.267 395.314L767.094 416.572C773.488 420.259 773.488 429.485 767.094 433.173C761.489 436.412 758.032 442.391 758.032 448.87C758.032 470.532 769.589 490.552 788.357 501.384L875 551.396L875 17.0234L874.993 17.0234Z" fill="#FFFBF1" stroke="#E5E3E3" stroke-width="3" stroke-miterlimit="10"/>
<path d="M770.04 1126.87L733.886 1103.32C697.052 1079.33 674.364 1035 674.364 987.018C674.364 979.925 677.72 973.374 683.158 969.831C694.499 962.442 694.499 943.968 683.158 936.579C677.712 933.036 674.364 926.478 674.364 919.392L674.364 832.368C674.364 822.889 669.88 814.126 662.604 809.39C652.508 802.811 646.288 790.656 646.288 777.504L646.288 762.704C646.288 729.943 661.78 699.67 686.926 683.286C696.625 676.967 702.599 665.297 702.599 652.665C702.599 609.32 722.95 569.22 756.089 547.283L770.047 538.043L770.047 1126.87L770.04 1126.87Z" fill="#FFFBF1" stroke="#E5E3E3" stroke-width="3" stroke-miterlimit="10"/>
<path d="M694.73 578.431L694.73 576.725C694.73 568.526 699.106 560.948 706.208 556.841C709.484 554.954 709.484 550.233 706.208 548.339C701.384 545.555 698.412 540.414 698.412 534.847L698.412 526.38C698.412 515.809 704.031 506.034 713.166 500.705L778.039 462.912L778.039 685.339L737.415 658.232C710.75 640.431 694.73 610.49 694.73 578.431Z" fill="#FFFBF1" stroke="#E5E3E3" stroke-width="3" stroke-miterlimit="10"/>
<path d="M742.312 754.899C742.312 761.618 738.933 767.903 733.284 771.692C725.401 776.981 720.684 785.749 720.684 795.13L720.684 837.137C720.684 847.275 726.187 856.642 735.128 861.708L736.634 862.56C743.378 866.384 743.378 875.953 736.634 879.778L728.406 884.447C723.63 887.153 720.684 892.161 720.684 897.58C720.684 906.781 715.689 915.282 707.578 919.879C703.876 921.979 701.591 925.861 701.591 930.061L701.591 957.772C701.591 963.877 704.904 969.52 710.289 972.572C716.725 976.217 720.684 982.964 720.684 990.26C720.684 997.584 724.659 1004.35 731.116 1008L778.163 1034.68C781.469 1036.56 781.469 1041.25 778.163 1043.12C768.363 1048.68 762.324 1058.95 762.324 1070.07L762.324 1078.51C762.324 1089.63 768.363 1099.9 778.163 1105.46L820.553 1129.51L820.553 763.407L820.553 675.866L771.794 704.169C753.523 714.769 742.312 734.059 742.312 754.899Z" fill="#FFFBF1" stroke="#E5E3E3" stroke-width="3" stroke-miterlimit="10"/>
<path d="M765.64 1124.86L765.64 1126.56C765.64 1134.74 770.084 1142.31 777.299 1146.41C780.626 1148.29 780.626 1153 777.299 1154.89C772.398 1157.67 769.379 1162.8 769.379 1168.36L769.379 1176.81C769.379 1187.36 775.087 1197.11 784.366 1202.43L850.264 1240.15L850.264 1018.16L808.999 1045.21C781.912 1062.98 765.64 1092.86 765.64 1124.86Z" fill="#FFFBF1" stroke="#E5E3E3" stroke-width="3" stroke-miterlimit="10"/>
<path d="M850.549 379.429L784.609 434.075C782.007 436.235 780.408 440.152 780.408 444.391C780.408 453.158 777.071 461.253 771.656 465.634L746.023 486.37C738.26 492.657 733.475 504.269 733.475 516.837L733.475 524.629C733.475 554.238 744.746 581.601 763.048 596.402L776.146 607.002C778.784 609.137 780.413 613.086 780.413 617.355C780.413 626.079 783.732 634.143 789.126 638.505L850.554 688.209L850.554 379.429L850.549 379.429Z" fill="#FFFBF1" stroke="#E5E3E3" stroke-width="3" stroke-miterlimit="10"/>
<path d="M850.175 497.709L813.449 521.213C776.034 545.157 752.988 589.407 752.988 637.295C752.988 644.374 756.397 650.912 761.921 654.448C773.44 661.823 773.44 680.261 761.921 687.636C756.389 691.172 752.988 697.717 752.988 704.789L752.988 791.645C752.988 801.105 748.433 809.851 741.042 814.578C730.787 821.145 724.469 833.275 724.469 846.402L724.469 861.174C724.469 893.871 740.205 924.086 765.749 940.438C775.6 946.745 781.669 958.392 781.669 970.999C781.669 1014.26 802.342 1054.28 836.003 1076.18L850.182 1085.4L850.182 497.709L850.175 497.709Z" fill="#FFFBF1" stroke="#E5E3E3" stroke-width="3" stroke-miterlimit="10"/>
<path d="M803.168 448.262C803.168 454.988 801.121 461.281 797.699 465.074C792.925 470.369 790.069 479.147 790.069 488.539L790.069 530.594C790.069 540.745 793.401 550.122 798.816 555.194L799.728 556.046C803.813 559.876 803.813 569.455 799.728 573.284L794.745 577.959C791.853 580.668 790.069 585.682 790.069 591.108C790.069 600.319 787.043 608.83 782.131 613.432C779.889 615.534 778.505 619.421 778.505 623.626L778.505 651.369C778.505 657.481 780.512 663.13 783.773 666.186C787.671 669.835 790.069 676.59 790.069 683.894C790.069 691.227 792.476 697.996 796.387 701.659L824.881 728.369C826.883 730.247 826.883 734.943 824.881 736.814C818.945 742.377 815.288 752.665 815.288 763.799L815.288 772.244C815.288 783.377 818.945 793.658 824.881 799.228L850.553 823.301L850.553 456.78L850.553 369.138L821.023 397.473C809.957 408.086 803.168 427.397 803.168 448.262Z" fill="#FFFBF1" stroke="#E5E3E3" stroke-width="3" stroke-miterlimit="10"/>
</g>
<defs>
<clipPath id="clip0">
<rect width="834" height="1194" fill="white"/>
</clipPath>
</defs>
</svg>
