<svg width="1292" height="920" viewBox="0 0 1292 920" fill="none" xmlns="http://www.w3.org/2000/svg">
<path d="M546.489 150.551L619.284 271.793C625.199 281.644 635.842 287.668 647.324 287.668L668.067 287.668C671.957 287.668 675.601 289.592 677.792 292.803C684.9 303.218 696.692 309.445 709.295 309.445L750.79 309.445C759.184 309.445 766.935 304.968 771.128 297.699C776.154 288.992 788.727 288.992 793.752 297.699C797.946 304.968 805.704 309.445 814.091 309.445C820.678 309.445 826.766 312.959 830.063 318.666C833.635 324.857 840.236 328.668 847.387 328.668L866.974 328.668C875.845 328.668 884.037 323.938 888.47 316.25C890.899 312.034 895.396 309.437 900.262 309.437C910.378 309.437 919.726 304.042 924.78 295.277L946.037 258.45C949.725 252.056 958.951 252.056 962.638 258.45C965.878 264.055 971.857 267.512 978.335 267.512C999.998 267.512 1020.02 255.955 1030.85 237.187L1080.86 150.544L546.489 150.544L546.489 150.551Z" fill="#FFFBF1" stroke="#E5E3E3" stroke-width="3" stroke-miterlimit="10"/>
<path d="M904.428 220.285C897.696 220.285 891.399 223.612 887.603 229.174C882.303 236.934 873.518 241.577 864.119 241.577L822.031 241.577C811.872 241.577 802.487 236.16 797.411 227.359L796.558 225.876C792.726 219.237 783.139 219.237 779.307 225.876L774.629 233.976C771.917 238.677 766.899 241.577 761.469 241.577C752.251 241.577 743.733 246.495 739.128 254.48C737.024 258.125 733.134 260.374 728.926 260.374L701.161 260.374C695.044 260.374 689.39 257.112 686.332 251.811C682.68 245.476 675.92 241.577 668.61 241.577C661.271 241.577 654.497 237.665 650.831 231.307L624.1 184.992C622.22 181.737 617.521 181.737 615.648 184.992C610.081 194.64 599.785 200.585 588.643 200.585L580.191 200.585C569.049 200.585 558.76 194.64 553.185 184.992L529.094 143.262L895.903 143.262L983.614 143.262L955.257 191.262C944.636 209.249 925.309 220.285 904.428 220.285Z" fill="#FFFBF1" stroke="#E5E3E3" stroke-width="3" stroke-miterlimit="10"/>
<path d="M1146.34 77.5047L1122.79 113.659C1098.8 150.493 1054.46 173.181 1006.48 173.181C999.391 173.181 992.84 169.825 989.297 164.386C981.908 153.046 963.434 153.046 956.045 164.386C952.502 169.832 945.944 173.181 938.858 173.181L851.834 173.181C842.355 173.181 833.592 177.665 828.856 184.94C822.276 195.037 810.122 201.256 796.97 201.256L782.17 201.256C749.409 201.256 719.136 185.765 702.752 160.618C696.432 150.92 684.763 144.946 672.131 144.946C628.785 144.946 588.686 124.594 566.749 91.4558L557.509 77.4974L1146.34 77.4975L1146.34 77.5047Z" fill="#FFFBF1" stroke="#E5E3E3" stroke-width="3" stroke-miterlimit="10"/>
<path d="M597.897 160.814L596.191 160.814C587.991 160.814 580.414 156.438 576.307 149.336C574.42 146.06 569.699 146.06 567.804 149.336C565.021 154.16 559.88 157.133 554.313 157.133L545.846 157.133C535.275 157.133 525.5 151.513 520.171 142.379L482.378 77.5052L704.805 77.5053L677.698 118.129C659.897 144.794 629.956 160.814 597.897 160.814Z" fill="#FFFBF1" stroke="#E5E3E3" stroke-width="3" stroke-miterlimit="10"/>
<path d="M596.97 2.47893L524.316 125.635C518.413 135.641 507.79 141.761 496.331 141.761L475.627 141.761C471.745 141.761 468.108 143.715 465.921 146.977C458.828 157.556 447.058 163.881 434.48 163.881L393.065 163.881C384.687 163.881 376.951 159.334 372.766 151.951C367.75 143.105 355.201 143.105 350.186 151.951C346 159.334 338.257 163.881 329.886 163.881C323.312 163.881 317.236 167.452 313.945 173.248C310.381 179.537 303.792 183.408 296.655 183.408L277.106 183.408C268.252 183.408 260.076 178.604 255.652 170.794C253.227 166.511 248.739 163.874 243.882 163.874C233.787 163.874 224.456 158.393 219.412 149.489L198.196 112.081C194.515 105.587 185.307 105.587 181.627 112.081C178.394 117.775 172.426 121.286 165.96 121.286C144.34 121.286 124.358 109.547 113.548 90.4824L63.633 2.47151L596.97 2.47156L596.97 2.47893Z" fill="#FFFBF1" stroke="#E5E3E3" stroke-width="3" stroke-miterlimit="10"/>
<path d="M771.732 118.241C778.451 118.241 784.736 121.621 788.525 127.27C793.814 135.153 802.582 139.869 811.963 139.869L853.97 139.869C864.108 139.869 873.475 134.367 878.541 125.426L879.393 123.92C883.217 117.176 892.786 117.176 896.611 123.92L901.28 132.148C903.986 136.923 908.994 139.869 914.413 139.869C923.614 139.869 932.115 144.865 936.712 152.975C938.812 156.678 942.694 158.963 946.894 158.963L974.605 158.963C980.71 158.963 986.353 155.65 989.405 150.265C993.05 143.829 999.797 139.869 1007.09 139.869C1014.42 139.869 1021.18 135.895 1024.84 129.437L1051.52 82.3904C1053.39 79.0845 1058.08 79.0845 1059.95 82.3904C1065.51 92.1906 1075.78 98.2295 1086.91 98.2295L1095.34 98.2295C1106.46 98.2295 1116.73 92.1906 1122.29 82.3904L1146.34 40.0012L780.24 40.0012L692.699 40.0012L721.002 88.7598C731.602 107.031 750.892 118.241 771.732 118.241Z" fill="#FFFBF1" stroke="#E5E3E3" stroke-width="3" stroke-miterlimit="10"/>
<path d="M1141.69 86.9145L1143.39 86.9145C1151.58 86.9145 1159.14 82.4699 1163.24 75.2557C1165.12 71.9277 1169.83 71.9277 1171.72 75.2557C1174.5 80.1558 1179.63 83.1752 1185.19 83.1752L1193.64 83.1752C1204.19 83.1752 1213.95 77.467 1219.27 68.1884L1256.99 2.29036L1034.99 2.29034L1062.04 43.5556C1079.81 70.6421 1109.69 86.9145 1141.69 86.9145Z" fill="#FFFBF1" stroke="#E5E3E3" stroke-width="3" stroke-miterlimit="10"/>
<path d="M318.347 63.7559L317.103 63.7559C311.128 63.7559 305.605 60.5123 302.612 55.2476C301.237 52.819 297.795 52.819 296.415 55.2476C294.386 58.8235 290.639 61.027 286.582 61.027L280.411 61.027C272.707 61.027 265.582 56.8613 261.699 50.0901L234.154 1.99994L396.264 1.99996L376.508 32.1139C363.534 51.8808 341.712 63.7559 318.347 63.7559Z" fill="#FFFBF1" stroke="#E5E3E3" stroke-width="3" stroke-miterlimit="10"/>
<path d="M396.262 2.00456L450.908 67.9451C453.068 70.5472 456.985 72.1454 461.224 72.1454C469.991 72.1454 478.086 75.4827 482.467 80.8981L503.203 106.531C509.49 114.293 521.102 119.079 533.67 119.079L541.462 119.079C571.071 119.079 598.434 107.808 613.235 89.5056L623.835 76.4073C625.97 73.77 629.919 72.141 634.188 72.141C642.912 72.141 650.976 68.8213 655.338 63.4279L705.042 2.00018L396.262 2.00016L396.262 2.00456Z" fill="#FFFBF1" stroke="#E5E3E3" stroke-width="3" stroke-miterlimit="10"/>
<path d="M514.542 2.37914L538.046 39.1042C561.99 76.5199 606.24 99.5658 654.128 99.5658C661.207 99.5658 667.745 96.1571 671.281 90.6325C678.656 79.1132 697.094 79.1132 704.469 90.6325C708.005 96.1644 714.55 99.5659 721.622 99.5659L808.478 99.5659C817.938 99.5659 826.684 104.121 831.411 111.511C837.978 121.767 850.109 128.085 863.235 128.085L878.007 128.085C910.704 128.085 940.919 112.349 957.271 86.805C963.578 76.9534 975.225 70.8852 987.832 70.8852C1031.09 70.8852 1071.12 50.2122 1093.01 16.5506L1102.23 2.37183L514.542 2.37178L514.542 2.37914Z" fill="#FFFBF1" stroke="#E5E3E3" stroke-width="3" stroke-miterlimit="10"/>
<path d="M465.095 49.386C471.821 49.386 478.114 51.4327 481.907 54.8542C487.202 59.6284 495.98 62.4849 505.372 62.4849L547.427 62.4849C557.578 62.4849 566.955 59.1523 572.027 53.7375L572.879 52.8253C576.709 48.7408 586.288 48.7408 590.117 52.8253L594.792 57.8086C597.501 60.7007 602.515 62.4849 607.941 62.4849C617.152 62.4849 625.663 65.5105 630.265 70.4226C632.367 72.6651 636.254 74.0488 640.459 74.0488L668.202 74.0488C674.314 74.0488 679.963 72.0422 683.019 68.7808C686.668 64.8831 693.423 62.4849 700.727 62.4849C708.06 62.4849 714.829 60.0778 718.492 56.1668L745.202 27.6731C747.08 25.6709 751.776 25.6709 753.647 27.6731C759.21 33.6085 769.498 37.2659 780.632 37.2659L789.077 37.2659C800.21 37.2659 810.491 33.6085 816.061 27.6731L840.134 2.00027L473.613 2.00023L385.971 2.00023L414.306 31.5307C424.919 42.5962 444.23 49.386 465.095 49.386Z" fill="#FFFBF1" stroke="#E5E3E3" stroke-width="3" stroke-miterlimit="10"/>
<path d="M3.00757 120.23L111.326 184.269C115.6 186.8 118.225 191.391 118.225 196.359C118.225 206.633 123.707 216.119 132.603 221.253L174.709 245.554C187.46 252.921 195.321 266.529 195.321 281.257L195.321 290.389C195.321 325.087 176.807 357.154 146.742 374.5L125.226 386.921C120.894 389.423 118.218 394.05 118.218 399.054C118.218 409.277 112.765 418.727 103.905 423.839L3.00029 482.087L3.00034 120.23L3.00757 120.23Z" fill="#FFFBF1" stroke="#E5E3E3" stroke-width="3" stroke-miterlimit="10"/>
<path d="M114.732 458.523C114.732 465.254 118.059 471.552 123.62 475.348C131.381 480.647 136.024 489.432 136.024 498.832L136.024 540.919C136.024 551.078 130.607 560.463 121.805 565.539L120.322 566.392C113.683 570.224 113.683 579.811 120.322 583.644L128.422 588.322C133.123 591.033 136.024 596.051 136.024 601.481C136.024 610.699 140.942 619.217 148.926 623.822C152.571 625.927 154.82 629.816 154.82 634.024L154.82 661.789C154.82 667.906 151.559 673.56 146.257 676.618C139.922 680.27 136.024 687.03 136.024 694.34C136.024 701.679 132.111 708.454 125.754 712.119L79.4382 738.85C76.1836 740.73 76.1836 745.429 79.4382 747.302C89.086 752.869 95.031 763.165 95.031 774.307L95.031 782.76C95.031 793.902 89.086 804.19 79.4382 809.765L37.7079 833.856L37.7079 467.047L37.7079 379.336L85.7086 407.693C103.695 418.315 114.732 437.641 114.732 458.523Z" fill="#FFFBF1" stroke="#E5E3E3" stroke-width="3" stroke-miterlimit="10"/>
<path d="M1290.15 553.15L1166.99 480.496C1156.98 474.593 1150.86 463.971 1150.86 452.512L1150.86 431.808C1150.86 427.926 1148.91 424.288 1145.65 422.102C1135.07 415.008 1128.74 403.238 1128.74 390.66L1128.74 349.246C1128.74 340.868 1133.29 333.132 1140.67 328.946C1149.52 323.931 1149.52 311.382 1140.67 306.367C1133.29 302.181 1128.74 294.438 1128.74 286.067C1128.74 279.493 1125.17 273.417 1119.38 270.126C1113.09 266.561 1109.22 259.973 1109.22 252.836L1109.22 233.287C1109.22 224.432 1114.02 216.256 1121.83 211.833C1126.11 209.408 1128.75 204.919 1128.75 200.063C1128.75 189.967 1134.23 180.637 1143.13 175.592L1180.54 154.376C1187.04 150.696 1187.04 141.488 1180.54 137.808C1174.85 134.575 1171.34 128.607 1171.34 122.141C1171.34 100.521 1183.08 80.5389 1202.14 69.7288L1290.15 19.8136L1290.15 553.15L1290.15 553.15Z" fill="#FFFBF1" stroke="#E5E3E3" stroke-width="3" stroke-miterlimit="10"/>
<path d="M1213.23 625.2L1213.23 623.956C1213.23 617.98 1216.47 612.458 1221.74 609.464C1224.17 608.089 1224.17 604.648 1221.74 603.267C1218.16 601.239 1215.96 597.492 1215.96 593.434L1215.96 587.264C1215.96 579.559 1220.12 572.435 1226.9 568.551L1274.99 541.007L1274.99 703.116L1244.87 683.36C1225.1 670.387 1213.23 648.565 1213.23 625.2Z" fill="#FFFBF1" stroke="#E5E3E3" stroke-width="3" stroke-miterlimit="10"/>
<path d="M709.462 797.528L714.753 806.096L711.89 806.096L708.159 799.778L704.487 806.096L701.724 806.096L706.994 797.528L706.994 792L709.462 792L709.462 797.528ZM697.782 791.724C698.598 791.724 699.329 791.856 699.974 792.119C700.605 792.395 701.145 792.77 701.592 793.244C702.027 793.718 702.362 794.284 702.599 794.942C702.823 795.6 702.935 796.324 702.935 797.113C702.935 797.89 702.823 798.607 702.599 799.265C702.362 799.923 702.027 800.489 701.592 800.963C701.145 801.437 700.605 801.805 699.974 802.068C699.329 802.345 698.598 802.483 697.782 802.483C696.967 802.483 696.243 802.345 695.611 802.068C694.966 801.805 694.427 801.437 693.992 800.963C693.545 800.489 693.209 799.923 692.985 799.265C692.749 798.607 692.63 797.89 692.63 797.113C692.63 796.324 692.749 795.6 692.985 794.942C693.209 794.284 693.545 793.718 693.992 793.244C694.427 792.77 694.966 792.395 695.611 792.119C696.243 791.856 696.967 791.724 697.782 791.724ZM697.782 793.501C697.282 793.501 696.848 793.606 696.48 793.817C696.111 794.027 695.808 794.304 695.571 794.646C695.335 794.988 695.164 795.37 695.058 795.791C694.94 796.225 694.881 796.666 694.881 797.113C694.881 797.548 694.94 797.982 695.058 798.416C695.164 798.851 695.335 799.232 695.571 799.561C695.808 799.903 696.111 800.18 696.48 800.39C696.848 800.601 697.282 800.706 697.782 800.706C698.283 800.706 698.717 800.601 699.085 800.39C699.454 800.18 699.757 799.903 699.993 799.561C700.23 799.232 700.408 798.851 700.526 798.416C700.632 797.982 700.684 797.548 700.684 797.113C700.684 796.666 700.632 796.225 700.526 795.791C700.408 795.37 700.23 794.988 699.993 794.646C699.757 794.304 699.454 794.027 699.085 793.817C698.717 793.606 698.283 793.501 697.782 793.501ZM681.797 792L684.008 792L684.008 793.422L684.047 793.422C684.324 792.909 684.738 792.494 685.291 792.178C685.83 791.875 686.383 791.724 686.949 791.724C688.292 791.724 689.265 792.053 689.871 792.711C690.463 793.382 690.759 794.389 690.759 795.732L690.759 802.207L688.509 802.207L688.509 795.949C688.509 795.054 688.338 794.422 687.995 794.054C687.653 793.685 687.173 793.501 686.554 793.501C686.081 793.501 685.686 793.573 685.37 793.718C685.054 793.863 684.797 794.054 684.6 794.29C684.403 794.54 684.264 794.837 684.185 795.179C684.093 795.521 684.047 795.889 684.047 796.284L684.047 802.207L681.797 802.207L681.797 792ZM679.424 802.207L677.311 802.207L677.311 800.232L677.272 800.232C677.206 800.509 677.081 800.779 676.897 801.042C676.699 801.305 676.469 801.542 676.206 801.753C675.929 801.976 675.627 802.154 675.298 802.286C674.969 802.417 674.633 802.483 674.291 802.483C674.028 802.483 673.85 802.476 673.758 802.463C673.653 802.45 673.547 802.437 673.442 802.424L673.442 800.252C673.6 800.279 673.764 800.298 673.936 800.311C674.093 800.338 674.251 800.351 674.409 800.351C674.791 800.351 675.153 800.272 675.495 800.114C675.824 799.969 676.114 799.746 676.364 799.443C676.614 799.153 676.811 798.791 676.956 798.357C677.101 797.923 677.173 797.423 677.173 796.857L677.173 792L679.424 792L679.424 802.207ZM667.917 802.207L665.528 802.207L663.534 794.587L663.495 794.587L661.58 802.207L659.31 802.207L657.474 794.587L657.434 794.587L655.362 802.207L653.072 802.207L656.27 792L658.579 792L660.474 799.581L660.514 799.581L662.389 792L664.758 792L667.917 802.207ZM646.946 791.724C647.761 791.724 648.492 791.856 649.137 792.119C649.768 792.395 650.308 792.77 650.756 793.244C651.19 793.718 651.525 794.284 651.762 794.942C651.986 795.6 652.098 796.324 652.098 797.113C652.098 797.89 651.986 798.607 651.762 799.265C651.525 799.923 651.19 800.489 650.756 800.963C650.308 801.437 649.768 801.805 649.137 802.068C648.492 802.345 647.761 802.483 646.946 802.483C646.13 802.483 645.406 802.345 644.774 802.068C644.129 801.805 643.59 801.437 643.155 800.963C642.708 800.489 642.372 799.923 642.148 799.265C641.912 798.607 641.793 797.89 641.793 797.113C641.793 796.324 641.912 795.6 642.148 794.942C642.372 794.284 642.708 793.718 643.155 793.244C643.59 792.77 644.129 792.395 644.774 792.119C645.406 791.856 646.13 791.724 646.946 791.724ZM646.946 793.501C646.445 793.501 646.011 793.606 645.643 793.817C645.274 794.027 644.971 794.304 644.735 794.646C644.498 794.988 644.327 795.37 644.221 795.791C644.103 796.225 644.044 796.666 644.044 797.113C644.044 797.548 644.103 797.982 644.221 798.416C644.327 798.851 644.498 799.232 644.735 799.561C644.971 799.903 645.274 800.18 645.643 800.39C646.011 800.601 646.445 800.706 646.946 800.706C647.446 800.706 647.88 800.601 648.248 800.39C648.617 800.18 648.92 799.903 649.157 799.561C649.393 799.232 649.571 798.851 649.69 798.416C649.795 797.982 649.847 797.548 649.847 797.113C649.847 796.666 649.795 796.225 649.69 795.791C649.571 795.37 649.393 794.988 649.157 794.646C648.92 794.304 648.617 794.027 648.248 793.817C647.88 793.606 647.446 793.501 646.946 793.501ZM639.922 802.207L637.81 802.207L637.81 800.232L637.77 800.232C637.705 800.509 637.58 800.779 637.395 801.042C637.198 801.305 636.968 801.542 636.704 801.753C636.428 801.976 636.125 802.154 635.796 802.286C635.467 802.417 635.132 802.483 634.79 802.483C634.526 802.483 634.349 802.476 634.257 802.463C634.151 802.45 634.046 802.437 633.941 802.424L633.941 800.252C634.099 800.279 634.263 800.298 634.434 800.311C634.592 800.338 634.75 800.351 634.908 800.351C635.29 800.351 635.652 800.272 635.994 800.114C636.323 799.969 636.612 799.746 636.862 799.443C637.112 799.153 637.31 798.791 637.455 798.357C637.599 797.923 637.672 797.423 637.672 796.857L637.672 792L639.922 792L639.922 802.207ZM632.923 806.096L630.672 806.096L630.672 792L632.923 792L632.923 806.096ZM618.606 792L620.738 792L620.738 793.382L620.778 793.382C621.081 792.79 621.521 792.362 622.101 792.099C622.68 791.849 623.292 791.724 623.936 791.724C624.739 791.724 625.443 791.862 626.049 792.139C626.641 792.428 627.135 792.816 627.529 793.303C627.924 793.79 628.22 794.363 628.418 795.021C628.615 795.692 628.714 796.409 628.714 797.173C628.714 798.094 628.589 798.89 628.339 799.561C628.089 800.232 627.76 800.785 627.352 801.22C626.931 801.654 626.457 801.97 625.93 802.167C625.391 802.378 624.845 802.483 624.292 802.483C623.976 802.483 623.654 802.45 623.324 802.384C622.995 802.332 622.68 802.239 622.377 802.108C622.074 801.976 621.798 801.805 621.548 801.595C621.285 801.397 621.067 801.16 620.896 800.884L620.857 800.884L620.857 806.096L618.606 806.096L618.606 792ZM626.463 796.995C626.463 796.561 626.411 796.133 626.305 795.712C626.187 795.291 626.016 794.916 625.792 794.587C625.555 794.258 625.259 793.994 624.904 793.797C624.548 793.6 624.127 793.501 623.64 793.501C623.14 793.501 622.713 793.606 622.357 793.817C621.989 794.027 621.693 794.304 621.469 794.646C621.232 794.988 621.061 795.37 620.956 795.791C620.837 796.225 620.778 796.666 620.778 797.113C620.778 798.245 621.035 799.127 621.548 799.759C622.048 800.39 622.732 800.706 623.601 800.706C624.127 800.706 624.575 800.594 624.943 800.371C625.299 800.16 625.595 799.877 625.832 799.522C626.055 799.18 626.22 798.785 626.325 798.337C626.417 797.903 626.463 797.456 626.463 796.995Z" fill="#E5E3E3"/>
<path d="M1226.13 917.864L1153.33 796.622C1147.42 786.771 1136.78 780.747 1125.29 780.747H1104.55C1100.66 780.747 1097.02 778.823 1094.83 775.612C1087.72 765.197 1075.93 758.97 1063.32 758.97H1021.83C1013.43 758.97 1005.68 763.447 1001.49 770.716C996.465 779.423 983.891 779.423 978.866 770.716C974.672 763.447 966.914 758.97 958.527 758.97C951.94 758.97 945.852 755.456 942.555 749.749C938.983 743.558 932.382 739.747 925.231 739.747H905.644C896.773 739.747 888.581 744.477 884.149 752.165C881.719 756.381 877.222 758.978 872.356 758.978C862.241 758.978 852.892 764.373 847.838 773.139L826.581 809.965C822.893 816.359 813.667 816.359 809.98 809.965C806.741 804.36 800.761 800.903 794.283 800.903C772.621 800.903 752.6 812.46 741.769 831.228L691.757 917.871H1226.13V917.864Z" fill="#FFFBF1" stroke="#E5E3E3" stroke-width="3" stroke-miterlimit="10"/>
<path d="M116.278 812.911L139.827 776.757C163.818 739.923 208.154 717.235 256.135 717.235C263.228 717.235 269.778 720.591 273.321 726.029C280.71 737.37 299.184 737.37 306.573 726.029C310.116 720.583 316.674 717.235 323.76 717.235H410.784C420.263 717.235 429.026 712.751 433.762 705.475C440.342 695.379 452.496 689.159 465.648 689.159H480.448C513.209 689.159 543.482 704.651 559.866 729.797C566.186 739.496 577.856 745.47 590.487 745.47C633.833 745.47 673.932 765.821 695.869 798.96L705.109 812.918H116.278V812.911Z" fill="#FFFBF1" stroke="#E5E3E3" stroke-width="3" stroke-miterlimit="10"/>
<path d="M664.721 737.602H666.428C674.627 737.602 682.204 741.977 686.311 749.079C688.198 752.355 692.919 752.355 694.814 749.079C697.598 744.255 702.738 741.283 708.306 741.283H716.772C727.343 741.283 737.119 746.902 742.447 756.037L780.24 820.91H557.813L584.92 780.287C602.721 753.621 632.662 737.602 664.721 737.602Z" fill="#FFFBF1" stroke="#E5E3E3" stroke-width="3" stroke-miterlimit="10"/>
<path d="M488.253 785.184C481.535 785.184 475.249 781.804 471.461 776.155C466.171 768.272 457.403 763.555 448.022 763.555H406.016C395.877 763.555 386.51 769.058 381.444 777.999L380.593 779.505C376.768 786.249 367.199 786.249 363.375 779.505L358.706 771.277C355.999 766.501 350.991 763.555 345.572 763.555C336.371 763.555 327.87 758.56 323.273 750.449C321.174 746.747 317.291 744.462 313.091 744.462H285.381C279.276 744.462 273.632 747.775 270.58 753.16C266.936 759.596 260.188 763.555 252.893 763.555C245.568 763.555 238.806 767.53 235.148 773.987L208.469 821.034C206.593 824.34 201.902 824.34 200.033 821.034C194.477 811.234 184.2 805.195 173.08 805.195H164.644C153.524 805.195 143.255 811.234 137.691 821.034L113.646 863.424H479.745H567.286L538.984 814.665C528.383 796.394 509.094 785.184 488.253 785.184Z" fill="#FFFBF1" stroke="#E5E3E3" stroke-width="3" stroke-miterlimit="10"/>
<path d="M118.295 808.51H116.592C108.409 808.51 100.846 812.955 96.7473 820.169C94.8638 823.497 90.1515 823.497 88.2609 820.169C85.4826 815.269 80.3518 812.25 74.7952 812.25H66.3449C55.7946 812.25 46.0382 817.958 40.7197 827.236L3 893.134H224.996L197.942 851.869C180.175 824.783 150.292 808.51 118.295 808.51Z" fill="#FFFBF1" stroke="#E5E3E3" stroke-width="3" stroke-miterlimit="10"/>
<path d="M863.723 893.42L809.077 827.48C806.918 824.878 803 823.279 798.761 823.279C789.994 823.279 781.899 819.942 777.519 814.527L756.782 788.894C750.495 781.132 738.883 776.346 726.316 776.346H718.523C688.914 776.346 661.551 787.617 646.75 805.919L636.15 819.018C634.015 821.655 630.067 823.284 625.797 823.284C617.073 823.284 609.009 826.604 604.647 831.997L554.943 893.425H863.723V893.42Z" fill="#FFFBF1" stroke="#E5E3E3" stroke-width="3" stroke-miterlimit="10"/>
<path d="M745.443 893.046L721.94 856.321C697.996 818.905 653.745 795.859 605.858 795.859C598.779 795.859 592.241 799.268 588.705 804.792C581.329 816.312 562.892 816.312 555.517 804.792C551.981 799.26 545.435 795.859 538.363 795.859H451.508C442.047 795.859 433.301 791.304 428.574 783.914C422.007 773.658 409.877 767.34 396.75 767.34H381.979C349.281 767.34 319.067 783.076 302.714 808.62C296.407 818.471 284.76 824.54 272.153 824.54C228.891 824.54 188.87 845.213 166.975 878.874L157.753 893.053H745.443V893.046Z" fill="#FFFBF1" stroke="#E5E3E3" stroke-width="3" stroke-miterlimit="10"/>
<path d="M794.89 846.038C788.164 846.038 781.872 843.992 778.079 840.57C772.783 835.796 764.005 832.939 754.613 832.939H712.558C702.408 832.939 693.03 836.272 687.958 841.687L687.106 842.599C683.277 846.683 673.697 846.683 669.868 842.599L665.193 837.616C662.484 834.724 657.47 832.939 652.045 832.939C642.833 832.939 634.323 829.914 629.72 825.002C627.618 822.759 623.731 821.375 619.526 821.375H591.784C585.672 821.375 580.022 823.382 576.966 826.644C573.318 830.541 566.563 832.939 559.258 832.939C551.925 832.939 545.156 835.346 541.493 839.257L514.783 867.751C512.905 869.753 508.209 869.753 506.338 867.751C500.775 861.816 490.487 858.158 479.354 858.158H470.908C459.775 858.158 449.494 861.816 443.924 867.751L419.852 893.424H786.373H874.015L845.68 863.894C835.067 852.828 815.755 846.038 794.89 846.038Z" fill="#FFFBF1" stroke="#E5E3E3" stroke-width="3" stroke-miterlimit="10"/>
</svg>
