<?xml version="1.0" encoding="UTF-8"?>
<svg width="161px" height="221px" viewBox="0 0 161 221" version="1.1" xmlns="http://www.w3.org/2000/svg" xmlns:xlink="http://www.w3.org/1999/xlink">
    <!-- Generator: Sketch 52.6 (67491) - http://www.bohemiancoding.com/sketch -->
    <title>Group 61</title>
    <desc>Created with Sketch.</desc>
    <g id="Page-1" stroke="none" stroke-width="1" fill="none" fill-rule="evenodd">
        <g id="Group-61" transform="translate(1.000000, 1.000000)">
            <path d="M10.4846,55.3241 C10.4846,55.3241 13.0666,102.4431 0.7606,197.2161 C-0.0064,203.1241 3.5996,208.7781 9.3156,210.4591 C54.0276,223.6111 97.0986,215.3891 116.2216,210.3181 C122.1396,208.7481 125.9716,203.0301 125.1846,196.9591 C112.9166,102.3581 115.4936,55.3241 115.4936,55.3241 L10.4846,55.3241 Z" id="Fill-1" fill="#F1E0C2"></path>
            <path d="M10.4846,55.3241 C10.4846,55.3241 13.0666,102.4431 0.7606,197.2161 C-0.0064,203.1241 3.5996,208.7781 9.3156,210.4591 C54.0276,223.6111 97.0986,215.3891 116.2216,210.3181 C122.1396,208.7481 125.9716,203.0301 125.1846,196.9591 C112.9166,102.3581 115.4936,55.3241 115.4936,55.3241 L10.4846,55.3241 Z" id="Stroke-3" stroke="#5A4941" stroke-width="3.316" stroke-linecap="round" stroke-linejoin="round"></path>
            <path d="M121.5617,166.6429 C165.5337,150.0649 159.0057,102.3969 156.3417,84.8109 C153.6767,67.2249 135.0257,66.2789 135.0257,66.2789 L115.2707,66.2789 L115.6317,87.6709 L128.2157,87.6709 C128.2157,87.6709 140.0587,88.0339 139.4667,107.6499 C138.8737,127.2659 131.1207,133.4879 119.0097,140.8869 L121.5617,166.6429 Z" id="Fill-5" fill="#F1E0C2"></path>
            <path d="M121.5617,166.6429 C165.5337,150.0649 159.0057,102.3969 156.3417,84.8109 C153.6767,67.2249 135.0257,66.2789 135.0257,66.2789 L115.2707,66.2789 L115.6317,87.6709 L128.2157,87.6709 C128.2157,87.6709 140.0587,88.0339 139.4667,107.6499 C138.8737,127.2659 131.1207,133.4879 119.0097,140.8869 L121.5617,166.6429 Z" id="Stroke-7" stroke="#5A4941" stroke-width="3.316" stroke-linecap="round" stroke-linejoin="round"></path>
            <path d="M121.0637,161.6126 C121.0637,161.6126 137.6907,153.9106 145.9797,140.8836" id="Fill-9" fill="#F1E0C2"></path>
            <path d="M120.3664,160.1083 C122.7574,159.1033 125.1994,157.8583 127.5304,156.5423 C129.8724,155.2123 132.1474,153.7563 134.3454,152.1833 C136.5534,150.6203 138.6204,148.8713 140.6024,147.0183 C142.5764,145.1523 144.3474,143.0833 145.9794,140.8843 C144.5824,143.2313 143.0094,145.5013 141.2054,147.5873 C139.3934,149.6623 137.4674,151.6583 135.3824,153.4773 C133.3054,155.3073 131.1314,157.0323 128.8664,158.6403 C126.5844,160.2483 124.2874,161.7393 121.7614,163.1173 C120.9554,163.5573 119.9464,163.2603 119.5074,162.4553 C119.0664,161.6493 119.3634,160.6403 120.1694,160.2003 C120.2184,160.1733 120.2674,160.1503 120.3184,160.1283 L120.3664,160.1083 Z" id="Fill-11" fill="#5A4941"></path>
            <path d="M124.9055,75.7528 L134.6975,75.7528 C136.7715,75.9328 145.6135,77.2428 146.9745,86.2298 C147.4875,89.6168 148.2535,94.6708 148.6275,100.5838" id="Fill-13" fill="#F1E0C2"></path>
            <path d="M124.9055,74.0946 L134.6975,74.4836 L134.7995,74.4876 L134.8075,74.4886 C137.6565,74.8796 140.3775,75.8686 142.7025,77.5686 C145.0215,79.2736 146.6635,81.8486 147.2715,84.5786 C147.5485,85.9726 147.6715,87.2796 147.8105,88.6086 C147.9505,89.9356 148.0795,91.2646 148.1895,92.5946 C148.4115,95.2556 148.5635,97.9206 148.6275,100.5836 C148.3525,97.9336 147.9895,95.2966 147.5595,92.6726 C147.3445,91.3606 147.1125,90.0526 146.8685,88.7456 C146.6285,87.4396 146.3845,86.1086 146.0465,84.9086 C145.2875,82.4866 143.7115,80.4386 141.6195,79.1346 C139.5305,77.8416 137.0245,77.1516 134.5875,77.0166 L134.6975,77.0216 L124.9055,77.4106 C123.9895,77.4476 123.2185,76.7346 123.1815,75.8186 C123.1445,74.9026 123.8575,74.1306 124.7735,74.0946 C124.8165,74.0926 124.8635,74.0926 124.9055,74.0946" id="Fill-15" fill="#5A4941"></path>
            <path d="M120.0891,69.3578 L134.8731,69.6368 L134.9321,69.6378 L134.9781,69.6408 C136.6441,69.8178 138.1791,70.1878 139.7161,70.6798 C141.2461,71.1648 142.7251,71.8298 144.1181,72.6498 C145.5361,73.4318 146.7901,74.4968 147.9651,75.6168 C149.0601,76.8228 150.0821,78.1168 150.7791,79.5878 L151.3171,80.6788 C151.4661,81.0548 151.5831,81.4418 151.7161,81.8218 L152.0971,82.9688 L152.3311,84.1458 L152.5621,85.3218 L152.7091,86.4608 L152.9871,88.7338 C153.3501,91.7678 153.6171,94.8158 153.8141,97.8648 C154.1931,103.9648 154.1811,110.1028 153.5411,116.1808 C153.2231,119.2188 152.7011,122.2328 152.0371,125.2088 C151.3331,128.1778 150.4141,131.0888 149.3081,133.9228 C150.3071,131.0478 151.1111,128.1138 151.6991,125.1368 C152.2481,122.1518 152.6521,119.1438 152.8551,116.1198 C153.2601,110.0708 153.0431,103.9998 152.4401,97.9758 C152.1301,94.9638 151.7521,91.9588 151.2791,88.9658 C150.8141,85.9308 150.3781,83.0368 148.9541,80.5608 C148.3031,79.2978 147.3661,78.2198 146.3891,77.2098 C145.3241,76.2808 144.2141,75.3918 142.9331,74.7518 C140.4461,73.3968 137.5401,72.6178 134.7691,72.3908 L134.8731,72.3948 L120.0891,72.6738 C119.1731,72.6908 118.4161,71.9628 118.4001,71.0468 C118.3821,70.1308 119.1101,69.3748 120.0271,69.3578 C120.0451,69.3578 120.0701,69.3578 120.0891,69.3578" id="Fill-17" fill="#5A4941"></path>
            <path d="M17.2932,92.7303 C16.3432,116.4823 13.8592,151.5173 7.8082,198.1313 C7.4872,200.5893 8.9972,202.9593 11.3202,203.6423 C26.6682,208.1573 43.2612,210.4463 60.6362,210.4463 L60.6382,210.4463 C83.2712,210.4463 102.3662,206.6413 114.4002,203.4503 C116.8582,202.7983 118.4662,200.4003 118.1382,197.8723 C112.0412,150.8603 109.5782,115.6483 108.6532,91.9303 C108.6532,91.9303 47.7862,97.4713 17.2932,92.7303" id="Fill-19" fill="#E18726"></path>
            <path d="M10.1906,91.9247 C10.1906,91.9247 45.1856,98.2297 115.2706,91.9247" id="Stroke-21" stroke="#5A4941" stroke-width="3.316"></path>
            <path d="M55.3508,107.2694 C55.3508,105.0834 53.5798,103.3114 51.3928,103.3114 C49.2068,103.3114 47.4358,105.0834 47.4358,107.2694 C47.4358,109.4554 49.2068,111.2274 51.3928,111.2274 C53.5798,111.2274 55.3508,109.4554 55.3508,107.2694" id="Fill-23" fill="#E18726"></path>
            <path d="M55.3508,107.2694 C55.3508,105.0834 53.5798,103.3114 51.3928,103.3114 C49.2068,103.3114 47.4358,105.0834 47.4358,107.2694 C47.4358,109.4554 49.2068,111.2274 51.3928,111.2274 C53.5798,111.2274 55.3508,109.4554 55.3508,107.2694 Z" id="Stroke-25" stroke="#5A4941" stroke-width="3.316"></path>
            <path d="M50.0676,120.6512 C50.0676,118.9912 48.7216,117.6452 47.0616,117.6452 C45.4006,117.6452 44.0546,118.9912 44.0546,120.6512 C44.0546,122.3112 45.4006,123.6572 47.0616,123.6572 C48.7216,123.6572 50.0676,122.3112 50.0676,120.6512" id="Fill-27" fill="#E18726"></path>
            <path d="M50.0676,120.6512 C50.0676,118.9912 48.7216,117.6452 47.0616,117.6452 C45.4006,117.6452 44.0546,118.9912 44.0546,120.6512 C44.0546,122.3112 45.4006,123.6572 47.0616,123.6572 C48.7216,123.6572 50.0676,122.3112 50.0676,120.6512 Z" id="Stroke-29" stroke="#5A4941" stroke-width="3.316"></path>
            <path d="M55.5295,143.8451 C55.5295,143.1301 54.9495,142.5501 54.2335,142.5501 C53.5185,142.5501 52.9385,143.1301 52.9385,143.8451 C52.9385,144.5601 53.5185,145.1401 54.2335,145.1401 C54.9495,145.1401 55.5295,144.5601 55.5295,143.8451" id="Fill-31" fill="#E18726"></path>
            <path d="M55.5295,143.8451 C55.5295,143.1301 54.9495,142.5501 54.2335,142.5501 C53.5185,142.5501 52.9385,143.1301 52.9385,143.8451 C52.9385,144.5601 53.5185,145.1401 54.2335,145.1401 C54.9495,145.1401 55.5295,144.5601 55.5295,143.8451 Z" id="Stroke-33" stroke="#5A4941" stroke-width="3.316"></path>
            <path d="M34.468,69.9696 C33.425,80.6546 32.341,91.3296 31.084,101.9856 C29.835,112.6416 28.48,123.2826 26.977,133.8996 C25.467,144.5146 23.816,155.1076 21.977,165.6626 C20.126,176.2156 18.114,186.7376 15.793,197.1806 C17.207,186.5766 18.303,175.9456 19.237,165.3056 C20.157,154.6646 20.888,144.0126 21.476,133.3576 C22.058,122.7006 22.489,112.0406 22.816,101.3806 C23.149,90.7206 23.309,80.0556 23.428,69.3976 L23.429,69.3696 C23.463,66.3146 25.968,63.8656 29.024,63.8996 C32.078,63.9336 34.528,66.4386 34.493,69.4936 C34.492,69.6506 34.483,69.8166 34.468,69.9696" id="Fill-35" fill="#F7ECDA"></path>
            <path d="M106.1291,94.9061 C106.3401,108.0381 107.0701,121.1931 108.0591,134.3241 C109.0551,147.4581 110.3321,160.5781 111.8031,173.6791 C109.7851,160.6511 107.9571,147.5891 106.4081,134.4841 C104.8671,121.3781 103.5821,108.2361 102.8151,95.0231 L106.1291,94.9061 Z" id="Fill-37" fill="#5A4941"></path>
            <path d="M98.3059,94.9359 C98.4389,103.3029 98.8089,111.6859 99.3029,120.0619 C99.7979,128.4399 100.4369,136.8149 101.1699,145.1849 C99.8879,136.8819 98.6999,128.5609 97.6519,120.2149 C96.6059,111.8689 95.6819,103.5029 94.9929,95.0959 L98.3059,94.9359 Z" id="Fill-39" fill="#5A4941"></path>
            <path d="M43.841,11.2118 C43.841,11.2118 7.426,7.3628 7.426,46.4428 C7.426,85.5218 63.972,78.4318 75.223,63.4728 C75.223,63.4728 70.19,96.7718 99.499,96.7718 C128.809,96.7718 116.078,51.1798 116.078,51.1798 C116.078,51.1798 125.848,35.4888 110.453,29.5668 C110.453,29.5668 114.894,7.7468 89.73,11.1078 C89.73,11.1078 69.894,-12.4732 43.841,11.2118" id="Fill-41" fill="#F1E0C2"></path>
            <path d="M43.841,11.2118 C43.841,11.2118 7.426,7.3628 7.426,46.4428 C7.426,85.5218 63.972,78.4318 75.223,63.4728 C75.223,63.4728 70.19,96.7718 99.499,96.7718 C128.809,96.7718 116.078,51.1798 116.078,51.1798 C116.078,51.1798 125.848,35.4888 110.453,29.5668 C110.453,29.5668 114.894,7.7468 89.73,11.1078 C89.73,11.1078 69.894,-12.4732 43.841,11.2118 Z" id="Stroke-43" stroke="#5A4941" stroke-width="3.316" stroke-linecap="round" stroke-linejoin="round"></path>
            <g id="Group-48" transform="translate(85.000000, 85.210000)">
                <path d="M24.2375,1.5516 C22.9035,3.3076 20.4405,5.6406 14.4995,5.6406 C8.2635,5.6406 3.7515,3.9176 0.7015,0.3736" id="Fill-45" fill="#F1E0C2"></path>
                <path d="M24.2375,1.5516 C22.9035,3.3076 20.4405,5.6406 14.4995,5.6406 C8.2635,5.6406 3.7515,3.9176 0.7015,0.3736" id="Stroke-47" stroke="#5A4941" stroke-width="3.316" stroke-linecap="round" stroke-linejoin="round"></path>
            </g>
            <g id="Group-52" transform="translate(94.000000, 16.210000)">
                <path d="M0.6858,0.4666 C4.6698,0.4666 7.4638,1.4146 8.9918,3.2846 C11.2978,6.1056 10.8868,11.0166 10.6518,12.1766 C10.0748,15.0106 11.6278,17.8456 14.3278,18.8836 C18.0988,20.3346 18.7158,22.1416 18.9188,22.7356 C19.9948,25.8836 17.8658,30.4996 17.0348,31.8676" id="Fill-49" fill="#F1E0C2"></path>
                <path d="M0.6858,0.4666 C4.6698,0.4666 7.4638,1.4146 8.9918,3.2846 C11.2978,6.1056 10.8868,11.0166 10.6518,12.1766 C10.0748,15.0106 11.6278,17.8456 14.3278,18.8836 C18.0988,20.3346 18.7158,22.1416 18.9188,22.7356 C19.9948,25.8836 17.8658,30.4996 17.0348,31.8676" id="Stroke-51" stroke="#5A4941" stroke-width="3.316" stroke-linecap="round" stroke-linejoin="round"></path>
            </g>
            <g id="Group-56" transform="translate(67.000000, 6.210000)">
                <path d="M0.3772,0.3699 C10.8882,0.3699 18.1282,8.6259 18.1982,8.7089" id="Fill-53" fill="#F1E0C2"></path>
                <path d="M0.3772,0.3699 C10.8882,0.3699 18.1282,8.6259 18.1982,8.7089" id="Stroke-55" stroke="#5A4941" stroke-width="3.316" stroke-linecap="round" stroke-linejoin="round"></path>
            </g>
            <g id="Group-60" transform="translate(13.000000, 16.210000)">
                <path d="M0.3469,30.2327 C0.3469,4.6397 17.8029,0.8187 28.2069,0.8187" id="Fill-57" fill="#F1E0C2"></path>
                <path d="M0.3469,30.2327 C0.3469,4.6397 17.8029,0.8187 28.2069,0.8187" id="Stroke-59" stroke="#5A4941" stroke-width="3.316" stroke-linecap="round" stroke-linejoin="round"></path>
            </g>
        </g>
    </g>
</svg>