<?xml version="1.0" encoding="UTF-8"?>
<svg width="144px" height="119px" viewBox="0 0 144 119" version="1.1" xmlns="http://www.w3.org/2000/svg" xmlns:xlink="http://www.w3.org/1999/xlink">
    <!-- Generator: Sketch 52.6 (67491) - http://www.bohemiancoding.com/sketch -->
    <title>Group 227</title>
    <desc>Created with Sketch.</desc>
    <defs>
        <polygon id="path-1" points="0.949389848 0.805 4.13377002 0.805 4.13377002 4.81850524 0.949389848 4.81850524"></polygon>
        <polygon id="path-3" points="0.000285689175 0.477519583 143.144 0.477519583 143.144 113.999897 0.000285689175 113.999897"></polygon>
    </defs>
    <g id="Page-1" stroke="none" stroke-width="1" fill="none" fill-rule="evenodd">
        <g id="Group-227" transform="translate(0.000000, -1.000000)">
            <path d="M42.801,48.5653 C42.631,48.9443 42.469,49.3273 42.293,49.7043 C43.553,46.6293 44.678,43.4973 45.348,40.3563 C45.514,40.4053 45.68,40.4543 45.848,40.5043 C44.848,43.1963 43.838,45.8853 42.801,48.5653 M26.873,72.5103 C26.77,72.4483 26.666,72.4073 26.563,72.3643 C27.086,71.6693 27.604,70.9673 28.112,70.2583 C27.699,71.0083 27.285,71.7603 26.873,72.5103 M13.852,64.5263 C13.604,64.4793 13.352,64.4503 13.094,64.4343 C13.572,63.5613 14.082,62.6983 14.594,61.8503 C14.778,61.8913 14.969,61.9053 15.158,61.8953 C14.709,62.7643 14.276,63.6393 13.852,64.5263 M69.922,35.1923 C67.281,34.1923 64.447,33.4713 61.606,33.5673 C61.418,33.5733 61.242,33.6063 61.074,33.6513 C59.703,33.2993 58.307,33.0793 56.983,33.1673 C56.1,32.9873 55.221,32.8113 54.336,32.6513 C52.42,32.3013 50.498,31.9813 48.574,31.6593 C48.356,31.5813 48.137,31.4993 47.914,31.4223 C46.684,31.0103 45.42,30.6693 44.156,30.3193 C43.182,29.7993 42.143,29.4153 41.076,29.1023 C38.848,27.7563 36.682,26.3703 33.819,26.5713 C32.727,26.6493 31.865,27.5513 31.774,28.5303 C31.535,28.7563 31.35,29.0493 31.268,29.4303 C31.166,29.9013 31.026,30.3703 30.867,30.8333 C30.324,30.4673 29.621,30.4053 28.903,30.9303 C26.176,32.9263 24.338,35.5883 22.34,38.2683 C19.842,41.6243 17.449,45.0553 15.119,48.5303 C12.697,52.1413 10.432,55.8363 8.301,59.6283 C8.113,59.9613 7.916,60.2973 7.715,60.6333 C7.596,60.7413 7.483,60.8603 7.379,61.0043 C5.77,63.2493 4.516,65.6593 3.674,68.2943 C3.414,69.1103 3.776,69.8853 4.373,70.3793 C4.51,70.8363 4.781,71.2643 5.196,71.5693 C6.035,72.1863 6.895,72.7743 7.772,73.3313 C8.824,74.4423 10.219,75.3153 11.424,75.6373 C15.051,78.4403 18.83,81.0863 22.879,83.2293 C25.084,84.3953 27.377,85.3563 29.621,86.4263 C31.852,87.8253 34.088,89.1263 36.578,90.0403 C36.76,90.1083 36.932,90.1433 37.096,90.1613 C37.485,90.3743 37.885,90.5533 38.291,90.7023 C38.99,91.1673 39.731,91.4733 40.426,91.4733 C41.696,91.4733 42.514,90.9893 42.963,90.2583 C43.379,89.8853 43.715,89.4483 43.977,88.9653 C46.6,86.9693 48.215,83.7293 50.012,81.0553 C52.02,78.0653 54.322,74.9203 54.938,71.3213 C56.274,69.1123 57.561,66.8723 58.826,64.6263 C61.414,60.0303 63.781,55.3643 66.102,50.6283 C68.072,46.6023 70.809,42.9443 71.737,38.4813 C71.879,37.7843 71.69,37.2003 71.332,36.7643 C71.205,36.1103 70.742,35.5043 69.922,35.1923" id="Fill-1" fill="#E58200"></path>
            <path d="M22.4494,77.0086 C22.1794,76.6046 21.9144,76.1996 21.6484,75.8036 C21.4204,75.4616 21.1854,75.1276 20.9534,74.7856 C20.9554,74.7816 20.9554,74.7766 20.9554,74.7706 C21.5644,75.5616 22.1644,76.3586 22.7654,77.1546 C22.6604,77.1066 22.5544,77.0616 22.4494,77.0086 M63.0294,45.2466 C60.7894,51.0556 58.3044,56.8626 55.3514,62.3896 C54.9124,62.4496 54.5084,62.7196 54.2654,63.2896 C52.1704,68.2466 47.8634,73.0536 42.7694,76.3566 C42.2834,75.9616 41.6054,75.8306 40.9044,76.2646 C36.8424,78.7686 32.6934,79.6046 28.5644,78.9816 C26.0624,75.8976 23.7994,72.6196 21.2384,69.5866 C22.4024,56.1946 27.7994,43.2836 35.9124,32.6046 C37.2774,30.8056 34.2364,29.0676 32.8904,30.8366 C29.8794,34.8036 27.2384,39.0826 25.0294,43.5766 C24.5724,43.7406 24.1724,44.0866 23.9704,44.6626 C23.1174,47.1216 22.1974,49.5696 21.3164,52.0296 C20.4294,51.5806 19.1354,51.7896 18.7244,53.0186 C18.5214,53.6296 18.3344,54.2446 18.1484,54.8586 C17.2464,54.4446 16.0684,54.6926 15.8084,55.9346 C15.5664,57.1126 15.3224,58.2876 15.0724,59.4636 C14.1974,59.1476 13.1384,59.4286 12.8944,60.5966 C12.7814,61.1416 12.6764,61.6846 12.5664,62.2296 C12.1524,62.3116 11.7694,62.5806 11.5154,63.0966 C10.0664,66.0596 9.9554,69.9046 11.5274,72.8756 C12.3164,74.3636 13.3774,75.3916 14.7404,76.3636 C15.9534,77.2316 18.2054,78.2936 18.7244,79.7936 C19.0664,80.7876 19.9864,81.1026 20.7954,80.9476 C22.0994,82.5396 23.5624,83.9046 25.3574,84.7256 C26.5114,85.2546 27.5824,84.5126 27.9184,83.6006 C28.1154,83.8176 28.3014,84.0436 28.5024,84.2586 C29.3204,85.1356 30.3944,84.8426 30.9984,84.1336 C35.0564,83.8736 38.7634,82.5596 42.1974,80.5656 C41.1664,81.5866 40.1094,82.5846 38.9944,83.5336 C37.2754,84.9986 39.7604,87.4596 41.4674,86.0066 C53.6684,75.6216 60.7424,60.8526 66.4024,46.1766 C67.2154,44.0696 63.8324,43.1646 63.0294,45.2466" id="Fill-3" fill="#BA5400"></path>
            <path d="M42.8577,63.9559 C42.8497,63.9639 42.8417,63.9679 42.8367,63.9739 C43.0627,62.9829 43.2447,61.9759 43.3907,60.9579 C43.7487,61.3099 44.1407,61.6039 44.5747,61.8309 C44.1097,62.6399 43.5487,63.3659 42.8577,63.9559 M40.9807,36.7139 C40.9577,36.7079 40.9297,36.7019 40.9067,36.6939 C40.8207,35.6689 40.5487,34.7159 39.8907,33.8229 C40.3107,33.9309 40.7287,34.0789 41.1427,34.2529 C40.9537,35.0519 40.9107,35.8779 40.9807,36.7139 M62.4557,34.1769 C61.7057,33.3059 60.7057,33.5199 60.0897,34.1669 C59.5607,33.8799 59.0237,33.6979 58.4967,33.6649 C58.0897,33.6399 57.7017,33.8099 57.3867,34.0789 C57.0337,33.9949 56.6777,33.9129 56.3227,33.8249 C55.9397,33.6439 55.5607,33.5169 55.1937,33.4699 C55.1097,33.4599 55.0277,33.4599 54.9437,33.4679 C54.4357,33.3349 53.9297,33.2059 53.4237,33.0669 C53.2757,32.9559 53.1277,32.8409 52.9667,32.7369 C52.5317,32.4559 52.0787,32.4309 51.6687,32.5599 C50.2347,32.1379 48.8067,31.6939 47.4007,31.1919 C45.5377,30.5279 43.6057,30.0089 41.7797,29.2429 C40.3457,28.6399 39.1307,27.7879 37.5877,27.5089 C35.7447,27.1749 34.3717,29.7349 36.2407,30.7059 C36.6387,30.9129 37.0397,31.1159 37.4417,31.3189 C37.3107,31.9439 37.4947,32.6769 37.9867,33.1589 C37.6997,33.2409 37.4337,33.3819 37.2467,33.5949 C35.6037,35.4399 35.4847,37.7309 35.2387,40.0889 C34.8987,43.3289 34.2557,46.4929 34.2187,49.7679 C34.1647,54.5439 33.4537,59.7369 35.2987,64.2779 C36.9707,68.3929 41.2347,69.9129 44.7617,66.9149 C46.5997,65.3509 47.8327,63.3059 48.6527,61.0609 C49.0137,60.5909 49.3147,60.0149 49.5547,59.3739 C50.1057,59.0829 50.5437,58.6019 50.7917,57.9579 C52.0027,59.0029 53.2527,59.1299 54.2247,56.9889 C54.5667,56.2329 54.7367,55.3819 54.7897,54.4829 C55.7057,54.3929 56.2467,53.6079 56.5487,52.5499 C59.1307,52.6689 59.5487,50.2549 59.3537,47.8209 C59.5877,47.8039 59.8267,47.7689 60.0667,47.6829 C61.6817,47.1139 62.3987,45.8679 62.5057,44.3429 C62.7387,44.2239 62.9647,44.0749 63.1877,43.8839 C63.8457,43.3169 64.1937,42.5729 64.3047,41.7489 C64.8907,41.3409 65.1667,40.5359 65.0437,39.8079 C64.6817,37.6829 63.8557,35.8129 62.4557,34.1769" id="Fill-5" fill="#FFA73E"></path>
            <path d="M76.3967,25.4325 C76.1177,25.3305 75.8377,25.2355 75.5607,25.1555 C75.5627,25.1255 75.5627,25.0965 75.5627,25.0655 C75.9087,25.0945 76.2507,25.1005 76.5937,25.0555 C76.5217,25.1765 76.4577,25.2995 76.3967,25.4325 M50.6667,20.0785 C50.5467,19.8995 50.4197,19.7235 50.2877,19.5535 C50.9537,19.7955 51.6467,19.9755 52.3357,20.0715 C52.4007,20.1615 52.4707,20.2465 52.5377,20.3345 C51.8757,20.1905 51.2447,20.0985 50.6667,20.0785 M42.6387,23.7955 C42.7147,23.7135 42.7897,23.6315 42.8637,23.5495 C43.0177,23.7825 43.1817,24.0105 43.3537,24.2335 C43.1217,24.0845 42.8807,23.9385 42.6387,23.7955 M88.6097,21.0535 C88.1777,20.9365 87.7717,21.0105 87.4337,21.2175 C87.1587,21.1515 86.8807,21.0985 86.5977,21.0555 C84.4377,19.9695 81.9457,19.0345 79.6017,19.5415 C79.2267,19.6235 78.9477,19.7935 78.7487,20.0165 C77.9627,19.7025 77.1507,19.4365 76.3247,19.1985 C76.2057,19.1105 76.0847,19.0245 75.9627,18.9365 C75.9707,18.7725 75.9607,18.6045 75.9237,18.4305 C75.7857,17.7935 75.5607,17.1455 75.2657,16.5165 C75.4197,16.4385 75.5607,16.3405 75.6897,16.2315 C75.7207,16.2315 75.7487,16.2315 75.7797,16.2335 C76.1797,17.0535 77.1667,17.6295 78.2287,17.1025 C79.4747,16.4835 80.7697,16.3685 81.9197,15.5475 C82.2837,15.2895 82.5357,14.9015 82.6587,14.4835 C83.2057,13.9385 83.5877,13.2275 83.8907,12.3645 C84.2107,11.4485 83.5337,10.4775 82.6697,10.2135 C79.1257,9.1315 75.6897,10.2585 72.1037,10.1705 C71.1387,10.1475 70.1587,10.0865 69.1757,9.9835 C66.3947,8.5845 63.4647,7.0595 60.3637,7.6885 C59.9577,7.7705 59.6507,7.9955 59.4397,8.2875 C57.2037,7.8685 54.9687,7.5575 52.6677,7.6255 C52.0487,7.6435 51.6077,7.8915 51.3307,8.2465 C49.4847,8.3215 47.5977,8.9915 46.3787,10.0805 C46.3267,10.1275 46.2817,10.1785 46.2387,10.2295 C46.0297,10.3325 45.8227,10.4345 45.6197,10.5475 C45.1117,10.3975 44.5397,10.5085 44.0467,11.0535 C43.4947,11.6665 42.9787,12.3095 42.4477,12.9425 C42.3007,13.1045 42.1567,13.2785 42.0137,13.4535 C41.9787,13.4945 41.9457,13.5375 41.9107,13.5785 C41.9107,13.5805 41.9127,13.5805 41.9127,13.5805 C41.8207,13.7005 41.7267,13.8075 41.6367,13.9325 C41.5447,14.0595 41.4827,14.1885 41.4337,14.3195 C40.0077,15.6025 38.4357,16.7275 37.6407,18.4425 C36.6777,19.3305 35.8967,20.3875 35.4357,21.7355 C35.2817,22.1845 35.3327,22.5925 35.5037,22.9345 C35.2877,23.2275 35.1567,23.5825 35.1797,23.9485 C35.2087,24.4505 35.3087,24.8425 35.4727,25.2685 C35.4627,25.3235 35.4457,25.3735 35.4357,25.4265 C35.1527,26.9915 36.5667,28.0755 38.0037,27.4015 C38.6177,27.1145 39.1837,26.7805 39.7187,26.4115 C40.4627,27.0165 41.2817,27.5515 42.0427,27.9575 C41.9107,28.6025 42.1137,29.2995 42.8457,29.7335 C47.8557,32.6945 54.2367,35.8115 60.0507,33.6235 C60.0787,33.6165 60.1017,33.6105 60.1287,33.6025 C60.1267,33.5985 60.1257,33.5965 60.1237,33.5925 C60.2657,33.5375 60.4067,33.4855 60.5447,33.4265 C60.6627,33.3755 60.7597,33.3135 60.8537,33.2465 C64.1777,34.5825 67.8377,36.7025 71.3987,35.7395 C71.5707,35.6945 71.7307,35.6085 71.8807,35.5065 C73.2077,35.3465 74.3987,34.6475 74.7927,33.2075 C74.8677,32.9405 74.8887,32.6785 74.8767,32.4265 C74.9867,32.3075 75.0767,32.1765 75.1547,32.0365 C76.3287,32.2465 77.4707,32.2445 78.4317,31.9165 C80.2837,32.6765 81.9907,33.7875 83.6527,34.9795 C84.3437,35.4755 85.0687,35.3075 85.5807,34.8465 C86.5077,35.3075 87.4297,35.7865 88.3167,36.3405 C90.2017,37.5185 91.8327,34.7235 90.2057,33.4205 C90.2167,33.4145 90.2327,33.4115 90.2487,33.4075 C92.3557,32.6555 91.4477,29.2765 89.3167,30.0345 C88.2267,30.4225 87.0807,30.2525 85.9147,29.8665 C85.1877,29.2415 84.4417,28.6235 83.6737,28.0695 C83.6777,28.0615 83.6837,28.0555 83.6897,28.0475 C86.7057,27.8525 89.9687,27.2605 91.6977,25.7805 C91.7207,25.7685 91.7427,25.7565 91.7637,25.7415 C92.0507,25.6395 92.3327,25.4635 92.5977,25.1945 C95.5137,22.2255 90.8497,18.2685 88.6097,21.0535" id="Fill-7" fill="#FFE1C0"></path>
            <path d="M95.0295,13.0653 C94.0745,13.0653 93.2815,13.8623 93.2815,14.8153 L93.2815,15.0103 C93.2815,15.9633 94.0745,16.7583 95.0295,16.7583 C95.9825,16.7583 96.7775,15.9633 96.7775,15.0103 L96.7775,14.8153 C96.7775,13.8623 95.9825,13.0653 95.0295,13.0653" id="Fill-9" fill="#FFE1C0"></path>
            <path d="M72.7542,1.7254 C72.0782,1.0514 70.9532,1.0514 70.2792,1.7254 C69.6062,2.3974 69.6062,3.5264 70.2792,4.1984 C70.3442,4.2644 70.4102,4.3274 70.4752,4.3934 C71.1472,5.0674 72.2742,5.0674 72.9472,4.3934 C73.6212,3.7174 73.6212,2.5924 72.9472,1.9204 C72.8832,1.8544 72.8182,1.7894 72.7542,1.7254" id="Fill-11" fill="#FFE1C0"></path>
            <path d="M104.551,12.6786 C103.596,12.6786 102.801,13.4736 102.801,14.4266 L102.801,14.6196 C102.801,15.5746 103.596,16.3676 104.551,16.3676 C105.504,16.3676 106.299,15.5746 106.299,14.6196 L106.299,14.4266 C106.299,13.4736 105.504,12.6786 104.551,12.6786" id="Fill-13" fill="#FFE1C0"></path>
            <path d="M40.4787,92.7606 C39.6097,92.3386 39.4607,92.3076 38.4827,92.2526 C38.4687,92.2526 38.4577,92.2566 38.4457,92.2566 C38.4087,92.2316 38.3827,92.1986 38.3397,92.1766 C37.2307,91.6046 36.0297,91.4366 34.8597,91.1236 C33.3187,90.2816 31.8457,89.2506 30.4587,88.4756 C29.2107,87.7766 27.9627,87.0986 26.7247,86.4056 C26.7017,86.2356 26.6247,86.0616 26.4687,85.9016 C24.4417,83.8226 21.6267,82.3246 18.8947,81.4016 C18.5217,81.2766 18.1627,81.4676 17.9537,81.7646 C17.8927,81.7336 17.8337,81.7016 17.7757,81.6686 C17.7757,81.4386 17.6977,81.2076 17.5317,81.0436 C15.7677,79.2916 13.2897,78.1966 10.9277,77.5146 C10.5827,77.4126 10.2387,77.5746 10.0237,77.8346 C9.7087,77.6436 9.3987,77.4446 9.0937,77.2426 C9.2917,76.8796 9.2307,76.3676 8.8027,76.0476 C7.7147,75.2296 6.6877,74.6276 5.3947,74.2446 C4.9277,73.8366 4.4987,73.3836 4.1097,72.9106 C4.1017,72.8956 4.0917,72.8836 4.0827,72.8696 C4.5767,72.6196 4.8557,71.9736 4.3167,71.5206 C3.4997,70.8366 3.3927,70.7836 2.3377,70.6806 C1.8087,70.6296 1.2967,71.2856 1.4967,71.7896 C1.6017,72.0576 1.7167,72.3096 1.8397,72.5496 C1.8397,72.6906 1.8787,72.8306 1.9727,72.9696 C2.0977,73.1476 2.2267,73.3246 2.3617,73.5026 C2.5547,73.7766 2.7497,74.0556 2.9437,74.3286 C3.0447,74.4656 3.1647,74.5596 3.2907,74.6196 C3.7487,75.1216 4.2487,75.5926 4.7837,76.0106 C6.7597,77.9736 9.1527,79.4086 11.5667,80.7816 C12.8737,81.5266 14.2967,82.3776 15.8067,82.5476 C16.6217,82.9986 17.4377,83.4496 18.2487,83.9266 C20.2517,85.1066 22.2817,86.4966 24.5467,87.1256 C25.0937,87.4406 25.6447,87.7526 26.1977,88.0636 C26.1077,88.3836 26.2017,88.7546 26.5767,89.0226 C26.7577,89.1536 26.9457,89.2686 27.1287,89.3876 C27.1567,89.6176 27.2817,89.8406 27.5487,89.9926 C30.0527,91.4346 32.7087,92.5436 35.3807,93.6276 C35.4727,93.6966 35.5837,93.7486 35.7247,93.7746 C35.7367,93.7766 35.7517,93.7806 35.7657,93.7816 C36.4007,94.0376 37.0357,94.2936 37.6657,94.5516 C38.0667,94.7036 38.3747,94.5616 38.5507,94.3036 C38.9787,94.3676 39.4087,94.3976 39.8417,94.3896 L39.8437,94.3896 C39.9087,94.3876 39.9727,94.3916 40.0377,94.3896 C40.8457,94.3526 41.3087,93.1606 40.4787,92.7606" id="Fill-15" fill="#FFE1C0"></path>
            <path d="M30.926,20.786 C30.862,20.878 30.799,20.962 30.74,21.048 C30.647,21.001 30.543,20.97 30.438,20.954 C30.358,20.888 30.278,20.815 30.197,20.749 C30.217,20.565 30.196,20.376 30.104,20.204 C29.014,18.157 25.297,14.474 22.742,14.718 C22.582,14.735 22.42,14.8 22.28,14.893 C22.039,14.694 21.697,14.628 21.33,14.837 C21.225,14.895 21.129,14.958 21.033,15.018 C20.77,14.749 20.356,14.618 19.969,14.837 C19.164,15.296 18.565,15.786 18.035,16.466 C17.764,16.46 17.494,16.583 17.324,16.899 C14.862,21.462 10.338,24.739 8.49,29.741 C8.364,30.087 8.461,30.364 8.66,30.55 C7.967,31.698 7.453,32.974 6.934,34.206 C6.379,35.52 5.854,36.848 5.328,38.179 C5.18,38.278 5.059,38.44 4.994,38.679 C4.883,39.085 4.762,39.487 4.645,39.891 C4.158,41.11 3.664,42.323 3.139,43.52 C2.887,44.095 3.303,44.77 3.813,44.87 C3.86,45.481 3.983,46.098 4.217,46.722 C4.258,46.833 4.319,46.927 4.387,47.009 C4.594,48.284 5.008,49.491 5.858,50.622 C6.112,50.958 6.61,51.073 6.992,50.956 C7.436,51.722 7.914,52.472 8.414,53.204 C8.522,53.45 8.612,53.704 8.694,53.968 C8.52,54.347 8.676,54.692 8.963,54.895 C9.287,55.565 10.315,55.364 10.567,54.688 C10.582,54.647 10.598,54.606 10.614,54.563 C11.51,53.52 12.309,52.563 12.705,51.19 C12.936,50.386 11.824,49.657 11.242,50.341 C10.772,50.893 10.36,51.483 9.957,52.083 C9.918,52.097 9.879,52.114 9.844,52.136 C9.832,52.116 9.821,52.098 9.809,52.079 C9.461,51.395 9.024,50.757 8.514,50.102 C7.623,48.573 6.862,46.973 6.291,45.286 C6.258,45.184 6.209,45.1 6.155,45.024 C6.133,44.622 6.053,44.21 5.903,43.731 C5.846,43.544 5.739,43.403 5.61,43.302 C5.635,43.104 5.666,42.907 5.701,42.712 C6.158,41.737 6.43,40.692 6.612,39.577 C6.822,39.036 7.035,38.493 7.252,37.954 C9.502,35.536 11.27,32.548 11.914,29.286 C13.785,26.419 15.828,23.641 17.668,20.891 C17.928,20.505 17.799,20.102 17.522,19.849 C17.912,19.306 18.28,18.745 18.612,18.167 C18.67,18.159 18.733,18.155 18.791,18.134 C18.934,18.698 19.676,18.989 20.252,18.542 C20.373,18.495 20.496,18.444 20.619,18.397 L20.959,18.737 C21.412,19.19 22.041,18.989 22.309,18.54 L22.311,18.54 C23.561,19.841 24.967,20.977 26.449,22.013 C26.479,22.077 26.518,22.136 26.545,22.2 C27.416,24.214 26.541,25.714 25.981,27.602 C25.744,28.39 26.887,29.167 27.442,28.454 C28.008,27.723 28.617,27.046 29.221,26.372 C29.479,26.366 29.733,26.241 29.908,25.944 C30.11,25.606 30.291,25.263 30.469,24.921 C30.641,24.708 30.813,24.499 30.975,24.278 C31.028,24.249 31.084,24.222 31.133,24.177 C31.862,23.532 32.164,23.005 32.33,22.044 C32.336,21.999 32.33,21.958 32.332,21.913 C32.367,21.833 32.403,21.753 32.436,21.669 C32.463,21.597 32.498,21.532 32.524,21.46 C32.877,20.46 31.469,20.038 30.926,20.786" id="Fill-17" fill="#FFE1C0"></path>
            <path d="M36.7854,42.8192 C36.4984,42.6802 36.2444,42.5792 35.9144,42.6532 C35.6094,42.7272 35.3614,42.9812 35.2774,43.2822 C35.2324,43.4442 35.2424,43.5942 35.2794,43.7372 C35.2794,43.7472 35.2754,43.7582 35.2754,43.7682 L35.2754,44.1572 C35.2754,45.1102 36.5234,45.2552 36.9104,44.5962 C37.0904,44.4422 37.2194,44.2292 37.2194,43.9622 L37.2194,43.7682 C37.2194,43.7312 37.2134,43.6982 37.2094,43.6612 C37.2404,43.3272 37.0974,42.9692 36.7854,42.8192" id="Fill-19" fill="#FFE1C0"></path>
            <path d="M35.3733,46.5868 L35.0123,46.5868 C33.8853,46.5868 33.8853,48.3348 35.0123,48.3348 L35.3733,48.3348 C36.5023,48.3348 36.5023,46.5868 35.3733,46.5868" id="Fill-21" fill="#FFE1C0"></path>
            <path d="M44.9026,46.7352 C44.7696,46.4232 44.5096,46.1982 44.1176,46.1982 C43.6876,46.1982 43.1816,46.5962 43.2446,47.0712 C43.2696,47.2842 43.2936,47.4952 43.4236,47.6712 C43.4556,47.7172 43.4926,47.7562 43.5276,47.7972 C43.6606,48.1102 43.9206,48.3352 44.3106,48.3352 C44.7426,48.3352 45.2486,47.9362 45.1856,47.4622 C45.1586,47.2492 45.1366,47.0382 45.0046,46.8622 C44.9746,46.8152 44.9356,46.7762 44.9026,46.7352" id="Fill-23" fill="#FFE1C0"></path>
            <path d="M40.5842,37.5165 C40.3422,37.7565 40.2812,38.1125 40.3872,38.4185 C40.3032,38.6575 40.3142,38.9285 40.4472,39.1575 C40.6892,39.5735 41.2302,39.7075 41.6452,39.4715 C42.0102,39.2645 42.3502,38.8795 42.2952,38.4245 C42.2502,38.0455 42.0882,37.7825 41.8202,37.5165 C41.4862,37.1765 40.9202,37.1785 40.5842,37.5165" id="Fill-25" fill="#FFE1C0"></path>
            <path d="M40.0862,25.9715 C40.3572,25.8995 40.5922,25.7355 40.7972,25.5045 C41.1212,25.8265 41.4842,26.1025 41.8652,26.3565 C41.2722,26.2315 40.6782,26.1045 40.0862,25.9715 M71.9572,32.1315 C70.8522,31.5755 69.7132,31.1045 68.5632,30.6625 C66.7072,29.5005 64.8562,28.6025 62.6562,28.3565 C60.8422,27.1965 58.7622,26.3895 56.7642,25.6415 C56.4362,25.5185 56.1072,25.3995 55.7812,25.2785 C54.0652,24.1255 52.3692,22.9615 50.6902,21.8935 C48.6992,20.6275 45.0182,16.9505 42.2462,17.1885 C42.3542,17.0655 42.4532,16.9385 42.5392,16.8115 C43.0532,16.0595 42.0682,15.2015 41.3442,15.6145 C40.9882,15.8175 40.6662,16.0575 40.3572,16.3095 C40.2992,16.3305 40.2382,16.3565 40.1782,16.3935 C38.9592,17.0985 38.1452,18.1165 37.4342,19.2395 C36.2682,20.2115 35.2482,21.2625 34.9432,22.6685 C34.1352,23.5555 33.7252,24.3525 34.3572,25.4985 C35.1042,26.8565 38.3092,27.6575 39.6722,28.0305 C40.8482,28.3525 42.0352,28.6315 43.2172,28.9245 C49.9812,30.8625 56.8262,32.3505 63.8772,32.7035 C64.1722,32.8115 64.4672,32.9165 64.7622,33.0225 C65.6972,33.4325 66.6392,33.8175 67.5922,34.1195 C68.4512,34.3895 69.0762,33.1375 68.4452,32.6295 C69.4672,33.1085 70.4362,33.5325 71.2832,33.7295 C72.2172,33.9485 72.8752,32.5925 71.9572,32.1315" id="Fill-27" fill="#EFC9A3"></path>
            <path d="M70.2913,15.2118 C70.7643,15.4088 71.2383,15.7628 71.6933,16.1958 C71.7643,16.3658 71.8423,16.5338 71.9283,16.6998 C71.2623,16.2878 70.6763,15.8078 70.2913,15.2118 M64.8483,22.3388 C64.2173,22.0088 63.6093,21.6528 63.0183,21.2508 C61.5103,20.2178 59.9823,19.1138 58.7443,17.7488 C59.4083,18.0708 60.0593,18.4268 60.6953,18.7938 C61.3383,19.2668 61.9923,19.7318 62.6353,20.2258 C63.5763,20.9458 64.5333,21.6868 65.5613,22.2548 C66.0233,22.7408 66.0373,22.9598 64.8483,22.3388 M80.4513,10.6728 C79.7503,10.5578 79.0333,10.7628 78.4943,11.4638 C77.8753,11.1418 77.1953,11.0168 76.5393,11.2238 C76.5253,11.2278 76.5183,11.2318 76.5043,11.2348 C75.9303,10.8838 75.3183,10.7528 74.7443,10.9888 C74.7033,11.0048 74.6743,11.0298 74.6333,11.0498 C73.9393,10.7998 73.5183,11.4738 73.6293,12.0638 C73.6293,12.0658 73.6273,12.0668 73.6273,12.0688 C73.2713,12.3098 73.0333,12.6198 72.8953,12.9718 C72.8423,12.9478 72.7913,12.9168 72.7343,12.8938 C72.2303,12.6828 71.6073,12.8168 71.4493,13.4168 C71.4143,13.5578 71.3873,13.6978 71.3653,13.8368 C70.5493,13.4008 69.6723,13.1958 68.7583,13.3878 C68.2483,13.4968 68.0863,14.0148 68.1463,14.4638 C68.1523,14.5108 68.1703,14.5538 68.1783,14.5988 C67.3533,14.1078 66.4863,13.6828 65.5293,13.3878 C65.0743,13.2488 64.6413,13.5358 64.4883,13.9388 C63.8323,13.6238 63.1503,13.3638 62.4223,13.1958 C62.2233,13.1478 62.0273,13.1768 61.8593,13.2488 C60.9863,12.8578 60.0663,12.6078 59.0803,12.5808 C58.7013,12.5708 58.4493,12.7708 58.3263,13.0458 C58.1033,13.0578 57.8853,13.0968 57.6683,13.1528 C57.2523,13.1078 56.8343,13.1028 56.4183,13.1458 C55.1913,13.2728 54.8243,13.8618 54.9773,14.6828 C54.4103,14.5868 53.8383,14.5228 53.2503,14.5248 C52.1233,14.5258 52.1233,16.2738 53.2503,16.2728 C54.1603,16.2708 55.0613,16.4148 55.9473,16.6608 C57.6023,19.0498 60.7873,21.8388 61.3673,22.2328 C62.8423,23.2428 64.6803,24.6868 66.5663,24.5688 C67.3893,24.5168 67.7973,23.8568 67.8503,23.1338 C68.2173,23.2118 68.5963,23.2608 68.9903,23.2688 C69.1093,23.2708 69.2153,23.2448 69.3093,23.2078 C69.9323,23.4868 70.5883,23.7018 71.2833,23.8188 C71.4203,23.8428 71.5453,23.8368 71.6623,23.8158 C72.4573,24.3758 73.2873,24.8818 74.1843,25.2878 C74.8633,25.5908 75.8203,24.9618 75.4533,24.2178 C75.6133,24.3138 75.7703,24.4168 75.9343,24.5088 C76.6133,24.8898 77.3403,24.2408 77.2443,23.6068 C77.3363,23.5728 77.4183,23.5228 77.4923,23.4618 C78.0413,23.7078 78.6213,23.9048 79.2503,24.0128 C79.9673,24.1378 80.6683,23.4388 80.2383,22.7298 C79.1523,20.9348 77.5663,19.6908 75.7703,18.6528 L75.7703,18.6498 C75.4733,18.1648 75.1153,17.6138 74.7093,17.0538 C74.9303,17.0208 75.1273,16.8938 75.2703,16.7138 C75.6053,16.9658 75.9673,17.1478 76.3363,17.2118 C76.4943,17.2408 76.6703,17.2328 76.8323,17.1888 C77.2713,17.3388 77.7563,17.2778 78.2503,16.9128 C78.9513,17.2548 79.7323,17.1668 80.2993,16.3138 C80.3223,16.2738 80.3363,16.2348 80.3593,16.1978 C80.9903,16.2548 81.6543,16.0258 82.2293,15.3568 C82.3553,15.2098 82.4493,15.0498 82.5163,14.8778 C82.5293,14.8618 82.5453,14.8528 82.5573,14.8348 C82.6373,14.7348 82.7013,14.6278 82.7563,14.5228 C83.9803,14.3898 84.6153,13.8038 83.9063,12.3818 C83.3543,11.2778 81.7013,10.4678 80.4513,10.6728" id="Fill-29" fill="#EFC9A3"></path>
            <path d="M29.6623,20.9852 C29.3833,20.4362 28.9393,20.0362 28.3053,19.8742 C27.0683,18.0082 25.3143,16.4262 23.3633,16.1102 C23.0173,16.0532 22.7343,16.1552 22.5433,16.3352 C21.8533,16.6332 21.9653,17.8812 22.8633,18.0102 C22.8653,18.0102 22.8673,18.0122 22.8693,18.0162 C22.4353,17.9772 22.6213,17.9222 22.9023,18.2272 C23.1193,18.4622 23.3343,18.6982 23.5393,18.9442 C24.1413,19.6712 24.7233,20.4112 25.2793,21.1712 C26.0313,22.1982 27.0043,23.3232 27.5493,24.5222 C26.8693,25.5692 26.5273,26.7922 26.7583,28.0672 C26.8493,28.5872 27.6113,28.9132 28.0413,28.5902 C28.6133,28.1592 29.1723,27.1652 29.5603,25.9912 C29.8593,25.3742 30.0373,24.7062 30.0293,23.9482 C30.0293,23.9442 30.0273,23.9402 30.0273,23.9362 C30.3263,23.3292 30.5983,22.7082 30.7733,22.0442 C30.9763,21.2902 30.2363,20.8392 29.6623,20.9852" id="Fill-31" fill="#EFC9A3"></path>
            <path d="M23.1682,85.0926 C22.6762,84.9736 22.2092,84.8176 21.7602,84.6416 C21.6762,84.4186 21.5042,84.2236 21.2252,84.1216 C20.4142,83.8246 19.6392,83.4756 18.8852,83.0826 C18.3462,82.6976 17.7972,82.3266 17.2442,81.9576 C16.4612,81.4016 15.6722,80.8366 14.8262,80.3226 C14.7012,80.2466 14.5762,80.1666 14.4492,80.0906 C14.1432,79.8156 13.8322,79.5456 13.5182,79.2836 C12.4942,78.4346 11.4692,77.5966 10.4142,76.7976 C8.4672,75.1316 6.5002,73.4886 4.3342,72.1626 C3.4842,71.6416 2.5572,72.8466 3.2752,73.5356 C4.5062,74.7156 5.3162,76.0356 6.6882,77.1126 C7.9822,78.1296 9.4572,78.9226 10.8182,79.8426 C11.7622,80.4796 12.7172,81.0906 13.6742,81.7016 C13.8792,81.8836 14.0822,82.0696 14.2832,82.2526 C16.4512,84.2336 18.5552,86.1276 21.3462,87.1686 C21.7912,87.3346 22.1882,87.0576 22.3572,86.6766 C22.4752,86.7076 22.5862,86.7506 22.7052,86.7786 C23.7992,87.0456 24.2662,85.3586 23.1682,85.0926" id="Fill-33" fill="#EFC9A3"></path>
            <path d="M114.3948,108.1668 C113.9438,106.7388 113.4808,105.3118 113.0138,103.8858 C113.6218,105.2568 114.1978,106.6418 114.7228,108.0498 C114.6118,108.0888 114.5018,108.1258 114.3948,108.1668 M107.5708,110.7798 C107.5548,110.3858 107.5198,109.9928 107.4628,109.6038 C107.6798,110.1848 107.8868,110.7708 108.0748,111.3638 C107.9318,111.1588 107.7678,110.9618 107.5708,110.7798 M103.3738,62.2448 C103.2658,62.1338 103.1628,62.0148 103.0528,61.9028 C103.2128,61.8698 103.3718,61.8248 103.5298,61.7838 C103.4608,61.9328 103.4088,62.0868 103.3738,62.2448 M100.3848,99.7448 C100.5688,99.6918 100.7468,99.6138 100.9108,99.5148 C101.1918,100.4538 101.4688,101.3988 101.7268,102.3548 C101.2678,101.4888 100.8208,100.6198 100.3848,99.7448 M92.7468,63.2688 C92.4318,62.7798 92.1038,62.2998 91.7778,61.8168 C91.8268,61.7428 91.8718,61.6648 91.9108,61.5868 C91.9608,61.9618 92.1178,62.3428 92.4198,62.7018 C92.5488,62.8508 92.6718,63.0048 92.8008,63.1568 C92.7818,63.1938 92.7618,63.2308 92.7468,63.2688 M131.7538,80.0008 C130.3208,77.5968 129.0608,75.1138 127.7498,72.6528 C127.4218,71.9128 127.0878,71.1748 126.7348,70.4478 C126.1898,69.3328 125.6368,68.1238 125.0278,66.9208 C124.5878,65.4498 124.1508,63.9778 123.7168,62.5068 C122.9358,59.8698 122.1078,56.9348 120.4868,54.6648 C118.8438,52.3618 117.3928,51.6028 114.7598,52.2978 C110.5688,51.9988 106.3208,51.3388 102.2598,52.6828 C101.9128,52.7978 101.6138,53.0128 101.3738,53.2818 C99.6658,53.2998 97.9868,53.4328 96.3808,53.7568 C96.2058,53.7158 96.0318,53.6768 95.8558,53.6418 C92.1508,52.8678 88.5468,52.3118 84.7698,52.8778 C84.3418,52.9418 84.0118,53.1508 83.7738,53.4348 C83.5768,53.4698 83.3828,53.5398 83.2018,53.6298 C82.4828,53.2878 81.7758,52.9248 81.0958,52.5008 C80.5258,52.1588 79.9708,52.1278 79.4968,52.2898 C79.2908,52.1378 79.1038,52.0088 78.9588,51.9168 C78.3928,51.5648 77.8208,51.5498 77.3228,51.7308 C75.5728,51.4778 73.8748,53.6848 75.5158,55.1218 C76.7858,56.2348 77.4318,58.9228 78.0298,60.4228 C78.8398,62.4578 79.6198,64.5048 80.4108,66.5498 C81.9588,70.5598 83.5688,74.5438 85.2348,78.5048 C86.5198,81.5538 87.8658,84.5768 89.2738,87.5668 C90.4128,92.3618 92.1198,96.9808 94.2498,101.4478 C94.5178,102.2898 94.7838,103.1238 95.0398,103.9458 C96.4128,108.3858 97.6468,112.9128 100.9828,116.3188 C101.7268,117.0808 102.8338,116.9248 103.5078,116.2298 C104.2058,116.6958 105.1178,116.8128 106.3538,116.3118 C106.8988,116.0908 107.3458,115.7838 107.7018,115.4288 C110.0178,115.7938 113.0098,115.1998 114.5378,114.8268 C114.9708,114.7218 115.4128,114.5928 115.8518,114.4478 C118.7488,113.9598 121.4218,112.4288 123.9728,111.1118 C124.8168,110.6768 125.7328,110.2038 126.5768,109.6418 C127.1328,109.3428 127.6658,109.0578 128.1678,108.8208 C132.2108,106.9188 136.9418,104.7838 139.0958,100.6158 C139.3268,100.1688 139.3578,99.6458 139.2188,99.1848 C139.2408,99.1438 139.2678,99.1028 139.2898,99.0618 C139.4478,98.7648 139.5098,98.4638 139.5078,98.1728 C139.6268,97.9478 139.7058,97.6878 139.7228,97.3988 C139.9008,94.4948 138.4708,91.6958 137.0648,89.2408 C135.2968,86.1588 133.5748,83.0538 131.7538,80.0008" id="Fill-35" fill="#842A12"></path>
            <path d="M126.7795,96.2977 C124.9515,95.9617 124.0025,98.2137 124.9905,99.2277 C123.0195,100.7607 120.8365,102.0437 118.6405,103.1377 C116.5845,104.1607 114.3905,105.0577 112.1815,105.3117 C112.1955,105.2857 112.2135,105.2607 112.2265,105.2357 C115.5585,103.6457 118.4475,101.1767 120.5335,97.9167 C124.5065,91.7057 125.3305,84.7177 125.4965,77.6087 C126.5455,81.8077 127.2975,86.0767 127.6745,90.4067 C127.6855,90.5417 127.7115,90.6687 127.7465,90.7897 C127.5685,93.0397 127.2095,96.3757 126.7795,96.2977 M104.2035,108.4777 C104.0025,108.0887 103.7695,107.6957 103.5135,107.3037 C103.6195,107.2997 103.7225,107.2937 103.8265,107.2857 C103.8925,107.3227 103.9595,107.3587 104.0235,107.3917 C104.3885,107.7767 104.7485,108.1627 105.1095,108.5457 C104.8005,108.5377 104.4985,108.5127 104.2035,108.4777 M133.6215,88.1317 C133.4435,86.6957 133.1725,85.4267 132.8575,84.4987 C132.5975,83.7317 131.9885,83.3637 131.3515,83.3057 C131.3065,82.2817 131.2055,81.2647 130.9685,80.2817 C130.5745,78.6497 129.6135,77.1067 129.4225,75.4427 C129.3245,74.5887 128.7445,74.0657 128.0825,73.8657 C126.1525,67.0317 123.5095,60.3957 120.4395,53.9617 C119.6665,52.3407 117.1815,53.1927 117.1815,54.8467 L117.1815,55.8157 C117.1815,56.6117 117.6195,57.1217 118.1815,57.3547 C119.4255,60.0437 120.5805,62.7797 121.6405,65.5517 C121.5805,65.5437 121.5215,65.5317 121.4555,65.5317 C119.1995,65.5317 119.1995,69.0297 121.4555,69.0297 C122.0195,69.0297 122.4415,68.8137 122.7225,68.4857 C123.0235,69.3347 123.3245,70.1887 123.6035,71.0457 C122.7955,71.1197 122.0375,71.6747 122.0395,72.7237 C122.0455,80.1317 122.2795,88.1097 118.3865,94.7277 C115.4535,99.7097 110.9535,102.9407 105.3615,103.6547 C103.6075,101.7177 101.8475,99.8487 100.3885,97.6627 C97.5865,93.4577 95.4065,88.8617 93.3515,84.2547 C89.2595,75.0807 85.8965,65.5707 80.7995,56.8777 C79.6585,54.9327 76.6345,56.6937 77.7775,58.6417 C81.4845,64.9597 84.2265,71.7177 87.0415,78.4437 C87.0115,78.6767 87.0335,78.9347 87.1235,79.2117 C88.1645,82.3507 89.1525,85.5067 90.1585,88.6587 C90.5085,90.8897 91.3185,93.0277 92.2715,95.1047 C92.6295,96.1647 92.9825,97.2257 93.3555,98.2797 C95.1755,103.4107 96.7995,108.8157 100.3985,113.0167 C101.0095,113.7317 102.0645,113.6457 102.7425,113.1197 C102.9635,113.1217 103.1835,113.1027 103.4125,113.0377 C104.1425,112.8387 104.5885,112.4637 104.8125,111.9717 C105.8985,111.9307 107.0505,111.8247 108.1915,111.6217 C108.6915,111.9857 109.2485,112.2877 109.9145,112.4947 C111.3495,112.9407 112.2325,111.5967 112.0335,110.4517 C113.1385,109.9307 114.1335,109.2467 114.9205,108.3547 C114.9275,108.3447 114.9355,108.3327 114.9435,108.3227 C116.1055,108.0247 117.2585,107.6197 118.3815,107.1257 C118.8045,107.2977 119.2995,107.3097 119.8125,107.0707 C121.6175,106.2357 123.2935,105.2277 124.8225,104.0617 C125.0955,104.2837 125.4595,104.4207 125.9255,104.3977 C132.7875,104.0457 136.5785,95.3877 134.9965,89.3587 C134.7935,88.5807 134.2325,88.2037 133.6215,88.1317" id="Fill-37" fill="#6B1505"></path>
            <path d="M120.2893,69.0301 C119.6543,69.0301 119.1233,69.5611 119.1233,70.1961 L119.1233,70.5851 C119.1233,71.2191 119.6543,71.7511 120.2893,71.7511 C120.9263,71.7511 121.4553,71.2191 121.4553,70.5851 L121.4553,70.1961 C121.4553,69.5611 120.9263,69.0301 120.2893,69.0301" id="Fill-39" fill="#6B1505"></path>
            <path d="M117.5686,67.0887 C116.0666,67.0887 116.0666,69.4187 117.5686,69.4187 C119.0726,69.4187 119.0726,67.0887 117.5686,67.0887" id="Fill-41" fill="#6B1505"></path>
            <path d="M115.6252,58.3426 C114.9902,58.3426 114.4592,58.8716 114.4592,59.5086 L114.4592,59.7036 C114.4592,60.3386 114.9902,60.8676 115.6252,60.8676 C116.2622,60.8676 116.7912,60.3386 116.7912,59.7036 L116.7912,59.5086 C116.7912,58.8716 116.2622,58.3426 115.6252,58.3426" id="Fill-43" fill="#6B1505"></path>
            <path d="M110.9631,78.5516 C110.3261,78.5516 109.7971,79.0826 109.7971,79.7176 L109.7971,79.9126 C109.7971,80.5476 110.3261,81.0766 110.9631,81.0766 C111.5981,81.0766 112.1291,80.5476 112.1291,79.9126 L112.1291,79.7176 C112.1291,79.0826 111.5981,78.5516 110.9631,78.5516" id="Fill-45" fill="#6B1505"></path>
            <path d="M111.9299,84.5887 C111.8679,84.3287 111.7349,84.0807 111.5239,83.8857 C111.5319,83.6097 111.5299,83.3367 111.5159,83.0597 C111.9179,83.1177 112.2929,83.0357 112.5959,82.8137 C112.4439,83.4387 112.2289,84.0357 111.9299,84.5887 M104.2229,72.2647 C104.2149,72.2217 104.2189,72.1847 104.2069,72.1417 C103.7439,70.3507 102.5119,68.8697 101.2289,67.5227 C103.2989,69.4717 105.2799,71.5207 107.0179,73.7527 C107.0839,73.8387 107.1589,73.9107 107.2349,73.9697 C107.2559,74.0767 107.2779,74.1847 107.2969,74.2917 C107.4379,75.0617 107.5839,76.0477 107.7889,77.0827 C106.7029,75.4107 105.4629,73.8097 104.2229,72.2647 M103.8949,77.0577 C102.9219,75.8817 101.9589,74.6977 101.0139,73.4967 C101.2309,73.6007 101.4509,73.6907 101.6779,73.7627 C102.6249,74.9477 103.5469,76.1527 104.4139,77.4047 C104.9179,78.1317 106.0299,79.4757 106.8519,80.8327 C105.7409,79.6217 104.7869,78.1337 103.8949,77.0577 M99.5689,61.6097 C99.9359,61.8267 100.2969,62.0357 100.6489,62.2237 C100.6819,62.2427 100.7169,62.2627 100.7519,62.2797 C100.7599,62.3877 100.7779,62.4987 100.8129,62.6157 C100.8379,62.7037 100.8689,62.7897 100.8969,62.8757 C100.4529,62.4537 100.0099,62.0337 99.5689,61.6097 M105.2369,64.4017 C105.3929,65.3017 105.5749,66.2017 105.7639,67.1007 C105.6799,66.9017 105.5939,66.6977 105.5059,66.4987 C105.3419,65.9387 105.2479,65.3617 105.2309,64.7567 C105.2249,64.6177 105.2009,64.4927 105.1699,64.3757 C105.1919,64.3837 105.2129,64.3917 105.2369,64.4017 M110.9849,54.5617 C110.7329,54.4067 110.4359,54.3547 110.1369,54.3837 C110.0879,54.3757 110.0429,54.3637 109.9909,54.3587 C105.3229,53.9437 100.6489,53.6337 95.9999,54.4107 C95.6569,54.4677 95.4029,54.6437 95.2289,54.8797 C94.8049,54.8997 94.3809,54.9407 93.9589,55.0107 C92.9729,54.9737 91.9849,54.9407 90.9979,54.9437 C90.4379,54.9457 89.2349,54.9927 87.8659,54.9797 C87.7759,54.9047 87.6939,54.8227 87.6039,54.7527 C86.9629,54.2647 86.3339,54.4517 85.9359,54.9127 C85.5669,54.8877 85.2029,54.8567 84.8519,54.8157 C84.6799,54.6767 84.5019,54.5477 84.3399,54.4017 C83.1099,53.3097 81.8229,52.0687 80.0669,52.2237 C79.0779,52.3077 78.4689,53.0827 78.6599,54.0677 C79.0749,56.1847 81.2779,57.1137 83.7149,57.5267 C84.3809,57.9187 85.0979,58.2607 85.7369,58.6437 C86.6099,59.1667 87.4609,59.7077 88.3029,60.2647 C88.5119,60.6277 88.7149,60.9717 88.9139,61.2727 C89.0729,61.5047 89.2289,61.7347 89.3829,61.9677 C91.8479,67.0847 94.7739,72.0007 98.4439,76.3527 C101.1839,79.6027 104.1569,83.3427 107.9959,85.4107 C108.0549,85.6587 108.1209,85.9027 108.1979,86.1277 C108.3619,86.6197 108.7349,86.9517 109.1619,87.1007 C108.4999,87.2647 107.7819,87.1767 107.0369,86.6907 C106.1229,86.0947 105.3849,85.4617 104.6099,84.7097 C103.2559,83.4067 101.1939,85.4657 102.5489,86.7727 C105.8129,89.9227 109.8249,91.6767 113.2969,87.8077 C114.9939,85.9147 115.7929,83.0187 115.9529,80.2707 C116.8619,80.8817 118.2109,80.4457 118.2499,79.1337 C118.4889,71.0417 116.3279,62.4537 113.7289,54.8467 C113.2659,53.4887 111.5059,53.6217 110.9849,54.5617" id="Fill-47" fill="#B72E13"></path>
            <path d="M112.1565,44.6024 C112.0845,44.4954 112.0115,44.3854 111.9415,44.2764 C112.1295,44.2454 112.2775,44.1394 112.3815,43.9894 C112.5375,44.3664 112.6815,44.7474 112.8125,45.1314 C112.6015,44.9424 112.3855,44.7624 112.1565,44.6024 M90.0565,35.9264 C90.0515,35.8504 90.0435,35.7744 90.0515,35.7024 C90.0525,35.6844 90.4905,35.9404 91.1155,36.3154 C91.1935,36.4594 91.2735,36.6024 91.3615,36.7504 C90.9395,36.4524 90.5045,36.1724 90.0565,35.9264 M73.6525,40.6984 C73.2955,40.1704 72.7285,39.7414 72.0275,39.4054 C72.7715,39.6104 73.4455,39.8604 73.9985,40.1494 C74.0725,40.2954 74.1545,40.4404 74.2525,40.5884 C74.0625,40.6354 73.8655,40.6744 73.6525,40.6984 M72.3985,43.7294 C72.4655,43.6434 72.5135,43.5384 72.5475,43.4324 C72.6355,43.4524 72.7265,43.4714 72.8145,43.4894 C72.8145,43.5844 72.8305,43.6824 72.8595,43.7764 C72.7055,43.7624 72.5525,43.7434 72.3985,43.7294 M112.2245,39.6964 C111.7545,38.7024 111.3145,37.6534 110.7895,36.6664 C109.9165,34.1234 107.9065,31.3684 105.3265,31.6234 C104.9555,31.6614 104.6195,31.8724 104.5005,32.2134 C103.9575,32.1084 103.4275,32.1004 102.9575,32.2394 C102.7875,32.2884 102.6465,32.3814 102.5415,32.5044 C101.9145,32.2214 101.3265,32.1064 100.8405,32.2474 C99.9685,31.7624 98.9165,31.3724 98.2715,31.9914 C98.1725,32.0864 98.0925,32.1884 98.0275,32.2954 C97.9245,32.2954 97.8205,32.2994 97.7175,32.3054 C96.8655,31.8934 96.0585,31.7234 95.3985,31.9364 C94.2115,31.5534 93.0955,31.5844 92.2735,32.2684 C91.9695,32.5204 91.7775,32.8214 91.6835,33.1574 C91.5565,33.1884 91.4315,33.2294 91.3145,33.2894 C90.9165,33.5004 90.6955,33.8074 90.6095,34.1764 C89.8695,34.0754 89.1855,34.1984 88.6485,34.7234 C88.4985,34.8704 88.3965,35.0384 88.3205,35.2174 C87.8985,35.1104 87.4695,35.0454 87.0275,35.0454 C86.7875,35.0124 86.5495,35.0104 86.3145,35.0494 C85.3675,35.2024 85.0315,35.7194 85.0235,36.3724 C83.3325,36.4774 81.6625,37.0494 80.0275,37.4854 C79.9225,37.5144 79.8345,37.5594 79.7565,37.6164 C79.1565,37.5984 78.5865,37.5984 78.0685,37.6414 L69.4165,34.1804 C68.4985,33.8134 67.8425,35.3774 68.7425,35.7784 C69.0025,35.8934 69.2565,36.0164 69.5135,36.1334 C69.1195,36.2764 68.8385,36.7274 68.8965,37.1334 C68.1775,37.1024 67.4555,37.1204 66.7655,37.2314 C64.6955,37.1634 62.3495,37.3794 61.1815,38.8754 C60.8225,39.3364 60.8515,39.9054 61.3595,40.2484 L61.3615,40.2504 C61.2175,40.4304 61.1355,40.6224 61.1115,40.8214 C61.0685,40.8404 61.0135,40.8544 60.9705,40.8754 C60.6015,41.0554 60.5025,41.4594 60.5785,41.8214 C60.3795,41.8544 60.1895,41.8954 60.0135,41.9544 C59.6015,42.0884 59.2155,42.5734 59.4025,43.0304 C60.6115,45.9914 64.6425,49.1104 67.7875,49.6634 C68.3265,49.7584 68.7695,49.4344 68.8595,48.9834 C70.0235,49.0594 71.1835,49.1924 72.3385,49.3584 C73.5255,50.5184 75.5665,50.6924 77.0585,51.0614 C80.3795,51.8814 83.7795,52.3664 87.1155,53.1144 C91.4695,54.0884 96.3105,55.3774 100.5215,53.2684 C100.6175,53.2214 100.6895,53.1634 100.7545,53.1004 C101.3655,52.9754 101.9785,52.8624 102.6075,52.8054 C103.0545,52.7624 103.3205,52.4564 103.4105,52.1084 C105.6835,52.4284 107.9315,52.5884 110.2225,51.8034 C110.4905,51.7094 110.6745,51.5264 110.7735,51.3094 C110.9535,51.2954 111.1295,51.2804 111.3015,51.2644 C111.4395,51.2844 111.5645,51.2624 111.6745,51.2154 C112.3495,51.1234 112.9555,50.9754 113.4535,50.7524 C114.0085,51.0864 114.5885,51.3254 115.1995,51.4134 C115.6295,51.4754 116.1895,51.3134 116.2755,50.8034 C116.7185,48.1234 115.3515,44.6904 113.3435,42.0184 C112.9745,41.2434 112.5925,40.4734 112.2245,39.6964" id="Fill-49" fill="#FFE1C0"></path>
            <path d="M130.7463,104.9442 C126.3323,109.2192 120.6313,112.4952 114.4593,113.2372 C113.3553,113.3702 113.3423,115.1222 114.4593,114.9872 C121.1193,114.1842 127.2033,110.8092 131.9823,106.1802 C132.7953,105.3952 131.5583,104.1592 130.7463,104.9442" id="Fill-51" fill="#FFE1C0"></path>
            <path d="M140.51,62.786 C140.088,61.321 139.604,59.878 138.922,58.485 C138.799,58.233 138.586,58.11 138.36,58.073 C138.18,57.329 137.994,56.585 137.803,55.843 C137.651,54.958 137.489,54.079 137.297,53.202 C136.932,51.532 136.537,49.626 135.59,48.124 C135.367,47.69 135.121,47.278 134.856,46.89 C135.543,46.059 134.543,44.302 134.11,43.651 C133.514,42.759 132.213,41.083 130.994,41.671 C129.764,41.118 128.375,40.966 127.744,41.804 C126.194,42.038 124.664,42.696 123.752,43.538 C123.565,43.712 123.487,43.932 123.494,44.149 C123.336,44.194 123.178,44.237 123.022,44.288 C122.975,44.245 122.924,44.21 122.869,44.181 C121.442,43.468 120.295,43.895 119.584,44.811 C119.397,44.647 119.198,44.499 118.981,44.374 C118.391,44.032 117.692,44.474 117.666,45.13 C117.649,45.573 117.668,46.036 117.717,46.509 C117.42,46.819 117.326,47.309 117.729,47.69 C117.813,47.77 117.891,47.85 117.971,47.934 C118.383,49.583 119.203,51.171 120.449,52.159 C121.112,52.686 122.131,52.22 121.91,51.309 C121.74,50.602 121.481,49.929 121.149,49.298 C121.217,48.862 121.229,48.411 121.174,47.962 C122.772,47.727 124.262,46.698 125.768,46.167 C126.268,45.991 126.438,45.565 126.367,45.184 C126.821,45.12 127.264,44.997 127.688,44.817 C128.399,45.284 129.162,45.796 129.973,45.987 C130.338,46.073 130.836,46.104 131.307,46.19 C131.362,46.204 131.416,46.22 131.471,46.231 C131.883,46.597 132.34,46.915 132.813,47.112 C132.881,47.196 132.953,47.28 133.02,47.368 C133.012,47.47 133.02,47.577 133.049,47.692 C133.518,49.442 134.074,51.243 135.067,52.77 C136.131,56.804 136.526,60.981 137.713,64.989 C137.821,65.352 138.082,65.54 138.367,65.589 C138.547,66.29 138.735,66.991 138.932,67.686 C138.727,67.784 138.559,67.956 138.49,68.214 C138.459,68.329 138.426,68.44 138.393,68.552 C138.223,68.577 138.063,68.655 137.938,68.802 C136.492,70.479 135.502,72.614 135.543,74.86 C135.547,75.003 135.59,75.128 135.649,75.241 C135.635,75.266 135.617,75.294 135.602,75.319 C135.43,75.417 135.28,75.569 135.186,75.794 C134.889,76.511 134.653,77.02 134.41,77.737 C134.332,77.962 134.354,78.163 134.434,78.329 C134.178,79.335 134.03,80.345 133.989,81.272 C133.94,82.405 135.662,82.388 135.739,81.272 C135.776,80.722 135.86,80.184 135.967,79.655 L136.26,79.366 C136.483,79.143 136.543,78.888 136.504,78.651 C137.629,76.862 139.389,75.573 139.914,73.431 C140.309,72.757 140.606,72.018 140.789,71.255 C142.903,69.581 141.92,64.804 140.67,62.954 C140.627,62.888 140.569,62.837 140.51,62.786" id="Fill-53" fill="#FFE1C0"></path>
            <path d="M97.5959,57.7684 C97.4919,57.6374 97.3729,57.5104 97.2189,57.3954 C96.6759,56.9834 95.8929,57.5414 95.9029,58.1474 C95.9119,58.7484 95.9939,59.4384 96.2949,59.9834 C96.2949,60.0184 96.2929,60.0554 96.2929,60.0924 C96.2799,61.0244 97.4709,61.1824 97.8929,60.5734 C98.0939,60.4144 98.2349,60.1764 98.2349,59.8974 C98.2349,59.2664 98.1779,58.6784 97.9219,58.0964 C97.8559,57.9464 97.7349,57.8384 97.5959,57.7684" id="Fill-55" fill="#EFC9A3"></path>
            <path d="M97.4358,65.8934 C97.4148,65.8624 97.4088,65.8464 97.3988,65.8294 C97.4158,65.8734 97.4438,65.9594 97.4568,66.1164 C97.4498,66.0044 97.4218,65.9014 97.3828,65.8034 L97.3828,65.7994 C97.2538,65.4774 96.9728,65.2414 96.5838,65.2414 C96.1368,65.2414 95.6678,65.6394 95.7088,66.1164 C95.7148,66.1804 95.7208,66.2434 95.7328,66.3074 C95.7168,66.3724 95.7068,66.4384 95.7088,66.5044 C95.7208,67.2894 96.3698,67.8384 97.1368,67.5084 C97.6038,67.3034 97.7208,66.7524 97.6058,66.3014 C97.5708,66.1594 97.5198,66.0144 97.4358,65.8934" id="Fill-57" fill="#EFC9A3"></path>
            <path d="M97.3831,65.8036 C97.3851,65.8076 97.3951,65.8236 97.3991,65.8286 C97.3851,65.7976 97.3771,65.7836 97.3831,65.7996 L97.3831,65.8036 Z" id="Fill-59" fill="#EFC9A3"></path>
            <path d="M104.6018,66.9149 C104.3478,66.7759 104.1158,66.5279 103.8208,66.4779 C103.7948,66.4739 103.7738,66.4759 103.7478,66.4739 C103.6348,66.4169 103.5138,66.3899 103.3828,66.4069 C102.7798,66.4849 102.3438,66.8369 102.3148,67.4759 C102.2858,68.1379 102.9498,68.4439 103.4848,68.2699 C103.5628,68.3249 103.6368,68.3799 103.7208,68.4249 C104.1388,68.6529 104.6698,68.5319 104.9158,68.1119 C105.1528,67.7099 105.0218,67.1439 104.6018,66.9149" id="Fill-61" fill="#EFC9A3"></path>
            <path d="M120.0432,108.4989 L119.9022,108.5749 C119.4732,108.6099 119.2092,108.8919 119.1072,109.2159 C117.2272,110.4289 114.5532,110.7199 112.5122,111.4399 C109.6522,112.4499 106.8592,113.6399 103.9302,114.4349 C102.9652,114.6979 103.1802,116.1359 104.1602,116.1529 C104.3422,116.1549 104.5222,116.1529 104.7012,116.1489 C104.7322,116.6509 105.1272,117.1079 105.7542,116.8989 C105.9492,116.8329 106.1432,116.7699 106.3362,116.7059 C106.4142,116.6789 106.4802,116.6439 106.5432,116.6059 C108.1952,116.0299 109.9062,115.6439 111.5572,115.0609 C113.7952,114.4109 115.9712,113.5219 118.0102,112.5359 C118.4812,112.3099 118.5372,111.8429 118.3592,111.4679 C119.3562,111.0969 120.2972,110.6159 121.1022,109.8719 C121.8422,109.1879 120.8932,108.0029 120.0432,108.4989" id="Fill-63" fill="#EFC9A3"></path>
            <path d="M139.3889,64.3485 C138.8229,59.8405 137.0509,55.4525 135.8029,51.0595 C135.3809,49.2465 134.8439,47.4895 133.8689,45.8525 C133.2929,44.8855 131.7819,45.7645 132.3599,46.7355 C133.1369,48.0415 133.6179,49.4595 133.9929,50.9145 C133.9929,50.9285 133.9889,50.9425 133.9889,50.9575 C134.1309,54.3645 135.3379,57.5785 136.1619,60.8405 C136.4419,62.3465 136.6939,63.8605 136.9359,65.3755 C136.9889,65.7155 137.2229,65.9055 137.4979,65.9715 C137.1759,67.4695 137.3189,69.0615 137.4869,70.5845 C137.5369,71.0455 137.9219,71.3625 138.3169,71.4325 C138.2659,71.6555 138.2109,71.8775 138.1509,72.0985 C137.9009,72.0555 137.6309,72.1145 137.4159,72.2915 C137.0939,71.7665 136.0669,71.7055 135.7699,72.4915 C134.9979,74.5285 134.4009,76.6085 133.8269,78.7075 C133.6919,79.2035 134.0059,79.6065 134.4069,79.7505 C134.5079,80.6535 135.9199,80.9675 136.0959,79.9505 C136.0999,79.9285 136.1019,79.9115 136.1059,79.8935 C136.2229,79.8235 136.3249,79.7215 136.3969,79.5775 C136.6289,79.1025 136.8539,78.6295 137.0709,78.1555 C139.7949,74.8155 141.5179,68.5265 139.5039,64.5085 C139.4749,64.4505 139.4339,64.3975 139.3889,64.3485" id="Fill-65" fill="#EFC9A3"></path>
            <path d="M120.3967,46.4286 C119.8417,46.3776 119.2347,46.8116 119.4457,47.4986 C119.5847,47.9486 119.6077,48.4166 119.6097,48.8856 L119.6097,49.4056 C119.6117,50.5326 121.3597,50.5326 121.3597,49.4056 L121.3597,47.2666 C121.3597,46.6626 120.8617,46.3876 120.3967,46.4286" id="Fill-67" fill="#EFC9A3"></path>
            <path d="M107.7913,41.9344 C107.6843,41.6764 107.5923,41.4264 107.5313,41.1904 C107.5183,41.1414 107.8093,41.3054 108.1563,41.5224 C108.1623,41.5714 108.1623,41.6184 108.1763,41.6704 C108.2403,41.9134 108.3203,42.1594 108.4043,42.4074 C108.2133,42.2564 108.0083,42.0984 107.7913,41.9344 M108.1643,38.6684 C108.2253,38.9014 108.2993,39.1314 108.3813,39.3604 C108.0663,39.2544 107.7543,39.2054 107.4473,39.2214 C107.6803,39.0244 107.9163,38.8364 108.1643,38.6684 M104.2403,41.9544 C104.2753,41.9304 104.3073,41.9034 104.3423,41.8794 C104.8833,42.0044 105.4733,42.2604 106.0803,42.6144 C106.1563,42.7784 106.2383,42.9484 106.3283,43.1164 C105.6643,42.6844 104.9653,42.2744 104.2403,41.9544 M96.4943,42.7914 C96.3143,42.8174 96.1333,42.8404 95.9533,42.8734 C95.4983,42.8404 95.0353,42.8444 94.5623,42.8874 C94.5413,42.8584 94.5183,42.8294 94.4923,42.8014 C95.1763,42.7664 95.8593,42.7524 96.5433,42.7664 C96.5253,42.7744 96.5103,42.7844 96.4943,42.7914 M91.9963,47.9504 C91.4323,47.9074 90.8653,47.8794 90.2993,47.8774 L90.5163,47.7724 C90.7853,47.7564 91.0533,47.7414 91.3203,47.7254 C91.5573,47.8014 91.7953,47.8714 92.0373,47.9424 C92.0233,47.9464 92.0103,47.9484 91.9963,47.9504 M88.8113,46.2024 C88.5623,46.2334 88.3183,46.2644 88.0743,46.3054 C88.0863,46.2434 88.1003,46.1804 88.1093,46.1204 C88.3593,46.1204 88.6113,46.1164 88.8593,46.1044 C88.8443,46.1394 88.8223,46.1684 88.8113,46.2024 M81.3073,48.0794 C81.2383,48.0364 81.1623,47.9984 81.0743,47.9794 C80.4733,47.8444 79.8733,47.7074 79.2733,47.5734 C79.4223,47.5534 79.5723,47.5414 79.7193,47.5184 C80.6273,47.5804 81.5333,47.5654 82.4243,47.4284 C82.4713,47.4304 82.5183,47.4344 82.5643,47.4384 C82.1973,47.7484 81.7773,47.9614 81.3073,48.0794 M78.3933,45.1204 C76.9303,44.8994 75.4863,44.6254 74.0393,44.4094 C74.3363,44.3874 74.6273,44.3684 74.9083,44.3464 C75.8013,44.2784 76.9023,44.2214 78.0493,44.0924 C78.1393,44.6004 78.5613,44.8564 79.0023,44.7954 C79.0183,44.9814 79.0803,45.1334 79.1743,45.2544 C78.8963,45.2024 78.6333,45.1554 78.3933,45.1204 M111.9883,42.1374 C111.8163,40.3874 111.2773,38.4634 110.0843,37.1454 C110.0083,36.6274 109.5683,36.1184 108.9803,36.3194 C108.9653,36.3254 108.9513,36.3304 108.9363,36.3364 C108.5903,36.2894 108.2443,36.4164 108.0703,36.7074 C107.6463,36.9224 107.2563,37.1764 106.8813,37.4594 C106.8053,37.4594 106.7293,37.4634 106.6503,37.4854 C103.9303,38.1964 101.7813,39.8664 99.3813,41.2414 C96.0293,40.8664 92.6563,41.0124 89.3893,41.7474 C88.9393,40.3894 87.9393,39.1744 86.6503,39.1394 C86.5043,39.1334 86.3653,39.1454 86.2293,39.1634 C86.0783,38.9934 85.9163,38.8304 85.7363,38.6804 C85.3953,38.3974 84.8283,38.2934 84.5003,38.6804 C84.4513,38.7394 84.4103,38.8074 84.3653,38.8714 C84.0453,38.7824 83.6913,38.7894 83.2993,38.9204 C82.8673,39.0674 82.5573,39.3704 82.3443,39.7824 C79.2113,40.2074 76.1463,40.9224 72.9693,41.0534 C71.1843,41.1254 68.6873,41.0864 67.3013,42.4404 C66.4863,42.1044 65.6993,41.7154 64.9533,41.2294 C64.1193,40.6824 63.3933,40.2214 62.3833,40.1744 C61.5823,40.1354 61.2773,41.1334 61.7663,41.6664 C61.8813,41.7934 62.0083,41.9054 62.1313,42.0204 C61.9373,42.0474 61.7483,42.0864 61.5683,42.1494 C61.0023,42.3464 60.6413,43.1574 61.1823,43.6104 C61.2283,43.6514 61.2773,43.6864 61.3263,43.7254 C61.2993,44.0044 61.4123,44.3034 61.7483,44.5244 C64.6213,46.4054 67.4263,48.5384 70.8383,49.3304 C73.2703,49.8954 75.6823,50.1514 78.1173,50.0184 C79.0023,50.1164 79.9083,50.1514 80.7603,50.0594 C80.7073,50.3174 80.7683,50.5924 81.0043,50.7994 C82.5923,52.2074 84.7343,52.0654 86.7013,52.4734 C89.4923,53.0494 92.3853,53.3524 95.2233,53.5804 C96.3483,53.6704 96.3383,51.9224 95.2233,51.8324 C93.9963,51.7354 92.7773,51.5924 91.5613,51.4324 C92.2133,51.3794 92.8483,51.3194 93.4413,51.2894 C96.5163,51.1294 99.5313,51.2544 102.5183,50.5434 C103.7133,50.6044 104.9103,50.6534 106.1043,50.6664 C106.5023,50.6704 106.7563,50.4614 106.8733,50.1864 C107.4363,50.3604 108.0063,50.5184 108.5923,50.6354 C109.0083,50.7174 109.3203,50.5614 109.5003,50.3134 C109.9043,50.4974 110.3123,50.6704 110.7303,50.8304 C111.4393,51.1004 111.8423,50.4614 111.7643,49.8714 C111.9473,49.8914 112.1333,49.9014 112.3223,49.8914 C112.4223,49.8834 112.5183,49.8564 112.6073,49.8194 C113.1023,49.9774 113.5643,49.7294 113.7153,49.2884 C113.7543,49.2954 113.7953,49.3014 113.8363,49.3054 C114.1293,49.6124 114.4393,49.9034 114.7973,50.1594 C115.2953,50.5164 115.8963,50.1184 116.0803,49.6374 C116.8383,47.6614 114.3963,44.1644 111.9883,42.1374" id="Fill-69" fill="#EFC9A3"></path>
            <g id="Group-73" transform="translate(69.000000, 0.195000)">
                <mask id="mask-2" fill="white">
                    <use xlink:href="#path-1"></use>
                </mask>
                <g id="Clip-72"></g>
                <path d="M2.8049,3.8859 C2.2819,3.9469 2.1549,3.6109 1.8339,3.4679 C1.7759,2.6709 1.9939,2.1499 2.5279,1.9409 C3.6019,1.8719 3.2349,3.5169 2.8049,3.8859 M2.8049,0.8309 C0.4119,0.3919 0.1569,5.5989 3.0839,4.7179 C4.5689,4.2689 4.4809,1.1419 2.8049,0.8309" id="Fill-71" fill="#3F1D1D" mask="url(#mask-2)"></path>
            </g>
            <path d="M75.553,4.7723 C75.266,5.2823 75.037,5.7743 75.414,6.2993 C76.586,6.4953 77.082,5.5303 76.524,4.7723 C75.971,4.6963 76.108,4.6963 75.553,4.7723" id="Fill-74" fill="#3F1D1D"></path>
            <path d="M104.5569,14.7645 C104.5199,14.5715 104.2519,14.6065 104.1389,14.4875 C104.1139,13.6765 104.4979,13.2765 105.2499,13.2395 C105.5689,13.8055 105.1509,14.6685 104.5569,14.7645 M103.4459,14.9035 C103.9109,15.2805 104.5609,15.5375 105.2499,15.3215 C105.6529,14.8015 105.5219,13.7415 106.2209,13.5165 C105.9139,11.0755 102.4909,12.8795 103.4459,14.9035" id="Fill-76" fill="#3F1D1D"></path>
            <path d="M56.2619,16.1551 C54.9959,14.6881 53.4259,12.4191 50.7129,12.4071 C50.0779,12.4051 49.4769,12.4871 49.1859,13.1001 C55.0349,12.9891 55.3089,19.1881 60.0119,19.7601 C59.2619,18.4561 57.4939,17.5811 56.2619,16.1551" id="Fill-78" fill="#3F1D1D"></path>
            <path d="M68.7542,14.0711 C69.1392,14.3211 70.1992,14.2901 70.4182,13.9321 C70.7742,12.0571 68.2972,12.2571 68.7542,14.0711" id="Fill-80" fill="#3F1D1D"></path>
            <path d="M91.0959,15.0418 C92.0179,15.0148 92.7599,14.7278 92.8989,14.2118 C93.5389,11.8368 89.4689,12.6588 91.0959,15.0418" id="Fill-82" fill="#3F1D1D"></path>
            <path d="M72.2229,12.9618 C72.1719,13.5188 72.2249,13.9778 72.6369,14.0708 C72.8869,14.0888 72.9299,13.9008 73.1939,13.9328 C73.7699,13.2448 72.9099,12.3858 72.2229,12.9618" id="Fill-84" fill="#3F1D1D"></path>
            <path d="M94.2854,14.6278 C94.4514,14.0338 94.9104,13.9128 95.3964,14.0708 C98.0804,14.9518 93.4944,17.5188 94.2854,14.6278 M95.5354,13.2388 C92.1524,12.2218 92.7674,17.2198 95.3964,16.9868 C97.2874,16.8168 97.2464,13.7528 95.5354,13.2388" id="Fill-86" fill="#3F1D1D"></path>
            <path d="M77.6331,13.2391 C77.4301,13.6631 77.5961,13.9621 77.7721,14.3481 C78.3011,14.4151 78.6581,14.3111 78.8831,14.0711 C79.1561,13.1471 78.2091,12.8741 77.6331,13.2391" id="Fill-88" fill="#3F1D1D"></path>
            <path d="M58.7619,15.8758 C58.7699,16.9538 59.7479,17.7278 60.8419,17.2628 C61.0369,15.9888 59.4219,15.4148 58.7619,15.8758" id="Fill-90" fill="#3F1D1D"></path>
            <path d="M112.6038,19.2059 C111.9648,19.2719 111.7208,18.4209 112.0488,17.9559 L112.4648,17.9559 C112.6998,18.1859 112.5748,18.7719 112.6038,19.2059 M112.7428,19.9009 C113.0978,19.2859 113.3808,18.5949 113.4378,17.6809 C111.6288,15.4169 109.7078,20.1809 112.7428,19.9009" id="Fill-92" fill="#3F1D1D"></path>
            <path d="M71.6663,18.7918 C71.9103,19.1528 72.6333,19.1178 73.0553,18.9308 C73.8753,17.4968 71.2733,16.9348 71.6663,18.7918" id="Fill-94" fill="#3F1D1D"></path>
            <path d="M104.2776,18.2333 C103.7506,18.6313 103.4556,19.2623 103.5846,20.3173 C105.1976,22.8403 107.5236,17.8973 104.2776,18.2333" id="Fill-96" fill="#3F1D1D"></path>
            <path d="M65.4221,20.8719 C66.2891,20.7669 67.1451,20.6419 67.2251,20.0379 C67.4631,18.2859 64.1971,19.2569 65.4221,20.8719" id="Fill-98" fill="#3F1D1D"></path>
            <path d="M98.0334,19.7606 C97.9714,20.2396 98.0884,20.5376 98.1724,20.8716 C98.7794,21.0636 98.9144,20.9536 99.4204,20.8716 C99.3964,20.4326 99.7894,20.4086 99.6994,19.9016 C99.5234,19.3976 98.3494,19.3196 98.0334,19.7606" id="Fill-100" fill="#3F1D1D"></path>
            <path d="M108.717,22.5379 C108.557,22.3289 108.233,21.9539 108.717,21.8449 C108.877,22.0539 109.205,22.4269 108.717,22.5379 M107.748,21.8449 C107.606,22.6629 108.121,23.1339 108.996,23.2309 C110.981,21.9619 108.082,19.8949 107.748,21.8449" id="Fill-102" fill="#3F1D1D"></path>
            <path d="M79.1624,23.2313 C76.6934,23.0243 73.7934,23.1313 71.8054,22.3973 C73.1894,25.2313 78.2994,24.6533 81.6584,24.0633 C81.1704,23.3833 80.0514,23.3053 79.1624,23.2313" id="Fill-104" fill="#3F1D1D"></path>
            <path d="M45.5784,22.5379 C44.5214,22.0629 43.8794,22.6629 44.0514,23.6469 C44.4204,25.7569 47.6804,23.4829 45.5784,22.5379" id="Fill-106" fill="#3F1D1D"></path>
            <path d="M40.0276,24.4774 L40.0276,23.5084 C40.9206,23.3484 40.8696,24.5984 40.0276,24.4774 M40.3026,22.5384 C39.4746,22.5204 39.0956,23.3464 39.0546,24.7564 C40.2936,27.4384 42.5826,22.5794 40.3026,22.5384" id="Fill-108" fill="#3F1D1D"></path>
            <path d="M87.6252,24.618 C88.2272,24.708 88.4022,24.378 88.7342,24.2 C88.9692,22.124 86.1232,23.612 87.6252,24.618" id="Fill-110" fill="#3F1D1D"></path>
            <path d="M99.1428,26.0067 C98.9028,25.7487 98.9648,25.0127 99.2818,24.8957 C99.6798,25.1747 99.8868,25.9147 99.1428,26.0067 M97.7558,26.1457 C96.5298,26.5497 96.0938,28.0477 94.7038,28.5047 C93.1998,28.9947 91.4458,28.4677 89.7048,29.0577 C92.5688,30.4497 97.3498,29.2567 97.8948,26.6997 C98.3378,27.0537 99.2798,27.2957 99.9768,26.9797 C100.1448,25.9617 100.9378,25.8037 100.9478,24.8957 C100.9788,22.2667 96.4008,22.8997 97.7558,26.1457" id="Fill-112" fill="#3F1D1D"></path>
            <path d="M48.4905,23.7879 C48.4675,24.3619 48.4455,24.9439 48.7695,25.1749 C50.8815,25.6019 49.8985,22.4329 48.4905,23.7879" id="Fill-114" fill="#3F1D1D"></path>
            <path d="M45.4397,26.1454 C45.8227,29.0674 47.8947,24.8914 45.4397,26.1454" id="Fill-116" fill="#3F1D1D"></path>
            <path d="M49.1858,26.8387 C49.4868,27.7387 50.1818,28.2467 51.2678,28.3657 C50.9998,27.4307 49.9418,27.2857 49.1858,26.8387" id="Fill-118" fill="#3F1D1D"></path>
            <path d="M59.0393,28.6434 C59.7233,29.3294 60.7713,28.5944 60.5643,27.5324 C59.8873,26.9484 58.9753,27.6614 59.0393,28.6434" id="Fill-120" fill="#3F1D1D"></path>
            <path d="M79.4377,31.5575 C80.0837,31.7895 80.4967,31.6315 80.9647,31.5575 C81.0897,30.5395 79.1327,30.0805 79.4377,31.5575" id="Fill-122" fill="#3F1D1D"></path>
            <path d="M97.2014,35.0262 C98.9614,36.3032 101.5214,34.3782 103.7224,34.3332 C101.9024,32.4262 99.5564,35.2392 97.2014,35.0262" id="Fill-124" fill="#3F1D1D"></path>
            <path d="M57.7893,37.5223 C57.7423,36.4133 58.1823,35.7903 59.0393,35.5813 C59.3873,36.4733 59.0493,37.7863 57.7893,37.5223 M59.0393,34.8873 C57.0983,34.7293 56.5213,36.5923 56.8183,38.2193 C59.1583,40.1373 61.3363,36.0613 59.0393,34.8873" id="Fill-126" fill="#3F1D1D"></path>
            <path d="M55.8459,38.7723 C55.7499,39.3793 56.0819,39.5533 55.9849,40.1593 C55.7779,40.5083 55.3639,40.6473 55.0159,40.8543 C53.6389,40.2783 54.7599,39.0833 55.5689,38.7723 C53.3619,36.6983 52.1879,41.9383 55.0159,41.9653 C56.6039,41.9713 57.9459,39.2543 55.8459,38.7723" id="Fill-128" fill="#3F1D1D"></path>
            <path d="M83.4612,39.329 C83.3012,39.899 84.4282,39.884 84.4342,39.466 C84.5962,38.897 83.4692,38.909 83.4612,39.329" id="Fill-130" fill="#3F1D1D"></path>
            <path d="M85.9592,40.159 C86.0512,40.579 86.1762,40.962 86.6542,40.993 C88.0682,40.602 86.4792,38.784 85.9592,40.159" id="Fill-132" fill="#3F1D1D"></path>
            <path d="M64.4514,40.4383 C64.9724,41.5923 67.3384,41.6063 68.6154,41.5493 C68.0394,40.4913 65.7694,39.8443 64.4514,40.4383" id="Fill-134" fill="#3F1D1D"></path>
            <path d="M75.135,40.7157 C73.768,41.1517 72.174,41.3617 70.834,41.8267 C72.078,43.0337 74.506,41.8307 75.135,40.7157" id="Fill-136" fill="#3F1D1D"></path>
            <path d="M77.7717,42.2411 C77.4437,43.5961 78.7347,44.4091 79.4377,43.4931 C79.6057,42.2511 78.4987,41.3911 77.7717,42.2411" id="Fill-138" fill="#3F1D1D"></path>
            <path d="M62.2307,42.1024 C62.1797,42.9404 62.5547,43.3524 63.3397,43.3524 C63.3437,43.2174 63.5097,43.2454 63.6197,43.2134 C64.2267,42.2644 62.9357,41.3134 62.2307,42.1024" id="Fill-140" fill="#3F1D1D"></path>
            <path d="M50.5744,42.6571 C50.9534,42.9281 51.1664,42.9281 51.5454,42.6571 C51.8574,41.5321 50.2874,41.6281 50.5744,42.6571" id="Fill-142" fill="#3F1D1D"></path>
            <path d="M66.8108,42.2411 C67.1038,42.8781 67.3698,43.5361 68.0588,43.7681 C68.2638,43.6981 68.4088,43.5631 68.6158,43.4931 C68.6038,42.4831 67.7658,42.3021 66.8108,42.2411" id="Fill-144" fill="#3F1D1D"></path>
            <path d="M104.8342,43.2137 C104.8362,44.0537 105.9862,43.7817 106.2212,43.3527 C106.1952,42.8697 105.7292,42.8247 105.6642,42.3817 C105.2172,42.4847 104.9392,42.7647 104.8342,43.2137" id="Fill-146" fill="#3F1D1D"></path>
            <path d="M76.803,43.6297 C75.68,44.0207 75.135,43.3487 74.024,43.3527 C74.283,44.4387 75.625,44.4367 76.246,45.1547 C80.348,45.7667 82.912,43.8247 85.821,42.7957 C82.985,41.8897 79.504,45.7077 76.803,43.6297" id="Fill-148" fill="#3F1D1D"></path>
            <path d="M34.8928,44.8797 C34.5508,44.8977 34.2228,44.9007 34.0608,44.7407 C34.0448,44.2137 34.3308,43.9927 34.7538,43.9067 C34.9438,44.0867 34.8928,44.5107 34.8928,44.8797 M32.9498,44.8797 C33.1018,45.7707 34.1678,46.0927 35.3088,45.8487 C37.7308,43.2467 32.4378,41.9267 32.9498,44.8797" id="Fill-150" fill="#3F1D1D"></path>
            <path d="M102.1975,43.9071 C100.8555,43.3001 100.7615,45.7101 102.0565,45.5731 C102.9475,45.4811 102.8985,44.2251 102.1975,43.9071" id="Fill-152" fill="#3F1D1D"></path>
            <path d="M46.2717,43.9071 C45.7987,43.6751 45.2487,43.8431 45.2987,44.6001 C45.4087,46.1881 47.5727,44.5481 46.2717,43.9071" id="Fill-154" fill="#3F1D1D"></path>
            <path d="M65.2834,44.1864 C65.3814,45.8444 66.2204,46.7624 67.7814,46.9594 C67.4104,45.6684 66.3834,45.0284 65.6974,44.0474 C65.5884,44.1204 65.4744,44.1904 65.2834,44.1864" id="Fill-156" fill="#3F1D1D"></path>
            <path d="M99.1428,45.8485 C99.3288,46.0475 99.9298,46.0495 100.1158,45.8485 C100.3288,44.8255 98.8928,44.7845 99.1428,45.8485" id="Fill-158" fill="#3F1D1D"></path>
            <path d="M69.3069,45.1551 C69.2449,45.5891 69.4279,45.7761 69.8639,45.7121 C70.2949,45.3291 69.6919,44.7231 69.3069,45.1551" id="Fill-160" fill="#3F1D1D"></path>
            <path d="M71.8049,45.9891 C72.2849,46.0871 72.3029,45.5031 72.0839,45.2981 C71.6019,45.1961 71.5839,45.7801 71.8049,45.9891" id="Fill-162" fill="#3F1D1D"></path>
            <path d="M49.8791,46.9598 C50.3591,47.0578 50.3771,46.4738 50.1581,46.2668 C49.6781,46.1688 49.6581,46.7528 49.8791,46.9598" id="Fill-164" fill="#3F1D1D"></path>
            <path d="M53.6252,47.3778 C53.8092,47.4268 53.8442,47.6198 54.0432,47.6528 C55.9802,47.4758 53.5682,45.2668 53.6252,47.3778" id="Fill-166" fill="#3F1D1D"></path>
            <path d="M119.8206,46.8211 C119.8246,47.3271 120.2286,47.4301 120.7936,47.3781 C120.9636,46.7041 120.2206,46.4891 119.8206,46.8211" id="Fill-168" fill="#3F1D1D"></path>
            <path d="M97.2014,48.7645 C100.7114,51.7135 108.0294,49.7155 111.0784,47.6535 C111.1854,47.5325 111.2264,47.3405 111.2174,47.0985 C107.2814,48.6065 102.2624,49.9405 97.2014,48.7645" id="Fill-170" fill="#3F1D1D"></path>
            <path d="M71.1135,47.6532 C71.0705,48.0202 71.3025,48.1102 71.6665,48.0712 C71.7245,47.7802 71.5725,47.7042 71.5275,47.5162 C71.3025,47.4752 71.2875,47.6472 71.1135,47.6532" id="Fill-172" fill="#3F1D1D"></path>
            <path d="M70.0022,48.2098 C69.9822,48.5518 69.9812,48.8798 70.1392,49.0418 L70.6952,49.0418 C70.8132,48.8818 70.8792,48.6708 70.8342,48.3488 C70.6702,48.1888 70.3442,48.1918 70.0022,48.2098" id="Fill-174" fill="#3F1D1D"></path>
            <path d="M68.7542,48.3485 C68.6882,48.7845 68.9262,48.9165 69.1682,49.0415 C69.5612,49.0165 69.7602,48.8015 69.7252,48.3485 C69.5392,48.1495 68.9382,48.1495 68.7542,48.3485" id="Fill-176" fill="#3F1D1D"></path>
            <path d="M92.4807,48.7645 C92.4967,49.6925 94.3967,50.2645 94.8417,49.4575 C94.6547,48.6515 93.2877,48.5225 92.4807,48.7645" id="Fill-178" fill="#3F1D1D"></path>
            <path d="M49.0471,50.8465 C49.2561,50.3795 49.5411,49.4095 49.0471,49.0415 C47.7501,48.8585 47.5201,51.1535 49.0471,50.8465" id="Fill-180" fill="#3F1D1D"></path>
            <path d="M107.887,49.4579 C107.889,50.1059 108.877,50.3369 109.412,50.0149 L109.412,49.4579 C109.074,49.1899 108.25,49.3229 107.887,49.4579" id="Fill-182" fill="#3F1D1D"></path>
            <path d="M110.5217,49.5965 C111.0687,50.3675 113.5997,50.8255 114.4087,50.0145 C113.9437,49.0985 111.5857,49.4675 110.5217,49.5965" id="Fill-184" fill="#3F1D1D"></path>
            <path d="M91.928,56.8153 C91.69,56.3543 92.012,56.2103 92.344,55.9793 C92.383,56.2643 92.721,56.2533 92.76,56.5343 C92.512,56.6613 92.407,56.9243 91.928,56.8153 M90.955,55.5653 C90.024,58.0383 93.453,58.6083 93.592,56.6743 C93.668,55.6313 92.106,54.4933 90.955,55.5653" id="Fill-186" fill="#3F1D1D"></path>
            <path d="M98.8674,57.6454 C98.7774,57.9304 98.1644,57.6844 98.3104,58.2004 C97.9924,57.8724 97.8064,57.4114 97.2014,57.3684 C97.6214,58.3174 98.5274,60.4544 97.2014,61.1144 C95.9474,60.3444 96.5904,58.0694 96.6444,56.9524 C94.3284,57.3894 95.2194,61.8344 97.0624,62.0864 C97.4804,62.2274 97.3084,61.7764 97.3404,61.5324 C98.9534,61.8214 99.1644,59.8074 98.5884,58.7564 C101.4984,58.7644 104.6564,57.3344 107.6074,57.3684 C105.4314,55.2954 102.1934,58.2234 98.8674,57.6454" id="Fill-188" fill="#3F1D1D"></path>
            <path d="M53.6252,57.9227 C52.5122,58.7527 50.2712,59.6567 48.7702,60.5617 C50.6502,61.0457 52.8162,59.4307 53.6252,57.9227" id="Fill-190" fill="#3F1D1D"></path>
            <path d="M106.7756,60.5614 L106.7756,60.0064 C107.2146,59.6334 107.7896,60.0184 107.7486,60.5614 C107.3536,60.7064 107.1686,60.7064 106.7756,60.5614 M107.6076,59.0344 C105.5826,58.4204 105.3576,61.6514 107.1936,61.6684 C108.6526,61.6844 109.2096,59.5164 107.6076,59.0344" id="Fill-192" fill="#3F1D1D"></path>
            <path d="M111.7717,62.5047 C111.7557,63.1297 112.4457,63.6007 113.0197,63.1977 C113.1837,62.3307 112.1717,61.9867 111.7717,62.5047" id="Fill-194" fill="#3F1D1D"></path>
            <path d="M115.1018,64.3075 C115.7498,64.3525 115.9198,63.9225 116.2128,63.6145 C116.0098,61.2025 113.1678,63.1615 115.1018,64.3075" id="Fill-196" fill="#3F1D1D"></path>
            <path d="M96.0901,65.6942 C97.0671,65.2942 97.2871,66.2992 97.4771,67.0832 C96.8751,67.2722 95.9031,66.7472 96.0901,65.6942 M94.9811,65.5552 C94.5491,66.9242 95.8581,68.4912 97.7561,68.1922 C99.6371,66.2002 95.7011,63.2662 94.9811,65.5552" id="Fill-198" fill="#3F1D1D"></path>
            <path d="M104.4163,67.6376 C103.6073,67.4736 103.1233,66.9896 103.0273,66.1106 C104.2543,65.7956 104.8713,66.7256 104.4163,67.6376 M102.1973,65.5556 C101.7173,67.4086 103.1293,68.4856 104.9713,68.4716 C106.6293,66.9186 103.9613,64.1166 102.1973,65.5556" id="Fill-200" fill="#3F1D1D"></path>
            <path d="M103.7229,80.2665 C103.4049,80.6315 103.4049,81.1495 103.7229,81.5165 C104.7429,81.7315 104.8829,79.9965 103.7229,80.2665" id="Fill-202" fill="#3F1D1D"></path>
            <path d="M96.7834,85.6766 C97.4694,86.5726 98.5534,85.1566 97.7564,84.5676 C97.0884,84.5966 96.6744,84.8716 96.7834,85.6766" id="Fill-204" fill="#3F1D1D"></path>
            <path d="M102.1975,97.6102 C102.9025,98.7312 104.4125,98.7802 105.5255,98.8602 C110.9335,99.2552 115.1625,96.9092 118.1545,94.4212 C119.8945,92.9732 121.6055,91.3152 122.0395,89.4242 C118.2715,94.9462 111.9145,98.9132 102.1975,97.6102" id="Fill-206" fill="#3F1D1D"></path>
            <path d="M92.4641,44.953 C92.5681,44.895 92.6821,44.837 92.7871,44.778 C92.6831,44.809 92.5871,44.85 92.4811,44.88 C92.4801,44.908 92.4711,44.931 92.4641,44.953" id="Fill-208" fill="#3F1D1D"></path>
            <g id="Group-212" transform="translate(0.000000, 5.195000)">
                <mask id="mask-4" fill="white">
                    <use xlink:href="#path-3"></use>
                </mask>
                <g id="Clip-211"></g>
                <path d="M135.0862,76.8761 C133.0632,74.7881 134.7152,71.1241 136.0572,69.2411 C135.6902,70.6791 134.8152,71.6101 134.9452,73.5441 C138.2312,69.8451 139.7272,63.0221 138.8342,56.3371 C138.7092,55.4091 138.4322,53.4091 138.5552,53.8391 C139.2362,57.4191 142.1902,60.8781 141.3302,65.2181 C140.5902,68.9501 134.6972,72.6281 135.0862,76.8761 M138.4162,90.7511 C137.8072,91.7161 137.2622,92.7411 136.1952,93.2511 C136.4222,91.5601 136.5392,88.8561 135.0862,88.3921 C135.3152,90.2691 135.3792,93.4371 134.1132,94.7741 C133.3772,95.5581 131.3892,96.1591 129.6722,96.7201 C127.9402,97.2841 126.4942,98.1491 125.3712,98.8001 C120.9822,101.3331 116.7662,103.4601 111.4942,105.0461 C108.1332,106.0541 105.2012,108.0031 101.9182,106.1531 C101.8632,106.9371 103.6352,107.2611 103.1682,107.5441 C101.9122,107.7691 100.2482,108.0091 99.2812,107.4031 C93.9162,98.4581 91.8652,87.5651 87.6252,77.7081 C86.4862,75.0581 85.4412,72.4911 84.4342,69.7961 C81.3872,61.6491 78.2932,53.7221 74.7192,46.2061 C76.9982,45.7881 78.2292,46.5931 79.8542,47.1791 C82.8612,48.2571 86.3992,49.0281 89.8462,49.2591 C96.0802,49.6771 103.4142,48.5951 109.1352,48.4271 C100.0862,47.5601 88.2872,49.2901 80.6882,46.0671 C87.6882,46.9561 94.6902,47.8211 102.7522,47.4541 C104.2872,47.3861 105.8852,46.9421 107.4692,46.8991 C110.9792,46.8021 114.9042,47.9681 117.0432,46.7611 C117.0782,47.3291 117.4652,47.5421 117.4612,48.1491 C115.2772,47.9011 112.4882,48.1441 110.9402,48.9811 C112.8382,50.0341 115.7722,48.4461 118.0162,49.2591 C123.7072,61.5621 129.6602,73.6031 134.6682,86.5891 C131.1412,72.6791 124.5902,61.7921 119.2662,49.6751 C120.9102,50.5301 121.3952,52.6101 122.0392,54.1161 C125.7562,62.7781 129.9182,70.4581 133.6972,78.9581 C135.3612,82.6981 137.3112,86.7921 138.4162,90.7511 M137.5822,96.1631 C137.3402,94.7081 137.1842,93.5441 138.2772,92.9721 C138.2832,94.2721 138.0962,95.3821 137.5822,96.1631 M136.0572,96.9971 C136.1862,96.3231 135.3832,95.5441 136.0572,95.1921 C136.1042,95.6611 136.4062,96.5891 136.0572,96.9971 M134.2502,99.3561 C134.3052,98.2391 133.8832,97.5971 133.5592,96.8581 C134.0552,96.8941 134.0682,96.4421 134.5292,96.4421 C134.5652,97.3001 135.2772,99.1031 134.2502,99.3561 M128.9812,102.8231 C127.6602,103.6531 126.5272,104.9051 125.2322,105.7391 C121.8752,107.9031 117.2742,108.3971 112.8832,109.6241 C109.3652,110.6081 104.1932,113.1851 101.6412,110.7351 C102.9752,111.4171 104.4902,111.7061 106.0822,111.4291 C110.6902,110.6221 115.5252,108.6121 119.9592,106.7121 C124.4532,104.7821 128.9572,102.4851 131.0592,99.3561 C125.4612,103.1901 118.9342,106.6121 111.6332,108.6531 C109.2052,109.3331 106.5902,110.3901 103.8592,109.9031 C106.4652,109.8001 108.5632,108.3561 110.8012,107.5441 C113.1602,106.6831 115.6112,106.2351 117.8772,105.3231 C122.9632,103.2761 127.0982,99.3901 132.3112,97.6881 C132.4342,98.6771 132.6972,99.5221 133.0042,100.3271 C131.7872,101.1611 130.4362,101.9111 128.9812,102.8231 M75.1352,30.2471 C75.8892,29.7981 75.9202,28.6281 76.6622,28.1671 C78.3482,28.9781 80.3282,29.4971 81.7972,30.5261 C79.6062,31.0151 76.9652,31.3601 75.1352,30.2471 M73.1932,44.8191 C71.2212,44.5221 68.9982,44.4801 67.6412,43.5691 C68.6562,43.6011 68.2542,42.1511 68.3362,41.9031 C68.1112,42.2801 67.4752,42.2471 67.2252,42.5971 C66.6022,43.0151 67.9322,43.5341 67.2252,43.5691 C66.2092,43.4871 67.0312,42.3971 66.2542,42.0421 C65.6742,42.0131 65.5982,42.2691 65.1452,42.0421 C63.5412,40.5791 60.2542,39.7221 59.8712,37.0461 C59.2172,32.4741 64.1392,32.0211 68.3362,32.4681 C73.5142,33.0191 80.1022,33.6981 84.4342,31.9131 C86.4322,33.3251 92.1352,35.2571 93.8712,32.7451 C86.4082,33.2061 82.9532,28.5031 76.9402,27.0561 C76.5182,26.5541 76.0492,26.0971 75.2752,25.9441 C74.9632,25.3331 74.3652,25.0071 74.4432,24.0031 C80.6662,23.0221 83.7992,27.3661 87.6252,29.6921 C87.4652,29.7371 86.9692,30.1221 87.3482,30.2471 C88.8382,29.4051 92.1172,31.5831 94.1472,30.2471 C92.6722,29.8271 90.6192,29.9831 89.4302,29.2761 C91.6992,28.2671 93.7342,26.8661 96.5082,26.6401 C100.1192,26.3431 104.5682,27.5651 108.1642,26.9171 C108.4882,27.2861 109.0292,27.4401 109.1352,28.0261 C102.5862,33.2881 93.7502,36.7781 85.1292,40.1031 C83.7622,40.6241 82.3692,41.4151 80.9652,41.9031 C79.6132,42.3741 77.7682,42.5091 77.2172,43.9871 C77.2852,44.4251 78.4692,43.7511 78.3282,44.4011 C77.4612,44.3961 75.5922,44.7741 75.2752,44.4011 C75.9592,44.3921 76.7812,44.5211 76.8032,43.8471 C75.6522,43.1491 73.2972,43.2821 73.1932,44.8191 M63.6192,50.3701 C60.7912,55.9931 57.8562,61.5751 54.8752,67.0221 C51.5272,73.1441 48.0022,79.9741 43.9122,85.4781 C43.3162,86.2821 42.6662,87.2841 41.4142,86.4501 C50.1862,73.8041 57.7542,58.7511 65.4222,44.5401 C65.6112,44.5851 65.6882,44.7391 65.9772,44.6791 C65.6312,46.6711 64.5452,48.5241 63.6192,50.3701 M36.1432,87.8391 C36.9692,88.6281 38.1722,89.0461 39.1932,89.6421 C35.4512,89.6751 33.6212,87.1471 30.3152,86.0321 C27.3732,85.0461 25.4632,83.7391 22.8182,82.1471 C20.7792,80.9211 18.7542,79.6421 16.8542,78.4011 C12.6822,75.6831 8.5392,73.2841 5.1952,70.4911 C3.6912,69.2331 2.3912,67.5131 2.0042,65.6341 C10.9942,73.8041 22.1762,80.9871 34.0612,86.7281 C27.1702,82.4251 19.5742,78.0851 13.5222,73.4051 C22.1022,79.3061 31.1702,84.7121 41.8302,88.5321 C39.9752,90.0691 38.1432,88.1491 36.1432,87.8391 M5.4732,58.8331 C6.0572,57.9601 6.5612,56.9931 7.1392,56.1981 C14.8092,45.6531 22.7232,34.6791 30.1762,24.2801 C30.6002,23.6851 30.9612,22.1121 32.1172,22.4761 C32.2362,23.2451 31.5572,23.9811 31.1452,24.5581 C24.7932,33.4601 17.2792,42.6121 12.4122,52.7281 C11.6542,54.3001 10.6172,56.0031 10.7462,57.8621 C17.4002,45.3661 25.1332,33.9501 33.5062,23.1711 C33.8202,23.4111 34.0392,23.7451 34.6152,23.7261 C30.9322,28.9641 27.0022,34.9111 23.0962,41.2101 C19.3202,47.3041 14.9002,53.4521 14.4942,61.6101 C14.2732,66.0341 14.5232,69.5481 16.8542,71.4641 C13.3592,58.9051 19.4162,49.4091 24.2052,41.4871 C27.9042,35.3741 31.5862,29.5071 35.1702,24.1401 C39.4512,26.3821 44.6452,27.7101 50.7132,28.1671 C49.2912,31.1281 53.7992,33.6511 54.3202,30.3861 C54.4402,29.6421 53.9572,29.0361 54.0432,28.5811 C57.7032,28.8121 61.7992,28.6941 64.8672,29.8311 C65.0372,30.3881 66.3752,31.1471 65.9772,31.3561 C61.0762,31.0221 57.8132,32.9541 58.3442,37.3251 C58.7752,40.8721 62.7792,42.3761 64.7292,44.4011 C57.0082,58.6081 49.5252,73.0521 40.7212,86.1711 C36.7522,84.7311 32.9572,83.1121 29.4812,81.1771 C34.5202,82.0481 39.7542,80.2371 42.3872,78.2631 C38.5512,79.4641 32.8932,81.7021 28.5082,79.7881 C38.8092,80.5221 44.6152,73.8451 49.3242,68.2711 C53.9122,62.8391 58.1002,56.7861 60.4262,50.5071 C57.1762,56.2201 53.4842,62.0771 48.7702,67.5771 C45.0182,71.9521 38.4342,78.4011 30.7292,78.4011 C28.0252,78.4011 25.7662,77.0341 23.3752,77.4311 C23.9512,78.1961 25.5842,78.6421 25.7322,79.3721 C21.9732,77.0731 18.3152,74.6691 14.6312,72.2941 C13.5292,69.6531 12.2402,66.4371 11.9962,62.9971 C11.9472,62.3601 12.3482,61.0011 11.5782,60.6401 C10.1882,63.7711 11.6642,68.2671 12.5512,70.9071 C8.8832,69.1471 8.2772,63.6381 8.2482,58.6961 C6.5822,61.0191 7.6192,66.0171 8.2482,68.2711 C7.2232,67.6301 6.3852,66.8041 5.0572,66.4661 C5.1392,66.8801 5.3632,66.8641 5.4732,67.0221 C6.3202,68.2801 5.0102,67.0381 4.3632,66.3271 C4.3482,65.2761 3.4342,64.2711 3.3912,63.1361 C3.3112,61.0501 4.5592,60.2001 5.4732,58.8331 M12.4122,46.0671 C12.0942,46.2591 12.0842,46.7591 11.7192,46.8991 C11.6372,46.6101 11.4262,46.4521 11.3032,46.2061 C11.6882,46.2571 12.1452,45.6771 12.4122,46.0671 M25.8732,26.5011 C21.7172,32.3801 17.3522,38.0581 13.5222,44.2631 C12.2212,44.0731 11.7442,44.7061 10.7462,44.8191 C8.5702,43.7181 7.8112,38.0691 8.3872,34.5501 C8.6432,32.9761 9.9242,30.8251 10.8852,29.1381 C13.6762,24.2311 16.9962,18.4191 20.4612,14.5651 C22.0822,15.1831 26.6482,19.0461 26.5662,20.9501 C26.5352,21.6571 25.7642,22.0751 25.4572,22.8921 C24.8872,24.3961 25.1002,25.4311 25.8732,26.5011 M3.9452,39.8231 C3.6862,36.9741 5.3202,33.7221 6.5822,31.0791 C7.9142,28.2981 9.0962,26.1011 10.4672,23.5871 C11.8592,21.0381 12.9122,18.7161 14.4942,16.2311 C16.3112,13.3741 18.3952,9.5011 22.2642,9.4331 C24.5822,12.2491 27.8032,14.1611 31.7012,15.3971 C32.2152,15.6121 31.8502,15.9011 32.2542,16.0931 C32.4202,15.7181 32.9812,16.0931 33.2272,16.0931 C31.3422,18.7881 28.7812,22.0071 26.7052,24.9741 C26.6432,23.2941 27.6702,22.1011 28.3712,20.9501 C29.0782,19.7841 30.2212,18.7181 30.0352,17.4811 C28.9882,18.0071 28.4772,19.0691 27.5372,19.7001 C26.6232,16.1301 23.8792,14.3841 20.8752,12.9011 C21.8442,12.3661 23.4842,12.4851 24.3462,12.2061 C23.3692,10.9911 20.8892,11.2611 19.4882,12.2061 C18.1912,13.0851 16.5182,16.3351 15.3242,18.1751 C13.8912,20.3921 12.9122,22.2001 11.5782,24.5581 C8.8322,29.4051 5.9342,33.1811 5.6112,38.8531 C5.3362,43.7201 8.8812,45.6921 10.7462,48.4271 C10.0942,49.1631 9.6882,50.1461 8.9412,50.7841 C8.8242,46.2651 4.3502,44.2181 3.9452,39.8231 M35.8632,22.4761 C35.4772,22.9911 34.9342,22.2801 34.4752,22.0601 C35.0332,22.1051 35.5822,22.1571 35.8632,22.4761 M52.3752,30.6631 C52.1312,30.1241 51.8012,29.6671 51.6842,28.9971 C52.8732,27.3191 54.1642,30.4461 52.3752,30.6631 M51.1292,27.1941 C46.1132,26.6401 41.1862,25.9351 37.6662,24.0031 C37.1192,23.7041 36.0062,23.2531 36.1432,22.4761 L36.4182,22.4761 C42.7852,25.7761 51.6802,26.5521 59.7322,28.1671 C56.5862,28.0601 54.0222,27.5171 51.1292,27.1941 M65.0062,29.4151 C64.1762,29.3661 63.6992,28.9641 63.0632,28.7221 C63.7342,28.9271 64.9982,28.5441 65.0062,29.4151 M74.7192,31.4971 C71.2362,31.7861 68.6882,31.1471 67.0882,29.5541 C70.1542,29.8251 72.4162,30.3101 74.7192,31.4971 M41.1372,9.4331 C42.6662,12.4801 45.4982,13.9371 48.2152,15.8151 C50.2972,17.2591 52.4632,18.9131 54.8752,19.2821 C51.5142,16.2961 46.7152,14.7821 43.7732,11.3741 C43.0182,10.4971 42.7722,9.3861 41.6932,8.7371 C41.6842,8.5011 41.7992,8.3821 41.9692,8.3211 C42.0022,8.5191 42.1972,8.5561 42.2482,8.7371 C46.3632,12.5651 51.3892,15.4601 56.4022,18.7301 C61.9162,22.3271 67.5412,25.7901 74.9962,27.1941 C74.9862,27.9481 74.3032,29.1651 73.7482,29.8311 C71.6062,28.7741 69.7362,27.4421 66.9472,27.8901 C66.5022,27.9601 66.0572,28.2861 65.5612,28.3041 C63.2702,28.3921 60.4182,27.1531 57.7892,26.6401 C54.8522,26.0631 51.9432,25.9801 49.4632,25.3921 C46.8052,24.7571 44.0392,24.4071 41.8302,23.4481 C39.4302,22.4051 37.5122,20.9311 35.1702,20.5341 C36.8812,17.2491 39.3092,14.6811 40.8592,11.2351 C38.7752,13.2611 36.9812,16.0851 35.3092,18.4521 C34.8132,19.1491 34.2362,20.6941 32.9492,20.1181 C35.0232,16.4561 38.3632,12.8551 41.1372,9.4331 M73.6092,25.6671 C72.3032,24.3491 70.2252,24.7611 68.4752,24.1401 C66.9452,23.6011 65.6542,22.3961 64.3112,21.9211 C64.1682,21.9151 64.2032,21.7431 64.4512,21.7841 C67.0842,23.1281 69.9592,24.2281 73.4712,24.6961 C73.4042,25.0521 73.9632,25.4831 73.6092,25.6671 M57.0962,2.6321 C66.0082,3.3531 74.3132,7.5401 83.4612,5.2711 C87.3732,8.0831 80.5252,12.7721 76.1072,11.6511 C75.1842,11.0031 73.7232,10.1511 72.5002,10.2651 C73.9982,12.7391 76.8912,15.1471 80.4102,15.5381 C85.1762,16.0651 93.5942,12.6651 93.4552,18.1751 C93.3592,21.9011 88.0162,21.5381 85.5452,22.8921 C83.8202,22.2961 82.9222,20.1571 80.8262,20.3961 C83.5942,23.0851 86.5782,25.5601 90.5412,27.0561 C89.3502,27.3001 89.0162,28.3991 87.9022,28.7221 C84.7752,26.1241 77.9082,20.0031 73.1932,24.0031 C67.7662,22.5911 63.0762,20.1811 58.7622,17.3431 C53.5222,13.8971 47.7732,10.8741 43.0802,7.2121 C45.9792,2.9331 51.5612,2.1831 57.0962,2.6321 M89.9842,40.6531 C90.5532,40.4951 91.8712,39.7181 91.9282,39.9601 C91.4382,40.1981 90.0392,40.8971 89.9842,40.6531 M109.8282,29.2761 C109.5762,29.9971 107.5962,30.9271 107.4692,31.7741 C108.5222,31.3001 109.3502,30.6031 110.2442,29.9721 C112.7582,34.7221 115.3182,40.1611 117.3222,44.9561 C116.2582,43.3781 115.3342,41.3331 114.4082,39.4051 C113.4942,37.5091 112.9282,35.1811 111.3562,34.2711 C112.8382,38.1531 114.7892,41.5691 116.3502,45.3721 C113.7642,46.2551 110.9022,45.4211 108.0242,45.6511 C99.3672,46.3531 90.0472,45.9761 82.6292,44.4011 C91.2232,41.4311 99.9692,38.6141 105.9432,33.0241 C101.3052,34.9571 97.8582,38.0831 92.7872,39.5831 C92.6822,39.6421 92.5682,39.7001 92.4642,39.7581 C92.4492,39.8051 92.4232,39.8401 92.3442,39.8231 C92.3822,39.8021 92.4252,39.7801 92.4642,39.7581 C92.4712,39.7351 92.4802,39.7131 92.4812,39.6851 C92.5872,39.6551 92.6832,39.6141 92.7872,39.5831 C97.6152,36.9321 103.9512,34.1891 108.0242,30.5261 C108.6112,29.9971 109.4082,29.0691 109.8282,29.2761 M119.2662,48.4271 C118.0412,48.3101 118.2502,46.7591 117.6002,46.0671 C117.7992,46.0341 117.8342,45.8411 118.0162,45.7921 C118.4162,46.6851 118.9432,47.4541 119.2662,48.4271 M122.0392,43.9871 C123.8092,42.1061 128.2742,40.3081 131.3382,41.9031 C132.5942,44.3561 133.7662,47.5461 134.5292,50.7841 C135.3112,54.0911 136.4022,57.4991 136.8892,60.6401 C137.7172,65.9721 134.3202,68.9051 132.8652,72.9911 C128.9362,64.8451 125.2972,56.4111 121.3482,48.2861 C122.0652,47.7711 122.4062,45.6961 122.0392,43.9871 M123.9822,38.9911 C126.4082,38.0501 127.9202,36.3021 130.3672,36.3551 C133.4412,36.4191 134.3752,40.6671 135.0862,43.0151 C134.0412,41.1751 133.3562,38.6301 131.0592,38.1571 C128.7722,37.6871 126.7892,38.6551 125.0942,39.1301 C123.8442,39.4781 122.1822,39.7331 121.9022,40.7941 C125.7872,39.8601 130.3322,37.3601 132.7272,40.5171 C135.9842,44.8121 137.8572,53.1651 138.1372,59.5281 C136.6412,54.8741 135.5452,45.3821 132.5882,41.2101 C130.1372,37.7551 123.4062,40.4131 121.7642,42.8761 C121.5292,43.2821 121.1392,42.4441 120.9302,42.8761 C120.7852,44.3741 121.5082,46.1101 120.5142,46.8991 C119.4732,44.7041 118.2682,42.6711 117.3222,40.3781 C119.5372,40.0891 121.7362,39.8601 123.9822,38.9911 M139.9412,70.7691 C141.2132,69.0751 143.0102,66.9071 143.1332,64.6631 C143.2602,62.3311 142.2952,59.4011 141.4692,57.0301 C139.4962,51.3581 138.1152,44.8701 135.3612,39.8231 C134.8612,38.9071 134.1112,37.8721 134.1132,36.7711 C132.8482,36.4501 132.7382,35.1791 131.6152,34.9641 C130.3032,34.7181 128.3342,35.3741 127.0352,35.7981 C124.1272,36.7551 120.6952,38.9581 116.4902,38.2981 C113.8612,34.3101 112.9202,28.6361 109.2742,25.6671 C107.6492,25.4071 105.6042,25.4931 104.4162,26.0831 C101.1232,25.1631 95.6902,24.4871 92.6212,26.0831 C90.1882,25.6051 88.1132,24.7651 86.5142,23.4481 C90.3652,22.8801 94.3222,22.3311 94.7032,18.5931 C95.4922,10.8041 83.4812,15.1871 78.7442,13.1791 C82.5882,13.3191 84.5572,11.7781 85.4062,8.7371 C86.5652,4.5851 83.9202,4.5831 79.4382,4.2981 C73.5202,3.9211 69.9572,3.0631 64.8672,1.8021 C57.3652,-0.0619 45.9862,-0.8019 42.8012,5.4091 C38.7952,7.4151 37.4022,12.0341 34.3382,14.9831 C31.3952,13.7451 27.8812,11.6011 25.0392,9.5691 C24.1292,8.9191 22.8502,7.8761 21.9882,7.7671 C18.2072,7.2781 16.4592,11.1361 14.3562,12.6221 C11.3362,18.9271 7.5862,24.2431 4.5022,30.8021 C3.5392,32.8491 2.1432,35.3621 2.1432,37.7411 C2.1432,39.3961 2.8162,41.4801 3.3912,42.8761 C4.3712,45.2611 7.2832,48.0301 7.2752,50.6491 C7.2752,51.3581 6.8562,52.0691 6.5822,52.8661 C6.3112,53.6671 6.2812,54.6011 6.0272,55.2281 C5.4362,56.6921 3.9402,58.4011 2.9752,59.9441 C1.9882,61.5241 0.2992,63.1981 0.0612,64.6631 C-0.5918,68.6731 4.1642,72.0751 6.7232,73.9601 C14.6762,79.8191 22.0022,84.9871 31.5632,89.0871 C33.8402,90.0641 35.8652,91.7101 38.5022,91.4441 C40.1802,91.2761 42.4042,89.9541 43.6332,88.9461 C46.4202,86.6691 48.5512,82.5671 50.5742,79.0931 C56.8422,68.3271 62.1292,57.0711 67.2252,45.3721 C69.0122,45.8701 71.3202,46.5301 73.6092,46.0671 C77.3952,57.9051 81.7952,69.4051 86.5142,80.8991 C87.6412,83.6381 89.0292,86.3491 90.1252,89.2261 C91.2032,92.0691 91.8542,95.1691 93.0372,98.2451 C94.0312,100.8271 95.2132,103.6981 96.5082,106.7121 C97.5632,109.1671 98.9492,113.1981 101.2252,113.7881 C103.6492,114.4151 108.0662,113.5461 111.2172,112.5381 C115.0242,111.3231 118.5312,110.9311 121.3482,109.7651 C124.7382,108.3561 127.4612,106.5301 130.5042,104.6301 C135.1062,101.7571 140.9552,100.1511 140.6352,92.8331 C140.4552,88.6751 138.7112,84.7551 137.3052,81.4541 C137.4062,79.5811 136.4002,77.9911 136.7482,76.0421 C137.0452,74.3961 138.7362,72.3761 139.9412,70.7691" id="Fill-210" fill="#3F1D1D" mask="url(#mask-4)"></path>
            </g>
            <path d="M106.0823,32.9442 C105.8073,33.2082 106.0143,33.6002 106.0823,33.9172 C105.5533,33.7062 105.6623,32.8582 104.6953,33.0852 C104.5353,33.3872 104.3363,33.6492 104.4163,34.1922 C105.2563,34.9712 105.9473,33.7062 106.7753,34.0532 C106.9783,33.8542 106.9783,33.1452 106.7753,32.9442 L106.0823,32.9442 Z" id="Fill-213" fill="#3F1D1D"></path>
            <path d="M78.6057,55.1473 C84.0137,55.7523 86.3127,59.4713 92.2057,59.5863 C90.4647,58.3403 88.4627,58.1533 86.5137,57.2313 C83.8287,55.9563 81.2857,54.5593 77.6327,54.5943 C77.0877,54.9713 78.2537,54.7903 78.3287,55.0103 C82.5727,68.1903 88.3067,81.0183 93.0377,94.0023 C94.5997,98.2923 95.7537,102.8313 98.8677,106.0773 C95.0707,98.1923 91.6137,88.5693 88.4597,79.8483 C85.4067,71.4133 81.9607,63.1393 78.6057,55.1473" id="Fill-215" fill="#3F1D1D"></path>
            <path d="M122.178,64.8622 C122.313,64.2862 121.766,64.8332 122.178,64.8622" id="Fill-217" fill="#3F1D1D"></path>
            <path d="M122.178,64.8622 C124.188,71.1672 127.826,76.4912 128.424,83.8742 C128.971,90.6432 125.965,95.9402 122.735,99.8312 C120.121,102.9832 116.856,105.4672 113.574,107.3252 C98.305,103.3112 93.657,88.6692 87.903,75.1302 C93.002,89.6862 97.52,106.4502 115.934,108.2982 C115.449,108.0402 114.832,107.9192 114.408,107.6042 C118.438,106.0322 122.018,103.4582 124.537,99.9692 C126.987,96.5892 129.217,92.4832 129.533,87.3422 C129.809,82.9052 128.324,78.5462 127.035,74.8522 C125.741,71.1372 124.151,67.6822 122.178,64.8622" id="Fill-219" fill="#3F1D1D"></path>
            <path d="M45.1604,39.745 C44.2264,40.421 44.1914,42.315 45.5784,42.102 C46.5414,41.956 47.1214,39.505 45.1604,39.745" id="Fill-221" fill="#3F1D1D"></path>
            <path d="M57.6506,48.6258 C56.7246,48.3188 55.9646,48.7898 55.9846,49.7348 C56.0506,52.6958 60.2306,49.4828 57.6506,48.6258" id="Fill-223" fill="#3F1D1D"></path>
            <path d="M37.8069,51.4012 C36.2499,50.7922 35.8069,53.8952 37.2519,54.0382 C38.4869,54.1612 39.0899,51.9032 37.8069,51.4012" id="Fill-225" fill="#3F1D1D"></path>
        </g>
    </g>
</svg>