<svg width="836" height="1194" viewBox="0 0 836 1194" fill="none" xmlns="http://www.w3.org/2000/svg">
<path d="M1 1V1193.58H835V1H1ZM669.228 49.5534C685.559 49.5534 698.811 62.7915 698.811 79.1364C698.811 95.4812 685.573 108.719 669.228 108.719C652.897 108.719 639.645 95.4812 639.645 79.1364C639.645 62.7915 652.897 49.5534 669.228 49.5534ZM511.21 266.216C528.407 266.216 542.36 294.108 542.36 328.502C542.36 362.896 528.421 390.788 511.21 390.788C494.013 390.788 480.06 362.896 480.06 328.502C480.06 294.108 493.999 266.216 511.21 266.216ZM122.672 49.5534C139.003 49.5534 152.255 62.7915 152.255 79.1364C152.255 95.4812 139.017 108.719 122.672 108.719C106.341 108.719 93.0893 95.4812 93.0893 79.1364C93.0893 62.7915 106.341 49.5534 122.672 49.5534ZM122.672 145.561C154.84 145.561 180.917 171.638 180.917 203.805C180.917 235.973 154.84 262.05 122.672 262.05C90.5049 262.05 64.4274 235.973 64.4274 203.805C64.4136 171.652 90.5049 145.561 122.672 145.561ZM152.241 328.502C152.241 344.833 139.003 358.085 122.659 358.085C106.327 358.085 93.0756 344.847 93.0756 328.502C93.0756 312.171 106.314 298.919 122.659 298.919C139.003 298.933 152.241 312.171 152.241 328.502ZM101.777 1178.09C85.4461 1178.09 72.1943 1164.85 72.1943 1148.51C72.1943 1132.18 85.4324 1118.92 101.777 1118.92C118.122 1118.92 131.36 1132.16 131.36 1148.51C131.346 1164.84 118.108 1178.09 101.777 1178.09ZM109.31 953.057C92.9793 953.057 79.7275 939.819 79.7275 923.474C79.7275 907.129 92.9656 893.891 109.31 893.891C125.655 893.891 138.893 907.129 138.893 923.474C138.893 939.819 125.642 953.057 109.31 953.057ZM109.31 839.138C75.1223 839.138 47.4089 825.9 47.4089 809.555C47.4089 793.224 75.1223 779.972 109.31 779.972C143.499 779.972 171.212 793.21 171.212 809.555C171.212 825.886 143.499 839.138 109.31 839.138ZM109.31 754.884C75.1223 754.884 47.4089 741.646 47.4089 725.301C47.4089 708.97 75.1223 695.718 109.31 695.718C143.499 695.718 171.212 708.956 171.212 725.301C171.212 741.646 143.499 754.884 109.31 754.884ZM170.346 452.113C170.346 434.915 198.238 420.962 232.632 420.962C267.027 420.962 294.919 434.902 294.919 452.113C294.919 469.323 267.027 483.263 232.632 483.263C198.238 483.263 170.346 469.31 170.346 452.113ZM232.646 985.774C215.449 985.774 201.496 957.882 201.496 923.488C201.496 889.093 215.435 861.201 232.646 861.201C249.843 861.201 263.796 889.093 263.796 923.488C263.796 957.882 249.843 985.774 232.646 985.774ZM303.923 626.861C287.592 626.861 274.34 613.623 274.34 597.278C274.34 580.933 287.578 567.695 303.923 567.695C320.254 567.695 333.506 580.933 333.506 597.278C333.506 613.623 320.254 626.861 303.923 626.861ZM420.907 713.768C420.907 697.437 434.146 684.185 450.49 684.185C466.822 684.185 480.073 697.423 480.073 713.768C480.073 730.099 466.835 743.351 450.49 743.351C434.146 743.337 420.907 730.099 420.907 713.768ZM492.088 1118.94C475.757 1118.94 462.505 1105.7 462.505 1089.36C462.505 1073.01 475.743 1059.77 492.088 1059.77C508.433 1059.77 521.671 1073.01 521.671 1089.36C521.671 1105.7 508.433 1118.94 492.088 1118.94ZM492.088 1037.3C475.757 1037.3 462.505 1024.06 462.505 1007.71C462.505 991.383 475.743 978.131 492.088 978.131C508.433 978.131 521.671 991.369 521.671 1007.71C521.671 1024.06 508.433 1037.3 492.088 1037.3ZM573.015 1037.3C556.684 1037.3 543.432 1024.06 543.432 1007.71C543.432 991.383 556.67 978.131 573.015 978.131C589.36 978.131 602.598 991.369 602.598 1007.71C602.598 1024.06 589.346 1037.3 573.015 1037.3ZM573.015 953.057C556.684 953.057 543.432 939.819 543.432 923.474C543.432 907.129 556.67 893.891 573.015 893.891C589.36 893.891 602.598 907.129 602.598 923.474C602.598 939.819 589.346 953.057 573.015 953.057ZM575.173 772.013C543.006 772.013 516.928 745.935 516.928 713.768C516.928 681.6 543.006 655.523 575.173 655.523C607.34 655.523 633.418 681.6 633.418 713.768C633.418 745.935 607.34 772.013 575.173 772.013ZM697.904 172.669C732.312 172.669 760.19 186.608 760.19 203.819C760.19 221.03 732.298 234.969 697.904 234.969C663.496 234.969 635.618 221.03 635.618 203.819C635.618 186.608 663.496 172.669 697.904 172.669ZM701.945 510.371C669.778 510.371 643.701 484.294 643.701 452.126C643.701 419.959 669.778 393.881 701.945 393.881C734.113 393.881 760.19 419.959 760.19 452.126C760.19 484.294 734.113 510.371 701.945 510.371ZM729.439 713.768C729.439 730.099 716.201 743.351 699.856 743.351C683.511 743.351 670.273 730.113 670.273 713.768C670.273 697.437 683.511 684.185 699.856 684.185C716.201 684.185 729.439 697.423 729.439 713.768ZM701.945 1130.17C667.537 1130.17 639.659 1116.23 639.659 1099.02C639.659 1081.82 667.551 1067.87 701.945 1067.87C736.354 1067.87 764.232 1081.81 764.232 1099.02C764.232 1116.22 736.34 1130.17 701.945 1130.17Z" stroke="#D5D5D5" stroke-width="0.5" stroke-miterlimit="10"/>
<path d="M143.444 1160.37C144.722 1155.86 145.3 1151.06 145.025 1146.09C143.843 1124.48 126.467 1106.8 104.871 1105.29C79.5904 1103.51 58.4342 1123.58 58.4342 1148.51C58.4342 1152.6 59.0116 1156.58 60.0838 1160.34C62.8607 1170.09 55.8361 1179.84 45.7048 1179.84H33.4152C23.1052 1179.84 14.7334 1171.48 14.7334 1161.15V33.4285C14.7334 23.1185 23.0914 14.7467 33.4152 14.7467H802.572C812.882 14.7467 821.254 23.1047 821.254 33.4285V1161.15C821.254 1171.46 812.896 1179.84 802.572 1179.84H157.988C147.857 1179.84 140.667 1170.12 143.444 1160.37ZM701.946 1054.12C658.602 1054.12 625.913 1073.42 625.913 1099.02C625.913 1124.62 658.602 1143.92 701.946 1143.92C745.289 1143.92 777.979 1124.62 777.979 1099.02C777.979 1073.42 745.289 1054.12 701.946 1054.12ZM458.079 1062.55C451.618 1070.73 448.03 1081.29 448.882 1092.68C450.477 1113.93 467.715 1131.09 488.968 1132.58C514.262 1134.35 535.404 1114.28 535.404 1089.36C535.404 1077.19 530.359 1066.16 522.249 1058.29C516.626 1052.82 516.654 1044.24 522.276 1038.77C522.51 1038.53 522.757 1038.3 522.991 1038.05C528.311 1032.64 536.916 1032.82 542.264 1038.2C550.911 1046.92 563.228 1051.99 576.672 1050.88C597.526 1049.16 614.393 1032.35 616.18 1011.51C617.349 997.912 612.194 985.472 603.327 976.784C597.1 970.68 597.1 960.494 603.327 954.39C612.18 945.716 617.321 933.289 616.18 919.707C614.393 898.634 597.21 881.711 576.108 880.24C550.828 878.481 529.699 898.551 529.699 923.46C529.699 943.86 543.872 961.002 562.87 965.58C548.945 968.934 537.618 979.038 532.559 992.221C525.905 974.887 508.419 962.886 488.432 964.535C467.413 966.267 450.477 983.327 448.896 1004.36C448.03 1015.76 451.618 1026.33 458.079 1034.51C464.622 1042.81 464.622 1054.27 458.079 1062.55ZM232.646 847.441C207.05 847.441 187.75 880.13 187.75 923.474C187.75 966.817 207.05 999.507 232.646 999.507C258.243 999.507 277.543 966.817 277.543 923.474C277.543 880.13 258.243 847.441 232.646 847.441ZM109.311 880.158C85.4191 880.158 65.9949 899.596 65.9949 923.474C65.9949 947.366 85.4328 966.804 109.311 966.804C133.203 966.804 152.641 947.366 152.641 923.474C152.641 899.582 133.203 880.158 109.311 880.158ZM64.744 761.015C70.5176 763.297 70.5176 771.559 64.744 773.841C45.5261 781.457 33.6626 794.213 33.6626 809.555C33.6626 834.656 65.4726 852.884 109.311 852.884C153.149 852.884 184.959 834.67 184.959 809.555C184.959 795.203 174.553 783.092 157.452 775.367C150.592 772.26 150.592 762.61 157.452 759.503C174.553 751.764 184.959 739.666 184.959 725.315C184.959 700.213 153.149 681.985 109.311 681.985C65.4726 681.985 33.6626 700.2 33.6626 725.315C33.6626 740.643 45.5261 753.399 64.744 761.015ZM575.174 641.762C535.473 641.762 503.182 674.053 503.182 713.754C503.182 753.454 535.487 785.745 575.174 785.745C614.86 785.745 647.165 753.454 647.165 713.754C647.165 674.067 614.874 641.762 575.174 641.762ZM699.856 670.438C675.965 670.438 656.54 689.876 656.54 713.768C656.54 737.659 675.978 757.097 699.856 757.097C723.748 757.097 743.186 737.659 743.186 713.768C743.186 689.876 723.748 670.438 699.856 670.438ZM450.477 670.438C426.585 670.438 407.147 689.876 407.147 713.768C407.147 737.659 426.585 757.097 450.477 757.097C474.369 757.097 493.793 737.659 493.793 713.768C493.793 689.876 474.369 670.438 450.477 670.438ZM303.923 553.962C280.031 553.962 260.594 573.4 260.594 597.292C260.594 621.183 280.031 640.621 303.923 640.621C327.815 640.621 347.253 621.183 347.253 597.292C347.253 573.4 327.815 553.962 303.923 553.962ZM701.946 380.121C662.245 380.121 629.954 412.426 629.954 452.112C629.954 491.813 662.245 524.104 701.946 524.104C741.646 524.104 773.938 491.813 773.938 452.112C773.938 412.412 741.633 380.121 701.946 380.121ZM232.646 407.229C189.303 407.229 156.613 426.53 156.613 452.126C156.613 477.723 189.303 497.023 232.646 497.023C275.99 497.023 308.68 477.723 308.68 452.126C308.68 426.53 275.99 407.229 232.646 407.229ZM511.21 252.469C485.614 252.469 466.313 285.159 466.313 328.502C466.313 371.845 485.614 404.535 511.21 404.535C536.806 404.535 556.107 371.845 556.107 328.502C556.093 285.159 536.793 252.469 511.21 252.469ZM122.673 285.186C98.7809 285.186 79.3568 304.624 79.3568 328.516C79.3568 352.407 98.7946 371.845 122.673 371.845C146.551 371.845 165.989 352.407 165.989 328.516C165.989 304.624 146.564 285.186 122.673 285.186ZM122.673 131.814C82.9721 131.814 50.6811 164.105 50.6811 203.805C50.6811 243.506 82.9859 275.797 122.673 275.797C162.359 275.797 194.664 243.506 194.664 203.805C194.664 164.119 162.373 131.814 122.673 131.814ZM697.904 158.922C654.561 158.922 621.871 178.223 621.871 203.819C621.871 229.416 654.561 248.716 697.904 248.716C741.248 248.716 773.938 229.416 773.938 203.819C773.938 178.223 741.248 158.922 697.904 158.922ZM669.229 35.8067C645.337 35.8067 625.913 55.2446 625.913 79.1364C625.913 103.028 645.351 122.466 669.229 122.466C693.107 122.466 712.545 103.028 712.545 79.1364C712.545 55.2446 693.107 35.8067 669.229 35.8067ZM122.673 35.8067C98.7809 35.8067 79.3568 55.2446 79.3568 79.1364C79.3568 103.028 98.7946 122.466 122.673 122.466C146.551 122.466 165.989 103.028 165.989 79.1364C165.989 55.2446 146.564 35.8067 122.673 35.8067Z" stroke="#D5D5D5" stroke-width="0.5" stroke-miterlimit="10"/>
<path d="M158.277 1156.63C158.826 1152.7 158.991 1148.66 158.716 1144.56C156.861 1116.66 134.508 1093.96 106.63 1091.65C72.9781 1088.85 44.7011 1115.45 44.7011 1148.52C44.7011 1151.23 44.8936 1153.91 45.251 1156.54C45.9521 1161.59 42.0205 1166.1 36.9067 1166.1C32.2466 1166.1 28.48 1162.34 28.48 1157.68V855.331C28.48 848.444 36.2606 844.512 41.8693 848.526C43.8626 849.942 45.9658 851.303 48.2065 852.582C55.4923 856.747 63.8091 860.032 72.9506 862.369C79.8102 864.129 81.5836 873.119 75.8512 877.285C60.2349 888.612 50.5572 907.665 52.468 928.766C54.9562 956.369 77.4871 978.447 105.132 980.412C138.468 982.791 166.36 956.342 166.36 923.487C166.36 904.503 157.039 887.65 142.729 877.271C136.997 873.119 138.784 864.115 145.643 862.369C154.785 860.032 163.115 856.747 170.387 852.582C188.643 842.134 198.692 826.862 198.692 809.582C198.692 795.78 192.313 783.518 180.972 773.923C176.958 770.527 176.958 764.383 180.972 760.987C192.327 751.392 198.692 739.13 198.692 725.328C198.692 708.049 188.643 692.776 170.387 682.328C154.317 673.132 133.189 668.266 109.297 668.266C85.4052 668.266 64.2765 673.132 48.2065 682.328C45.9658 683.607 43.8488 684.968 41.8693 686.384C36.2606 690.398 28.48 686.466 28.48 679.579V28.5206H72.6207C79.7415 28.5206 83.7281 36.8648 79.1229 42.2948C70.6824 52.2474 65.5961 65.1144 65.5961 79.1498C65.5961 93.9275 71.246 107.399 80.4838 117.558C84.003 121.421 83.082 127.621 78.6005 130.315C53.6502 145.326 36.9205 172.669 36.9205 203.846C36.9205 232.041 50.5985 257.115 71.6859 272.745C79.1504 278.285 80.745 288.76 75.5075 296.43C68.9916 305.971 65.2937 317.573 65.6099 330.027C66.3934 360.394 93.0209 385.99 123.387 385.605C154.524 385.207 179.721 359.762 179.721 328.543C179.721 316.693 176.092 305.682 169.893 296.554C164.641 288.829 166.14 278.312 173.645 272.745C194.719 257.115 208.397 232.041 208.397 203.846C208.397 172.669 191.667 145.326 166.717 130.315C162.236 127.621 161.301 121.435 164.834 117.558C174.072 107.413 179.721 93.9275 179.721 79.1498C179.721 65.1144 174.635 52.2474 166.195 42.2948C161.59 36.8648 165.576 28.5206 172.697 28.5206H619.163C626.38 28.5206 630.174 36.9336 625.528 42.4598C616.235 53.5121 611.039 68.1111 612.331 83.9061C614.599 111.716 637.171 134.054 664.995 136.061C698.358 138.467 726.277 112.004 726.277 79.136C726.277 65.1006 721.191 52.2337 712.751 42.2811C708.146 36.8511 712.132 28.5068 719.253 28.5068H799.066C803.726 28.5068 807.493 32.2734 807.493 36.9336V1152.29C807.493 1159.92 801.307 1166.1 793.678 1166.1H166.635C161.576 1166.09 157.575 1161.65 158.277 1156.63ZM701.946 1040.38C649.928 1040.38 612.166 1065.04 612.166 1099.02C612.166 1133 649.928 1157.66 701.946 1157.66C753.963 1157.66 791.726 1133 791.726 1099.02C791.726 1065.04 753.963 1040.38 701.946 1040.38ZM443.205 1037.12C447.439 1044.16 447.439 1052.94 443.205 1059.98C437.967 1068.67 435.026 1078.78 435.026 1089.37C435.026 1120.84 460.622 1146.45 492.102 1146.45C523.582 1146.45 549.165 1120.85 549.165 1089.37C549.165 1073.71 542.717 1059.1 531.968 1048.57C532.187 1048.36 531.335 1049.2 531.968 1048.57C542.511 1059.11 557.646 1064.8 573.029 1064.8C604.495 1064.8 630.092 1039.21 630.092 1007.73C630.092 995.506 626.256 984.069 619.603 974.68C615.699 969.168 615.905 961.799 619.782 956.273C626.751 946.32 630.573 934.086 630.037 921.068C628.813 891.334 604.358 867.249 574.61 866.425C542.415 865.545 515.953 891.471 515.953 923.473C515.953 939.997 522.963 955.105 534.483 965.635C533.81 966.253 533.15 966.886 532.517 967.532C521.974 956.988 507.485 950.665 492.102 950.665C460.636 950.665 435.026 976.261 435.026 1007.74C435.026 1018.31 437.967 1028.42 443.205 1037.12ZM232.646 833.694C198.664 833.694 174.003 871.456 174.003 923.473C174.003 975.491 198.664 1013.25 232.646 1013.25C266.628 1013.25 291.29 975.491 291.29 923.473C291.29 871.456 266.614 833.694 232.646 833.694ZM496.391 747.625C509.547 778.116 539.899 799.506 575.16 799.506C610.42 799.506 640.773 778.116 653.928 747.625C664.61 762.059 681.931 771.311 701.341 770.816C732.299 770.019 757.304 743.996 756.919 713.039C756.52 681.902 731.075 656.705 699.856 656.705C681.051 656.705 664.348 665.846 653.942 679.909C640.787 649.419 610.434 628.029 575.173 628.029C539.913 628.029 509.56 649.419 496.405 679.909C485.724 665.475 468.403 656.223 448.992 656.718C418.035 657.516 393.029 683.538 393.414 714.496C393.813 745.632 419.258 770.83 450.477 770.83C469.282 770.83 485.985 761.688 496.391 747.625ZM309.133 540.449C273.584 537.273 243.919 566.938 247.08 602.487C249.514 629.747 271.453 651.687 298.713 654.12C334.262 657.296 363.928 627.63 360.766 592.081C358.333 564.835 336.393 542.882 309.133 540.449ZM707.541 366.553C655.853 363.253 613.059 406.033 616.372 457.721C619.108 500.446 653.612 534.95 696.337 537.672C748.025 540.971 790.805 498.191 787.505 446.503C784.77 403.792 750.265 369.288 707.541 366.553ZM232.646 393.482C180.615 393.482 142.866 418.144 142.866 452.126C142.866 486.108 180.629 510.769 232.646 510.769C284.664 510.769 322.426 486.108 322.426 452.126C322.426 418.144 284.664 393.482 232.646 393.482ZM511.21 238.722C477.228 238.722 452.566 276.484 452.566 328.502C452.566 380.519 477.228 418.281 511.21 418.281C545.192 418.281 569.853 380.519 569.853 328.502C569.853 276.484 545.178 238.722 511.21 238.722ZM697.904 145.175C645.887 145.175 608.124 169.837 608.124 203.819C608.124 237.801 645.887 262.462 697.904 262.462C749.936 262.462 787.684 237.801 787.684 203.819C787.684 169.837 749.922 145.175 697.904 145.175ZM33.7312 757.358C36.3981 760.052 39.4224 762.568 42.7766 764.891C44.5636 766.128 44.5636 768.74 42.7766 769.978C39.4224 772.301 36.3981 774.816 33.7312 777.511C31.8067 779.449 28.4937 778.047 28.4937 775.325V759.544C28.4937 756.808 31.8067 755.406 33.7312 757.358Z" stroke="#D5D5D5" stroke-width="0.5" stroke-miterlimit="10"/>
<path d="M781.979 1146.53C784.165 1144.7 786.213 1142.79 788.11 1140.8C790.158 1138.65 793.76 1140.12 793.76 1143.08V1152.27L793.691 1152.34H784.068C781.003 1152.34 779.615 1148.49 781.979 1146.53ZM535.968 1152.34C532.778 1152.34 531.472 1148.29 534.043 1146.39C551.543 1133.48 562.925 1112.72 562.925 1089.36C562.925 1086.85 562.787 1084.35 562.513 1081.88C562.293 1079.79 563.983 1078.03 566.073 1078.22C568.369 1078.43 570.692 1078.54 573.029 1078.54C581.813 1078.54 590.24 1076.93 598.007 1073.99C600.673 1072.98 603.272 1075.57 602.241 1078.23C599.739 1084.75 598.419 1091.71 598.419 1099.02C598.419 1117.67 607.024 1134.05 621.871 1146.49C624.249 1148.48 622.888 1152.33 619.795 1152.33H535.968V1152.34ZM175.872 1152.34C174.044 1152.34 172.573 1150.86 172.587 1149.02C172.6 1147.23 172.545 1145.43 172.422 1143.64C170.126 1109.05 142.33 1080.82 107.757 1077.93C105.764 1077.77 103.743 1077.68 101.764 1077.68C80.3049 1077.68 61.0458 1087.28 48.0551 1102.4C46.0481 1104.74 42.2402 1103.38 42.2402 1100.3V961.044C42.2402 957.689 46.6529 956.493 48.3575 959.38C59.946 978.832 80.6073 992.441 104.169 994.118C105.874 994.242 107.606 994.297 109.311 994.297C130.302 994.297 149.19 985.114 162.18 970.556C163.871 968.659 166.937 969.305 167.762 971.711C179.281 1005.43 203.104 1027.01 232.646 1027.01C274.587 1027.01 305.036 983.478 305.036 923.488C305.036 863.497 274.587 819.961 232.646 819.961C226.831 819.961 221.25 820.8 215.93 822.394C213.593 823.095 211.352 821.13 211.737 818.71C212.205 815.727 212.452 812.675 212.452 809.569C212.452 794.695 206.94 781.044 196.396 769.648C195.241 768.397 195.241 766.473 196.396 765.222C206.926 753.826 212.452 740.189 212.452 725.315C212.452 702.894 199.943 683.387 177.233 670.383C159.087 659.99 135.594 654.505 109.311 654.505C85.6524 654.505 64.2625 658.946 46.9966 667.414C44.7971 668.486 42.2402 666.919 42.2402 664.472V271.645C42.2402 268.621 45.9931 267.178 47.9864 269.446C52.6053 274.711 57.7878 279.522 63.5064 283.756C64.9773 284.842 65.266 287.028 64.1663 288.636C55.7533 300.967 51.5055 315.388 51.8767 330.344C52.839 367.735 85.2812 399.325 122.727 399.325H123.58C162.125 398.844 193.495 367.075 193.495 328.516C193.495 314.288 189.275 300.555 181.288 288.801C180.12 287.083 180.367 284.87 181.852 283.756C207.091 265.033 222.171 235.148 222.171 203.819C222.171 172.298 206.871 142.412 181.701 123.772C180.299 122.727 179.982 120.748 180.972 119.304C189.096 107.537 193.495 93.5841 193.495 79.1226C193.495 67.8915 190.815 56.8804 185.77 46.9965C184.656 44.8107 186.265 42.2401 188.712 42.2401H603.175C605.622 42.2401 607.231 44.8245 606.117 46.9965C600.179 58.5987 597.567 71.6718 598.653 85.0062C600.563 108.431 614.173 128.803 633.542 140.213C635.741 141.505 635.686 144.722 633.418 145.932C609.169 158.812 594.364 179.364 594.364 203.819C594.364 245.76 637.9 276.209 697.89 276.209C737.907 276.209 770.597 262.669 787.945 241.196C789.883 238.805 793.76 240.234 793.76 243.313V399.916C793.76 403.27 789.347 404.48 787.643 401.593C771.353 374.045 742.141 354.992 708.42 352.834C706.262 352.696 704.09 352.627 701.932 352.627C674.59 352.627 648.141 364.092 629.377 384.094C610.365 404.37 600.866 430.833 602.639 458.601C605.815 508.323 645.721 548.216 695.443 551.391C697.588 551.529 699.774 551.597 701.918 551.597C729.26 551.597 755.695 540.133 774.46 520.131C779.532 514.729 783.931 508.873 787.615 502.673C789.333 499.786 793.732 500.982 793.732 504.336V1054.96C793.732 1057.94 790.117 1059.37 788.055 1057.22C769.964 1038.33 739.089 1026.63 701.904 1026.63C679.538 1026.63 659.468 1030.86 643.082 1038.34C640.374 1039.58 637.611 1036.83 638.724 1034.08C642.01 1025.93 643.811 1017.03 643.811 1007.73C643.811 992.922 639.315 978.749 630.793 966.735C630.325 966.075 630.421 965.016 631.012 964.164C639.989 951.352 644.388 936.258 643.742 920.518C642.23 883.512 612.014 853.723 574.953 852.706C574.293 852.692 573.634 852.678 572.988 852.678C533.933 852.678 502.164 884.447 502.164 923.488C502.164 926.869 502.412 930.223 502.879 933.523C503.182 935.681 501.408 937.523 499.236 937.289C496.858 937.042 494.452 936.918 492.061 936.918C453.006 936.918 421.237 968.687 421.237 1007.74C421.237 1019.93 424.413 1031.94 430.42 1042.56C432.537 1046.3 432.537 1050.82 430.42 1054.56C424.413 1065.19 421.237 1077.19 421.237 1089.38C421.237 1112.75 432.606 1133.51 450.119 1146.42C452.69 1148.32 451.384 1152.37 448.195 1152.37H175.872V1152.34ZM490.617 772.04C492.061 771.05 494.04 771.366 495.085 772.769C513.588 797.884 543.13 813.239 575.173 813.239C607.217 813.239 636.759 797.884 655.262 772.769C656.293 771.366 658.286 771.036 659.729 772.04C671.428 780.082 685.422 784.577 699.87 784.577C700.488 784.577 701.093 784.563 701.712 784.549C740.23 783.56 771.16 751.392 770.679 712.847C770.184 674.301 738.429 642.931 699.87 642.931C685.436 642.931 671.428 647.426 659.729 655.468C658.286 656.457 656.306 656.141 655.262 654.739C636.759 629.624 607.217 614.269 575.173 614.269C543.13 614.269 513.588 629.624 495.085 654.739C494.054 656.141 492.061 656.471 490.617 655.468C478.919 647.426 464.925 642.931 450.477 642.931C449.858 642.931 449.253 642.944 448.635 642.958C410.116 643.948 379.186 676.115 379.667 714.661C380.162 753.207 411.917 784.577 450.477 784.577C464.925 784.577 478.919 780.082 490.617 772.04ZM303.923 526.468C284.114 526.468 265.075 534.868 251.672 549.522C238.282 564.148 231.629 583.902 233.388 603.711C236.426 637.817 263.384 664.774 297.489 667.812C299.62 668.005 301.792 668.101 303.923 668.101C323.732 668.101 342.771 659.702 356.174 645.048C369.563 630.421 376.217 610.667 374.457 590.858C371.419 556.752 344.462 529.795 310.356 526.757C308.212 526.565 306.054 526.468 303.923 526.468ZM232.646 379.736C172.655 379.736 129.12 410.185 129.12 452.126C129.12 494.067 172.655 524.516 232.646 524.516C292.637 524.516 336.173 494.067 336.173 452.126C336.173 410.185 292.637 379.736 232.646 379.736ZM511.21 224.975C469.268 224.975 438.819 268.511 438.819 328.502C438.819 388.493 469.268 432.028 511.21 432.028C553.151 432.028 583.6 388.493 583.6 328.502C583.586 268.511 553.151 224.975 511.21 224.975ZM46.9966 867.456C49.636 868.748 52.3716 869.958 55.2034 871.058C57.3204 871.882 58.0215 874.59 56.4956 876.281C53.4026 879.718 50.667 883.43 48.3438 887.361C46.6392 890.221 42.2402 888.983 42.2402 885.643V870.398C42.2402 867.951 44.7971 866.384 46.9966 867.456ZM162.167 876.391C162.139 876.364 162.112 876.336 162.098 876.309C160.572 874.604 161.259 871.91 163.39 871.085C163.431 871.071 163.473 871.058 163.514 871.044C166.139 870.013 168.724 872.528 167.803 875.195C167.789 875.237 167.775 875.278 167.762 875.333C166.923 877.697 163.83 878.275 162.167 876.391ZM787.945 166.428C774.336 149.575 751.255 137.615 722.621 133.243C719.967 132.845 718.868 129.656 720.71 127.703C732.697 115.015 740.051 97.9143 740.051 79.1226C740.051 67.8915 737.371 56.8804 732.326 46.9965C731.212 44.8107 732.821 42.2401 735.268 42.2401H790.488C792.303 42.2401 793.787 43.711 793.787 45.5393V164.339C793.76 167.418 789.883 168.834 787.945 166.428ZM45.5395 42.2401H56.6468C59.0937 42.2401 60.7021 44.8245 59.5886 46.9965C54.5436 56.8804 51.8629 67.8915 51.8629 79.1226C51.8629 93.5704 56.2619 107.537 64.3862 119.304C65.376 120.748 65.0598 122.727 63.6576 123.772C57.8978 128.033 52.6603 132.886 48.0139 138.206C46.0206 140.488 42.254 139.058 42.254 136.034V45.5393C42.2402 43.711 43.7111 42.2401 45.5395 42.2401Z" stroke="#D5D5D5" stroke-width="0.5" stroke-miterlimit="10"/>
<path d="M560.767 1138.6C570.403 1125.14 576.025 1108.99 576.603 1092.21C579.448 1092.09 582.266 1091.83 585.057 1091.43C584.796 1093.93 584.658 1096.46 584.658 1099.02C584.658 1113.15 588.782 1126.66 596.549 1138.6H560.767V1138.6ZM185.77 1138.6C181.164 1099.2 148.818 1067.57 108.912 1064.24C106.534 1064.05 104.128 1063.94 101.777 1063.94C85.3636 1063.94 69.5136 1068.71 55.9868 1077.44V988.977C69.3074 999.864 85.7347 1006.59 103.193 1007.82C105.214 1007.97 107.276 1008.04 109.31 1008.04C127.978 1008.04 146.028 1001.82 160.668 990.613C175.982 1022.29 202.073 1040.76 232.646 1040.76C282.56 1040.76 318.783 991.437 318.783 923.487C318.783 855.537 282.56 806.214 232.646 806.214C230.46 806.214 228.288 806.31 226.144 806.503C225.553 792.371 220.838 779.064 212.37 767.448C221.456 754.994 226.213 740.587 226.213 725.328C226.213 697.766 211.256 674.026 184.079 658.464C163.857 646.89 138.014 640.759 109.324 640.759C90.0649 640.759 71.933 643.549 56.0006 648.924V379.571C71.7131 399.751 96.1822 413.072 122.741 413.072H123.676C124.762 413.058 125.834 413.03 126.906 412.975C119.469 424.536 115.386 437.761 115.386 452.126C115.386 502.04 164.71 538.263 232.66 538.263C236.413 538.263 240.124 538.153 243.767 537.933C243.011 538.689 242.282 539.473 241.554 540.256C225.566 557.728 217.607 581.304 219.724 604.948C223.353 645.68 255.562 677.888 296.293 681.518C298.823 681.751 301.393 681.861 303.936 681.861C327.581 681.861 350.332 671.84 366.333 654.34C382.32 636.868 390.28 613.293 388.163 589.648C384.699 550.731 355.157 519.609 317.01 513.739C337.698 498.452 349.933 476.994 349.933 452.126C349.933 402.212 300.61 365.989 232.66 365.989C219.862 365.989 207.723 367.281 196.451 369.701C203.324 357.48 207.256 343.431 207.256 328.515C207.256 314.576 203.86 301.049 197.386 288.884C221.676 267.494 235.931 236.344 235.931 203.833C235.931 171.363 221.676 140.227 197.386 118.795C203.874 106.63 207.256 93.1028 207.256 79.1498C207.256 71.3417 206.156 63.5336 204.012 56.0141H587.903C585.139 65.7193 584.136 75.9194 584.975 86.1469C586.748 107.935 597.058 128.074 613.32 142.44C592.37 158.07 580.644 179.803 580.644 203.846C580.644 253.761 629.968 289.983 697.918 289.983C730.332 289.983 759.008 281.832 780.041 267.095V370.099C761.029 351.981 736.106 340.819 709.327 339.114C706.867 338.963 704.392 338.88 701.973 338.88C670.85 338.88 640.745 351.94 619.396 374.691C597.759 397.758 586.954 427.877 588.975 459.48C592.59 516.089 638.009 561.509 694.618 565.124C697.052 565.275 699.526 565.358 701.973 565.358C730.978 565.358 759.077 554.03 780.054 534.084V686.934C768.741 653.46 736.945 629.211 699.897 629.211C686.027 629.211 672.514 632.607 660.32 639.095C638.958 614.791 607.808 600.536 575.214 600.536C542.621 600.536 511.471 614.791 490.108 639.095C477.915 632.607 464.402 629.211 450.532 629.211C449.803 629.211 449.061 629.225 448.332 629.239C402.349 630.421 365.398 668.829 365.975 714.853C366.553 760.891 404.494 798.337 450.532 798.337C464.402 798.337 477.915 794.942 490.108 788.453C511.471 812.758 542.621 827.013 575.214 827.013C607.808 827.013 638.958 812.758 660.32 788.453C672.514 794.942 686.027 798.337 699.897 798.337C700.626 798.337 701.354 798.323 702.083 798.31C738.36 797.375 769.016 773.291 780.068 740.587V1033.17C759.365 1020.13 732.051 1012.91 701.987 1012.91C686.109 1012.91 670.837 1014.93 656.911 1018.81C657.392 1015.16 657.626 1011.47 657.626 1007.74C657.626 992.798 653.777 978.392 646.45 965.621C654.395 951.806 658.217 936.162 657.557 919.954C655.743 875.745 619.657 840.168 575.421 838.959C574.637 838.931 573.853 838.931 573.07 838.931C526.523 838.931 488.637 876.735 488.5 923.254C443.548 925.164 407.573 962.336 407.573 1007.74C407.573 1021.97 411.216 1036.07 418.103 1048.56C411.202 1061.05 407.573 1075.14 407.573 1089.37C407.573 1107.16 413.278 1124.38 423.464 1138.61H185.77V1138.6ZM511.21 211.228C461.295 211.228 425.073 260.552 425.073 328.502C425.073 396.452 461.295 445.775 511.21 445.775C561.124 445.775 597.347 396.452 597.347 328.502C597.333 260.552 561.11 211.228 511.21 211.228ZM780.013 140.625C769.084 132.982 756.025 127.071 741.412 123.153C749.468 109.998 753.784 94.8349 753.784 79.1361C753.784 71.328 752.685 63.5198 750.54 56.0004H780.013V140.625Z" stroke="#D5D5D5" stroke-width="0.5" stroke-miterlimit="10"/>
<path d="M197.221 1124.85C187.227 1084.52 152.282 1054.05 110.053 1050.55C107.289 1050.31 104.513 1050.2 101.777 1050.2C90.7934 1050.2 79.9885 1052.03 69.7334 1055.57V1013.45C79.9472 1017.98 90.9034 1020.72 102.217 1021.53C104.568 1021.69 106.96 1021.78 109.31 1021.78C125.504 1021.78 141.56 1017.67 155.802 1010.04C174.099 1038.48 201.441 1054.49 232.632 1054.49C290.506 1054.49 332.516 999.397 332.516 923.474C332.516 850.025 293.2 796.055 238.241 792.619C236.44 783.807 233.237 775.325 228.714 767.421C236.082 754.554 239.945 740.161 239.945 725.301C239.945 692.598 222.528 664.623 190.897 646.505C168.6 633.734 140.392 626.985 109.31 626.985C95.4535 626.985 82.2017 628.304 69.7334 630.944V410.68C80.772 417.911 93.0753 422.901 105.86 425.265C103.042 433.829 101.612 442.806 101.612 452.126C101.612 505.958 149.272 546.058 217.03 551.391C208.245 568.052 204.314 587.092 206.005 606.158C210.225 653.529 247.671 690.976 295.042 695.196C297.957 695.457 300.953 695.594 303.909 695.594C323.484 695.594 342.523 689.683 358.58 678.947C354.291 690.165 351.995 702.344 352.16 715.005C352.833 768.521 396.933 812.057 450.463 812.057C462.917 812.057 475.33 809.637 486.891 805.018C500.185 817.858 516.007 827.563 533.204 833.584C502.48 847.262 479.977 876.24 475.509 910.786C428.784 918.649 393.771 959.078 393.771 1007.71C393.771 1021.78 396.837 1035.74 402.679 1048.53C396.837 1061.31 393.771 1075.29 393.771 1089.34C393.771 1101.43 396.094 1113.51 400.493 1124.84H197.221V1124.85ZM766.266 1010.81C747.213 1003.14 725.37 999.136 701.932 999.136C691.36 999.136 681.05 999.961 671.125 1001.6C670.355 989.087 667.207 976.866 661.887 965.608C668.678 951.297 671.881 935.461 671.221 919.377C669.682 881.821 646.862 849.613 614.612 834.45C632.758 828.511 649.488 818.49 663.413 805.032C674.974 809.651 687.387 812.07 699.842 812.07C700.681 812.07 701.519 812.057 702.371 812.043C726.538 811.424 749.097 801.829 766.266 786.062V1010.81ZM766.266 641.336C748.533 625.06 725.04 615.451 699.856 615.451C687.401 615.451 674.988 617.87 663.427 622.489C639.81 599.684 608.193 586.775 575.173 586.775C542.153 586.775 510.522 599.684 486.919 622.489C475.358 617.87 462.945 615.451 450.49 615.451C449.638 615.451 448.772 615.465 447.906 615.492C428.647 615.987 410.762 622.091 395.778 632.208C401.029 618.393 403.174 603.423 401.841 588.425C398.596 552.051 375.845 521.41 343.706 507.292C356.71 491.428 363.68 472.458 363.68 452.112C363.68 394.239 308.583 352.229 232.66 352.229C227.683 352.229 222.776 352.407 217.923 352.779C219.958 344.874 221.002 336.709 221.002 328.502C221.002 315.992 218.597 303.565 213.978 292.004C236.784 268.374 249.678 236.77 249.678 203.805C249.678 170.882 236.784 139.292 213.978 115.634C218.597 104.073 221.002 91.6322 221.002 79.1227C221.002 75.9884 220.851 72.8541 220.549 69.7336H571.379C570.829 75.521 570.788 81.3634 571.269 87.2332C572.905 107.317 580.63 126.123 593.36 141.519C576.19 158.716 566.884 180.367 566.884 203.819C566.884 208.96 567.324 213.978 568.162 218.844C552.312 205.194 532.874 197.482 511.209 197.482C453.336 197.482 411.326 252.579 411.326 328.502C411.326 404.425 453.336 459.522 511.209 459.522C537.053 459.522 559.722 448.538 576.905 429.623C575.132 439.617 574.554 449.913 575.214 460.361C579.283 523.843 630.215 574.788 693.697 578.844C696.419 579.022 699.196 579.105 701.932 579.105C724.462 579.105 746.828 572.85 766.266 561.481V641.336ZM607.038 367.804C609.677 355.542 611.079 342.372 611.079 328.516C611.079 309.133 608.344 291.097 603.299 275C626.599 293.022 659.605 303.717 697.904 303.717C723.225 303.717 746.43 299.18 766.28 290.451V342.647C749.275 332.653 730.057 326.687 710.18 325.409C707.43 325.23 704.667 325.148 701.945 325.148C667.029 325.148 633.28 339.788 609.347 365.302C608.564 366.113 607.794 366.952 607.038 367.804ZM766.266 117.297C764.452 116.5 762.623 115.744 760.754 115.015C763.297 108.513 765.153 101.764 766.266 94.8627V117.297Z" stroke="#D5D5D5" stroke-width="0.5" stroke-miterlimit="10"/>
<path d="M207.435 1111.1C192.863 1069.85 155.417 1040.53 111.194 1036.84C108.046 1036.58 104.884 1036.46 101.777 1036.46C95.6188 1036.46 89.5015 1036.95 83.4805 1037.96V1032.54C89.2953 1033.91 95.2202 1034.82 101.241 1035.25C103.908 1035.44 106.63 1035.54 109.311 1035.54C123.607 1035.54 137.904 1032.73 151.238 1027.34C171.968 1053.82 200.479 1068.25 232.646 1068.25C298.479 1068.25 346.277 1007.37 346.277 923.487C346.277 885.161 335.925 849.736 317.147 823.755C299.785 799.739 275.935 784.48 249.183 780.068C247.823 775.765 246.173 771.545 244.235 767.448C250.448 754.306 253.72 739.886 253.72 725.328C253.72 714.798 252.18 704.694 249.183 695.154C262.587 702.646 277.722 707.471 293.86 708.915C297.173 709.217 300.582 709.368 303.95 709.368C315.91 709.368 327.691 707.471 338.895 703.773C338.551 707.554 338.413 711.375 338.455 715.211C339.225 776.205 389.496 825.844 450.504 825.844C461.845 825.844 473.008 824.14 483.785 820.758C490.122 826.161 496.954 830.999 504.158 835.22C483.813 851.18 469.269 873.917 463.619 899.321C414.653 912.023 380.052 956.15 380.052 1007.74C380.052 1021.6 382.705 1035.58 387.778 1048.56C382.705 1061.53 380.052 1075.53 380.052 1089.37C380.052 1096.68 380.781 1103.94 382.211 1111.12H207.435V1111.1ZM752.52 991.767C736.752 987.533 719.803 985.403 701.932 985.403C695.553 985.403 689.23 985.691 683.003 986.255C681.642 979.189 679.593 972.302 676.885 965.621C682.838 950.898 685.614 934.842 684.955 918.827C683.621 886.302 668.362 856.623 643.728 836.622C651.825 832.099 659.496 826.765 666.548 820.758C677.339 824.14 688.488 825.844 699.829 825.844C700.791 825.844 701.739 825.831 702.702 825.803C720.188 825.349 737.22 820.772 752.506 812.579V991.767H752.52ZM197.729 634.586C173.357 620.633 142.784 613.251 109.311 613.251C100.499 613.251 91.866 613.76 83.4805 614.777V433.142C85.3913 433.884 87.3296 434.571 89.2816 435.204C88.3468 440.744 87.8794 446.394 87.8794 452.112C87.8794 507.566 132.034 551.199 197.372 562.732C192.712 577.07 190.98 592.219 192.327 607.381C193.179 616.963 195.228 626.201 198.321 634.916C198.114 634.806 197.922 634.696 197.729 634.586ZM752.52 614.86C736.436 606.268 718.414 601.704 699.856 601.704C688.515 601.704 677.366 603.409 666.575 606.79C641.075 584.961 608.935 573.042 575.16 573.042C541.384 573.042 509.258 584.974 483.744 606.79C472.953 603.422 461.804 601.704 450.463 601.704C449.487 601.704 448.497 601.718 447.507 601.745C436.551 602.02 425.774 603.917 415.464 607.326C416.082 600.618 416.096 593.868 415.505 587.201C412.371 552.065 393.002 520.846 363.776 502.439C372.725 487.125 377.399 469.997 377.399 452.126C377.399 386.719 317.298 339.114 234.255 338.509C234.557 335.183 234.708 331.856 234.708 328.515C234.708 317.147 233.004 305.971 229.636 295.18C251.465 269.652 263.384 237.54 263.384 203.833C263.384 170.153 251.452 138.055 229.636 112.513C232.577 103.097 234.255 93.3777 234.626 83.4938H557.234C557.289 85.1159 557.399 86.738 557.522 88.3601C559.062 107.207 565.262 125.078 575.599 140.694C563.117 156.145 555.667 173.975 553.646 193.165C540.449 186.952 526.111 183.749 511.169 183.749C445.335 183.749 397.538 244.633 397.538 328.515C397.538 412.398 445.322 473.282 511.169 473.282C529.273 473.282 546.236 468.704 561.385 459.865C561.413 460.319 561.44 460.786 561.468 461.24C565.977 531.609 622.435 588.067 692.804 592.562C695.828 592.755 698.894 592.851 701.904 592.851C719.156 592.851 736.312 589.593 752.492 583.338V614.86H752.52ZM624.744 334.523C624.799 332.529 624.826 330.522 624.826 328.502C624.826 319.663 624.29 311.002 623.246 302.589C637.102 308.72 652.444 313.05 668.761 315.387C653.117 319.209 638.216 325.697 624.744 334.523ZM752.52 320.803C745.908 318.26 739.103 316.212 732.188 314.686C739.185 313.504 745.963 311.964 752.52 310.04V320.803Z" stroke="#D5D5D5" stroke-width="0.5" stroke-miterlimit="10"/>
<path d="M216.741 1097.36C213.895 1090.94 210.528 1084.83 206.72 1079.07C215.091 1081 223.766 1081.99 232.646 1081.99C306.452 1081.99 360.023 1015.32 360.023 923.474C360.023 882.275 348.751 844.004 328.282 815.686C310.7 791.368 286.519 774.707 259.507 768.136C259.411 767.902 259.315 767.655 259.218 767.421C264.607 754.073 267.439 739.639 267.439 725.315C267.439 722.758 267.356 720.215 267.192 717.685C275.412 720.174 283.894 721.823 292.609 722.593C296.335 722.923 300.142 723.102 303.923 723.102C310.989 723.102 317.999 722.511 324.9 721.342C328.859 787.065 383.984 839.578 450.477 839.578C460.663 839.578 470.78 838.34 480.623 835.894C481.049 836.223 481.489 836.553 481.915 836.883C468.1 851.441 457.872 869.106 452.236 888.324C401.236 905.191 366.278 953.153 366.278 1007.73C366.278 1021.42 368.629 1035.43 373.124 1048.54C368.642 1061.66 366.278 1075.66 366.278 1089.36C366.278 1092.02 366.36 1094.69 366.539 1097.36H216.741V1097.36ZM738.773 974.694C726.951 972.66 714.62 971.642 701.932 971.642C699.155 971.642 696.378 971.697 693.615 971.794C692.996 969.704 692.323 967.642 691.594 965.594C696.914 950.514 699.361 934.265 698.701 918.236C697.478 888.516 685.752 860.376 665.943 838.684C667.207 837.763 668.472 836.828 669.709 835.866C679.552 838.313 689.67 839.55 699.856 839.55C700.928 839.55 701.987 839.536 703.059 839.509C715.156 839.193 727.226 837.09 738.773 833.309V974.694ZM178.855 610.887C157.905 603.395 134.316 599.505 109.31 599.505C105.255 599.505 101.227 599.601 97.2271 599.807V520.571C115.826 545.233 144.736 563.942 180.477 573.125C178.181 584.755 177.563 596.632 178.635 608.591C178.69 609.361 178.773 610.131 178.855 610.887ZM480.596 591.628C470.753 589.195 460.649 587.958 450.477 587.958C449.377 587.958 448.263 587.971 447.15 587.999C441.225 588.15 435.328 588.727 429.499 589.717C429.43 588.466 429.334 587.215 429.224 585.978C426.145 551.336 408.549 519.306 381.441 498.068C387.819 483.647 391.159 467.976 391.159 452.112C391.159 382.815 331.939 331.086 248.427 325.285C248.194 316.171 246.984 307.14 244.798 298.328C265.707 271.343 277.144 238.062 277.144 203.819C277.144 169.604 265.707 136.35 244.798 109.338C245.788 105.338 246.571 101.296 247.163 97.2271H544.724C546.896 112.211 551.776 126.7 559.089 139.897C551.735 150.647 546.415 162.222 543.157 174.497C532.874 171.501 522.179 169.975 511.21 169.975C437.403 169.975 383.832 236.646 383.832 328.488C383.832 420.344 437.403 487.002 511.21 487.002C524.778 487.002 537.768 484.761 550.044 480.307C555.735 511.072 570.582 538.662 591.628 560.148C586.184 559.571 580.699 559.268 575.173 559.268C540.875 559.282 507.58 570.719 480.596 591.628Z" stroke="#D5D5D5" stroke-width="0.5" stroke-miterlimit="10"/>
<path d="M287.647 1083.61C315.264 1070.55 337.822 1047.57 352.902 1017.57C353.658 1027.99 355.624 1038.49 358.676 1048.56C355.212 1059.92 353.163 1071.87 352.655 1083.62H287.647V1083.61ZM725.026 959.01C719.5 958.473 713.891 958.13 708.228 957.992C711.54 944.85 712.984 931.131 712.434 917.701C711.499 894.867 704.928 872.708 693.546 853.187C695.649 853.283 697.753 853.325 699.842 853.325C701.024 853.325 702.207 853.311 703.389 853.283C710.647 853.091 717.878 852.335 725.026 851.015V959.01V959.01ZM373.55 933.839C373.687 930.416 373.77 926.966 373.77 923.474C373.77 879.416 361.576 838.272 339.43 807.631C323.099 785.031 301.132 768.122 276.567 759.008C278.752 751.131 280.182 743.035 280.814 734.924C284.32 735.502 287.853 735.955 291.399 736.271C295.537 736.642 299.757 736.835 303.936 736.835C306.892 736.835 309.861 736.739 312.817 736.546C323.8 803.067 381.702 853.297 450.504 853.297C451.191 853.297 451.865 853.297 452.552 853.283C448.016 861.037 444.222 869.202 441.266 877.656C412.59 888.777 389.125 908.752 373.55 933.839ZM164.462 592.219C147.622 588.054 129.71 585.882 110.974 585.758V554.265C126.342 566.623 144.584 576.314 165.108 582.982C164.792 586.047 164.586 589.14 164.462 592.219ZM477.448 576.851C468.581 575.105 459.536 574.211 450.49 574.211C449.267 574.211 448.03 574.225 446.792 574.266C445.074 574.307 443.342 574.39 441.624 574.5C436.51 543.597 421.017 515.087 397.854 493.958C402.542 480.514 404.92 466.492 404.92 452.127C404.92 449.831 404.865 447.549 404.755 445.294C430.008 479.977 467.399 500.79 511.223 500.79C521.038 500.79 530.661 499.718 539.968 497.601C544.807 514.88 552.381 531.198 562.416 546.044C531.926 548.381 502.343 559.09 477.448 576.851ZM373.289 367.584C347.912 338.414 308.762 318.467 261.335 312.707C260.909 308.941 260.332 305.188 259.589 301.476C279.825 273.103 290.905 238.681 290.905 203.806C290.905 170.91 281.021 138.385 262.875 110.96H533.342C535.624 120.707 538.937 130.137 543.253 139.155C539.61 145.286 536.517 151.664 533.988 158.235C526.523 156.902 518.894 156.228 511.196 156.228C429.43 156.228 370.072 228.674 370.072 328.488C370.086 342.084 371.185 355.143 373.289 367.584Z" stroke="#D5D5D5" stroke-width="0.5" stroke-miterlimit="10"/>
<path d="M331.457 1069.86C335.086 1066.4 338.564 1062.73 341.905 1058.87C341.162 1062.51 340.557 1066.18 340.076 1069.86H331.457ZM386.059 896.709C384.162 879.388 380.437 862.713 375.007 847.138C392.273 856.926 411.312 863.291 431.038 865.82C430.846 866.287 430.653 866.769 430.461 867.25C413.869 874.453 398.912 884.406 386.059 896.709ZM303.249 756.451C299.757 754.43 296.197 752.561 292.554 750.842C292.595 750.623 292.636 750.403 292.677 750.183C295.661 750.403 298.671 750.526 301.668 750.581C302.149 752.547 302.671 754.499 303.249 756.451ZM474.285 562.334C467.165 561.206 459.948 560.588 452.744 560.478C446.173 534.002 432.564 509.519 413.497 489.971C414.556 486.163 415.463 482.3 416.206 478.424C442.489 501.903 475.303 514.523 511.209 514.523C517.711 514.523 524.159 514.096 530.51 513.244C533.204 520.791 536.379 528.132 540.05 535.239C516.584 539.858 494.232 549.054 474.285 562.334ZM356.394 333.877C333.973 317.807 306.658 306.562 276.401 301.091C294.671 272.14 304.651 237.98 304.651 203.819C304.651 176.284 298.424 149.341 286.505 124.72H522.866C524.324 129.394 526.001 133.999 527.898 138.508C527.087 140.062 526.289 141.629 525.533 143.21C520.791 142.742 516.007 142.495 511.209 142.495C421.471 142.495 356.339 220.728 356.339 328.502C356.339 330.303 356.352 332.09 356.394 333.877Z" stroke="#D5D5D5" stroke-width="0.5" stroke-miterlimit="10"/>
<path d="M471.123 548.01C468.512 547.68 465.9 547.419 463.274 547.212C459.851 536.352 455.342 525.891 449.83 515.98C468.896 524.09 489.558 528.269 511.181 528.269C511.718 528.269 512.254 528.269 512.79 528.256C498.204 533.149 484.265 539.762 471.123 548.01ZM343.251 309.614C329.12 302.081 313.696 296.06 297.434 291.716C311.029 264.497 318.384 233.911 318.384 203.819C318.384 181.302 314.603 159.39 307.139 138.467H456.318C430.804 147.939 407.985 164.146 389.55 186.278C362.758 218.473 346.606 261.734 343.251 309.614Z" stroke="#D5D5D5" stroke-width="0.5" stroke-miterlimit="10"/>
<path d="M331.623 288.884C326.66 286.795 321.574 284.87 316.405 283.097C326.729 257.789 332.132 230.681 332.132 203.806C332.132 186.251 329.973 168.972 325.698 152.201H404.728C395.421 159.651 386.788 168.119 378.994 177.481C353.989 207.517 337.795 245.72 331.623 288.884Z" stroke="#D5D5D5" stroke-width="0.5" stroke-miterlimit="10"/>
<path d="M345.878 201.826C345.768 189.756 344.696 177.755 342.675 165.961H370.746C369.962 166.868 369.192 167.775 368.422 168.696C359.968 178.855 352.421 189.949 345.878 201.826Z" stroke="#D5D5D5" stroke-width="0.5" stroke-miterlimit="10"/>
<path d="M345.878 201.826C345.768 189.756 344.696 177.755 342.675 165.961H370.746C369.962 166.868 369.192 167.775 368.422 168.696C359.968 178.855 352.421 189.949 345.878 201.826Z" stroke="#D5D5D5" stroke-width="0.5" stroke-miterlimit="10"/>
</svg>
