<svg width="487" height="487" viewBox="0 0 487 487" fill="none" xmlns="http://www.w3.org/2000/svg">
<path d="M114.836 139.654C116.335 151.459 122.229 169.476 130.058 186.587L183.048 133.597C165.936 125.769 147.921 119.874 136.116 118.375C131.348 117.771 126.853 118.976 123.224 121.389L117.853 126.76C115.44 130.394 114.233 134.886 114.836 139.654Z" fill="#009FE3" stroke="#1B1A1A" stroke-width="3" stroke-miterlimit="10"/>
<path d="M133.997 368.732C145.802 367.233 163.819 361.34 180.93 353.51L127.94 300.521C120.113 317.633 114.217 335.648 112.718 347.453C112.114 352.221 113.319 356.716 115.732 360.345L121.103 365.716C124.737 368.129 129.229 369.336 133.997 368.732Z" fill="#009FE3" stroke="#1B1A1A" stroke-width="3" stroke-miterlimit="10"/>
<path d="M351.696 116.961C339.891 118.46 321.874 124.353 304.763 132.183L357.753 185.172C365.58 168.06 371.476 150.045 372.975 138.24C373.579 133.472 372.373 128.977 369.961 125.348L364.589 119.977C360.956 117.564 356.464 116.357 351.696 116.961Z" fill="#009FE3" stroke="#1B1A1A" stroke-width="3" stroke-miterlimit="10"/>
<path d="M346.743 371.561C334.938 370.062 316.921 364.168 299.81 356.339L352.8 303.349C360.628 320.462 366.523 338.476 368.022 350.281C368.626 355.049 367.421 359.544 365.008 363.173L359.637 368.545C356.003 370.957 351.511 372.164 346.743 371.561Z" fill="#009FE3" stroke="#1B1A1A" stroke-width="3" stroke-miterlimit="10"/>
<path d="M87.6992 245.946C87.6992 331.823 157.315 401.446 243.199 401.446C329.076 401.446 398.699 331.83 398.699 245.946C398.692 160.062 329.076 90.4462 243.199 90.4462C157.315 90.4462 87.6992 160.062 87.6992 245.946Z" fill="#E30613" stroke="#1B1A1A" stroke-width="3" stroke-miterlimit="10"/>
<path fill-rule="evenodd" clip-rule="evenodd" d="M108.699 246.372C108.699 172.087 168.913 111.872 243.199 111.872C317.478 111.872 377.692 172.087 377.699 246.372C377.699 320.658 317.478 380.872 243.199 380.872C168.913 380.872 108.699 320.652 108.699 246.372ZM243.199 121.005C173.957 121.005 117.831 177.13 117.831 246.372C117.831 315.608 173.957 371.739 243.199 371.739C312.435 371.739 368.566 315.614 368.566 246.373C368.56 177.13 312.434 121.005 243.199 121.005Z" fill="#009FE3" stroke="#1B1A1A" stroke-width="3" stroke-miterlimit="10"/>
<circle cx="151.027" cy="154.447" r="16.4173" fill="#FFDE00" stroke="#1B1A1A" stroke-width="2"/>
<circle cx="241.431" cy="115.466" r="16.4173" fill="#FFDE00" stroke="#1B1A1A" stroke-width="2"/>
<circle cx="335.829" cy="152.875" r="16.4173" fill="#FFDE00" stroke="#1B1A1A" stroke-width="2"/>
<circle cx="374.135" cy="244.022" r="16.4173" fill="#FFDE00" stroke="#1B1A1A" stroke-width="2"/>
<circle cx="333.494" cy="333.597" r="16.4173" fill="#FFDE00" stroke="#1B1A1A" stroke-width="2"/>
<circle cx="242.261" cy="376.725" r="16.4173" fill="#FFDE00" stroke="#1B1A1A" stroke-width="2"/>
<circle cx="147.71" cy="333.597" r="16.4173" fill="#FFDE00" stroke="#1B1A1A" stroke-width="2"/>
<circle cx="116.193" cy="246.51" r="16.4173" fill="#FFDE00" stroke="#1B1A1A" stroke-width="2"/>
<path d="M317.556 317.903C327.219 308.24 332.543 297.898 329.448 294.803C326.353 291.707 316.011 297.031 306.348 306.694C296.685 316.357 291.361 326.699 294.456 329.794C297.551 332.889 307.894 327.565 317.556 317.903Z" fill="#FFFBF1" stroke="#1B1A1A" stroke-width="2.5" stroke-miterlimit="10"/>
<path d="M317.358 317.706C320.532 314.533 320.653 309.509 317.629 306.484C314.604 303.46 309.58 303.581 306.407 306.755C303.234 309.928 303.113 314.952 306.137 317.976C309.161 321 314.185 320.879 317.358 317.706Z" fill="#1B1A1A" stroke="#1B1A1A" stroke-width="2.5" stroke-miterlimit="10"/>
<path d="M240.741 122.85C254.406 122.85 265.484 119.302 265.484 114.925C265.484 110.548 254.406 106.999 240.741 106.999C227.076 106.999 215.998 110.548 215.998 114.925C215.998 119.302 227.076 122.85 240.741 122.85Z" fill="#FFFBF1" stroke="#1B1A1A" stroke-width="2.5" stroke-miterlimit="10"/>
<path d="M241.124 122.571C245.612 122.571 249.25 119.104 249.25 114.827C249.25 110.55 245.612 107.083 241.124 107.083C236.636 107.083 232.998 110.55 232.998 114.827C232.998 119.104 236.636 122.571 241.124 122.571Z" fill="#1B1A1A" stroke="#1B1A1A" stroke-width="2.5" stroke-miterlimit="10"/>
<path d="M170.148 321.449C211.102 362.403 277.494 362.403 318.448 321.449C359.402 280.495 359.402 214.103 318.448 173.149C277.494 132.195 211.102 132.195 170.148 173.149C129.194 214.103 129.194 280.495 170.148 321.449Z" fill="#FFFBF1" stroke="#1B1A1A" stroke-width="2.5" stroke-miterlimit="10"/>
<path d="M156.702 159.704C166.365 150.041 171.689 139.699 168.594 136.603C165.499 133.508 155.157 138.832 145.494 148.495C135.831 158.158 130.507 168.5 133.602 171.595C136.697 174.69 147.04 169.366 156.702 159.704Z" fill="#FFFBF1" stroke="#1B1A1A" stroke-width="2.5" stroke-miterlimit="10"/>
<path d="M156.504 159.507C159.677 156.333 159.798 151.309 156.774 148.285C153.75 145.261 148.726 145.382 145.553 148.555C142.379 151.729 142.258 156.753 145.282 159.777C148.306 162.801 153.331 162.68 156.504 159.507Z" fill="#1B1A1A" stroke="#1B1A1A" stroke-width="2.5" stroke-miterlimit="10"/>
<path d="M340.702 341.704C350.365 332.041 355.689 321.699 352.594 318.604C349.499 315.508 339.157 320.832 329.494 330.495C319.831 340.158 314.507 350.5 317.602 353.595C320.697 356.69 331.04 351.366 340.702 341.704Z" fill="#FFFBF1" stroke="#1B1A1A" stroke-width="2.5" stroke-miterlimit="10"/>
<path d="M340.504 341.507C343.677 338.333 343.798 333.309 340.774 330.285C337.75 327.261 332.726 327.382 329.553 330.555C326.379 333.729 326.258 338.753 329.282 341.777C332.306 344.801 337.331 344.68 340.504 341.507Z" fill="#1B1A1A" stroke="#1B1A1A" stroke-width="2.5" stroke-miterlimit="10"/>
<path d="M329.494 157.704C339.157 167.366 349.499 172.69 352.594 169.595C355.689 166.5 350.365 156.158 340.702 146.495C331.04 136.832 320.697 131.508 317.602 134.603C314.507 137.699 319.831 148.041 329.494 157.704Z" fill="#FFFBF1" stroke="#1B1A1A" stroke-width="2.5" stroke-miterlimit="10"/>
<path d="M329.691 157.506C332.864 160.679 337.888 160.8 340.913 157.776C343.937 154.752 343.816 149.728 340.642 146.554C337.469 143.381 332.445 143.26 329.421 146.284C326.397 149.308 326.518 154.332 329.691 157.506Z" fill="#1B1A1A" stroke="#1B1A1A" stroke-width="2.5" stroke-miterlimit="10"/>
<path d="M142.494 339.704C152.157 349.366 162.499 354.69 165.594 351.595C168.689 348.5 163.365 338.158 153.702 328.495C144.04 318.832 133.697 313.508 130.602 316.603C127.507 319.699 132.831 330.041 142.494 339.704Z" fill="#FFFBF1" stroke="#1B1A1A" stroke-width="2.5" stroke-miterlimit="10"/>
<path d="M142.691 339.506C145.864 342.679 150.888 342.8 153.913 339.776C156.937 336.752 156.816 331.728 153.642 328.554C150.469 325.381 145.445 325.26 142.421 328.284C139.397 331.308 139.518 336.332 142.691 339.506Z" fill="#1B1A1A" stroke="#1B1A1A" stroke-width="2.5" stroke-miterlimit="10"/>
<path d="M242.741 380.787C256.406 380.787 267.484 377.238 267.484 372.861C267.484 368.484 256.406 364.935 242.741 364.935C229.076 364.935 217.998 368.484 217.998 372.861C217.998 377.238 229.076 380.787 242.741 380.787Z" fill="#FFFBF1" stroke="#1B1A1A" stroke-width="2.5" stroke-miterlimit="10"/>
<path d="M242.741 380.507C247.229 380.507 250.867 377.04 250.867 372.763C250.867 368.486 247.229 365.019 242.741 365.019C238.253 365.019 234.615 368.486 234.615 372.763C234.615 377.04 238.253 380.507 242.741 380.507Z" fill="#1B1A1A" stroke="#1B1A1A" stroke-width="2.5" stroke-miterlimit="10"/>
<path d="M365.998 245.742C365.998 259.407 369.546 270.485 373.924 270.485C378.301 270.485 381.849 259.407 381.849 245.742C381.849 232.077 378.301 220.999 373.924 220.999C369.546 220.999 365.998 232.077 365.998 245.742Z" fill="#FFFBF1" stroke="#1B1A1A" stroke-width="2.5" stroke-miterlimit="10"/>
<path d="M366.278 245.742C366.278 250.23 369.745 253.868 374.021 253.868C378.298 253.868 381.765 250.23 381.765 245.742C381.765 241.254 378.298 237.616 374.021 237.616C369.745 237.616 366.278 241.254 366.278 245.742Z" fill="#1B1A1A" stroke="#1B1A1A" stroke-width="2.5" stroke-miterlimit="10"/>
<path d="M102.998 246.742C102.998 260.407 106.546 271.485 110.924 271.485C115.301 271.485 118.849 260.407 118.849 246.742C118.849 233.077 115.301 221.999 110.924 221.999C106.546 221.999 102.998 233.077 102.998 246.742Z" fill="#FFFBF1" stroke="#1B1A1A" stroke-width="2.5" stroke-miterlimit="10"/>
<path d="M103.277 246.742C103.277 251.23 106.744 254.868 111.021 254.868C115.298 254.868 118.765 251.23 118.765 246.742C118.765 242.254 115.298 238.616 111.021 238.616C106.744 238.616 103.277 242.254 103.277 246.742Z" fill="#1B1A1A" stroke="#1B1A1A" stroke-width="2.5" stroke-miterlimit="10"/>
<path d="M250.248 338.05C246.734 328.247 237.772 327.792 237.772 327.792C237.772 327.792 242.098 333.793 242.555 335.555C244.625 343.529 238.012 348.822 235.626 350.436C237.422 350.727 239.254 350.916 241.116 350.994L244.529 351.015C246.035 350.969 247.522 350.851 248.986 350.666C250.868 347.885 252.599 344.611 250.248 338.05Z" fill="#FFDE00" stroke="#1B1A1A" stroke-width="3" stroke-miterlimit="10"/>
<path d="M236.764 154.142C240.278 163.945 249.239 164.401 249.239 164.401C249.239 164.401 244.913 158.4 244.456 156.637C242.386 148.663 249 143.37 251.385 141.756C249.59 141.465 247.757 141.276 245.895 141.198L242.482 141.178C240.976 141.223 239.489 141.341 238.025 141.526C236.143 144.307 234.412 147.582 236.764 154.142Z" fill="#FFDE00" stroke="#1B1A1A" stroke-width="3" stroke-miterlimit="10"/>
<path d="M183.06 315.607C187.507 306.191 181.493 299.532 181.493 299.532C181.493 299.532 180.308 306.834 179.385 308.404C175.21 315.506 166.791 314.572 163.963 314.027C165.026 315.502 166.189 316.931 167.45 318.303L169.849 320.731C170.947 321.764 172.081 322.732 173.247 323.636C176.544 323 180.084 321.909 183.06 315.607Z" fill="#FFDE00" stroke="#1B1A1A" stroke-width="3" stroke-miterlimit="10"/>
<path d="M303.567 176.031C299.121 185.447 305.135 192.106 305.135 192.106C305.135 192.106 306.32 184.804 307.242 183.235C311.417 176.133 319.837 177.066 322.665 177.611C321.601 176.136 320.439 174.707 319.177 173.335L316.778 170.907C315.681 169.875 314.547 168.906 313.38 168.002C310.083 168.638 306.544 169.729 303.567 176.031Z" fill="#FFDE00" stroke="#1B1A1A" stroke-width="3" stroke-miterlimit="10"/>
<path d="M151.552 252.838C161.354 249.324 161.81 240.363 161.81 240.363C161.81 240.363 155.809 244.688 154.047 245.146C146.073 247.215 140.779 240.602 139.165 238.217C138.874 240.012 138.686 241.844 138.607 243.707L138.587 247.12C138.633 248.626 138.75 250.113 138.936 251.576C141.717 253.458 144.991 255.189 151.552 252.838Z" fill="#FFDE00" stroke="#1B1A1A" stroke-width="3" stroke-miterlimit="10"/>
<path d="M335.46 239.354C325.657 242.868 325.201 251.829 325.201 251.829C325.201 251.829 331.202 247.504 332.964 247.047C340.938 244.977 346.232 251.59 347.846 253.975C348.137 252.18 348.326 250.348 348.404 248.486L348.424 245.073C348.378 243.566 348.261 242.08 348.076 240.616C345.295 238.734 342.02 237.003 335.46 239.354Z" fill="#FFDE00" stroke="#1B1A1A" stroke-width="3" stroke-miterlimit="10"/>
<path d="M173.165 185.651C182.581 190.097 189.24 184.083 189.24 184.083C189.24 184.083 181.938 182.899 180.369 181.976C173.267 177.801 174.2 169.382 174.745 166.554C173.27 167.617 171.841 168.779 170.469 170.041L168.041 172.44C167.008 173.537 166.04 174.672 165.136 175.838C165.772 179.135 166.863 182.674 173.165 185.651Z" fill="#FFDE00" stroke="#1B1A1A" stroke-width="3" stroke-miterlimit="10"/>
<path d="M312.741 306.158C303.325 301.711 296.666 307.726 296.666 307.726C296.666 307.726 303.968 308.91 305.538 309.833C312.64 314.008 311.706 322.427 311.161 325.255C312.636 324.192 314.065 323.03 315.438 321.768L317.865 319.369C318.898 318.272 319.866 317.137 320.77 315.971C320.134 312.674 319.043 309.134 312.741 306.158Z" fill="#FFDE00" stroke="#1B1A1A" stroke-width="3" stroke-miterlimit="10"/>
</svg>
