<svg width="315" height="315" viewBox="0 0 315 315" fill="none" xmlns="http://www.w3.org/2000/svg">
<path d="M65.9647 164.66C75.7673 161.147 76.2231 152.185 76.2231 152.185C76.2231 152.185 70.2222 156.511 68.46 156.968C60.4859 159.038 55.1926 152.425 53.5784 150.039C53.2875 151.834 53.0987 153.667 53.0205 155.529L53.0001 158.942C53.046 160.448 53.1634 161.935 53.3488 163.399C56.1298 165.281 59.4041 167.012 65.9647 164.66Z" fill="#FFDE00" stroke="#1B1A1A" stroke-width="3" stroke-miterlimit="10"/>
<path d="M249.873 151.177C240.07 154.691 239.614 163.652 239.614 163.652C239.614 163.652 245.615 159.326 247.377 158.869C255.351 156.799 260.645 163.413 262.259 165.798C262.55 164.003 262.739 162.171 262.817 160.308L262.837 156.895C262.791 155.389 262.674 153.902 262.489 152.438C259.708 150.557 256.433 148.825 249.873 151.177Z" fill="#FFDE00" stroke="#1B1A1A" stroke-width="3" stroke-miterlimit="10"/>
<path d="M163.66 250.873C160.146 241.07 151.185 240.614 151.185 240.614C151.185 240.614 155.511 246.615 155.968 248.377C158.038 256.351 151.424 261.645 149.039 263.259C150.834 263.55 152.666 263.739 154.529 263.817L157.942 263.837C159.448 263.791 160.935 263.674 162.398 263.489C164.28 260.707 166.012 257.433 163.66 250.873Z" fill="#FFDE00" stroke="#1B1A1A" stroke-width="3" stroke-miterlimit="10"/>
<path d="M150.176 66.9646C153.69 76.7672 162.651 77.2231 162.651 77.2231C162.651 77.2231 158.326 71.2221 157.869 69.4599C155.799 61.4859 162.412 56.1925 164.797 54.5783C163.002 54.2875 161.17 54.0986 159.308 54.0204L155.895 54C154.388 54.0459 152.902 54.1633 151.438 54.3487C149.556 57.1297 147.825 60.4041 150.176 66.9646Z" fill="#FFDE00" stroke="#1B1A1A" stroke-width="3" stroke-miterlimit="10"/>
<path d="M95.4726 227.43C99.9193 218.014 93.9051 211.355 93.9051 211.355C93.9051 211.355 92.7204 218.657 91.7977 220.226C87.6227 227.328 79.2034 226.395 76.3754 225.85C77.4391 227.325 78.6012 228.754 79.8628 230.126L82.2617 232.554C83.3592 233.586 84.4935 234.555 85.6596 235.459C88.9568 234.823 92.4963 233.732 95.4726 227.43Z" fill="#FFDE00" stroke="#1B1A1A" stroke-width="3" stroke-miterlimit="10"/>
<path d="M215.98 87.8535C211.533 97.2698 217.548 103.929 217.548 103.929C217.548 103.929 218.732 96.6267 219.655 95.0573C223.83 87.9553 232.249 88.8886 235.077 89.4338C234.014 87.9588 232.851 86.5296 231.59 85.1574L229.191 82.7296C228.093 81.697 226.959 80.7288 225.793 79.8249C222.496 80.4607 218.956 81.5518 215.98 87.8535Z" fill="#FFDE00" stroke="#1B1A1A" stroke-width="3" stroke-miterlimit="10"/>
<path d="M86.5774 100.473C95.9936 104.92 102.652 98.9057 102.652 98.9057C102.652 98.9057 95.3506 97.721 93.7812 96.7983C86.6792 92.6233 87.6125 84.204 88.1577 81.376C86.6827 82.4397 85.2535 83.6018 83.8813 84.8634L81.4535 87.2623C80.4209 88.3598 79.4526 89.4941 78.5487 90.6602C79.1845 93.9574 80.2756 97.4969 86.5774 100.473Z" fill="#FFDE00" stroke="#1B1A1A" stroke-width="3" stroke-miterlimit="10"/>
<path d="M226.154 220.981C216.738 216.534 210.079 222.548 210.079 222.548C210.079 222.548 217.381 223.733 218.95 224.656C226.052 228.831 225.119 237.25 224.574 240.078C226.049 239.014 227.478 237.852 228.85 236.591L231.278 234.192C232.311 233.094 233.279 231.96 234.183 230.794C233.547 227.497 232.456 223.957 226.154 220.981Z" fill="#FFDE00" stroke="#1B1A1A" stroke-width="3" stroke-miterlimit="10"/>
<path d="M27.7881 52.0573C29.2871 63.8622 35.1804 81.8794 43.0101 98.9899L96 46C78.8872 38.1726 60.8724 32.277 49.0675 30.778C44.2995 30.1743 39.8049 31.3794 36.176 33.7919L30.8043 39.1635C28.3918 42.797 27.1845 47.2894 27.7881 52.0573Z" fill="#009FE3" stroke="#1B1A1A" stroke-width="3" stroke-miterlimit="10"/>
<path d="M49.0735 284.212C60.8783 282.713 78.8955 276.82 96.006 268.99L43.0161 216C35.1887 233.113 29.2931 251.128 27.7941 262.933C27.1904 267.701 28.3955 272.195 30.808 275.824L36.1797 281.196C39.8132 283.608 44.3055 284.816 49.0735 284.212Z" fill="#009FE3" stroke="#1B1A1A" stroke-width="3" stroke-miterlimit="10"/>
<path d="M267.943 30.7881C256.138 32.2871 238.121 38.1805 221.01 46.0101L274 99C281.827 81.8872 287.723 63.8724 289.222 52.0675C289.826 47.2995 288.621 42.8049 286.208 39.176L280.836 33.8043C277.203 31.3918 272.711 30.1845 267.943 30.7881Z" fill="#009FE3" stroke="#1B1A1A" stroke-width="3" stroke-miterlimit="10"/>
<path d="M267.943 284.212C256.138 282.713 238.121 276.82 221.01 268.99L274 216C281.827 233.113 287.723 251.128 289.222 262.933C289.826 267.7 288.621 272.195 286.208 275.824L280.836 281.196C277.203 283.608 272.711 284.816 267.943 284.212Z" fill="#009FE3" stroke="#1B1A1A" stroke-width="3" stroke-miterlimit="10"/>
<path fill-rule="evenodd" clip-rule="evenodd" d="M157.5 313C71.6157 313 2 243.377 2 157.5C2 71.6157 71.6157 2 157.5 2C243.377 2 312.993 71.6157 313 157.5C313 243.384 243.377 313 157.5 313ZM232.749 233.003C191.795 273.957 125.403 273.957 84.4489 233.003C43.4949 192.049 43.4949 125.657 84.4489 84.7031C125.403 43.7491 191.795 43.7491 232.749 84.7031C273.703 125.657 273.703 192.049 232.749 233.003Z" fill="#E30613"/>
<path d="M313 157.5L314.5 157.5L314.5 157.5L313 157.5ZM84.4489 233.003L85.5095 231.943L85.5095 231.943L84.4489 233.003ZM232.749 233.003L231.688 231.943L231.688 231.943L232.749 233.003ZM232.749 84.7031L233.81 83.6425L233.81 83.6425L232.749 84.7031ZM0.5 157.5C0.5 244.205 70.7873 314.5 157.5 314.5V311.5C72.4442 311.5 3.5 242.549 3.5 157.5H0.5ZM157.5 0.5C70.7873 0.5 0.5 70.7873 0.5 157.5H3.5C3.5 72.4442 72.4442 3.5 157.5 3.5V0.5ZM314.5 157.5C314.493 70.7874 244.205 0.5 157.5 0.5V3.5C242.548 3.5 311.493 72.4441 311.5 157.5L314.5 157.5ZM157.5 314.5C244.205 314.5 314.5 244.213 314.5 157.5H311.5C311.5 242.556 242.549 311.5 157.5 311.5V314.5ZM83.3882 234.064C124.928 275.604 192.27 275.604 233.81 234.064L231.688 231.943C191.32 272.311 125.878 272.311 85.5095 231.943L83.3882 234.064ZM83.3882 83.6425C41.8484 125.182 41.8484 192.524 83.3882 234.064L85.5095 231.943C45.1413 191.574 45.1413 126.132 85.5095 85.7638L83.3882 83.6425ZM233.81 83.6425C192.27 42.1027 124.928 42.1027 83.3882 83.6425L85.5095 85.7638C125.878 45.3956 191.32 45.3956 231.688 85.7638L233.81 83.6425ZM233.81 234.064C275.349 192.524 275.349 125.182 233.81 83.6425L231.688 85.7638C272.056 126.132 272.056 191.574 231.688 231.943L233.81 234.064Z" fill="#1B1A1A"/>
<path fill-rule="evenodd" clip-rule="evenodd" d="M23.9238 157.324C23.9238 83.0384 84.1382 22.824 158.424 22.824C232.704 22.824 292.918 83.0385 292.924 157.324C292.924 231.61 232.703 291.824 158.424 291.824C84.1381 291.824 23.9238 231.603 23.9238 157.324ZM158.424 31.9567C89.1821 31.9567 33.0565 88.0822 33.0565 157.324C33.0565 226.56 89.1822 282.691 158.424 282.691C227.66 282.691 283.791 226.566 283.791 157.324C283.785 88.0821 227.659 31.9567 158.424 31.9567Z" fill="#009FE3" stroke="#1B1A1A" stroke-width="3" stroke-miterlimit="10"/>
<circle cx="66.2518" cy="65.3989" r="16.4173" fill="#FFDE00" stroke="#1B1A1A" stroke-width="2"/>
<circle cx="156.656" cy="26.4173" r="16.4173" fill="#FFDE00" stroke="#1B1A1A" stroke-width="2"/>
<circle cx="251.054" cy="63.8267" r="16.4173" fill="#FFDE00" stroke="#1B1A1A" stroke-width="2"/>
<circle cx="289.36" cy="154.974" r="16.4173" fill="#FFDE00" stroke="#1B1A1A" stroke-width="2"/>
<circle cx="251.719" cy="246.548" r="16.4173" fill="#FFDE00" stroke="#1B1A1A" stroke-width="2"/>
<circle cx="157.486" cy="287.677" r="16.4173" fill="#FFDE00" stroke="#1B1A1A" stroke-width="2"/>
<circle cx="62.9344" cy="244.548" r="16.4173" fill="#FFDE00" stroke="#1B1A1A" stroke-width="2"/>
<circle cx="26.4173" cy="157.462" r="16.4173" fill="#FFDE00" stroke="#1B1A1A" stroke-width="2"/>
<path d="M155.966 34.8022C169.631 34.8022 180.708 31.2538 180.708 26.8766C180.708 22.4994 169.631 18.951 155.966 18.951C142.3 18.951 131.223 22.4994 131.223 26.8766C131.223 31.2538 142.3 34.8022 155.966 34.8022Z" fill="#FFFBF1" stroke="#1B1A1A" stroke-width="2.5" stroke-miterlimit="10"/>
<path d="M71.927 70.6553C81.5897 60.9926 86.9138 50.6504 83.8186 47.5552C80.7235 44.4601 70.3812 49.7842 60.7185 59.4469C51.0558 69.1096 45.7318 79.4518 48.8269 82.547C51.922 85.6421 62.2643 80.318 71.927 70.6553Z" fill="#FFFBF1" stroke="#1B1A1A" stroke-width="2.5" stroke-miterlimit="10"/>
<path d="M71.7285 70.4585C74.9019 67.2851 75.0229 62.261 71.9987 59.2369C68.9746 56.2127 63.9505 56.3337 60.7772 59.5071C57.6038 62.6805 57.4828 67.7045 60.5069 70.7287C63.5311 73.7528 68.5552 73.6319 71.7285 70.4585Z" fill="#1B1A1A" stroke="#1B1A1A" stroke-width="2.5" stroke-miterlimit="10"/>
<path d="M256.927 252.655C266.59 242.993 271.914 232.65 268.819 229.555C265.724 226.46 255.381 231.784 245.719 241.447C236.056 251.11 230.732 261.452 233.827 264.547C236.922 267.642 247.264 262.318 256.927 252.655Z" fill="#FFFBF1" stroke="#1B1A1A" stroke-width="2.5" stroke-miterlimit="10"/>
<path d="M256.729 252.459C259.902 249.285 260.023 244.261 256.999 241.237C253.975 238.213 248.951 238.334 245.777 241.507C242.604 244.681 242.483 249.705 245.507 252.729C248.531 255.753 253.555 255.632 256.729 252.459Z" fill="#1B1A1A" stroke="#1B1A1A" stroke-width="2.5" stroke-miterlimit="10"/>
<path d="M244.719 68.6554C254.381 78.3181 264.724 83.6422 267.819 80.547C270.914 77.4519 265.59 67.1096 255.927 57.4469C246.264 47.7842 235.922 42.4601 232.827 45.5553C229.732 48.6504 235.056 58.9927 244.719 68.6554Z" fill="#FFFBF1" stroke="#1B1A1A" stroke-width="2.5" stroke-miterlimit="10"/>
<path d="M244.916 68.4574C248.089 71.6307 253.113 71.7517 256.137 68.7276C259.161 65.7034 259.04 60.6793 255.867 57.506C252.694 54.3326 247.67 54.2116 244.645 57.2358C241.621 60.2599 241.742 65.284 244.916 68.4574Z" fill="#1B1A1A" stroke="#1B1A1A" stroke-width="2.5" stroke-miterlimit="10"/>
<path d="M57.7186 250.655C67.3813 260.318 77.7235 265.642 80.8187 262.547C83.9138 259.452 78.5897 249.11 68.927 239.447C59.2643 229.784 48.9221 224.46 45.8269 227.555C42.7318 230.65 48.0559 240.993 57.7186 250.655Z" fill="#FFFBF1" stroke="#1B1A1A" stroke-width="2.5" stroke-miterlimit="10"/>
<path d="M57.9156 250.457C61.089 253.631 66.1131 253.752 69.1372 250.728C72.1613 247.703 72.0404 242.679 68.867 239.506C65.6936 236.333 60.6695 236.212 57.6454 239.236C54.6213 242.26 54.7422 247.284 57.9156 250.457Z" fill="#1B1A1A" stroke="#1B1A1A" stroke-width="2.5" stroke-miterlimit="10"/>
<path d="M157.966 295.738C171.631 295.738 182.708 292.19 182.708 287.813C182.708 283.436 171.631 279.887 157.966 279.887C144.3 279.887 133.223 283.436 133.223 287.813C133.223 292.19 144.3 295.738 157.966 295.738Z" fill="#FFFBF1" stroke="#1B1A1A" stroke-width="2.5" stroke-miterlimit="10"/>
<path d="M157.965 295.459C162.453 295.459 166.091 291.992 166.091 287.715C166.091 283.438 162.453 279.971 157.965 279.971C153.477 279.971 149.839 283.438 149.839 287.715C149.839 291.992 153.477 295.459 157.965 295.459Z" fill="#1B1A1A" stroke="#1B1A1A" stroke-width="2.5" stroke-miterlimit="10"/>
<path d="M281.223 156.694C281.223 170.359 284.771 181.437 289.148 181.437C293.525 181.437 297.074 170.359 297.074 156.694C297.074 143.029 293.525 131.951 289.148 131.951C284.771 131.951 281.223 143.029 281.223 156.694Z" fill="#FFFBF1" stroke="#1B1A1A" stroke-width="2.5" stroke-miterlimit="10"/>
<path d="M281.502 156.694C281.502 161.182 284.969 164.82 289.246 164.82C293.523 164.82 296.99 161.182 296.99 156.694C296.99 152.206 293.523 148.568 289.246 148.568C284.969 148.568 281.502 152.206 281.502 156.694Z" fill="#1B1A1A" stroke="#1B1A1A" stroke-width="2.5" stroke-miterlimit="10"/>
<path d="M18.2226 157.694C18.2226 171.359 21.771 182.437 26.1482 182.437C30.5253 182.437 34.0737 171.359 34.0737 157.694C34.0737 144.029 30.5253 132.951 26.1482 132.951C21.771 132.951 18.2226 144.029 18.2226 157.694Z" fill="#FFFBF1" stroke="#1B1A1A" stroke-width="2.5" stroke-miterlimit="10"/>
<path d="M18.5017 157.694C18.5017 162.182 21.9687 165.82 26.2455 165.82C30.5222 165.82 33.9893 162.182 33.9893 157.694C33.9893 153.206 30.5222 149.568 26.2455 149.568C21.9687 149.568 18.5017 153.206 18.5017 157.694Z" fill="#1B1A1A" stroke="#1B1A1A" stroke-width="2.5" stroke-miterlimit="10"/>
<path d="M161.697 32.6973C164.871 29.5239 164.992 24.4999 161.967 21.4757C158.943 18.4516 153.919 18.5725 150.746 21.7459C147.573 24.9193 147.452 29.9434 150.476 32.9675C153.5 35.9917 158.524 35.8707 161.697 32.6973Z" fill="#1B1A1A" stroke="#1B1A1A" stroke-width="2.5" stroke-miterlimit="10"/>
</svg>
