<svg width="842" height="142" viewBox="0 0 842 142" fill="none" xmlns="http://www.w3.org/2000/svg">
<path d="M248 75.0407C145.6 75.0407 43.3333 118.347 5 140H839C819.167 118.347 750.6 75.0407 635 75.0407C490.5 75.0407 528.5 5.0846 431.5 2.08648C334.5 -0.911639 376 75.0407 248 75.0407Z" fill="#FFFBF1" stroke="#FF8A00" stroke-width="2.5"/>
<mask id="mask0" mask-type="alpha" maskUnits="userSpaceOnUse" x="409" y="43" width="40" height="46">
<path d="M425.8 54.5255L415.263 65.0627C414.013 66.3124 411.987 66.3124 410.737 65.0627C409.488 63.8131 409.488 61.7869 410.737 60.5372L426.737 44.5372C427.987 43.2876 430.013 43.2876 431.263 44.5372L447.263 60.5373C448.513 61.7869 448.513 63.8131 447.263 65.0627C446.013 66.3124 443.987 66.3124 442.737 65.0627L432.2 54.5255L432.2 85.2C432.2 86.9673 430.768 88.4 429 88.4C427.233 88.4 425.8 86.9673 425.8 85.2L425.8 54.5255Z" fill="white"/>
</mask>
<g mask="url(#mask0)">
</g>
</svg>
