<svg width="64" height="64" viewBox="0 0 64 64" fill="none" xmlns="http://www.w3.org/2000/svg">
<path d="M28.8002 20.5255L18.2629 31.0627C17.0133 32.3124 14.9871 32.3124 13.7375 31.0627C12.4878 29.8131 12.4878 27.7869 13.7375 26.5372L29.7375 10.5372C30.9871 9.28757 33.0133 9.28757 34.2629 10.5372L50.2629 26.5373C51.5126 27.7869 51.5126 29.8131 50.2629 31.0627C49.0133 32.3124 46.9871 32.3124 45.7375 31.0627L35.2002 20.5255L35.2002 51.2C35.2002 52.9673 33.7675 54.4 32.0002 54.4C30.2329 54.4 28.8002 52.9673 28.8002 51.2L28.8002 20.5255Z" fill="#FF8A00" stroke="#1B1A1A" stroke-width="2.5"/>
<mask id="mask0" mask-type="alpha" maskUnits="userSpaceOnUse" x="12" y="9" width="40" height="46">
<path d="M28.8002 20.5255L18.2629 31.0627C17.0133 32.3124 14.9871 32.3124 13.7375 31.0627C12.4878 29.8131 12.4878 27.7869 13.7375 26.5372L29.7375 10.5372C30.9871 9.28757 33.0133 9.28757 34.2629 10.5372L50.2629 26.5373C51.5126 27.7869 51.5126 29.8131 50.2629 31.0627C49.0133 32.3124 46.9871 32.3124 45.7375 31.0627L35.2002 20.5255L35.2002 51.2C35.2002 52.9673 33.7675 54.4 32.0002 54.4C30.2329 54.4 28.8002 52.9673 28.8002 51.2L28.8002 20.5255Z" fill="white"/>
</mask>
<g mask="url(#mask0)">
</g>
</svg>
