<svg width="869" height="897" viewBox="0 0 869 897" fill="none" xmlns="http://www.w3.org/2000/svg">
<path d="M523.242 173.45L582.251 95.9356L570.853 192.686L523.242 173.45Z" fill="#FFDE00" stroke="#1B1A1A" stroke-width="3"/>
<path d="M650.041 89.2149C636.121 81.2301 599.751 77.8244 578.681 99.2438C587.738 81.1079 604.932 47.0965 650.041 89.2149Z" fill="#009FE3" stroke="#1B1A1A" stroke-width="3"/>
<path d="M578.607 99.0012C567.426 110.514 533.404 123.812 507.247 109.03C520.952 123.967 546.854 151.922 578.607 99.0012Z" fill="#009FE3" stroke="#1B1A1A" stroke-width="3"/>
<path d="M568.697 27.8434C560.713 41.7638 557.307 78.1337 578.726 99.203C560.59 90.1465 526.579 72.9529 568.697 27.8434Z" fill="#009FE3" stroke="#1B1A1A" stroke-width="3"/>
<path d="M578.481 99.2843C589.993 110.465 603.292 144.487 588.51 170.644C603.447 156.939 631.402 131.037 578.481 99.2843Z" fill="#009FE3" stroke="#1B1A1A" stroke-width="3"/>
<path d="M622.056 41.6766C606.567 45.8738 578.442 69.1829 578.689 99.227C572.269 79.9991 560.377 43.7917 622.056 41.6766Z" fill="#009FE3" stroke="#1B1A1A" stroke-width="3"/>
<path d="M578.458 99.1113C578.693 115.157 564.039 148.618 535.09 156.662C555.343 157.533 593.426 158.984 578.458 99.1113Z" fill="#009FE3" stroke="#1B1A1A" stroke-width="3"/>
<path d="M521.136 55.802C525.333 71.2913 548.642 99.4169 578.686 99.1694C559.458 105.589 523.251 117.481 521.136 55.802Z" fill="#009FE3" stroke="#1B1A1A" stroke-width="3"/>
<path d="M578.569 99.4026C594.615 99.1678 628.076 113.822 636.119 142.77C636.991 122.517 638.442 84.4346 578.569 99.4026Z" fill="#009FE3" stroke="#1B1A1A" stroke-width="3"/>
<path d="M674.919 272.165L771.456 259.08L694.983 319.433L674.919 272.165Z" fill="#FFDE00" stroke="#1B1A1A" stroke-width="3"/>
<path d="M824.143 302.262C819.946 286.773 796.636 258.647 766.592 258.894C785.82 252.474 822.028 240.582 824.143 302.262Z" fill="#009FE3" stroke="#1B1A1A" stroke-width="3"/>
<path d="M766.711 258.67C750.665 258.905 717.204 244.251 709.161 215.303C708.289 235.556 706.838 273.638 766.711 258.67Z" fill="#009FE3" stroke="#1B1A1A" stroke-width="3"/>
<path d="M810.02 201.347C794.531 205.544 766.405 228.854 766.653 258.898C760.233 239.67 748.341 203.462 810.02 201.347Z" fill="#009FE3" stroke="#1B1A1A" stroke-width="3"/>
<path d="M766.422 258.781C766.657 274.828 752.003 308.288 723.055 316.332C743.307 317.203 781.39 318.654 766.422 258.781Z" fill="#009FE3" stroke="#1B1A1A" stroke-width="3"/>
<path d="M837.97 248.859C824.049 240.875 787.68 237.469 766.61 258.888C775.667 240.752 792.86 206.741 837.97 248.859Z" fill="#009FE3" stroke="#1B1A1A" stroke-width="3"/>
<path d="M766.528 258.643C755.348 270.155 721.326 283.454 695.168 268.671C708.873 283.609 734.775 311.563 766.528 258.643Z" fill="#009FE3" stroke="#1B1A1A" stroke-width="3"/>
<path d="M756.619 187.485C748.634 201.406 745.229 237.776 766.648 258.845C748.512 249.789 714.501 232.595 756.619 187.485Z" fill="#009FE3" stroke="#1B1A1A" stroke-width="3"/>
<path d="M766.4 258.927C777.913 270.107 791.211 304.13 776.429 330.287C791.366 316.582 819.321 290.68 766.4 258.927Z" fill="#009FE3" stroke="#1B1A1A" stroke-width="3"/>
<path d="M173.45 353.51L95.9356 294.501L192.686 305.899L173.45 353.51Z" fill="#FFDE00" stroke="#1B1A1A" stroke-width="3"/>
<path d="M89.2149 226.711C81.2301 240.632 77.8244 277.001 99.2438 298.071C81.1079 289.014 47.0965 271.821 89.2149 226.711Z" fill="#009FE3" stroke="#1B1A1A" stroke-width="3"/>
<path d="M99.0009 298.145C110.513 309.325 123.812 343.348 109.03 369.505C123.967 355.8 151.922 329.898 99.0009 298.145Z" fill="#009FE3" stroke="#1B1A1A" stroke-width="3"/>
<path d="M27.8436 308.055C41.7641 316.039 78.1339 319.445 99.2033 298.026C90.1468 316.162 72.9531 350.173 27.8436 308.055Z" fill="#009FE3" stroke="#1B1A1A" stroke-width="3"/>
<path d="M99.2843 298.271C110.465 286.759 144.487 273.46 170.644 288.242C156.939 273.305 131.037 245.351 99.2843 298.271Z" fill="#009FE3" stroke="#1B1A1A" stroke-width="3"/>
<path d="M41.6766 254.696C45.8738 270.185 69.1829 298.31 99.227 298.063C79.9991 304.483 43.7917 316.375 41.6766 254.696Z" fill="#009FE3" stroke="#1B1A1A" stroke-width="3"/>
<path d="M99.111 298.294C115.157 298.06 148.618 312.713 156.661 341.662C157.533 321.409 158.984 283.326 99.111 298.294Z" fill="#009FE3" stroke="#1B1A1A" stroke-width="3"/>
<path d="M55.802 355.617C71.2913 351.419 99.4169 328.11 99.1694 298.066C105.589 317.294 117.481 353.502 55.802 355.617Z" fill="#009FE3" stroke="#1B1A1A" stroke-width="3"/>
<path d="M99.4026 298.183C99.1678 282.137 113.822 248.676 142.77 240.633C122.517 239.761 84.4346 238.31 99.4026 298.183Z" fill="#009FE3" stroke="#1B1A1A" stroke-width="3"/>
<path d="M272.165 201.833L259.08 105.295L319.433 181.768L272.165 201.833Z" fill="#FFDE00" stroke="#1B1A1A" stroke-width="3"/>
<path d="M302.262 52.6087C286.773 56.8059 258.647 80.1151 258.895 110.159C252.475 90.9312 240.583 54.7238 302.262 52.6087Z" fill="#009FE3" stroke="#1B1A1A" stroke-width="3"/>
<path d="M258.67 110.04C258.905 126.086 244.251 159.547 215.303 167.59C235.555 168.462 273.638 169.913 258.67 110.04Z" fill="#009FE3" stroke="#1B1A1A" stroke-width="3"/>
<path d="M201.347 66.7312C205.544 82.2205 228.853 110.346 258.897 110.099C239.669 116.519 203.462 128.411 201.347 66.7312Z" fill="#009FE3" stroke="#1B1A1A" stroke-width="3"/>
<path d="M258.781 110.329C274.828 110.095 308.289 124.748 316.332 153.697C317.203 133.444 318.654 95.3614 258.781 110.329Z" fill="#009FE3" stroke="#1B1A1A" stroke-width="3"/>
<path d="M248.859 38.7821C240.875 52.7026 237.469 89.0724 258.888 110.142C240.752 101.085 206.741 83.8916 248.859 38.7821Z" fill="#009FE3" stroke="#1B1A1A" stroke-width="3"/>
<path d="M258.643 110.224C270.155 121.404 283.454 155.426 268.671 181.583C283.609 167.879 311.563 141.976 258.643 110.224Z" fill="#009FE3" stroke="#1B1A1A" stroke-width="3"/>
<path d="M187.485 120.132C201.406 128.117 237.776 131.523 258.845 110.103C249.788 128.239 232.595 162.25 187.485 120.132Z" fill="#009FE3" stroke="#1B1A1A" stroke-width="3"/>
<path d="M258.927 110.351C270.107 98.8384 304.129 85.5398 330.287 100.322C316.582 85.3849 290.68 57.4303 258.927 110.351Z" fill="#009FE3" stroke="#1B1A1A" stroke-width="3"/>
<path d="M525.242 723.249L584.251 800.764L572.853 704.013L525.242 723.249Z" fill="#FFDE00" stroke="#1B1A1A" stroke-width="3"/>
<path d="M652.041 807.485C638.121 815.469 601.751 818.875 580.681 797.456C589.738 815.592 606.932 849.603 652.041 807.485Z" fill="#009FE3" stroke="#1B1A1A" stroke-width="3"/>
<path d="M580.607 797.699C569.426 786.186 535.404 772.888 509.247 787.67C522.952 772.733 548.854 744.778 580.607 797.699Z" fill="#009FE3" stroke="#1B1A1A" stroke-width="3"/>
<path d="M570.697 868.856C562.713 854.936 559.307 818.566 580.726 797.497C562.59 806.553 528.579 823.747 570.697 868.856Z" fill="#009FE3" stroke="#1B1A1A" stroke-width="3"/>
<path d="M580.481 797.416C591.993 786.235 605.292 752.213 590.51 726.056C605.447 739.76 633.402 765.663 580.481 797.416Z" fill="#009FE3" stroke="#1B1A1A" stroke-width="3"/>
<path d="M624.056 855.023C608.567 850.826 580.442 827.517 580.689 797.473C574.269 816.701 562.377 852.908 624.056 855.023Z" fill="#009FE3" stroke="#1B1A1A" stroke-width="3"/>
<path d="M580.458 797.588C580.693 781.542 566.039 748.081 537.09 740.038C557.343 739.167 595.426 737.715 580.458 797.588Z" fill="#009FE3" stroke="#1B1A1A" stroke-width="3"/>
<path d="M523.136 840.898C527.333 825.409 550.642 797.283 580.686 797.53C561.458 791.11 525.251 779.218 523.136 840.898Z" fill="#009FE3" stroke="#1B1A1A" stroke-width="3"/>
<path d="M580.569 797.297C596.615 797.532 630.076 782.878 638.119 753.93C638.991 774.183 640.442 812.265 580.569 797.297Z" fill="#009FE3" stroke="#1B1A1A" stroke-width="3"/>
<path d="M676.919 624.535L773.456 637.62L696.983 577.267L676.919 624.535Z" fill="#FFDE00" stroke="#1B1A1A" stroke-width="3"/>
<path d="M826.143 594.438C821.946 609.927 798.636 638.053 768.592 637.805C787.82 644.225 824.028 656.117 826.143 594.438Z" fill="#009FE3" stroke="#1B1A1A" stroke-width="3"/>
<path d="M768.711 638.029C752.665 637.795 719.204 652.448 711.161 681.397C710.289 661.144 708.838 623.061 768.711 638.029Z" fill="#009FE3" stroke="#1B1A1A" stroke-width="3"/>
<path d="M812.02 695.353C796.531 691.155 768.405 667.846 768.653 637.802C762.233 657.03 750.341 693.237 812.02 695.353Z" fill="#009FE3" stroke="#1B1A1A" stroke-width="3"/>
<path d="M768.422 637.918C768.657 621.872 754.003 588.411 725.055 580.368C745.307 579.496 783.39 578.045 768.422 637.918Z" fill="#009FE3" stroke="#1B1A1A" stroke-width="3"/>
<path d="M839.97 647.84C826.049 655.825 789.68 659.231 768.61 637.811C777.667 655.947 794.86 689.959 839.97 647.84Z" fill="#009FE3" stroke="#1B1A1A" stroke-width="3"/>
<path d="M768.528 638.057C757.348 626.545 723.326 613.246 697.168 628.028C710.873 613.091 736.775 585.137 768.528 638.057Z" fill="#009FE3" stroke="#1B1A1A" stroke-width="3"/>
<path d="M758.619 709.214C750.634 695.294 747.229 658.924 768.648 637.855C750.512 646.911 716.501 664.105 758.619 709.214Z" fill="#009FE3" stroke="#1B1A1A" stroke-width="3"/>
<path d="M768.4 637.773C779.913 626.592 793.211 592.57 778.429 566.413C793.366 580.118 821.321 606.02 768.4 637.773Z" fill="#009FE3" stroke="#1B1A1A" stroke-width="3"/>
<path d="M356.532 723.249L297.523 800.764L308.921 704.013L356.532 723.249Z" fill="#FFDE00" stroke="#1B1A1A" stroke-width="3"/>
<path d="M229.733 807.485C243.653 815.469 280.023 818.875 301.092 797.456C292.036 815.592 274.842 849.603 229.733 807.485Z" fill="#009FE3" stroke="#1B1A1A" stroke-width="3"/>
<path d="M301.167 797.699C312.347 786.186 346.37 772.888 372.527 787.67C358.822 772.733 332.92 744.778 301.167 797.699Z" fill="#009FE3" stroke="#1B1A1A" stroke-width="3"/>
<path d="M311.077 868.856C319.061 854.936 322.467 818.566 301.048 797.497C319.184 806.553 353.195 823.747 311.077 868.856Z" fill="#009FE3" stroke="#1B1A1A" stroke-width="3"/>
<path d="M301.293 797.416C289.781 786.235 276.482 752.213 291.264 726.056C276.327 739.76 248.372 765.663 301.293 797.416Z" fill="#009FE3" stroke="#1B1A1A" stroke-width="3"/>
<path d="M257.718 855.023C273.207 850.826 301.332 827.517 301.085 797.473C307.505 816.701 319.397 852.908 257.718 855.023Z" fill="#009FE3" stroke="#1B1A1A" stroke-width="3"/>
<path d="M301.316 797.588C301.081 781.542 315.735 748.081 344.684 740.038C324.431 739.167 286.348 737.715 301.316 797.588Z" fill="#009FE3" stroke="#1B1A1A" stroke-width="3"/>
<path d="M358.638 840.898C354.441 825.409 331.132 797.283 301.088 797.53C320.316 791.11 356.523 779.218 358.638 840.898Z" fill="#009FE3" stroke="#1B1A1A" stroke-width="3"/>
<path d="M301.205 797.297C285.159 797.532 251.698 782.878 243.654 753.93C242.783 774.183 241.332 812.265 301.205 797.297Z" fill="#009FE3" stroke="#1B1A1A" stroke-width="3"/>
<path d="M204.855 624.535L108.317 637.62L184.79 577.267L204.855 624.535Z" fill="#FFDE00" stroke="#1B1A1A" stroke-width="3"/>
<path d="M55.6307 594.438C59.8279 609.927 83.137 638.053 113.181 637.805C93.9532 644.225 57.7458 656.117 55.6307 594.438Z" fill="#009FE3" stroke="#1B1A1A" stroke-width="3"/>
<path d="M113.062 638.029C129.108 637.795 162.569 652.448 170.613 681.397C171.484 661.144 172.935 623.061 113.062 638.029Z" fill="#009FE3" stroke="#1B1A1A" stroke-width="3"/>
<path d="M69.7532 695.353C85.2425 691.155 113.368 667.846 113.121 637.802C119.541 657.03 131.433 693.237 69.7532 695.353Z" fill="#009FE3" stroke="#1B1A1A" stroke-width="3"/>
<path d="M113.351 637.918C113.117 621.872 127.77 588.411 156.719 580.368C136.466 579.496 98.3834 578.045 113.351 637.918Z" fill="#009FE3" stroke="#1B1A1A" stroke-width="3"/>
<path d="M41.8041 647.84C55.7245 655.825 92.0944 659.231 113.164 637.811C104.107 655.947 86.9136 689.959 41.8041 647.84Z" fill="#009FE3" stroke="#1B1A1A" stroke-width="3"/>
<path d="M113.245 638.057C124.426 626.545 158.448 613.246 184.605 628.028C170.9 613.091 144.998 585.137 113.245 638.057Z" fill="#009FE3" stroke="#1B1A1A" stroke-width="3"/>
<path d="M123.154 709.214C131.139 695.294 134.545 658.924 113.125 637.855C131.261 646.911 165.273 664.105 123.154 709.214Z" fill="#009FE3" stroke="#1B1A1A" stroke-width="3"/>
<path d="M113.373 637.773C101.861 626.592 88.562 592.57 103.344 566.413C88.4071 580.118 60.4525 606.02 113.373 637.773Z" fill="#009FE3" stroke="#1B1A1A" stroke-width="3"/>
<path d="M441.243 731.349C597.22 731.349 723.664 604.905 723.664 448.928C723.664 292.951 597.22 166.507 441.243 166.507C285.266 166.507 158.822 292.951 158.822 448.928C158.822 604.905 285.266 731.349 441.243 731.349ZM738.743 448.928C738.743 613.232 605.548 746.428 441.243 746.428C276.938 746.428 143.743 613.232 143.743 448.928C143.743 284.623 276.938 151.428 441.243 151.428C605.548 151.428 738.743 284.623 738.743 448.928Z" fill="#FF8A00" stroke="#1B1A1A" stroke-width="3"/>
</svg>
