<?xml version="1.0" encoding="utf-8"?>
<!-- Generator: Adobe Illustrator 24.1.3, SVG Export Plug-In . SVG Version: 6.00 Build 0)  -->
<svg version="1.1" id="Layer_1" xmlns="http://www.w3.org/2000/svg" xmlns:xlink="http://www.w3.org/1999/xlink" x="0px" y="0px"
	 viewBox="0 0 834 1194" style="enable-background:new 0 0 834 1194;" xml:space="preserve">
<style type="text/css">
	.st0{clip-path:url(#SVGID_2_);}
	.st1{fill:#FFFBF1;}
	.st2{fill:none;stroke:#E5E3E3;stroke-width:3;stroke-miterlimit:10;}
	.st3{fill:#FFFBF1;stroke:#E5E3E3;stroke-width:3;stroke-miterlimit:10;}
	.st4{fill:#FFFBF1;stroke:#E5E3E3;stroke-width:3;}
	.st5{fill:#FFFFFF;filter:url(#Adobe_OpacityMaskFilter);}
	.st6{mask:url(#path-28-outside-1_1_);fill:#E5E3E3;}
	.st7{fill:#FFFFFF;filter:url(#Adobe_OpacityMaskFilter_1_);}
	.st8{mask:url(#path-30-outside-2_1_);fill:#E5E3E3;}
	.st9{fill:#FFFFFF;filter:url(#Adobe_OpacityMaskFilter_2_);}
	.st10{mask:url(#path-32-outside-3_1_);fill:#E5E3E3;}
	.st11{fill:#FFFFFF;filter:url(#Adobe_OpacityMaskFilter_3_);}
	.st12{mask:url(#path-34-outside-4_1_);fill:#E5E3E3;}
	.st13{fill:#FFFFFF;filter:url(#Adobe_OpacityMaskFilter_4_);}
	.st14{mask:url(#path-38-outside-5_1_);fill:#E5E3E3;}
	.st15{fill:#FFFFFF;filter:url(#Adobe_OpacityMaskFilter_5_);}
	.st16{mask:url(#path-40-outside-6_1_);fill:#E5E3E3;}
	.st17{fill:#FFFFFF;filter:url(#Adobe_OpacityMaskFilter_6_);}
	.st18{mask:url(#path-42-outside-7_1_);fill:#E5E3E3;}
	.st19{fill:#FFFFFF;filter:url(#Adobe_OpacityMaskFilter_7_);}
	.st20{mask:url(#path-44-outside-8_1_);fill:#E5E3E3;}
	.st21{fill:#FFFFFF;filter:url(#Adobe_OpacityMaskFilter_8_);}
	.st22{mask:url(#path-48-outside-9_1_);fill:#E5E3E3;}
	.st23{fill:#FFFFFF;filter:url(#Adobe_OpacityMaskFilter_9_);}
	.st24{mask:url(#path-50-outside-10_1_);fill:#E5E3E3;}
	.st25{fill:#FFFFFF;filter:url(#Adobe_OpacityMaskFilter_10_);}
	.st26{mask:url(#path-52-outside-11_1_);fill:#E5E3E3;}
	.st27{fill:#FFFFFF;filter:url(#Adobe_OpacityMaskFilter_11_);}
	.st28{mask:url(#path-54-outside-12_1_);fill:#E5E3E3;}
	.st29{fill:#FFFFFF;filter:url(#Adobe_OpacityMaskFilter_12_);}
	.st30{mask:url(#path-58-outside-13_1_);fill:#E5E3E3;}
	.st31{fill:#FFFFFF;filter:url(#Adobe_OpacityMaskFilter_13_);}
	.st32{mask:url(#path-60-outside-14_1_);fill:#E5E3E3;}
	.st33{fill:#FFFFFF;filter:url(#Adobe_OpacityMaskFilter_14_);}
	.st34{mask:url(#path-62-outside-15_1_);fill:#E5E3E3;}
	.st35{fill:#FFFFFF;filter:url(#Adobe_OpacityMaskFilter_15_);}
	.st36{mask:url(#path-64-outside-16_1_);fill:#E5E3E3;}
</style>
<g>
	<defs>
		<rect id="SVGID_1_" width="834" height="1194"/>
	</defs>
	<clipPath id="SVGID_2_">
		<use xlink:href="#SVGID_1_"  style="overflow:visible;"/>
	</clipPath>
	<g class="st0">
		<path class="st1" d="M649,145c-10.8,0-19.6,8.8-19.6,19.6s8.8,19.6,19.6,19.6c2.2,0,4.3-0.4,6.3-1c2.6,27.1,25.4,48.3,53.2,48.3
			c18.3,0,34.4-9.2,44-23.2c3.5,5.4,9.6,9,16.5,9c8.1,0,15-4.9,18-11.8c5.9,5.7,14,9.2,22.8,9.2c18.1,0,32.8-14.7,32.8-32.8
			s-14.7-32.8-32.8-32.8"/>
		<path class="st2" d="M649,145c-10.8,0-19.6,8.8-19.6,19.6s8.8,19.6,19.6,19.6c2.2,0,4.3-0.4,6.3-1c2.6,27.1,25.4,48.3,53.2,48.3
			c18.3,0,34.4-9.2,44-23.2c3.5,5.4,9.6,9,16.5,9c8.1,0,15-4.9,18-11.8c5.9,5.7,14,9.2,22.8,9.2c18.1,0,32.8-14.7,32.8-32.8
			s-14.7-32.8-32.8-32.8"/>
		<path class="st1" d="M631.5,120.1c-10.8,0-19.6,11.8-19.6,22.7s8.8,19.6,19.6,19.6c7.8,0,14.6-4.6,17.7-11.2
			c3.1,6.6,9.9,11.2,17.7,11.2c2.6,0,5.1-0.5,7.4-1.5c7.4,20.6,27.1,35.3,50.3,35.3c24.1,0,44.4-15.9,51.1-37.7
			c5.9,8.9,16,14.8,27.4,14.8c12.2,0,22.8-6.7,28.5-16.5c3,1.9,6.6,3.1,10.5,3.1c10.8,0,19.6-8.8,19.6-19.6
			c0-10.8-8.8-19.6-19.6-19.6"/>
		<path class="st2" d="M631.5,120.1c-10.8,0-19.6,11.8-19.6,22.7s8.8,19.6,19.6,19.6c7.8,0,14.6-4.6,17.7-11.2
			c3.1,6.6,9.9,11.2,17.7,11.2c2.6,0,5.1-0.5,7.4-1.5c7.4,20.6,27.1,35.3,50.3,35.3c24.1,0,44.4-15.9,51.1-37.7
			c5.9,8.9,16,14.8,27.4,14.8c12.2,0,22.8-6.7,28.5-16.5c3,1.9,6.6,3.1,10.5,3.1c10.8,0,19.6-8.8,19.6-19.6
			c0-10.8-8.8-19.6-19.6-19.6"/>
		<path class="st3" d="M717.1,243.6l82.2-165.4H634.9L717.1,243.6z"/>
		<path class="st3" d="M628.8,330.3l94.4-264.5H534.4L628.8,330.3z"/>
		<path class="st3" d="M545.7,174l79.2-107.9l-158.3,0L545.7,174z"/>
		<rect x="285.5" y="-14" class="st4" width="567.8" height="95.8"/>
		<rect x="15.3" y="-14" class="st4" width="349.9" height="48.4"/>
		<path class="st1" d="M-29.8,7.1c-10.8,0-19.6,8.8-19.6,19.6c0,10.8,8.8,19.6,19.6,19.6c1.4,0,2.7-0.2,4-0.4
			C-21.6,71.3,0.4,90.7,27,90.7c24.8,0,45.7-16.9,51.7-39.9c3.6,3.7,8.6,6.1,14.2,6.1c5.9,0,11.1-2.6,14.7-6.7
			c5,11.7,16.6,19.9,30.2,19.9c7.9,0,15.1-2.8,20.8-7.4c8.6,18.1,27,30.7,48.4,30.7c19.8,0,37.1-10.8,46.3-26.8
			c5.4,3.9,12,6.2,19.2,6.2c18.1,0,32.8-14.7,32.8-32.8S290.5,7.1,272.4,7.1"/>
		<path class="st2" d="M-29.8,7.1c-10.8,0-19.6,8.8-19.6,19.6c0,10.8,8.8,19.6,19.6,19.6c1.4,0,2.7-0.2,4-0.4
			C-21.6,71.3,0.4,90.7,27,90.7c24.8,0,45.7-16.9,51.7-39.9c3.6,3.7,8.6,6.1,14.2,6.1c5.9,0,11.1-2.6,14.7-6.7
			c5,11.7,16.6,19.9,30.2,19.9c7.9,0,15.1-2.8,20.8-7.4c8.6,18.1,27,30.7,48.4,30.7c19.8,0,37.1-10.8,46.3-26.8
			c5.4,3.9,12,6.2,19.2,6.2c18.1,0,32.8-14.7,32.8-32.8S290.5,7.1,272.4,7.1"/>
		<path class="st1" d="M288,61.2c-10.8,0-19.6,8.8-19.6,19.6c0,10.8,8.8,19.6,19.6,19.6c5.9,0,11.1-2.6,14.7-6.7
			c5,11.7,16.6,19.9,30.2,19.9c9.6,0,18.3-4.2,24.3-10.8c5.3,24,26.6,41.9,52.2,41.9c24,0,44.4-15.9,51.1-37.7
			c5.9,8.9,16,14.8,27.4,14.8c14.7,0,27.1-9.6,31.3-22.9c2.4,1,5,1.6,7.7,1.6c10.8,0,19.6-8.8,19.6-19.6s-8.8-19.6-19.6-19.6"/>
		<path class="st2" d="M288,61.2c-10.8,0-19.6,8.8-19.6,19.6c0,10.8,8.8,19.6,19.6,19.6c5.9,0,11.1-2.6,14.7-6.7
			c5,11.7,16.6,19.9,30.2,19.9c9.6,0,18.3-4.2,24.3-10.8c5.3,24,26.6,41.9,52.2,41.9c24,0,44.4-15.9,51.1-37.7
			c5.9,8.9,16,14.8,27.4,14.8c14.7,0,27.1-9.6,31.3-22.9c2.4,1,5,1.6,7.7,1.6c10.8,0,19.6-8.8,19.6-19.6s-8.8-19.6-19.6-19.6"/>
		<path class="st1" d="M524.4,75.8c-10.8,0-19.6,10.8-19.6,21.7c0,10.8,8.8,19.6,19.6,19.6c7.8,0,14.6-4.6,17.7-11.2
			c3.1,6.6,9.9,11.2,17.7,11.2c2.6,0,5.1-0.5,7.4-1.5c7.4,20.6,27.1,35.3,50.3,35.3c24,0,44.4-15.9,51.1-37.7
			c5.9,8.9,16,14.8,27.4,14.8c12.2,0,22.8-6.7,28.5-16.5c3,1.9,6.6,3.1,10.5,3.1c6.8,0,12.8-3.5,16.4-8.8c-0.4,2-0.6,4-0.6,6.1
			c0,18.1,14.7,32.8,32.8,32.8c11.2,0,21-5.6,27-14.1c3.2,2.2,7.1,3.6,11.3,3.6c10.8,0,19.6-8.8,19.6-19.6c0-0.2,0-0.4,0-0.5
			c1.8,0.5,3.7,0.8,5.6,0.8c10.8,0,19.6-8.8,19.6-19.6c0-10.8-8.8-19.6-19.6-19.6"/>
		<path class="st2" d="M524.4,75.8c-10.8,0-19.6,10.8-19.6,21.7c0,10.8,8.8,19.6,19.6,19.6c7.8,0,14.6-4.6,17.7-11.2
			c3.1,6.6,9.9,11.2,17.7,11.2c2.6,0,5.1-0.5,7.4-1.5c7.4,20.6,27.1,35.3,50.3,35.3c24,0,44.4-15.9,51.1-37.7
			c5.9,8.9,16,14.8,27.4,14.8c12.2,0,22.8-6.7,28.5-16.5c3,1.9,6.6,3.1,10.5,3.1c6.8,0,12.8-3.5,16.4-8.8c-0.4,2-0.6,4-0.6,6.1
			c0,18.1,14.7,32.8,32.8,32.8c11.2,0,21-5.6,27-14.1c3.2,2.2,7.1,3.6,11.3,3.6c10.8,0,19.6-8.8,19.6-19.6c0-0.2,0-0.4,0-0.5
			c1.8,0.5,3.7,0.8,5.6,0.8c10.8,0,19.6-8.8,19.6-19.6c0-10.8-8.8-19.6-19.6-19.6"/>
		<path class="st1" d="M427.1,9.3c-10.8,0-19.6,8.8-19.6,19.6c0,10.8,8.8,19.6,19.6,19.6c2.2,0,4.3-0.4,6.3-1
			c2.6,27.1,25.4,48.3,53.2,48.3c18.3,0,34.4-9.2,44-23.2c3.5,5.4,9.6,9,16.5,9c8.1,0,15-4.9,18-11.8c5.9,5.7,14,9.2,22.8,9.2
			c18.1,0,32.8-14.7,32.8-32.8s-14.7-32.8-32.8-32.8"/>
		<path class="st2" d="M427.1,9.3c-10.8,0-19.6,8.8-19.6,19.6c0,10.8,8.8,19.6,19.6,19.6c2.2,0,4.3-0.4,6.3-1
			c2.6,27.1,25.4,48.3,53.2,48.3c18.3,0,34.4-9.2,44-23.2c3.5,5.4,9.6,9,16.5,9c8.1,0,15-4.9,18-11.8c5.9,5.7,14,9.2,22.8,9.2
			c18.1,0,32.8-14.7,32.8-32.8s-14.7-32.8-32.8-32.8"/>
		<path class="st1" d="M863.4,5.6c10.8,0,19.6,8.8,19.6,19.6c0,10.8-8.8,19.6-19.6,19.6c-2.2,0-4.3-0.4-6.3-1
			c-2.6,27.1-25.4,48.3-53.2,48.3c-18.3,0-34.4-9.2-44-23.2c-3.5,5.4-9.6,9-16.5,9c-8.1,0-15-4.9-18-11.8c-5.9,5.7-14,9.2-22.8,9.2
			c-18.1,0-32.8-14.7-32.8-32.8s14.7-32.8,32.8-32.8"/>
		<path class="st2" d="M863.4,5.6c10.8,0,19.6,8.8,19.6,19.6c0,10.8-8.8,19.6-19.6,19.6c-2.2,0-4.3-0.4-6.3-1
			c-2.6,27.1-25.4,48.3-53.2,48.3c-18.3,0-34.4-9.2-44-23.2c-3.5,5.4-9.6,9-16.5,9c-8.1,0-15-4.9-18-11.8c-5.9,5.7-14,9.2-22.8,9.2
			c-18.1,0-32.8-14.7-32.8-32.8s14.7-32.8,32.8-32.8"/>
		<path class="st1" d="M227.5-4.9c-10.8,0-19.6,11.8-19.6,22.7c0,10.8,8.8,19.6,19.6,19.6c7.8,0,14.6-4.6,17.7-11.2
			c3.1,6.6,9.9,11.2,17.7,11.2c2.6,0,5.1-0.5,7.4-1.5c7.4,20.6,27.1,35.3,50.3,35.3c24,0,44.4-15.9,51.1-37.7
			c5.9,8.9,16,14.8,27.4,14.8c12.2,0,22.8-6.7,28.5-16.5c3,1.9,6.6,3.1,10.5,3.1c10.8,0,19.6-8.8,19.6-19.6
			c0-10.8-8.8-19.6-19.6-19.6"/>
		<path class="st2" d="M227.5-4.9c-10.8,0-19.6,11.8-19.6,22.7c0,10.8,8.8,19.6,19.6,19.6c7.8,0,14.6-4.6,17.7-11.2
			c3.1,6.6,9.9,11.2,17.7,11.2c2.6,0,5.1-0.5,7.4-1.5c7.4,20.6,27.1,35.3,50.3,35.3c24,0,44.4-15.9,51.1-37.7
			c5.9,8.9,16,14.8,27.4,14.8c12.2,0,22.8-6.7,28.5-16.5c3,1.9,6.6,3.1,10.5,3.1c10.8,0,19.6-8.8,19.6-19.6
			c0-10.8-8.8-19.6-19.6-19.6"/>
		<path class="st1" d="M529.7-25.4c-10.8,0-19.6,10.8-19.6,21.7s8.8,19.6,19.6,19.6c7.8,0,14.6-4.6,17.7-11.2
			c3.1,6.6,9.9,11.2,17.7,11.2c2.6,0,5.1-0.5,7.4-1.5c7.4,20.6,27.1,35.3,50.3,35.3c24.1,0,44.4-15.9,51.1-37.7
			c5.9,8.9,16,14.8,27.4,14.8c12.2,0,22.8-6.7,28.5-16.5c3,1.9,6.6,3.1,10.5,3.1c10.8,0,19.6-8.8,19.6-19.6S751.2-26,740.3-26"/>
		<path class="st2" d="M529.7-25.4c-10.8,0-19.6,10.8-19.6,21.7s8.8,19.6,19.6,19.6c7.8,0,14.6-4.6,17.7-11.2
			c3.1,6.6,9.9,11.2,17.7,11.2c2.6,0,5.1-0.5,7.4-1.5c7.4,20.6,27.1,35.3,50.3,35.3c24.1,0,44.4-15.9,51.1-37.7
			c5.9,8.9,16,14.8,27.4,14.8c12.2,0,22.8-6.7,28.5-16.5c3,1.9,6.6,3.1,10.5,3.1c10.8,0,19.6-8.8,19.6-19.6S751.2-26,740.3-26"/>
		<path class="st1" d="M53-53.7c-10.8,0-19.6,8.8-19.6,19.6c0,10.8,8.8,19.6,19.6,19.6c2.2,0,4.3-0.4,6.3-1
			c2.6,27.1,25.4,48.3,53.2,48.3c18.3,0,34.4-9.2,44-23.2c3.5,5.4,9.6,9,16.5,9c8.1,0,15-4.9,18-11.8c5.9,5.7,14,9.2,22.8,9.2
			c18.1,0,32.8-14.7,32.8-32.8S232-49.6,213.9-49.6"/>
		<path class="st2" d="M53-53.7c-10.8,0-19.6,8.8-19.6,19.6c0,10.8,8.8,19.6,19.6,19.6c2.2,0,4.3-0.4,6.3-1
			c2.6,27.1,25.4,48.3,53.2,48.3c18.3,0,34.4-9.2,44-23.2c3.5,5.4,9.6,9,16.5,9c8.1,0,15-4.9,18-11.8c5.9,5.7,14,9.2,22.8,9.2
			c18.1,0,32.8-14.7,32.8-32.8S232-49.6,213.9-49.6"/>
		<path class="st1" d="M345.5,1108.3c7.4,0,13.4-6,13.4-13.4c0-7.4-6-13.4-13.4-13.4c-1.5,0-2.9,0.3-4.3,0.7
			c-1.8-18.5-17.4-30.3-36.4-30.3c-12.5,0-23.5,6.3-30.1,15.8c-2.4-3.7-6.5-6.2-11.3-6.2c-5.5,0-10.3,3.3-12.3,8.1
			c-4-3.9-9.5-6.3-15.6-6.3c-12.4,0-22.4,10-22.4,22.4s10.1,22.5,22.4,22.5"/>
		<path class="st2" d="M345.5,1108.3c7.4,0,13.4-6,13.4-13.4c0-7.4-6-13.4-13.4-13.4c-1.5,0-2.9,0.3-4.3,0.7
			c-1.8-18.5-17.4-30.3-36.4-30.3c-12.5,0-23.5,6.3-30.1,15.8c-2.4-3.7-6.5-6.2-11.3-6.2c-5.5,0-10.3,3.3-12.3,8.1
			c-4-3.9-9.5-6.3-15.6-6.3c-12.4,0-22.4,10-22.4,22.4s10.1,22.5,22.4,22.5"/>
		<path class="st1" d="M28.5,1109.3c-7.4,0-13.4,6-13.4,13.4s6,13.4,13.4,13.4c0.9,0,1.9-0.1,2.8-0.3c2.8,17.4,17.9,30.6,36.1,30.6
			c17,0,31.2-11.6,35.3-27.3c2.4,2.6,5.9,4.2,9.7,4.2c4,0,7.6-1.8,10.1-4.6c3.4,8,11.4,13.6,20.6,13.6c5.4,0,10.3-1.9,14.2-5.1
			c5.8,12.4,18.4,21,33.1,21c13.5,0,25.4-7.4,31.7-18.3c3.7,2.7,8.2,4.2,13.1,4.2c12.4,0,22.4-10,22.4-22.4s-10.1-22.5-22.4-22.5"/>
		<defs>
			<filter id="Adobe_OpacityMaskFilter" filterUnits="userSpaceOnUse" x="12.1" y="1106.3" width="248.5" height="65">
				<feColorMatrix  type="matrix" values="1 0 0 0 0  0 1 0 0 0  0 0 1 0 0  0 0 0 1 0"/>
			</filter>
		</defs>
		<mask maskUnits="userSpaceOnUse" x="12.1" y="1106.3" width="248.5" height="65" id="path-28-outside-1_1_">
			<rect x="11.6" y="1106.3" class="st5" width="249" height="65"/>
			<path d="M28.5,1109.3c-7.4,0-13.4,6-13.4,13.4s6,13.4,13.4,13.4c0.9,0,1.9-0.1,2.8-0.3c2.8,17.4,17.9,30.6,36.1,30.6
				c17,0,31.2-11.6,35.3-27.3c2.4,2.6,5.9,4.2,9.7,4.2c4,0,7.6-1.8,10.1-4.6c3.4,8,11.4,13.6,20.6,13.6c5.4,0,10.3-1.9,14.2-5.1
				c5.8,12.4,18.4,21,33.1,21c13.5,0,25.4-7.4,31.7-18.3c3.7,2.7,8.2,4.2,13.1,4.2c12.4,0,22.4-10,22.4-22.4s-10.1-22.5-22.4-22.5"
				/>
		</mask>
		<path class="st6" d="M31.3,1135.9l3-0.5l-0.5-3.1l-3.1,0.6L31.3,1135.9z M102.7,1139.2l2.2-2.1l-3.7-3.9l-1.4,5.2L102.7,1139.2z
			 M122.5,1138.8l2.8-1.2l-1.9-4.3l-3.1,3.5L122.5,1138.8z M157.3,1147.3l2.7-1.3l-1.6-3.5l-3,2.4L157.3,1147.3z M222,1150l1.8-2.4
			l-2.7-1.9l-1.7,2.9L222,1150z M28.5,1106.3c-9.1,0-16.4,7.4-16.4,16.4h6c0-5.8,4.7-10.4,10.4-10.4V1106.3z M12.1,1122.7
			c0,9.1,7.4,16.4,16.4,16.4v-6c-5.8,0-10.4-4.7-10.4-10.4H12.1z M28.5,1139.2c1.2,0,2.3-0.1,3.4-0.3l-1.2-5.9
			c-0.7,0.1-1.4,0.2-2.2,0.2V1139.2z M28.3,1136.3c3.1,18.8,19.4,33.2,39,33.2v-6c-16.7,0-30.5-12.2-33.1-28.1L28.3,1136.3z
			 M67.4,1169.5c18.4,0,33.8-12.5,38.2-29.5l-5.8-1.5c-3.8,14.4-16.9,25-32.4,25V1169.5z M100.5,1141.3c3,3.1,7.2,5.1,11.9,5.1v-6
			c-3,0-5.6-1.2-7.5-3.2L100.5,1141.3z M112.4,1146.4c4.9,0,9.3-2.2,12.3-5.6l-4.5-4c-1.9,2.2-4.7,3.5-7.8,3.5V1146.4z M119.7,1140
			c3.9,9.1,12.9,15.4,23.4,15.4v-6c-8,0-14.9-4.8-17.9-11.8L119.7,1140z M143.1,1155.4c6.1,0,11.7-2.2,16.1-5.8l-3.8-4.6
			c-3.4,2.8-7.6,4.4-12.3,4.4V1155.4z M154.6,1148.6c6.3,13.4,20,22.7,35.8,22.7v-6c-13.4,0-25-7.9-30.4-19.3L154.6,1148.6z
			 M190.4,1171.3c14.7,0,27.4-8,34.3-19.8l-5.2-3c-5.8,10.1-16.6,16.8-29.1,16.8V1171.3z M220.3,1152.4c4.2,3,9.3,4.8,14.9,4.8v-6
			c-4.2,0-8.1-1.4-11.3-3.7L220.3,1152.4z M235.1,1157.2c14.1,0,25.4-11.4,25.4-25.4h-6c0,10.7-8.7,19.4-19.4,19.4V1157.2z
			 M260.6,1131.8c0-14.1-11.4-25.5-25.4-25.5v6c10.7,0,19.4,8.7,19.4,19.5H260.6z"/>
		<path class="st1" d="M716.4,1107.6c7.4,0,13.4-6,13.4-13.4c0-7.4-6-13.4-13.4-13.4c-0.9,0-1.9,0.1-2.8,0.3
			c-2.8-17.4-17.9-30.6-36.1-30.6c-17,0-31.2,11.6-35.3,27.3c-2.4-2.5-5.9-4.2-9.7-4.2c-4,0-7.6,1.8-10.1,4.6
			c-3.4-8-11.4-13.6-20.6-13.6c-5.4,0-10.3,1.9-14.2,5.1c-5.8-12.4-18.4-21-33.1-21c-13.5,0-25.4,7.4-31.7,18.3
			c-3.7-2.6-8.2-4.2-13.1-4.2c-12.4,0-22.4,10.1-22.4,22.4c0,12.4,10.1,22.4,22.4,22.4"/>
		<defs>
			<filter id="Adobe_OpacityMaskFilter_1_" filterUnits="userSpaceOnUse" x="484.4" y="1045.6" width="248.5" height="65">
				<feColorMatrix  type="matrix" values="1 0 0 0 0  0 1 0 0 0  0 0 1 0 0  0 0 0 1 0"/>
			</filter>
		</defs>
		<mask maskUnits="userSpaceOnUse" x="484.4" y="1045.6" width="248.5" height="65" id="path-30-outside-2_1_">
			<rect x="484.4" y="1045.6" class="st7" width="249" height="65"/>
			<path d="M716.4,1107.6c7.4,0,13.4-6,13.4-13.4c0-7.4-6-13.4-13.4-13.4c-0.9,0-1.9,0.1-2.8,0.3c-2.8-17.4-17.9-30.6-36.1-30.6
				c-17,0-31.2,11.6-35.3,27.3c-2.4-2.5-5.9-4.2-9.7-4.2c-4,0-7.6,1.8-10.1,4.6c-3.4-8-11.4-13.6-20.6-13.6
				c-5.4,0-10.3,1.9-14.2,5.1c-5.8-12.4-18.4-21-33.1-21c-13.5,0-25.4,7.4-31.7,18.3c-3.7-2.6-8.2-4.2-13.1-4.2
				c-12.4,0-22.4,10.1-22.4,22.4c0,12.4,10.1,22.4,22.4,22.4"/>
		</mask>
		<path class="st8" d="M713.7,1081.1l-3,0.5l0.5,3.1l3.1-0.6L713.7,1081.1z M642.3,1077.7l-2.2,2.1l3.7,3.9l1.4-5.2L642.3,1077.7z
			 M622.5,1078.1l-2.8,1.2l1.9,4.4l3.1-3.6L622.5,1078.1z M587.7,1069.6l-2.7,1.3l1.6,3.5l3-2.4L587.7,1069.6z M522.9,1067l-1.8,2.4
			l2.7,1.9l1.7-2.9L522.9,1067z M716.4,1110.6c9.1,0,16.4-7.4,16.4-16.4h-6c0,5.8-4.7,10.4-10.4,10.4V1110.6z M732.8,1094.2
			c0-9.1-7.4-16.4-16.4-16.4v6c5.8,0,10.4,4.7,10.4,10.4H732.8z M716.4,1077.8c-1.2,0-2.3,0.1-3.4,0.4l1.2,5.9
			c0.7-0.2,1.4-0.2,2.2-0.2V1077.8z M716.6,1080.6c-3.1-18.8-19.4-33.1-39-33.1v6c16.7,0,30.5,12.2,33.1,28.1L716.6,1080.6z
			 M677.6,1047.5c-18.4,0-33.8,12.5-38.2,29.5l5.8,1.5c3.8-14.4,16.9-25,32.4-25V1047.5z M644.4,1075.7c-3-3.1-7.2-5.1-11.9-5.1v6
			c3,0,5.6,1.2,7.5,3.2L644.4,1075.7z M632.6,1070.6c-4.9,0-9.3,2.2-12.3,5.6l4.5,4c1.9-2.2,4.7-3.5,7.8-3.5V1070.6z M625.3,1076.9
			c-3.9-9-12.9-15.4-23.4-15.4v6c8,0,14.9,4.8,17.9,11.8L625.3,1076.9z M601.9,1061.5c-6.1,0-11.7,2.2-16.1,5.8l3.8,4.6
			c3.4-2.8,7.6-4.4,12.3-4.4V1061.5z M590.4,1068.3c-6.3-13.4-20-22.7-35.8-22.7v6c13.4,0,25,7.9,30.4,19.3L590.4,1068.3z
			 M554.6,1045.6c-14.7,0-27.4,8-34.3,19.8l5.2,3c5.8-10.1,16.6-16.8,29.1-16.8V1045.6z M524.7,1064.5c-4.2-3-9.3-4.8-14.9-4.8v6
			c4.2,0,8.1,1.4,11.3,3.7L524.7,1064.5z M509.8,1059.7c-14.1,0-25.4,11.4-25.4,25.4h6c0-10.7,8.7-19.4,19.4-19.4V1059.7z
			 M484.4,1085.2c0,14.1,11.4,25.4,25.4,25.4v-6c-10.7,0-19.4-8.7-19.4-19.4H484.4z"/>
		<path class="st1" d="M346.3,1109.8c-7.4,0-13.4,6-13.4,13.4c0,7.4,6,13.4,13.4,13.4c4,0,7.6-1.8,10.1-4.6
			c3.4,8,11.4,13.6,20.6,13.6c6.6,0,12.5-2.8,16.6-7.4c3.6,16.4,18.2,28.6,35.7,28.6c16.4,0,30.3-10.9,34.9-25.8
			c4,6.1,10.9,10.1,18.7,10.1c10,0,18.5-6.6,21.4-15.7c1.6,0.7,3.4,1.1,5.3,1.1c7.4,0,13.4-6,13.4-13.4c0-7.4-6-13.4-13.4-13.4"/>
		<defs>
			<filter id="Adobe_OpacityMaskFilter_2_" filterUnits="userSpaceOnUse" x="329.8" y="1106.8" width="196.2" height="63.2">
				<feColorMatrix  type="matrix" values="1 0 0 0 0  0 1 0 0 0  0 0 1 0 0  0 0 0 1 0"/>
			</filter>
		</defs>
		<mask maskUnits="userSpaceOnUse" x="329.8" y="1106.8" width="196.2" height="63.2" id="path-32-outside-3_1_">
			<rect x="329" y="1105.9" class="st9" width="197" height="64"/>
			<path d="M346.3,1109.8c-7.4,0-13.4,6-13.4,13.4c0,7.4,6,13.4,13.4,13.4c4,0,7.6-1.8,10.1-4.6c3.4,8,11.4,13.6,20.6,13.6
				c6.6,0,12.5-2.8,16.6-7.4c3.6,16.4,18.2,28.6,35.7,28.6c16.4,0,30.3-10.9,34.9-25.8c4,6.1,10.9,10.1,18.7,10.1
				c10,0,18.5-6.6,21.4-15.7c1.6,0.7,3.4,1.1,5.3,1.1c7.4,0,13.4-6,13.4-13.4c0-7.4-6-13.4-13.4-13.4"/>
		</mask>
		<path class="st10" d="M356.3,1132.1l2.8-1.2l-1.9-4.3l-3.1,3.5L356.3,1132.1z M393.6,1138.3l2.9-0.6l-1.2-5.7l-3.9,4.3
			L393.6,1138.3z M464.2,1141.1l2.5-1.7l-3.5-5.3l-1.9,6.1L464.2,1141.1z M504.3,1135.6l1.2-2.8l-3-1.3l-1,3.2L504.3,1135.6z
			 M346.3,1106.8c-9.1,0-16.4,7.4-16.4,16.4h6c0-5.8,4.7-10.4,10.4-10.4V1106.8z M329.8,1123.2c0,9.1,7.4,16.4,16.4,16.4v-6
			c-5.8,0-10.4-4.7-10.4-10.4H329.8z M346.3,1139.6c4.9,0,9.3-2.2,12.3-5.6l-4.5-4c-1.9,2.2-4.7,3.5-7.8,3.5V1139.6z M353.6,1133.3
			c3.9,9.1,12.9,15.4,23.4,15.4v-6c-8,0-14.9-4.8-17.9-11.8L353.6,1133.3z M377,1148.7c7.5,0,14.2-3.2,18.9-8.3l-4.4-4
			c-3.6,3.9-8.7,6.4-14.4,6.4V1148.7z M390.7,1138.9c3.9,17.7,19.7,31,38.6,31v-6c-16,0-29.4-11.2-32.7-26.3L390.7,1138.9z
			 M429.3,1169.9c17.8,0,32.8-11.8,37.8-27.9l-5.7-1.8c-4.2,13.7-17,23.7-32.1,23.7V1169.9z M461.7,1142.8
			c4.5,6.9,12.4,11.4,21.2,11.4v-6c-6.8,0-12.8-3.5-16.2-8.8L461.7,1142.8z M482.9,1154.2c11.4,0,21-7.5,24.3-17.8l-5.7-1.8
			c-2.5,7.9-9.9,13.6-18.5,13.6V1154.2z M503.2,1138.3c2,0.9,4.2,1.3,6.4,1.3v-6c-1.5,0-2.8-0.3-4.1-0.8L503.2,1138.3z
			 M509.6,1139.6c9.1,0,16.4-7.3,16.4-16.4h-6c0,5.8-4.7,10.4-10.4,10.4V1139.6z M526,1123.2c0-9.1-7.4-16.4-16.4-16.4v6
			c5.8,0,10.4,4.7,10.4,10.4H526z"/>
		<path class="st1" d="M716.7,1109.8c-7.4,0-13.4,6-13.4,13.4s6,13.4,13.4,13.4c1.5,0,2.9-0.2,4.3-0.7c1.8,18.5,17.4,33,36.4,33
			c12.5,0,23.5-6.3,30.1-15.8c2.4,3.7,6.5,6.2,11.3,6.2c5.5,0,10.3-3.3,12.3-8.1c4,3.9,9.5,6.3,15.6,6.3c12.4,0,22.4-10.1,22.4-22.5
			c0-12.4-10.1-22.4-22.4-22.4"/>
		<defs>
			<filter id="Adobe_OpacityMaskFilter_3_" filterUnits="userSpaceOnUse" x="700.3" y="1106.8" width="151.8" height="65.2">
				<feColorMatrix  type="matrix" values="1 0 0 0 0  0 1 0 0 0  0 0 1 0 0  0 0 0 1 0"/>
			</filter>
		</defs>
		<mask maskUnits="userSpaceOnUse" x="700.3" y="1106.8" width="151.8" height="65.2" id="path-34-outside-4_1_">
			<rect x="700.1" y="1106" class="st11" width="152" height="66"/>
			<path d="M716.7,1109.8c-7.4,0-13.4,6-13.4,13.4s6,13.4,13.4,13.4c1.5,0,2.9-0.2,4.3-0.7c1.8,18.5,17.4,33,36.4,33
				c12.5,0,23.5-6.3,30.1-15.8c2.4,3.7,6.5,6.2,11.3,6.2c5.5,0,10.3-3.3,12.3-8.1c4,3.9,9.5,6.3,15.6,6.3
				c12.4,0,22.4-10.1,22.4-22.5c0-12.4-10.1-22.4-22.4-22.4"/>
		</mask>
		<path class="st12" d="M721,1136l3-0.3l-0.4-3.8l-3.6,1.2L721,1136z M787.5,1153.2l2.5-1.6l-2.4-3.8l-2.5,3.7L787.5,1153.2z
			 M811.1,1151.2l2.1-2.2l-3.1-3l-1.7,4L811.1,1151.2z M716.7,1106.8c-9.1,0-16.4,7.3-16.4,16.4h6c0-5.8,4.7-10.4,10.4-10.4V1106.8z
			 M700.3,1123.3c0,9.1,7.4,16.4,16.4,16.4v-6c-5.8,0-10.4-4.7-10.4-10.4H700.3z M716.7,1139.7c1.8,0,3.6-0.3,5.3-0.9l-1.9-5.7
			c-1.1,0.4-2.2,0.5-3.3,0.5V1139.7z M718,1136.3c1.9,20.1,18.8,35.7,39.4,35.7v-6c-17.4,0-31.8-13.3-33.4-30.3L718,1136.3z
			 M757.4,1172c13.5,0,25.5-6.8,32.6-17.2l-4.9-3.4c-6.1,8.8-16.2,14.6-27.6,14.6V1172z M784.9,1154.8c2.9,4.5,8,7.5,13.8,7.5v-6
			c-3.7,0-6.9-1.9-8.8-4.8L784.9,1154.8z M798.7,1162.3c6.8,0,12.6-4.1,15.1-9.9l-5.5-2.4c-1.6,3.7-5.3,6.3-9.6,6.3V1162.3z
			 M809,1153.3c4.6,4.4,10.8,7.2,17.7,7.2v-6c-5.3,0-10-2.1-13.5-5.5L809,1153.3z M826.7,1160.5c14.1,0,25.4-11.4,25.4-25.5h-6
			c0,10.7-8.7,19.5-19.4,19.5V1160.5z M852.1,1135.1c0-14-11.4-25.4-25.4-25.4v6c10.7,0,19.4,8.7,19.4,19.4H852.1z"/>
		<path class="st1" d="M345.5,667.6c7.4,0,13.4-6,13.4-13.4c0-7.4-6-13.4-13.4-13.4c-1.5,0-2.9,0.3-4.3,0.7
			c-1.8-18.5-17.4-30.3-36.4-30.3c-12.5,0-23.5,6.3-30.1,15.9c-2.4-3.7-6.5-6.2-11.3-6.2c-5.5,0-10.3,3.3-12.3,8.1
			c-4-3.9-9.5-6.3-15.6-6.3c-12.4,0-22.4,10.1-22.4,22.4s10.1,22.4,22.4,22.4"/>
		<path class="st2" d="M345.5,667.6c7.4,0,13.4-6,13.4-13.4c0-7.4-6-13.4-13.4-13.4c-1.5,0-2.9,0.3-4.3,0.7
			c-1.8-18.5-17.4-30.3-36.4-30.3c-12.5,0-23.5,6.3-30.1,15.9c-2.4-3.7-6.5-6.2-11.3-6.2c-5.5,0-10.3,3.3-12.3,8.1
			c-4-3.9-9.5-6.3-15.6-6.3c-12.4,0-22.4,10.1-22.4,22.4s10.1,22.4,22.4,22.4"/>
		<path class="st1" d="M28.5,668.6c-7.4,0-13.4,6-13.4,13.4c0,7.4,6,13.4,13.4,13.4c0.9,0,1.9-0.1,2.8-0.3
			c2.8,17.4,17.9,30.6,36.1,30.6c17,0,31.2-11.6,35.3-27.3c2.4,2.6,5.9,4.2,9.7,4.2c4,0,7.6-1.8,10.1-4.6c3.4,8,11.4,13.6,20.6,13.6
			c5.4,0,10.3-1.9,14.2-5.1c5.8,12.4,18.4,21,33.1,21c13.5,0,25.4-7.4,31.7-18.3c3.7,2.7,8.2,4.2,13.1,4.2
			c12.4,0,22.4-10.1,22.4-22.4s-10.1-22.4-22.4-22.4"/>
		<defs>
			<filter id="Adobe_OpacityMaskFilter_4_" filterUnits="userSpaceOnUse" x="12.1" y="665.6" width="248.5" height="65">
				<feColorMatrix  type="matrix" values="1 0 0 0 0  0 1 0 0 0  0 0 1 0 0  0 0 0 1 0"/>
			</filter>
		</defs>
		<mask maskUnits="userSpaceOnUse" x="12.1" y="665.6" width="248.5" height="65" id="path-38-outside-5_1_">
			<rect x="11.6" y="665.6" class="st13" width="249" height="65"/>
			<path d="M28.5,668.6c-7.4,0-13.4,6-13.4,13.4c0,7.4,6,13.4,13.4,13.4c0.9,0,1.9-0.1,2.8-0.3c2.8,17.4,17.9,30.6,36.1,30.6
				c17,0,31.2-11.6,35.3-27.3c2.4,2.6,5.9,4.2,9.7,4.2c4,0,7.6-1.8,10.1-4.6c3.4,8,11.4,13.6,20.6,13.6c5.4,0,10.3-1.9,14.2-5.1
				c5.8,12.4,18.4,21,33.1,21c13.5,0,25.4-7.4,31.7-18.3c3.7,2.7,8.2,4.2,13.1,4.2c12.4,0,22.4-10.1,22.4-22.4s-10.1-22.4-22.4-22.4
				"/>
		</mask>
		<path class="st14" d="M31.3,695.2l3-0.5l-0.5-3.1l-3.1,0.6L31.3,695.2z M102.7,698.5l2.2-2.1l-3.7-3.9l-1.4,5.2L102.7,698.5z
			 M122.5,698.1l2.8-1.2l-1.9-4.4l-3.1,3.6L122.5,698.1z M157.3,706.6l2.7-1.3l-1.6-3.5l-3,2.4L157.3,706.6z M222,709.3l1.8-2.4
			l-2.7-1.9l-1.7,2.9L222,709.3z M28.5,665.6c-9.1,0-16.4,7.4-16.4,16.4h6c0-5.8,4.7-10.4,10.4-10.4V665.6z M12.1,682
			c0,9.1,7.4,16.4,16.4,16.4v-6c-5.8,0-10.4-4.7-10.4-10.4H12.1z M28.5,698.5c1.2,0,2.3-0.1,3.4-0.4l-1.2-5.9
			c-0.7,0.1-1.4,0.2-2.2,0.2V698.5z M28.3,695.6c3.1,18.8,19.4,33.1,39,33.1v-6c-16.7,0-30.5-12.2-33.1-28.1L28.3,695.6z
			 M67.4,728.8c18.4,0,33.8-12.5,38.2-29.5l-5.8-1.5c-3.8,14.4-16.9,25-32.4,25V728.8z M100.5,700.6c3,3.1,7.2,5.1,11.9,5.1v-6
			c-3,0-5.6-1.2-7.5-3.2L100.5,700.6z M112.4,705.7c4.9,0,9.3-2.2,12.3-5.6l-4.5-4c-1.9,2.2-4.7,3.5-7.8,3.5V705.7z M119.7,699.3
			c3.9,9,12.9,15.4,23.4,15.4v-6c-8,0-14.9-4.8-17.9-11.8L119.7,699.3z M143.1,714.7c6.1,0,11.7-2.2,16.1-5.8l-3.8-4.6
			c-3.4,2.8-7.6,4.4-12.3,4.4V714.7z M154.6,707.9c6.3,13.4,20,22.7,35.8,22.7v-6c-13.4,0-25-7.9-30.4-19.3L154.6,707.9z
			 M190.4,730.6c14.7,0,27.4-8,34.3-19.8l-5.2-3c-5.8,10.1-16.6,16.8-29.1,16.8V730.6z M220.3,711.7c4.2,3,9.3,4.8,14.9,4.8v-6
			c-4.2,0-8.1-1.4-11.3-3.7L220.3,711.7z M235.1,716.5c14.1,0,25.4-11.4,25.4-25.4h-6c0,10.7-8.7,19.4-19.4,19.4V716.5z
			 M260.6,691.1c0-14.1-11.4-25.4-25.4-25.4v6c10.7,0,19.4,8.7,19.4,19.4H260.6z"/>
		<path class="st1" d="M716.4,666.9c7.4,0,13.4-6,13.4-13.4c0-7.4-6-13.4-13.4-13.4c-0.9,0-1.9,0.1-2.8,0.3
			c-2.8-17.4-17.9-30.6-36.1-30.6c-17,0-31.2,11.6-35.3,27.3c-2.4-2.6-5.9-4.2-9.7-4.2c-4,0-7.6,1.8-10.1,4.6
			c-3.4-8-11.4-13.6-20.6-13.6c-5.4,0-10.3,1.9-14.2,5.1c-5.8-12.4-18.4-21-33.1-21c-13.5,0-25.4,7.4-31.7,18.3
			c-3.7-2.7-8.2-4.2-13.1-4.2c-12.4,0-22.4,10.1-22.4,22.4s10.1,22.4,22.4,22.4"/>
		<defs>
			<filter id="Adobe_OpacityMaskFilter_5_" filterUnits="userSpaceOnUse" x="484.4" y="604.9" width="248.5" height="65">
				<feColorMatrix  type="matrix" values="1 0 0 0 0  0 1 0 0 0  0 0 1 0 0  0 0 0 1 0"/>
			</filter>
		</defs>
		<mask maskUnits="userSpaceOnUse" x="484.4" y="604.9" width="248.5" height="65" id="path-40-outside-6_1_">
			<rect x="484.4" y="604.9" class="st15" width="249" height="65"/>
			<path d="M716.4,666.9c7.4,0,13.4-6,13.4-13.4c0-7.4-6-13.4-13.4-13.4c-0.9,0-1.9,0.1-2.8,0.3c-2.8-17.4-17.9-30.6-36.1-30.6
				c-17,0-31.2,11.6-35.3,27.3c-2.4-2.6-5.9-4.2-9.7-4.2c-4,0-7.6,1.8-10.1,4.6c-3.4-8-11.4-13.6-20.6-13.6
				c-5.4,0-10.3,1.9-14.2,5.1c-5.8-12.4-18.4-21-33.1-21c-13.5,0-25.4,7.4-31.7,18.3c-3.7-2.7-8.2-4.2-13.1-4.2
				c-12.4,0-22.4,10.1-22.4,22.4s10.1,22.4,22.4,22.4"/>
		</mask>
		<path class="st16" d="M713.7,640.4l-3,0.5l0.5,3.1l3.1-0.6L713.7,640.4z M642.3,637l-2.2,2.1l3.7,3.9l1.4-5.2L642.3,637z
			 M622.5,637.4l-2.8,1.2l1.9,4.4l3.1-3.6L622.5,637.4z M587.7,628.9l-2.7,1.3l1.6,3.5l3-2.4L587.7,628.9z M522.9,626.3l-1.8,2.4
			l2.7,1.9l1.7-2.9L522.9,626.3z M716.4,669.9c9.1,0,16.4-7.4,16.4-16.4h-6c0,5.8-4.7,10.4-10.4,10.4V669.9z M732.8,653.5
			c0-9.1-7.4-16.4-16.4-16.4v6c5.8,0,10.4,4.7,10.4,10.4H732.8z M716.4,637.1c-1.2,0-2.3,0.1-3.4,0.4l1.2,5.9
			c0.7-0.1,1.4-0.2,2.2-0.2V637.1z M716.6,639.9c-3.1-18.8-19.4-33.1-39-33.1v6c16.7,0,30.5,12.2,33.1,28.1L716.6,639.9z
			 M677.6,606.7c-18.4,0-33.8,12.5-38.2,29.5l5.8,1.5c3.8-14.4,16.9-25,32.4-25V606.7z M644.4,634.9c-3-3.1-7.2-5.1-11.9-5.1v6
			c3,0,5.6,1.2,7.5,3.2L644.4,634.9z M632.6,629.9c-4.9,0-9.3,2.2-12.3,5.6l4.5,4c1.9-2.2,4.7-3.5,7.8-3.5V629.9z M625.3,636.2
			c-3.9-9-12.9-15.4-23.4-15.4v6c8,0,14.9,4.8,17.9,11.8L625.3,636.2z M601.9,620.8c-6.1,0-11.7,2.2-16.1,5.8l3.8,4.6
			c3.4-2.8,7.6-4.4,12.3-4.4V620.8z M590.4,627.6c-6.3-13.4-20-22.7-35.8-22.7v6c13.4,0,25,7.9,30.4,19.3L590.4,627.6z M554.6,604.9
			c-14.7,0-27.4,8-34.3,19.8l5.2,3c5.8-10.1,16.6-16.8,29.1-16.8V604.9z M524.7,623.8c-4.2-3-9.3-4.8-14.9-4.8v6
			c4.2,0,8.1,1.4,11.3,3.7L524.7,623.8z M509.8,619c-14.1,0-25.4,11.4-25.4,25.4h6c0-10.7,8.7-19.4,19.4-19.4V619z M484.4,644.5
			c0,14.1,11.4,25.4,25.4,25.4v-6c-10.7,0-19.4-8.7-19.4-19.4H484.4z"/>
		<path class="st1" d="M346.3,669.1c-7.4,0-13.4,6-13.4,13.4c0,7.4,6,13.4,13.4,13.4c4,0,7.6-1.8,10.1-4.6
			c3.4,8,11.4,13.6,20.6,13.6c6.6,0,12.5-2.8,16.6-7.4c3.6,16.4,18.2,28.6,35.7,28.6c16.4,0,30.3-10.9,34.9-25.8
			c4,6.1,10.9,10.1,18.7,10.1c10,0,18.5-6.6,21.4-15.7c1.6,0.7,3.4,1.1,5.3,1.1c7.4,0,13.4-6,13.4-13.4c0-7.4-6-13.4-13.4-13.4"/>
		<defs>
			<filter id="Adobe_OpacityMaskFilter_6_" filterUnits="userSpaceOnUse" x="329.8" y="666.1" width="196.2" height="63.1">
				<feColorMatrix  type="matrix" values="1 0 0 0 0  0 1 0 0 0  0 0 1 0 0  0 0 0 1 0"/>
			</filter>
		</defs>
		<mask maskUnits="userSpaceOnUse" x="329.8" y="666.1" width="196.2" height="63.1" id="path-42-outside-7_1_">
			<rect x="329" y="665.2" class="st17" width="197" height="64"/>
			<path d="M346.3,669.1c-7.4,0-13.4,6-13.4,13.4c0,7.4,6,13.4,13.4,13.4c4,0,7.6-1.8,10.1-4.6c3.4,8,11.4,13.6,20.6,13.6
				c6.6,0,12.5-2.8,16.6-7.4c3.6,16.4,18.2,28.6,35.7,28.6c16.4,0,30.3-10.9,34.9-25.8c4,6.1,10.9,10.1,18.7,10.1
				c10,0,18.5-6.6,21.4-15.7c1.6,0.7,3.4,1.1,5.3,1.1c7.4,0,13.4-6,13.4-13.4c0-7.4-6-13.4-13.4-13.4"/>
		</mask>
		<path class="st18" d="M356.3,691.4l2.8-1.2l-1.9-4.4l-3.1,3.6L356.3,691.4z M393.6,697.6l2.9-0.6l-1.2-5.7l-3.9,4.3L393.6,697.6z
			 M464.2,700.4l2.5-1.7l-3.5-5.3l-1.9,6.1L464.2,700.4z M504.3,694.9l1.2-2.8l-3-1.3l-1,3.2L504.3,694.9z M346.3,666.1
			c-9.1,0-16.4,7.4-16.4,16.4h6c0-5.8,4.7-10.4,10.4-10.4V666.1z M329.8,682.5c0,9.1,7.4,16.4,16.4,16.4v-6
			c-5.8,0-10.4-4.7-10.4-10.4H329.8z M346.3,698.9c4.9,0,9.3-2.2,12.3-5.6l-4.5-4c-1.9,2.2-4.7,3.5-7.8,3.5V698.9z M353.6,692.6
			c3.9,9,12.9,15.4,23.4,15.4v-6c-8,0-14.9-4.8-17.9-11.8L353.6,692.6z M377,708c7.5,0,14.2-3.2,18.9-8.4l-4.4-4
			c-3.6,3.9-8.7,6.4-14.4,6.4V708z M390.7,698.2c3.9,17.7,19.7,31,38.6,31v-6c-16,0-29.4-11.2-32.7-26.3L390.7,698.2z M429.3,729.2
			c17.8,0,32.8-11.8,37.8-27.9l-5.7-1.8c-4.2,13.7-17,23.7-32.1,23.7V729.2z M461.7,702.1c4.5,6.9,12.4,11.4,21.2,11.4v-6
			c-6.8,0-12.8-3.5-16.2-8.8L461.7,702.1z M482.9,713.5c11.4,0,21-7.5,24.3-17.8l-5.7-1.8c-2.5,7.9-9.9,13.6-18.5,13.6V713.5z
			 M503.2,697.6c2,0.8,4.2,1.3,6.4,1.3v-6c-1.5,0-2.8-0.3-4.1-0.8L503.2,697.6z M509.6,698.9c9.1,0,16.4-7.4,16.4-16.4h-6
			c0,5.8-4.7,10.4-10.4,10.4V698.9z M526,682.5c0-9.1-7.4-16.4-16.4-16.4v6c5.8,0,10.4,4.7,10.4,10.4H526z"/>
		<path class="st1" d="M716.7,669.1c-7.4,0-13.4,6-13.4,13.4c0,7.4,6,13.4,13.4,13.4c1.5,0,2.9-0.3,4.3-0.7
			c1.8,18.5,17.4,33,36.4,33c12.5,0,23.5-6.3,30.1-15.9c2.4,3.7,6.5,6.2,11.3,6.2c5.5,0,10.3-3.3,12.3-8.1c4,3.9,9.5,6.3,15.6,6.3
			c12.4,0,22.4-10.1,22.4-22.4s-10.1-22.4-22.4-22.4"/>
		<defs>
			<filter id="Adobe_OpacityMaskFilter_7_" filterUnits="userSpaceOnUse" x="700.3" y="666.1" width="151.8" height="65.2">
				<feColorMatrix  type="matrix" values="1 0 0 0 0  0 1 0 0 0  0 0 1 0 0  0 0 0 1 0"/>
			</filter>
		</defs>
		<mask maskUnits="userSpaceOnUse" x="700.3" y="666.1" width="151.8" height="65.2" id="path-44-outside-8_1_">
			<rect x="700.1" y="665.3" class="st19" width="152" height="66"/>
			<path d="M716.7,669.1c-7.4,0-13.4,6-13.4,13.4c0,7.4,6,13.4,13.4,13.4c1.5,0,2.9-0.3,4.3-0.7c1.8,18.5,17.4,33,36.4,33
				c12.5,0,23.5-6.3,30.1-15.9c2.4,3.7,6.5,6.2,11.3,6.2c5.5,0,10.3-3.3,12.3-8.1c4,3.9,9.5,6.3,15.6,6.3
				c12.4,0,22.4-10.1,22.4-22.4s-10.1-22.4-22.4-22.4"/>
		</mask>
		<path class="st20" d="M721,695.3l3-0.3l-0.4-3.8l-3.6,1.2L721,695.3z M787.5,712.4l2.5-1.6l-2.4-3.8l-2.5,3.7L787.5,712.4z
			 M811.1,710.5l2.1-2.2l-3.1-3l-1.7,4L811.1,710.5z M716.7,666.1c-9.1,0-16.4,7.4-16.4,16.4h6c0-5.8,4.7-10.4,10.4-10.4V666.1z
			 M700.3,682.6c0,9.1,7.4,16.4,16.4,16.4v-6c-5.8,0-10.4-4.7-10.4-10.4H700.3z M716.7,699c1.8,0,3.6-0.3,5.3-0.9l-1.9-5.7
			c-1.1,0.4-2.2,0.6-3.3,0.6V699z M718,695.6c1.9,20.1,18.8,35.7,39.4,35.7v-6c-17.4,0-31.8-13.3-33.4-30.3L718,695.6z M757.4,731.3
			c13.5,0,25.5-6.8,32.6-17.1l-4.9-3.4c-6.1,8.8-16.2,14.6-27.6,14.6V731.3z M784.9,714.1c2.9,4.5,8,7.5,13.8,7.5v-6
			c-3.7,0-6.9-1.9-8.8-4.8L784.9,714.1z M798.7,721.6c6.8,0,12.6-4.1,15.1-9.9l-5.5-2.4c-1.6,3.7-5.3,6.3-9.6,6.3V721.6z M809,712.6
			c4.6,4.4,10.8,7.2,17.7,7.2v-6c-5.3,0-10-2.1-13.5-5.5L809,712.6z M826.7,719.8c14.1,0,25.4-11.4,25.4-25.4h-6
			c0,10.7-8.7,19.4-19.4,19.4V719.8z M852.1,694.4c0-14.1-11.4-25.4-25.4-25.4v6c10.7,0,19.4,8.7,19.4,19.4H852.1z"/>
		<path class="st1" d="M518.7,889c-7.4,0-13.4,6-13.4,13.4s6,13.4,13.4,13.4c1.5,0,2.9-0.3,4.3-0.7c1.8,18.5,17.4,30.3,36.4,30.3
			c12.5,0,23.5-6.3,30.1-15.8c2.4,3.7,6.5,6.2,11.3,6.2c5.5,0,10.3-3.3,12.3-8.1c4,3.9,9.5,6.3,15.6,6.3c12.4,0,22.4-10.1,22.4-22.4
			S641.1,889,628.7,889"/>
		<path class="st2" d="M518.7,889c-7.4,0-13.4,6-13.4,13.4s6,13.4,13.4,13.4c1.5,0,2.9-0.3,4.3-0.7c1.8,18.5,17.4,30.3,36.4,30.3
			c12.5,0,23.5-6.3,30.1-15.8c2.4,3.7,6.5,6.2,11.3,6.2c5.5,0,10.3-3.3,12.3-8.1c4,3.9,9.5,6.3,15.6,6.3c12.4,0,22.4-10.1,22.4-22.4
			S641.1,889,628.7,889"/>
		<path class="st1" d="M835.7,888c7.4,0,13.4-6,13.4-13.4s-6-13.4-13.4-13.4c-0.9,0-1.9,0.1-2.8,0.3c-2.8-17.4-17.9-30.6-36.1-30.6
			c-17,0-31.2,11.6-35.3,27.3c-2.4-2.6-5.9-4.2-9.7-4.2c-4,0-7.6,1.8-10.1,4.6c-3.4-8-11.4-13.6-20.6-13.6c-5.4,0-10.3,1.9-14.2,5.1
			c-5.8-12.4-18.4-21-33.1-21c-13.5,0-25.4,7.4-31.7,18.3c-3.7-2.7-8.2-4.2-13.1-4.2c-12.4,0-22.4,10.1-22.4,22.4
			s10.1,22.4,22.4,22.4"/>
		<defs>
			<filter id="Adobe_OpacityMaskFilter_8_" filterUnits="userSpaceOnUse" x="603.6" y="826" width="248.5" height="65">
				<feColorMatrix  type="matrix" values="1 0 0 0 0  0 1 0 0 0  0 0 1 0 0  0 0 0 1 0"/>
			</filter>
		</defs>
		<mask maskUnits="userSpaceOnUse" x="603.6" y="826" width="248.5" height="65" id="path-48-outside-9_1_">
			<rect x="603.6" y="826" class="st21" width="249" height="65"/>
			<path d="M835.7,888c7.4,0,13.4-6,13.4-13.4s-6-13.4-13.4-13.4c-0.9,0-1.9,0.1-2.8,0.3c-2.8-17.4-17.9-30.6-36.1-30.6
				c-17,0-31.2,11.6-35.3,27.3c-2.4-2.6-5.9-4.2-9.7-4.2c-4,0-7.6,1.8-10.1,4.6c-3.4-8-11.4-13.6-20.6-13.6
				c-5.4,0-10.3,1.9-14.2,5.1c-5.8-12.4-18.4-21-33.1-21c-13.5,0-25.4,7.4-31.7,18.3c-3.7-2.7-8.2-4.2-13.1-4.2
				c-12.4,0-22.4,10.1-22.4,22.4s10.1,22.4,22.4,22.4"/>
		</mask>
		<path class="st22" d="M832.9,861.4l-3,0.5l0.5,3.1l3.1-0.6L832.9,861.4z M761.5,858.1l-2.2,2.1l3.7,3.9l1.4-5.2L761.5,858.1z
			 M741.8,858.5l-2.8,1.2l1.9,4.4l3.1-3.6L741.8,858.5z M706.9,850l-2.7,1.3l1.6,3.5l3-2.4L706.9,850z M642.2,847.3l-1.8,2.4
			l2.7,1.9l1.7-2.9L642.2,847.3z M835.7,891c9.1,0,16.4-7.4,16.4-16.4h-6c0,5.8-4.7,10.4-10.4,10.4V891z M852.1,874.6
			c0-9.1-7.4-16.4-16.4-16.4v6c5.8,0,10.4,4.7,10.4,10.4H852.1z M835.7,858.1c-1.2,0-2.3,0.1-3.4,0.4l1.2,5.9
			c0.7-0.1,1.4-0.2,2.2-0.2V858.1z M835.9,860.9c-3.1-18.8-19.4-33.1-39-33.1v6c16.7,0,30.5,12.2,33.1,28.1L835.9,860.9z
			 M796.9,827.8c-18.4,0-33.8,12.5-38.2,29.5l5.8,1.5c3.8-14.4,16.9-25,32.4-25V827.8z M763.7,856c-3-3.1-7.2-5.1-11.9-5.1v6
			c3,0,5.6,1.2,7.5,3.2L763.7,856z M751.8,850.9c-4.9,0-9.3,2.2-12.3,5.6l4.5,4c1.9-2.2,4.7-3.5,7.8-3.5V850.9z M744.5,857.3
			c-3.9-9-12.9-15.4-23.4-15.4v6c8,0,14.9,4.8,17.9,11.8L744.5,857.3z M721.1,841.9c-6.1,0-11.7,2.2-16.1,5.8l3.8,4.6
			c3.4-2.8,7.6-4.4,12.3-4.4V841.9z M709.6,848.7c-6.3-13.4-20-22.7-35.8-22.7v6c13.4,0,25,7.9,30.4,19.3L709.6,848.7z M673.9,826
			c-14.7,0-27.4,8-34.3,19.8l5.2,3c5.8-10.1,16.6-16.8,29.1-16.8V826z M643.9,844.9c-4.2-3-9.3-4.8-14.9-4.8v6
			c4.2,0,8.1,1.4,11.3,3.7L643.9,844.9z M629.1,840.1c-14.1,0-25.4,11.4-25.4,25.4h6c0-10.7,8.7-19.4,19.4-19.4V840.1z M603.6,865.5
			c0,14.1,11.4,25.4,25.4,25.4v-6c-10.7,0-19.4-8.7-19.4-19.4H603.6z"/>
		<path class="st1" d="M147.8,889.7c-7.4,0-13.4,6-13.4,13.4s6,13.4,13.4,13.4c0.9,0,1.9-0.1,2.8-0.3c2.8,17.4,17.9,30.6,36.1,30.6
			c17,0,31.2-11.6,35.3-27.3c2.4,2.6,5.9,4.2,9.7,4.2c4,0,7.6-1.8,10.1-4.6c3.4,8,11.4,13.6,20.6,13.6c5.4,0,10.3-1.9,14.2-5.1
			c5.8,12.4,18.4,21,33.1,21c13.5,0,25.4-7.4,31.7-18.3c3.7,2.7,8.2,4.2,13.1,4.2c12.4,0,22.4-10.1,22.4-22.4s-10.1-22.4-22.4-22.4"
			/>
		<defs>
			<filter id="Adobe_OpacityMaskFilter_9_" filterUnits="userSpaceOnUse" x="131.4" y="886.7" width="248.5" height="65">
				<feColorMatrix  type="matrix" values="1 0 0 0 0  0 1 0 0 0  0 0 1 0 0  0 0 0 1 0"/>
			</filter>
		</defs>
		<mask maskUnits="userSpaceOnUse" x="131.4" y="886.7" width="248.5" height="65" id="path-50-outside-10_1_">
			<rect x="130.9" y="886.6" class="st23" width="249" height="65"/>
			<path d="M147.8,889.7c-7.4,0-13.4,6-13.4,13.4s6,13.4,13.4,13.4c0.9,0,1.9-0.1,2.8-0.3c2.8,17.4,17.9,30.6,36.1,30.6
				c17,0,31.2-11.6,35.3-27.3c2.4,2.6,5.9,4.2,9.7,4.2c4,0,7.6-1.8,10.1-4.6c3.4,8,11.4,13.6,20.6,13.6c5.4,0,10.3-1.9,14.2-5.1
				c5.8,12.4,18.4,21,33.1,21c13.5,0,25.4-7.4,31.7-18.3c3.7,2.7,8.2,4.2,13.1,4.2c12.4,0,22.4-10.1,22.4-22.4s-10.1-22.4-22.4-22.4
				"/>
		</mask>
		<path class="st24" d="M150.6,916.2l3-0.5l-0.5-3.1l-3.1,0.6L150.6,916.2z M222,919.6l2.2-2.1l-3.7-3.9l-1.4,5.2L222,919.6z
			 M241.7,919.2l2.8-1.2l-1.9-4.4l-3.1,3.6L241.7,919.2z M276.6,927.7l2.7-1.3l-1.6-3.5l-3,2.4L276.6,927.7z M341.3,930.3l1.8-2.4
			l-2.7-1.9l-1.7,2.9L341.3,930.3z M147.8,886.7c-9.1,0-16.4,7.4-16.4,16.4h6c0-5.8,4.7-10.4,10.4-10.4V886.7z M131.4,903.1
			c0,9.1,7.4,16.4,16.4,16.4v-6c-5.8,0-10.4-4.7-10.4-10.4H131.4z M147.8,919.5c1.2,0,2.3-0.1,3.4-0.4l-1.2-5.9
			c-0.7,0.1-1.4,0.2-2.2,0.2V919.5z M147.6,916.7c3.1,18.8,19.4,33.1,39,33.1v-6c-16.7,0-30.5-12.2-33.1-28.1L147.6,916.7z
			 M186.6,949.8c18.4,0,33.8-12.5,38.2-29.5l-5.8-1.5c-3.8,14.4-16.9,25-32.4,25V949.8z M219.8,921.6c3,3.1,7.2,5.1,11.9,5.1v-6
			c-3,0-5.6-1.2-7.5-3.2L219.8,921.6z M231.7,926.7c4.9,0,9.3-2.2,12.3-5.6l-4.5-4c-1.9,2.2-4.7,3.5-7.8,3.5V926.7z M239,920.3
			c3.9,9,12.9,15.4,23.4,15.4v-6c-8,0-14.9-4.8-17.9-11.8L239,920.3z M262.4,935.7c6.1,0,11.7-2.2,16.1-5.8l-3.8-4.6
			c-3.4,2.8-7.6,4.4-12.3,4.4V935.7z M273.9,928.9c6.3,13.4,20,22.7,35.8,22.7v-6c-13.4,0-25-7.9-30.4-19.3L273.9,928.9z
			 M309.6,951.6c14.7,0,27.4-8,34.3-19.8l-5.2-3c-5.8,10.1-16.6,16.8-29.1,16.8V951.6z M339.6,932.8c4.2,3,9.3,4.8,14.9,4.8v-6
			c-4.2,0-8.1-1.4-11.3-3.7L339.6,932.8z M354.4,937.6c14.1,0,25.4-11.4,25.4-25.4h-6c0,10.7-8.7,19.4-19.4,19.4V937.6z
			 M379.9,912.1c0-14.1-11.4-25.4-25.4-25.4v6c10.7,0,19.4,8.7,19.4,19.4H379.9z"/>
		<path class="st1" d="M518,887.5c7.4,0,13.4-6,13.4-13.4c0-7.4-6-13.4-13.4-13.4c-4,0-7.6,1.8-10.1,4.6c-3.4-8-11.4-13.6-20.6-13.6
			c-6.6,0-12.5,2.8-16.6,7.4c-3.6-16.4-18.2-28.6-35.7-28.6c-16.4,0-30.3,10.9-34.9,25.8c-4-6.1-10.9-10.1-18.7-10.1
			c-10,0-18.5,6.6-21.4,15.7c-1.6-0.7-3.4-1.1-5.3-1.1c-7.4,0-13.4,6-13.4,13.4c0,7.4,6,13.4,13.4,13.4"/>
		<defs>
			<filter id="Adobe_OpacityMaskFilter_10_" filterUnits="userSpaceOnUse" x="338.2" y="827.4" width="196.2" height="63.1">
				<feColorMatrix  type="matrix" values="1 0 0 0 0  0 1 0 0 0  0 0 1 0 0  0 0 0 1 0"/>
			</filter>
		</defs>
		<mask maskUnits="userSpaceOnUse" x="338.2" y="827.4" width="196.2" height="63.1" id="path-52-outside-11_1_">
			<rect x="338.2" y="827.4" class="st25" width="197" height="64"/>
			<path d="M518,887.5c7.4,0,13.4-6,13.4-13.4c0-7.4-6-13.4-13.4-13.4c-4,0-7.6,1.8-10.1,4.6c-3.4-8-11.4-13.6-20.6-13.6
				c-6.6,0-12.5,2.8-16.6,7.4c-3.6-16.4-18.2-28.6-35.7-28.6c-16.4,0-30.3,10.9-34.9,25.8c-4-6.1-10.9-10.1-18.7-10.1
				c-10,0-18.5,6.6-21.4,15.7c-1.6-0.7-3.4-1.1-5.3-1.1c-7.4,0-13.4,6-13.4,13.4c0,7.4,6,13.4,13.4,13.4"/>
		</mask>
		<path class="st26" d="M507.9,865.2l-2.8,1.2l1.9,4.4l3.1-3.6L507.9,865.2z M470.6,859l-2.9,0.6l1.3,5.7l3.9-4.3L470.6,859z
			 M400,856.2l-2.5,1.7l3.5,5.3l1.9-6.1L400,856.2z M359.9,861.7l-1.2,2.8l3,1.3l1-3.2L359.9,861.7z M518,890.5
			c9.1,0,16.4-7.4,16.4-16.4h-6c0,5.8-4.7,10.4-10.4,10.4V890.5z M534.4,874.1c0-9.1-7.4-16.4-16.4-16.4v6c5.8,0,10.4,4.7,10.4,10.4
			H534.4z M518,857.7c-4.9,0-9.3,2.2-12.3,5.6l4.5,4c1.9-2.2,4.7-3.5,7.8-3.5V857.7z M510.7,864c-3.9-9-12.9-15.4-23.4-15.4v6
			c8,0,14.9,4.8,17.9,11.8L510.7,864z M487.3,848.6c-7.5,0-14.2,3.2-18.9,8.4l4.4,4c3.6-3.9,8.7-6.4,14.4-6.4V848.6z M473.6,858.4
			c-3.9-17.7-19.7-31-38.6-31v6c16,0,29.4,11.2,32.7,26.3L473.6,858.4z M435,827.4c-17.8,0-32.8,11.8-37.8,27.9l5.7,1.8
			c4.2-13.7,17-23.7,32.1-23.7V827.4z M402.5,854.5c-4.5-6.9-12.4-11.4-21.2-11.4v6c6.8,0,12.8,3.5,16.2,8.8L402.5,854.5z
			 M381.3,843.1c-11.4,0-21,7.5-24.3,17.8l5.7,1.8c2.5-7.9,9.9-13.6,18.5-13.6V843.1z M361.1,859c-2-0.8-4.2-1.3-6.4-1.3v6
			c1.5,0,2.8,0.3,4.1,0.8L361.1,859z M354.6,857.7c-9.1,0-16.4,7.4-16.4,16.4h6c0-5.8,4.7-10.4,10.4-10.4V857.7z M338.2,874.1
			c0,9.1,7.4,16.4,16.4,16.4v-6c-5.8,0-10.4-4.7-10.4-10.4H338.2z"/>
		<path class="st1" d="M147.5,887.4c7.4,0,13.4-6,13.4-13.4c0-7.4-6-13.4-13.4-13.4c-1.5,0-2.9,0.3-4.3,0.7
			c-1.8-18.5-17.4-33-36.4-33c-12.5,0-23.5,6.3-30.1,15.8c-2.4-3.7-6.5-6.1-11.3-6.1c-5.5,0-10.3,3.3-12.3,8.1
			c-4-3.9-9.5-6.3-15.6-6.3c-12.4,0-22.4,10.1-22.4,22.4s10.1,22.4,22.4,22.4"/>
		<defs>
			<filter id="Adobe_OpacityMaskFilter_11_" filterUnits="userSpaceOnUse" x="12.1" y="825.3" width="151.8" height="65.2">
				<feColorMatrix  type="matrix" values="1 0 0 0 0  0 1 0 0 0  0 0 1 0 0  0 0 0 1 0"/>
			</filter>
		</defs>
		<mask maskUnits="userSpaceOnUse" x="12.1" y="825.3" width="151.8" height="65.2" id="path-54-outside-12_1_">
			<rect x="12.1" y="825.3" class="st27" width="152" height="66"/>
			<path d="M147.5,887.4c7.4,0,13.4-6,13.4-13.4c0-7.4-6-13.4-13.4-13.4c-1.5,0-2.9,0.3-4.3,0.7c-1.8-18.5-17.4-33-36.4-33
				c-12.5,0-23.5,6.3-30.1,15.8c-2.4-3.7-6.5-6.1-11.3-6.1c-5.5,0-10.3,3.3-12.3,8.1c-4-3.9-9.5-6.3-15.6-6.3
				c-12.4,0-22.4,10.1-22.4,22.4s10.1,22.4,22.4,22.4"/>
		</mask>
		<path class="st28" d="M143.2,861.3l-3,0.3l0.4,3.8l3.6-1.2L143.2,861.3z M76.8,844.1l-2.5,1.6l2.4,3.8l2.5-3.7L76.8,844.1z
			 M53.2,846.1l-2.1,2.2l3.1,3l1.7-4L53.2,846.1z M147.5,890.4c9.1,0,16.4-7.4,16.4-16.4h-6c0,5.8-4.7,10.4-10.4,10.4V890.4z
			 M164,874c0-9.1-7.4-16.4-16.4-16.4v6c5.8,0,10.4,4.7,10.4,10.4H164z M147.5,857.6c-1.8,0-3.6,0.3-5.3,0.9l1.9,5.7
			c1.1-0.4,2.2-0.6,3.3-0.6V857.6z M146.2,861c-1.9-20.1-18.8-35.7-39.4-35.7v6c17.4,0,31.8,13.3,33.4,30.3L146.2,861z M106.9,825.3
			c-13.5,0-25.5,6.8-32.6,17.1l4.9,3.4c6.1-8.8,16.2-14.6,27.6-14.6V825.3z M79.3,842.5c-2.9-4.5-8-7.5-13.8-7.5v6
			c3.7,0,6.9,1.9,8.8,4.8L79.3,842.5z M65.5,835c-6.8,0-12.6,4.1-15.1,9.9l5.5,2.4c1.6-3.7,5.3-6.3,9.6-6.3V835z M55.3,843.9
			c-4.6-4.4-10.8-7.2-17.7-7.2v6c5.3,0,10,2.1,13.5,5.5L55.3,843.9z M37.6,836.8c-14.1,0-25.4,11.4-25.4,25.4h6
			c0-10.7,8.7-19.4,19.4-19.4V836.8z M12.1,862.2c0,14.1,11.4,25.4,25.4,25.4v-6c-10.7,0-19.4-8.7-19.4-19.4H12.1z"/>
		<path class="st1" d="M518.7,448.3c-7.4,0-13.4,6-13.4,13.4c0,7.4,6,13.4,13.4,13.4c1.5,0,2.9-0.3,4.3-0.7
			c1.8,18.5,17.4,30.3,36.4,30.3c12.5,0,23.5-6.3,30.1-15.9c2.4,3.7,6.5,6.2,11.3,6.2c5.5,0,10.3-3.3,12.3-8.1
			c4,3.9,9.5,6.3,15.6,6.3c12.4,0,22.4-10.1,22.4-22.4s-10.1-22.4-22.4-22.4"/>
		<path class="st2" d="M518.7,448.3c-7.4,0-13.4,6-13.4,13.4c0,7.4,6,13.4,13.4,13.4c1.5,0,2.9-0.3,4.3-0.7
			c1.8,18.5,17.4,30.3,36.4,30.3c12.5,0,23.5-6.3,30.1-15.9c2.4,3.7,6.5,6.2,11.3,6.2c5.5,0,10.3-3.3,12.3-8.1
			c4,3.9,9.5,6.3,15.6,6.3c12.4,0,22.4-10.1,22.4-22.4s-10.1-22.4-22.4-22.4"/>
		<path class="st1" d="M835.7,447.3c7.4,0,13.4-6,13.4-13.4c0-7.4-6-13.4-13.4-13.4c-0.9,0-1.9,0.1-2.8,0.3
			c-2.8-17.4-17.9-30.6-36.1-30.6c-17,0-31.2,11.6-35.3,27.3c-2.4-2.6-5.9-4.2-9.7-4.2c-4,0-7.6,1.8-10.1,4.6
			c-3.4-8-11.4-13.6-20.6-13.6c-5.4,0-10.3,1.9-14.2,5.1c-5.8-12.4-18.4-21-33.1-21c-13.5,0-25.4,7.4-31.7,18.3
			c-3.7-2.7-8.2-4.2-13.1-4.2c-12.4,0-22.4,10.1-22.4,22.4s10.1,22.4,22.4,22.4"/>
		<defs>
			<filter id="Adobe_OpacityMaskFilter_12_" filterUnits="userSpaceOnUse" x="603.6" y="385.3" width="248.5" height="65">
				<feColorMatrix  type="matrix" values="1 0 0 0 0  0 1 0 0 0  0 0 1 0 0  0 0 0 1 0"/>
			</filter>
		</defs>
		<mask maskUnits="userSpaceOnUse" x="603.6" y="385.3" width="248.5" height="65" id="path-58-outside-13_1_">
			<rect x="603.6" y="385.3" class="st29" width="249" height="65"/>
			<path d="M835.7,447.3c7.4,0,13.4-6,13.4-13.4c0-7.4-6-13.4-13.4-13.4c-0.9,0-1.9,0.1-2.8,0.3c-2.8-17.4-17.9-30.6-36.1-30.6
				c-17,0-31.2,11.6-35.3,27.3c-2.4-2.6-5.9-4.2-9.7-4.2c-4,0-7.6,1.8-10.1,4.6c-3.4-8-11.4-13.6-20.6-13.6
				c-5.4,0-10.3,1.9-14.2,5.1c-5.8-12.4-18.4-21-33.1-21c-13.5,0-25.4,7.4-31.7,18.3c-3.7-2.7-8.2-4.2-13.1-4.2
				c-12.4,0-22.4,10.1-22.4,22.4s10.1,22.4,22.4,22.4"/>
		</mask>
		<path class="st30" d="M832.9,420.7l-3,0.5l0.5,3.1l3.1-0.6L832.9,420.7z M761.5,417.4l-2.2,2.1l3.7,3.9l1.4-5.2L761.5,417.4z
			 M741.8,417.8l-2.8,1.2l1.9,4.4l3.1-3.6L741.8,417.8z M706.9,409.3l-2.7,1.3l1.6,3.5l3-2.4L706.9,409.3z M642.2,406.6l-1.8,2.4
			l2.7,1.9l1.7-2.9L642.2,406.6z M835.7,450.3c9.1,0,16.4-7.4,16.4-16.4h-6c0,5.8-4.7,10.4-10.4,10.4V450.3z M852.1,433.8
			c0-9.1-7.4-16.4-16.4-16.4v6c5.8,0,10.4,4.7,10.4,10.4H852.1z M835.7,417.4c-1.2,0-2.3,0.1-3.4,0.4l1.2,5.9
			c0.7-0.1,1.4-0.2,2.2-0.2V417.4z M835.9,420.2c-3.1-18.8-19.4-33.1-39-33.1v6c16.7,0,30.5,12.2,33.1,28.1L835.9,420.2z
			 M796.9,387.1c-18.4,0-33.8,12.5-38.2,29.5l5.8,1.5c3.8-14.4,16.9-25,32.4-25V387.1z M763.7,415.3c-3-3.1-7.2-5.1-11.9-5.1v6
			c3,0,5.6,1.2,7.5,3.2L763.7,415.3z M751.8,410.2c-4.9,0-9.3,2.2-12.3,5.6l4.5,4c1.9-2.2,4.7-3.5,7.8-3.5V410.2z M744.5,416.6
			c-3.9-9-12.9-15.4-23.4-15.4v6c8,0,14.9,4.8,17.9,11.8L744.5,416.6z M721.1,401.2c-6.1,0-11.7,2.2-16.1,5.8l3.8,4.6
			c3.4-2.8,7.6-4.4,12.3-4.4V401.2z M709.6,408c-6.3-13.4-20-22.7-35.8-22.7v6c13.4,0,25,7.9,30.4,19.3L709.6,408z M673.9,385.3
			c-14.7,0-27.4,8-34.3,19.8l5.2,3c5.8-10.1,16.6-16.8,29.1-16.8V385.3z M643.9,404.2c-4.2-3-9.3-4.8-14.9-4.8v6
			c4.2,0,8.1,1.4,11.3,3.7L643.9,404.2z M629.1,399.4c-14.1,0-25.4,11.4-25.4,25.4h6c0-10.7,8.7-19.4,19.4-19.4V399.4z M603.6,424.8
			c0,14.1,11.4,25.4,25.4,25.4v-6c-10.7,0-19.4-8.7-19.4-19.4H603.6z"/>
		<path class="st1" d="M147.8,448.9c-7.4,0-13.4,6-13.4,13.4c0,7.4,6,13.4,13.4,13.4c0.9,0,1.9-0.1,2.8-0.3
			c2.8,17.4,17.9,30.6,36.1,30.6c17,0,31.2-11.6,35.3-27.3c2.4,2.6,5.9,4.2,9.7,4.2c4,0,7.6-1.8,10.1-4.6c3.4,8,11.4,13.6,20.6,13.6
			c5.4,0,10.3-1.9,14.2-5.1c5.8,12.4,18.4,21,33.1,21c13.5,0,25.4-7.4,31.7-18.3c3.7,2.7,8.2,4.2,13.1,4.2
			c12.4,0,22.4-10.1,22.4-22.4s-10.1-22.4-22.4-22.4"/>
		<defs>
			<filter id="Adobe_OpacityMaskFilter_13_" filterUnits="userSpaceOnUse" x="131.4" y="445.9" width="248.5" height="65">
				<feColorMatrix  type="matrix" values="1 0 0 0 0  0 1 0 0 0  0 0 1 0 0  0 0 0 1 0"/>
			</filter>
		</defs>
		<mask maskUnits="userSpaceOnUse" x="131.4" y="445.9" width="248.5" height="65" id="path-60-outside-14_1_">
			<rect x="130.9" y="445.9" class="st31" width="249" height="65"/>
			<path d="M147.8,448.9c-7.4,0-13.4,6-13.4,13.4c0,7.4,6,13.4,13.4,13.4c0.9,0,1.9-0.1,2.8-0.3c2.8,17.4,17.9,30.6,36.1,30.6
				c17,0,31.2-11.6,35.3-27.3c2.4,2.6,5.9,4.2,9.7,4.2c4,0,7.6-1.8,10.1-4.6c3.4,8,11.4,13.6,20.6,13.6c5.4,0,10.3-1.9,14.2-5.1
				c5.8,12.4,18.4,21,33.1,21c13.5,0,25.4-7.4,31.7-18.3c3.7,2.7,8.2,4.2,13.1,4.2c12.4,0,22.4-10.1,22.4-22.4s-10.1-22.4-22.4-22.4
				"/>
		</mask>
		<path class="st32" d="M150.6,475.5l3-0.5l-0.5-3.1l-3.1,0.6L150.6,475.5z M222,478.9l2.2-2.1l-3.7-3.9l-1.4,5.2L222,478.9z
			 M241.7,478.4l2.8-1.2l-1.9-4.4l-3.1,3.6L241.7,478.4z M276.6,487l2.7-1.3l-1.6-3.5l-3,2.4L276.6,487z M341.3,489.6l1.8-2.4
			l-2.7-1.9l-1.7,2.9L341.3,489.6z M147.8,445.9c-9.1,0-16.4,7.4-16.4,16.4h6c0-5.8,4.7-10.4,10.4-10.4V445.9z M131.4,462.4
			c0,9.1,7.4,16.4,16.4,16.4v-6c-5.8,0-10.4-4.7-10.4-10.4H131.4z M147.8,478.8c1.2,0,2.3-0.1,3.4-0.4l-1.2-5.9
			c-0.7,0.1-1.4,0.2-2.2,0.2V478.8z M147.6,476c3.1,18.8,19.4,33.1,39,33.1v-6c-16.7,0-30.5-12.2-33.1-28.1L147.6,476z M186.6,509.1
			c18.4,0,33.8-12.5,38.2-29.5l-5.8-1.5c-3.8,14.4-16.9,25-32.4,25V509.1z M219.8,480.9c3,3.1,7.2,5.1,11.9,5.1v-6
			c-3,0-5.6-1.2-7.5-3.2L219.8,480.9z M231.7,486c4.9,0,9.3-2.2,12.3-5.6l-4.5-4c-1.9,2.2-4.7,3.5-7.8,3.5V486z M239,479.6
			c3.9,9,12.9,15.4,23.4,15.4v-6c-8,0-14.9-4.8-17.9-11.8L239,479.6z M262.4,495c6.1,0,11.7-2.2,16.1-5.8l-3.8-4.6
			c-3.4,2.8-7.6,4.4-12.3,4.4V495z M273.9,488.2c6.3,13.4,20,22.7,35.8,22.7v-6c-13.4,0-25-7.9-30.4-19.3L273.9,488.2z M309.6,510.9
			c14.7,0,27.4-8,34.3-19.8l-5.2-3c-5.8,10.1-16.6,16.8-29.1,16.8V510.9z M339.6,492.1c4.2,3,9.3,4.8,14.9,4.8v-6
			c-4.2,0-8.1-1.4-11.3-3.7L339.6,492.1z M354.4,496.8c14.1,0,25.4-11.4,25.4-25.4h-6c0,10.7-8.7,19.4-19.4,19.4V496.8z
			 M379.9,471.4c0-14.1-11.4-25.4-25.4-25.4v6c10.7,0,19.4,8.7,19.4,19.4H379.9z"/>
		<path class="st1" d="M518,446.8c7.4,0,13.4-6,13.4-13.4c0-7.4-6-13.4-13.4-13.4c-4,0-7.6,1.8-10.1,4.6c-3.4-8-11.4-13.6-20.6-13.6
			c-6.6,0-12.5,2.8-16.6,7.4c-3.6-16.4-18.2-28.6-35.7-28.6c-16.4,0-30.3,10.9-34.9,25.8c-4-6.1-10.9-10.1-18.7-10.1
			c-10,0-18.5,6.6-21.4,15.7c-1.6-0.7-3.4-1.1-5.3-1.1c-7.4,0-13.4,6-13.4,13.4c0,7.4,6,13.4,13.4,13.4"/>
		<defs>
			<filter id="Adobe_OpacityMaskFilter_14_" filterUnits="userSpaceOnUse" x="338.2" y="386.6" width="196.2" height="63.1">
				<feColorMatrix  type="matrix" values="1 0 0 0 0  0 1 0 0 0  0 0 1 0 0  0 0 0 1 0"/>
			</filter>
		</defs>
		<mask maskUnits="userSpaceOnUse" x="338.2" y="386.6" width="196.2" height="63.1" id="path-62-outside-15_1_">
			<rect x="338.2" y="386.6" class="st33" width="197" height="64"/>
			<path d="M518,446.8c7.4,0,13.4-6,13.4-13.4c0-7.4-6-13.4-13.4-13.4c-4,0-7.6,1.8-10.1,4.6c-3.4-8-11.4-13.6-20.6-13.6
				c-6.6,0-12.5,2.8-16.6,7.4c-3.6-16.4-18.2-28.6-35.7-28.6c-16.4,0-30.3,10.9-34.9,25.8c-4-6.1-10.9-10.1-18.7-10.1
				c-10,0-18.5,6.6-21.4,15.7c-1.6-0.7-3.4-1.1-5.3-1.1c-7.4,0-13.4,6-13.4,13.4c0,7.4,6,13.4,13.4,13.4"/>
		</mask>
		<path class="st34" d="M507.9,424.5l-2.8,1.2l1.9,4.4l3.1-3.6L507.9,424.5z M470.6,418.3l-2.9,0.6l1.3,5.7l3.9-4.3L470.6,418.3z
			 M400,415.5l-2.5,1.7l3.5,5.3l1.9-6.1L400,415.5z M359.9,421l-1.2,2.8l3,1.3l1-3.2L359.9,421z M518,449.8
			c9.1,0,16.4-7.4,16.4-16.4h-6c0,5.8-4.7,10.4-10.4,10.4V449.8z M534.4,433.4c0-9.1-7.4-16.4-16.4-16.4v6c5.8,0,10.4,4.7,10.4,10.4
			H534.4z M518,417c-4.9,0-9.3,2.2-12.3,5.6l4.5,4c1.9-2.2,4.7-3.5,7.8-3.5V417z M510.7,423.3c-3.9-9-12.9-15.4-23.4-15.4v6
			c8,0,14.9,4.8,17.9,11.8L510.7,423.3z M487.3,407.9c-7.5,0-14.2,3.2-18.9,8.4l4.4,4c3.6-3.9,8.7-6.4,14.4-6.4V407.9z M473.6,417.6
			c-3.9-17.7-19.7-31-38.6-31v6c16,0,29.4,11.2,32.7,26.3L473.6,417.6z M435,386.6c-17.8,0-32.8,11.8-37.8,27.9l5.7,1.8
			c4.2-13.7,17-23.7,32.1-23.7V386.6z M402.5,413.8c-4.5-6.9-12.4-11.4-21.2-11.4v6c6.8,0,12.8,3.5,16.2,8.8L402.5,413.8z
			 M381.3,402.4c-11.4,0-21,7.5-24.3,17.8l5.7,1.8c2.5-7.9,9.9-13.6,18.5-13.6V402.4z M361.1,418.3c-2-0.8-4.2-1.3-6.4-1.3v6
			c1.5,0,2.8,0.3,4.1,0.8L361.1,418.3z M354.6,417c-9.1,0-16.4,7.4-16.4,16.4h6c0-5.8,4.7-10.4,10.4-10.4V417z M338.2,433.4
			c0,9.1,7.4,16.4,16.4,16.4v-6c-5.8,0-10.4-4.7-10.4-10.4H338.2z"/>
		<path class="st1" d="M147.5,446.7c7.4,0,13.4-6,13.4-13.4c0-7.4-6-13.4-13.4-13.4c-1.5,0-2.9,0.3-4.3,0.7
			c-1.8-18.5-17.4-33-36.4-33c-12.5,0-23.5,6.3-30.1,15.9c-2.4-3.7-6.5-6.1-11.3-6.1c-5.5,0-10.3,3.3-12.3,8.1
			c-4-3.9-9.5-6.3-15.6-6.3c-12.4,0-22.4,10.1-22.4,22.4S25.2,444,37.6,444"/>
		<defs>
			<filter id="Adobe_OpacityMaskFilter_15_" filterUnits="userSpaceOnUse" x="12.1" y="384.6" width="151.8" height="65.2">
				<feColorMatrix  type="matrix" values="1 0 0 0 0  0 1 0 0 0  0 0 1 0 0  0 0 0 1 0"/>
			</filter>
		</defs>
		<mask maskUnits="userSpaceOnUse" x="12.1" y="384.6" width="151.8" height="65.2" id="path-64-outside-16_1_">
			<rect x="12.1" y="384.6" class="st35" width="152" height="66"/>
			<path d="M147.5,446.7c7.4,0,13.4-6,13.4-13.4c0-7.4-6-13.4-13.4-13.4c-1.5,0-2.9,0.3-4.3,0.7c-1.8-18.5-17.4-33-36.4-33
				c-12.5,0-23.5,6.3-30.1,15.9c-2.4-3.7-6.5-6.1-11.3-6.1c-5.5,0-10.3,3.3-12.3,8.1c-4-3.9-9.5-6.3-15.6-6.3
				c-12.4,0-22.4,10.1-22.4,22.4S25.2,444,37.6,444"/>
		</mask>
		<path class="st36" d="M143.2,420.6l-3,0.3l0.4,3.8l3.6-1.2L143.2,420.6z M76.8,403.4l-2.5,1.6l2.4,3.8l2.5-3.7L76.8,403.4z
			 M53.2,405.4l-2.1,2.2l3.1,3l1.7-4L53.2,405.4z M147.5,449.7c9.1,0,16.4-7.4,16.4-16.4h-6c0,5.8-4.7,10.4-10.4,10.4V449.7z
			 M164,433.3c0-9.1-7.4-16.4-16.4-16.4v6c5.8,0,10.4,4.7,10.4,10.4H164z M147.5,416.9c-1.8,0-3.6,0.3-5.3,0.9l1.9,5.7
			c1.1-0.4,2.2-0.6,3.3-0.6V416.9z M146.2,420.3c-1.9-20.1-18.8-35.7-39.4-35.7v6c17.4,0,31.8,13.3,33.4,30.3L146.2,420.3z
			 M106.9,384.6c-13.5,0-25.5,6.8-32.6,17.1l4.9,3.4c6.1-8.8,16.2-14.6,27.6-14.6V384.6z M79.3,401.8c-2.9-4.5-8-7.5-13.8-7.5v6
			c3.7,0,6.9,1.9,8.8,4.8L79.3,401.8z M65.5,394.3c-6.8,0-12.6,4.1-15.1,9.9l5.5,2.4c1.6-3.7,5.3-6.3,9.6-6.3V394.3z M55.3,403.2
			c-4.6-4.4-10.8-7.2-17.7-7.2v6c5.3,0,10,2.1,13.5,5.5L55.3,403.2z M37.6,396.1c-14.1,0-25.4,11.4-25.4,25.4h6
			c0-10.7,8.7-19.4,19.4-19.4V396.1z M12.1,421.5c0,14.1,11.4,25.4,25.4,25.4v-6c-10.7,0-19.4-8.7-19.4-19.4H12.1z"/>
	</g>
</g>
</svg>
