<svg width="87" height="96" viewBox="0 0 87 96" fill="none" xmlns="http://www.w3.org/2000/svg">
<g filter="url(#filter0_d)">
<path d="M18.0369 69C18.7169 67.9233 19.1986 66.705 19.4819 65.345C19.7652 63.9283 19.9069 62.5967 19.9069 61.35V24.375C19.9069 23.1283 19.7652 21.825 19.4819 20.465C19.1986 19.105 18.7169 17.8583 18.0369 16.725H36.8219C36.1419 17.8583 35.6602 19.105 35.3769 20.465C35.0936 21.825 34.9519 23.1283 34.9519 24.375V61.35C34.9519 62.5967 35.0936 63.9283 35.3769 65.345C35.6602 66.705 36.1419 67.9233 36.8219 69H18.0369ZM40.2 69C40.88 67.9233 41.3617 66.705 41.645 65.345C41.9283 63.9283 42.07 62.5967 42.07 61.35V24.375C42.07 23.1283 41.9283 21.825 41.645 20.465C41.3617 19.105 40.88 17.8583 40.2 16.725H58.985C58.305 17.8583 57.8233 19.105 57.54 20.465C57.2567 21.825 57.115 23.1283 57.115 24.375V61.35C57.115 62.5967 57.2567 63.9283 57.54 65.345C57.8233 66.705 58.305 67.9233 58.985 69H40.2Z" fill="#FF8A00"/>
<path d="M18.0369 69L16.7687 68.199L15.3154 70.5H18.0369V69ZM19.4819 65.345L20.9504 65.6509L20.9528 65.6392L19.4819 65.345ZM19.4819 20.465L18.0134 20.7709L18.0134 20.7709L19.4819 20.465ZM18.0369 16.725V15.225H15.3876L16.7507 17.4967L18.0369 16.725ZM36.8219 16.725L38.1082 17.4967L39.4712 15.225H36.8219V16.725ZM35.3769 20.465L33.9084 20.1591L33.9084 20.1591L35.3769 20.465ZM35.3769 65.345L33.906 65.6392L33.9084 65.6509L35.3769 65.345ZM36.8219 69V70.5H39.5434L38.0901 68.199L36.8219 69ZM19.3051 69.801C20.0893 68.5594 20.6338 67.1706 20.9504 65.6509L18.0134 65.0391C17.7634 66.2394 17.3445 67.2873 16.7687 68.199L19.3051 69.801ZM20.9528 65.6392C21.2525 64.1405 21.4069 62.7095 21.4069 61.35H18.4069C18.4069 62.4838 18.278 63.7161 18.011 65.0508L20.9528 65.6392ZM21.4069 61.35V24.375H18.4069V61.35H21.4069ZM21.4069 24.375C21.4069 23.0146 21.2523 21.6084 20.9504 20.1591L18.0134 20.7709C18.2782 22.0416 18.4069 23.242 18.4069 24.375H21.4069ZM20.9504 20.1591C20.6346 18.6432 20.0939 17.2378 19.3232 15.9533L16.7507 17.4967C17.3399 18.4789 17.7626 19.5668 18.0134 20.7709L20.9504 20.1591ZM18.0369 18.225H36.8219V15.225H18.0369V18.225ZM35.5357 15.9533C34.7649 17.2378 34.2243 18.6432 33.9084 20.1591L36.8454 20.7709C37.0962 19.5668 37.5189 18.4789 38.1082 17.4967L35.5357 15.9533ZM33.9084 20.1591C33.6065 21.6084 33.4519 23.0146 33.4519 24.375H36.4519C36.4519 23.242 36.5807 22.0416 36.8454 20.7709L33.9084 20.1591ZM33.4519 24.375V61.35H36.4519V24.375H33.4519ZM33.4519 61.35C33.4519 62.7095 33.6063 64.1405 33.906 65.6392L36.8478 65.0508C36.5808 63.7161 36.4519 62.4838 36.4519 61.35H33.4519ZM33.9084 65.6509C34.225 67.1706 34.7695 68.5594 35.5537 69.801L38.0901 68.199C37.5143 67.2873 37.0955 66.2394 36.8454 65.0391L33.9084 65.6509ZM36.8219 67.5H18.0369V70.5H36.8219V67.5ZM40.2 69L38.9318 68.199L37.4785 70.5H40.2V69ZM41.645 65.345L43.1135 65.6509L43.1159 65.6392L41.645 65.345ZM41.645 20.465L40.1765 20.7709L40.1765 20.7709L41.645 20.465ZM40.2 16.725V15.225H37.5507L38.9138 17.4967L40.2 16.725ZM58.985 16.725L60.2712 17.4967L61.6343 15.225H58.985V16.725ZM57.54 20.465L56.0715 20.1591L56.0715 20.1591L57.54 20.465ZM57.54 65.345L56.0691 65.6392L56.0715 65.6509L57.54 65.345ZM58.985 69V70.5H61.7065L60.2532 68.199L58.985 69ZM41.4682 69.801C42.2524 68.5594 42.7969 67.1706 43.1135 65.6509L40.1765 65.0391C39.9265 66.2394 39.5076 67.2873 38.9318 68.199L41.4682 69.801ZM43.1159 65.6392C43.4156 64.1405 43.57 62.7095 43.57 61.35H40.57C40.57 62.4838 40.4411 63.7161 40.1741 65.0508L43.1159 65.6392ZM43.57 61.35V24.375H40.57V61.35H43.57ZM43.57 24.375C43.57 23.0146 43.4154 21.6084 43.1135 20.1591L40.1765 20.7709C40.4412 22.0416 40.57 23.242 40.57 24.375H43.57ZM43.1135 20.1591C42.7977 18.6432 42.257 17.2378 41.4862 15.9533L38.9138 17.4967C39.503 18.4789 39.9257 19.5668 40.1765 20.7709L43.1135 20.1591ZM40.2 18.225H58.985V15.225H40.2V18.225ZM57.6988 15.9533C56.928 17.2378 56.3873 18.6432 56.0715 20.1591L59.0085 20.7709C59.2593 19.5668 59.682 18.4789 60.2712 17.4967L57.6988 15.9533ZM56.0715 20.1591C55.7696 21.6084 55.615 23.0146 55.615 24.375H58.615C58.615 23.242 58.7438 22.0416 59.0085 20.7709L56.0715 20.1591ZM55.615 24.375V61.35H58.615V24.375H55.615ZM55.615 61.35C55.615 62.7095 55.7694 64.1405 56.0691 65.6392L59.0109 65.0508C58.7439 63.7161 58.615 62.4838 58.615 61.35H55.615ZM56.0715 65.6509C56.3881 67.1706 56.9326 68.5594 57.7168 69.801L60.2532 68.199C59.6774 67.2873 59.2585 66.2394 59.0085 65.0391L56.0715 65.6509ZM58.985 67.5H40.2V70.5H58.985V67.5Z" fill="#1B1A1A"/>
</g>
<defs>
<filter id="filter0_d" x="0.31543" y="0.224976" width="86.3911" height="95.275" filterUnits="userSpaceOnUse" color-interpolation-filters="sRGB">
<feFlood flood-opacity="0" result="BackgroundImageFix"/>
<feColorMatrix in="SourceAlpha" type="matrix" values="0 0 0 0 0 0 0 0 0 0 0 0 0 0 0 0 0 0 127 0"/>
<feOffset dx="5" dy="5"/>
<feGaussianBlur stdDeviation="10"/>
<feColorMatrix type="matrix" values="0 0 0 0 0 0 0 0 0 0 0 0 0 0 0 0 0 0 0.25 0"/>
<feBlend mode="normal" in2="BackgroundImageFix" result="effect1_dropShadow"/>
<feBlend mode="normal" in="SourceGraphic" in2="effect1_dropShadow" result="shape"/>
</filter>
</defs>
</svg>
