<svg width="133" height="142" viewBox="0 0 133 142" fill="none" xmlns="http://www.w3.org/2000/svg">
<g filter="url(#filter0_d)">
<path d="M46.0369 97C46.7169 95.9233 47.1986 94.705 47.4819 93.345C47.7652 91.9283 47.9069 90.5967 47.9069 89.35V52.375C47.9069 51.1283 47.7652 49.825 47.4819 48.465C47.1986 47.105 46.7169 45.8583 46.0369 44.725H64.8219C64.1419 45.8583 63.6602 47.105 63.3769 48.465C63.0936 49.825 62.9519 51.1283 62.9519 52.375V89.35C62.9519 90.5967 63.0936 91.9283 63.3769 93.345C63.6602 94.705 64.1419 95.9233 64.8219 97H46.0369ZM68.2 97C68.88 95.9233 69.3617 94.705 69.645 93.345C69.9283 91.9283 70.07 90.5967 70.07 89.35V52.375C70.07 51.1283 69.9283 49.825 69.645 48.465C69.3617 47.105 68.88 45.8583 68.2 44.725H86.985C86.305 45.8583 85.8233 47.105 85.54 48.465C85.2567 49.825 85.115 51.1283 85.115 52.375V89.35C85.115 90.5967 85.2567 91.9283 85.54 93.345C85.8233 94.705 86.305 95.9233 86.985 97H68.2Z" fill="#FF8A00"/>
<path d="M46.0369 97L44.7687 96.199L43.3154 98.5H46.0369V97ZM47.4819 93.345L48.9504 93.6509L48.9528 93.6392L47.4819 93.345ZM47.4819 48.465L46.0134 48.7709L46.0134 48.7709L47.4819 48.465ZM46.0369 44.725V43.225H43.3876L44.7507 45.4967L46.0369 44.725ZM64.8219 44.725L66.1082 45.4967L67.4712 43.225H64.8219V44.725ZM63.3769 48.465L61.9084 48.1591L61.9084 48.1591L63.3769 48.465ZM63.3769 93.345L61.906 93.6392L61.9084 93.6509L63.3769 93.345ZM64.8219 97V98.5H67.5434L66.0901 96.199L64.8219 97ZM47.3051 97.801C48.0893 96.5594 48.6338 95.1706 48.9504 93.6509L46.0134 93.0391C45.7634 94.2394 45.3445 95.2873 44.7687 96.199L47.3051 97.801ZM48.9528 93.6392C49.2525 92.1405 49.4069 90.7095 49.4069 89.35H46.4069C46.4069 90.4838 46.278 91.7161 46.011 93.0508L48.9528 93.6392ZM49.4069 89.35V52.375H46.4069V89.35H49.4069ZM49.4069 52.375C49.4069 51.0146 49.2523 49.6084 48.9504 48.1591L46.0134 48.7709C46.2782 50.0416 46.4069 51.242 46.4069 52.375H49.4069ZM48.9504 48.1591C48.6346 46.6432 48.0939 45.2378 47.3232 43.9533L44.7507 45.4967C45.3399 46.4789 45.7626 47.5668 46.0134 48.7709L48.9504 48.1591ZM46.0369 46.225H64.8219V43.225H46.0369V46.225ZM63.5357 43.9533C62.7649 45.2378 62.2243 46.6432 61.9084 48.1591L64.8454 48.7709C65.0962 47.5668 65.5189 46.4789 66.1082 45.4967L63.5357 43.9533ZM61.9084 48.1591C61.6065 49.6084 61.4519 51.0146 61.4519 52.375H64.4519C64.4519 51.242 64.5807 50.0416 64.8454 48.7709L61.9084 48.1591ZM61.4519 52.375V89.35H64.4519V52.375H61.4519ZM61.4519 89.35C61.4519 90.7095 61.6063 92.1405 61.906 93.6392L64.8478 93.0508C64.5808 91.7161 64.4519 90.4838 64.4519 89.35H61.4519ZM61.9084 93.6509C62.225 95.1706 62.7695 96.5594 63.5537 97.801L66.0901 96.199C65.5143 95.2873 65.0955 94.2394 64.8454 93.0391L61.9084 93.6509ZM64.8219 95.5H46.0369V98.5H64.8219V95.5ZM68.2 97L66.9318 96.199L65.4785 98.5H68.2V97ZM69.645 93.345L71.1135 93.6509L71.1159 93.6392L69.645 93.345ZM69.645 48.465L68.1765 48.7709L68.1765 48.7709L69.645 48.465ZM68.2 44.725V43.225H65.5507L66.9138 45.4967L68.2 44.725ZM86.985 44.725L88.2712 45.4967L89.6343 43.225H86.985V44.725ZM85.54 48.465L84.0715 48.1591L84.0715 48.1591L85.54 48.465ZM85.54 93.345L84.0691 93.6392L84.0715 93.6509L85.54 93.345ZM86.985 97V98.5H89.7065L88.2532 96.199L86.985 97ZM69.4682 97.801C70.2524 96.5594 70.7969 95.1706 71.1135 93.6509L68.1765 93.0391C67.9265 94.2394 67.5076 95.2873 66.9318 96.199L69.4682 97.801ZM71.1159 93.6392C71.4156 92.1405 71.57 90.7095 71.57 89.35H68.57C68.57 90.4838 68.4411 91.7161 68.1741 93.0508L71.1159 93.6392ZM71.57 89.35V52.375H68.57V89.35H71.57ZM71.57 52.375C71.57 51.0146 71.4154 49.6084 71.1135 48.1591L68.1765 48.7709C68.4412 50.0416 68.57 51.242 68.57 52.375H71.57ZM71.1135 48.1591C70.7977 46.6432 70.257 45.2378 69.4862 43.9533L66.9138 45.4967C67.503 46.4789 67.9257 47.5668 68.1765 48.7709L71.1135 48.1591ZM68.2 46.225H86.985V43.225H68.2V46.225ZM85.6988 43.9533C84.928 45.2378 84.3873 46.6432 84.0715 48.1591L87.0085 48.7709C87.2593 47.5668 87.682 46.4789 88.2712 45.4967L85.6988 43.9533ZM84.0715 48.1591C83.7696 49.6084 83.615 51.0146 83.615 52.375H86.615C86.615 51.242 86.7438 50.0416 87.0085 48.7709L84.0715 48.1591ZM83.615 52.375V89.35H86.615V52.375H83.615ZM83.615 89.35C83.615 90.7095 83.7694 92.1405 84.0691 93.6392L87.0109 93.0508C86.7439 91.7161 86.615 90.4838 86.615 89.35H83.615ZM84.0715 93.6509C84.3881 95.1706 84.9326 96.5594 85.7168 97.801L88.2532 96.199C87.6774 95.2873 87.2585 94.2394 87.0085 93.0391L84.0715 93.6509ZM86.985 95.5H68.2V98.5H86.985V95.5Z" fill="#1B1A1A"/>
</g>
<defs>
<filter id="filter0_d" x="0.31543" y="0.224976" width="132.391" height="141.275" filterUnits="userSpaceOnUse" color-interpolation-filters="sRGB">
<feFlood flood-opacity="0" result="BackgroundImageFix"/>
<feColorMatrix in="SourceAlpha" type="matrix" values="0 0 0 0 0 0 0 0 0 0 0 0 0 0 0 0 0 0 127 0"/>
<feOffset/>
<feGaussianBlur stdDeviation="21.5"/>
<feColorMatrix type="matrix" values="0 0 0 0 0 0 0 0 0 0 0 0 0 0 0 0 0 0 0.95 0"/>
<feBlend mode="normal" in2="BackgroundImageFix" result="effect1_dropShadow"/>
<feBlend mode="normal" in="SourceGraphic" in2="effect1_dropShadow" result="shape"/>
</filter>
</defs>
</svg>
