<svg width="38" height="80" viewBox="0 0 38 80" fill="none" xmlns="http://www.w3.org/2000/svg">
<path d="M14.8015 11.6467C15.7203 10.2432 16.8218 8.87712 17.9626 7.48331C17.6998 8.20738 17.4512 8.9442 17.2593 9.66611C16.7895 11.4335 16.5753 13.3522 17.1037 15.474C17.6293 17.5848 18.8546 19.7569 21.0269 22.107L21.0947 22.1804L21.1717 22.2441C25.2476 25.6193 27.174 29.323 27.6034 32.9872C28.0357 36.6769 26.9706 40.5089 24.7262 44.1396C22.2989 48.0663 20.9537 51.7007 21.6681 55.1693C22.3903 58.6755 25.1089 61.5259 29.5711 64.15C32.7478 66.0182 34.6531 68.0721 35.6353 70.1419C36.6089 72.1934 36.7392 74.3921 36.1331 76.6952C35.8644 77.716 34.782 78.5 33.3559 78.5H5.90303C4.11987 78.5 3.15969 77.5677 2.82598 76.4041C2.46757 75.1544 2.79208 73.4381 4.15008 72.0102C5.3923 70.7041 6.3461 69.1744 6.48121 67.3629C6.61786 65.5307 5.89536 63.7228 4.4403 61.9161C3.12418 60.282 2.54683 58.7903 2.42664 57.4264C2.30598 56.0571 2.63426 54.6804 3.35529 53.2623C4.83178 50.3583 7.81998 47.5271 11.2343 44.71C17.1004 39.8699 20.5551 30.7274 14.7019 22.2964L14.6689 22.2489L14.6323 22.2041C13.0373 20.2475 12.583 18.4936 12.709 16.8717C12.8398 15.1866 13.6108 13.4655 14.8015 11.6467Z" fill="#009FE3" stroke="black" stroke-width="3"/>
</svg>
