<svg width="119" height="61" viewBox="0 0 119 61" fill="none" xmlns="http://www.w3.org/2000/svg">
<path d="M111.402 32.7791C111.381 32.7715 111.359 32.7639 111.338 32.7564C110.611 32.4998 109.861 32.2149 109.097 31.9246C107.461 31.3034 105.76 30.6576 104.088 30.2121C101.544 29.5344 98.8289 29.2369 95.8367 29.9837C92.8556 30.7277 89.74 32.473 86.3189 35.6425L86.2456 35.7105L86.182 35.7875C81.0772 41.9664 75.4253 44.94 69.7823 45.6027C64.1138 46.2685 58.2711 44.6231 52.7852 41.224C47.0036 37.6417 41.8197 35.7692 36.9579 36.773C32.0588 37.7845 27.9734 41.6079 24.1214 48.1735C21.1232 53.2837 17.7638 56.2971 14.3144 57.7463C10.8818 59.1884 7.19063 59.1533 3.36943 57.8517C2.27178 57.4779 1.49986 56.3374 1.49986 54.9502L1.49986 4.93342C1.49986 3.16431 2.51823 2.09563 3.69903 1.75197C4.88783 1.40599 6.3612 1.76217 7.3545 3.24698C9.8495 6.97659 12.4815 10.2976 15.5713 11.8473C17.1725 12.6504 18.9077 12.9862 20.7734 12.6664C22.6135 12.3511 24.4631 11.4186 26.3573 9.88948C28.8706 7.86062 31.2139 6.93314 33.4031 6.73979C35.5975 6.54597 37.7736 7.07793 39.9665 8.1955C44.4203 10.4653 48.7014 15.0174 52.8761 20.0889C59.8785 28.5955 73.0246 33.5356 85.1366 25.1072L85.1841 25.0742L85.2289 25.0375C88.2568 22.5634 91.0366 21.8156 93.6462 22.0187C96.3195 22.2268 98.9917 23.4462 101.732 25.2443C104.024 26.7482 106.251 28.5776 108.5 30.4254C108.947 30.7922 109.394 31.1598 109.843 31.5257C110.36 31.947 110.88 32.3668 111.402 32.7791Z" fill="#009FE3" stroke="black" stroke-width="3"/>
</svg>
