<?xml version="1.0" encoding="utf-8"?>
<!-- Generator: Adobe Illustrator 24.1.3, SVG Export Plug-In . SVG Version: 6.00 Build 0)  -->
<svg version="1.1" id="Layer_1" xmlns="http://www.w3.org/2000/svg" xmlns:xlink="http://www.w3.org/1999/xlink" x="0px" y="0px"
	 viewBox="0 0 113.76 114.6" style="enable-background:new 0 0 113.76 114.6;" xml:space="preserve">
<style type="text/css">
	.st0{fill:#FF8A00;stroke:#1B1A1A;stroke-width:3;stroke-miterlimit:10;}
	.st1{fill:#FFDE00;stroke:#1B1A1A;stroke-width:3;stroke-miterlimit:10;}
	.st2{fill:#FF8A00;stroke:#1B1A1A;stroke-width:3;}
	.st3{fill:#1B1A1A;}
</style>
<path class="st0" d="M73.06,57.7c-14.5-5.1-22.1-21-17-35.5s21.1-22,35.6-16.9s22.1,21,17,35.5S87.56,62.9,73.06,57.7z"/>
<path class="st0" d="M22.36,72.8c-11.8-4.2-18-17.1-13.8-28.9c4.2-11.7,17.2-17.9,29-13.7s18,17.1,13.8,28.9
	C47.16,70.9,34.16,77,22.36,72.8z"/>
<path class="st0" d="M30.16,110.8c-5-1.8-7.7-7.3-5.9-12.3c1.8-5,7.3-7.7,12.4-5.9c5,1.8,7.7,7.3,5.9,12.3
	C40.76,109.9,35.26,112.6,30.16,110.8z"/>
<path class="st0" d="M8.26,27.9c-5-1.8-7.7-7.3-5.9-12.3s7.3-7.7,12.4-5.9c5,1.8,7.7,7.3,5.9,12.3C18.86,27.1,13.36,29.7,8.26,27.9z
	"/>
<path class="st0" d="M58.66,41.4c-8.7-3.1-13.2-12.6-10.1-21.2s12.6-13.1,21.2-10.1c8.7,3.1,13.2,12.6,10.1,21.2
	C76.76,40,67.26,44.5,58.66,41.4z"/>
<path class="st0" d="M14.86,98.3c-6.6-2.3-10-9.5-7.7-16.1s9.5-10,16.1-7.7s10,9.5,7.7,16.1C28.66,97.2,21.46,100.6,14.86,98.3z"/>
<path class="st0" d="M53.86,101.4c-8.7-3.1-13.2-12.6-10.1-21.2s12.6-13.1,21.2-10.1c8.7,3.1,13.2,12.6,10.1,21.2
	C72.06,99.9,62.56,104.5,53.86,101.4z"/>
<path class="st0" d="M87.86,69.2c8.7,3.1,13.2,12.6,10.1,21.2c-3.1,8.6-12.6,13.1-21.2,10.1c-8.7-3.1-13.2-12.6-10.1-21.2
	C69.66,70.6,79.16,66.1,87.86,69.2z"/>
<path class="st1" d="M55.86,18.9c20.2,0,36.7,16.4,36.7,36.7c0,20.2-16.4,36.7-36.7,36.7c-20.2,0-36.7-16.4-36.7-36.7
	S35.56,18.9,55.86,18.9z"/>
<path class="st0" d="M92.56,32c8.7,3.1,13.2,12.6,10.1,21.2c-3.1,8.6-12.6,13.2-21.2,10.1s-13.2-12.6-10.1-21.2
	C74.46,33.5,83.96,29,92.56,32z"/>
<path class="st0" d="M18.76,79.3c-5-1.8-7.7-7.3-5.9-12.3s7.3-7.7,12.4-5.9s7.7,7.3,5.9,12.3C29.36,78.5,23.76,81.1,18.76,79.3z"/>
<circle class="st2" cx="55.86" cy="55.6" r="25.3"/>
<path class="st3" d="M57.96,57.7v9.6c0,0.9-0.7,1.6-1.6,1.6s-1.6-0.7-1.6-1.6v-9.6h-9.6c-0.9,0-1.6-0.7-1.6-1.6s0.7-1.6,1.6-1.6h9.6
	v-9.6c0-0.9,0.7-1.6,1.6-1.6s1.6,0.7,1.6,1.6v9.6h9.6c0.9,0,1.6,0.7,1.6,1.6s-0.7,1.6-1.6,1.6H57.96z"/>
</svg>
