<?xml version="1.0" encoding="utf-8"?>
<!-- Generator: Adobe Illustrator 24.1.3, SVG Export Plug-In . SVG Version: 6.00 Build 0)  -->
<svg version="1.1" id="Layer_1" xmlns="http://www.w3.org/2000/svg" xmlns:xlink="http://www.w3.org/1999/xlink" x="0px" y="0px"
	 viewBox="0 0 205 241" style="enable-background:new 0 0 205 241;" xml:space="preserve">
<style type="text/css">
	.st0{fill:#FFFBF1;stroke:#E5E3E3;stroke-width:3;stroke-miterlimit:10;}
</style>
<path class="st0" d="M176.6,148.7c-7.9,0-14.3-6.4-14.3-14.3c0-7.9,6.4-14.3,14.3-14.3c7.9,0,14.3,6.4,14.3,14.3
	C190.9,142.3,184.5,148.7,176.6,148.7z"/>
<path class="st0" d="M185,131.9c-7.9,0-14.3-6.4-14.3-14.3s6.4-14.3,14.3-14.3c7.9,0,14.3,6.4,14.3,14.3S192.9,131.9,185,131.9z"/>
<path class="st0" d="M136.6,203.8c-10.8,0-19.5-8.7-19.5-19.4s8.7-19.4,19.5-19.4s19.5,8.7,19.5,19.4S147.3,203.8,136.6,203.8z"/>
<path class="st0" d="M157.2,199.5c-18.7,0-33.9-15.1-33.9-33.8c0-18.7,15.2-33.8,33.9-33.8c18.7,0,33.9,15.1,33.9,33.8
	C191.1,184.3,175.9,199.5,157.2,199.5z"/>
<path class="st0" d="M112.6,208.3c-13.2,0-24-10.7-24-23.9c0-13.2,10.7-23.9,24-23.9c13.2,0,24,10.7,24,23.9
	C136.6,197.6,125.8,208.3,112.6,208.3z"/>
<path class="st0" d="M154.8,150.8c-13.8,0-25-11.2-25-24.9s11.2-24.9,25-24.9c13.8,0,25,11.2,25,24.9S168.5,150.8,154.8,150.8z"/>
<path class="st0" d="M22.9,156.8C11.3,156.8,2,147.5,2,136c0-11.5,9.3-20.8,20.9-20.8s20.9,9.3,20.9,20.8
	C43.7,147.5,34.4,156.8,22.9,156.8z"/>
<path class="st0" d="M89.7,227.7c-10.8,0-19.5-8.7-19.5-19.4s8.7-19.4,19.5-19.4c10.8,0,19.5,8.7,19.5,19.4S100.5,227.7,89.7,227.7z
	"/>
<path class="st0" d="M141.8,238.9c-7.9,0-14.3-6.4-14.3-14.3c0-7.9,6.4-14.3,14.3-14.3c7.9,0,14.3,6.4,14.3,14.3
	C156.1,232.5,149.7,238.9,141.8,238.9z"/>
<path class="st0" d="M22.7,189.4c-4.6,0-8.3-3.7-8.3-8.3c0-4.6,3.7-8.3,8.3-8.3s8.3,3.7,8.3,8.3C31,185.6,27.3,189.4,22.7,189.4z"/>
<path class="st0" d="M54.6,229.5c-4.6,0-8.3-3.7-8.3-8.3c0-4.6,3.7-8.3,8.3-8.3c4.6,0,8.3,3.7,8.3,8.3
	C62.9,225.8,59.2,229.5,54.6,229.5z"/>
<path class="st0" d="M35.3,171.1c-7.9,0-14.3-6.4-14.3-14.3s6.4-14.3,14.3-14.3s14.3,6.4,14.3,14.3S43.2,171.1,35.3,171.1z"/>
<path class="st0" d="M43.7,210.3c-6,0-10.9-4.9-10.9-10.9c0-6,4.9-10.9,10.9-10.9s10.9,4.9,10.9,10.9
	C54.6,205.5,49.8,210.3,43.7,210.3z"/>
<path class="st0" d="M43.7,197.9c-6,0-10.9-4.9-10.9-10.9s4.9-10.9,10.9-10.9c6,0,10.9,4.9,10.9,10.9S49.8,197.9,43.7,197.9z"/>
<path class="st0" d="M54.6,208.7c-6,0-10.9-4.9-10.9-10.9c0-6,4.9-10.9,10.9-10.9s10.9,4.9,10.9,10.9
	C65.5,203.9,60.6,208.7,54.6,208.7z"/>
<path class="st0" d="M72.7,200.6c-19.7,0-35.8-16-35.8-35.7s16-35.7,35.8-35.7s35.8,16,35.8,35.7S92.5,200.6,72.7,200.6z"/>
<path class="st0" d="M104.6,172.8c-18.9,0-34.3-15.3-34.3-34.2s15.4-34.2,34.3-34.2c18.9,0,34.3,15.3,34.3,34.2
	S123.5,172.8,104.6,172.8z"/>
<path class="st0" d="M52.3,158.7c-14.8,0-26.8-12-26.8-26.8c0-14.8,12-26.8,26.8-26.8c14.8,0,26.8,12,26.8,26.8
	C79.1,146.7,67.1,158.7,52.3,158.7z"/>
<path class="st0" d="M75.4,163c-7.9,0-14.3-6.4-14.3-14.3c0-7.9,6.4-14.3,14.3-14.3s14.3,6.4,14.3,14.3S83.3,163,75.4,163z"/>
<path class="st0" d="M157.2,195.4c-7.9,0-14.3-6.4-14.3-14.3s6.4-14.3,14.3-14.3c7.9,0,14.3,6.4,14.3,14.3S165.1,195.4,157.2,195.4z
	"/>
<path class="st0" d="M28.6,92.1c7.9,0,14.3,6.4,14.3,14.3c0,7.9-6.4,14.3-14.3,14.3c-7.9,0-14.3-6.4-14.3-14.3
	C14.3,98.5,20.7,92.1,28.6,92.1z"/>
<path class="st0" d="M20.1,109c7.9,0,14.3,6.4,14.3,14.3c0,7.9-6.4,14.3-14.3,14.3s-14.3-6.4-14.3-14.3C5.8,115.4,12.2,109,20.1,109
	z"/>
<path class="st0" d="M68.5,37.1c10.8,0,19.5,8.7,19.5,19.4C88,67.3,79.3,76,68.5,76s-19.5-8.7-19.5-19.4
	C49.1,45.8,57.8,37.1,68.5,37.1z"/>
<path class="st0" d="M47.9,41.4c18.7,0,33.9,15.1,33.9,33.8c0,18.7-15.2,33.8-33.9,33.8S14,93.9,14,75.2
	C14,56.5,29.2,41.4,47.9,41.4z"/>
<path class="st0" d="M92.5,32.6c13.2,0,24,10.7,24,23.9c0,13.2-10.7,23.9-24,23.9c-13.2,0-24-10.7-24-23.9S79.3,32.6,92.5,32.6z"/>
<path class="st0" d="M50.4,90c13.8,0,25,11.2,25,24.9s-11.2,24.9-25,24.9c-13.8,0-25-11.2-25-24.9S36.6,90,50.4,90z"/>
<path class="st0" d="M182.2,84.1c11.5,0,20.9,9.3,20.9,20.8c0,11.5-9.3,20.8-20.9,20.8s-20.9-9.3-20.9-20.8
	C161.4,93.4,170.7,84.1,182.2,84.1z"/>
<path class="st0" d="M115.4,13.1c10.8,0,19.5,8.7,19.5,19.4c0,10.7-8.7,19.4-19.5,19.4s-19.5-8.7-19.5-19.4
	C95.9,21.9,104.6,13.1,115.4,13.1z"/>
<path class="st0" d="M63.4,2c7.9,0,14.3,6.4,14.3,14.3c0,7.9-6.4,14.3-14.3,14.3s-14.3-6.4-14.3-14.3C49.1,8.4,55.5,2,63.4,2z"/>
<path class="st0" d="M185.9,53.9c4.6,0,8.3,3.7,8.3,8.3c0,4.6-3.7,8.3-8.3,8.3c-4.6,0-8.3-3.7-8.3-8.3
	C177.6,57.6,181.3,53.9,185.9,53.9z"/>
<path class="st0" d="M150.5,11.4c4.6,0,8.3,3.7,8.3,8.3c0,4.6-3.7,8.3-8.3,8.3c-4.6,0-8.3-3.7-8.3-8.3
	C142.2,15.1,145.9,11.4,150.5,11.4z"/>
<path class="st0" d="M169.8,69.8c7.9,0,14.3,6.4,14.3,14.3s-6.4,14.3-14.3,14.3c-7.9,0-14.3-6.4-14.3-14.3S161.9,69.8,169.8,69.8z"
	/>
<path class="st0" d="M161.4,30.6c6,0,10.9,4.9,10.9,10.9s-4.9,10.9-10.9,10.9c-6,0-10.9-4.9-10.9-10.9S155.4,30.6,161.4,30.6z"/>
<path class="st0" d="M161.4,43c6,0,10.9,4.9,10.9,10.9s-4.9,10.9-10.9,10.9c-6,0-10.9-4.9-10.9-10.9S155.4,43,161.4,43z"/>
<path class="st0" d="M150.5,32.2c6,0,10.9,4.9,10.9,10.9s-4.9,10.9-10.9,10.9S139.6,49,139.6,43S144.5,32.2,150.5,32.2z"/>
<path class="st0" d="M132.4,40.2c19.7,0,35.8,16,35.8,35.7c0,19.7-16,35.7-35.8,35.7c-19.7,0-35.8-16-35.8-35.7
	S112.6,40.2,132.4,40.2z"/>
<path class="st0" d="M100.6,68.1c18.9,0,34.3,15.3,34.3,34.2c0,18.9-15.4,34.2-34.3,34.2c-18.9,0-34.3-15.3-34.3-34.2
	C66.3,83.4,81.6,68.1,100.6,68.1z"/>
<path class="st0" d="M152.8,82.2c14.8,0,26.8,12,26.8,26.8c0,14.8-12,26.8-26.8,26.8c-14.8,0-26.8-12-26.8-26.8
	C126,94.2,138,82.2,152.8,82.2z"/>
<path class="st0" d="M129.7,77.9c7.9,0,14.3,6.4,14.3,14.3c0,7.9-6.4,14.3-14.3,14.3c-7.9,0-14.3-6.4-14.3-14.3
	C115.4,84.3,121.8,77.9,129.7,77.9z"/>
<path class="st0" d="M47.9,45.4c7.9,0,14.3,6.4,14.3,14.3c0,7.9-6.4,14.3-14.3,14.3s-14.3-6.4-14.3-14.3
	C33.6,51.8,40,45.4,47.9,45.4z"/>
</svg>
