<svg width="123" height="122" viewBox="0 0 123 122" fill="none" xmlns="http://www.w3.org/2000/svg">
<path d="M75.8618 63.7327C61.3602 58.588 53.7671 42.6835 58.9021 28.209C64.0372 13.7344 79.9558 6.17105 94.4574 11.3157C108.959 16.4603 116.552 32.3648 111.417 46.8393C106.282 61.3139 90.3634 68.8773 75.8618 63.7327Z" fill="#FF8A00" stroke="#1B1A1A" stroke-width="3" stroke-miterlimit="10"/>
<path d="M25.241 78.8337C13.4548 74.6524 7.28348 61.726 11.457 49.9619C15.6305 38.1977 28.5684 32.0505 40.3545 36.2318C52.1407 40.4131 58.312 53.3395 54.1385 65.1037C49.965 76.8679 37.0271 83.015 25.241 78.8337Z" fill="#FF8A00" stroke="#1B1A1A" stroke-width="3" stroke-miterlimit="10"/>
<path d="M33.0229 116.763C27.9836 114.975 25.345 109.448 27.1294 104.419C28.9138 99.3886 34.4456 96.7604 39.4849 98.5481C44.5242 100.336 47.1628 105.863 45.3784 110.893C43.594 115.923 38.0622 118.551 33.0229 116.763Z" fill="#FF8A00" stroke="#1B1A1A" stroke-width="3" stroke-miterlimit="10"/>
<path d="M11.1245 33.9251C6.08517 32.1374 3.44656 26.6106 5.23098 21.5807C7.01541 16.5508 12.5471 13.9225 17.5865 15.7102C22.6258 17.498 25.2644 23.0248 23.4799 28.0547C21.6955 33.0846 16.1638 35.7129 11.1245 33.9251Z" fill="#FF8A00" stroke="#1B1A1A" stroke-width="3" stroke-miterlimit="10"/>
<path d="M58.7299 75.8197C53.6906 74.0319 51.052 68.5051 52.8365 63.4752C54.6209 58.4453 60.1526 55.817 65.1919 57.6048C70.2312 59.3925 72.8698 64.9193 71.0854 69.9493C69.301 74.9792 63.7693 77.6074 58.7299 75.8197Z" fill="#FF8A00" stroke="#1B1A1A" stroke-width="3" stroke-miterlimit="10"/>
<path d="M61.4639 47.4032C52.8112 44.3336 48.2806 34.8438 51.3445 26.2072C54.4085 17.5706 63.9067 13.0578 72.5594 16.1274C81.2121 19.1971 85.7427 28.6869 82.6788 37.3235C79.6149 45.96 70.1166 50.4729 61.4639 47.4032Z" fill="#FF8A00" stroke="#1B1A1A" stroke-width="3" stroke-miterlimit="10"/>
<path d="M17.7142 104.269C11.1365 101.935 7.69247 94.7214 10.0216 88.156C12.3508 81.5907 19.5711 78.1601 26.1487 80.4936C32.7264 82.8271 36.1704 90.041 33.8413 96.6064C31.5122 103.172 24.2918 106.602 17.7142 104.269Z" fill="#FF8A00" stroke="#1B1A1A" stroke-width="3" stroke-miterlimit="10"/>
<path d="M57.7063 79.513C51.1287 77.1795 47.6847 69.9655 50.0138 63.4002C52.343 56.8348 59.5633 53.4042 66.1409 55.7377C72.7186 58.0712 76.1626 65.2852 73.8335 71.8505C71.5043 78.4159 64.284 81.8465 57.7063 79.513Z" fill="#FF8A00" stroke="#1B1A1A" stroke-width="3" stroke-miterlimit="10"/>
<path d="M56.7022 107.39C48.0495 104.32 43.5189 94.8301 46.5829 86.1935C49.6468 77.557 59.145 73.0441 67.7977 76.1138C76.4504 79.1834 80.981 88.6732 77.9171 97.3098C74.8532 105.946 65.3549 110.459 56.7022 107.39Z" fill="#FF8A00" stroke="#1B1A1A" stroke-width="3" stroke-miterlimit="10"/>
<path d="M90.6494 75.1612C99.3021 78.2309 103.833 87.7207 100.769 96.3573C97.7048 104.994 88.2066 109.507 79.5539 106.437C70.9011 103.367 66.3705 93.8776 69.4345 85.241C72.4984 76.6044 81.9966 72.0916 90.6494 75.1612Z" fill="#FF8A00" stroke="#1B1A1A" stroke-width="3" stroke-miterlimit="10"/>
<path d="M58.6501 24.8522C78.8957 24.8522 95.308 41.2645 95.308 61.5101C95.308 81.7557 78.8957 98.168 58.6501 98.168C38.4045 98.168 21.9922 81.7557 21.9922 61.5101C21.9922 41.2645 38.4045 24.8522 58.6501 24.8522Z" fill="#FFDE00" stroke="#1B1A1A" stroke-width="3" stroke-miterlimit="10"/>
<path d="M95.4111 38.0265C104.064 41.0961 108.594 50.5859 105.53 59.2225C102.466 67.8591 92.9683 72.3719 84.3156 69.3023C75.6628 66.2326 71.1323 56.7428 74.1962 48.1062C77.2601 39.4697 86.7584 34.9568 95.4111 38.0265Z" fill="#FF8A00" stroke="#1B1A1A" stroke-width="3" stroke-miterlimit="10"/>
<path d="M21.5971 85.3431C16.5578 83.5554 13.9192 78.0285 15.7036 72.9986C17.4881 67.9687 23.0198 65.3404 28.0591 67.1282C33.0984 68.916 35.737 74.4428 33.9526 79.4727C32.1682 84.5026 26.6364 87.1309 21.5971 85.3431Z" fill="#FF8A00" stroke="#1B1A1A" stroke-width="3" stroke-miterlimit="10"/>
<circle cx="58.6966" cy="61.5534" r="25.2761" transform="rotate(90 58.6966 61.5534)" fill="#FF8A00" stroke="#1B1A1A" stroke-width="3"/>
<path d="M60.8519 63.708L60.8519 73.3423C60.8519 74.2188 60.1414 74.9293 59.265 74.9293C58.3886 74.9293 57.6781 74.2188 57.6781 73.3423L57.6781 63.708L48.0438 63.708C47.1673 63.708 46.4568 62.9975 46.4568 62.1211C46.4568 61.2447 47.1673 60.5342 48.0438 60.5342L57.6781 60.5342L57.6781 50.8999C57.6781 50.0234 58.3886 49.3129 59.265 49.3129C60.1414 49.3129 60.8519 50.0234 60.8519 50.8999L60.8519 60.5342L70.4862 60.5342C71.3627 60.5342 72.0731 61.2447 72.0731 62.1211C72.0731 62.9975 71.3627 63.708 70.4862 63.708L60.8519 63.708Z" fill="#1B1A1A"/>
</svg>
