<svg width="205" height="241" viewBox="0 0 205 241" fill="none" xmlns="http://www.w3.org/2000/svg">
<path d="M176.562 148.731C168.663 148.731 162.26 142.34 162.26 134.456C162.26 126.573 168.663 120.182 176.562 120.182C184.46 120.182 190.863 126.573 190.863 134.456C190.863 142.34 184.46 148.731 176.562 148.731Z" fill="#FFFBF1" stroke="#E5E3E3" stroke-width="3" stroke-miterlimit="10"/>
<path d="M185.015 131.888C177.116 131.888 170.713 125.496 170.713 117.613C170.713 109.729 177.116 103.338 185.015 103.338C192.913 103.338 199.316 109.729 199.316 117.613C199.316 125.496 192.913 131.888 185.015 131.888Z" fill="#FFFBF1" stroke="#E5E3E3" stroke-width="3" stroke-miterlimit="10"/>
<path d="M136.582 203.803C125.823 203.803 117.101 195.097 117.101 184.358C117.101 173.62 125.823 164.914 136.582 164.914C147.341 164.914 156.062 173.62 156.062 184.358C156.062 195.097 147.341 203.803 136.582 203.803Z" fill="#FFFBF1" stroke="#E5E3E3" stroke-width="3" stroke-miterlimit="10"/>
<path d="M157.233 199.468C138.536 199.468 123.38 184.34 123.38 165.679C123.38 147.017 138.536 131.889 157.233 131.889C175.929 131.889 191.086 147.017 191.086 165.679C191.086 184.34 175.929 199.468 157.233 199.468Z" fill="#FFFBF1" stroke="#E5E3E3" stroke-width="3" stroke-miterlimit="10"/>
<path d="M112.613 208.284C99.3758 208.284 88.6446 197.572 88.6446 184.36C88.6446 171.147 99.3758 160.436 112.613 160.436C125.851 160.436 136.582 171.147 136.582 184.36C136.582 197.572 125.851 208.284 112.613 208.284Z" fill="#FFFBF1" stroke="#E5E3E3" stroke-width="3" stroke-miterlimit="10"/>
<path d="M154.751 150.821C140.971 150.821 129.799 139.67 129.799 125.915C129.799 112.16 140.971 101.01 154.751 101.01C168.532 101.01 179.703 112.16 179.703 125.915C179.703 139.67 168.532 150.821 154.751 150.821Z" fill="#FFFBF1" stroke="#E5E3E3" stroke-width="3" stroke-miterlimit="10"/>
<path d="M22.8731 156.795C11.3453 156.795 2.00021 147.467 2.00021 135.961C2.00022 124.455 11.3453 115.127 22.8732 115.127C34.401 115.127 43.7461 124.455 43.7461 135.961C43.7461 147.467 34.401 156.795 22.8731 156.795Z" fill="#FFFBF1" stroke="#E5E3E3" stroke-width="3" stroke-miterlimit="10"/>
<path d="M89.7421 227.726C78.9832 227.726 70.2615 219.021 70.2615 208.282C70.2615 197.543 78.9832 188.838 89.7421 188.838C100.501 188.838 109.223 197.543 109.223 208.282C109.223 219.021 100.501 227.726 89.7421 227.726Z" fill="#FFFBF1" stroke="#E5E3E3" stroke-width="3" stroke-miterlimit="10"/>
<path d="M141.761 238.872C133.863 238.872 127.46 232.481 127.46 224.597C127.46 216.713 133.863 210.322 141.761 210.322C149.66 210.322 156.062 216.713 156.062 224.597C156.062 232.481 149.66 238.872 141.761 238.872Z" fill="#FFFBF1" stroke="#E5E3E3" stroke-width="3" stroke-miterlimit="10"/>
<path d="M22.6709 189.365C18.0708 189.365 14.3417 185.643 14.3417 181.052C14.3417 176.46 18.0708 172.738 22.6709 172.738C27.2709 172.738 31 176.46 31 181.052C31 185.643 27.2709 189.366 22.6709 189.365Z" fill="#FFFBF1" stroke="#E5E3E3" stroke-width="3" stroke-miterlimit="10"/>
<path d="M54.5966 229.5C49.9966 229.5 46.2675 225.778 46.2675 221.187C46.2675 216.595 49.9966 212.873 54.5966 212.873C59.1967 212.873 62.9258 216.595 62.9258 221.187C62.9258 225.778 59.1967 229.5 54.5966 229.5Z" fill="#FFFBF1" stroke="#E5E3E3" stroke-width="3" stroke-miterlimit="10"/>
<path d="M35.3118 171.069C27.4133 171.069 21.0103 164.678 21.0103 156.794C21.0103 148.911 27.4133 142.52 35.3118 142.52C43.2103 142.52 49.6133 148.911 49.6133 156.794C49.6133 164.678 43.2103 171.069 35.3118 171.069Z" fill="#FFFBF1" stroke="#E5E3E3" stroke-width="3" stroke-miterlimit="10"/>
<path d="M43.7494 210.32C37.7451 210.32 32.8777 205.462 32.8777 199.469C32.8777 193.476 37.7451 188.617 43.7494 188.617C49.7537 188.617 54.6211 193.476 54.6211 199.469C54.6211 205.462 49.7537 210.32 43.7494 210.32Z" fill="#FFFBF1" stroke="#E5E3E3" stroke-width="3" stroke-miterlimit="10"/>
<path d="M43.7494 197.869C37.7451 197.869 32.8777 193.011 32.8777 187.017C32.8777 181.024 37.7451 176.166 43.7494 176.166C49.7537 176.166 54.6211 181.024 54.6211 187.017C54.6211 193.011 49.7537 197.869 43.7494 197.869Z" fill="#FFFBF1" stroke="#E5E3E3" stroke-width="3" stroke-miterlimit="10"/>
<path d="M54.597 208.718C48.5927 208.718 43.7253 203.86 43.7253 197.867C43.7253 191.874 48.5927 187.016 54.597 187.016C60.6013 187.016 65.4687 191.874 65.4687 197.867C65.4687 203.86 60.6013 208.718 54.597 208.718Z" fill="#FFFBF1" stroke="#E5E3E3" stroke-width="3" stroke-miterlimit="10"/>
<path d="M72.7416 200.633C52.9971 200.633 36.991 184.657 36.991 164.95C36.991 145.242 52.9971 129.266 72.7416 129.266C92.4861 129.266 108.492 145.242 108.492 164.95C108.492 184.657 92.4861 200.633 72.7416 200.633Z" fill="#FFFBF1" stroke="#E5E3E3" stroke-width="3" stroke-miterlimit="10"/>
<path d="M104.556 172.752C85.6176 172.752 70.2648 157.428 70.2648 138.524C70.2648 119.621 85.6176 104.297 104.556 104.297C123.495 104.297 138.848 119.621 138.848 138.524C138.848 157.428 123.495 172.752 104.556 172.752Z" fill="#FFFBF1" stroke="#E5E3E3" stroke-width="3" stroke-miterlimit="10"/>
<path d="M52.3154 158.675C37.4937 158.675 25.4784 146.682 25.4784 131.888C25.4784 117.094 37.4938 105.102 52.3154 105.102C67.137 105.102 79.1523 117.094 79.1523 131.888C79.1523 146.682 67.137 158.675 52.3154 158.675Z" fill="#FFFBF1" stroke="#E5E3E3" stroke-width="3" stroke-miterlimit="10"/>
<path d="M75.4407 163.009C67.5422 163.009 61.1392 156.618 61.1392 148.734C61.1392 140.85 67.5422 134.459 75.4407 134.459C83.3392 134.459 89.7422 140.85 89.7422 148.734C89.7422 156.618 83.3392 163.009 75.4407 163.009Z" fill="#FFFBF1" stroke="#E5E3E3" stroke-width="3" stroke-miterlimit="10"/>
<path d="M157.234 195.442C149.335 195.442 142.932 189.051 142.932 181.167C142.932 173.284 149.335 166.893 157.234 166.893C165.132 166.893 171.535 173.284 171.535 181.167C171.535 189.051 165.132 195.442 157.234 195.442Z" fill="#FFFBF1" stroke="#E5E3E3" stroke-width="3" stroke-miterlimit="10"/>
<path d="M28.5554 92.1398C36.4539 92.1398 42.8569 98.5309 42.8569 106.415C42.8569 114.298 36.4539 120.689 28.5554 120.689C20.6569 120.689 14.2539 114.298 14.2539 106.415C14.2539 98.5309 20.6569 92.1398 28.5554 92.1398Z" fill="#FFFBF1" stroke="#E5E3E3" stroke-width="3" stroke-miterlimit="10"/>
<path d="M20.1023 108.984C28.0008 108.984 34.4038 115.375 34.4038 123.258C34.4038 131.142 28.0008 137.533 20.1023 137.533C12.2038 137.533 5.80078 131.142 5.80079 123.258C5.80079 115.375 12.2038 108.984 20.1023 108.984Z" fill="#FFFBF1" stroke="#E5E3E3" stroke-width="3" stroke-miterlimit="10"/>
<path d="M68.5353 37.0685C79.2941 37.0685 88.0159 45.774 88.0159 56.5128C88.0158 67.2516 79.2941 75.957 68.5353 75.957C57.7764 75.957 49.0547 67.2515 49.0547 56.5128C49.0547 45.774 57.7765 37.0685 68.5353 37.0685Z" fill="#FFFBF1" stroke="#E5E3E3" stroke-width="3" stroke-miterlimit="10"/>
<path d="M47.8882 41.4026C66.5847 41.4026 81.7412 56.5309 81.7412 75.1925C81.7412 93.8542 66.5847 108.982 47.8882 108.982C29.1917 108.982 14.0352 93.8542 14.0352 75.1925C14.0352 56.5309 29.1917 41.4026 47.8882 41.4026Z" fill="#FFFBF1" stroke="#E5E3E3" stroke-width="3" stroke-miterlimit="10"/>
<path d="M92.5039 32.5875C105.741 32.5875 116.473 43.2987 116.473 56.5115C116.473 69.7244 105.741 80.4356 92.5039 80.4356C79.2663 80.4355 68.5352 69.7244 68.5352 56.5115C68.5352 43.2987 79.2663 32.5875 92.5039 32.5875Z" fill="#FFFBF1" stroke="#E5E3E3" stroke-width="3" stroke-miterlimit="10"/>
<path d="M50.3699 90.0506C64.1505 90.0506 75.3218 101.201 75.3218 114.956C75.3218 128.711 64.1505 139.861 50.3699 139.861C36.5893 139.861 25.418 128.711 25.418 114.956C25.418 101.201 36.5893 90.0505 50.3699 90.0506Z" fill="#FFFBF1" stroke="#E5E3E3" stroke-width="3" stroke-miterlimit="10"/>
<path d="M182.244 84.0761C193.772 84.0761 203.117 93.4038 203.117 104.91C203.117 116.416 193.772 125.744 182.244 125.744C170.716 125.744 161.371 116.416 161.371 104.91C161.371 93.4038 170.716 84.0761 182.244 84.0761Z" fill="#FFFBF1" stroke="#E5E3E3" stroke-width="3" stroke-miterlimit="10"/>
<path d="M115.379 13.1467C126.138 13.1467 134.86 21.8522 134.86 32.5909C134.86 43.3297 126.138 52.0352 115.379 52.0352C104.62 52.0352 95.8984 43.3297 95.8984 32.5909C95.8984 21.8521 104.62 13.1467 115.379 13.1467Z" fill="#FFFBF1" stroke="#E5E3E3" stroke-width="3" stroke-miterlimit="10"/>
<path d="M63.3601 2.00114C71.2586 2.00114 77.6616 8.3922 77.6616 16.276C77.6616 24.1597 71.2586 30.5508 63.3601 30.5508C55.4616 30.5508 49.0586 24.1597 49.0586 16.276C49.0586 8.39219 55.4616 2.00113 63.3601 2.00114Z" fill="#FFFBF1" stroke="#E5E3E3" stroke-width="3" stroke-miterlimit="10"/>
<path d="M185.915 53.8552C190.515 53.8552 194.244 57.5773 194.244 62.1688C194.244 66.7603 190.515 70.4824 185.915 70.4824C181.315 70.4824 177.586 66.7603 177.586 62.1688C177.586 57.5773 181.315 53.8552 185.915 53.8552Z" fill="#FFFBF1" stroke="#E5E3E3" stroke-width="3" stroke-miterlimit="10"/>
<path d="M150.524 11.3709C155.125 11.3709 158.854 15.093 158.854 19.6844C158.854 24.2759 155.125 27.9981 150.524 27.998C145.924 27.998 142.195 24.2759 142.195 19.6844C142.195 15.093 145.924 11.3709 150.524 11.3709Z" fill="#FFFBF1" stroke="#E5E3E3" stroke-width="3" stroke-miterlimit="10"/>
<path d="M169.809 69.8019C177.708 69.8019 184.111 76.193 184.111 84.0768C184.111 91.9605 177.708 98.3516 169.809 98.3516C161.911 98.3516 155.508 91.9605 155.508 84.0767C155.508 76.193 161.911 69.8019 169.809 69.8019Z" fill="#FFFBF1" stroke="#E5E3E3" stroke-width="3" stroke-miterlimit="10"/>
<path d="M161.372 30.551C167.376 30.551 172.243 35.4093 172.243 41.4024C172.243 47.3955 167.376 52.2539 161.372 52.2539C155.367 52.2539 150.5 47.3955 150.5 41.4024C150.5 35.4093 155.367 30.551 161.372 30.551Z" fill="#FFFBF1" stroke="#E5E3E3" stroke-width="3" stroke-miterlimit="10"/>
<path d="M161.372 43.0022C167.376 43.0022 172.243 47.8606 172.243 53.8536C172.243 59.8467 167.376 64.7051 161.372 64.7051C155.367 64.7051 150.5 59.8467 150.5 53.8536C150.5 47.8606 155.367 43.0022 161.372 43.0022Z" fill="#FFFBF1" stroke="#E5E3E3" stroke-width="3" stroke-miterlimit="10"/>
<path d="M150.52 32.1526C156.524 32.1526 161.392 37.011 161.392 43.004C161.392 48.9971 156.524 53.8555 150.52 53.8555C144.516 53.8555 139.648 48.9971 139.648 43.004C139.648 37.011 144.516 32.1526 150.52 32.1526Z" fill="#FFFBF1" stroke="#E5E3E3" stroke-width="3" stroke-miterlimit="10"/>
<path d="M132.376 40.2376C152.12 40.2376 168.126 56.2139 168.126 75.9216C168.126 95.6293 152.12 111.605 132.376 111.605C112.631 111.605 96.625 95.6292 96.625 75.9216C96.625 56.2139 112.631 40.2376 132.376 40.2376Z" fill="#FFFBF1" stroke="#E5E3E3" stroke-width="3" stroke-miterlimit="10"/>
<path d="M100.565 68.1193C119.503 68.1193 134.856 83.4435 134.856 102.347C134.856 121.25 119.503 136.574 100.565 136.574C81.6262 136.574 66.2734 121.25 66.2734 102.347C66.2735 83.4434 81.6262 68.1193 100.565 68.1193Z" fill="#FFFBF1" stroke="#E5E3E3" stroke-width="3" stroke-miterlimit="10"/>
<path d="M152.806 82.1958C167.627 82.1958 179.643 94.1887 179.643 108.983C179.643 123.777 167.627 135.77 152.806 135.77C137.984 135.77 125.969 123.777 125.969 108.983C125.969 94.1887 137.984 82.1958 152.806 82.1958Z" fill="#FFFBF1" stroke="#E5E3E3" stroke-width="3" stroke-miterlimit="10"/>
<path d="M129.68 77.8625C137.579 77.8625 143.982 84.2535 143.982 92.1373C143.982 100.021 137.579 106.412 129.68 106.412C121.782 106.412 115.379 100.021 115.379 92.1373C115.379 84.2535 121.782 77.8625 129.68 77.8625Z" fill="#FFFBF1" stroke="#E5E3E3" stroke-width="3" stroke-miterlimit="10"/>
<path d="M47.8874 45.4309C55.7859 45.4309 62.1889 51.8219 62.1889 59.7057C62.1889 67.5894 55.7859 73.9805 47.8874 73.9805C39.9889 73.9805 33.5859 67.5894 33.5859 59.7057C33.5859 51.8219 39.9889 45.4309 47.8874 45.4309Z" fill="#FFFBF1" stroke="#E5E3E3" stroke-width="3" stroke-miterlimit="10"/>
</svg>
