<svg width="66" height="114" viewBox="0 0 66 114" fill="none" xmlns="http://www.w3.org/2000/svg">
<path d="M32.8656 93.9972C49.8666 93.9972 63.6486 80.2151 63.6486 63.2141C63.6486 46.2131 49.8666 32.431 32.8656 32.431C15.8646 32.431 2.08252 46.2131 2.08252 63.2141C2.08252 80.2151 15.8646 93.9972 32.8656 93.9972Z" fill="#FFDE00" stroke="#1B1A1A" stroke-width="3" stroke-miterlimit="10"/>
<path d="M44.2288 106.46C49.8628 99.2087 56.4907 86.1769 61.5644 72.5838H3.62695C8.70311 86.1769 15.3285 99.2087 20.9626 106.46C23.2392 109.387 26.3551 111.18 29.6578 111.843H35.531C38.8363 111.18 41.9522 109.387 44.2288 106.46Z" fill="#FFDE00" stroke="#1B1A1A" stroke-width="3" stroke-miterlimit="10"/>
<path d="M33.525 102.658C40.4677 102.658 46.0959 100.765 46.0959 98.4311C46.0959 96.0969 40.4677 94.2046 33.525 94.2046C26.5823 94.2046 20.9541 96.0969 20.9541 98.4311C20.9541 100.765 26.5823 102.658 33.525 102.658Z" fill="#FFFBF1" stroke="#1B1A1A" stroke-width="3" stroke-miterlimit="10"/>
<path d="M33.5223 102.476C35.8033 102.476 37.6524 100.627 37.6524 98.3462C37.6524 96.0652 35.8033 94.2161 33.5223 94.2161C31.2412 94.2161 29.3921 96.0652 29.3921 98.3462C29.3921 100.627 31.2412 102.476 33.5223 102.476Z" fill="#1B1A1A" stroke="#1B1A1A" stroke-width="3" stroke-miterlimit="10"/>
<path d="M6.83132 18.1347C7.21379 21.541 8.00371 26.6821 13.9279 30.3941C22.4015 35.7033 28.9359 30.5105 28.9359 30.5105C28.9359 30.5105 22.3137 28.4728 20.8309 27.5417C17.3424 25.3568 15.5089 15.7328 15.5089 15.7328L6.83132 18.1347Z" fill="#FFDE00" stroke="#1B1A1A" stroke-width="3" stroke-miterlimit="10"/>
<path d="M59.1079 18.1347C58.7254 21.541 57.9355 26.6821 52.0113 30.3941C43.5377 35.7033 37.0033 30.5105 37.0033 30.5105C37.0033 30.5105 43.6255 28.4728 45.1084 27.5417C48.5968 25.3568 50.4303 15.7328 50.4303 15.7328L59.1079 18.1347Z" fill="#FFDE00" stroke="#1B1A1A" stroke-width="3" stroke-miterlimit="10"/>
<path d="M42.106 15.8294C42.106 19.9272 40.9288 23.5736 39.102 26.1563C37.2726 28.7428 34.8846 30.1589 32.4096 30.1589C29.9345 30.1589 27.5466 28.7428 25.7171 26.1563C23.8903 23.5736 22.7131 19.9272 22.7131 15.8294C22.7131 11.7316 23.8903 8.08526 25.7171 5.50253C27.5466 2.91606 29.9345 1.5 32.4096 1.5C34.8846 1.5 37.2726 2.91606 39.102 5.50253C40.9288 8.08526 42.106 11.7316 42.106 15.8294Z" fill="#FFDE00" stroke="#1B1A1A" stroke-width="3"/>
<circle cx="32.5832" cy="62.9317" r="23.5954" fill="#FF8A00" stroke="#1B1A1A" stroke-width="3"/>
<path d="M35.4205 61.5364L47.2105 61.5364C48.283 61.5364 49.1525 62.4058 49.1525 63.4784C49.1525 64.5509 48.283 65.4204 47.2105 65.4204L35.4205 65.4204L35.4205 77.2104C35.4205 78.2829 34.5511 79.1523 33.4785 79.1523C32.406 79.1523 31.5365 78.2829 31.5365 77.2104L31.5365 65.4204L19.7465 65.4204C18.674 65.4204 17.8045 64.5509 17.8045 63.4784C17.8045 62.4058 18.674 61.5364 19.7465 61.5364L31.5365 61.5364L31.5365 49.7464C31.5365 48.6739 32.406 47.8044 33.4785 47.8044C34.5511 47.8044 35.4205 48.6739 35.4205 49.7464L35.4205 61.5364Z" fill="#1B1A1A"/>
</svg>
