<svg width="110" height="140" viewBox="0 0 110 140" fill="none" xmlns="http://www.w3.org/2000/svg">
<path d="M108.239 42.8565C102.047 19.3434 80.6134 2 55.1196 2C29.6257 2 8.19227 19.3434 2 42.8565C11.8733 80.114 31.9526 105.616 55.1196 105.616C78.2865 105.616 98.368 80.1118 108.239 42.8565Z" fill="#E30613" stroke="#1B1A1A" stroke-width="3" stroke-miterlimit="10"/>
<path d="M35.4763 80.4981H75.4205C84.2468 80.4981 91.4009 73.344 91.4009 64.5177V48.5168C91.4009 28.6605 75.3047 12.5643 55.4484 12.5643C35.5938 12.5643 19.4976 28.6605 19.4976 48.5151V64.516C19.4976 73.3423 26.6516 80.4981 35.4763 80.4981Z" fill="#009FE3" stroke="#1B1A1A" stroke-width="3" stroke-miterlimit="10"/>
<path d="M38.2769 75.7355H72.6219C80.2102 75.7355 86.3612 69.5845 86.3612 61.9962V48.2381C86.3612 31.1661 72.5214 17.3263 55.4494 17.3263C38.3774 17.3263 24.5376 31.1661 24.5376 48.2381V61.9962C24.5359 69.5845 30.6869 75.7355 38.2769 75.7355Z" fill="#009FE3" stroke="#1B1A1A" stroke-width="3" stroke-miterlimit="10"/>
<path d="M48.5034 18.1092L48.5698 18.6643L55.4497 30.5798L62.3296 18.6643L62.396 18.1092C60.1635 17.5966 57.8389 17.3258 55.4497 17.3258C53.0605 17.3258 50.736 17.5966 48.5034 18.1092Z" fill="#E30613" stroke="#1B1A1A" stroke-width="3" stroke-miterlimit="10"/>
<path d="M83.4216 35.064C81.4326 30.8475 78.5188 27.1539 74.941 24.2435L69.7231 37.0565L83.4216 35.064Z" fill="#E30613" stroke="#1B1A1A" stroke-width="3" stroke-miterlimit="10"/>
<path d="M86.3613 48.2387C86.3613 43.5283 85.3072 39.0632 83.422 35.0664L73.2861 44.5262L86.3613 48.2387Z" fill="#FFDE00" stroke="#1B1A1A" stroke-width="3" stroke-miterlimit="10"/>
<path d="M74.9418 24.2452C71.3418 21.3161 67.0708 19.1824 62.3945 18.1095L63.7194 32.3529L74.9418 24.2452Z" fill="#FFDE00" stroke="#1B1A1A" stroke-width="3" stroke-miterlimit="10"/>
<path d="M86.3618 61.996V48.2379L74.4463 55.1161L86.3618 61.996Z" fill="#E30613" stroke="#1B1A1A" stroke-width="3" stroke-miterlimit="10"/>
<path d="M27.4751 35.064C29.4641 30.8475 32.3779 27.1539 35.9557 24.2435L41.1736 37.0565L27.4751 35.064Z" fill="#E30613" stroke="#1B1A1A" stroke-width="3" stroke-miterlimit="10"/>
<path d="M24.5361 48.2387C24.5361 43.5283 25.5903 39.0632 27.4754 35.0664L37.6113 44.5262L24.5361 48.2387Z" fill="#FFDE00" stroke="#1B1A1A" stroke-width="3" stroke-miterlimit="10"/>
<path d="M35.9561 24.2452C39.5561 21.3161 43.8271 19.1824 48.5033 18.1095L47.1784 32.3529L35.9561 24.2452Z" fill="#FFDE00" stroke="#1B1A1A" stroke-width="3" stroke-miterlimit="10"/>
<path d="M24.5361 61.996V48.2379L36.4516 55.1161L24.5361 61.996Z" fill="#E30613" stroke="#1B1A1A" stroke-width="3" stroke-miterlimit="10"/>
<path d="M55.4479 53.748C43.5938 53.748 33.9347 63.1313 33.4834 74.8747C34.9752 75.4299 36.5896 75.7347 38.2755 75.7347H39.6276C41.8431 69.1205 48.0861 64.3506 55.4479 64.3506C62.8081 64.3506 69.0511 69.1188 71.2683 75.7347H72.6204C74.3063 75.7347 75.9207 75.4299 77.4125 74.8747C76.9612 63.1313 67.3038 53.748 55.4479 53.748Z" fill="#FFDE00" stroke="#1B1A1A" stroke-width="3" stroke-miterlimit="10"/>
<path d="M55.4478 64.3529C48.0877 64.3529 41.8447 69.1212 39.6274 75.7371H71.2681C69.0526 69.1212 62.8096 64.3529 55.4478 64.3529Z" fill="#E30613" stroke="#1B1A1A" stroke-width="3" stroke-miterlimit="10"/>
</svg>
