<svg width="105" height="108" viewBox="0 0 105 108" fill="none" xmlns="http://www.w3.org/2000/svg">
<path d="M72.7795 78.0921C82.6011 61.8391 94.1553 32.6282 103 2.15942H2C10.8491 32.6282 22.3989 61.8391 32.2205 78.0921C36.1892 84.6546 41.621 88.6733 47.3786 90.1594H57.6171C63.379 88.6733 68.8108 84.6546 72.7795 78.0921Z" fill="#FFDE00" stroke="#1B1A1A" stroke-width="3" stroke-miterlimit="10"/>
<path d="M64.9794 49.6174C71.0236 39.4592 78.1338 21.2024 83.5767 2.15942H21.4229C26.8684 21.2024 33.976 39.4592 40.0201 49.6174C42.4623 53.7189 45.805 56.2306 49.3481 57.1594H55.6488C59.1945 56.2306 62.5372 53.7189 64.9794 49.6174Z" fill="#E30613" stroke="#1B1A1A" stroke-width="3" stroke-miterlimit="10"/>
<path d="M43.8701 37.6949H61.3085C64.9648 37.6949 68.1217 34.3953 68.868 29.7896L71.4371 13.9789C72.4411 7.80117 68.7794 2 63.8776 2H41.2984C36.3965 2 32.7348 7.80117 33.7388 13.9789L36.3079 29.7896C37.0596 34.3953 40.2138 37.6949 43.8701 37.6949Z" fill="#FFDE00" stroke="#1B1A1A" stroke-width="3" stroke-miterlimit="10"/>
<path d="M52.59 25.7571C58.5352 25.7571 63.3548 21.5078 63.3548 16.2659C63.3548 11.024 58.5352 6.77466 52.59 6.77466C46.6448 6.77466 41.8252 11.024 41.8252 16.2659C41.8252 21.5078 46.6448 25.7571 52.59 25.7571Z" fill="#009FE3" stroke="#1B1A1A" stroke-width="3" stroke-miterlimit="10"/>
<path d="M52.5895 35.0753C59.5207 35.0753 65.1395 30.122 65.1395 24.0119C65.1395 17.9018 59.5207 12.9486 52.5895 12.9486C45.6584 12.9486 40.0396 17.9018 40.0396 24.0119C40.0396 30.122 45.6584 35.0753 52.5895 35.0753Z" fill="#E30613" stroke="#1B1A1A" stroke-width="3" stroke-miterlimit="10"/>
<path d="M52.59 46.6632C60.5782 46.6632 67.054 40.9536 67.054 33.9103C67.054 26.8671 60.5782 21.1575 52.59 21.1575C44.6017 21.1575 38.126 26.8671 38.126 33.9103C38.126 40.9536 44.6017 46.6632 52.59 46.6632Z" fill="#FFDE00" stroke="#1B1A1A" stroke-width="3" stroke-miterlimit="10"/>
<path d="M52.5893 58.8335C61.2432 58.8335 68.2586 52.649 68.2586 45.0199C68.2586 37.3909 61.2432 31.2063 52.5893 31.2063C43.9353 31.2063 36.9199 37.3909 36.9199 45.0199C36.9199 52.649 43.9353 58.8335 52.5893 58.8335Z" fill="#E30613" stroke="#1B1A1A" stroke-width="3" stroke-miterlimit="10"/>
<path d="M52.5895 75.2451C62.5734 75.2451 70.6669 68.1107 70.6669 59.3101C70.6669 50.5094 62.5734 43.375 52.5895 43.375C42.6057 43.375 34.5122 50.5094 34.5122 59.3101C34.5122 68.1107 42.6057 75.2451 52.5895 75.2451Z" fill="#009FE3" stroke="#1B1A1A" stroke-width="3" stroke-miterlimit="10"/>
</svg>
