<svg width="110" height="108" viewBox="0 0 110 108" fill="none" xmlns="http://www.w3.org/2000/svg">
<path d="M108.297 42.9579C102.105 19.4448 80.6714 2.10144 55.1775 2.10144C29.6837 2.10144 8.25025 19.4448 2.05798 42.9579C11.9313 80.2154 32.0106 105.717 55.1775 105.717C78.3445 105.717 98.4259 80.2133 108.297 42.9579Z" fill="#E30613" stroke="#1B1A1A" stroke-width="3" stroke-miterlimit="10"/>
<path d="M35.5342 80.5996H75.4784C84.3048 80.5996 91.4588 73.4455 91.4588 64.6192V48.6183C91.4588 28.762 75.3626 12.6658 55.5063 12.6658C35.6517 12.6658 19.5555 28.762 19.5555 48.6166V64.6175C19.5555 73.4438 26.7095 80.5996 35.5342 80.5996Z" fill="#009FE3" stroke="#1B1A1A" stroke-width="3" stroke-miterlimit="10"/>
<path d="M38.3351 75.837H72.68C80.2684 75.837 86.4194 69.686 86.4194 62.0977V48.3396C86.4194 31.2676 72.5796 17.4278 55.5076 17.4278C38.4356 17.4278 24.5958 31.2676 24.5958 48.3396V62.0977C24.5941 69.686 30.7451 75.837 38.3351 75.837Z" fill="#009FE3" stroke="#1B1A1A" stroke-width="3" stroke-miterlimit="10"/>
<path d="M48.5612 18.2107L48.6276 18.7658L55.5075 30.6813L62.3874 18.7658L62.4538 18.2107C60.2213 17.6981 57.8967 17.4273 55.5075 17.4273C53.1183 17.4273 50.7938 17.6981 48.5612 18.2107Z" fill="#E30613" stroke="#1B1A1A" stroke-width="3" stroke-miterlimit="10"/>
<path d="M83.4797 35.1655C81.4906 30.949 78.5769 27.2553 74.999 24.345L69.7812 37.1579L83.4797 35.1655Z" fill="#E30613" stroke="#1B1A1A" stroke-width="3" stroke-miterlimit="10"/>
<path d="M86.4194 48.3401C86.4194 43.6298 85.3653 39.1647 83.4802 35.1678L73.3442 44.6277L86.4194 48.3401Z" fill="#FFDE00" stroke="#1B1A1A" stroke-width="3" stroke-miterlimit="10"/>
<path d="M74.9996 24.3467C71.3996 21.4177 67.1286 19.2839 62.4523 18.211L63.7772 32.4544L74.9996 24.3467Z" fill="#FFDE00" stroke="#1B1A1A" stroke-width="3" stroke-miterlimit="10"/>
<path d="M86.4195 62.0975V48.3394L74.504 55.2176L86.4195 62.0975Z" fill="#E30613" stroke="#1B1A1A" stroke-width="3" stroke-miterlimit="10"/>
<path d="M27.5332 35.1655C29.5222 30.949 32.436 27.2553 36.0139 24.345L41.2317 37.1579L27.5332 35.1655Z" fill="#E30613" stroke="#1B1A1A" stroke-width="3" stroke-miterlimit="10"/>
<path d="M24.5941 48.3401C24.5941 43.6298 25.6482 39.1647 27.5333 35.1678L37.6692 44.6277L24.5941 48.3401Z" fill="#FFDE00" stroke="#1B1A1A" stroke-width="3" stroke-miterlimit="10"/>
<path d="M36.014 24.3467C39.6141 21.4177 43.885 19.2839 48.5613 18.211L47.2364 32.4544L36.014 24.3467Z" fill="#FFDE00" stroke="#1B1A1A" stroke-width="3" stroke-miterlimit="10"/>
<path d="M24.5941 62.0975V48.3394L36.5095 55.2176L24.5941 62.0975Z" fill="#E30613" stroke="#1B1A1A" stroke-width="3" stroke-miterlimit="10"/>
<path d="M55.5057 53.8496C43.6516 53.8496 33.9925 63.2328 33.5412 74.9763C35.033 75.5314 36.6474 75.8363 38.3333 75.8363H39.6854C41.9009 69.222 48.1439 64.4521 55.5057 64.4521C62.8659 64.4521 69.1089 69.2203 71.3261 75.8363H72.6782C74.3641 75.8363 75.9785 75.5314 77.4703 74.9763C77.019 63.2328 67.3616 53.8496 55.5057 53.8496Z" fill="#FFDE00" stroke="#1B1A1A" stroke-width="3" stroke-miterlimit="10"/>
<path d="M55.5059 64.4544C48.1458 64.4544 41.9028 69.2227 39.6855 75.8386H71.3262C69.1107 69.2227 62.8677 64.4544 55.5059 64.4544Z" fill="#E30613" stroke="#1B1A1A" stroke-width="3" stroke-miterlimit="10"/>
</svg>
