<svg width="101" height="128" viewBox="0 0 101 128" fill="none" xmlns="http://www.w3.org/2000/svg">
<path d="M99.058 2C99.058 22.7574 77.3296 39.5823 50.529 39.5823C23.7283 39.5823 2 22.7552 2 2V16.9791C2 73.6284 38.196 100 50.529 100C62.862 100 99.058 73.6306 99.058 16.9791V2Z" fill="#009FE3" stroke="#1B1A1A" stroke-width="3" stroke-miterlimit="10" stroke-linecap="round" stroke-linejoin="round"/>
<path d="M36.4523 52.7572V94.1078C42.0954 98.0512 47.1901 100 50.529 100C53.8679 100 58.9597 98.0491 64.6056 94.1078V52.7572C84.5374 48.0824 99.058 33.758 99.058 16.7929V2C99.058 22.7552 77.3309 39.5823 50.5318 39.5823C23.7271 39.5845 2 22.7574 2 2.00219V16.7951C2 33.758 16.5177 48.0845 36.4523 52.7572Z" fill="#FFDE00" stroke="#1B1A1A" stroke-width="3" stroke-miterlimit="10"/>
<path d="M49.8733 84.8454C54.5817 84.8454 58.3986 76.2511 58.3986 65.6495C58.3986 55.0479 54.5817 46.4536 49.8733 46.4536C45.1648 46.4536 41.3479 55.0479 41.3479 65.6495C41.3479 76.2511 45.1648 84.8454 49.8733 84.8454Z" fill="#E30613" stroke="#1B1A1A" stroke-width="3" stroke-miterlimit="10"/>
<path d="M49.8733 71.7113C54.5817 71.7113 58.3986 68.7711 58.3986 65.1443C58.3986 61.5174 54.5817 58.5773 49.8733 58.5773C45.1648 58.5773 41.3479 61.5174 41.3479 65.1443C41.3479 68.7711 45.1648 71.7113 49.8733 71.7113Z" fill="#1B1A1A" stroke="#1B1A1A" stroke-width="3" stroke-miterlimit="10"/>
<path d="M19.7395 58.7913V70.517C19.7395 72.0172 20.9943 73.3489 22.8481 73.8125L26.8113 74.8053C29.7184 75.5335 32.6992 73.865 32.6992 71.5098V57.7985C32.6992 55.4455 29.7184 53.777 26.8113 54.503L22.8481 55.4958C20.9943 55.9616 19.7395 57.2912 19.7395 58.7913Z" fill="#FFDE00" stroke="#1B1A1A" stroke-width="3" stroke-miterlimit="10"/>
<path d="M32.5323 70.0609C27.6636 70.6185 20.2312 71.222 12.7563 65.6632C2.0649 57.712 6.68385 48.8926 6.68385 48.8926C6.68385 48.8926 12.1147 55.7176 13.9884 57.1084C18.3888 60.3821 32.4415 59.6495 32.4415 59.6495L32.5323 70.0609Z" fill="#E30613" stroke="#1B1A1A" stroke-width="3" stroke-miterlimit="10"/>
<path d="M81.3899 58.7913V70.517C81.3899 72.0172 80.1351 73.3489 78.2813 73.8125L74.3181 74.8053C71.4111 75.5335 68.4302 73.865 68.4302 71.5098V57.7985C68.4302 55.4455 71.4111 53.777 74.3181 54.503L78.2813 55.4958C80.1351 55.9616 81.3899 57.2912 81.3899 58.7913Z" fill="#FFDE00" stroke="#1B1A1A" stroke-width="3" stroke-miterlimit="10"/>
<path d="M68.5972 70.0609C73.4659 70.6185 80.8983 71.222 88.3732 65.6632C99.0646 57.7141 94.4457 48.8926 94.4457 48.8926C94.4457 48.8926 89.0148 55.7176 87.1411 57.1084C82.7407 60.3821 68.688 59.6495 68.688 59.6495L68.5972 70.0609Z" fill="#E30613" stroke="#1B1A1A" stroke-width="3" stroke-miterlimit="10"/>
</svg>
