<svg width="106" height="118" viewBox="0 0 106 118" fill="none" xmlns="http://www.w3.org/2000/svg">
<path d="M53.7646 92.3913C81.6529 92.3913 104.261 69.7833 104.261 41.8949C104.261 14.0065 81.6529 10.4167 53.7646 10.4167C25.8762 10.4167 3.26819 14.0065 3.26819 41.8949C3.26819 69.7833 25.8762 92.3913 53.7646 92.3913Z" fill="#E30613" stroke="#1B1A1A" stroke-width="3" stroke-miterlimit="10"/>
<path d="M104.261 1.8913L1.95651 1.8913C4.81791 28.3337 26.6261 56.9783 53.1087 56.9783C79.5913 56.9783 101.399 28.3337 104.261 1.8913Z" fill="#009FE3" stroke="#1B1A1A" stroke-width="3" stroke-miterlimit="10"/>
<path d="M74.0942 84.5217L32.1232 84.5217L32.1232 94.7251C32.1232 106.476 41.5177 116 53.108 116C64.6982 116 74.0928 106.476 74.0928 94.7251V84.5217H74.0942Z" fill="#009FE3" stroke="#1B1A1A" stroke-width="3" stroke-miterlimit="10"/>
<path d="M53.7645 100.261C65.7166 100.261 75.4058 87.342 75.4058 71.4058C75.4058 55.4696 65.7166 42.5507 53.7645 42.5507C41.8123 42.5507 32.1232 55.4696 32.1232 71.4058C32.1232 87.342 41.8123 100.261 53.7645 100.261Z" fill="#FFDE00" stroke="#1B1A1A" stroke-width="3" stroke-miterlimit="10"/>
<path d="M53.7645 85.8333C61.3705 85.8333 67.5363 79.0803 67.5363 70.75C67.5363 62.4197 61.3705 55.6667 53.7645 55.6667C46.1586 55.6667 39.9928 62.4197 39.9928 70.75C39.9928 79.0803 46.1586 85.8333 53.7645 85.8333Z" fill="#E30613" stroke="#1B1A1A" stroke-width="3" stroke-miterlimit="10"/>
<path d="M53.7645 38.6159C70.0629 38.6159 83.2754 31.8629 83.2754 23.5326C83.2754 15.2023 70.0629 8.44928 53.7645 8.44928C37.4661 8.44928 24.2537 15.2023 24.2537 23.5326C24.2537 31.8629 37.4661 38.6159 53.7645 38.6159Z" fill="#FFDE00" stroke="#1B1A1A" stroke-width="3" stroke-miterlimit="10"/>
</svg>
