<svg width="101" height="131" viewBox="0 0 101 131" fill="none" xmlns="http://www.w3.org/2000/svg">
<path d="M99.058 2C99.058 28.9475 77.3296 50.7898 50.529 50.7898C23.7283 50.7898 2 28.9447 2 2V21.446C2 94.9888 38.196 129.225 50.529 129.225C62.862 129.225 99.058 94.9916 99.058 21.446V2Z" fill="#009FE3" stroke="#1B1A1A" stroke-width="3" stroke-miterlimit="10" stroke-linecap="round" stroke-linejoin="round"/>
<path d="M36.4523 67.8935V121.575C42.0954 126.695 47.1901 129.225 50.529 129.225C53.8679 129.225 58.9597 126.692 64.6056 121.575V67.8935C84.5374 61.8246 99.058 43.2285 99.058 21.2044V2C99.058 28.9447 77.3309 50.7898 50.5318 50.7898C23.7271 50.7926 2 28.9475 2 2.00284V21.2072C2 43.2285 16.5177 61.8274 36.4523 67.8935Z" fill="#FFDE00" stroke="#1B1A1A" stroke-width="3" stroke-miterlimit="10"/>
<path d="M49.8732 109.551C54.5816 109.551 58.3986 98.3935 58.3986 84.6304C58.3986 70.8673 54.5816 59.7101 49.8732 59.7101C45.1648 59.7101 41.3478 70.8673 41.3478 84.6304C41.3478 98.3935 45.1648 109.551 49.8732 109.551Z" fill="#E30613" stroke="#1B1A1A" stroke-width="3" stroke-miterlimit="10"/>
<path d="M49.8732 92.5C54.5816 92.5 58.3986 88.6831 58.3986 83.9746C58.3986 79.2662 54.5816 75.4493 49.8732 75.4493C45.1648 75.4493 41.3478 79.2662 41.3478 83.9746C41.3478 88.6831 45.1648 92.5 49.8732 92.5Z" fill="#1B1A1A" stroke="#1B1A1A" stroke-width="3" stroke-miterlimit="10"/>
<path d="M19.7396 75.7271V90.9494C19.7396 92.8969 20.9944 94.6258 22.8482 95.2277L26.8114 96.5166C29.7184 97.4619 32.6993 95.2958 32.6993 92.2383V74.4382C32.6993 71.3835 29.7184 69.2174 26.8114 70.1599L22.8482 71.4488C20.9944 72.0535 19.7396 73.7795 19.7396 75.7271Z" fill="#FFDE00" stroke="#1B1A1A" stroke-width="3" stroke-miterlimit="10"/>
<path d="M32.5323 90.3573C27.6636 91.0812 20.2312 91.8648 12.7563 84.6482C2.0649 74.3258 6.68385 62.8764 6.68385 62.8764C6.68385 62.8764 12.1147 71.7367 13.9884 73.5423C18.3888 77.7922 32.4415 76.8411 32.4415 76.8411L32.5323 90.3573Z" fill="#E30613" stroke="#1B1A1A" stroke-width="3" stroke-miterlimit="10"/>
<path d="M81.3899 75.7271V90.9494C81.3899 92.8969 80.1351 94.6258 78.2813 95.2277L74.3181 96.5166C71.4111 97.4619 68.4302 95.2958 68.4302 92.2383V74.4382C68.4302 71.3835 71.4111 69.2174 74.3181 70.1599L78.2813 71.4488C80.1351 72.0535 81.3899 73.7795 81.3899 75.7271Z" fill="#FFDE00" stroke="#1B1A1A" stroke-width="3" stroke-miterlimit="10"/>
<path d="M68.5973 90.3573C73.4661 91.0812 80.8984 91.8648 88.3733 84.6482C99.0647 74.3287 94.4458 62.8764 94.4458 62.8764C94.4458 62.8764 89.0149 71.7367 87.1412 73.5423C82.7409 77.7922 68.6881 76.8411 68.6881 76.8411L68.5973 90.3573Z" fill="#E30613" stroke="#1B1A1A" stroke-width="3" stroke-miterlimit="10"/>
</svg>
