<svg width="107" height="109" viewBox="0 0 107 109" fill="none" xmlns="http://www.w3.org/2000/svg">
<path d="M53.5 93C81.9427 93 105 70.1092 105 41.872C105 13.6348 81.9427 10 53.5 10C25.0573 10 2 13.6348 2 41.872C2 70.1092 25.0573 93 53.5 93Z" fill="#E30613" stroke="#1B1A1A" stroke-width="3" stroke-miterlimit="10"/>
<path d="M99 1.99999L7 1.99999C9.57319 25.7791 29.1848 51.5385 53 51.5385C76.8152 51.5385 96.4268 25.7791 99 1.99999Z" fill="#009FE3" stroke="#1B1A1A" stroke-width="3" stroke-miterlimit="10"/>
<path d="M71.872 78.3076L34.1284 78.3076V87.4833C34.1284 98.0502 42.5767 106.615 52.9996 106.615C63.4225 106.615 71.8708 98.0502 71.8708 87.4833V78.3076H71.872Z" fill="#009FE3" stroke="#1B1A1A" stroke-width="3" stroke-miterlimit="10"/>
<path d="M53.5 93C65.3741 93 75 80.0163 75 64C75 47.9837 65.3741 35 53.5 35C41.6259 35 32 47.9837 32 64C32 80.0163 41.6259 93 53.5 93Z" fill="#FFDE00" stroke="#1B1A1A" stroke-width="3" stroke-miterlimit="10"/>
<path d="M53.5 78C60.9558 78 67 71.2843 67 63C67 54.7157 60.9558 48 53.5 48C46.0442 48 40 54.7157 40 63C40 71.2843 46.0442 78 53.5 78Z" fill="#E30613" stroke="#1B1A1A" stroke-width="3" stroke-miterlimit="10"/>
<path d="M53.5 31C65.9264 31 76 25.8513 76 19.5C76 13.1487 65.9264 8 53.5 8C41.0736 8 31 13.1487 31 19.5C31 25.8513 41.0736 31 53.5 31Z" fill="#FFDE00" stroke="#1B1A1A" stroke-width="3" stroke-miterlimit="10"/>
</svg>
