<svg width="136" height="92" viewBox="0 0 136 92" fill="none" xmlns="http://www.w3.org/2000/svg">
<path d="M94.1023 77.9327C106.744 61.6797 121.616 32.4688 133 2H3C14.3899 32.4688 29.256 61.6797 41.8977 77.9327C47.0058 84.4951 53.9974 88.5138 61.4081 90H74.5863C82.0026 88.5138 88.9941 84.4951 94.1023 77.9327Z" fill="#FFDE00" stroke="#1B1A1A" stroke-width="3" stroke-miterlimit="10"/>
<path d="M84.0629 49.4579C91.8425 39.2998 100.994 21.043 108 2H28C35.0092 21.043 44.1575 39.2998 51.9371 49.4579C55.0805 53.5595 59.383 56.0712 63.9434 57H72.0531C76.617 56.0712 80.9195 53.5595 84.0629 49.4579Z" fill="#E30613" stroke="#1B1A1A" stroke-width="3" stroke-miterlimit="10"/>
<path d="M57.2546 37.6949H79.7001C84.4062 37.6949 88.4696 34.3953 89.4302 29.7896L92.7369 13.9789C94.0292 7.80117 89.3162 2 83.0068 2H53.9445C47.6351 2 42.9221 7.80117 44.2144 13.9789L47.5211 29.7896C48.4886 34.3953 52.5485 37.6949 57.2546 37.6949Z" fill="#FFDE00" stroke="#1B1A1A" stroke-width="3" stroke-miterlimit="10"/>
<path d="M68.4785 25.7571C76.1308 25.7571 82.3342 21.5077 82.3342 16.2659C82.3342 11.024 76.1308 6.77463 68.4785 6.77463C60.8263 6.77463 54.6229 11.024 54.6229 16.2659C54.6229 21.5077 60.8263 25.7571 68.4785 25.7571Z" fill="#009FE3" stroke="#1B1A1A" stroke-width="3" stroke-miterlimit="10"/>
<path d="M68.4778 35.0752C77.3991 35.0752 84.6313 30.122 84.6313 24.0119C84.6313 17.9018 77.3991 12.9486 68.4778 12.9486C59.5565 12.9486 52.3244 17.9018 52.3244 24.0119C52.3244 30.122 59.5565 35.0752 68.4778 35.0752Z" fill="#E30613" stroke="#1B1A1A" stroke-width="3" stroke-miterlimit="10"/>
<path d="M68.4783 46.6633C78.7602 46.6633 87.0953 40.9536 87.0953 33.9104C87.0953 26.8672 78.7602 21.1575 68.4783 21.1575C58.1964 21.1575 49.8613 26.8672 49.8613 33.9104C49.8613 40.9536 58.1964 46.6633 68.4783 46.6633Z" fill="#FFDE00" stroke="#1B1A1A" stroke-width="3" stroke-miterlimit="10"/>
<path d="M68.4775 58.8336C79.6162 58.8336 88.6459 52.649 88.6459 45.02C88.6459 37.3909 79.6162 31.2064 68.4775 31.2064C57.3387 31.2064 48.309 37.3909 48.309 45.02C48.309 52.649 57.3387 58.8336 68.4775 58.8336Z" fill="#E30613" stroke="#1B1A1A" stroke-width="3" stroke-miterlimit="10"/>
<path d="M68.4777 75.2451C81.3282 75.2451 91.7456 68.1107 91.7456 59.31C91.7456 50.5093 81.3282 43.375 68.4777 43.375C55.6273 43.375 45.2099 50.5093 45.2099 59.31C45.2099 68.1107 55.6273 75.2451 68.4777 75.2451Z" fill="#009FE3" stroke="#1B1A1A" stroke-width="3" stroke-miterlimit="10"/>
</svg>
