<svg width="73" height="129" viewBox="0 0 73 129" fill="none" xmlns="http://www.w3.org/2000/svg">
<path d="M64.3541 74.3051C49.8667 55.0198 34.3886 35.5989 47.0132 2C18.9021 37.674 46.1157 58.2636 46.8777 85.8915C47.9446 96.7919 37.2166 104.059 27.1661 101.586C13.3645 98.9516 11.8319 82.5291 21.5184 74.1696C27.4116 68.1307 22.9409 59.6357 20.0451 53.2157C19.698 53.3174 19.7996 53.292 19.4524 53.3936C22.6022 76.6511 -1.94421 73.9409 2.55188 98.4858C2.61115 98.8077 2.67889 99.138 2.75509 99.4683C6.69235 116.738 23.0256 128.29 40.6797 126.884C66.5301 124.818 79.9337 95.0471 64.3541 74.3051Z" fill="#009FE3" stroke="#1B1A1A" stroke-width="3" stroke-miterlimit="10" stroke-linecap="round" stroke-linejoin="round"/>
</svg>
