<svg width="73" height="129" viewBox="0 0 73 129" fill="none" xmlns="http://www.w3.org/2000/svg">
<path d="M8.64594 74.3051C23.1333 55.0198 38.6114 35.5989 25.9868 2C54.0979 37.674 26.8843 58.2636 26.1223 85.8915C25.0554 96.7919 35.7834 104.059 45.8339 101.586C59.6355 98.9516 61.1681 82.5291 51.4816 74.1696C45.5884 68.1307 50.0591 59.6357 52.9549 53.2157C53.302 53.3174 53.2004 53.292 53.5476 53.3936C50.3978 76.6511 74.9442 73.9409 70.4481 98.4858C70.3888 98.8077 70.3211 99.138 70.2449 99.4683C66.3077 116.738 49.9744 128.29 32.3203 126.884C6.46987 124.818 -6.93373 95.0471 8.64594 74.3051Z" fill="#009FE3" stroke="#1B1A1A" stroke-width="3" stroke-miterlimit="10" stroke-linecap="round" stroke-linejoin="round"/>
</svg>
