<svg width="472" height="124" viewBox="0 0 472 124" fill="none" xmlns="http://www.w3.org/2000/svg">
<line x1="61" y1="50" x2="423" y2="50" stroke="#1B1A1A" stroke-width="8"/>
<line x1="61" y1="50" x2="423" y2="50" stroke="#FFDE00" stroke-width="4"/>
<path d="M81.8391 75.3899C81.8391 65.5331 75.5536 59.5106 59.4214 59.5106C66.0744 59.5106 71.5643 66.82 71.5643 75.3899C71.5643 85.2466 76.9158 91.2691 93.048 91.2691C86.395 91.2691 81.8391 83.9597 81.8391 75.3899Z" fill="#E30613" stroke="#1B1A1A" stroke-width="2.5" stroke-miterlimit="10" stroke-linecap="round" stroke-linejoin="round"/>
<path d="M53.8174 75.3899C53.8174 65.5331 60.1028 59.5106 76.2351 59.5106C69.5821 59.5106 64.0922 66.82 64.0922 75.3899C64.0922 85.2466 58.7407 91.2691 42.6085 91.2691C49.2615 91.2691 53.8174 83.9597 53.8174 75.3899Z" fill="#E30613" stroke="#1B1A1A" stroke-width="2.5" stroke-miterlimit="10" stroke-linecap="round" stroke-linejoin="round"/>
<path d="M81.4261 55.9368C90.947 58.4879 95.1375 66.118 90.9622 81.7006C92.6841 75.2742 87.0447 68.0796 78.7668 65.8615C69.2459 63.3104 64.8137 56.5826 68.989 41C67.2671 47.4264 73.1483 53.7188 81.4261 55.9368Z" fill="#FFDE00" stroke="#1B1A1A" stroke-width="2.5" stroke-miterlimit="10" stroke-linecap="round" stroke-linejoin="round"/>
<path d="M54.2392 55.9369C44.7183 58.488 40.5278 66.1181 44.7031 81.7007C42.9812 75.2743 48.6206 68.0797 56.8985 65.8616C66.4193 63.3105 70.8516 56.5827 66.6763 41.0001C68.3982 47.4265 62.517 53.7189 54.2392 55.9369Z" fill="#FFDE00" stroke="#1B1A1A" stroke-width="2.5" stroke-miterlimit="10" stroke-linecap="round" stroke-linejoin="round"/>
<path d="M244.268 47.3778C242.881 42.1986 237.557 39.125 232.378 40.5128C227.198 41.9005 224.125 47.2242 225.513 52.4034C226.9 57.5826 232.224 60.6562 237.403 59.2685C242.582 57.8807 245.656 52.5571 244.268 47.3778Z" fill="#009FE3" stroke="#1B1A1A" stroke-width="2.5" stroke-miterlimit="10" stroke-linecap="round" stroke-linejoin="round"/>
<path d="M77.2685 46.3778C75.8808 41.1986 70.5572 38.125 65.3779 39.5128C60.1987 40.9005 57.1251 46.2242 58.5128 51.4034C59.9006 56.5826 65.2242 59.6562 70.4035 58.2685C75.5827 56.8807 78.6563 51.5571 77.2685 46.3778Z" fill="#009FE3" stroke="#1B1A1A" stroke-width="2.5" stroke-miterlimit="10" stroke-linecap="round" stroke-linejoin="round"/>
<path d="M417 40.6077L435 51L417 61.3923L417 40.6077Z" fill="#FFDE00" stroke="black" stroke-width="2"/>
</svg>
