<svg width="472" height="124" viewBox="0 0 472 124" fill="none" xmlns="http://www.w3.org/2000/svg">
<line x1="61" y1="50" x2="423" y2="50" stroke="#1B1A1A" stroke-width="8"/>
<line x1="61" y1="50" x2="423" y2="50" stroke="#FFDE00" stroke-width="4"/>
<path d="M248.839 77.3899C248.839 67.5331 242.554 61.5106 226.421 61.5106C233.074 61.5106 238.564 68.82 238.564 77.3899C238.564 87.2466 243.916 93.2691 260.048 93.2691C253.395 93.2691 248.839 85.9597 248.839 77.3899Z" fill="#E30613" stroke="#1B1A1A" stroke-width="2.5" stroke-miterlimit="10" stroke-linecap="round" stroke-linejoin="round"/>
<path d="M220.817 77.3899C220.817 67.5331 227.103 61.5106 243.235 61.5106C236.582 61.5106 231.092 68.82 231.092 77.3899C231.092 87.2466 225.741 93.2691 209.608 93.2691C216.262 93.2691 220.817 85.9597 220.817 77.3899Z" fill="#E30613" stroke="#1B1A1A" stroke-width="2.5" stroke-miterlimit="10" stroke-linecap="round" stroke-linejoin="round"/>
<path d="M248.426 55.9368C257.947 58.4879 262.137 66.118 257.962 81.7006C259.684 75.2742 254.045 68.0796 245.767 65.8615C236.246 63.3104 231.814 56.5826 235.989 41C234.267 47.4264 240.148 53.7188 248.426 55.9368Z" fill="#FFDE00" stroke="#1B1A1A" stroke-width="2.5" stroke-miterlimit="10" stroke-linecap="round" stroke-linejoin="round"/>
<path d="M221.239 55.9369C211.718 58.488 207.528 66.1181 211.703 81.7007C209.981 75.2743 215.621 68.0797 223.898 65.8616C233.419 63.3105 237.852 56.5827 233.676 41.0001C235.398 47.4265 229.517 53.7189 221.239 55.9369Z" fill="#FFDE00" stroke="#1B1A1A" stroke-width="2.5" stroke-miterlimit="10" stroke-linecap="round" stroke-linejoin="round"/>
<path d="M244.268 47.3778C242.881 42.1986 237.557 39.125 232.378 40.5128C227.198 41.9005 224.125 47.2242 225.513 52.4034C226.9 57.5826 232.224 60.6562 237.403 59.2685C242.582 57.8807 245.656 52.5571 244.268 47.3778Z" fill="#009FE3" stroke="#1B1A1A" stroke-width="2.5" stroke-miterlimit="10" stroke-linecap="round" stroke-linejoin="round"/>
<path d="M77.2685 46.3778C75.8808 41.1986 70.5572 38.125 65.3779 39.5128C60.1987 40.9005 57.1251 46.2242 58.5128 51.4034C59.9006 56.5826 65.2242 59.6562 70.4035 58.2685C75.5827 56.8807 78.6563 51.5571 77.2685 46.3778Z" fill="#009FE3" stroke="#1B1A1A" stroke-width="2.5" stroke-miterlimit="10" stroke-linecap="round" stroke-linejoin="round"/>
<path d="M417 40.6077L435 51L417 61.3923L417 40.6077Z" fill="#FFDE00" stroke="black" stroke-width="2"/>
</svg>
