<svg width="472" height="124" viewBox="0 0 472 124" fill="none" xmlns="http://www.w3.org/2000/svg">
<line x1="61" y1="50" x2="423" y2="50" stroke="#1B1A1A" stroke-width="8"/>
<line x1="61" y1="50" x2="423" y2="50" stroke="#FFDE00" stroke-width="4"/>
<path d="M434.839 77.3899C434.839 67.5331 428.554 61.5106 412.421 61.5106C419.074 61.5106 424.564 68.82 424.564 77.3899C424.564 87.2466 429.916 93.2691 446.048 93.2691C439.395 93.2691 434.839 85.9597 434.839 77.3899Z" fill="#E30613" stroke="#1B1A1A" stroke-width="2.5" stroke-miterlimit="10" stroke-linecap="round" stroke-linejoin="round"/>
<path d="M406.817 77.3899C406.817 67.5331 413.103 61.5106 429.235 61.5106C422.582 61.5106 417.092 68.82 417.092 77.3899C417.092 87.2466 411.741 93.2691 395.608 93.2691C402.262 93.2691 406.817 85.9597 406.817 77.3899Z" fill="#E30613" stroke="#1B1A1A" stroke-width="2.5" stroke-miterlimit="10" stroke-linecap="round" stroke-linejoin="round"/>
<path d="M434.426 55.9368C443.947 58.4879 448.137 66.118 443.962 81.7006C445.684 75.2742 440.045 68.0796 431.767 65.8615C422.246 63.3104 417.814 56.5826 421.989 41C420.267 47.4264 426.148 53.7188 434.426 55.9368Z" fill="#FFDE00" stroke="#1B1A1A" stroke-width="2.5" stroke-miterlimit="10" stroke-linecap="round" stroke-linejoin="round"/>
<path d="M407.239 55.9369C397.718 58.488 393.528 66.1181 397.703 81.7007C395.981 75.2743 401.621 68.0797 409.898 65.8616C419.419 63.3105 423.852 56.5827 419.676 41.0001C421.398 47.4265 415.517 53.7189 407.239 55.9369Z" fill="#FFDE00" stroke="#1B1A1A" stroke-width="2.5" stroke-miterlimit="10" stroke-linecap="round" stroke-linejoin="round"/>
<path d="M244.268 47.3778C242.881 42.1986 237.557 39.125 232.378 40.5128C227.198 41.9005 224.125 47.2242 225.513 52.4034C226.9 57.5826 232.224 60.6562 237.403 59.2685C242.582 57.8807 245.656 52.5571 244.268 47.3778Z" fill="#009FE3" stroke="#1B1A1A" stroke-width="2.5" stroke-miterlimit="10" stroke-linecap="round" stroke-linejoin="round"/>
<path d="M77.2685 46.3778C75.8808 41.1986 70.5572 38.125 65.3779 39.5128C60.1987 40.9005 57.1251 46.2242 58.5128 51.4034C59.9006 56.5826 65.2242 59.6562 70.4035 58.2685C75.5827 56.8807 78.6563 51.5571 77.2685 46.3778Z" fill="#009FE3" stroke="#1B1A1A" stroke-width="2.5" stroke-miterlimit="10" stroke-linecap="round" stroke-linejoin="round"/>
<path d="M430.268 47.3778C428.881 42.1986 423.557 39.125 418.378 40.5128C413.198 41.9005 410.125 47.2242 411.513 52.4034C412.9 57.5826 418.224 60.6562 423.403 59.2685C428.582 57.8807 431.656 52.5571 430.268 47.3778Z" fill="#009FE3" stroke="#1B1A1A" stroke-width="2.5" stroke-miterlimit="10" stroke-linecap="round" stroke-linejoin="round"/>
</svg>
