<svg width="598" height="546" viewBox="0 0 598 546" fill="none" xmlns="http://www.w3.org/2000/svg">
<path d="M312.097 94.1363L312.097 136.699C306.998 140.757 302.4 142.764 299.381 142.764C296.367 142.764 291.764 140.757 286.666 136.699L286.666 94.1363C268.658 89.3258 255.543 74.5798 255.543 57.1192L255.543 41.8911C255.543 63.2562 275.171 80.5767 299.381 80.5767C323.592 80.5767 343.22 63.2562 343.22 41.8911L343.22 57.1192C343.22 74.5798 330.105 89.3258 312.097 94.1363Z" fill="#FFDE00" stroke="#1B1A1A" stroke-width="3" stroke-miterlimit="10"/>
<path d="M254.953 40.5967C254.953 38.2069 256.855 35.9572 260.206 33.9947C257.936 31.0681 257.126 28.3534 258.137 26.1379C259.191 23.8336 262.093 22.3497 266.289 21.6694C265.359 17.994 265.77 15.0605 267.761 13.3032C269.675 11.6142 272.825 11.2108 276.765 11.9117C277.505 8.42432 279.105 6.00027 281.6 5.06689C284.192 4.09591 287.431 4.85492 290.945 6.99519C293.231 3.81556 295.877 2.00009 298.694 2.00009C301.402 2.00009 303.952 3.6788 306.175 6.6362C309.492 4.63269 312.568 3.91812 315.079 4.81047C317.69 5.74043 319.372 8.30123 320.143 12.004C324.307 11.1834 327.632 11.5458 329.623 13.3032C331.537 14.9921 331.994 17.7718 331.2 21.2488C335.152 21.9019 337.899 23.3139 338.956 25.5157C340.057 27.803 339.197 30.6612 336.771 33.7622C340.374 35.7794 342.432 38.1146 342.432 40.6001C342.432 42.99 340.529 45.2397 337.178 47.2022C339.448 50.1288 340.258 52.8434 339.247 55.0589C338.193 57.3633 335.291 58.8471 331.095 59.5275C332.025 63.2029 331.614 66.1364 329.623 67.8937C327.709 69.5827 324.559 69.9861 320.619 69.2852C319.879 72.7726 318.279 75.1966 315.784 76.13C313.192 77.101 309.953 76.342 306.439 74.2017C304.153 77.3813 301.507 79.1968 298.69 79.1968C295.982 79.1968 293.433 77.5181 291.209 74.5607C287.892 76.5642 284.816 77.2787 282.306 76.3864C279.694 75.4564 278.013 72.8956 277.242 69.1929C273.077 70.0135 269.753 69.651 267.761 67.8937C265.847 66.2047 265.39 63.4251 266.184 59.948C262.233 59.295 259.486 57.883 258.428 55.6812C257.328 53.3939 258.188 50.5356 260.613 47.4346C257.01 45.414 254.953 43.0823 254.953 40.5967Z" fill="#E30613" stroke="#1B1A1A" stroke-width="3" stroke-miterlimit="10"/>
<path d="M391.948 121.865L391.948 151.496C388.399 154.321 385.197 155.718 383.096 155.718C380.998 155.718 377.793 154.321 374.244 151.496L374.244 121.865C361.707 118.516 352.577 108.25 352.577 96.0945L352.577 85.4931C352.577 100.367 366.241 112.425 383.096 112.425C399.951 112.425 413.615 100.367 413.615 85.4931L413.615 96.0945C413.615 108.25 404.485 118.516 391.948 121.865Z" fill="#E30613" stroke="#1B1A1A" stroke-width="3" stroke-miterlimit="10"/>
<path d="M352.578 85.289C352.578 83.6253 353.903 82.0591 356.236 80.6929C354.655 78.6555 354.092 76.7656 354.796 75.2232C355.529 73.619 357.549 72.586 360.471 72.1123C359.823 69.5536 360.109 67.5114 361.495 66.288C362.828 65.1122 365.021 64.8313 367.764 65.3193C368.279 62.8915 369.393 61.2039 371.13 60.5541C372.934 59.8781 375.189 60.4066 377.636 61.8966C379.227 59.683 381.069 58.4191 383.03 58.4191C384.915 58.4191 386.69 59.5878 388.238 61.6466C390.547 60.2518 392.689 59.7544 394.437 60.3756C396.255 61.023 397.425 62.8058 397.962 65.3835C400.861 64.8123 403.176 65.0646 404.562 66.288C405.894 67.4638 406.213 69.3989 405.66 71.8196C408.411 72.2742 410.323 73.2572 411.06 74.79C411.826 76.3824 411.227 78.3722 409.538 80.5311C412.047 81.9354 413.479 83.561 413.479 85.2914C413.479 86.9552 412.155 88.5213 409.822 89.8876C411.402 91.925 411.966 93.8149 411.262 95.3572C410.528 96.9615 408.508 97.9945 405.587 98.4682C406.234 101.027 405.948 103.069 404.562 104.292C403.23 105.468 401.037 105.749 398.294 105.261C397.778 107.689 396.665 109.377 394.928 110.026C393.123 110.702 390.868 110.174 388.422 108.684C386.83 110.897 384.988 112.161 383.027 112.161C381.142 112.161 379.367 110.993 377.819 108.934C375.51 110.329 373.369 110.826 371.621 110.205C369.803 109.557 368.632 107.775 368.096 105.197C365.196 105.768 362.882 105.516 361.495 104.292C360.163 103.117 359.845 101.182 360.398 98.7609C357.647 98.3063 355.734 97.3233 354.998 95.7904C354.232 94.1981 354.831 92.2083 356.519 90.0494C354.011 88.6427 352.578 87.0194 352.578 85.289Z" fill="#009FE3" stroke="#1B1A1A" stroke-width="3" stroke-miterlimit="10"/>
<path d="M223.531 121.865L223.53 151.496C219.981 154.321 216.779 155.718 214.678 155.718C212.58 155.718 209.375 154.321 205.826 151.496L205.826 121.865C193.289 118.516 184.159 108.25 184.159 96.0945L184.159 85.4931C184.159 100.367 197.823 112.425 214.678 112.425C231.533 112.425 245.197 100.367 245.197 85.4931L245.197 96.0945C245.197 108.25 236.067 118.516 223.531 121.865Z" fill="#E30613" stroke="#1B1A1A" stroke-width="3" stroke-miterlimit="10"/>
<path d="M184.162 85.289C184.162 83.6253 185.486 82.0591 187.819 80.6929C186.239 78.6555 185.675 76.7656 186.379 75.2232C187.113 73.619 189.133 72.586 192.054 72.1123C191.407 69.5536 191.693 67.5114 193.079 66.288C194.411 65.1122 196.604 64.8313 199.347 65.3193C199.862 62.8915 200.976 61.2039 202.713 60.5541C204.518 59.8781 206.773 60.4066 209.219 61.8966C210.811 59.683 212.653 58.4191 214.614 58.4191C216.499 58.4191 218.274 59.5878 219.822 61.6466C222.131 60.2518 224.272 59.7544 226.02 60.3756C227.838 61.023 229.009 62.8058 229.545 65.3835C232.445 64.8123 234.759 65.0646 236.146 66.288C237.478 67.4638 237.796 69.3989 237.243 71.8196C239.994 72.2742 241.907 73.2572 242.643 74.79C243.409 76.3824 242.81 78.3722 241.122 80.5311C243.63 81.9354 245.063 83.561 245.063 85.2914C245.063 86.9552 243.738 88.5213 241.405 89.8876C242.986 91.925 243.549 93.8149 242.845 95.3572C242.112 96.9615 240.092 97.9945 237.17 98.4682C237.818 101.027 237.532 103.069 236.145 104.292C234.813 105.468 232.62 105.749 229.877 105.261C229.362 107.689 228.248 109.377 226.511 110.026C224.707 110.702 222.452 110.174 220.005 108.684C218.414 110.897 216.572 112.161 214.611 112.161C212.726 112.161 210.951 110.993 209.403 108.934C207.094 110.329 204.952 110.826 203.204 110.205C201.386 109.557 200.216 107.775 199.679 105.197C196.78 105.768 194.465 105.516 193.079 104.292C191.747 103.117 191.428 101.182 191.981 98.7609C189.23 98.3063 187.318 97.3233 186.581 95.7904C185.815 94.1981 186.414 92.2083 188.103 90.0494C185.594 88.6427 184.162 87.0194 184.162 85.289Z" fill="#009FE3" stroke="#1B1A1A" stroke-width="3" stroke-miterlimit="10"/>
<path d="M534.108 298.021L574.938 258.313C579.156 254.218 579.257 247.474 575.162 243.256C571.066 239.039 564.322 238.938 560.105 243.033L519.275 282.741C515.057 286.836 514.956 293.58 519.051 297.798C523.147 302.022 529.891 302.116 534.108 298.021Z" fill="#009FE3" stroke="#1B1A1A" stroke-width="3" stroke-miterlimit="10"/>
<path d="M472.686 317.108L527.645 302.18C533.324 300.64 536.678 294.796 535.138 289.124C533.597 283.446 527.753 280.092 522.082 281.632L467.123 296.559C461.444 298.099 458.09 303.944 459.631 309.615C461.164 315.294 467.008 318.648 472.686 317.108Z" fill="#E30613" stroke="#1B1A1A" stroke-width="3" stroke-miterlimit="10"/>
<path d="M421.585 343.514L472.161 317.323C477.386 314.624 479.43 308.197 476.731 302.978C474.032 297.753 467.605 295.709 462.387 298.408L411.811 324.599C406.586 327.298 404.542 333.725 407.241 338.943C409.933 344.169 416.36 346.22 421.585 343.514Z" fill="#FFDE00" stroke="#1B1A1A" stroke-width="3" stroke-miterlimit="10"/>
<path d="M527.26 416.023L583.558 424.638C589.366 425.531 594.807 421.543 595.699 415.735C596.592 409.927 592.605 404.486 586.796 403.593L530.499 394.978C524.691 394.086 519.25 398.073 518.357 403.881C517.458 409.689 521.445 415.131 527.26 416.023Z" fill="#009FE3" stroke="#1B1A1A" stroke-width="3" stroke-miterlimit="10"/>
<path d="M471.553 392.904L524.057 414.979C529.477 417.26 535.717 414.719 538.005 409.3C540.287 403.88 537.746 397.64 532.327 395.351L479.822 373.277C474.403 370.996 468.163 373.536 465.874 378.956C463.592 384.376 466.133 390.623 471.553 392.904Z" fill="#E30613" stroke="#1B1A1A" stroke-width="3" stroke-miterlimit="10"/>
<path d="M415.946 375.408L470.228 392.646C475.828 394.431 481.823 391.336 483.601 385.729C485.386 380.13 482.291 374.134 476.684 372.357L422.402 355.119C416.803 353.334 410.815 356.429 409.03 362.036C407.245 367.635 410.34 373.623 415.946 375.408Z" fill="#FFDE00" stroke="#1B1A1A" stroke-width="3" stroke-miterlimit="10"/>
<path d="M485.829 486.281L509.983 537.857C512.473 543.183 518.807 545.486 524.133 542.995C529.459 540.505 531.762 534.172 529.272 528.846L505.117 477.27C502.627 471.944 496.293 469.64 490.967 472.131C485.641 474.614 483.338 480.955 485.829 486.281Z" fill="#009FE3" stroke="#1B1A1A" stroke-width="3" stroke-miterlimit="10"/>
<path d="M438.026 438.377L487.032 488.088C491.149 492.292 497.886 492.364 502.089 488.247C506.292 484.13 506.364 477.393 502.247 473.19L453.241 423.478C449.124 419.275 442.387 419.203 438.184 423.32C433.981 427.437 433.909 434.173 438.026 438.377Z" fill="#E30613" stroke="#1B1A1A" stroke-width="3" stroke-miterlimit="10"/>
<path d="M400.995 392.694L436.953 436.864C440.66 441.427 447.368 442.118 451.931 438.412C456.494 434.705 457.185 427.997 453.478 423.434L417.52 379.264C413.814 374.701 407.106 374.01 402.543 377.717C397.98 381.423 397.289 388.131 400.995 392.694Z" fill="#FFDE00" stroke="#1B1A1A" stroke-width="3" stroke-miterlimit="10"/>
<path d="M487.242 203.492L479.742 147.037C478.972 141.207 473.624 137.104 467.795 137.874C461.965 138.645 457.862 143.992 458.632 149.822L466.132 206.278C466.902 212.107 472.25 216.21 478.08 215.44C483.909 214.67 488.012 209.322 487.242 203.492Z" fill="#009FE3" stroke="#1B1A1A" stroke-width="3" stroke-miterlimit="10"/>
<path d="M455.752 260.725L485.729 212.301C488.831 207.307 487.29 200.743 482.288 197.641C477.293 194.538 470.729 196.079 467.627 201.081L437.651 249.504C434.549 254.499 436.089 261.063 441.091 264.165C446.093 267.26 452.657 265.727 455.752 260.725Z" fill="#E30613" stroke="#1B1A1A" stroke-width="3" stroke-miterlimit="10"/>
<path d="M432.419 313.797L455.364 261.667C457.739 256.291 455.299 250.001 449.922 247.625C444.546 245.25 438.256 247.69 435.881 253.067L412.935 305.197C410.56 310.573 413 316.864 418.377 319.239C423.76 321.614 430.043 319.181 432.419 313.797Z" fill="#FFDE00" stroke="#1B1A1A" stroke-width="3" stroke-miterlimit="10"/>
<path d="M46.2489 306.484L5.41855 266.777C1.20093 262.682 1.10017 255.938 5.19544 251.72C9.2907 247.502 16.0346 247.402 20.2522 251.497L61.0825 291.205C65.3002 295.3 65.4009 302.044 61.3057 306.261C57.2104 310.479 50.4737 310.58 46.2489 306.484Z" fill="#009FE3" stroke="#1B1A1A" stroke-width="3" stroke-miterlimit="10"/>
<path d="M110.966 328.522L56.0077 313.595C50.3291 312.055 46.9751 306.21 48.5153 300.539C50.0556 294.86 55.8998 291.506 61.5713 293.047L116.53 307.974C122.209 309.514 125.563 315.358 124.022 321.03C122.489 326.701 116.645 330.055 110.966 328.522Z" fill="#E30613" stroke="#1B1A1A" stroke-width="3" stroke-miterlimit="10"/>
<path d="M160.634 354.029L110.059 327.838C104.834 325.139 102.79 318.712 105.489 313.494C108.187 308.269 114.615 306.225 119.833 308.924L170.408 335.115C175.633 337.814 177.678 344.241 174.979 349.459C172.28 354.684 165.86 356.728 160.634 354.029Z" fill="#FFDE00" stroke="#1B1A1A" stroke-width="3" stroke-miterlimit="10"/>
<path d="M70.0714 433.156L13.1839 435.963C7.31089 436.259 2.30875 431.739 2.01366 425.866C1.71858 419.993 6.23849 414.99 12.1115 414.695L68.999 411.888C74.872 411.593 79.8742 416.113 80.1692 421.986C80.4643 427.866 75.9444 432.861 70.0714 433.156Z" fill="#009FE3" stroke="#1B1A1A" stroke-width="3" stroke-miterlimit="10"/>
<path d="M123.216 400.387L75.2599 431.113C70.3081 434.287 63.7226 432.854 60.5486 427.903C57.3745 422.951 58.8068 416.365 63.7586 413.191L111.714 382.466C116.666 379.292 123.252 380.724 126.426 385.676C129.6 390.621 128.167 397.213 123.216 400.387Z" fill="#E30613" stroke="#1B1A1A" stroke-width="3" stroke-miterlimit="10"/>
<path d="M176.355 383.157L122.073 400.394C116.473 402.179 110.478 399.084 108.7 393.478C106.915 387.878 110.01 381.883 115.617 380.105L169.899 362.868C175.498 361.083 181.486 364.177 183.271 369.784C185.049 375.384 181.954 381.372 176.355 383.157Z" fill="#FFDE00" stroke="#1B1A1A" stroke-width="3" stroke-miterlimit="10"/>
<path d="M96.4712 479.248L72.317 530.824C69.8268 536.15 63.4931 538.454 58.1671 535.963C52.8411 533.473 50.538 527.139 53.0282 521.813L77.1824 470.237C79.6727 464.911 86.0063 462.608 91.3323 465.099C96.6583 467.582 98.9615 473.922 96.4712 479.248Z" fill="#009FE3" stroke="#1B1A1A" stroke-width="3" stroke-miterlimit="10"/>
<path d="M152.805 447.594L92.4552 482.674C87.3811 485.647 80.8603 483.941 77.8879 478.867C74.9154 473.793 76.6211 467.272 81.6952 464.299L142.045 429.22C147.119 426.247 153.64 427.953 156.612 433.027C159.585 438.101 157.879 444.622 152.805 447.594Z" fill="#E30613" stroke="#1B1A1A" stroke-width="3" stroke-miterlimit="10"/>
<path d="M188.863 398.264L156.828 445.356C153.524 450.221 146.903 451.488 142.037 448.184C137.172 444.881 135.905 438.259 139.209 433.394L171.244 386.302C174.548 381.436 181.169 380.17 186.035 383.473C190.9 386.777 192.167 393.398 188.863 398.264Z" fill="#FFDE00" stroke="#1B1A1A" stroke-width="3" stroke-miterlimit="10"/>
<path d="M105.324 213.02L102.705 156.125C102.431 150.252 106.965 145.265 112.838 144.991C118.711 144.718 123.699 149.252 123.973 155.125L126.592 212.02C126.866 217.893 122.332 222.881 116.459 223.154C110.586 223.428 105.598 218.893 105.324 213.02Z" fill="#009FE3" stroke="#1B1A1A" stroke-width="3" stroke-miterlimit="10"/>
<path d="M123.619 273.21L106.554 218.871C104.791 213.264 107.9 207.283 113.514 205.52C119.121 203.756 125.102 206.866 126.865 212.48L143.93 266.819C145.693 272.426 142.584 278.407 136.97 280.17C131.363 281.934 125.39 278.817 123.619 273.21Z" fill="#E30613" stroke="#1B1A1A" stroke-width="3" stroke-miterlimit="10"/>
<path d="M159.305 324.629L125.514 278.783C122.023 274.054 123.023 267.389 127.752 263.891C132.481 260.401 139.145 261.401 142.643 266.13L176.435 311.977C179.925 316.705 178.925 323.37 174.196 326.868C169.468 330.358 162.796 329.358 159.305 324.629Z" fill="#FFDE00" stroke="#1B1A1A" stroke-width="3" stroke-miterlimit="10"/>
<path d="M434.62 321V359.304C434.62 363.356 431.338 366.645 427.279 366.645H170.263C166.211 366.645 162.922 363.363 162.922 359.304V321C162.922 316.948 166.204 313.658 170.263 313.658H427.286C431.338 313.658 434.62 316.948 434.62 321Z" fill="#E30613" stroke="#1B1A1A" stroke-width="3" stroke-miterlimit="10"/>
<path d="M434.619 373.985V529.21C434.619 537.019 428.293 543.345 420.484 543.345H177.064C169.255 543.345 162.928 537.019 162.928 529.21V373.985C162.928 369.933 166.21 366.644 170.269 366.644H427.293C431.337 366.644 434.619 369.933 434.619 373.985Z" fill="#009FE3" stroke="#1B1A1A" stroke-width="3" stroke-miterlimit="10"/>
<path d="M413.582 340.316C426.43 340.316 432.497 342.476 432.497 363.348C432.497 384.22 420.47 464.751 420.47 524.956H176.791C176.791 464.743 164.764 384.22 164.764 363.348C164.764 342.476 170.831 340.316 183.679 340.316H413.582Z" fill="#FFFBF1" stroke="#1B1A1A" stroke-width="3" stroke-miterlimit="10"/>
<path d="M162.921 306.324V151.1C162.921 143.291 169.247 136.965 177.056 136.965H420.484C428.293 136.965 434.619 143.291 434.619 151.1V306.324C434.619 310.377 431.337 313.666 427.278 313.666H170.262C166.21 313.659 162.921 310.377 162.921 306.324Z" fill="#009FE3" stroke="#1B1A1A" stroke-width="3" stroke-miterlimit="10"/>
<path d="M183.994 340.317C171.147 340.317 165.08 338.158 165.08 317.286C165.08 296.414 177.106 215.883 177.106 155.677H420.786C420.786 215.89 432.812 296.414 432.812 317.286C432.812 338.158 426.745 340.317 413.898 340.317H183.994Z" fill="#FFFBF1" stroke="#1B1A1A" stroke-width="3" stroke-miterlimit="10"/>
<path d="M227.494 198.965H237.439C236.719 197.84 236.449 196.22 236.449 194.915V188.3C244.909 188.3 249.364 183.935 249.364 179.03C249.364 174.98 245.584 171.155 237.844 171.155C234.289 171.155 231.049 171.29 227.494 171.29C228.214 172.46 228.484 174.035 228.484 175.34V194.915C228.484 196.22 228.214 197.84 227.494 198.965ZM236.449 173C240.049 173 241.939 176.375 241.939 179.795C241.939 183.215 240.094 186.635 236.449 186.635V173ZM261.014 181.235L266.414 185.87L267.269 179.57C265.514 179.57 264.344 179.435 262.589 179.435C260.339 179.435 257.864 181.19 257.864 186.5H257.369V179.57L250.169 180.74C250.889 181.91 251.159 183.485 251.159 184.79V194.915C251.159 196.22 250.889 197.84 250.169 198.965H259.844C259.214 197.705 259.124 196.22 259.124 194.915V186.23C259.124 183.665 259.979 181.91 261.014 181.235ZM286.423 190.82C287.458 185.015 284.758 179.435 277.963 179.435C270.853 179.435 267.298 183.98 267.298 189.245C267.298 194.15 270.853 199.1 278.773 199.1C280.663 199.1 283.408 198.965 285.298 198.965L285.973 193.25C284.353 195.86 282.553 196.985 280.708 196.985C277.738 196.985 275.488 194.465 274.948 190.82H286.423ZM280.528 188.885H274.723C274.723 184.565 276.388 181.235 278.098 181.235C280.798 181.235 280.843 186.68 280.528 188.885ZM300.745 197.345C298.495 197.345 297.19 192.98 297.19 188.795C297.19 184.88 297.91 181.145 299.755 181.145C301.825 181.145 303.175 186.095 303.175 190.505C303.175 194.105 302.5 197.345 300.745 197.345ZM295.525 179.57L287.875 180.74C288.595 181.91 288.865 183.485 288.865 184.79V203.06C288.865 204.365 288.595 205.94 287.875 207.11H297.82C297.1 205.94 296.83 204.365 296.83 203.06V195.815C297.82 197.84 299.485 199.1 302.14 199.1C307.72 199.1 310.6 194.645 310.6 189.2C310.6 183.485 307.045 179.3 301.735 179.3C298.765 179.3 296.29 180.83 295.975 186.5H295.525V179.57ZM323.387 179.435C320.057 179.435 316.862 179.57 313.487 179.57V185.87L320.282 181.28C322.487 182.045 324.107 184.205 324.107 187.355C319.742 187.355 311.507 187.85 311.507 193.925C311.507 197.57 315.107 199.1 318.482 199.1C322.937 199.1 324.557 196.04 324.962 192.035H325.412V198.965H332.882C332.162 197.84 331.892 196.22 331.892 194.915V187.13C331.892 182.36 327.572 179.435 323.387 179.435ZM324.107 188.615C324.107 190.955 323.702 197.3 320.597 197.3C319.562 197.3 318.797 196.13 318.797 194.78C318.797 191 321.587 188.615 324.107 188.615ZM344.73 181.235L350.13 185.87L350.985 179.57C349.23 179.57 348.06 179.435 346.305 179.435C344.055 179.435 341.58 181.19 341.58 186.5H341.085V179.57L333.885 180.74C334.605 181.91 334.875 183.485 334.875 184.79V194.915C334.875 196.22 334.605 197.84 333.885 198.965H343.56C342.93 197.705 342.84 196.22 342.84 194.915V186.23C342.84 183.665 343.695 181.91 344.73 181.235ZM370.138 190.82C371.173 185.015 368.473 179.435 361.678 179.435C354.568 179.435 351.013 183.98 351.013 189.245C351.013 194.15 354.568 199.1 362.488 199.1C364.378 199.1 367.123 198.965 369.013 198.965L369.688 193.25C368.068 195.86 366.268 196.985 364.423 196.985C361.453 196.985 359.203 194.465 358.663 190.82H370.138ZM364.243 188.885H358.438C358.438 184.565 360.103 181.235 361.813 181.235C364.513 181.235 364.558 186.68 364.243 188.885ZM237.745 250.965L238.555 245.25C237.025 247.77 234.415 249.3 232.615 249.3V248.895C234.145 248.535 235.675 247.275 235.675 244.125V233.505L238.555 233.775V231.57H235.675V225.9H234.73C233.425 229.32 230.68 231.57 226.36 231.57V233.505H227.665V244.665C227.665 248.67 230.275 251.1 233.65 251.1C234.91 251.1 236.485 250.965 237.745 250.965ZM260.081 241.29C260.081 236.34 256.481 231.435 249.506 231.435C242.531 231.435 238.931 236.34 238.931 241.29C238.931 246.195 242.531 251.1 249.506 251.1C256.481 251.1 260.081 246.195 260.081 241.29ZM248.741 233.235C251.711 233.235 252.656 240.975 252.701 243.135C252.746 244.62 252.611 249.3 250.406 249.3C247.346 249.3 246.356 241.83 246.311 239.625C246.266 238.05 246.356 233.235 248.741 233.235ZM281.295 233.235L286.695 237.87L287.55 231.57C285.795 231.57 284.625 231.435 282.87 231.435C280.62 231.435 278.145 233.19 278.145 238.5H277.65V231.57L270.45 232.74C271.17 233.91 271.44 235.485 271.44 236.79V246.915C271.44 248.22 271.17 249.84 270.45 250.965H280.125C279.495 249.705 279.405 248.22 279.405 246.915V238.23C279.405 235.665 280.26 233.91 281.295 233.235ZM306.703 242.82C307.738 237.015 305.038 231.435 298.243 231.435C291.133 231.435 287.578 235.98 287.578 241.245C287.578 246.15 291.133 251.1 299.053 251.1C300.943 251.1 303.688 250.965 305.578 250.965L306.253 245.25C304.633 247.86 302.833 248.985 300.988 248.985C298.018 248.985 295.768 246.465 295.228 242.82H306.703ZM300.808 240.885H295.003C295.003 236.565 296.668 233.235 298.378 233.235C301.078 233.235 301.123 238.68 300.808 240.885ZM313.614 250.965H321.579C321.579 248.355 327.069 233.55 328.869 231.57H323.334C323.919 233.82 320.364 243.27 319.779 247.14H319.419C318.834 243.27 315.414 233.82 315.999 231.57H306.324C308.079 233.325 313.614 248.445 313.614 250.965ZM346.738 242.82C347.773 237.015 345.073 231.435 338.278 231.435C331.168 231.435 327.613 235.98 327.613 241.245C327.613 246.15 331.168 251.1 339.088 251.1C340.978 251.1 343.723 250.965 345.613 250.965L346.288 245.25C344.668 247.86 342.868 248.985 341.023 248.985C338.053 248.985 335.803 246.465 335.263 242.82H346.738ZM340.843 240.885H335.038C335.038 236.565 336.703 233.235 338.413 233.235C341.113 233.235 341.158 238.68 340.843 240.885ZM359.971 231.435C356.641 231.435 353.446 231.57 350.071 231.57V237.87L356.866 233.28C359.071 234.045 360.691 236.205 360.691 239.355C356.326 239.355 348.091 239.85 348.091 245.925C348.091 249.57 351.691 251.1 355.066 251.1C359.521 251.1 361.141 248.04 361.546 244.035H361.996V250.965H369.466C368.746 249.84 368.476 248.22 368.476 246.915V239.13C368.476 234.36 364.156 231.435 359.971 231.435ZM360.691 240.615C360.691 242.955 360.286 249.3 357.181 249.3C356.146 249.3 355.381 248.13 355.381 246.78C355.381 243 358.171 240.615 360.691 240.615ZM370.47 250.965H380.415C379.695 249.84 379.425 248.22 379.425 246.915V223.29L370.47 224.46C371.19 225.63 371.46 227.205 371.46 228.51V246.915C371.46 248.22 371.19 249.84 370.47 250.965ZM187.043 288.79V298.915C187.043 300.22 186.773 301.84 186.053 302.965H195.998C195.278 301.84 195.008 300.22 195.008 298.915V283.57L186.053 284.74C186.773 285.91 187.043 287.485 187.043 288.79ZM186.548 277.855C188.258 279.25 189.608 280.6 191.003 282.355C192.443 280.6 193.793 279.25 195.503 277.855C193.793 276.46 192.443 275.11 191.003 273.355C189.608 275.11 188.258 276.46 186.548 277.855ZM218.632 298.915V288.43C218.632 286.765 219.622 285.235 220.927 285.235C222.187 285.235 223.132 286.135 223.132 288.565V298.915C223.132 300.22 223.312 301.705 223.942 302.965H232.087C231.367 301.84 231.097 300.22 231.097 298.915V290.32C231.097 285.325 227.587 283.3 223.492 283.3C220.162 283.3 218.407 284.56 217.597 286.585C216.202 284.425 213.997 283.3 211.027 283.3C208.012 283.3 205.177 285.19 205.177 290.5H204.682V283.57L197.347 284.74C198.067 285.91 198.337 287.485 198.337 288.79V298.915C198.337 300.22 198.067 301.84 197.347 302.965H207.022C206.392 301.705 206.302 300.22 206.302 298.915V290.5C206.302 287.53 207.337 285.235 208.957 285.235C210.037 285.235 210.802 286.54 210.802 288.835V298.915C210.802 300.22 210.757 301.75 210.082 302.965H219.352C218.722 301.705 218.632 300.22 218.632 298.915ZM244.856 283.435C241.526 283.435 238.331 283.57 234.956 283.57V289.87L241.751 285.28C243.956 286.045 245.576 288.205 245.576 291.355C241.211 291.355 232.976 291.85 232.976 297.925C232.976 301.57 236.576 303.1 239.951 303.1C244.406 303.1 246.026 300.04 246.431 296.035H246.881V302.965H254.351C253.631 301.84 253.361 300.22 253.361 298.915V291.13C253.361 286.36 249.041 283.435 244.856 283.435ZM245.576 292.615C245.576 294.955 245.171 301.3 242.066 301.3C241.031 301.3 240.266 300.13 240.266 298.78C240.266 295 243.056 292.615 245.576 292.615ZM275.417 291.67C275.417 287.395 271.727 284.92 268.622 284.92V284.605H274.607L274.157 279.925L266.867 283.48C266.462 283.435 266.057 283.435 265.607 283.435C259.082 283.435 255.842 287.665 255.842 291.67C255.842 294.28 257.237 296.935 260.027 298.465L255.257 301.75C255.257 303.73 256.652 305.08 258.407 305.575V311.11H265.337C273.032 311.11 275.957 307.825 275.957 304.855C275.957 302.47 274.067 300.31 270.782 300.31C268.307 300.31 264.707 301.21 262.097 301.21C260.837 301.21 259.667 300.85 259.667 300.265L261.422 299.095C262.637 299.5 264.032 299.77 265.607 299.77C272.177 299.77 275.417 295.63 275.417 291.67ZM264.392 309.4L258.902 305.575C261.782 306.25 264.122 305.17 266.597 305.17C267.947 305.17 268.622 305.8 268.622 306.565C268.622 307.96 267.362 309.4 264.392 309.4ZM263.177 291.715C262.997 288.61 263.717 285.37 265.292 285.37C266.822 285.37 267.902 288.61 268.082 291.715C268.262 294.82 267.542 298.06 265.967 298.06C264.437 298.06 263.357 294.82 263.177 291.715ZM277.175 288.79V298.915C277.175 300.22 276.905 301.84 276.185 302.965H286.13C285.41 301.84 285.14 300.22 285.14 298.915V283.57L276.185 284.74C276.905 285.91 277.175 287.485 277.175 288.79ZM276.68 277.855C278.39 279.25 279.74 280.6 281.135 282.355C282.575 280.6 283.925 279.25 285.635 277.855C283.925 276.46 282.575 275.11 281.135 273.355C279.74 275.11 278.39 276.46 276.68 277.855ZM299.089 285.235C300.169 285.235 300.799 286.405 300.799 288.835V298.915C300.799 300.22 300.979 301.705 301.609 302.965H309.754C309.034 301.84 308.764 300.22 308.764 298.915V290.32C308.764 284.965 304.849 283.3 301.159 283.3C298.144 283.3 295.309 284.875 295.309 290.5H294.814V283.57L287.479 284.74C288.199 285.91 288.469 287.485 288.469 288.79V298.915C288.469 300.22 288.199 301.84 287.479 302.965H297.154C296.524 301.705 296.434 300.22 296.434 298.915V290.5C296.434 287.62 297.334 285.235 299.089 285.235ZM322.552 283.435C319.222 283.435 316.027 283.57 312.652 283.57V289.87L319.447 285.28C321.652 286.045 323.272 288.205 323.272 291.355C318.907 291.355 310.672 291.85 310.672 297.925C310.672 301.57 314.272 303.1 317.647 303.1C322.102 303.1 323.722 300.04 324.127 296.035H324.577V302.965H332.047C331.327 301.84 331.057 300.22 331.057 298.915V291.13C331.057 286.36 326.737 283.435 322.552 283.435ZM323.272 292.615C323.272 294.955 322.867 301.3 319.762 301.3C318.727 301.3 317.962 300.13 317.962 298.78C317.962 295 320.752 292.615 323.272 292.615ZM343.676 302.965L344.486 297.25C342.956 299.77 340.346 301.3 338.546 301.3V300.895C340.076 300.535 341.606 299.275 341.606 296.125V285.505L344.486 285.775V283.57H341.606V277.9H340.661C339.356 281.32 336.611 283.57 332.291 283.57V285.505H333.596V296.665C333.596 300.67 336.206 303.1 339.581 303.1C340.841 303.1 342.416 302.965 343.676 302.965ZM346.828 288.79V298.915C346.828 300.22 346.558 301.84 345.838 302.965H355.783C355.063 301.84 354.793 300.22 354.793 298.915V283.57L345.838 284.74C346.558 285.91 346.828 287.485 346.828 288.79ZM346.333 277.855C348.043 279.25 349.393 280.6 350.788 282.355C352.228 280.6 353.578 279.25 355.288 277.855C353.578 276.46 352.228 275.11 350.788 273.355C349.393 275.11 348.043 276.46 346.333 277.855ZM377.832 293.29C377.832 288.34 374.232 283.435 367.257 283.435C360.282 283.435 356.682 288.34 356.682 293.29C356.682 298.195 360.282 303.1 367.257 303.1C374.232 303.1 377.832 298.195 377.832 293.29ZM366.492 285.235C369.462 285.235 370.407 292.975 370.452 295.135C370.497 296.62 370.362 301.3 368.157 301.3C365.097 301.3 364.107 293.83 364.062 291.625C364.017 290.05 364.107 285.235 366.492 285.235ZM390.363 285.235C391.443 285.235 392.073 286.405 392.073 288.835V298.915C392.073 300.22 392.253 301.705 392.883 302.965H401.028C400.308 301.84 400.038 300.22 400.038 298.915V290.32C400.038 284.965 396.123 283.3 392.433 283.3C389.418 283.3 386.583 284.875 386.583 290.5H386.088V283.57L378.753 284.74C379.473 285.91 379.743 287.485 379.743 288.79V298.915C379.743 300.22 379.473 301.84 378.753 302.965H388.428C387.798 301.705 387.708 300.22 387.708 298.915V290.5C387.708 287.62 388.608 285.235 390.363 285.235ZM407.121 295.36C405.006 295.36 403.296 297.07 403.296 299.185C403.296 301.255 405.006 302.965 407.121 302.965C409.191 302.965 410.901 301.255 410.901 299.185C410.901 297.07 409.191 295.36 407.121 295.36Z" fill="#1B1A1A"/>
<path d="M223.493 395H233.438C232.718 393.875 232.448 392.255 232.448 390.95V384.335C240.908 384.335 245.363 379.97 245.363 375.065C245.363 371.015 241.583 367.19 233.843 367.19C230.288 367.19 227.048 367.325 223.493 367.325C224.213 368.495 224.483 370.07 224.483 371.375V390.95C224.483 392.255 224.213 393.875 223.493 395ZM232.448 369.035C236.048 369.035 237.938 372.41 237.938 375.83C237.938 379.25 236.093 382.67 232.448 382.67V369.035ZM257.014 377.27L262.414 381.905L263.269 375.605C261.514 375.605 260.344 375.47 258.589 375.47C256.339 375.47 253.864 377.225 253.864 382.535H253.369V375.605L246.169 376.775C246.889 377.945 247.159 379.52 247.159 380.825V390.95C247.159 392.255 246.889 393.875 246.169 395H255.844C255.214 393.74 255.124 392.255 255.124 390.95V382.265C255.124 379.7 255.979 377.945 257.014 377.27ZM282.422 386.855C283.457 381.05 280.757 375.47 273.962 375.47C266.852 375.47 263.297 380.015 263.297 385.28C263.297 390.185 266.852 395.135 274.772 395.135C276.662 395.135 279.407 395 281.297 395L281.972 389.285C280.352 391.895 278.552 393.02 276.707 393.02C273.737 393.02 271.487 390.5 270.947 386.855H282.422ZM276.527 384.92H270.722C270.722 380.6 272.387 377.27 274.097 377.27C276.797 377.27 276.842 382.715 276.527 384.92ZM296.744 393.38C294.494 393.38 293.189 389.015 293.189 384.83C293.189 380.915 293.909 377.18 295.754 377.18C297.824 377.18 299.174 382.13 299.174 386.54C299.174 390.14 298.499 393.38 296.744 393.38ZM291.524 375.605L283.874 376.775C284.594 377.945 284.864 379.52 284.864 380.825V399.095C284.864 400.4 284.594 401.975 283.874 403.145H293.819C293.099 401.975 292.829 400.4 292.829 399.095V391.85C293.819 393.875 295.484 395.135 298.139 395.135C303.719 395.135 306.599 390.68 306.599 385.235C306.599 379.52 303.044 375.335 297.734 375.335C294.764 375.335 292.289 376.865 291.974 382.535H291.524V375.605ZM319.386 375.47C316.056 375.47 312.861 375.605 309.486 375.605V381.905L316.281 377.315C318.486 378.08 320.106 380.24 320.106 383.39C315.741 383.39 307.506 383.885 307.506 389.96C307.506 393.605 311.106 395.135 314.481 395.135C318.936 395.135 320.556 392.075 320.961 388.07H321.411V395H328.881C328.161 393.875 327.891 392.255 327.891 390.95V383.165C327.891 378.395 323.571 375.47 319.386 375.47ZM320.106 384.65C320.106 386.99 319.701 393.335 316.596 393.335C315.561 393.335 314.796 392.165 314.796 390.815C314.796 387.035 317.586 384.65 320.106 384.65ZM340.73 377.27L346.13 381.905L346.985 375.605C345.23 375.605 344.06 375.47 342.305 375.47C340.055 375.47 337.58 377.225 337.58 382.535H337.085V375.605L329.885 376.775C330.605 377.945 330.875 379.52 330.875 380.825V390.95C330.875 392.255 330.605 393.875 329.885 395H339.56C338.93 393.74 338.84 392.255 338.84 390.95V382.265C338.84 379.7 339.695 377.945 340.73 377.27ZM366.138 386.855C367.173 381.05 364.473 375.47 357.678 375.47C350.568 375.47 347.013 380.015 347.013 385.28C347.013 390.185 350.568 395.135 358.488 395.135C360.378 395.135 363.123 395 365.013 395L365.688 389.285C364.068 391.895 362.268 393.02 360.423 393.02C357.453 393.02 355.203 390.5 354.663 386.855H366.138ZM360.243 384.92H354.438C354.438 380.6 356.103 377.27 357.813 377.27C360.513 377.27 360.558 382.715 360.243 384.92ZM266.924 447L267.734 441.285C266.204 443.805 263.594 445.335 261.794 445.335V444.93C263.324 444.57 264.854 443.31 264.854 440.16V429.54L267.734 429.81V427.605H264.854V421.935H263.909C262.604 425.355 259.859 427.605 255.539 427.605V429.54H256.844V440.7C256.844 444.705 259.454 447.135 262.829 447.135C264.089 447.135 265.664 447 266.924 447ZM289.259 437.325C289.259 432.375 285.659 427.47 278.684 427.47C271.709 427.47 268.109 432.375 268.109 437.325C268.109 442.23 271.709 447.135 278.684 447.135C285.659 447.135 289.259 442.23 289.259 437.325ZM277.919 429.27C280.889 429.27 281.834 437.01 281.879 439.17C281.924 440.655 281.789 445.335 279.584 445.335C276.524 445.335 275.534 437.865 275.489 435.66C275.444 434.085 275.534 429.27 277.919 429.27ZM300.619 424.545V442.95C300.619 444.255 300.349 445.875 299.629 447H308.584V443.85C309.664 446.055 311.554 447.135 313.939 447.135C318.529 447.135 322.309 443.4 322.309 437.235C322.309 431.925 318.664 427.335 313.174 427.335C310.114 427.335 307.729 429.315 307.729 434.535H307.234V419.325L299.629 420.495C300.349 421.665 300.619 423.24 300.619 424.545ZM311.104 429.27C314.074 429.27 314.884 436.875 314.884 439.035C314.884 442.365 314.119 445.38 312.454 445.38C310.069 445.38 308.584 440.115 308.584 435.66C308.584 433.5 308.944 429.27 311.104 429.27ZM342.561 438.855C343.596 433.05 340.896 427.47 334.101 427.47C326.991 427.47 323.436 432.015 323.436 437.28C323.436 442.185 326.991 447.135 334.911 447.135C336.801 447.135 339.546 447 341.436 447L342.111 441.285C340.491 443.895 338.691 445.02 336.846 445.02C333.876 445.02 331.626 442.5 331.086 438.855H342.561ZM336.666 436.92H330.861C330.861 432.6 332.526 429.27 334.236 429.27C336.936 429.27 336.981 434.715 336.666 436.92ZM207.998 479.47C199.898 479.47 196.478 484.42 196.478 489.28C196.478 494.185 200.033 499.135 207.953 499.135C209.843 499.135 211.733 499 213.623 499L214.298 493.285C212.948 495.67 211.283 497.02 209.528 497.02C206.378 497.02 203.903 493.555 203.903 488.83C203.903 485.05 205.118 481.99 207.818 481.27L213.308 485.905L214.163 479.605C212.183 479.605 209.933 479.47 207.998 479.47ZM224.384 486.535C224.384 483.16 225.734 481.27 226.859 481.27C227.714 481.27 229.154 481.99 229.154 484.6V494.95C229.154 496.255 229.334 497.74 229.964 499H238.109C237.389 497.875 237.164 496.255 237.164 494.95V486.355C237.164 481.18 233.159 479.335 229.334 479.335C226.184 479.335 223.394 481.315 223.394 486.535H222.899V471.325L215.429 472.495C216.149 473.665 216.419 475.24 216.419 476.545V494.95C216.419 496.255 216.149 497.875 215.429 499H225.104C224.474 497.74 224.384 496.255 224.384 494.95V486.535ZM250.897 479.47C247.567 479.47 244.372 479.605 240.997 479.605V485.905L247.792 481.315C249.997 482.08 251.617 484.24 251.617 487.39C247.252 487.39 239.017 487.885 239.017 493.96C239.017 497.605 242.617 499.135 245.992 499.135C250.447 499.135 252.067 496.075 252.472 492.07H252.922V499H260.392C259.672 497.875 259.402 496.255 259.402 494.95V487.165C259.402 482.395 255.082 479.47 250.897 479.47ZM251.617 488.65C251.617 490.99 251.212 497.335 248.107 497.335C247.072 497.335 246.307 496.165 246.307 494.815C246.307 491.035 249.097 488.65 251.617 488.65ZM261.396 499H271.341C270.621 497.875 270.351 496.255 270.351 494.95V471.325L261.396 472.495C262.116 473.665 262.386 475.24 262.386 476.545V494.95C262.386 496.255 262.116 497.875 261.396 499ZM272.47 499H282.415C281.695 497.875 281.425 496.255 281.425 494.95V471.325L272.47 472.495C273.19 473.665 273.46 475.24 273.46 476.545V494.95C273.46 496.255 273.19 497.875 272.47 499ZM302.22 490.855C303.255 485.05 300.555 479.47 293.76 479.47C286.65 479.47 283.095 484.015 283.095 489.28C283.095 494.185 286.65 499.135 294.57 499.135C296.46 499.135 299.205 499 301.095 499L301.77 493.285C300.15 495.895 298.35 497.02 296.505 497.02C293.535 497.02 291.285 494.5 290.745 490.855H302.22ZM296.325 488.92H290.52C290.52 484.6 292.185 481.27 293.895 481.27C296.595 481.27 296.64 486.715 296.325 488.92ZM315.413 481.27C316.493 481.27 317.123 482.44 317.123 484.87V494.95C317.123 496.255 317.303 497.74 317.933 499H326.078C325.358 497.875 325.088 496.255 325.088 494.95V486.355C325.088 481 321.173 479.335 317.483 479.335C314.468 479.335 311.633 480.91 311.633 486.535H311.138V479.605L303.803 480.775C304.523 481.945 304.793 483.52 304.793 484.825V494.95C304.793 496.255 304.523 497.875 303.803 499H313.478C312.848 497.74 312.758 496.255 312.758 494.95V486.535C312.758 483.655 313.658 481.27 315.413 481.27ZM346.936 487.705C346.936 483.43 343.246 480.955 340.141 480.955V480.64H346.126L345.676 475.96L338.386 479.515C337.981 479.47 337.576 479.47 337.126 479.47C330.601 479.47 327.361 483.7 327.361 487.705C327.361 490.315 328.756 492.97 331.546 494.5L326.776 497.785C326.776 499.765 328.171 501.115 329.926 501.61V507.145H336.856C344.551 507.145 347.476 503.86 347.476 500.89C347.476 498.505 345.586 496.345 342.301 496.345C339.826 496.345 336.226 497.245 333.616 497.245C332.356 497.245 331.186 496.885 331.186 496.3L332.941 495.13C334.156 495.535 335.551 495.805 337.126 495.805C343.696 495.805 346.936 491.665 346.936 487.705ZM335.911 505.435L330.421 501.61C333.301 502.285 335.641 501.205 338.116 501.205C339.466 501.205 340.141 501.835 340.141 502.6C340.141 503.995 338.881 505.435 335.911 505.435ZM334.696 487.75C334.516 484.645 335.236 481.405 336.811 481.405C338.341 481.405 339.421 484.645 339.601 487.75C339.781 490.855 339.061 494.095 337.486 494.095C335.956 494.095 334.876 490.855 334.696 487.75ZM367.039 490.855C368.074 485.05 365.374 479.47 358.579 479.47C351.469 479.47 347.914 484.015 347.914 489.28C347.914 494.185 351.469 499.135 359.389 499.135C361.279 499.135 364.024 499 365.914 499L366.589 493.285C364.969 495.895 363.169 497.02 361.324 497.02C358.354 497.02 356.104 494.5 355.564 490.855H367.039ZM361.144 488.92H355.339C355.339 484.6 357.004 481.27 358.714 481.27C361.414 481.27 361.459 486.715 361.144 488.92ZM377.567 499.135C380.897 499.135 383.327 497.605 383.642 492.07H384.092V499H391.157C390.437 497.875 390.167 496.255 390.167 494.95V471.325L381.212 472.495C381.932 473.665 382.202 475.24 382.202 476.545V482.17C380.987 480.46 379.412 479.335 376.847 479.335C371.312 479.335 368.612 483.835 368.612 489.01C368.612 494.095 371.447 499.135 377.567 499.135ZM378.467 481.315C381.572 481.315 382.202 489.055 382.202 492.07C382.202 494.185 381.482 497.335 379.772 497.335C377.252 497.335 376.037 492.115 376.037 487.66C376.037 484.24 376.667 481.315 378.467 481.315ZM397.254 491.395C395.139 491.395 393.429 493.105 393.429 495.22C393.429 497.29 395.139 499 397.254 499C399.324 499 401.034 497.29 401.034 495.22C401.034 493.105 399.324 491.395 397.254 491.395Z" fill="#1B1A1A"/>
</svg>
