<svg width="598" height="546" viewBox="0 0 598 546" fill="none" xmlns="http://www.w3.org/2000/svg">
<path d="M312.097 94.1363L312.097 136.699C306.998 140.757 302.4 142.764 299.381 142.764C296.367 142.764 291.764 140.757 286.666 136.699L286.666 94.1363C268.658 89.3258 255.543 74.5798 255.543 57.1192L255.543 41.8911C255.543 63.2562 275.171 80.5767 299.381 80.5767C323.592 80.5767 343.22 63.2562 343.22 41.8911L343.22 57.1192C343.22 74.5798 330.105 89.3258 312.097 94.1363Z" fill="#FFDE00" stroke="#1B1A1A" stroke-width="3" stroke-miterlimit="10"/>
<path d="M254.953 40.5967C254.953 38.2069 256.855 35.9572 260.206 33.9947C257.936 31.0681 257.126 28.3534 258.137 26.1379C259.191 23.8336 262.093 22.3497 266.289 21.6694C265.359 17.994 265.77 15.0605 267.761 13.3032C269.675 11.6142 272.825 11.2108 276.765 11.9117C277.505 8.42432 279.105 6.00027 281.6 5.06689C284.192 4.09591 287.431 4.85492 290.945 6.99519C293.231 3.81556 295.877 2.00009 298.694 2.00009C301.402 2.00009 303.952 3.6788 306.175 6.6362C309.492 4.63269 312.568 3.91812 315.079 4.81047C317.69 5.74043 319.372 8.30123 320.143 12.004C324.307 11.1834 327.632 11.5458 329.623 13.3032C331.537 14.9921 331.994 17.7718 331.2 21.2488C335.152 21.9019 337.899 23.3139 338.956 25.5157C340.057 27.803 339.197 30.6612 336.771 33.7622C340.374 35.7794 342.432 38.1146 342.432 40.6001C342.432 42.99 340.529 45.2397 337.178 47.2022C339.448 50.1288 340.258 52.8434 339.247 55.0589C338.193 57.3633 335.291 58.8471 331.095 59.5275C332.025 63.2029 331.614 66.1364 329.623 67.8937C327.709 69.5827 324.559 69.9861 320.619 69.2852C319.879 72.7726 318.279 75.1966 315.784 76.13C313.192 77.101 309.953 76.342 306.439 74.2017C304.153 77.3813 301.507 79.1968 298.69 79.1968C295.982 79.1968 293.433 77.5181 291.209 74.5607C287.892 76.5642 284.816 77.2787 282.306 76.3864C279.694 75.4564 278.013 72.8956 277.242 69.1929C273.077 70.0135 269.753 69.651 267.761 67.8937C265.847 66.2047 265.39 63.4251 266.184 59.948C262.233 59.295 259.486 57.883 258.428 55.6812C257.328 53.3939 258.188 50.5356 260.613 47.4346C257.01 45.414 254.953 43.0823 254.953 40.5967Z" fill="#E30613" stroke="#1B1A1A" stroke-width="3" stroke-miterlimit="10"/>
<path d="M391.948 121.865L391.948 151.496C388.399 154.321 385.197 155.718 383.096 155.718C380.998 155.718 377.793 154.321 374.244 151.496L374.244 121.865C361.707 118.516 352.577 108.25 352.577 96.0945L352.577 85.4931C352.577 100.367 366.241 112.425 383.096 112.425C399.951 112.425 413.615 100.367 413.615 85.4931L413.615 96.0945C413.615 108.25 404.485 118.516 391.948 121.865Z" fill="#E30613" stroke="#1B1A1A" stroke-width="3" stroke-miterlimit="10"/>
<path d="M352.578 85.289C352.578 83.6253 353.903 82.0591 356.236 80.6929C354.655 78.6555 354.092 76.7656 354.796 75.2232C355.529 73.619 357.549 72.586 360.471 72.1123C359.823 69.5536 360.109 67.5114 361.495 66.288C362.828 65.1122 365.021 64.8313 367.764 65.3193C368.279 62.8915 369.393 61.2039 371.13 60.5541C372.934 59.8781 375.189 60.4066 377.636 61.8966C379.227 59.683 381.069 58.4191 383.03 58.4191C384.915 58.4191 386.69 59.5878 388.238 61.6466C390.547 60.2518 392.689 59.7544 394.437 60.3756C396.255 61.023 397.425 62.8058 397.962 65.3835C400.861 64.8123 403.176 65.0646 404.562 66.288C405.894 67.4638 406.213 69.3989 405.66 71.8196C408.411 72.2742 410.323 73.2572 411.06 74.79C411.826 76.3824 411.227 78.3722 409.538 80.5311C412.047 81.9354 413.479 83.561 413.479 85.2914C413.479 86.9552 412.155 88.5213 409.822 89.8876C411.402 91.925 411.966 93.8149 411.262 95.3572C410.528 96.9615 408.508 97.9945 405.587 98.4682C406.234 101.027 405.948 103.069 404.562 104.292C403.23 105.468 401.037 105.749 398.294 105.261C397.778 107.689 396.665 109.377 394.928 110.026C393.123 110.702 390.868 110.174 388.422 108.684C386.83 110.897 384.988 112.161 383.027 112.161C381.142 112.161 379.367 110.993 377.819 108.934C375.51 110.329 373.369 110.826 371.621 110.205C369.803 109.557 368.632 107.775 368.096 105.197C365.196 105.768 362.882 105.516 361.495 104.292C360.163 103.117 359.845 101.182 360.398 98.7609C357.647 98.3063 355.734 97.3233 354.998 95.7904C354.232 94.1981 354.831 92.2083 356.519 90.0494C354.011 88.6427 352.578 87.0194 352.578 85.289Z" fill="#009FE3" stroke="#1B1A1A" stroke-width="3" stroke-miterlimit="10"/>
<path d="M223.531 121.865L223.53 151.496C219.981 154.321 216.779 155.718 214.678 155.718C212.58 155.718 209.375 154.321 205.826 151.496L205.826 121.865C193.289 118.516 184.159 108.25 184.159 96.0945L184.159 85.4931C184.159 100.367 197.823 112.425 214.678 112.425C231.533 112.425 245.197 100.367 245.197 85.4931L245.197 96.0945C245.197 108.25 236.067 118.516 223.531 121.865Z" fill="#E30613" stroke="#1B1A1A" stroke-width="3" stroke-miterlimit="10"/>
<path d="M184.162 85.289C184.162 83.6253 185.486 82.0591 187.819 80.6929C186.239 78.6555 185.675 76.7656 186.379 75.2232C187.113 73.619 189.133 72.586 192.054 72.1123C191.407 69.5536 191.693 67.5114 193.079 66.288C194.411 65.1122 196.604 64.8313 199.347 65.3193C199.862 62.8915 200.976 61.2039 202.713 60.5541C204.518 59.8781 206.773 60.4066 209.219 61.8966C210.811 59.683 212.653 58.4191 214.614 58.4191C216.499 58.4191 218.274 59.5878 219.822 61.6466C222.131 60.2518 224.272 59.7544 226.02 60.3756C227.838 61.023 229.009 62.8058 229.545 65.3835C232.445 64.8123 234.759 65.0646 236.146 66.288C237.478 67.4638 237.796 69.3989 237.243 71.8196C239.994 72.2742 241.907 73.2572 242.643 74.79C243.409 76.3824 242.81 78.3722 241.122 80.5311C243.63 81.9354 245.063 83.561 245.063 85.2914C245.063 86.9552 243.738 88.5213 241.405 89.8876C242.986 91.925 243.549 93.8149 242.845 95.3572C242.112 96.9615 240.092 97.9945 237.17 98.4682C237.818 101.027 237.532 103.069 236.145 104.292C234.813 105.468 232.62 105.749 229.877 105.261C229.362 107.689 228.248 109.377 226.511 110.026C224.707 110.702 222.452 110.174 220.005 108.684C218.414 110.897 216.572 112.161 214.611 112.161C212.726 112.161 210.951 110.993 209.403 108.934C207.094 110.329 204.952 110.826 203.204 110.205C201.386 109.557 200.216 107.775 199.679 105.197C196.78 105.768 194.465 105.516 193.079 104.292C191.747 103.117 191.428 101.182 191.981 98.7609C189.23 98.3063 187.318 97.3233 186.581 95.7904C185.815 94.1981 186.414 92.2083 188.103 90.0494C185.594 88.6427 184.162 87.0194 184.162 85.289Z" fill="#009FE3" stroke="#1B1A1A" stroke-width="3" stroke-miterlimit="10"/>
<path d="M534.108 298.021L574.938 258.313C579.156 254.218 579.257 247.474 575.162 243.256C571.066 239.039 564.322 238.938 560.105 243.033L519.275 282.741C515.057 286.836 514.956 293.58 519.051 297.798C523.147 302.022 529.891 302.116 534.108 298.021Z" fill="#009FE3" stroke="#1B1A1A" stroke-width="3" stroke-miterlimit="10"/>
<path d="M472.686 317.108L527.645 302.18C533.324 300.64 536.678 294.796 535.138 289.124C533.597 283.446 527.753 280.092 522.082 281.632L467.123 296.559C461.444 298.099 458.09 303.944 459.631 309.615C461.164 315.294 467.008 318.648 472.686 317.108Z" fill="#E30613" stroke="#1B1A1A" stroke-width="3" stroke-miterlimit="10"/>
<path d="M421.585 343.514L472.161 317.323C477.386 314.624 479.43 308.197 476.731 302.978C474.032 297.753 467.605 295.709 462.387 298.408L411.811 324.599C406.586 327.298 404.542 333.725 407.241 338.943C409.933 344.169 416.36 346.22 421.585 343.514Z" fill="#FFDE00" stroke="#1B1A1A" stroke-width="3" stroke-miterlimit="10"/>
<path d="M527.26 416.023L583.558 424.638C589.366 425.531 594.807 421.543 595.699 415.735C596.592 409.927 592.605 404.486 586.796 403.593L530.499 394.978C524.691 394.086 519.25 398.073 518.357 403.881C517.458 409.689 521.445 415.131 527.26 416.023Z" fill="#009FE3" stroke="#1B1A1A" stroke-width="3" stroke-miterlimit="10"/>
<path d="M471.553 392.904L524.057 414.979C529.477 417.26 535.717 414.719 538.005 409.3C540.287 403.88 537.746 397.64 532.327 395.351L479.822 373.277C474.403 370.996 468.163 373.536 465.874 378.956C463.592 384.376 466.133 390.623 471.553 392.904Z" fill="#E30613" stroke="#1B1A1A" stroke-width="3" stroke-miterlimit="10"/>
<path d="M415.946 375.408L470.228 392.646C475.828 394.431 481.823 391.336 483.601 385.729C485.386 380.13 482.291 374.134 476.684 372.357L422.402 355.119C416.803 353.334 410.815 356.429 409.03 362.036C407.245 367.635 410.34 373.623 415.946 375.408Z" fill="#FFDE00" stroke="#1B1A1A" stroke-width="3" stroke-miterlimit="10"/>
<path d="M485.829 486.281L509.983 537.857C512.473 543.183 518.807 545.486 524.133 542.995C529.459 540.505 531.762 534.172 529.272 528.846L505.117 477.27C502.627 471.944 496.293 469.64 490.967 472.131C485.641 474.614 483.338 480.955 485.829 486.281Z" fill="#009FE3" stroke="#1B1A1A" stroke-width="3" stroke-miterlimit="10"/>
<path d="M438.026 438.377L487.032 488.088C491.149 492.292 497.886 492.364 502.089 488.247C506.292 484.13 506.364 477.393 502.247 473.19L453.241 423.478C449.124 419.275 442.387 419.203 438.184 423.32C433.981 427.437 433.909 434.173 438.026 438.377Z" fill="#E30613" stroke="#1B1A1A" stroke-width="3" stroke-miterlimit="10"/>
<path d="M400.995 392.694L436.953 436.864C440.66 441.427 447.368 442.118 451.931 438.412C456.494 434.705 457.185 427.997 453.478 423.434L417.52 379.264C413.814 374.701 407.106 374.01 402.543 377.717C397.98 381.423 397.289 388.131 400.995 392.694Z" fill="#FFDE00" stroke="#1B1A1A" stroke-width="3" stroke-miterlimit="10"/>
<path d="M487.242 203.492L479.742 147.037C478.972 141.207 473.624 137.104 467.795 137.874C461.965 138.645 457.862 143.992 458.632 149.822L466.132 206.278C466.902 212.107 472.25 216.21 478.08 215.44C483.909 214.67 488.012 209.322 487.242 203.492Z" fill="#009FE3" stroke="#1B1A1A" stroke-width="3" stroke-miterlimit="10"/>
<path d="M455.752 260.725L485.729 212.301C488.831 207.307 487.29 200.743 482.288 197.641C477.293 194.538 470.729 196.079 467.627 201.081L437.651 249.504C434.549 254.499 436.089 261.063 441.091 264.165C446.093 267.26 452.657 265.727 455.752 260.725Z" fill="#E30613" stroke="#1B1A1A" stroke-width="3" stroke-miterlimit="10"/>
<path d="M432.419 313.797L455.364 261.667C457.739 256.291 455.299 250.001 449.922 247.625C444.546 245.25 438.256 247.69 435.881 253.067L412.935 305.197C410.56 310.573 413 316.864 418.377 319.239C423.76 321.614 430.043 319.181 432.419 313.797Z" fill="#FFDE00" stroke="#1B1A1A" stroke-width="3" stroke-miterlimit="10"/>
<path d="M46.2489 306.484L5.41855 266.777C1.20093 262.682 1.10017 255.938 5.19544 251.72C9.2907 247.502 16.0346 247.402 20.2522 251.497L61.0825 291.205C65.3002 295.3 65.4009 302.044 61.3057 306.261C57.2104 310.479 50.4737 310.58 46.2489 306.484Z" fill="#009FE3" stroke="#1B1A1A" stroke-width="3" stroke-miterlimit="10"/>
<path d="M110.966 328.522L56.0077 313.595C50.3291 312.055 46.9751 306.21 48.5153 300.539C50.0556 294.86 55.8998 291.506 61.5713 293.047L116.53 307.974C122.209 309.514 125.563 315.358 124.022 321.03C122.489 326.701 116.645 330.055 110.966 328.522Z" fill="#E30613" stroke="#1B1A1A" stroke-width="3" stroke-miterlimit="10"/>
<path d="M160.634 354.029L110.059 327.838C104.834 325.139 102.79 318.712 105.489 313.494C108.187 308.269 114.615 306.225 119.833 308.924L170.408 335.115C175.633 337.814 177.678 344.241 174.979 349.459C172.28 354.684 165.86 356.728 160.634 354.029Z" fill="#FFDE00" stroke="#1B1A1A" stroke-width="3" stroke-miterlimit="10"/>
<path d="M70.0714 433.156L13.1839 435.963C7.31089 436.259 2.30875 431.739 2.01366 425.866C1.71858 419.993 6.23849 414.99 12.1115 414.695L68.999 411.888C74.872 411.593 79.8742 416.113 80.1692 421.986C80.4643 427.866 75.9444 432.861 70.0714 433.156Z" fill="#009FE3" stroke="#1B1A1A" stroke-width="3" stroke-miterlimit="10"/>
<path d="M123.216 400.387L75.2599 431.113C70.3081 434.287 63.7226 432.854 60.5486 427.903C57.3745 422.951 58.8068 416.365 63.7586 413.191L111.714 382.466C116.666 379.292 123.252 380.724 126.426 385.676C129.6 390.621 128.167 397.213 123.216 400.387Z" fill="#E30613" stroke="#1B1A1A" stroke-width="3" stroke-miterlimit="10"/>
<path d="M176.355 383.157L122.073 400.394C116.473 402.179 110.478 399.084 108.7 393.478C106.915 387.878 110.01 381.883 115.617 380.105L169.899 362.868C175.498 361.083 181.486 364.177 183.271 369.784C185.049 375.384 181.954 381.372 176.355 383.157Z" fill="#FFDE00" stroke="#1B1A1A" stroke-width="3" stroke-miterlimit="10"/>
<path d="M96.4712 479.248L72.317 530.824C69.8268 536.15 63.4931 538.454 58.1671 535.963C52.8411 533.473 50.538 527.139 53.0282 521.813L77.1824 470.237C79.6727 464.911 86.0063 462.608 91.3323 465.099C96.6583 467.582 98.9615 473.922 96.4712 479.248Z" fill="#009FE3" stroke="#1B1A1A" stroke-width="3" stroke-miterlimit="10"/>
<path d="M152.805 447.594L92.4552 482.674C87.3811 485.647 80.8603 483.941 77.8879 478.867C74.9154 473.793 76.6211 467.272 81.6952 464.299L142.045 429.22C147.119 426.247 153.64 427.953 156.612 433.027C159.585 438.101 157.879 444.622 152.805 447.594Z" fill="#E30613" stroke="#1B1A1A" stroke-width="3" stroke-miterlimit="10"/>
<path d="M188.863 398.264L156.828 445.356C153.524 450.221 146.903 451.488 142.037 448.184C137.172 444.881 135.905 438.259 139.209 433.394L171.244 386.302C174.548 381.436 181.169 380.17 186.035 383.473C190.9 386.777 192.167 393.398 188.863 398.264Z" fill="#FFDE00" stroke="#1B1A1A" stroke-width="3" stroke-miterlimit="10"/>
<path d="M105.324 213.02L102.705 156.125C102.431 150.252 106.965 145.265 112.838 144.991C118.711 144.718 123.699 149.252 123.973 155.125L126.592 212.02C126.866 217.893 122.332 222.881 116.459 223.154C110.586 223.428 105.598 218.893 105.324 213.02Z" fill="#009FE3" stroke="#1B1A1A" stroke-width="3" stroke-miterlimit="10"/>
<path d="M123.619 273.21L106.554 218.871C104.791 213.264 107.9 207.283 113.514 205.52C119.121 203.756 125.102 206.866 126.865 212.48L143.93 266.819C145.693 272.426 142.584 278.407 136.97 280.17C131.363 281.934 125.39 278.817 123.619 273.21Z" fill="#E30613" stroke="#1B1A1A" stroke-width="3" stroke-miterlimit="10"/>
<path d="M159.305 324.629L125.514 278.783C122.023 274.054 123.023 267.389 127.752 263.891C132.481 260.401 139.145 261.401 142.643 266.13L176.435 311.977C179.925 316.705 178.925 323.37 174.196 326.868C169.468 330.358 162.796 329.358 159.305 324.629Z" fill="#FFDE00" stroke="#1B1A1A" stroke-width="3" stroke-miterlimit="10"/>
<path d="M434.62 321V359.304C434.62 363.356 431.338 366.645 427.279 366.645H170.263C166.211 366.645 162.922 363.363 162.922 359.304V321C162.922 316.948 166.204 313.658 170.263 313.658H427.286C431.338 313.658 434.62 316.948 434.62 321Z" fill="#E30613" stroke="#1B1A1A" stroke-width="3" stroke-miterlimit="10"/>
<path d="M434.619 373.985V529.21C434.619 537.019 428.293 543.345 420.484 543.345H177.064C169.255 543.345 162.928 537.019 162.928 529.21V373.985C162.928 369.933 166.21 366.644 170.269 366.644H427.293C431.337 366.644 434.619 369.933 434.619 373.985Z" fill="#009FE3" stroke="#1B1A1A" stroke-width="3" stroke-miterlimit="10"/>
<path d="M413.582 340.316C426.43 340.316 432.497 342.476 432.497 363.348C432.497 384.22 420.47 464.751 420.47 524.956H176.791C176.791 464.743 164.764 384.22 164.764 363.348C164.764 342.476 170.831 340.316 183.679 340.316H413.582Z" fill="#FFFBF1" stroke="#1B1A1A" stroke-width="3" stroke-miterlimit="10"/>
<path d="M162.921 306.324V151.1C162.921 143.291 169.247 136.965 177.056 136.965H420.484C428.293 136.965 434.619 143.291 434.619 151.1V306.324C434.619 310.377 431.337 313.666 427.278 313.666H170.262C166.21 313.659 162.921 310.377 162.921 306.324Z" fill="#009FE3" stroke="#1B1A1A" stroke-width="3" stroke-miterlimit="10"/>
<path d="M183.994 340.317C171.147 340.317 165.08 338.158 165.08 317.286C165.08 296.414 177.106 215.883 177.106 155.677H420.786C420.786 215.89 432.812 296.414 432.812 317.286C432.812 338.158 426.745 340.317 413.898 340.317H183.994Z" fill="#FFFBF1" stroke="#1B1A1A" stroke-width="3" stroke-miterlimit="10"/>
</svg>
