<svg width="394" height="257" viewBox="0 0 394 257" fill="none" xmlns="http://www.w3.org/2000/svg">
<path d="M196.923 3L148.589 86.4414H245.209L196.923 3Z" fill="#E30613" stroke="#1B1A1A" stroke-width="3" stroke-miterlimit="10"/>
<path d="M100.268 144.796L28 203.15H365.812L293.509 144.796H100.268Z" fill="#E30613" stroke="#1B1A1A" stroke-width="3" stroke-miterlimit="10"/>
<path d="M148.603 86.4404L100.293 144.794H293.522L245.224 86.4404H148.603Z" fill="#FFDE00" stroke="#1B1A1A" stroke-width="3" stroke-miterlimit="10"/>
<path d="M196.924 61.3535L127.846 144.795H265.966L196.924 61.3535Z" fill="#009FE3" stroke="#1B1A1A" stroke-width="3" stroke-miterlimit="10"/>
<path d="M196.929 108.47L90.499 203.017H303.3L196.929 108.47Z" fill="#FFDE00" stroke="#1B1A1A" stroke-width="3" stroke-miterlimit="10"/>
<path d="M196.924 144.796L159.033 203.15H234.778L196.924 144.796Z" fill="#009FE3" stroke="#1B1A1A" stroke-width="3" stroke-miterlimit="10"/>
<ellipse cx="28" cy="228.5" rx="26" ry="25.5" fill="#FFDE00" stroke="#1B1A1A" stroke-width="3"/>
<ellipse cx="28" cy="228.5" rx="15" ry="14.5" fill="#009FE3" stroke="#1B1A1A" stroke-width="3"/>
<ellipse cx="366" cy="229.5" rx="26" ry="25.5" fill="#FFDE00" stroke="#1B1A1A" stroke-width="3"/>
<ellipse cx="366" cy="229.5" rx="15" ry="14.5" fill="#009FE3" stroke="#1B1A1A" stroke-width="3"/>
<path d="M216.031 96.391C216.031 99.9207 207.517 102.783 197.015 102.784C186.513 102.785 178 99.9249 178 96.3952C178 92.8655 186.513 90.0032 197.015 90.0021C207.517 90.0009 216.031 92.8614 216.031 96.391Z" fill="#FFFBF1" stroke="#1B1A1A" stroke-width="3" stroke-miterlimit="10"/>
<path d="M203.269 96.3968C203.269 99.8459 200.473 102.642 197.023 102.642C193.574 102.642 190.777 99.8459 190.777 96.3968C190.777 92.9477 193.574 90.1516 197.023 90.1516C200.473 90.1516 203.269 92.9477 203.269 96.3968Z" fill="#1B1A1A" stroke="#1B1A1A" stroke-width="3" stroke-miterlimit="10"/>
<path d="M216.031 190.391C216.031 193.921 207.517 196.783 197.015 196.784C186.513 196.785 178 193.925 178 190.395C178 186.866 186.513 184.003 197.015 184.002C207.517 184.001 216.031 186.861 216.031 190.391Z" fill="#FFFBF1" stroke="#1B1A1A" stroke-width="3" stroke-miterlimit="10"/>
<path d="M203.269 190.397C203.269 193.846 200.473 196.642 197.023 196.642C193.574 196.642 190.777 193.846 190.777 190.397C190.777 186.948 193.574 184.152 197.023 184.152C200.473 184.152 203.269 186.948 203.269 190.397Z" fill="#1B1A1A" stroke="#1B1A1A" stroke-width="3" stroke-miterlimit="10"/>
<path d="M303.031 162.391C303.031 165.921 294.517 168.783 284.015 168.784C273.513 168.785 265 165.925 265 162.395C265 158.866 273.513 156.003 284.015 156.002C294.517 156.001 303.031 158.861 303.031 162.391Z" fill="#FFFBF1" stroke="#1B1A1A" stroke-width="3" stroke-miterlimit="10"/>
<path d="M290.269 162.397C290.269 165.846 287.473 168.642 284.023 168.642C280.574 168.642 277.777 165.846 277.777 162.397C277.777 158.948 280.574 156.152 284.023 156.152C287.473 156.152 290.269 158.948 290.269 162.397Z" fill="#1B1A1A" stroke="#1B1A1A" stroke-width="3" stroke-miterlimit="10"/>
<path d="M128.031 160.391C128.031 163.921 119.517 166.783 109.015 166.784C98.5135 166.785 90 163.925 90 160.395C90 156.866 98.5135 154.003 109.015 154.002C119.517 154.001 128.031 156.861 128.031 160.391Z" fill="#FFFBF1" stroke="#1B1A1A" stroke-width="3" stroke-miterlimit="10"/>
<path d="M115.269 160.397C115.269 163.846 112.473 166.642 109.023 166.642C105.574 166.642 102.777 163.846 102.777 160.397C102.777 156.948 105.574 154.152 109.023 154.152C112.473 154.152 115.269 156.948 115.269 160.397Z" fill="#1B1A1A" stroke="#1B1A1A" stroke-width="3" stroke-miterlimit="10"/>
</svg>
