<svg width="879" height="1149" viewBox="0 0 879 1149" fill="none" xmlns="http://www.w3.org/2000/svg">
<mask id="path-1-outside-1" maskUnits="userSpaceOnUse" x="111.001" y="23.9995" width="741" height="762" fill="black">
<rect fill="white" x="111.001" y="23.9995" width="741" height="762"/>
<path fill-rule="evenodd" clip-rule="evenodd" d="M849.001 397.768V783.467H833.576L833.622 772.429H833.963V690.245L834.001 681H833.963V402.573L833.86 398.14C829.308 200.985 673.309 42.5698 481.501 42.5698C289.693 42.5698 133.694 200.985 129.142 398.14L129.039 402.572V681H114.001V397.768H114.108C118.855 192.164 281.525 26.9995 481.501 26.9995C681.477 26.9995 844.147 192.164 848.894 397.768H849.001Z"/>
</mask>
<path fill-rule="evenodd" clip-rule="evenodd" d="M849.001 397.768V783.467H833.576L833.622 772.429H833.963V690.245L834.001 681H833.963V402.573L833.86 398.14C829.308 200.985 673.309 42.5698 481.501 42.5698C289.693 42.5698 133.694 200.985 129.142 398.14L129.039 402.572V681H114.001V397.768H114.108C118.855 192.164 281.525 26.9995 481.501 26.9995C681.477 26.9995 844.147 192.164 848.894 397.768H849.001Z" fill="#FFDE00"/>
<path d="M849.001 783.467V785.967H851.501V783.467H849.001ZM849.001 397.768H851.501V395.268H849.001V397.768ZM833.576 783.467L831.076 783.457L831.066 785.967H833.576V783.467ZM833.622 772.429V769.929H831.132L831.122 772.419L833.622 772.429ZM833.963 772.429V774.929H836.463V772.429H833.963ZM833.963 690.245L831.463 690.235V690.245H833.963ZM834.001 681L836.501 681.01L836.511 678.5H834.001V681ZM833.963 681H831.463V683.5H833.963V681ZM833.963 402.573H836.463V402.544L836.462 402.515L833.963 402.573ZM833.86 398.14L831.361 398.198V398.198L833.86 398.14ZM129.142 398.14L131.641 398.198L129.142 398.14ZM129.039 402.572L126.54 402.514L126.539 402.543V402.572H129.039ZM129.039 681V683.5H131.539V681H129.039ZM114.001 681H111.501V683.5H114.001V681ZM114.001 397.768V395.268H111.501V397.768H114.001ZM114.108 397.768V400.268H116.551L116.607 397.826L114.108 397.768ZM848.894 397.768L846.395 397.826L846.451 400.268H848.894V397.768ZM851.501 783.467V397.768H846.501V783.467H851.501ZM833.576 785.967H849.001V780.967H833.576V785.967ZM831.122 772.419L831.076 783.457L836.076 783.478L836.122 772.44L831.122 772.419ZM833.622 774.929H833.963V769.929H833.622V774.929ZM836.463 772.429V690.245H831.463V772.429H836.463ZM831.501 680.989L831.463 690.235L836.463 690.255L836.501 681.01L831.501 680.989ZM833.963 683.5H834.001V678.5H833.963V683.5ZM836.463 681V402.573H831.463V681H836.463ZM836.462 402.515L836.36 398.082L831.361 398.198L831.463 402.63L836.462 402.515ZM836.36 398.082C831.778 199.65 674.746 40.0698 481.501 40.0698V45.0698C671.872 45.0698 826.838 202.321 831.361 398.198L836.36 398.082ZM481.501 40.0698C288.256 40.0698 131.224 199.65 126.642 398.082L131.641 398.198C136.164 202.321 291.13 45.0698 481.501 45.0698V40.0698ZM126.642 398.082L126.54 402.514L131.539 402.63L131.641 398.198L126.642 398.082ZM126.539 402.572V681H131.539V402.572H126.539ZM114.001 683.5H129.039V678.5H114.001V683.5ZM111.501 397.768V681H116.501V397.768H111.501ZM114.108 395.268H114.001V400.268H114.108V395.268ZM481.501 24.4995C280.088 24.4995 116.385 190.828 111.608 397.71L116.607 397.826C121.325 193.499 282.962 29.4995 481.501 29.4995V24.4995ZM851.394 397.71C846.617 190.828 682.914 24.4995 481.501 24.4995V29.4995C680.04 29.4995 841.677 193.499 846.395 397.826L851.394 397.71ZM849.001 395.268H848.894V400.268H849.001V395.268Z" fill="#1B1A1A" mask="url(#path-1-outside-1)"/>
<mask id="path-3-outside-2" maskUnits="userSpaceOnUse" x="95.001" y="9" width="774" height="788" fill="black">
<rect fill="white" x="95.001" y="9" width="774" height="788"/>
<path fill-rule="evenodd" clip-rule="evenodd" d="M482.001 12C690.956 12 860.929 181.722 865.89 393H866.001V794H850.221L850.298 777.5L850.287 777.499V397.937L850.18 393.382C845.424 190.787 682.421 28 482.001 28C281.581 28 118.578 190.787 113.821 393.382L113.715 397.936V681.781L98.001 679.739V393H98.1124C103.073 181.722 273.046 12 482.001 12Z"/>
</mask>
<path fill-rule="evenodd" clip-rule="evenodd" d="M482.001 12C690.956 12 860.929 181.722 865.89 393H866.001V794H850.221L850.298 777.5L850.287 777.499V397.937L850.18 393.382C845.424 190.787 682.421 28 482.001 28C281.581 28 118.578 190.787 113.821 393.382L113.715 397.936V681.781L98.001 679.739V393H98.1124C103.073 181.722 273.046 12 482.001 12Z" fill="#E30613"/>
<path d="M865.89 393L863.39 393.059L863.448 395.5H865.89V393ZM866.001 393H868.501V390.5H866.001V393ZM866.001 794V796.5H868.501V794H866.001ZM850.221 794L847.721 793.988L847.709 796.5H850.221V794ZM850.298 777.5L852.798 777.512L852.808 775.306L850.62 775.021L850.298 777.5ZM850.287 777.499H847.787V779.695L849.965 779.978L850.287 777.499ZM850.287 397.937H852.787V397.908L852.787 397.879L850.287 397.937ZM850.18 393.382L852.68 393.324L850.18 393.382ZM113.821 393.382L116.321 393.441L113.821 393.382ZM113.715 397.936L111.215 397.878L111.215 397.907V397.936H113.715ZM113.715 681.781L113.392 684.26L116.215 684.626V681.781H113.715ZM98.001 679.739H95.501V681.935L97.6788 682.218L98.001 679.739ZM98.001 393V390.5H95.501V393H98.001ZM98.1124 393V395.5H100.554L100.612 393.059L98.1124 393ZM868.389 392.941C863.398 180.347 692.355 9.5 482.001 9.5V14.5C689.556 14.5 858.461 183.096 863.39 393.059L868.389 392.941ZM866.001 390.5H865.89V395.5H866.001V390.5ZM868.501 794V393H863.501V794H868.501ZM850.221 796.5H866.001V791.5H850.221V796.5ZM847.798 777.489L847.721 793.988L852.721 794.012L852.798 777.512L847.798 777.489ZM849.965 779.978L849.975 779.979L850.62 775.021L850.61 775.02L849.965 779.978ZM852.787 777.499V397.937H847.787V777.499H852.787ZM852.787 397.879L852.68 393.324L847.681 393.441L847.788 397.996L852.787 397.879ZM852.68 393.324C847.892 189.413 683.82 25.5 482.001 25.5V30.5C681.022 30.5 842.956 192.162 847.681 393.441L852.68 393.324ZM482.001 25.5C280.182 25.5 116.11 189.413 111.322 393.324L116.321 393.441C121.046 192.162 282.98 30.5 482.001 30.5V25.5ZM111.322 393.324L111.215 397.878L116.214 397.995L116.321 393.441L111.322 393.324ZM111.215 397.936V681.781H116.215V397.936H111.215ZM97.6788 682.218L113.392 684.26L114.037 679.301L98.3231 677.259L97.6788 682.218ZM95.501 393V679.739H100.501V393H95.501ZM98.1124 390.5H98.001V395.5H98.1124V390.5ZM482.001 9.5C271.647 9.5 100.604 180.347 95.6131 392.941L100.612 393.059C105.541 183.096 274.446 14.5 482.001 14.5V9.5Z" fill="#1B1A1A" mask="url(#path-3-outside-2)"/>
<mask id="path-5-outside-3" maskUnits="userSpaceOnUse" x="129.001" y="41.8359" width="704" height="732" fill="black">
<rect fill="white" x="129.001" y="41.8359" width="704" height="732"/>
<path fill-rule="evenodd" clip-rule="evenodd" d="M830.001 400.752V771H815.678L815.656 760.404H815.72V405.364L815.622 401.109C811.299 211.852 663.154 59.7825 481.001 59.7825C298.848 59.7825 150.702 211.852 146.379 401.109L146.282 405.363V689H132.001V400.752H132.102C136.61 203.384 291.092 44.8359 481.001 44.8359C670.91 44.8359 825.391 203.384 829.9 400.752H830.001Z"/>
</mask>
<path fill-rule="evenodd" clip-rule="evenodd" d="M830.001 400.752V771H815.678L815.656 760.404H815.72V405.364L815.622 401.109C811.299 211.852 663.154 59.7825 481.001 59.7825C298.848 59.7825 150.702 211.852 146.379 401.109L146.282 405.363V689H132.001V400.752H132.102C136.61 203.384 291.092 44.8359 481.001 44.8359C670.91 44.8359 825.391 203.384 829.9 400.752H830.001Z" fill="#009FE3"/>
<path d="M830.001 771V773.5H832.501V771H830.001ZM830.001 400.752H832.501V398.252H830.001V400.752ZM815.678 771L813.178 771.005L813.184 773.5H815.678V771ZM815.656 760.404V757.904H813.15L813.156 760.41L815.656 760.404ZM815.72 760.404V762.904H818.22V760.404H815.72ZM815.72 405.364H818.22V405.335L818.219 405.307L815.72 405.364ZM815.622 401.109L813.123 401.166L815.622 401.109ZM146.379 401.109L148.879 401.166L146.379 401.109ZM146.282 405.363L143.783 405.306L143.782 405.335V405.363H146.282ZM146.282 689V691.5H148.782V689H146.282ZM132.001 689H129.501V691.5H132.001V689ZM132.001 400.752V398.252H129.501V400.752H132.001ZM132.102 400.752V403.252H134.546L134.602 400.809L132.102 400.752ZM829.9 400.752L827.4 400.809L827.456 403.252H829.9V400.752ZM832.501 771V400.752H827.501V771H832.501ZM815.678 773.5H830.001V768.5H815.678V773.5ZM813.156 760.41L813.178 771.005L818.178 770.995L818.156 760.399L813.156 760.41ZM815.656 762.904H815.72V757.904H815.656V762.904ZM818.22 760.404V405.364H813.22V760.404H818.22ZM818.219 405.307L818.122 401.052L813.123 401.166L813.22 405.421L818.219 405.307ZM818.122 401.052C813.77 210.542 664.615 57.2825 481.001 57.2825V62.2825C661.693 62.2825 808.829 213.162 813.123 401.166L818.122 401.052ZM481.001 57.2825C297.387 57.2825 148.232 210.542 143.88 401.052L148.879 401.166C153.173 213.162 300.309 62.2825 481.001 62.2825V57.2825ZM143.88 401.052L143.783 405.306L148.782 405.42L148.879 401.166L143.88 401.052ZM143.782 405.363V689H148.782V405.363H143.782ZM132.001 691.5H146.282V686.5H132.001V691.5ZM129.501 400.752V689H134.501V400.752H129.501ZM132.102 398.252H132.001V403.252H132.102V398.252ZM481.001 42.3359C289.631 42.3359 134.14 202.074 129.603 400.695L134.602 400.809C139.081 204.694 292.553 47.3359 481.001 47.3359V42.3359ZM832.399 400.695C827.862 202.074 672.371 42.3359 481.001 42.3359V47.3359C669.449 47.3359 822.921 204.694 827.4 400.809L832.399 400.695ZM830.001 398.252H829.9V403.252H830.001V398.252Z" fill="#1B1A1A" mask="url(#path-5-outside-3)"/>
<mask id="path-7-outside-4" maskUnits="userSpaceOnUse" x="95.001" y="9" width="774" height="788" fill="black">
<rect fill="white" x="95.001" y="9" width="774" height="788"/>
<path fill-rule="evenodd" clip-rule="evenodd" d="M482.001 12C690.956 12 860.929 181.722 865.89 393H866.001V794H850.221L850.298 777.5L850.287 777.499V397.937L850.18 393.382C845.424 190.787 682.421 28 482.001 28C281.581 28 118.578 190.787 113.821 393.382L113.715 397.936V681.781L98.001 679.739V393H98.1124C103.073 181.722 273.046 12 482.001 12Z"/>
</mask>
<path fill-rule="evenodd" clip-rule="evenodd" d="M482.001 12C690.956 12 860.929 181.722 865.89 393H866.001V794H850.221L850.298 777.5L850.287 777.499V397.937L850.18 393.382C845.424 190.787 682.421 28 482.001 28C281.581 28 118.578 190.787 113.821 393.382L113.715 397.936V681.781L98.001 679.739V393H98.1124C103.073 181.722 273.046 12 482.001 12Z" fill="#E30613"/>
<path d="M865.89 393L863.39 393.059L863.448 395.5H865.89V393ZM866.001 393H868.501V390.5H866.001V393ZM866.001 794V796.5H868.501V794H866.001ZM850.221 794L847.721 793.988L847.709 796.5H850.221V794ZM850.298 777.5L852.798 777.512L852.808 775.306L850.62 775.021L850.298 777.5ZM850.287 777.499H847.787V779.695L849.965 779.978L850.287 777.499ZM850.287 397.937H852.787V397.908L852.787 397.879L850.287 397.937ZM850.18 393.382L852.68 393.324L850.18 393.382ZM113.821 393.382L116.321 393.441L113.821 393.382ZM113.715 397.936L111.215 397.878L111.215 397.907V397.936H113.715ZM113.715 681.781L113.392 684.26L116.215 684.626V681.781H113.715ZM98.001 679.739H95.501V681.935L97.6788 682.218L98.001 679.739ZM98.001 393V390.5H95.501V393H98.001ZM98.1124 393V395.5H100.554L100.612 393.059L98.1124 393ZM868.389 392.941C863.398 180.347 692.355 9.5 482.001 9.5V14.5C689.556 14.5 858.461 183.096 863.39 393.059L868.389 392.941ZM866.001 390.5H865.89V395.5H866.001V390.5ZM868.501 794V393H863.501V794H868.501ZM850.221 796.5H866.001V791.5H850.221V796.5ZM847.798 777.489L847.721 793.988L852.721 794.012L852.798 777.512L847.798 777.489ZM849.965 779.978L849.975 779.979L850.62 775.021L850.61 775.02L849.965 779.978ZM852.787 777.499V397.937H847.787V777.499H852.787ZM852.787 397.879L852.68 393.324L847.681 393.441L847.788 397.996L852.787 397.879ZM852.68 393.324C847.892 189.413 683.82 25.5 482.001 25.5V30.5C681.022 30.5 842.956 192.162 847.681 393.441L852.68 393.324ZM482.001 25.5C280.182 25.5 116.11 189.413 111.322 393.324L116.321 393.441C121.046 192.162 282.98 30.5 482.001 30.5V25.5ZM111.322 393.324L111.215 397.878L116.214 397.995L116.321 393.441L111.322 393.324ZM111.215 397.936V681.781H116.215V397.936H111.215ZM97.6788 682.218L113.392 684.26L114.037 679.301L98.3231 677.259L97.6788 682.218ZM95.501 393V679.739H100.501V393H95.501ZM98.1124 390.5H98.001V395.5H98.1124V390.5ZM482.001 9.5C271.647 9.5 100.604 180.347 95.6131 392.941L100.612 393.059C105.541 183.096 274.446 14.5 482.001 14.5V9.5Z" fill="#1B1A1A" mask="url(#path-7-outside-4)"/>
<path d="M777 293.444C777 320.199 798.688 341.889 825.444 341.889C852.199 341.889 873.889 320.201 873.889 293.444C873.887 266.688 852.199 245 825.444 245C798.688 245 777 266.688 777 293.444Z" fill="#FF8A00" stroke="#1B1A1A" stroke-width="3" stroke-miterlimit="10"/>
<path d="M792.696 293.354C792.696 311.391 807.317 326.011 825.354 326.011C843.391 326.011 858.011 311.391 858.011 293.354C858.011 275.317 843.391 260.697 825.354 260.697C807.317 260.697 792.696 275.317 792.696 293.354Z" fill="#FFDE00" stroke="#1B1A1A" stroke-width="3" stroke-miterlimit="10"/>
<path d="M807.52 293.443C807.52 303.343 815.545 311.369 825.445 311.369C835.345 311.369 843.371 303.343 843.371 293.443C843.371 283.543 835.345 275.518 825.445 275.518C815.545 275.518 807.52 283.543 807.52 293.443Z" fill="#FF8A00" stroke="#1B1A1A" stroke-width="3" stroke-miterlimit="10"/>
<path d="M828.727 291.547L844.908 263.521C846.368 260.992 844.544 257.832 841.623 257.832H809.264C806.345 257.832 804.518 260.992 805.979 263.521L822.159 291.547C823.618 294.074 827.269 294.074 828.727 291.547Z" fill="#FFDE00" stroke="#1B1A1A" stroke-width="3" stroke-miterlimit="10"/>
<path d="M828.727 279.7L834.439 269.809C835.899 267.279 834.075 264.12 831.154 264.12H819.732C816.814 264.12 814.987 267.279 816.447 269.809L822.16 279.702C823.618 282.229 827.269 282.229 828.727 279.7Z" fill="#FF8A00" stroke="#1B1A1A" stroke-width="3" stroke-miterlimit="10"/>
<path d="M822.16 295.339L805.979 323.365C804.519 325.894 806.343 329.054 809.264 329.054H841.625C844.544 329.054 846.371 325.894 844.91 323.365L828.729 295.339C827.269 292.812 823.618 292.812 822.16 295.339Z" fill="#FFDE00" stroke="#1B1A1A" stroke-width="3" stroke-miterlimit="10"/>
<path d="M822.16 307.322L816.448 317.215C814.987 319.745 816.812 322.904 819.733 322.904H831.154C834.073 322.904 835.9 319.745 834.439 317.215L828.727 307.322C827.269 304.792 823.618 304.792 822.16 307.322Z" fill="#FF8A00" stroke="#1B1A1A" stroke-width="3" stroke-miterlimit="10"/>
<path d="M92 293.444C92 320.199 113.688 341.889 140.444 341.889C167.199 341.889 188.889 320.201 188.889 293.444C188.887 266.688 167.199 245 140.444 245C113.688 245 92 266.688 92 293.444Z" fill="#FF8A00" stroke="#1B1A1A" stroke-width="3" stroke-miterlimit="10" stroke-linecap="round" stroke-linejoin="round"/>
<path d="M97.334 293.444C97.334 317.252 116.634 336.552 140.442 336.552C164.25 336.552 183.549 317.252 183.549 293.444C183.549 269.636 164.25 250.336 140.442 250.336C116.636 250.334 97.334 269.636 97.334 293.444Z" fill="#FFDE00" stroke="#1B1A1A" stroke-width="3" stroke-miterlimit="10" stroke-linecap="round" stroke-linejoin="round"/>
<path d="M141.497 259.636C129.104 259.636 118.61 268.876 115.052 281.626C114.217 284.622 113.301 287.593 112.159 290.487L109.372 297.55C108.15 300.644 110.432 303.995 113.758 303.995V312.634C113.758 317.457 117.668 321.37 122.493 321.37H133.48C156.192 321.37 169.241 308.59 169.241 291.171C169.238 273.756 156.818 259.636 141.497 259.636Z" fill="#FF8A00" stroke="#1B1A1A" stroke-width="3" stroke-miterlimit="10" stroke-linecap="round" stroke-linejoin="round"/>
<path d="M137.923 331.8C137.923 331.163 133.631 321.943 133.631 321.943L136.584 318.925C144.206 311.131 154.514 306.541 165.405 306.088L167.33 312.564L137.923 331.8Z" fill="#FF8A00" stroke="#1B1A1A" stroke-width="3" stroke-miterlimit="10" stroke-linecap="round" stroke-linejoin="round"/>
<path d="M152.797 298.774C156.944 298.774 160.306 295.412 160.306 291.265C160.306 287.117 156.944 283.755 152.797 283.755C148.65 283.755 145.288 287.117 145.288 291.265C145.288 295.412 148.65 298.774 152.797 298.774Z" fill="#FFDE00" stroke="#1B1A1A" stroke-width="3" stroke-miterlimit="10"/>
<path d="M132.208 289.085C136.356 289.085 139.718 285.723 139.718 281.576C139.718 277.428 136.356 274.066 132.208 274.066C128.061 274.066 124.699 277.428 124.699 281.576C124.699 285.723 128.061 289.085 132.208 289.085Z" fill="#FFDE00" stroke="#1B1A1A" stroke-width="3" stroke-miterlimit="10"/>
<path d="M130.997 312.096C135.145 312.096 138.507 308.734 138.507 304.587C138.507 300.44 135.145 297.078 130.997 297.078C126.85 297.078 123.488 300.44 123.488 304.587C123.488 308.734 126.85 312.096 130.997 312.096Z" fill="#FFDE00" stroke="#1B1A1A" stroke-width="3" stroke-miterlimit="10"/>
<path d="M801.889 152.444C801.889 125.688 780.2 104 753.446 104C726.689 104 705 125.688 705 152.444C705 179.199 726.689 200.889 753.446 200.889C780.2 200.887 801.889 179.199 801.889 152.444Z" fill="#FFDE00" stroke="#1B1A1A" stroke-width="3" stroke-miterlimit="10" stroke-linecap="round" stroke-linejoin="round"/>
<path d="M796.436 152.444C796.436 128.661 777.157 109.383 753.375 109.383C729.591 109.383 710.312 128.661 710.312 152.444C710.312 176.226 729.591 195.506 753.375 195.506C777.157 195.504 796.436 176.226 796.436 152.444Z" fill="#FF8A00" stroke="#1B1A1A" stroke-width="3" stroke-miterlimit="10" stroke-linecap="round" stroke-linejoin="round"/>
<path d="M734.455 185.235C744.944 185.235 753.448 176.732 753.448 166.243C753.448 176.732 761.951 185.235 772.441 185.235C772.605 185.235 772.768 185.233 772.93 185.229C785.901 184.901 793.884 170.856 787.796 159.398L753.446 109.866L719.095 159.398C713.008 170.856 720.99 184.901 733.961 185.229C734.127 185.233 734.291 185.235 734.455 185.235Z" fill="#FFDE00" stroke="#1B1A1A" stroke-width="3" stroke-miterlimit="10" stroke-linecap="round" stroke-linejoin="round"/>
<path d="M770.832 125.951C761.227 125.951 753.442 133.736 753.442 143.34C753.442 133.736 745.658 125.951 736.053 125.951C735.903 125.951 735.753 125.954 735.605 125.956C723.73 126.256 716.421 139.116 721.995 149.605L753.445 194.953L784.89 149.607C790.464 139.116 783.155 126.259 771.28 125.958C771.13 125.954 770.982 125.951 770.832 125.951Z" fill="#FF8A00" stroke="#1B1A1A" stroke-width="3" stroke-miterlimit="10" stroke-linecap="round" stroke-linejoin="round"/>
<path d="M740.251 178.327C747.54 178.327 753.45 172.417 753.45 165.128C753.45 172.417 759.36 178.327 766.649 178.327C766.762 178.327 766.876 178.324 766.99 178.322C776.003 178.095 781.551 168.333 777.32 160.372L753.45 125.951L729.58 160.372C725.348 168.333 730.897 178.092 739.91 178.322C740.023 178.324 740.137 178.327 740.251 178.327Z" fill="#FFDE00" stroke="#1B1A1A" stroke-width="3" stroke-miterlimit="10" stroke-linecap="round" stroke-linejoin="round"/>
<path d="M762.778 136.549C757.628 136.549 753.451 140.725 753.451 145.875C753.451 140.725 749.275 136.549 744.124 136.549C744.045 136.549 743.963 136.549 743.883 136.551C737.514 136.712 733.594 143.61 736.583 149.235L753.451 173.558L770.319 149.235C773.309 143.61 769.389 136.712 763.019 136.551C762.937 136.551 762.858 136.549 762.778 136.549Z" fill="#FF8A00" stroke="#1B1A1A" stroke-width="3" stroke-miterlimit="10" stroke-linecap="round" stroke-linejoin="round"/>
<path d="M434.889 50.4444C434.889 23.6881 413.2 2 386.446 2C359.689 2 338 23.6881 338 50.4444C338 77.1985 359.689 98.8889 386.446 98.8889C413.2 98.8866 434.889 77.1985 434.889 50.4444Z" fill="#FFDE00" stroke="#1B1A1A" stroke-width="3" stroke-miterlimit="10" stroke-linecap="round" stroke-linejoin="round"/>
<path d="M429.435 50.4445C429.435 26.6611 410.156 7.38281 386.374 7.38281C362.59 7.38281 343.312 26.6611 343.312 50.4445C343.312 74.226 362.59 93.5063 386.374 93.5063C410.156 93.5042 429.435 74.226 429.435 50.4445Z" fill="#FF8A00" stroke="#1B1A1A" stroke-width="3" stroke-miterlimit="10" stroke-linecap="round" stroke-linejoin="round"/>
<path d="M367.455 83.2357C377.944 83.2357 386.448 74.7325 386.448 64.2433C386.448 74.7325 394.951 83.2357 405.441 83.2357C405.605 83.2357 405.768 83.2335 405.93 83.2289C418.901 82.9013 426.884 68.8566 420.796 57.3984L386.446 7.86658L352.095 57.3984C346.008 68.8566 353.99 82.9013 366.961 83.2289C367.127 83.2335 367.291 83.2357 367.455 83.2357Z" fill="#FFDE00" stroke="#1B1A1A" stroke-width="3" stroke-miterlimit="10" stroke-linecap="round" stroke-linejoin="round"/>
<path d="M403.832 23.9515C394.227 23.9515 386.442 31.736 386.442 41.3402C386.442 31.736 378.658 23.9515 369.053 23.9515C368.903 23.9515 368.753 23.9538 368.605 23.9561C356.73 24.2564 349.421 37.1159 354.995 47.6051L386.445 92.9535L417.89 47.6073C423.464 37.1159 416.155 24.2586 404.28 23.9584C404.13 23.9538 403.982 23.9515 403.832 23.9515Z" fill="#FF8A00" stroke="#1B1A1A" stroke-width="3" stroke-miterlimit="10" stroke-linecap="round" stroke-linejoin="round"/>
<path d="M373.251 76.3269C380.54 76.3269 386.45 70.4169 386.45 63.1284C386.45 70.4169 392.36 76.3269 399.649 76.3269C399.762 76.3269 399.876 76.3246 399.99 76.3223C409.003 76.0948 414.551 66.3336 410.32 58.3718L386.45 23.9515L362.58 58.3718C358.348 66.3336 363.897 76.0926 372.91 76.3223C373.023 76.3246 373.137 76.3269 373.251 76.3269Z" fill="#FFDE00" stroke="#1B1A1A" stroke-width="3" stroke-miterlimit="10" stroke-linecap="round" stroke-linejoin="round"/>
<path d="M395.777 34.5488C390.627 34.5488 386.45 38.7254 386.45 43.8756C386.45 38.7254 382.274 34.5488 377.123 34.5488C377.044 34.5488 376.962 34.5488 376.882 34.5511C370.513 34.7126 366.593 41.6099 369.582 47.2355L386.45 71.5578L403.318 47.2355C406.308 41.6099 402.388 34.7126 396.018 34.5511C395.937 34.5511 395.857 34.5488 395.777 34.5488Z" fill="#FF8A00" stroke="#1B1A1A" stroke-width="3" stroke-miterlimit="10" stroke-linecap="round" stroke-linejoin="round"/>
<path d="M581.444 98.8889C608.199 98.8889 629.889 77.2008 629.889 50.4445C629.889 23.6904 608.201 2.00003 581.444 2.00003C554.688 2.0023 533 23.6904 533 50.4445C533 77.2008 554.688 98.8889 581.444 98.8889Z" fill="#FFDE00" stroke="#1B1A1A" stroke-width="3" stroke-miterlimit="10" stroke-linecap="round" stroke-linejoin="round"/>
<path d="M581.944 93.4642C605.725 93.4642 625.005 74.184 625.005 50.4025C625.005 26.621 605.725 7.34077 581.944 7.34077C558.162 7.34077 538.882 26.621 538.882 50.4025C538.882 74.1863 558.16 93.4642 581.944 93.4642Z" fill="#FF8A00" stroke="#1B1A1A" stroke-width="3" stroke-miterlimit="10" stroke-linecap="round" stroke-linejoin="round"/>
<path d="M593.202 75.1427C606.78 75.1427 617.786 64.1362 617.786 50.5583C617.786 36.9804 606.78 25.9739 593.202 25.9739C579.624 25.9755 568.617 36.982 568.617 50.5583C568.617 64.1362 579.624 75.1427 593.202 75.1427Z" fill="#FFDE00" stroke="#1B1A1A" stroke-width="3" stroke-miterlimit="10" stroke-linecap="round" stroke-linejoin="round"/>
<path d="M565.121 40.736L565.121 59.9187C565.121 59.9187 578.558 60.9084 583.997 55.8918C586.992 53.1285 588.373 51.8825 593.762 51.8825C598.639 51.8825 599.033 53.9806 600.252 53.9616C600.252 53.9616 606.723 56.4415 606.723 50.3273C606.723 44.2131 600.252 46.693 600.252 46.693C599.033 46.6741 598.639 48.7721 593.762 48.7721C588.373 48.7721 586.992 47.5262 583.997 44.7629C578.557 39.7456 565.121 40.736 565.121 40.736Z" fill="#FF8A00" stroke="#1B1A1A" stroke-width="3" stroke-miterlimit="10"/>
<path d="M560.927 45.7815L540.421 45.7815V54.8696L560.927 54.8696V45.7815Z" fill="#FFDE00" stroke="#1B1A1A" stroke-width="3" stroke-miterlimit="10" stroke-linecap="round" stroke-linejoin="round"/>
<path d="M557.569 62.1649C564.969 67.898 578.271 74.6423 592.145 79.8051L592.145 20.8496C578.271 26.015 564.969 32.7568 557.569 38.4899C554.58 40.8064 552.75 43.9771 552.074 47.3379L552.074 53.3143C552.753 56.6776 554.58 59.8483 557.569 62.1649Z" fill="#FFDE00" stroke="#1B1A1A" stroke-width="3" stroke-miterlimit="10"/>
<path d="M585.271 72.9564C588.832 72.9564 587.751 62.7854 587.751 50.2362C587.751 37.687 588.832 27.516 585.271 27.516C581.71 27.516 574.855 37.687 574.855 50.2362C574.855 62.7854 581.71 72.9564 585.271 72.9564Z" fill="#FF8A00" stroke="#1B1A1A" stroke-width="3" stroke-miterlimit="10" stroke-linecap="round" stroke-linejoin="round"/>
<path d="M568.725 61.6283C572.268 61.6283 571.192 56.5368 571.192 50.2548C571.192 43.9729 572.268 38.8814 568.725 38.8814C565.182 38.8814 558.362 43.9729 558.362 50.2548C558.362 56.5368 565.182 61.6283 568.725 61.6283Z" fill="#FF8A00" stroke="#1B1A1A" stroke-width="3" stroke-miterlimit="10" stroke-linecap="round" stroke-linejoin="round"/>
<path d="M169 152.444C169 179.199 190.688 200.889 217.444 200.889C244.199 200.889 265.889 179.201 265.889 152.444C265.887 125.688 244.199 104 217.444 104C190.688 104 169 125.688 169 152.444Z" fill="#FF8A00" stroke="#1B1A1A" stroke-width="3" stroke-miterlimit="10"/>
<path d="M184.695 152.354C184.695 170.391 199.316 185.011 217.353 185.011C235.39 185.011 250.01 170.391 250.01 152.354C250.01 134.317 235.39 119.697 217.353 119.697C199.316 119.697 184.695 134.317 184.695 152.354Z" fill="#FFDE00" stroke="#1B1A1A" stroke-width="3" stroke-miterlimit="10"/>
<path d="M199.519 152.443C199.519 162.343 207.544 170.369 217.444 170.369C227.344 170.369 235.37 162.343 235.37 152.443C235.37 142.543 227.344 134.518 217.444 134.518C207.544 134.518 199.519 142.543 199.519 152.443Z" fill="#FF8A00" stroke="#1B1A1A" stroke-width="3" stroke-miterlimit="10"/>
<path d="M220.727 150.547L236.908 122.521C238.368 119.992 236.544 116.832 233.623 116.832H201.264C198.345 116.832 196.518 119.992 197.979 122.521L214.159 150.547C215.618 153.074 219.269 153.074 220.727 150.547Z" fill="#FFDE00" stroke="#1B1A1A" stroke-width="3" stroke-miterlimit="10"/>
<path d="M220.727 138.7L226.439 128.809C227.899 126.279 226.075 123.12 223.154 123.12H211.732C208.814 123.12 206.987 126.279 208.447 128.809L214.16 138.702C215.618 141.229 219.269 141.229 220.727 138.7Z" fill="#FF8A00" stroke="#1B1A1A" stroke-width="3" stroke-miterlimit="10"/>
<path d="M214.16 154.339L197.979 182.365C196.519 184.894 198.343 188.054 201.264 188.054H233.625C236.544 188.054 238.371 184.894 236.91 182.365L220.729 154.339C219.269 151.812 215.618 151.812 214.16 154.339Z" fill="#FFDE00" stroke="#1B1A1A" stroke-width="3" stroke-miterlimit="10"/>
<path d="M214.16 166.322L208.448 176.215C206.987 178.745 208.812 181.905 211.733 181.905H223.154C226.073 181.905 227.9 178.745 226.439 176.215L220.727 166.322C219.269 163.793 215.618 163.793 214.16 166.322Z" fill="#FF8A00" stroke="#1B1A1A" stroke-width="3" stroke-miterlimit="10"/>
<path d="M90.1503 688.168C112.599 687.646 119.73 737.399 122 767.977L126.183 948.9C126.389 957.785 130.505 965.677 136.849 970.967L137.951 1018.86C138.006 1021.24 139.855 1023.29 142.243 1023.39C144.856 1023.49 146.978 1021.38 146.919 1018.8L145.931 976.152C149.176 977.298 152.673 977.9 156.308 977.834C172.69 977.547 185.775 963.433 185.395 947.052L181.144 763.141C180.833 749.703 169.94 738.693 156.502 738.747C142.748 738.806 131.738 750.173 132.056 763.858L136.352 949.531C136.369 950.286 135.237 950.346 135.187 949.594C135.169 949.296 135.155 948.996 135.145 948.693L130.965 767.802C131.815 737.15 136.638 687.093 159.093 686.574C191.477 685.828 133.695 672.944 124.293 673.164C114.896 673.383 57.7668 688.915 90.1503 688.168ZM172.672 784.513L176.026 929.71C176.037 930.117 175.713 930.459 175.305 930.469C174.898 930.48 174.556 930.156 174.55 929.746L171.194 784.545C171.187 784.287 171.306 784.112 171.405 784.008C171.507 783.908 171.687 783.785 171.945 783.789C172.342 783.794 172.664 784.11 172.672 784.513ZM141.025 763.654C140.826 755.066 147.652 747.919 156.24 747.72C164.827 747.521 171.974 754.346 172.174 762.934L172.448 774.834C172.33 774.83 172.216 774.824 172.092 774.822C169.428 774.777 166.922 775.797 165.041 777.687C163.164 779.574 162.161 782.088 162.221 784.752L165.581 929.951C165.705 935.303 170.16 939.556 175.512 939.432C175.759 939.424 176.009 939.41 176.25 939.388L176.441 947.74C176.704 959.128 167.658 968.602 156.27 968.865C152.44 968.954 148.827 967.986 145.708 966.234L141.025 763.654Z" fill="#009FE3" stroke="#1B1A1A" stroke-width="2.70423" stroke-miterlimit="10"/>
<path d="M138.614 1032.57C135.825 1032.63 133.673 1030.1 134.198 1027.36C135.325 1021.47 138.526 1017.2 142.397 1017.12C146.266 1017.03 149.662 1021.14 151.061 1026.97C151.71 1029.68 149.677 1032.31 146.888 1032.38L138.614 1032.57Z" fill="#E30613" stroke="#1B1A1A" stroke-width="2.70423" stroke-miterlimit="10"/>
<path d="M113.183 882.876L113.435 893.737L195.334 891.843L195.083 880.981L113.183 882.876Z" fill="#E30613" stroke="#1B1A1A" stroke-width="2.70423" stroke-miterlimit="10"/>
<path d="M112.783 865.672L113.015 875.702L194.914 873.807L194.682 863.777L112.783 865.672Z" fill="#E30613" stroke="#1B1A1A" stroke-width="2.70423" stroke-miterlimit="10"/>
<path d="M112.385 848.471L112.617 858.501L194.516 856.606L194.284 846.576L112.385 848.471Z" fill="#E30613" stroke="#1B1A1A" stroke-width="2.70423" stroke-miterlimit="10"/>
<path d="M218.155 1021.79V1092.58L187.584 1088.44C183.654 1088.44 180.465 1091.62 180.465 1095.56L205.942 1098.37L172.543 1105.08C168.677 1105.8 166.132 1109.52 166.856 1113.38L204.6 1106.47L181.274 1118.97C177.872 1120.93 176.706 1125.29 178.671 1128.69L227.68 1100.39V1021.79H218.155Z" fill="#E30613" stroke="#1B1A1A" stroke-width="3" stroke-miterlimit="10"/>
<path d="M218.155 1030.72C222.548 1030.34 225.859 1027.66 227.68 1021.79C227.68 1004.36 237.69 986.868 179.443 928.621C166.926 916.103 148.94 910.976 133.298 919.255C111.517 930.788 106.773 959.991 123.869 977.747C159.227 1014.46 218.155 1009.26 218.155 1030.72Z" fill="#FFDE00" stroke="#1B1A1A" stroke-width="3" stroke-miterlimit="10"/>
<path d="M146.886 1040.65L99.4542 1087.51L81.9933 1064.28C79.3924 1061.65 75.148 1061.62 72.5117 1064.22L87.4882 1083.16L60.8891 1065.22C57.8453 1063.11 53.6707 1063.86 51.56 1066.9L81.1776 1087.62L57.3615 1080.26C53.7932 1079.28 50.1032 1081.38 49.1241 1084.95L100.529 1099.06L153.191 1047.03L146.886 1040.65Z" fill="#E30613" stroke="#1B1A1A" stroke-width="3" stroke-miterlimit="10"/>
<path d="M140.9 1046.56C144.064 1049.25 148.051 1049.7 153.191 1047.03C164.871 1035.49 183.215 1030.62 183.687 953.037C183.788 936.365 175.319 920.92 159.417 915.919C137.272 908.959 114.565 925.111 113.984 948.319C112.788 996.314 155.284 1032.35 140.9 1046.56Z" fill="#FFDE00" stroke="#1B1A1A" stroke-width="3" stroke-miterlimit="10"/>
<path d="M760.791 1047.56L713.359 1094.42L695.898 1071.19C693.297 1068.56 689.052 1068.53 686.416 1071.14L701.392 1090.07L674.793 1072.13C671.75 1070.02 667.575 1070.77 665.464 1073.82L695.082 1094.53L671.266 1087.17C667.697 1086.2 664.008 1088.3 663.028 1091.87L714.434 1105.97L767.096 1053.94L760.791 1047.56Z" fill="#E30613" stroke="#1B1A1A" stroke-width="3" stroke-miterlimit="10"/>
<path d="M754.804 1053.47C757.969 1056.16 761.955 1056.61 767.095 1053.94C778.775 1042.4 797.119 1037.53 797.591 959.95C797.693 943.278 789.223 927.833 773.322 922.832C751.177 915.872 728.469 932.024 727.889 955.232C726.692 1003.23 769.188 1039.26 754.804 1053.47Z" fill="#FFDE00" stroke="#1B1A1A" stroke-width="3" stroke-miterlimit="10"/>
<path d="M732.164 987.942C711.676 987.942 695.002 971.274 695.002 950.78C695.002 947.461 697.696 944.766 701.016 944.766C704.335 944.766 707.03 947.461 707.03 950.78C707.03 964.635 718.303 975.909 732.158 975.909C746.014 975.909 757.287 964.635 757.287 950.78V774.014C757.287 770.694 759.981 768 763.301 768C766.62 768 769.314 770.694 769.314 774.014V950.786C769.32 971.274 752.652 987.942 732.164 987.942Z" fill="#009FE3" stroke="#1B1A1A" stroke-width="3" stroke-miterlimit="10"/>
<path d="M762.584 747L838.683 799.816C847.981 792.304 861.559 793.578 877.166 799.002C848.771 776.545 811.396 758.786 762.584 747Z" fill="#E30613" stroke="#1B1A1A" stroke-width="3" stroke-miterlimit="10" stroke-linecap="round" stroke-linejoin="round"/>
<path d="M762.584 747L791.515 799.816C806.916 794.226 822.652 794.451 838.683 799.816L762.584 747Z" fill="#FFDE00" stroke="#1B1A1A" stroke-width="3" stroke-miterlimit="10" stroke-linecap="round" stroke-linejoin="round"/>
<path d="M762.584 747V799.81C771.505 797.139 781.221 797.404 791.515 799.816L762.584 747Z" fill="#E30613" stroke="#1B1A1A" stroke-width="3" stroke-miterlimit="10" stroke-linecap="round" stroke-linejoin="round"/>
<path d="M762.584 747L686.485 799.816C677.193 792.304 663.609 793.578 648.002 799.002C676.397 776.545 713.771 758.786 762.584 747Z" fill="#FFDE00" stroke="#1B1A1A" stroke-width="3" stroke-miterlimit="10" stroke-linecap="round" stroke-linejoin="round"/>
<path d="M762.584 747L733.653 799.816C718.253 794.226 702.516 794.451 686.485 799.816L762.584 747Z" fill="#E30613" stroke="#1B1A1A" stroke-width="3" stroke-miterlimit="10" stroke-linecap="round" stroke-linejoin="round"/>
<path d="M762.583 747V799.81C753.662 797.139 743.946 797.404 733.651 799.816L762.583 747Z" fill="#FFDE00" stroke="#1B1A1A" stroke-width="3" stroke-miterlimit="10" stroke-linecap="round" stroke-linejoin="round"/>
<path d="M811.515 1040.27L794.47 1108.98L765.795 1097.6C761.981 1096.65 758.119 1098.97 757.172 1102.79L781.221 1111.66L747.19 1110.12C743.264 1109.9 739.899 1112.89 739.671 1116.82L777.97 1119.19L752.32 1125.71C748.545 1126.8 746.365 1130.74 747.452 1134.52L801.835 1118.85L820.76 1042.57L811.515 1040.27Z" fill="#E30613" stroke="#1B1A1A" stroke-width="3" stroke-miterlimit="10"/>
<path d="M809.364 1048.94C813.719 1049.63 817.579 1047.83 820.76 1042.56C824.957 1025.65 838.884 1011.08 796.376 940.522C787.241 925.359 771.019 916.052 753.844 920.321C729.926 926.27 718.29 953.472 730.608 974.822C756.085 1018.97 814.533 1028.11 809.364 1048.94Z" fill="#FFDE00" stroke="#1B1A1A" stroke-width="3" stroke-miterlimit="10"/>
</svg>
