<svg width="879" height="1140" viewBox="0 0 879 1140" fill="none" xmlns="http://www.w3.org/2000/svg">
<mask id="path-1-outside-1" maskUnits="userSpaceOnUse" x="111.001" y="14.9995" width="741" height="762" fill="black">
<rect fill="white" x="111.001" y="14.9995" width="741" height="762"/>
<path fill-rule="evenodd" clip-rule="evenodd" d="M849.001 388.768V774.467H833.576L833.622 763.429H833.963V681.245L834.001 672H833.963V393.573L833.86 389.14C829.308 191.985 673.309 33.5698 481.501 33.5698C289.693 33.5698 133.694 191.985 129.142 389.14L129.039 393.572V672H114.001V388.768H114.108C118.855 183.164 281.525 17.9995 481.501 17.9995C681.477 17.9995 844.147 183.164 848.894 388.768H849.001Z"/>
</mask>
<path fill-rule="evenodd" clip-rule="evenodd" d="M849.001 388.768V774.467H833.576L833.622 763.429H833.963V681.245L834.001 672H833.963V393.573L833.86 389.14C829.308 191.985 673.309 33.5698 481.501 33.5698C289.693 33.5698 133.694 191.985 129.142 389.14L129.039 393.572V672H114.001V388.768H114.108C118.855 183.164 281.525 17.9995 481.501 17.9995C681.477 17.9995 844.147 183.164 848.894 388.768H849.001Z" fill="#FFDE00"/>
<path d="M849.001 774.467V776.967H851.501V774.467H849.001ZM849.001 388.768H851.501V386.268H849.001V388.768ZM833.576 774.467L831.076 774.457L831.066 776.967H833.576V774.467ZM833.622 763.429V760.929H831.132L831.122 763.419L833.622 763.429ZM833.963 763.429V765.929H836.463V763.429H833.963ZM833.963 681.245L831.463 681.235V681.245H833.963ZM834.001 672L836.501 672.01L836.511 669.5H834.001V672ZM833.963 672H831.463V674.5H833.963V672ZM833.963 393.573H836.463V393.544L836.462 393.515L833.963 393.573ZM833.86 389.14L831.361 389.198L831.361 389.198L833.86 389.14ZM129.142 389.14L131.641 389.198L131.641 389.198L129.142 389.14ZM129.039 393.572L126.54 393.514L126.539 393.543V393.572H129.039ZM129.039 672V674.5H131.539V672H129.039ZM114.001 672H111.501V674.5H114.001V672ZM114.001 388.768V386.268H111.501V388.768H114.001ZM114.108 388.768V391.268H116.551L116.607 388.826L114.108 388.768ZM848.894 388.768L846.395 388.826L846.451 391.268H848.894V388.768ZM851.501 774.467V388.768H846.501V774.467H851.501ZM833.576 776.967H849.001V771.967H833.576V776.967ZM831.122 763.419L831.076 774.457L836.076 774.478L836.122 763.44L831.122 763.419ZM833.622 765.929H833.963V760.929H833.622V765.929ZM836.463 763.429V681.245H831.463V763.429H836.463ZM831.501 671.989L831.463 681.235L836.463 681.255L836.501 672.01L831.501 671.989ZM833.963 674.5H834.001V669.5H833.963V674.5ZM836.463 672V393.573H831.463V672H836.463ZM836.462 393.515L836.36 389.082L831.361 389.198L831.463 393.63L836.462 393.515ZM836.36 389.082C831.778 190.65 674.746 31.0698 481.501 31.0698V36.0698C671.872 36.0698 826.838 193.321 831.361 389.198L836.36 389.082ZM481.501 31.0698C288.256 31.0698 131.224 190.65 126.642 389.082L131.641 389.198C136.164 193.321 291.13 36.0698 481.501 36.0698V31.0698ZM126.642 389.082L126.54 393.514L131.539 393.63L131.641 389.198L126.642 389.082ZM126.539 393.572V672H131.539V393.572H126.539ZM114.001 674.5H129.039V669.5H114.001V674.5ZM111.501 388.768V672H116.501V388.768H111.501ZM114.108 386.268H114.001V391.268H114.108V386.268ZM481.501 15.4995C280.088 15.4995 116.385 181.828 111.608 388.71L116.607 388.826C121.325 184.499 282.962 20.4995 481.501 20.4995V15.4995ZM851.394 388.71C846.617 181.828 682.914 15.4995 481.501 15.4995V20.4995C680.04 20.4995 841.677 184.499 846.395 388.826L851.394 388.71ZM849.001 386.268H848.894V391.268H849.001V386.268Z" fill="#1B1A1A" mask="url(#path-1-outside-1)"/>
<mask id="path-3-outside-2" maskUnits="userSpaceOnUse" x="95.001" y="0" width="774" height="788" fill="black">
<rect fill="white" x="95.001" width="774" height="788"/>
<path fill-rule="evenodd" clip-rule="evenodd" d="M482.001 3C690.956 3 860.929 172.722 865.89 384H866.001V785H850.221L850.298 768.5L850.287 768.499V388.937L850.18 384.382C845.424 181.787 682.421 19 482.001 19C281.581 19 118.578 181.787 113.821 384.382L113.715 388.936V672.781L98.001 670.739V384H98.1124C103.073 172.722 273.046 3 482.001 3Z"/>
</mask>
<path fill-rule="evenodd" clip-rule="evenodd" d="M482.001 3C690.956 3 860.929 172.722 865.89 384H866.001V785H850.221L850.298 768.5L850.287 768.499V388.937L850.18 384.382C845.424 181.787 682.421 19 482.001 19C281.581 19 118.578 181.787 113.821 384.382L113.715 388.936V672.781L98.001 670.739V384H98.1124C103.073 172.722 273.046 3 482.001 3Z" fill="#E30613"/>
<path d="M865.89 384L863.39 384.059L863.448 386.5H865.89V384ZM866.001 384H868.501V381.5H866.001V384ZM866.001 785V787.5H868.501V785H866.001ZM850.221 785L847.721 784.988L847.709 787.5H850.221V785ZM850.298 768.5L852.798 768.512L852.808 766.306L850.62 766.021L850.298 768.5ZM850.287 768.499H847.787V770.694L849.965 770.978L850.287 768.499ZM850.287 388.937H852.787V388.908L852.787 388.879L850.287 388.937ZM850.18 384.382L852.68 384.324L852.68 384.324L850.18 384.382ZM113.821 384.382L116.321 384.441L116.321 384.441L113.821 384.382ZM113.715 388.936L111.215 388.878L111.215 388.907V388.936H113.715ZM113.715 672.781L113.392 675.26L116.215 675.626V672.781H113.715ZM98.001 670.739H95.501V672.935L97.6788 673.218L98.001 670.739ZM98.001 384V381.5H95.501V384H98.001ZM98.1124 384V386.5H100.554L100.612 384.059L98.1124 384ZM868.389 383.941C863.398 171.347 692.355 0.5 482.001 0.5V5.5C689.556 5.5 858.461 174.096 863.39 384.059L868.389 383.941ZM866.001 381.5H865.89V386.5H866.001V381.5ZM868.501 785V384H863.501V785H868.501ZM850.221 787.5H866.001V782.5H850.221V787.5ZM847.798 768.489L847.721 784.988L852.721 785.012L852.798 768.512L847.798 768.489ZM849.965 770.978L849.975 770.979L850.62 766.021L850.61 766.02L849.965 770.978ZM852.787 768.499V388.937H847.787V768.499H852.787ZM852.787 388.879L852.68 384.324L847.681 384.441L847.788 388.996L852.787 388.879ZM852.68 384.324C847.892 180.413 683.82 16.5 482.001 16.5V21.5C681.022 21.5 842.956 183.162 847.681 384.441L852.68 384.324ZM482.001 16.5C280.182 16.5 116.11 180.413 111.322 384.324L116.321 384.441C121.046 183.162 282.98 21.5 482.001 21.5V16.5ZM111.322 384.324L111.215 388.878L116.214 388.995L116.321 384.441L111.322 384.324ZM111.215 388.936V672.781H116.215V388.936H111.215ZM97.6788 673.218L113.392 675.26L114.037 670.301L98.3231 668.259L97.6788 673.218ZM95.501 384V670.739H100.501V384H95.501ZM98.1124 381.5H98.001V386.5H98.1124V381.5ZM482.001 0.5C271.647 0.5 100.604 171.347 95.6131 383.941L100.612 384.059C105.541 174.096 274.446 5.5 482.001 5.5V0.5Z" fill="#1B1A1A" mask="url(#path-3-outside-2)"/>
<mask id="path-5-outside-3" maskUnits="userSpaceOnUse" x="129.001" y="32.8359" width="704" height="732" fill="black">
<rect fill="white" x="129.001" y="32.8359" width="704" height="732"/>
<path fill-rule="evenodd" clip-rule="evenodd" d="M830.001 391.752V762H815.678L815.656 751.404H815.72V396.364L815.622 392.109C811.299 202.852 663.154 50.7825 481.001 50.7825C298.848 50.7825 150.702 202.852 146.379 392.109L146.282 396.363V680H132.001V391.752H132.102C136.61 194.384 291.092 35.8359 481.001 35.8359C670.91 35.8359 825.391 194.384 829.9 391.752H830.001Z"/>
</mask>
<path fill-rule="evenodd" clip-rule="evenodd" d="M830.001 391.752V762H815.678L815.656 751.404H815.72V396.364L815.622 392.109C811.299 202.852 663.154 50.7825 481.001 50.7825C298.848 50.7825 150.702 202.852 146.379 392.109L146.282 396.363V680H132.001V391.752H132.102C136.61 194.384 291.092 35.8359 481.001 35.8359C670.91 35.8359 825.391 194.384 829.9 391.752H830.001Z" fill="#009FE3"/>
<path d="M830.001 762V764.5H832.501V762H830.001ZM830.001 391.752H832.501V389.252H830.001V391.752ZM815.678 762L813.178 762.005L813.184 764.5H815.678V762ZM815.656 751.404V748.904H813.15L813.156 751.41L815.656 751.404ZM815.72 751.404V753.904H818.22V751.404H815.72ZM815.72 396.364H818.22V396.335L818.219 396.307L815.72 396.364ZM815.622 392.109L813.123 392.166L813.123 392.166L815.622 392.109ZM146.379 392.109L148.879 392.166L148.879 392.166L146.379 392.109ZM146.282 396.363L143.783 396.306L143.782 396.335V396.363H146.282ZM146.282 680V682.5H148.782V680H146.282ZM132.001 680H129.501V682.5H132.001V680ZM132.001 391.752V389.252H129.501V391.752H132.001ZM132.102 391.752V394.252H134.546L134.602 391.809L132.102 391.752ZM829.9 391.752L827.4 391.809L827.456 394.252H829.9V391.752ZM832.501 762V391.752H827.501V762H832.501ZM815.678 764.5H830.001V759.5H815.678V764.5ZM813.156 751.41L813.178 762.005L818.178 761.995L818.156 751.399L813.156 751.41ZM815.656 753.904H815.72V748.904H815.656V753.904ZM818.22 751.404V396.364H813.22V751.404H818.22ZM818.219 396.307L818.122 392.052L813.123 392.166L813.22 396.421L818.219 396.307ZM818.122 392.052C813.77 201.542 664.615 48.2825 481.001 48.2825V53.2825C661.693 53.2825 808.829 204.162 813.123 392.166L818.122 392.052ZM481.001 48.2825C297.387 48.2825 148.232 201.542 143.88 392.052L148.879 392.166C153.173 204.162 300.309 53.2825 481.001 53.2825V48.2825ZM143.88 392.052L143.783 396.306L148.782 396.42L148.879 392.166L143.88 392.052ZM143.782 396.363V680H148.782V396.363H143.782ZM132.001 682.5H146.282V677.5H132.001V682.5ZM129.501 391.752V680H134.501V391.752H129.501ZM132.102 389.252H132.001V394.252H132.102V389.252ZM481.001 33.3359C289.631 33.3359 134.14 193.074 129.603 391.695L134.602 391.809C139.081 195.694 292.553 38.3359 481.001 38.3359V33.3359ZM832.399 391.695C827.862 193.074 672.371 33.3359 481.001 33.3359V38.3359C669.449 38.3359 822.921 195.694 827.4 391.809L832.399 391.695ZM830.001 389.252H829.9V394.252H830.001V389.252Z" fill="#1B1A1A" mask="url(#path-5-outside-3)"/>
<mask id="path-7-outside-4" maskUnits="userSpaceOnUse" x="95.001" y="0" width="774" height="788" fill="black">
<rect fill="white" x="95.001" width="774" height="788"/>
<path fill-rule="evenodd" clip-rule="evenodd" d="M482.001 3C690.956 3 860.929 172.722 865.89 384H866.001V785H850.221L850.298 768.5L850.287 768.499V388.937L850.18 384.382C845.424 181.787 682.421 19 482.001 19C281.581 19 118.578 181.787 113.821 384.382L113.715 388.936V672.781L98.001 670.739V384H98.1124C103.073 172.722 273.046 3 482.001 3Z"/>
</mask>
<path fill-rule="evenodd" clip-rule="evenodd" d="M482.001 3C690.956 3 860.929 172.722 865.89 384H866.001V785H850.221L850.298 768.5L850.287 768.499V388.937L850.18 384.382C845.424 181.787 682.421 19 482.001 19C281.581 19 118.578 181.787 113.821 384.382L113.715 388.936V672.781L98.001 670.739V384H98.1124C103.073 172.722 273.046 3 482.001 3Z" fill="#E30613"/>
<path d="M865.89 384L863.39 384.059L863.448 386.5H865.89V384ZM866.001 384H868.501V381.5H866.001V384ZM866.001 785V787.5H868.501V785H866.001ZM850.221 785L847.721 784.988L847.709 787.5H850.221V785ZM850.298 768.5L852.798 768.512L852.808 766.306L850.62 766.021L850.298 768.5ZM850.287 768.499H847.787V770.694L849.965 770.978L850.287 768.499ZM850.287 388.937H852.787V388.908L852.787 388.879L850.287 388.937ZM850.18 384.382L852.68 384.324L852.68 384.324L850.18 384.382ZM113.821 384.382L116.321 384.441L116.321 384.441L113.821 384.382ZM113.715 388.936L111.215 388.878L111.215 388.907V388.936H113.715ZM113.715 672.781L113.392 675.26L116.215 675.626V672.781H113.715ZM98.001 670.739H95.501V672.935L97.6788 673.218L98.001 670.739ZM98.001 384V381.5H95.501V384H98.001ZM98.1124 384V386.5H100.554L100.612 384.059L98.1124 384ZM868.389 383.941C863.398 171.347 692.355 0.5 482.001 0.5V5.5C689.556 5.5 858.461 174.096 863.39 384.059L868.389 383.941ZM866.001 381.5H865.89V386.5H866.001V381.5ZM868.501 785V384H863.501V785H868.501ZM850.221 787.5H866.001V782.5H850.221V787.5ZM847.798 768.489L847.721 784.988L852.721 785.012L852.798 768.512L847.798 768.489ZM849.965 770.978L849.975 770.979L850.62 766.021L850.61 766.02L849.965 770.978ZM852.787 768.499V388.937H847.787V768.499H852.787ZM852.787 388.879L852.68 384.324L847.681 384.441L847.788 388.996L852.787 388.879ZM852.68 384.324C847.892 180.413 683.82 16.5 482.001 16.5V21.5C681.022 21.5 842.956 183.162 847.681 384.441L852.68 384.324ZM482.001 16.5C280.182 16.5 116.11 180.413 111.322 384.324L116.321 384.441C121.046 183.162 282.98 21.5 482.001 21.5V16.5ZM111.322 384.324L111.215 388.878L116.214 388.995L116.321 384.441L111.322 384.324ZM111.215 388.936V672.781H116.215V388.936H111.215ZM97.6788 673.218L113.392 675.26L114.037 670.301L98.3231 668.259L97.6788 673.218ZM95.501 384V670.739H100.501V384H95.501ZM98.1124 381.5H98.001V386.5H98.1124V381.5ZM482.001 0.5C271.647 0.5 100.604 171.347 95.6131 383.941L100.612 384.059C105.541 174.096 274.446 5.5 482.001 5.5V0.5Z" fill="#1B1A1A" mask="url(#path-7-outside-4)"/>
<path d="M90.1503 679.168C112.599 678.646 119.73 728.399 122 758.977L126.183 939.9C126.389 948.785 130.505 956.677 136.849 961.967L137.951 1009.86C138.006 1012.24 139.855 1014.29 142.243 1014.39C144.856 1014.49 146.978 1012.38 146.919 1009.8L145.931 967.152C149.176 968.298 152.673 968.9 156.308 968.834C172.69 968.547 185.775 954.433 185.395 938.052L181.144 754.141C180.833 740.703 169.94 729.693 156.502 729.747C142.748 729.806 131.738 741.173 132.056 754.858L136.352 940.531C136.369 941.286 135.237 941.346 135.187 940.594C135.169 940.296 135.155 939.996 135.145 939.693L130.965 758.802C131.815 728.15 136.638 678.093 159.093 677.574C191.477 676.828 133.695 663.944 124.293 664.164C114.896 664.383 57.7668 679.915 90.1503 679.168ZM172.672 775.513L176.026 920.71C176.037 921.117 175.713 921.459 175.305 921.469C174.898 921.48 174.556 921.156 174.55 920.746L171.194 775.545C171.187 775.287 171.306 775.112 171.405 775.008C171.507 774.908 171.687 774.785 171.945 774.789C172.342 774.794 172.664 775.11 172.672 775.513ZM141.025 754.654C140.826 746.066 147.652 738.919 156.24 738.72C164.827 738.521 171.974 745.346 172.174 753.934L172.448 765.834C172.33 765.83 172.216 765.824 172.092 765.822C169.428 765.777 166.922 766.797 165.041 768.687C163.164 770.574 162.161 773.088 162.221 775.752L165.581 920.951C165.705 926.303 170.16 930.556 175.512 930.432C175.759 930.424 176.009 930.41 176.25 930.388L176.441 938.74C176.704 950.128 167.658 959.602 156.27 959.865C152.44 959.954 148.827 958.986 145.708 957.234L141.025 754.654Z" fill="#009FE3" stroke="#1B1A1A" stroke-width="2.70423" stroke-miterlimit="10"/>
<path d="M138.614 1023.57C135.825 1023.63 133.673 1021.1 134.198 1018.36C135.325 1012.47 138.526 1008.2 142.397 1008.12C146.266 1008.03 149.662 1012.14 151.061 1017.97C151.71 1020.68 149.677 1023.31 146.888 1023.38L138.614 1023.57Z" fill="#E30613" stroke="#1B1A1A" stroke-width="2.70423" stroke-miterlimit="10"/>
<path d="M113.183 873.876L113.434 884.737L195.333 882.843L195.082 871.981L113.183 873.876Z" fill="#E30613" stroke="#1B1A1A" stroke-width="2.70423" stroke-miterlimit="10"/>
<path d="M112.783 856.672L113.015 866.702L194.914 864.807L194.682 854.777L112.783 856.672Z" fill="#E30613" stroke="#1B1A1A" stroke-width="2.70423" stroke-miterlimit="10"/>
<path d="M112.385 839.471L112.617 849.501L194.516 847.606L194.284 837.576L112.385 839.471Z" fill="#E30613" stroke="#1B1A1A" stroke-width="2.70423" stroke-miterlimit="10"/>
<path d="M218.156 1012.79V1083.58L187.584 1079.44C183.655 1079.44 180.466 1082.62 180.466 1086.56L205.942 1089.37L172.543 1096.08C168.678 1096.8 166.133 1100.52 166.857 1104.38L204.6 1097.47L181.275 1109.97C177.873 1111.93 176.707 1116.29 178.671 1119.69L227.681 1091.39V1012.79H218.156Z" fill="#E30613" stroke="#1B1A1A" stroke-width="3" stroke-miterlimit="10"/>
<path d="M218.156 1021.72C222.548 1021.34 225.86 1018.66 227.681 1012.79C227.681 995.358 237.69 977.868 179.443 919.621C166.926 907.103 148.941 901.976 133.298 910.255C111.517 921.788 106.773 950.991 123.869 968.747C159.227 1005.46 218.156 1000.26 218.156 1021.72Z" fill="#FFDE00" stroke="#1B1A1A" stroke-width="3" stroke-miterlimit="10"/>
<path d="M760.791 1038.56L713.359 1085.42L695.898 1062.19C693.297 1059.56 689.052 1059.53 686.416 1062.14L701.392 1081.07L674.793 1063.13C671.75 1061.02 667.575 1061.77 665.464 1064.82L695.082 1085.53L671.266 1078.17C667.697 1077.2 664.008 1079.3 663.028 1082.87L714.434 1096.97L767.096 1044.94L760.791 1038.56Z" fill="#E30613" stroke="#1B1A1A" stroke-width="3" stroke-miterlimit="10"/>
<path d="M754.804 1044.47C757.969 1047.16 761.955 1047.61 767.095 1044.94C778.775 1033.4 797.119 1028.53 797.591 950.95C797.693 934.278 789.223 918.833 773.322 913.832C751.177 906.872 728.469 923.024 727.889 946.232C726.692 994.227 769.188 1030.26 754.804 1044.47Z" fill="#FFDE00" stroke="#1B1A1A" stroke-width="3" stroke-miterlimit="10"/>
<path d="M732.164 978.942C711.676 978.942 695.002 962.274 695.002 941.78C695.002 938.461 697.696 935.766 701.016 935.766C704.335 935.766 707.03 938.461 707.03 941.78C707.03 955.636 718.303 966.909 732.158 966.909C746.014 966.909 757.287 955.636 757.287 941.78V765.014C757.287 761.694 759.981 759 763.301 759C766.62 759 769.314 761.694 769.314 765.014V941.786C769.32 962.274 752.652 978.942 732.164 978.942Z" fill="#009FE3" stroke="#1B1A1A" stroke-width="3" stroke-miterlimit="10"/>
<path d="M762.584 738L838.683 790.816C847.981 783.304 861.559 784.578 877.166 790.002C848.771 767.545 811.396 749.786 762.584 738Z" fill="#E30613" stroke="#1B1A1A" stroke-width="3" stroke-miterlimit="10" stroke-linecap="round" stroke-linejoin="round"/>
<path d="M762.584 738L791.515 790.816C806.916 785.226 822.652 785.451 838.683 790.816L762.584 738Z" fill="#FFDE00" stroke="#1B1A1A" stroke-width="3" stroke-miterlimit="10" stroke-linecap="round" stroke-linejoin="round"/>
<path d="M762.584 738V790.81C771.505 788.139 781.221 788.404 791.515 790.816L762.584 738Z" fill="#E30613" stroke="#1B1A1A" stroke-width="3" stroke-miterlimit="10" stroke-linecap="round" stroke-linejoin="round"/>
<path d="M762.584 738L686.485 790.816C677.193 783.304 663.609 784.578 648.002 790.002C676.397 767.545 713.771 749.786 762.584 738Z" fill="#FFDE00" stroke="#1B1A1A" stroke-width="3" stroke-miterlimit="10" stroke-linecap="round" stroke-linejoin="round"/>
<path d="M762.584 738L733.652 790.816C718.252 785.226 702.516 785.451 686.485 790.816L762.584 738Z" fill="#E30613" stroke="#1B1A1A" stroke-width="3" stroke-miterlimit="10" stroke-linecap="round" stroke-linejoin="round"/>
<path d="M762.583 738V790.81C753.663 788.139 743.946 788.404 733.652 790.816L762.583 738Z" fill="#FFDE00" stroke="#1B1A1A" stroke-width="3" stroke-miterlimit="10" stroke-linecap="round" stroke-linejoin="round"/>
<path d="M811.515 1031.27L794.469 1099.98L765.795 1088.6C761.981 1087.65 758.119 1089.97 757.171 1093.79L781.22 1102.66L747.19 1101.12C743.264 1100.9 739.899 1103.89 739.671 1107.82L777.969 1110.19L752.32 1116.71C748.545 1117.8 746.364 1121.74 747.452 1125.52L801.835 1109.85L820.76 1033.57L811.515 1031.27Z" fill="#E30613" stroke="#1B1A1A" stroke-width="3" stroke-miterlimit="10"/>
<path d="M809.364 1039.94C813.719 1040.63 817.579 1038.83 820.76 1033.56C824.957 1016.65 838.884 1002.08 796.376 931.522C787.241 916.359 771.019 907.052 753.844 911.321C729.926 917.27 718.29 944.472 730.608 965.822C756.085 1009.97 814.533 1019.11 809.364 1039.94Z" fill="#FFDE00" stroke="#1B1A1A" stroke-width="3" stroke-miterlimit="10"/>
</svg>
