<svg width="786" height="797" viewBox="0 0 786 797" fill="none" xmlns="http://www.w3.org/2000/svg">
<mask id="path-1-outside-1" maskUnits="userSpaceOnUse" x="21.001" y="23.9995" width="741" height="762" fill="black">
<rect fill="white" x="21.001" y="23.9995" width="741" height="762"/>
<path fill-rule="evenodd" clip-rule="evenodd" d="M759.001 397.768V783.467H743.576L743.622 772.429H743.963V690.245L744.001 681H743.963V402.573L743.86 398.14C739.308 200.985 583.309 42.5698 391.501 42.5698C199.693 42.5698 43.6938 200.985 39.1417 398.14L39.0393 402.572V681H24.001V397.768H24.1076C28.8548 192.164 191.525 26.9995 391.501 26.9995C591.477 26.9995 754.147 192.164 758.894 397.768H759.001Z"/>
</mask>
<path fill-rule="evenodd" clip-rule="evenodd" d="M759.001 397.768V783.467H743.576L743.622 772.429H743.963V690.245L744.001 681H743.963V402.573L743.86 398.14C739.308 200.985 583.309 42.5698 391.501 42.5698C199.693 42.5698 43.6938 200.985 39.1417 398.14L39.0393 402.572V681H24.001V397.768H24.1076C28.8548 192.164 191.525 26.9995 391.501 26.9995C591.477 26.9995 754.147 192.164 758.894 397.768H759.001Z" fill="#FFDE00"/>
<path d="M759.001 783.467V785.967H761.501V783.467H759.001ZM759.001 397.768H761.501V395.268H759.001V397.768ZM743.576 783.467L741.076 783.457L741.066 785.967H743.576V783.467ZM743.622 772.429V769.929H741.132L741.122 772.419L743.622 772.429ZM743.963 772.429V774.929H746.463V772.429H743.963ZM743.963 690.245L741.463 690.235V690.245H743.963ZM744.001 681L746.501 681.01L746.511 678.5H744.001V681ZM743.963 681H741.463V683.5H743.963V681ZM743.963 402.573H746.463V402.544L746.462 402.515L743.963 402.573ZM743.86 398.14L741.361 398.198L741.361 398.198L743.86 398.14ZM39.1417 398.14L41.641 398.198L41.641 398.198L39.1417 398.14ZM39.0393 402.572L36.54 402.514L36.5393 402.543V402.572H39.0393ZM39.0393 681V683.5H41.5393V681H39.0393ZM24.001 681H21.501V683.5H24.001V681ZM24.001 397.768V395.268H21.501V397.768H24.001ZM24.1076 397.768V400.268H26.5505L26.6069 397.826L24.1076 397.768ZM758.894 397.768L756.395 397.826L756.451 400.268H758.894V397.768ZM761.501 783.467V397.768H756.501V783.467H761.501ZM743.576 785.967H759.001V780.967H743.576V785.967ZM741.122 772.419L741.076 783.457L746.076 783.478L746.122 772.44L741.122 772.419ZM743.622 774.929H743.963V769.929H743.622V774.929ZM746.463 772.429V690.245H741.463V772.429H746.463ZM741.501 680.989L741.463 690.235L746.463 690.255L746.501 681.01L741.501 680.989ZM743.963 683.5H744.001V678.5H743.963V683.5ZM746.463 681V402.573H741.463V681H746.463ZM746.462 402.515L746.36 398.082L741.361 398.198L741.463 402.63L746.462 402.515ZM746.36 398.082C741.778 199.65 584.746 40.0698 391.501 40.0698V45.0698C581.872 45.0698 736.838 202.321 741.361 398.198L746.36 398.082ZM391.501 40.0698C198.256 40.0698 41.224 199.65 36.6423 398.082L41.641 398.198C46.1636 202.321 201.13 45.0698 391.501 45.0698V40.0698ZM36.6423 398.082L36.54 402.514L41.5387 402.63L41.641 398.198L36.6423 398.082ZM36.5393 402.572V681H41.5393V402.572H36.5393ZM24.001 683.5H39.0393V678.5H24.001V683.5ZM21.501 397.768V681H26.501V397.768H21.501ZM24.1076 395.268H24.001V400.268H24.1076V395.268ZM391.501 24.4995C190.088 24.4995 26.385 190.828 21.6083 397.71L26.6069 397.826C31.3247 193.499 192.962 29.4995 391.501 29.4995V24.4995ZM761.394 397.71C756.617 190.828 592.914 24.4995 391.501 24.4995V29.4995C590.04 29.4995 751.677 193.499 756.395 397.826L761.394 397.71ZM759.001 395.268H758.894V400.268H759.001V395.268Z" fill="#1B1A1A" mask="url(#path-1-outside-1)"/>
<mask id="path-3-outside-2" maskUnits="userSpaceOnUse" x="5.00098" y="9" width="774" height="788" fill="black">
<rect fill="white" x="5.00098" y="9" width="774" height="788"/>
<path fill-rule="evenodd" clip-rule="evenodd" d="M392.001 12C600.956 12 770.929 181.722 775.89 393H776.001V794H760.221L760.298 777.5L760.287 777.499V397.937L760.18 393.382C755.424 190.787 592.421 28 392.001 28C191.581 28 28.578 190.787 23.8215 393.382L23.7145 397.936V681.781L8.00098 679.739V393H8.11239C13.0727 181.722 183.046 12 392.001 12Z"/>
</mask>
<path fill-rule="evenodd" clip-rule="evenodd" d="M392.001 12C600.956 12 770.929 181.722 775.89 393H776.001V794H760.221L760.298 777.5L760.287 777.499V397.937L760.18 393.382C755.424 190.787 592.421 28 392.001 28C191.581 28 28.578 190.787 23.8215 393.382L23.7145 397.936V681.781L8.00098 679.739V393H8.11239C13.0727 181.722 183.046 12 392.001 12Z" fill="#E30613"/>
<path d="M775.89 393L773.39 393.059L773.448 395.5H775.89V393ZM776.001 393H778.501V390.5H776.001V393ZM776.001 794V796.5H778.501V794H776.001ZM760.221 794L757.721 793.988L757.709 796.5H760.221V794ZM760.298 777.5L762.798 777.512L762.808 775.306L760.62 775.021L760.298 777.5ZM760.287 777.499H757.787V779.694L759.965 779.978L760.287 777.499ZM760.287 397.937H762.787V397.908L762.787 397.879L760.287 397.937ZM760.18 393.382L762.68 393.324L762.68 393.324L760.18 393.382ZM23.8215 393.382L26.3208 393.441L26.3208 393.441L23.8215 393.382ZM23.7145 397.936L21.2152 397.878L21.2145 397.907V397.936H23.7145ZM23.7145 681.781L23.3924 684.26L26.2145 684.626V681.781H23.7145ZM8.00098 679.739H5.50098V681.935L7.67881 682.218L8.00098 679.739ZM8.00098 393V390.5H5.50098V393H8.00098ZM8.11239 393V395.5H10.5544L10.6117 393.059L8.11239 393ZM778.389 392.941C773.398 180.347 602.355 9.5 392.001 9.5V14.5C599.556 14.5 768.461 183.096 773.39 393.059L778.389 392.941ZM776.001 390.5H775.89V395.5H776.001V390.5ZM778.501 794V393H773.501V794H778.501ZM760.221 796.5H776.001V791.5H760.221V796.5ZM757.798 777.489L757.721 793.988L762.721 794.012L762.798 777.512L757.798 777.489ZM759.965 779.978L759.975 779.979L760.62 775.021L760.61 775.02L759.965 779.978ZM762.787 777.499V397.937H757.787V777.499H762.787ZM762.787 397.879L762.68 393.324L757.681 393.441L757.788 397.996L762.787 397.879ZM762.68 393.324C757.892 189.413 593.82 25.5 392.001 25.5V30.5C591.022 30.5 752.956 192.162 757.681 393.441L762.68 393.324ZM392.001 25.5C190.182 25.5 26.1095 189.413 21.3221 393.324L26.3208 393.441C31.0464 192.162 192.98 30.5 392.001 30.5V25.5ZM21.3221 393.324L21.2152 397.878L26.2138 397.995L26.3208 393.441L21.3221 393.324ZM21.2145 397.936V681.781H26.2145V397.936H21.2145ZM7.67881 682.218L23.3924 684.26L24.0367 679.301L8.32315 677.259L7.67881 682.218ZM5.50098 393V679.739H10.501V393H5.50098ZM8.11239 390.5H8.00098V395.5H8.11239V390.5ZM392.001 9.5C181.647 9.5 10.6043 180.347 5.61307 392.941L10.6117 393.059C15.5412 183.096 184.446 14.5 392.001 14.5V9.5Z" fill="#1B1A1A" mask="url(#path-3-outside-2)"/>
<mask id="path-5-outside-3" maskUnits="userSpaceOnUse" x="39.001" y="41.8359" width="704" height="732" fill="black">
<rect fill="white" x="39.001" y="41.8359" width="704" height="732"/>
<path fill-rule="evenodd" clip-rule="evenodd" d="M740.001 400.752V771H725.678L725.656 760.404H725.72V405.364L725.622 401.109C721.299 211.852 573.154 59.7825 391.001 59.7825C208.848 59.7825 60.7025 211.852 56.3795 401.109L56.2823 405.363V689H42.001V400.752H42.1022C46.6105 203.384 201.092 44.8359 391.001 44.8359C580.91 44.8359 735.391 203.384 739.9 400.752H740.001Z"/>
</mask>
<path fill-rule="evenodd" clip-rule="evenodd" d="M740.001 400.752V771H725.678L725.656 760.404H725.72V405.364L725.622 401.109C721.299 211.852 573.154 59.7825 391.001 59.7825C208.848 59.7825 60.7025 211.852 56.3795 401.109L56.2823 405.363V689H42.001V400.752H42.1022C46.6105 203.384 201.092 44.8359 391.001 44.8359C580.91 44.8359 735.391 203.384 739.9 400.752H740.001Z" fill="#009FE3"/>
<path d="M740.001 771V773.5H742.501V771H740.001ZM740.001 400.752H742.501V398.252H740.001V400.752ZM725.678 771L723.178 771.005L723.184 773.5H725.678V771ZM725.656 760.404V757.904H723.15L723.156 760.41L725.656 760.404ZM725.72 760.404V762.904H728.22V760.404H725.72ZM725.72 405.364H728.22V405.335L728.219 405.307L725.72 405.364ZM725.622 401.109L723.123 401.166L723.123 401.166L725.622 401.109ZM56.3795 401.109L58.8788 401.166L58.8788 401.166L56.3795 401.109ZM56.2823 405.363L53.783 405.306L53.7823 405.335V405.363H56.2823ZM56.2823 689V691.5H58.7823V689H56.2823ZM42.001 689H39.501V691.5H42.001V689ZM42.001 400.752V398.252H39.501V400.752H42.001ZM42.1022 400.752V403.252H44.5458L44.6016 400.809L42.1022 400.752ZM739.9 400.752L737.4 400.809L737.456 403.252H739.9V400.752ZM742.501 771V400.752H737.501V771H742.501ZM725.678 773.5H740.001V768.5H725.678V773.5ZM723.156 760.41L723.178 771.005L728.178 770.995L728.156 760.399L723.156 760.41ZM725.656 762.904H725.72V757.904H725.656V762.904ZM728.22 760.404V405.364H723.22V760.404H728.22ZM728.219 405.307L728.122 401.052L723.123 401.166L723.22 405.421L728.219 405.307ZM728.122 401.052C723.77 210.542 574.615 57.2825 391.001 57.2825V62.2825C571.693 62.2825 718.829 213.162 723.123 401.166L728.122 401.052ZM391.001 57.2825C207.387 57.2825 58.2317 210.542 53.8801 401.052L58.8788 401.166C63.1732 213.162 210.309 62.2825 391.001 62.2825V57.2825ZM53.8801 401.052L53.783 405.306L58.7817 405.42L58.8788 401.166L53.8801 401.052ZM53.7823 405.363V689H58.7823V405.363H53.7823ZM42.001 691.5H56.2823V686.5H42.001V691.5ZM39.501 400.752V689H44.501V400.752H39.501ZM42.1022 398.252H42.001V403.252H42.1022V398.252ZM391.001 42.3359C199.631 42.3359 44.1397 202.074 39.6029 400.695L44.6016 400.809C49.0812 204.694 202.553 47.3359 391.001 47.3359V42.3359ZM742.399 400.695C737.862 202.074 582.371 42.3359 391.001 42.3359V47.3359C579.449 47.3359 732.921 204.694 737.4 400.809L742.399 400.695ZM740.001 398.252H739.9V403.252H740.001V398.252Z" fill="#1B1A1A" mask="url(#path-5-outside-3)"/>
<mask id="path-7-outside-4" maskUnits="userSpaceOnUse" x="5.00098" y="9" width="774" height="788" fill="black">
<rect fill="white" x="5.00098" y="9" width="774" height="788"/>
<path fill-rule="evenodd" clip-rule="evenodd" d="M392.001 12C600.956 12 770.929 181.722 775.89 393H776.001V794H760.221L760.298 777.5L760.287 777.499V397.937L760.18 393.382C755.424 190.787 592.421 28 392.001 28C191.581 28 28.578 190.787 23.8215 393.382L23.7145 397.936V681.781L8.00098 679.739V393H8.11239C13.0727 181.722 183.046 12 392.001 12Z"/>
</mask>
<path fill-rule="evenodd" clip-rule="evenodd" d="M392.001 12C600.956 12 770.929 181.722 775.89 393H776.001V794H760.221L760.298 777.5L760.287 777.499V397.937L760.18 393.382C755.424 190.787 592.421 28 392.001 28C191.581 28 28.578 190.787 23.8215 393.382L23.7145 397.936V681.781L8.00098 679.739V393H8.11239C13.0727 181.722 183.046 12 392.001 12Z" fill="#E30613"/>
<path d="M775.89 393L773.39 393.059L773.448 395.5H775.89V393ZM776.001 393H778.501V390.5H776.001V393ZM776.001 794V796.5H778.501V794H776.001ZM760.221 794L757.721 793.988L757.709 796.5H760.221V794ZM760.298 777.5L762.798 777.512L762.808 775.306L760.62 775.021L760.298 777.5ZM760.287 777.499H757.787V779.694L759.965 779.978L760.287 777.499ZM760.287 397.937H762.787V397.908L762.787 397.879L760.287 397.937ZM760.18 393.382L762.68 393.324L762.68 393.324L760.18 393.382ZM23.8215 393.382L26.3208 393.441L26.3208 393.441L23.8215 393.382ZM23.7145 397.936L21.2152 397.878L21.2145 397.907V397.936H23.7145ZM23.7145 681.781L23.3924 684.26L26.2145 684.626V681.781H23.7145ZM8.00098 679.739H5.50098V681.935L7.67881 682.218L8.00098 679.739ZM8.00098 393V390.5H5.50098V393H8.00098ZM8.11239 393V395.5H10.5544L10.6117 393.059L8.11239 393ZM778.389 392.941C773.398 180.347 602.355 9.5 392.001 9.5V14.5C599.556 14.5 768.461 183.096 773.39 393.059L778.389 392.941ZM776.001 390.5H775.89V395.5H776.001V390.5ZM778.501 794V393H773.501V794H778.501ZM760.221 796.5H776.001V791.5H760.221V796.5ZM757.798 777.489L757.721 793.988L762.721 794.012L762.798 777.512L757.798 777.489ZM759.965 779.978L759.975 779.979L760.62 775.021L760.61 775.02L759.965 779.978ZM762.787 777.499V397.937H757.787V777.499H762.787ZM762.787 397.879L762.68 393.324L757.681 393.441L757.788 397.996L762.787 397.879ZM762.68 393.324C757.892 189.413 593.82 25.5 392.001 25.5V30.5C591.022 30.5 752.956 192.162 757.681 393.441L762.68 393.324ZM392.001 25.5C190.182 25.5 26.1095 189.413 21.3221 393.324L26.3208 393.441C31.0464 192.162 192.98 30.5 392.001 30.5V25.5ZM21.3221 393.324L21.2152 397.878L26.2138 397.995L26.3208 393.441L21.3221 393.324ZM21.2145 397.936V681.781H26.2145V397.936H21.2145ZM7.67881 682.218L23.3924 684.26L24.0367 679.301L8.32315 677.259L7.67881 682.218ZM5.50098 393V679.739H10.501V393H5.50098ZM8.11239 390.5H8.00098V395.5H8.11239V390.5ZM392.001 9.5C181.647 9.5 10.6043 180.347 5.61307 392.941L10.6117 393.059C15.5412 183.096 184.446 14.5 392.001 14.5V9.5Z" fill="#1B1A1A" mask="url(#path-7-outside-4)"/>
<path d="M687 293.444C687 320.199 708.688 341.889 735.444 341.889C762.199 341.889 783.889 320.201 783.889 293.444C783.887 266.688 762.199 245 735.444 245C708.688 245 687 266.688 687 293.444Z" fill="#FF8A00" stroke="#1B1A1A" stroke-width="3" stroke-miterlimit="10"/>
<path d="M702.696 293.354C702.696 311.391 717.317 326.011 735.354 326.011C753.391 326.011 768.011 311.391 768.011 293.354C768.011 275.317 753.391 260.697 735.354 260.697C717.317 260.697 702.696 275.317 702.696 293.354Z" fill="#FFDE00" stroke="#1B1A1A" stroke-width="3" stroke-miterlimit="10"/>
<path d="M717.52 293.443C717.52 303.343 725.545 311.369 735.445 311.369C745.345 311.369 753.371 303.343 753.371 293.443C753.371 283.543 745.345 275.518 735.445 275.518C725.545 275.518 717.52 283.543 717.52 293.443Z" fill="#FF8A00" stroke="#1B1A1A" stroke-width="3" stroke-miterlimit="10"/>
<path d="M738.727 291.547L754.908 263.521C756.368 260.992 754.544 257.832 751.623 257.832H719.264C716.345 257.832 714.518 260.992 715.979 263.521L732.159 291.547C733.618 294.074 737.269 294.074 738.727 291.547Z" fill="#FFDE00" stroke="#1B1A1A" stroke-width="3" stroke-miterlimit="10"/>
<path d="M738.726 279.7L744.438 269.809C745.899 267.279 744.075 264.12 741.154 264.12H729.732C726.813 264.12 724.987 267.279 726.447 269.809L732.159 279.702C733.617 282.229 737.268 282.229 738.726 279.7Z" fill="#FF8A00" stroke="#1B1A1A" stroke-width="3" stroke-miterlimit="10"/>
<path d="M732.16 295.339L715.979 323.365C714.519 325.894 716.343 329.054 719.264 329.054H751.625C754.544 329.054 756.371 325.894 754.91 323.365L738.729 295.339C737.269 292.812 733.618 292.812 732.16 295.339Z" fill="#FFDE00" stroke="#1B1A1A" stroke-width="3" stroke-miterlimit="10"/>
<path d="M732.159 307.322L726.447 317.215C724.987 319.745 726.811 322.904 729.732 322.904H741.154C744.073 322.904 745.899 319.745 744.439 317.215L738.727 307.322C737.269 304.792 733.617 304.792 732.159 307.322Z" fill="#FF8A00" stroke="#1B1A1A" stroke-width="3" stroke-miterlimit="10"/>
<path d="M2 293.444C2 320.199 23.6881 341.889 50.4444 341.889C77.1985 341.889 98.8889 320.201 98.8889 293.444C98.8866 266.688 77.1985 245 50.4444 245C23.6881 245 2 266.688 2 293.444Z" fill="#FF8A00" stroke="#1B1A1A" stroke-width="3" stroke-miterlimit="10" stroke-linecap="round" stroke-linejoin="round"/>
<path d="M7.3335 293.444C7.3335 317.252 26.633 336.552 50.4412 336.552C74.2494 336.552 93.5489 317.252 93.5489 293.444C93.5489 269.636 74.2494 250.336 50.4412 250.336C26.6353 250.334 7.3335 269.636 7.3335 293.444Z" fill="#FFDE00" stroke="#1B1A1A" stroke-width="3" stroke-miterlimit="10" stroke-linecap="round" stroke-linejoin="round"/>
<path d="M51.4969 259.636C39.1037 259.636 28.61 268.876 25.0522 281.626C24.2173 284.622 23.3006 287.593 22.1586 290.487L19.372 297.55C18.1504 300.644 20.432 303.995 23.7578 303.995V312.634C23.7578 317.457 27.6682 321.37 32.4931 321.37H43.4804C66.1922 321.37 79.2405 308.59 79.2405 291.171C79.2382 273.756 66.8178 259.636 51.4969 259.636Z" fill="#FF8A00" stroke="#1B1A1A" stroke-width="3" stroke-miterlimit="10" stroke-linecap="round" stroke-linejoin="round"/>
<path d="M47.9229 331.8C47.9229 331.163 43.6304 321.943 43.6304 321.943L46.5831 318.925C54.206 311.131 64.5132 306.541 75.405 306.088L77.3295 312.564L47.9229 331.8Z" fill="#FF8A00" stroke="#1B1A1A" stroke-width="3" stroke-miterlimit="10" stroke-linecap="round" stroke-linejoin="round"/>
<path d="M62.7977 298.774C66.9449 298.774 70.3069 295.412 70.3069 291.265C70.3069 287.117 66.9449 283.755 62.7977 283.755C58.6505 283.755 55.2886 287.117 55.2886 291.265C55.2886 295.412 58.6505 298.774 62.7977 298.774Z" fill="#FFDE00" stroke="#1B1A1A" stroke-width="3" stroke-miterlimit="10"/>
<path d="M42.2089 289.085C46.3561 289.085 49.718 285.723 49.718 281.576C49.718 277.428 46.3561 274.066 42.2089 274.066C38.0617 274.066 34.6997 277.428 34.6997 281.576C34.6997 285.723 38.0617 289.085 42.2089 289.085Z" fill="#FFDE00" stroke="#1B1A1A" stroke-width="3" stroke-miterlimit="10"/>
<path d="M40.9979 312.096C45.1451 312.096 48.5071 308.734 48.5071 304.587C48.5071 300.44 45.1451 297.078 40.9979 297.078C36.8507 297.078 33.4888 300.44 33.4888 304.587C33.4888 308.734 36.8507 312.096 40.9979 312.096Z" fill="#FFDE00" stroke="#1B1A1A" stroke-width="3" stroke-miterlimit="10"/>
<path d="M711.889 152.444C711.889 125.688 690.2 104 663.446 104C636.689 104 615 125.688 615 152.444C615 179.199 636.689 200.889 663.446 200.889C690.2 200.887 711.889 179.199 711.889 152.444Z" fill="#FFDE00" stroke="#1B1A1A" stroke-width="3" stroke-miterlimit="10" stroke-linecap="round" stroke-linejoin="round"/>
<path d="M706.435 152.444C706.435 128.661 687.157 109.383 663.375 109.383C639.591 109.383 620.312 128.661 620.312 152.444C620.312 176.226 639.591 195.506 663.375 195.506C687.157 195.504 706.435 176.226 706.435 152.444Z" fill="#FF8A00" stroke="#1B1A1A" stroke-width="3" stroke-miterlimit="10" stroke-linecap="round" stroke-linejoin="round"/>
<path d="M644.456 185.235C654.945 185.235 663.448 176.732 663.448 166.243C663.448 176.732 671.952 185.235 682.441 185.235C682.605 185.235 682.769 185.233 682.93 185.229C695.902 184.901 703.884 170.856 697.797 159.398L663.446 109.866L629.096 159.398C623.008 170.856 630.991 184.901 643.962 185.229C644.128 185.233 644.292 185.235 644.456 185.235Z" fill="#FFDE00" stroke="#1B1A1A" stroke-width="3" stroke-miterlimit="10" stroke-linecap="round" stroke-linejoin="round"/>
<path d="M680.832 125.951C671.227 125.951 663.442 133.736 663.442 143.34C663.442 133.736 655.658 125.951 646.053 125.951C645.903 125.951 645.753 125.954 645.605 125.956C633.73 126.256 626.421 139.116 631.995 149.605L663.445 194.953L694.89 149.607C700.464 139.116 693.155 126.259 681.28 125.958C681.13 125.954 680.982 125.951 680.832 125.951Z" fill="#FF8A00" stroke="#1B1A1A" stroke-width="3" stroke-miterlimit="10" stroke-linecap="round" stroke-linejoin="round"/>
<path d="M650.251 178.327C657.54 178.327 663.45 172.417 663.45 165.128C663.45 172.417 669.36 178.327 676.649 178.327C676.762 178.327 676.876 178.324 676.99 178.322C686.003 178.095 691.551 168.333 687.32 160.372L663.45 125.951L639.58 160.372C635.348 168.333 640.897 178.092 649.91 178.322C650.023 178.324 650.137 178.327 650.251 178.327Z" fill="#FFDE00" stroke="#1B1A1A" stroke-width="3" stroke-miterlimit="10" stroke-linecap="round" stroke-linejoin="round"/>
<path d="M672.778 136.549C667.627 136.549 663.451 140.725 663.451 145.875C663.451 140.725 659.274 136.549 654.124 136.549C654.044 136.549 653.962 136.549 653.883 136.551C647.513 136.712 643.593 143.61 646.583 149.235L663.451 173.558L680.319 149.235C683.308 143.61 679.389 136.712 673.019 136.551C672.937 136.551 672.857 136.549 672.778 136.549Z" fill="#FF8A00" stroke="#1B1A1A" stroke-width="3" stroke-miterlimit="10" stroke-linecap="round" stroke-linejoin="round"/>
<path d="M344.889 50.4444C344.889 23.6881 323.2 2 296.446 2C269.689 2 248 23.6881 248 50.4444C248 77.1985 269.689 98.8889 296.446 98.8889C323.2 98.8866 344.889 77.1985 344.889 50.4444Z" fill="#FFDE00" stroke="#1B1A1A" stroke-width="3" stroke-miterlimit="10" stroke-linecap="round" stroke-linejoin="round"/>
<path d="M339.435 50.4445C339.435 26.6611 320.157 7.38281 296.375 7.38281C272.591 7.38281 253.312 26.6611 253.312 50.4445C253.312 74.226 272.591 93.5063 296.375 93.5063C320.157 93.5043 339.435 74.226 339.435 50.4445Z" fill="#FF8A00" stroke="#1B1A1A" stroke-width="3" stroke-miterlimit="10" stroke-linecap="round" stroke-linejoin="round"/>
<path d="M277.455 83.2357C287.944 83.2357 296.448 74.7325 296.448 64.2433C296.448 74.7325 304.951 83.2357 315.441 83.2357C315.605 83.2357 315.768 83.2335 315.93 83.2289C328.901 82.9013 336.884 68.8566 330.796 57.3984L296.446 7.86658L262.095 57.3984C256.008 68.8566 263.99 82.9013 276.961 83.2289C277.127 83.2335 277.291 83.2357 277.455 83.2357Z" fill="#FFDE00" stroke="#1B1A1A" stroke-width="3" stroke-miterlimit="10" stroke-linecap="round" stroke-linejoin="round"/>
<path d="M313.832 23.9515C304.227 23.9515 296.442 31.736 296.442 41.3402C296.442 31.736 288.658 23.9515 279.053 23.9515C278.903 23.9515 278.753 23.9538 278.605 23.9561C266.73 24.2564 259.421 37.1159 264.995 47.6051L296.445 92.9535L327.89 47.6073C333.464 37.1159 326.155 24.2586 314.28 23.9584C314.13 23.9538 313.982 23.9515 313.832 23.9515Z" fill="#FF8A00" stroke="#1B1A1A" stroke-width="3" stroke-miterlimit="10" stroke-linecap="round" stroke-linejoin="round"/>
<path d="M283.25 76.3269C290.539 76.3269 296.449 70.4169 296.449 63.1284C296.449 70.4169 302.359 76.3269 309.648 76.3269C309.762 76.3269 309.876 76.3246 309.989 76.3223C319.002 76.0948 324.551 66.3336 320.319 58.3718L296.449 23.9515L272.579 58.3718C268.348 66.3336 273.896 76.0926 282.909 76.3223C283.023 76.3246 283.137 76.3269 283.25 76.3269Z" fill="#FFDE00" stroke="#1B1A1A" stroke-width="3" stroke-miterlimit="10" stroke-linecap="round" stroke-linejoin="round"/>
<path d="M305.778 34.5488C300.627 34.5488 296.451 38.7254 296.451 43.8756C296.451 38.7254 292.274 34.5488 287.124 34.5488C287.044 34.5488 286.962 34.5488 286.883 34.5511C280.513 34.7126 276.593 41.6099 279.583 47.2355L296.451 71.5578L313.319 47.2355C316.308 41.6099 312.389 34.7126 306.019 34.5511C305.937 34.5511 305.857 34.5488 305.778 34.5488Z" fill="#FF8A00" stroke="#1B1A1A" stroke-width="3" stroke-miterlimit="10" stroke-linecap="round" stroke-linejoin="round"/>
<path d="M491.444 98.8889C518.199 98.8889 539.889 77.2008 539.889 50.4445C539.889 23.6904 518.201 2.00003 491.444 2.00003C464.688 2.00231 443 23.6904 443 50.4445C443 77.2008 464.688 98.8889 491.444 98.8889Z" fill="#FFDE00" stroke="#1B1A1A" stroke-width="3" stroke-miterlimit="10" stroke-linecap="round" stroke-linejoin="round"/>
<path d="M491.943 93.4642C515.725 93.4642 535.005 74.184 535.005 50.4025C535.005 26.621 515.725 7.34077 491.943 7.34077C468.162 7.34077 448.881 26.621 448.881 50.4025C448.881 74.1863 468.159 93.4642 491.943 93.4642Z" fill="#FF8A00" stroke="#1B1A1A" stroke-width="3" stroke-miterlimit="10" stroke-linecap="round" stroke-linejoin="round"/>
<path d="M503.202 75.1427C516.78 75.1427 527.787 64.1362 527.787 50.5583C527.787 36.9804 516.78 25.9739 503.202 25.9739C489.624 25.9755 478.618 36.982 478.618 50.5583C478.618 64.1362 489.624 75.1427 503.202 75.1427Z" fill="#FFDE00" stroke="#1B1A1A" stroke-width="3" stroke-miterlimit="10" stroke-linecap="round" stroke-linejoin="round"/>
<path d="M475.121 40.736L475.121 59.9187C475.121 59.9187 488.558 60.9084 493.997 55.8918C496.992 53.1285 498.373 51.8825 503.762 51.8825C508.639 51.8825 509.033 53.9806 510.252 53.9616C510.252 53.9616 516.723 56.4415 516.723 50.3273C516.723 44.2131 510.252 46.693 510.252 46.693C509.033 46.6741 508.639 48.7721 503.762 48.7721C498.373 48.7721 496.992 47.5262 493.997 44.7629C488.557 39.7456 475.121 40.736 475.121 40.736Z" fill="#FF8A00" stroke="#1B1A1A" stroke-width="3" stroke-miterlimit="10"/>
<path d="M470.928 45.7815L450.421 45.7815V54.8696L470.928 54.8696V45.7815Z" fill="#FFDE00" stroke="#1B1A1A" stroke-width="3" stroke-miterlimit="10" stroke-linecap="round" stroke-linejoin="round"/>
<path d="M467.568 62.1649C474.969 67.898 488.27 74.6423 502.144 79.8051L502.144 20.8496C488.27 26.015 474.969 32.7568 467.568 38.4899C464.58 40.8064 462.75 43.9771 462.073 47.3379L462.073 53.3143C462.752 56.6776 464.58 59.8483 467.568 62.1649Z" fill="#FFDE00" stroke="#1B1A1A" stroke-width="3" stroke-miterlimit="10"/>
<path d="M495.27 72.9564C498.831 72.9564 497.75 62.7854 497.75 50.2362C497.75 37.6871 498.831 27.516 495.27 27.516C491.709 27.516 484.855 37.6871 484.855 50.2362C484.855 62.7854 491.709 72.9564 495.27 72.9564Z" fill="#FF8A00" stroke="#1B1A1A" stroke-width="3" stroke-miterlimit="10" stroke-linecap="round" stroke-linejoin="round"/>
<path d="M478.725 61.6283C482.268 61.6283 481.192 56.5368 481.192 50.2548C481.192 43.9729 482.268 38.8814 478.725 38.8814C475.181 38.8814 468.362 43.9729 468.362 50.2548C468.362 56.5368 475.181 61.6283 478.725 61.6283Z" fill="#FF8A00" stroke="#1B1A1A" stroke-width="3" stroke-miterlimit="10" stroke-linecap="round" stroke-linejoin="round"/>
<path d="M79 152.444C79 179.199 100.688 200.889 127.444 200.889C154.199 200.889 175.889 179.201 175.889 152.444C175.887 125.688 154.199 104 127.444 104C100.688 104 79 125.688 79 152.444Z" fill="#FF8A00" stroke="#1B1A1A" stroke-width="3" stroke-miterlimit="10"/>
<path d="M94.6953 152.354C94.6953 170.391 109.316 185.011 127.353 185.011C145.39 185.011 160.01 170.391 160.01 152.354C160.01 134.317 145.39 119.697 127.353 119.697C109.316 119.697 94.6953 134.317 94.6953 152.354Z" fill="#FFDE00" stroke="#1B1A1A" stroke-width="3" stroke-miterlimit="10"/>
<path d="M109.519 152.443C109.519 162.343 117.544 170.369 127.444 170.369C137.344 170.369 145.37 162.343 145.37 152.443C145.37 142.543 137.344 134.518 127.444 134.518C117.544 134.518 109.519 142.543 109.519 152.443Z" fill="#FF8A00" stroke="#1B1A1A" stroke-width="3" stroke-miterlimit="10"/>
<path d="M130.726 150.547L146.907 122.521C148.368 119.992 146.543 116.832 143.622 116.832H111.263C108.344 116.832 106.518 119.992 107.978 122.521L124.159 150.547C125.617 153.074 129.268 153.074 130.726 150.547Z" fill="#FFDE00" stroke="#1B1A1A" stroke-width="3" stroke-miterlimit="10"/>
<path d="M130.726 138.7L136.438 128.809C137.899 126.279 136.075 123.12 133.154 123.12H121.732C118.813 123.12 116.987 126.279 118.447 128.809L124.159 138.702C125.617 141.229 129.268 141.229 130.726 138.7Z" fill="#FF8A00" stroke="#1B1A1A" stroke-width="3" stroke-miterlimit="10"/>
<path d="M124.159 154.339L107.979 182.365C106.518 184.894 108.342 188.054 111.263 188.054H143.625C146.543 188.054 148.37 184.894 146.91 182.365L130.729 154.339C129.269 151.812 125.617 151.812 124.159 154.339Z" fill="#FFDE00" stroke="#1B1A1A" stroke-width="3" stroke-miterlimit="10"/>
<path d="M124.159 166.322L118.447 176.215C116.987 178.745 118.811 181.904 121.732 181.904H133.154C136.073 181.904 137.899 178.745 136.439 176.215L130.727 166.322C129.269 163.792 125.617 163.792 124.159 166.322Z" fill="#FF8A00" stroke="#1B1A1A" stroke-width="3" stroke-miterlimit="10"/>
</svg>
