<svg width="878" height="1138" viewBox="0 0 878 1138" fill="none" xmlns="http://www.w3.org/2000/svg">
<mask id="path-1-outside-1" maskUnits="userSpaceOnUse" x="111.001" y="14.9995" width="741" height="762" fill="black">
<rect fill="white" x="111.001" y="14.9995" width="741" height="762"/>
<path fill-rule="evenodd" clip-rule="evenodd" d="M849.001 388.768V774.467H833.576L833.622 763.429H833.963V681.245L834.001 672H833.963V393.573L833.86 389.14C829.308 191.985 673.309 33.5698 481.501 33.5698C289.693 33.5698 133.694 191.985 129.142 389.14L129.039 393.572V672H114.001V388.768H114.108C118.855 183.164 281.525 17.9995 481.501 17.9995C681.477 17.9995 844.147 183.164 848.894 388.768H849.001Z"/>
</mask>
<path fill-rule="evenodd" clip-rule="evenodd" d="M849.001 388.768V774.467H833.576L833.622 763.429H833.963V681.245L834.001 672H833.963V393.573L833.86 389.14C829.308 191.985 673.309 33.5698 481.501 33.5698C289.693 33.5698 133.694 191.985 129.142 389.14L129.039 393.572V672H114.001V388.768H114.108C118.855 183.164 281.525 17.9995 481.501 17.9995C681.477 17.9995 844.147 183.164 848.894 388.768H849.001Z" fill="#FFDE00"/>
<path d="M849.001 774.467V776.967H851.501V774.467H849.001ZM849.001 388.768H851.501V386.268H849.001V388.768ZM833.576 774.467L831.076 774.457L831.066 776.967H833.576V774.467ZM833.622 763.429V760.929H831.132L831.122 763.419L833.622 763.429ZM833.963 763.429V765.929H836.463V763.429H833.963ZM833.963 681.245L831.463 681.235V681.245H833.963ZM834.001 672L836.501 672.01L836.511 669.5H834.001V672ZM833.963 672H831.463V674.5H833.963V672ZM833.963 393.573H836.463V393.544L836.462 393.515L833.963 393.573ZM833.86 389.14L831.361 389.198L831.361 389.198L833.86 389.14ZM129.142 389.14L131.641 389.198L131.641 389.198L129.142 389.14ZM129.039 393.572L126.54 393.514L126.539 393.543V393.572H129.039ZM129.039 672V674.5H131.539V672H129.039ZM114.001 672H111.501V674.5H114.001V672ZM114.001 388.768V386.268H111.501V388.768H114.001ZM114.108 388.768V391.268H116.551L116.607 388.826L114.108 388.768ZM848.894 388.768L846.395 388.826L846.451 391.268H848.894V388.768ZM851.501 774.467V388.768H846.501V774.467H851.501ZM833.576 776.967H849.001V771.967H833.576V776.967ZM831.122 763.419L831.076 774.457L836.076 774.478L836.122 763.44L831.122 763.419ZM833.622 765.929H833.963V760.929H833.622V765.929ZM836.463 763.429V681.245H831.463V763.429H836.463ZM831.501 671.989L831.463 681.235L836.463 681.255L836.501 672.01L831.501 671.989ZM833.963 674.5H834.001V669.5H833.963V674.5ZM836.463 672V393.573H831.463V672H836.463ZM836.462 393.515L836.36 389.082L831.361 389.198L831.463 393.63L836.462 393.515ZM836.36 389.082C831.778 190.65 674.746 31.0698 481.501 31.0698V36.0698C671.872 36.0698 826.838 193.321 831.361 389.198L836.36 389.082ZM481.501 31.0698C288.256 31.0698 131.224 190.65 126.642 389.082L131.641 389.198C136.164 193.321 291.13 36.0698 481.501 36.0698V31.0698ZM126.642 389.082L126.54 393.514L131.539 393.63L131.641 389.198L126.642 389.082ZM126.539 393.572V672H131.539V393.572H126.539ZM114.001 674.5H129.039V669.5H114.001V674.5ZM111.501 388.768V672H116.501V388.768H111.501ZM114.108 386.268H114.001V391.268H114.108V386.268ZM481.501 15.4995C280.088 15.4995 116.385 181.828 111.608 388.71L116.607 388.826C121.325 184.499 282.962 20.4995 481.501 20.4995V15.4995ZM851.394 388.71C846.617 181.828 682.914 15.4995 481.501 15.4995V20.4995C680.04 20.4995 841.677 184.499 846.395 388.826L851.394 388.71ZM849.001 386.268H848.894V391.268H849.001V386.268Z" fill="#1B1A1A" mask="url(#path-1-outside-1)"/>
<mask id="path-3-outside-2" maskUnits="userSpaceOnUse" x="95.001" y="0" width="774" height="788" fill="black">
<rect fill="white" x="95.001" width="774" height="788"/>
<path fill-rule="evenodd" clip-rule="evenodd" d="M482.001 3C690.956 3 860.929 172.722 865.89 384H866.001V785H850.221L850.298 768.5L850.287 768.499V388.937L850.18 384.382C845.424 181.787 682.421 19 482.001 19C281.581 19 118.578 181.787 113.821 384.382L113.715 388.936V672.781L98.001 670.739V384H98.1124C103.073 172.722 273.046 3 482.001 3Z"/>
</mask>
<path fill-rule="evenodd" clip-rule="evenodd" d="M482.001 3C690.956 3 860.929 172.722 865.89 384H866.001V785H850.221L850.298 768.5L850.287 768.499V388.937L850.18 384.382C845.424 181.787 682.421 19 482.001 19C281.581 19 118.578 181.787 113.821 384.382L113.715 388.936V672.781L98.001 670.739V384H98.1124C103.073 172.722 273.046 3 482.001 3Z" fill="#E30613"/>
<path d="M865.89 384L863.39 384.059L863.448 386.5H865.89V384ZM866.001 384H868.501V381.5H866.001V384ZM866.001 785V787.5H868.501V785H866.001ZM850.221 785L847.721 784.988L847.709 787.5H850.221V785ZM850.298 768.5L852.798 768.512L852.808 766.306L850.62 766.021L850.298 768.5ZM850.287 768.499H847.787V770.694L849.965 770.978L850.287 768.499ZM850.287 388.937H852.787V388.908L852.787 388.879L850.287 388.937ZM850.18 384.382L852.68 384.324L852.68 384.324L850.18 384.382ZM113.821 384.382L116.321 384.441L116.321 384.441L113.821 384.382ZM113.715 388.936L111.215 388.878L111.215 388.907V388.936H113.715ZM113.715 672.781L113.392 675.26L116.215 675.626V672.781H113.715ZM98.001 670.739H95.501V672.935L97.6788 673.218L98.001 670.739ZM98.001 384V381.5H95.501V384H98.001ZM98.1124 384V386.5H100.554L100.612 384.059L98.1124 384ZM868.389 383.941C863.398 171.347 692.355 0.5 482.001 0.5V5.5C689.556 5.5 858.461 174.096 863.39 384.059L868.389 383.941ZM866.001 381.5H865.89V386.5H866.001V381.5ZM868.501 785V384H863.501V785H868.501ZM850.221 787.5H866.001V782.5H850.221V787.5ZM847.798 768.489L847.721 784.988L852.721 785.012L852.798 768.512L847.798 768.489ZM849.965 770.978L849.975 770.979L850.62 766.021L850.61 766.02L849.965 770.978ZM852.787 768.499V388.937H847.787V768.499H852.787ZM852.787 388.879L852.68 384.324L847.681 384.441L847.788 388.996L852.787 388.879ZM852.68 384.324C847.892 180.413 683.82 16.5 482.001 16.5V21.5C681.022 21.5 842.956 183.162 847.681 384.441L852.68 384.324ZM482.001 16.5C280.182 16.5 116.11 180.413 111.322 384.324L116.321 384.441C121.046 183.162 282.98 21.5 482.001 21.5V16.5ZM111.322 384.324L111.215 388.878L116.214 388.995L116.321 384.441L111.322 384.324ZM111.215 388.936V672.781H116.215V388.936H111.215ZM97.6788 673.218L113.392 675.26L114.037 670.301L98.3231 668.259L97.6788 673.218ZM95.501 384V670.739H100.501V384H95.501ZM98.1124 381.5H98.001V386.5H98.1124V381.5ZM482.001 0.5C271.647 0.5 100.604 171.347 95.6131 383.941L100.612 384.059C105.541 174.096 274.446 5.5 482.001 5.5V0.5Z" fill="#1B1A1A" mask="url(#path-3-outside-2)"/>
<mask id="path-5-outside-3" maskUnits="userSpaceOnUse" x="129.001" y="32.8359" width="704" height="732" fill="black">
<rect fill="white" x="129.001" y="32.8359" width="704" height="732"/>
<path fill-rule="evenodd" clip-rule="evenodd" d="M830.001 391.752V762H815.678L815.656 751.404H815.72V396.364L815.622 392.109C811.299 202.852 663.154 50.7825 481.001 50.7825C298.848 50.7825 150.702 202.852 146.379 392.109L146.282 396.363V680H132.001V391.752H132.102C136.61 194.384 291.092 35.8359 481.001 35.8359C670.91 35.8359 825.391 194.384 829.9 391.752H830.001Z"/>
</mask>
<path fill-rule="evenodd" clip-rule="evenodd" d="M830.001 391.752V762H815.678L815.656 751.404H815.72V396.364L815.622 392.109C811.299 202.852 663.154 50.7825 481.001 50.7825C298.848 50.7825 150.702 202.852 146.379 392.109L146.282 396.363V680H132.001V391.752H132.102C136.61 194.384 291.092 35.8359 481.001 35.8359C670.91 35.8359 825.391 194.384 829.9 391.752H830.001Z" fill="#009FE3"/>
<path d="M830.001 762V764.5H832.501V762H830.001ZM830.001 391.752H832.501V389.252H830.001V391.752ZM815.678 762L813.178 762.005L813.184 764.5H815.678V762ZM815.656 751.404V748.904H813.15L813.156 751.41L815.656 751.404ZM815.72 751.404V753.904H818.22V751.404H815.72ZM815.72 396.364H818.22V396.335L818.219 396.307L815.72 396.364ZM815.622 392.109L813.123 392.166L813.123 392.166L815.622 392.109ZM146.379 392.109L148.879 392.166L148.879 392.166L146.379 392.109ZM146.282 396.363L143.783 396.306L143.782 396.335V396.363H146.282ZM146.282 680V682.5H148.782V680H146.282ZM132.001 680H129.501V682.5H132.001V680ZM132.001 391.752V389.252H129.501V391.752H132.001ZM132.102 391.752V394.252H134.546L134.602 391.809L132.102 391.752ZM829.9 391.752L827.4 391.809L827.456 394.252H829.9V391.752ZM832.501 762V391.752H827.501V762H832.501ZM815.678 764.5H830.001V759.5H815.678V764.5ZM813.156 751.41L813.178 762.005L818.178 761.995L818.156 751.399L813.156 751.41ZM815.656 753.904H815.72V748.904H815.656V753.904ZM818.22 751.404V396.364H813.22V751.404H818.22ZM818.219 396.307L818.122 392.052L813.123 392.166L813.22 396.421L818.219 396.307ZM818.122 392.052C813.77 201.542 664.615 48.2825 481.001 48.2825V53.2825C661.693 53.2825 808.829 204.162 813.123 392.166L818.122 392.052ZM481.001 48.2825C297.387 48.2825 148.232 201.542 143.88 392.052L148.879 392.166C153.173 204.162 300.309 53.2825 481.001 53.2825V48.2825ZM143.88 392.052L143.783 396.306L148.782 396.42L148.879 392.166L143.88 392.052ZM143.782 396.363V680H148.782V396.363H143.782ZM132.001 682.5H146.282V677.5H132.001V682.5ZM129.501 391.752V680H134.501V391.752H129.501ZM132.102 389.252H132.001V394.252H132.102V389.252ZM481.001 33.3359C289.631 33.3359 134.14 193.074 129.603 391.695L134.602 391.809C139.081 195.694 292.553 38.3359 481.001 38.3359V33.3359ZM832.399 391.695C827.862 193.074 672.371 33.3359 481.001 33.3359V38.3359C669.449 38.3359 822.921 195.694 827.4 391.809L832.399 391.695ZM830.001 389.252H829.9V394.252H830.001V389.252Z" fill="#1B1A1A" mask="url(#path-5-outside-3)"/>
<mask id="path-7-outside-4" maskUnits="userSpaceOnUse" x="95.001" y="0" width="774" height="788" fill="black">
<rect fill="white" x="95.001" width="774" height="788"/>
<path fill-rule="evenodd" clip-rule="evenodd" d="M482.001 3C690.956 3 860.929 172.722 865.89 384H866.001V785H850.221L850.298 768.5L850.287 768.499V388.937L850.18 384.382C845.424 181.787 682.421 19 482.001 19C281.581 19 118.578 181.787 113.821 384.382L113.715 388.936V672.781L98.001 670.739V384H98.1124C103.073 172.722 273.046 3 482.001 3Z"/>
</mask>
<path fill-rule="evenodd" clip-rule="evenodd" d="M482.001 3C690.956 3 860.929 172.722 865.89 384H866.001V785H850.221L850.298 768.5L850.287 768.499V388.937L850.18 384.382C845.424 181.787 682.421 19 482.001 19C281.581 19 118.578 181.787 113.821 384.382L113.715 388.936V672.781L98.001 670.739V384H98.1124C103.073 172.722 273.046 3 482.001 3Z" fill="#E30613"/>
<path d="M865.89 384L863.39 384.059L863.448 386.5H865.89V384ZM866.001 384H868.501V381.5H866.001V384ZM866.001 785V787.5H868.501V785H866.001ZM850.221 785L847.721 784.988L847.709 787.5H850.221V785ZM850.298 768.5L852.798 768.512L852.808 766.306L850.62 766.021L850.298 768.5ZM850.287 768.499H847.787V770.694L849.965 770.978L850.287 768.499ZM850.287 388.937H852.787V388.908L852.787 388.879L850.287 388.937ZM850.18 384.382L852.68 384.324L852.68 384.324L850.18 384.382ZM113.821 384.382L116.321 384.441L116.321 384.441L113.821 384.382ZM113.715 388.936L111.215 388.878L111.215 388.907V388.936H113.715ZM113.715 672.781L113.392 675.26L116.215 675.626V672.781H113.715ZM98.001 670.739H95.501V672.935L97.6788 673.218L98.001 670.739ZM98.001 384V381.5H95.501V384H98.001ZM98.1124 384V386.5H100.554L100.612 384.059L98.1124 384ZM868.389 383.941C863.398 171.347 692.355 0.5 482.001 0.5V5.5C689.556 5.5 858.461 174.096 863.39 384.059L868.389 383.941ZM866.001 381.5H865.89V386.5H866.001V381.5ZM868.501 785V384H863.501V785H868.501ZM850.221 787.5H866.001V782.5H850.221V787.5ZM847.798 768.489L847.721 784.988L852.721 785.012L852.798 768.512L847.798 768.489ZM849.965 770.978L849.975 770.979L850.62 766.021L850.61 766.02L849.965 770.978ZM852.787 768.499V388.937H847.787V768.499H852.787ZM852.787 388.879L852.68 384.324L847.681 384.441L847.788 388.996L852.787 388.879ZM852.68 384.324C847.892 180.413 683.82 16.5 482.001 16.5V21.5C681.022 21.5 842.956 183.162 847.681 384.441L852.68 384.324ZM482.001 16.5C280.182 16.5 116.11 180.413 111.322 384.324L116.321 384.441C121.046 183.162 282.98 21.5 482.001 21.5V16.5ZM111.322 384.324L111.215 388.878L116.214 388.995L116.321 384.441L111.322 384.324ZM111.215 388.936V672.781H116.215V388.936H111.215ZM97.6788 673.218L113.392 675.26L114.037 670.301L98.3231 668.259L97.6788 673.218ZM95.501 384V670.739H100.501V384H95.501ZM98.1124 381.5H98.001V386.5H98.1124V381.5ZM482.001 0.5C271.647 0.5 100.604 171.347 95.6131 383.941L100.612 384.059C105.541 174.096 274.446 5.5 482.001 5.5V0.5Z" fill="#1B1A1A" mask="url(#path-7-outside-4)"/>
</svg>
