<svg width="135" height="135" viewBox="0 0 135 135" fill="none" xmlns="http://www.w3.org/2000/svg">
<path d="M45.7021 87.5554C46.9388 86.0281 49.4194 78.5319 49.4194 78.5319C49.4194 78.5319 54.6295 86.2562 48.3554 95.558C44.4307 101.378 40.756 102.366 37.3681 102.676C43.0256 107.607 49.6881 110.975 56.7214 112.694C59.4033 111.319 67.0332 106.597 66.102 97.7377C65.8966 95.784 62.3504 88.7314 62.3504 88.7314C62.3504 88.7314 71.4992 90.5076 73.6387 101.516C74.9058 108.038 73.2689 111.34 71.2444 113.892C77.3311 113.433 83.3788 111.764 89.0115 108.839C89.9394 105.954 91.9738 97.246 85.0651 91.6533C83.5381 90.4175 76.0422 87.9408 76.0422 87.9408C76.0422 87.9408 83.77 82.7277 93.07 88.9965C99.2933 93.1912 99.989 97.1003 100.241 100.681C105.645 95.3606 109.507 88.9446 111.743 82.0594C110.297 79.2831 105.585 71.8809 96.8489 72.8035C94.8949 73.0098 87.8395 76.5588 87.8395 76.5588C87.8395 76.5588 89.6204 67.4104 100.631 65.266C108.037 63.8236 111.29 66.1246 114.006 68.4887C114.119 61.7875 112.782 55.0279 109.926 48.713C106.479 47.7567 98.6717 46.5242 93.5116 52.8979C92.2749 54.4252 89.7943 61.9214 89.7943 61.9214C89.7943 61.9214 84.5842 54.1971 90.8583 44.8953C95.2029 38.4522 99.2418 37.9317 102.923 37.695C97.8101 31.7017 91.4468 27.3153 84.5121 24.632C81.6157 26.1782 74.5161 30.8761 75.4153 39.4388C75.6207 41.3925 79.1669 48.4451 79.1669 48.4451C79.1669 48.4451 70.0181 46.6689 67.8786 35.6609C66.3822 27.9633 68.9318 24.7498 71.3912 21.9639L80.5581 23.3025C69.4218 20.1078 57.1989 21.1156 46.4805 26.6831C45.5526 29.5676 43.5182 38.2758 50.4269 43.8685C51.9539 45.1044 59.4499 47.581 59.4499 47.581C59.4499 47.581 51.7221 52.7941 42.422 46.5253C36.1987 42.3306 35.503 38.4215 35.2513 34.8412C29.6874 40.3189 25.757 46.9566 23.5556 54.0739C24.879 56.6846 29.6034 64.4618 38.5464 63.5195C40.5005 63.3132 47.5558 59.7641 47.5558 59.7641C47.5558 59.7641 45.7749 68.9125 34.7629 71.0581C27.4392 72.4844 24.1761 70.2489 21.4763 67.9135C21.4931 75.9481 23.5959 84.034 27.9049 91.3064C29.8911 92.023 39.6297 95.0551 45.7021 87.5554Z" fill="#009FE3" stroke="#1B1A1A" stroke-width="3.12562" stroke-miterlimit="10"/>
<path d="M42.4224 46.5288C51.7213 52.7961 59.4502 47.5845 59.4502 47.5845C59.4502 47.5845 51.9543 45.1079 50.4273 43.8721C43.5171 38.2805 45.5541 29.5726 46.4809 26.6866C44.8027 27.5583 43.1601 28.5413 41.5645 29.6387L38.7207 31.7559C37.5014 32.7378 36.3448 33.7691 35.2517 34.8447C35.5023 38.4236 36.1991 42.3341 42.4224 46.5288Z" fill="#E30613" stroke="#1B1A1A" stroke-width="3.12562" stroke-miterlimit="10"/>
<path d="M93.0725 88.9957C83.7735 82.7284 76.0446 87.94 76.0446 87.94C76.0446 87.94 83.5405 90.4166 85.0675 91.6525C91.9777 97.2441 89.9407 105.952 89.0139 108.838C90.6921 107.966 92.3347 106.983 93.9303 105.886L96.7741 103.769C97.9934 102.787 99.15 101.755 100.243 100.68C99.9925 97.1009 99.2957 93.1904 93.0725 88.9957Z" fill="#E30613" stroke="#1B1A1A" stroke-width="3.12562" stroke-miterlimit="10"/>
<path d="M90.8566 44.8958C84.584 54.1965 89.7926 61.9218 89.7926 61.9218C89.7926 61.9218 92.2732 54.4257 93.5099 52.8984C98.67 46.5246 106.479 47.756 109.924 48.7135C108.734 46.0807 107.277 43.5264 105.553 41.0843L104.142 39.1894C103.743 38.6816 103.335 38.183 102.919 37.6951C99.2405 37.9296 95.2012 38.4527 90.8566 44.8958Z" fill="#E30613" stroke="#1B1A1A" stroke-width="3.12562" stroke-miterlimit="10"/>
<path d="M37.3678 102.678C40.7557 102.367 44.4305 101.38 48.3551 95.5597C54.6278 86.259 49.4191 78.5336 49.4191 78.5336C49.4191 78.5336 46.9386 86.0298 45.7018 87.5571C39.6294 95.0567 29.8893 92.0258 27.9076 91.3058C28.36 92.0708 28.8349 92.8257 29.3373 93.5713L31.9874 97.131C33.6481 99.1555 35.45 101.007 37.3678 102.678Z" fill="#E30613" stroke="#1B1A1A" stroke-width="3.12562" stroke-miterlimit="10"/>
<path d="M34.7636 71.0592C45.7757 68.9136 47.5565 59.7652 47.5565 59.7652C47.5565 59.7652 40.5012 63.3142 38.5471 63.5206C29.6052 64.4643 24.8797 56.6856 23.5563 54.075C23.0505 55.7124 22.6331 57.3753 22.3108 59.0542L21.7228 63.0649C21.5574 64.6737 21.4734 66.2926 21.4759 67.9131C24.1768 70.25 27.4399 72.4854 34.7636 71.0592Z" fill="#E30613" stroke="#1B1A1A" stroke-width="3.12562" stroke-miterlimit="10"/>
<path d="M100.631 65.2644C89.6201 67.4089 87.8393 76.5573 87.8393 76.5573C87.8393 76.5573 94.8946 73.0082 96.8486 72.8019C105.584 71.8805 110.295 79.2801 111.743 82.0579C112.398 80.0354 112.915 77.9725 113.287 75.8854L113.719 72.942C113.885 71.4635 113.982 69.9778 114.007 68.4886C111.289 66.1231 108.034 63.8217 100.631 65.2644Z" fill="#E30613" stroke="#1B1A1A" stroke-width="3.12562" stroke-miterlimit="10"/>
<path d="M67.8761 35.66C70.0155 46.668 79.1644 48.4442 79.1644 48.4442C79.1644 48.4442 75.6182 41.3916 75.4128 39.4379C74.5135 30.8752 81.6121 26.1758 84.5096 24.6311C83.2097 24.1274 81.8909 23.6841 80.5571 23.3005L71.3902 21.9619C68.929 24.7515 66.3797 27.9624 67.8761 35.66Z" fill="#E30613" stroke="#1B1A1A" stroke-width="3.12562" stroke-miterlimit="10"/>
<path d="M73.6396 101.519C71.5002 90.5114 62.3513 88.7352 62.3513 88.7352C62.3513 88.7352 65.8975 95.7878 66.1029 97.7415C67.0342 106.6 59.4042 111.323 56.7223 112.698C61.4599 113.856 66.3657 114.265 71.2453 113.896C73.2709 111.345 74.9067 108.042 73.6396 101.519Z" fill="#E30613" stroke="#1B1A1A" stroke-width="3.12562" stroke-miterlimit="10"/>
</svg>
