<svg width="108" height="254" viewBox="0 0 108 254" fill="none" xmlns="http://www.w3.org/2000/svg">
<path d="M54.0001 251L105.679 234.343V94.2581C105.679 43.3007 82.5482 2 54.0001 2V251Z" fill="#009FE3" stroke="#1B1A1A" stroke-width="3" stroke-miterlimit="10"/>
<path d="M83.4092 108.092L54.141 128.761L54.141 87.4417L83.4092 108.092Z" fill="#FFDE00" stroke="#1B1A1A" stroke-width="3" stroke-miterlimit="10"/>
<path d="M83.4092 54.7209L54.141 75.3906L54.141 34.0708L83.4092 54.7209Z" fill="#FFDE00" stroke="#1B1A1A" stroke-width="3" stroke-miterlimit="10"/>
<path d="M83.4092 161.464L54.141 182.133L54.141 140.813L83.4092 161.464Z" fill="#FFDE00" stroke="#1B1A1A" stroke-width="3" stroke-miterlimit="10"/>
<path d="M83.4092 214.834L54.141 235.504L54.141 194.184L83.4092 214.834Z" fill="#FFDE00" stroke="#1B1A1A" stroke-width="3" stroke-miterlimit="10"/>
<path d="M53.6787 251L2.00014 234.343V94.2581C2.00014 43.3007 25.1306 2 53.6787 2V251Z" fill="#009FE3" stroke="#1B1A1A" stroke-width="3" stroke-miterlimit="10"/>
<path d="M23.9668 161.483L53.235 140.813L53.235 182.133L23.9668 161.483Z" fill="#FFDE00" stroke="#1B1A1A" stroke-width="3" stroke-miterlimit="10"/>
<path d="M23.9668 214.856L53.235 194.186L53.235 235.506L23.9668 214.856Z" fill="#FFDE00" stroke="#1B1A1A" stroke-width="3" stroke-miterlimit="10"/>
<path d="M23.9668 108.112L53.235 87.4426L53.235 128.762L23.9668 108.112Z" fill="#FFDE00" stroke="#1B1A1A" stroke-width="3" stroke-miterlimit="10"/>
<path d="M23.9668 54.7415L53.235 34.0718L53.235 75.3916L23.9668 54.7415Z" fill="#FFDE00" stroke="#1B1A1A" stroke-width="3" stroke-miterlimit="10"/>
</svg>
