<svg width="260" height="404" viewBox="0 0 260 404" fill="none" xmlns="http://www.w3.org/2000/svg">
<path d="M141.791 302.561L94.3585 349.42L76.8976 326.194C74.2967 323.561 70.0523 323.532 67.416 326.136L82.3925 345.071L55.7934 327.13C52.7496 325.019 48.575 325.774 46.4643 328.817L76.0819 349.529L52.2658 342.175C48.6975 341.196 45.0075 343.297 44.0284 346.866L95.4336 360.969L148.096 308.943L141.791 302.561Z" fill="#E30613" stroke="#1B1A1A" stroke-width="3" stroke-miterlimit="10"/>
<path d="M135.804 308.474C138.969 311.163 142.955 311.609 148.095 308.942C159.775 297.404 178.119 292.533 178.591 214.95C178.693 198.278 170.223 182.833 154.322 177.832C132.177 170.872 109.469 187.024 108.889 210.232C107.692 258.227 150.188 294.264 135.804 308.474Z" fill="#FFDE00" stroke="#1B1A1A" stroke-width="3" stroke-miterlimit="10"/>
<path d="M113.164 242.942C92.6757 242.942 76.002 226.274 76.002 205.78C76.002 202.461 78.6964 199.766 82.0158 199.766C85.3352 199.766 88.0297 202.461 88.0297 205.78C88.0297 219.636 99.3027 230.909 113.158 230.909C127.014 230.909 138.287 219.636 138.287 205.78V29.0139C138.287 25.6944 140.981 23 144.301 23C147.62 23 150.314 25.6944 150.314 29.0139V205.786C150.32 226.274 133.652 242.942 113.164 242.942Z" fill="#009FE3" stroke="#1B1A1A" stroke-width="3" stroke-miterlimit="10"/>
<path d="M143.584 2L219.683 54.8158C228.981 47.3044 242.559 48.5779 258.166 54.0022C229.771 31.5446 192.396 13.786 143.584 2Z" fill="#E30613" stroke="#1B1A1A" stroke-width="3" stroke-miterlimit="10" stroke-linecap="round" stroke-linejoin="round"/>
<path d="M143.584 2L172.515 54.8158C187.916 49.2265 203.652 49.4505 219.683 54.8158L143.584 2Z" fill="#FFDE00" stroke="#1B1A1A" stroke-width="3" stroke-miterlimit="10" stroke-linecap="round" stroke-linejoin="round"/>
<path d="M143.584 2V54.8099C152.505 52.1391 162.221 52.4044 172.515 54.8158L143.584 2Z" fill="#E30613" stroke="#1B1A1A" stroke-width="3" stroke-miterlimit="10" stroke-linecap="round" stroke-linejoin="round"/>
<path d="M143.584 2L67.4848 54.8158C58.1928 47.3044 44.6085 48.5779 29.002 54.0022C57.3968 31.5446 94.7712 13.786 143.584 2Z" fill="#FFDE00" stroke="#1B1A1A" stroke-width="3" stroke-miterlimit="10" stroke-linecap="round" stroke-linejoin="round"/>
<path d="M143.584 2L114.652 54.8158C99.2522 49.2265 83.5159 49.4505 67.4849 54.8158L143.584 2Z" fill="#E30613" stroke="#1B1A1A" stroke-width="3" stroke-miterlimit="10" stroke-linecap="round" stroke-linejoin="round"/>
<path d="M143.583 2V54.8099C134.663 52.1391 124.946 52.4044 114.652 54.8158L143.583 2Z" fill="#FFDE00" stroke="#1B1A1A" stroke-width="3" stroke-miterlimit="10" stroke-linecap="round" stroke-linejoin="round"/>
<path d="M192.515 295.272L175.469 363.98L146.795 352.598C142.981 351.652 139.119 353.974 138.171 357.793L162.22 366.661L128.19 365.125C124.264 364.897 120.899 367.891 120.671 371.817L158.969 374.193L133.32 380.71C129.545 381.797 127.364 385.743 128.452 389.519L182.835 373.849L201.76 297.565L192.515 295.272Z" fill="#E30613" stroke="#1B1A1A" stroke-width="3" stroke-miterlimit="10"/>
<path d="M190.364 303.942C194.719 304.628 198.579 302.826 201.76 297.565C205.957 280.646 219.884 266.081 177.376 195.522C168.241 180.359 152.019 171.052 134.844 175.321C110.926 181.27 99.2901 208.472 111.608 229.822C137.085 273.971 195.533 283.107 190.364 303.942Z" fill="#FFDE00" stroke="#1B1A1A" stroke-width="3" stroke-miterlimit="10"/>
</svg>
