<svg width="299" height="491" viewBox="0 0 299 491" fill="none" xmlns="http://www.w3.org/2000/svg">
<path d="M90.1503 48.1681C112.599 47.6462 119.73 97.3992 122 127.977L126.183 308.9C126.389 317.785 130.505 325.677 136.849 330.967L137.951 378.856C138.006 381.243 139.855 383.287 142.243 383.387C144.856 383.494 146.978 381.377 146.919 378.803L145.931 336.152C149.176 337.298 152.673 337.9 156.308 337.834C172.69 337.547 185.775 323.433 185.395 307.052L181.144 123.141C180.833 109.703 169.94 98.6927 156.502 98.7474C142.748 98.8061 131.738 110.173 132.056 123.858L136.352 309.531C136.369 310.286 135.237 310.346 135.187 309.594C135.169 309.296 135.155 308.996 135.145 308.693L130.965 127.802C131.815 97.1501 136.638 47.0933 159.093 46.574C191.477 45.8276 133.695 32.9437 124.293 33.1642C114.896 33.3826 57.7668 48.9145 90.1503 48.1681ZM172.672 144.513L176.026 289.71C176.037 290.117 175.713 290.459 175.305 290.469C174.898 290.48 174.556 290.156 174.55 289.746L171.194 144.545C171.187 144.287 171.306 144.112 171.405 144.008C171.507 143.908 171.687 143.785 171.945 143.789C172.342 143.794 172.664 144.11 172.672 144.513ZM141.025 123.654C140.826 115.066 147.652 107.919 156.24 107.72C164.827 107.521 171.974 114.346 172.174 122.934L172.448 134.834C172.33 134.83 172.216 134.824 172.092 134.822C169.428 134.777 166.922 135.797 165.041 137.687C163.164 139.574 162.161 142.088 162.221 144.752L165.581 289.951C165.705 295.303 170.16 299.556 175.512 299.432C175.759 299.424 176.009 299.41 176.25 299.388L176.441 307.74C176.704 319.128 167.658 328.602 156.27 328.865C152.44 328.954 148.827 327.986 145.708 326.234L141.025 123.654Z" fill="#009FE3" stroke="#1B1A1A" stroke-width="2.70423" stroke-miterlimit="10"/>
<path d="M138.614 392.568C135.825 392.633 133.673 390.097 134.198 387.357C135.325 381.465 138.526 377.202 142.397 377.117C146.266 377.027 149.662 381.136 151.061 386.972C151.71 389.685 149.677 392.314 146.888 392.378L138.614 392.568Z" fill="#E30613" stroke="#1B1A1A" stroke-width="2.70423" stroke-miterlimit="10"/>
<path d="M113.183 242.876L113.434 253.737L195.333 251.843L195.082 240.981L113.183 242.876Z" fill="#E30613" stroke="#1B1A1A" stroke-width="2.70423" stroke-miterlimit="10"/>
<path d="M112.783 225.672L113.015 235.702L194.914 233.807L194.682 223.777L112.783 225.672Z" fill="#E30613" stroke="#1B1A1A" stroke-width="2.70423" stroke-miterlimit="10"/>
<path d="M112.385 208.471L112.617 218.501L194.516 216.606L194.284 206.576L112.385 208.471Z" fill="#E30613" stroke="#1B1A1A" stroke-width="2.70423" stroke-miterlimit="10"/>
<path d="M218.156 381.79V452.58L187.584 448.438C183.655 448.438 180.466 451.622 180.466 455.557L205.942 458.373L172.543 465.076C168.678 465.8 166.133 469.517 166.857 473.382L204.6 466.466L181.275 478.967C177.873 480.932 176.707 485.287 178.671 488.689L227.681 460.386V381.79H218.156Z" fill="#E30613" stroke="#1B1A1A" stroke-width="3" stroke-miterlimit="10"/>
<path d="M218.156 390.723C222.548 390.34 225.86 387.662 227.681 381.789C227.681 364.358 237.69 346.868 179.443 288.621C166.926 276.103 148.941 270.976 133.298 279.255C111.517 290.788 106.773 319.991 123.869 337.747C159.227 374.463 218.156 369.256 218.156 390.723Z" fill="#FFDE00" stroke="#1B1A1A" stroke-width="3" stroke-miterlimit="10"/>
</svg>
