<svg width="313" height="642" viewBox="0 0 313 642" fill="none" xmlns="http://www.w3.org/2000/svg">
<path d="M261.478 441.106C279.236 448.505 292.962 460.426 271.837 501.78C321.962 468.426 304.394 424.827 274.501 421.32C258 419.736 246.176 434.727 261.478 441.106Z" fill="#009FE3" stroke="#1B1A1A" stroke-width="3" stroke-miterlimit="10" stroke-linecap="round" stroke-linejoin="round"/>
<path d="M101.057 390.558C101.057 415.715 228.206 468.028 163.092 559.779C241.007 512.587 201.687 418.675 169.13 387.598C158.149 371.127 101.057 373.021 101.057 390.558Z" fill="#009FE3" stroke="#1B1A1A" stroke-width="3" stroke-miterlimit="10"/>
<path d="M234.493 413.636L148.603 364.046C144.474 361.664 143.068 356.395 145.45 352.267L145.702 351.823C148.085 347.694 153.353 346.288 157.482 348.671L243.373 398.261C247.501 400.643 248.907 405.911 246.525 410.04L246.273 410.484C243.905 414.613 238.622 416.019 234.493 413.636Z" fill="#009FE3" stroke="#1B1A1A" stroke-width="3" stroke-miterlimit="10" stroke-linecap="round" stroke-linejoin="round"/>
<path d="M165.043 388.569C109.77 408.384 105.641 431.707 120.425 465.374C61.3197 424.663 101.661 388.318 124.125 365.942C136.437 354.192 147.521 354.192 167.233 353.408C210.845 354.518 182.18 382.428 165.043 388.569Z" fill="#E30613" stroke="#1B1A1A" stroke-width="3" stroke-miterlimit="10"/>
<path d="M72.5376 353.349C65.4935 395.569 19.7658 391.13 50.8428 437.005C13.8464 420.727 10.7239 367.452 39.2999 356.545L72.5376 353.349Z" fill="#FFDE00" stroke="#1B1A1A" stroke-width="3" stroke-miterlimit="10" stroke-linecap="round" stroke-linejoin="round"/>
<path d="M84.5621 422.613C92.5385 433.327 103.549 442.147 115.299 447.844C132.509 454.163 141.581 468.34 136.949 486.779C165.052 450.271 104.466 427.304 114.929 398.521C118.836 387.777 126.427 385.971 137.926 385.971C153.065 385.971 156.113 429.287 143.15 437.204C165.451 423.575 170.335 354.036 132.524 354.036C89.712 354.051 59.005 388.25 84.5621 422.613Z" fill="#FFDE00" stroke="#1B1A1A" stroke-width="3" stroke-miterlimit="10" stroke-linecap="round" stroke-linejoin="round"/>
<path d="M143.386 541.779C157.563 536.911 164.415 517.199 155.299 504.62C146.183 492.041 129.904 499.441 139.02 510.54C147.944 521.416 150.119 530.68 143.386 541.779Z" fill="#009FE3" stroke="#1B1A1A" stroke-width="3" stroke-miterlimit="10" stroke-linecap="round" stroke-linejoin="round"/>
<path d="M48.3797 533.779C34.2026 528.911 27.3509 509.199 36.4668 496.62C45.5828 484.041 61.8612 491.441 52.7453 502.539C43.8069 513.416 41.6463 522.68 48.3797 533.779Z" fill="#FFDE00" stroke="#1B1A1A" stroke-width="3" stroke-miterlimit="10" stroke-linecap="round" stroke-linejoin="round"/>
<path d="M159.658 389.354C145.481 384.486 137.637 363.99 147.745 352.195C156.624 341.836 163.801 331.906 155.218 316.841C171.822 322.953 176.38 346.72 164.023 358.115C153.353 367.275 152.924 378.256 159.658 389.354Z" fill="#FFDE00" stroke="#1B1A1A" stroke-width="3" stroke-miterlimit="10" stroke-linecap="round" stroke-linejoin="round"/>
<path d="M282.515 408.324C268.338 403.455 260.495 382.959 270.602 371.165C279.481 360.806 286.659 350.876 278.075 335.811C294.679 341.923 299.237 365.69 286.881 377.084C276.211 386.245 275.782 397.225 282.515 408.324Z" fill="#009FE3" stroke="#1B1A1A" stroke-width="3" stroke-miterlimit="10" stroke-linecap="round" stroke-linejoin="round"/>
<path d="M186.989 144.983C204.748 137.584 225.466 128.704 197.348 84.3086C260.982 124.265 229.905 161.261 200.012 164.769C183.512 166.352 171.702 151.346 186.989 144.983Z" fill="#009FE3" stroke="#1B1A1A" stroke-width="3" stroke-miterlimit="10" stroke-linecap="round" stroke-linejoin="round"/>
<path d="M147.858 414.053L147.858 295.013C147.858 290.248 151.721 286.386 156.486 286.386C161.251 286.386 165.113 290.248 165.113 295.013L165.113 414.053C165.113 418.818 161.251 422.681 156.486 422.681C151.721 422.666 147.858 418.803 147.858 414.053Z" fill="#E30613" stroke="#1B1A1A" stroke-width="3" stroke-miterlimit="10" stroke-linecap="round" stroke-linejoin="round"/>
<path d="M179.353 305.12C234.626 277.373 238.755 244.683 223.971 197.52C283.077 254.568 242.736 305.475 220.271 336.833C207.959 353.289 196.875 353.289 177.163 354.385C133.552 352.816 162.217 313.718 179.353 305.12Z" fill="#009FE3" stroke="#1B1A1A" stroke-width="3" stroke-miterlimit="10"/>
<path d="M95.2383 295.928C95.2383 270.771 -17.2309 242.654 47.8828 150.902C-30.0317 198.095 7.92666 285.569 40.4835 316.647C51.4641 333.103 95.2383 313.45 95.2383 295.928Z" fill="#009FE3" stroke="#1B1A1A" stroke-width="3" stroke-miterlimit="10"/>
<path d="M87.0393 49.3546C101.216 54.2234 109.06 74.7194 98.9522 86.5139C90.073 96.8729 82.8957 106.803 91.4789 121.868C74.8749 115.756 70.3169 91.9894 82.6737 80.5945C93.3435 71.4341 93.7727 60.4536 87.0393 49.3546Z" fill="#009FE3" stroke="#1B1A1A" stroke-width="3" stroke-miterlimit="10" stroke-linecap="round" stroke-linejoin="round"/>
<path d="M211.347 1.99917C225.524 6.8679 233.368 27.364 223.26 39.1584C214.381 49.5174 207.204 59.4473 215.787 74.5122C199.183 68.4004 194.625 44.6339 206.982 33.239C217.652 24.0787 218.081 13.0981 211.347 1.99917Z" fill="#E30613" stroke="#1B1A1A" stroke-width="3" stroke-miterlimit="10" stroke-linecap="round" stroke-linejoin="round"/>
<path d="M302.803 363.396L18.1672 363.397C13.4021 363.397 9.53965 359.534 9.53965 354.769L9.53965 354.266C9.53965 349.501 13.4021 345.638 18.1672 345.638L302.803 345.638C307.568 345.638 311.431 349.501 311.431 354.266L311.431 354.769C311.416 359.534 307.568 363.396 302.803 363.396Z" fill="#FFDE00" stroke="#1B1A1A" stroke-width="3" stroke-miterlimit="10" stroke-linecap="round" stroke-linejoin="round"/>
<path d="M120.995 317.751L197.119 393.875C200.493 397.249 200.493 402.71 197.119 406.069C193.745 409.443 188.285 409.443 184.925 406.069L108.801 329.945C105.427 326.571 105.427 321.111 108.801 317.751C112.175 314.392 117.636 314.392 120.995 317.751Z" fill="#FFDE00" stroke="#1B1A1A" stroke-width="3" stroke-miterlimit="10" stroke-linecap="round" stroke-linejoin="round"/>
<path d="M229.107 313.938C206.983 273.849 189.461 269.986 202.469 219.242C179.872 248.055 184.223 280.686 195.869 310.727C206.494 351.008 142.594 331.445 135.195 294.448C123.356 247.093 167.559 222.734 196.668 191.776C248.034 132.182 136.675 105.026 174.633 2.53147C121.876 82.8286 174.544 100.838 175.876 149.111C177.741 168.157 157.511 180.854 139.945 176.533C115.824 171.931 113.145 143.236 130.075 128.63C140.374 118.094 132.561 103.251 127.5 92.0333C127.159 92.1368 126.804 92.2552 126.464 92.3588C131.939 132.966 89.0677 128.231 96.911 171.117C100.803 191.421 106.856 211.295 111.058 231.525C116.356 250.704 105.598 294.374 82.4232 294.374C67.1067 294.374 46.3886 290.023 46.3886 257.467C46.3886 221.95 93.5369 225.058 43.4289 170.155C65.4196 219.138 7.9123 216.031 7.91231 267.826C7.91231 322.58 58.9527 334.419 58.9527 347.028C58.9527 348.049 235.81 344.778 235.81 344.778C235.825 338.074 233.236 321.086 229.107 313.938Z" fill="#FFDE00" stroke="#1B1A1A" stroke-width="3" stroke-miterlimit="10" stroke-linecap="round" stroke-linejoin="round"/>
<path d="M131.273 268.596C138.317 226.376 184.045 230.815 152.968 184.94C189.964 201.218 193.087 254.493 164.511 265.4L131.273 268.596Z" fill="#009FE3" stroke="#1B1A1A" stroke-width="3" stroke-miterlimit="10" stroke-linecap="round" stroke-linejoin="round"/>
<path d="M163.385 258.873C152.109 243.705 136.511 231.23 119.877 223.164C95.519 214.226 82.6886 194.159 89.2444 168.055C49.4658 219.731 135.224 252.214 120.41 292.969C114.876 308.168 104.132 310.728 87.8533 310.728C66.425 310.728 62.1038 249.432 80.454 238.215C48.8887 257.512 41.9778 355.908 95.4894 355.908C156.104 355.908 199.553 307.516 163.385 258.873Z" fill="#E30613" stroke="#1B1A1A" stroke-width="3" stroke-miterlimit="10" stroke-linecap="round" stroke-linejoin="round"/>
<path d="M179.428 112.988C165.251 117.857 157.408 138.353 167.515 150.148C176.394 160.507 183.572 170.437 174.989 185.501C191.593 179.39 196.151 155.623 183.794 144.228C173.124 135.068 172.695 124.087 179.428 112.988Z" fill="#E30613" stroke="#1B1A1A" stroke-width="3" stroke-miterlimit="10" stroke-linecap="round" stroke-linejoin="round"/>
<path d="M135.031 166.265C120.854 171.133 114.002 190.845 123.118 203.424C132.234 216.003 148.513 208.603 139.397 197.504C130.473 186.627 128.298 177.363 135.031 166.265Z" fill="#009FE3" stroke="#1B1A1A" stroke-width="3" stroke-miterlimit="10" stroke-linecap="round" stroke-linejoin="round"/>
<path d="M62.4152 127.788C76.5922 132.657 83.444 152.369 74.328 164.947C65.2121 177.526 48.9337 170.127 58.0496 159.028C66.9879 148.151 69.1486 138.887 62.4152 127.788Z" fill="#E30613" stroke="#1B1A1A" stroke-width="3" stroke-miterlimit="10" stroke-linecap="round" stroke-linejoin="round"/>
<path d="M260.716 278.734C274.893 283.603 281.745 303.314 272.629 315.893C263.513 328.472 247.234 321.073 256.35 309.974C265.289 299.097 267.449 289.833 260.716 278.734Z" fill="#FFDE00" stroke="#1B1A1A" stroke-width="3" stroke-miterlimit="10" stroke-linecap="round" stroke-linejoin="round"/>
<path d="M250.46 152.946C236.283 157.815 229.431 177.526 238.547 190.105C247.663 202.684 263.942 195.285 254.826 184.186C245.902 173.309 243.727 164.045 250.46 152.946Z" fill="#009FE3" stroke="#1B1A1A" stroke-width="3" stroke-miterlimit="10" stroke-linecap="round" stroke-linejoin="round"/>
<path d="M141.794 250.615C155.971 255.484 163.814 275.98 153.707 287.775C144.828 298.134 137.651 308.063 146.234 323.128C129.63 317.017 125.072 293.25 137.429 281.855C148.098 272.695 148.528 261.714 141.794 250.615Z" fill="#FFDE00" stroke="#1B1A1A" stroke-width="3" stroke-miterlimit="10" stroke-linecap="round" stroke-linejoin="round"/>
<path d="M302.803 363.396L18.1672 363.397C13.4021 363.397 9.53965 359.534 9.53965 354.769L9.53965 354.266C9.53965 349.501 13.4021 345.638 18.1672 345.638L302.803 345.638C307.568 345.638 311.431 349.501 311.431 354.266L311.431 354.769C311.416 359.534 307.568 363.396 302.803 363.396Z" fill="#E30613" stroke="#1B1A1A" stroke-width="3" stroke-miterlimit="10" stroke-linecap="round" stroke-linejoin="round"/>
<path d="M218.57 345.905L145.465 365.498C140.862 366.726 136.127 364.003 134.899 359.401L134.765 358.913C133.537 354.31 136.26 349.575 140.862 348.347L213.967 328.753C218.57 327.525 223.305 330.248 224.534 334.85L224.667 335.339C225.895 339.941 223.172 344.676 218.57 345.905Z" fill="#009FE3" stroke="#1B1A1A" stroke-width="3" stroke-miterlimit="10" stroke-linecap="round" stroke-linejoin="round"/>
<path d="M148.835 369.158L64.2951 333.292C59.9024 331.428 57.8558 326.365 59.725 321.986C61.5886 317.594 66.6512 315.547 71.0302 317.416L155.57 353.283C159.963 355.146 162.009 360.209 160.14 364.588C158.285 368.961 153.222 371.008 148.835 369.158Z" fill="#FFDE00" stroke="#1B1A1A" stroke-width="3" stroke-miterlimit="10" stroke-linecap="round" stroke-linejoin="round"/>
<path d="M248.093 569.629C262.27 564.76 270.113 544.264 260.005 532.469C251.126 522.11 243.949 512.181 252.532 497.116C235.928 503.227 231.37 526.994 243.727 538.389C254.412 547.549 254.826 558.53 248.093 569.629Z" fill="#FFDE00" stroke="#1B1A1A" stroke-width="3" stroke-miterlimit="10" stroke-linecap="round" stroke-linejoin="round"/>
<path d="M156.037 639.779C141.86 634.911 134.016 614.415 144.124 602.62C153.003 592.261 160.18 582.331 151.597 567.266C168.201 573.378 172.759 597.145 160.402 608.54C149.732 617.7 149.303 628.68 156.037 639.779Z" fill="#E30613" stroke="#1B1A1A" stroke-width="3" stroke-miterlimit="10" stroke-linecap="round" stroke-linejoin="round"/>
<path d="M191.38 601.779C177.203 596.911 170.351 577.199 179.467 564.62C188.583 552.041 204.861 559.441 195.745 570.539C186.822 581.416 184.646 590.68 191.38 601.779Z" fill="#009FE3" stroke="#1B1A1A" stroke-width="3" stroke-miterlimit="10" stroke-linecap="round" stroke-linejoin="round"/>
<path d="M64.3858 484.779C78.5629 479.911 85.4147 460.199 76.2988 447.62C67.1828 435.041 50.9044 442.441 60.0203 453.539C68.9439 464.416 71.1192 473.68 64.3858 484.779Z" fill="#009FE3" stroke="#1B1A1A" stroke-width="3" stroke-miterlimit="10" stroke-linecap="round" stroke-linejoin="round"/>
</svg>
