<svg width="412" height="457" viewBox="0 0 412 457" fill="none" xmlns="http://www.w3.org/2000/svg">
<path d="M156.159 302.641L166.412 26.3483L9.13377 68.4908L156.159 302.641Z" fill="#FFDE00" stroke="#1B1A1A" stroke-width="3" stroke-miterlimit="10"/>
<path d="M156.158 302.641L128.262 92.952L75.7021 107.035L156.158 302.641Z" fill="#009FE3" stroke="#1B1A1A" stroke-width="3" stroke-miterlimit="10"/>
<path d="M128.261 92.9518C142.791 89.0586 151.39 74.1501 147.494 59.6078C132.992 63.4934 118.063 54.8894 114.166 40.3471C118.063 54.8894 109.464 69.7979 94.9338 73.6911C94.98 73.8632 95.0184 74.0066 95.0645 74.1787C99.1575 88.4225 113.932 96.7913 128.261 92.9518Z" fill="#009FE3" stroke="#1B1A1A" stroke-width="3" stroke-miterlimit="10"/>
<path d="M75.7024 107.035C90.0603 103.188 98.6424 88.5606 95.0652 74.1787C95.0191 74.0066 94.9807 73.8632 94.9345 73.6911C80.4333 77.5766 65.5036 68.9727 61.607 54.4304C65.5036 68.9727 56.9047 83.8811 42.3749 87.7744C46.2715 102.317 61.2012 110.921 75.7024 107.035Z" fill="#009FE3" stroke="#1B1A1A" stroke-width="3" stroke-miterlimit="10"/>
<path d="M94.9342 73.6912C109.464 69.7979 118.063 54.8895 114.166 40.3472C99.6652 44.2328 84.7354 35.6288 80.8388 21.0865C84.7354 35.6288 76.1365 50.5372 61.6067 54.4305C61.6528 54.6026 61.6912 54.746 61.7373 54.9181C65.8304 69.1618 80.605 77.5307 94.9342 73.6912Z" fill="#FFDE00" stroke="#1B1A1A" stroke-width="3" stroke-miterlimit="10"/>
<path d="M138.421 60.5937C158.062 61.4485 171.134 43.7431 166.629 26.4739C166.606 26.3878 166.497 26.3248 166.411 26.3479C152.89 29.8786 139.019 22.5896 134.137 9.75628C134.054 9.56318 133.825 9.62461 133.85 9.83307C136.01 23.3959 127.707 36.6572 114.167 40.3467C114.081 40.3698 114.039 40.4425 114.062 40.5285C117.067 51.7436 126.824 60.0734 138.421 60.5937Z" fill="#E30613" stroke="#1B1A1A" stroke-width="3" stroke-miterlimit="10"/>
<path d="M42.3753 87.7743C56.7332 83.9271 65.3152 69.2999 61.738 54.9179C61.6919 54.7458 61.6535 54.6024 61.6074 54.4303C47.1062 58.3159 32.1765 49.7119 28.2799 35.1696C32.1765 49.7119 23.5776 64.6204 9.04772 68.5136C12.9443 83.056 27.8741 91.6599 42.3753 87.7743Z" fill="#E30613" stroke="#1B1A1A" stroke-width="3" stroke-miterlimit="10"/>
<path d="M75.6944 107.006C90.0523 103.159 98.6343 88.5319 95.0572 74.15C99.1502 88.3937 113.925 96.7625 128.254 92.923L133.703 113.259C132.529 115.296 112.037 119.065 120.384 150.214C121.068 152.767 119.55 155.357 117 156.04C114.478 156.716 111.868 155.232 111.184 152.679C102.838 121.53 83.1787 128.519 81.1434 127.343L75.6944 107.006Z" fill="#E30613" stroke="#1B1A1A" stroke-width="3" stroke-miterlimit="10"/>
<path d="M131.816 416.312H302.814L388.312 268.173H46.3174L131.816 416.312Z" fill="#009FE3" stroke="#1B1A1A" stroke-width="3" stroke-miterlimit="10"/>
<path d="M396.574 268.171H299.424L286.249 290.985L308.857 330.157H387.13L409.738 290.985L396.574 268.171Z" fill="#009FE3" stroke="#1B1A1A" stroke-width="3" stroke-miterlimit="10"/>
<path d="M272.489 438.053H317.705L340.313 398.885L312.934 351.445L272.489 359.713L249.881 398.885L272.489 438.053Z" fill="#009FE3" stroke="#1B1A1A" stroke-width="3" stroke-miterlimit="10"/>
<path d="M133.588 438.053H178.803L201.408 398.885L178.803 359.713H133.588L110.98 398.885L133.588 438.053Z" fill="#009FE3" stroke="#1B1A1A" stroke-width="3" stroke-miterlimit="10"/>
<path d="M210.852 455.168H256.068L329.078 330.527L236.431 333.734L188.244 415.999L210.852 455.168Z" fill="#009FE3" stroke="#1B1A1A" stroke-width="3" stroke-miterlimit="10"/>
<path d="M207.515 385.489H282.292L324.345 312.623L289.363 268.175H200.455L170.126 320.71L207.515 385.489Z" fill="#009FE3" stroke="#1B1A1A" stroke-width="3" stroke-miterlimit="10"/>
<path d="M159.332 411.001H204.545L239.491 350.452L204.545 332.66H159.332L136.725 371.829L159.332 411.001Z" fill="#009FE3" stroke="#1B1A1A" stroke-width="3" stroke-miterlimit="10"/>
<path d="M154.56 352.951H254.868L277.476 313.782L254.868 274.61H154.56L131.952 313.782L154.56 352.951Z" fill="#009FE3" stroke="#1B1A1A" stroke-width="3" stroke-miterlimit="10"/>
<path d="M80.4721 363.838H141.077L158.58 333.155L141.077 302.476H80.4721L62.9688 333.155L80.4721 363.838Z" fill="#009FE3" stroke="#1B1A1A" stroke-width="2.541" stroke-miterlimit="10"/>
<path d="M258.637 314.269H339.629L366.237 268.17H232.037L258.637 314.269Z" fill="#009FE3" stroke="#1B1A1A" stroke-width="2.541" stroke-miterlimit="10"/>
<path d="M212.807 279.641H44.4167L77.1395 223.987H171.033L212.807 279.641Z" fill="#009FE3" stroke="#1B1A1A" stroke-width="3" stroke-miterlimit="10"/>
<path d="M363.28 231.122H298.849L268.461 268.225H394.041L363.28 231.122Z" fill="#009FE3" stroke="#1B1A1A" stroke-width="3" stroke-miterlimit="10"/>
<path d="M46.8082 311.036H148.158L161.433 268.515L33 266.798L46.8082 311.036Z" fill="#009FE3" stroke="#1B1A1A" stroke-width="3" stroke-miterlimit="10"/>
<path d="M387.209 393.897L404.508 362.401L389.49 342.312L364.483 340.417L347.184 371.913L362.199 392L387.209 393.897Z" fill="#009FE3" stroke="#1B1A1A" stroke-width="2.541" stroke-miterlimit="10"/>
<path d="M170.588 284.909L222.213 211.398L268.738 212.371L285.44 255.801L233.816 329.312L187.294 328.342L170.588 284.909Z" fill="#009FE3" stroke="#1B1A1A" stroke-width="2.541" stroke-miterlimit="10"/>
<circle cx="255.761" cy="177.317" r="80.6927" transform="rotate(10.0917 255.761 177.317)" fill="#FFDE00" stroke="black" stroke-width="3"/>
<circle cx="313.633" cy="83.2461" r="26.5972" transform="rotate(4.51285 313.633 83.2461)" fill="#E30613" stroke="black" stroke-width="3"/>
<circle cx="307.976" cy="63.3367" r="23.9158" transform="rotate(4.51285 307.976 63.3367)" fill="#E30613" stroke="black" stroke-width="3"/>
<path d="M249.969 97.066C208.182 64.9101 182.786 99.4294 175.312 120.708C179.479 96.2461 208.601 77.3197 229.729 74.7346C250.858 72.1496 274.48 96.6579 287.283 92.9021C300.329 89.0752 294.909 72.8569 296.552 67.4841L331.259 66.4716C338.252 82.4023 291.756 129.222 249.969 97.066Z" fill="#E30613" stroke="black" stroke-width="3"/>
<circle cx="289.987" cy="61.4782" r="20.3793" transform="rotate(4.51285 289.987 61.4782)" fill="#E30613" stroke="black" stroke-width="3"/>
<path d="M240.051 90.5133C204.079 62.8318 182.217 92.5479 175.782 110.866C179.37 89.8075 204.439 73.5146 222.628 71.2893C240.816 69.064 261.152 90.1621 272.173 86.9289C283.404 83.6344 278.738 69.6729 280.152 65.0477L310.03 64.1761C316.05 77.8901 276.024 118.195 240.051 90.5133Z" fill="#E30613" stroke="black" stroke-width="3"/>
<circle cx="274.03" cy="63.2131" r="17.2217" transform="rotate(156.299 274.03 63.2131)" fill="#FFDE00" stroke="black" stroke-width="3"/>
<circle cx="355.556" cy="194.277" r="43.8863" transform="rotate(14.0531 355.556 194.277)" fill="#E30613" stroke="black" stroke-width="3"/>
<path d="M243.42 236.507C179.348 167.511 142.441 203.868 122.979 239.129C137.559 197.283 176.412 189.489 214.385 191.19C252.359 192.891 286.706 243.043 310.364 240.218C334.471 237.34 329.725 207.174 334.209 198.199L395.63 206.688C403.231 236.813 307.491 305.503 243.42 236.507Z" fill="#E30613" stroke="black" stroke-width="3"/>
<circle cx="338.336" cy="202.406" r="36.9682" transform="rotate(14.0531 338.336 202.406)" fill="#E30613" stroke="black" stroke-width="3"/>
<path d="M243.293 238.198C188.987 179.719 166.784 205.689 150.289 235.576C162.646 200.108 186.499 198.347 218.684 199.789C250.869 201.23 279.981 243.738 300.033 241.344C320.465 238.904 316.443 213.337 320.243 205.729L372.302 212.924C378.744 238.457 297.598 296.677 243.293 238.198Z" fill="#E30613" stroke="black" stroke-width="3"/>
<circle cx="310.164" cy="200.764" r="31.4165" transform="rotate(165.839 310.164 200.764)" fill="#FFDE00" stroke="black" stroke-width="3"/>
<circle cx="326.899" cy="136.98" r="36.9682" transform="rotate(14.0531 326.899 136.98)" fill="#E30613" stroke="black" stroke-width="3"/>
<path d="M231.856 172.772C177.551 114.293 155.348 140.263 138.853 170.15C151.21 134.682 175.062 132.921 207.247 134.363C239.433 135.805 268.544 178.312 288.597 175.918C309.029 173.478 305.007 147.911 308.807 140.303L360.865 147.499C367.308 173.032 286.162 231.252 231.856 172.772Z" fill="#E30613" stroke="black" stroke-width="3"/>
<circle cx="205.83" cy="150.786" r="71.7956" transform="rotate(10.0917 205.83 150.786)" fill="#FFDE00" stroke="black" stroke-width="3"/>
<path d="M172.285 240.364C170.708 241.755 168.174 240.187 163.741 234.957C168.767 243.452 171.048 244.105 172.285 240.364C175.616 237.429 174.689 221.316 178.387 198.66C181.122 190.419 185.679 183.741 193.596 181.746C224.093 174.057 236.415 119.718 256.057 118.09C276.071 116.431 277.2 141.773 282.315 148.335L330.697 131.228C331.888 105.445 242.959 65.4256 202.41 132.224C187.762 156.353 181.468 179.779 178.387 198.66C173.414 213.642 174.461 233.789 172.285 240.364Z" fill="#E30613"/>
<path d="M163.741 234.957C185.331 260.429 161.86 199.022 202.41 132.224C242.959 65.4256 331.888 105.445 330.697 131.228L282.315 148.335C277.2 141.773 276.071 116.431 256.057 118.09C236.415 119.718 224.093 174.057 193.596 181.746C163.099 189.434 182.461 266.599 163.741 234.957Z" stroke="black" stroke-width="3"/>
<path d="M132.269 213.74C122.732 213.968 114.347 209.518 107.339 201.251C114.17 212.796 122.705 215.374 132.269 213.74C139.647 213.563 147.714 210.586 156.365 204.409C165.341 199.978 174.663 195.214 183.942 192.875C213.081 185.529 231.776 141.075 250.542 139.52C269.665 137.934 270.745 162.148 275.631 168.418L321.859 152.073C322.997 127.438 238.028 89.2004 199.284 153.024C183.881 178.398 169.454 195.065 156.365 204.409C147.917 208.581 139.776 212.457 132.269 213.74Z" fill="#E30613"/>
<path d="M107.339 201.251C127.968 225.588 160.54 216.848 199.284 153.024C238.028 89.2004 322.997 127.438 321.859 152.073L275.631 168.418C270.745 162.148 269.665 137.934 250.542 139.52C231.776 141.075 213.081 185.529 183.942 192.875C154.802 200.221 125.225 231.484 107.339 201.251Z" stroke="black" stroke-width="3"/>
<path d="M311.815 168.492C304.93 154.033 287.68 147.928 273.29 154.846C258.899 161.763 252.807 179.088 259.692 193.547C266.578 208.005 283.828 214.11 298.218 207.193C312.608 200.276 318.701 182.95 311.815 168.492Z" fill="#E30613" stroke="black" stroke-width="3"/>
<path d="M206.547 168.263C173.725 222.332 146.934 218.486 129.458 197.869C144.61 223.481 168.864 208.246 193.55 202.023C218.235 195.799 234.073 158.14 249.971 156.822C266.171 155.479 267.086 175.992 271.225 181.304L310.388 167.457C311.352 146.587 239.37 114.194 206.547 168.263Z" fill="#E30613" stroke="black" stroke-width="3"/>
<path d="M239.731 185.629C239.104 199.215 249.559 210.724 263.07 211.349C276.581 211.973 288.053 201.477 288.681 187.891C289.309 174.305 278.853 162.796 265.343 162.171C251.832 161.547 240.359 172.043 239.731 185.629Z" fill="#FFDE00" stroke="black" stroke-width="3"/>
<circle cx="217.147" cy="214.498" r="28.648" transform="rotate(27.4222 217.147 214.498)" fill="#E30613" stroke="black" stroke-width="3"/>
<path d="M62.7337 201.977C56.6505 206.433 51.451 211.827 47.5753 217.256C51.4466 211.198 56.6803 206.108 62.7337 201.977C68.8422 197.502 75.8417 193.972 83.2862 192.299C98.1254 187.774 114.102 187.314 126.389 190.822C150.668 197.753 165.162 235.439 180.885 237.248C196.906 239.09 198.473 218.867 202.749 213.755L241.138 228.675C241.423 249.31 169.002 278.997 138.192 224.567C121.405 194.91 101.075 188.302 83.2862 192.299C75.9653 194.532 68.9213 197.754 62.7337 201.977Z" fill="#E30613"/>
<path d="M47.5753 217.256C64.6421 193.346 107.383 170.138 138.192 224.567C169.002 278.997 241.423 249.31 241.138 228.675L202.749 213.755C198.473 218.867 196.906 239.09 180.885 237.248C165.162 235.439 150.668 197.753 126.389 190.822C102.11 183.89 63.4244 192.452 47.5753 217.256Z" stroke="black" stroke-width="3"/>
<circle cx="195.963" cy="208.144" r="24.297" transform="rotate(179.208 195.963 208.144)" fill="#FFDE00" stroke="black" stroke-width="3"/>
<circle cx="187.44" cy="215.34" r="23.8524" transform="rotate(27.4222 187.44 215.34)" fill="#E30613" stroke="black" stroke-width="3"/>
<path d="M57.5897 204.809C52.4742 208.556 48.1017 213.092 44.8425 217.658C48.098 212.563 52.4992 208.283 57.5897 204.809C62.7266 201.045 68.6126 198.077 74.873 196.67C87.3518 192.865 100.787 192.478 111.12 195.428C131.537 201.257 143.725 232.948 156.947 234.469C170.42 236.018 171.737 219.012 175.333 214.713L207.616 227.26C207.856 244.613 146.954 269.577 121.045 223.806C106.928 198.865 89.8321 193.309 74.873 196.67C68.7166 198.548 62.793 201.257 57.5897 204.809Z" fill="#E30613"/>
<path d="M44.8425 217.658C59.1946 197.551 95.1368 178.034 121.045 223.806C146.954 269.577 207.856 244.613 207.616 227.26L175.333 214.713C171.737 219.012 170.42 236.018 156.947 234.469C143.725 232.948 131.537 201.257 111.12 195.428C90.7024 189.599 58.1705 196.799 44.8425 217.658Z" stroke="black" stroke-width="3"/>
<circle cx="169.627" cy="209.993" r="20.1936" transform="rotate(179.208 169.627 209.993)" fill="#FFDE00" stroke="black" stroke-width="3"/>
<circle cx="61.8255" cy="228.952" r="20.3793" transform="rotate(-156.314 61.8255 228.952)" fill="#E30613" stroke="black" stroke-width="3"/>
<path d="M118.527 217.927C143.413 255.887 204.88 261.005 221.126 250.395C205.123 265.326 166.058 259.391 128.671 241.807C112.089 234.009 98.4818 211.329 87.0097 210.764C75.3202 210.187 75.1423 224.907 72.2875 228.811L43.7807 219.822C42.5981 204.891 93.6409 179.967 118.527 217.927Z" fill="#E30613" stroke="black" stroke-width="3"/>
<circle cx="78.8243" cy="223.517" r="17.2217" transform="rotate(-4.52877 78.8243 223.517)" fill="#FFDE00" stroke="black" stroke-width="3"/>
</svg>
