<svg width="395" height="460" viewBox="0 0 395 460" fill="none" xmlns="http://www.w3.org/2000/svg">
<rect x="173.654" y="65.0708" width="46.7884" height="180.184" rx="23.3942" fill="#E30613" stroke="#1B1A1A" stroke-width="3"/>
<rect x="252.563" y="90.4341" width="34.0222" height="133.214" rx="17.0111" fill="#E30613" stroke="#1B1A1A" stroke-width="3"/>
<rect x="111.653" y="90.4341" width="34.0222" height="133.214" rx="17.0111" fill="#E30613" stroke="#1B1A1A" stroke-width="3"/>
<path d="M143.811 110.181C141.333 86.8167 162.229 53.2145 176.621 38.6151C181.413 37.8675 189.583 38.0445 183.935 44.7333C176.874 53.0943 159.184 79.7633 157.885 103.504C155.583 145.561 184.826 145.947 199.539 160.88C221.192 182.857 198.845 223.092 183.65 244.028C178.598 234.223 206.025 201.6 198.94 179.903C191.062 155.779 148.717 156.445 143.811 110.181Z" fill="#E30613" stroke="#1B1A1A" stroke-width="3"/>
<path d="M251.271 110.181C253.749 86.8167 232.852 53.2145 218.46 38.6151C213.669 37.8675 205.499 38.0445 211.147 44.7333C218.207 53.0943 235.897 79.7633 237.197 103.504C239.499 145.561 210.255 145.947 195.543 160.88C173.89 182.857 196.236 223.092 211.431 244.028C216.484 234.223 189.056 201.6 196.142 179.903C204.02 155.779 246.365 156.445 251.271 110.181Z" fill="#E30613" stroke="#1B1A1A" stroke-width="3"/>
<path d="M58.7803 198.845C59.0777 231.601 80.1348 293.764 161.985 280.365L58.7803 198.845Z" fill="#E30613" stroke="#1B1A1A" stroke-width="3"/>
<path d="M46.2307 108.277C38.1156 163.439 57.1768 273.512 198.342 272.507L46.2307 108.277Z" fill="#E30613" stroke="#1B1A1A" stroke-width="3"/>
<path d="M70.9538 71.5073C60.5786 142.033 84.9485 282.762 265.43 281.477L70.9538 71.5073Z" fill="#E30613" stroke="#1B1A1A" stroke-width="3"/>
<path d="M336.418 198.845C336.121 231.601 315.064 293.764 233.214 280.365L336.418 198.845Z" fill="#E30613" stroke="#1B1A1A" stroke-width="3"/>
<path d="M348.53 106.655C357.237 161.727 339.357 271.998 198.189 272.508L348.53 106.655Z" fill="#E30613" stroke="#1B1A1A" stroke-width="3"/>
<path d="M200.336 207.822C231.341 197.252 283.745 157.737 245.317 84.2368L200.336 207.822Z" fill="#E30613" stroke="#1B1A1A" stroke-width="3"/>
<path d="M150.386 84.2371C133.429 112.264 118.686 176.219 195.368 207.822L150.386 84.2371Z" fill="#E30613" stroke="#1B1A1A" stroke-width="3"/>
<path d="M324.643 70.1448C335.774 140.555 312.915 281.538 132.431 282.189L324.643 70.1448Z" fill="#E30613" stroke="#1B1A1A" stroke-width="3"/>
<path fill-rule="evenodd" clip-rule="evenodd" d="M195.235 284.286C169.225 283.459 121.093 271.504 103.943 249.212C83.5264 222.676 90.2682 199.722 96.1539 179.683C100.058 166.39 103.586 154.379 98.5588 143.456C92.0779 129.374 71.792 121.467 54.9774 114.913C42.3788 110.002 31.729 105.851 30.2949 100.431C62.3713 106.092 117.438 122.606 115.033 159.456C114.58 166.392 112.124 173.277 109.605 180.342C103.029 198.779 96.016 218.441 123.026 243.433C144.115 262.946 183.376 271.526 197.137 272.971C197.33 272.991 197.517 273.013 197.699 273.037C211.628 271.535 251.379 262.861 272.376 243.433C299.385 218.442 292.373 198.78 285.797 180.343C283.277 173.278 280.821 166.393 280.368 159.456C277.964 122.607 333.03 106.093 365.106 100.432C363.672 105.852 353.022 110.003 340.424 114.914C323.609 121.468 303.323 129.375 296.842 143.457C291.815 154.38 295.343 166.391 299.247 179.684C305.133 199.723 311.875 222.677 291.458 249.213C274.308 271.505 221.647 283.502 195.638 284.33C195.559 284.28 195.481 284.23 195.403 284.179C195.347 284.215 195.291 284.251 195.235 284.286Z" fill="#E30613"/>
<path d="M103.943 249.212L102.754 250.127L103.943 249.212ZM195.235 284.286L195.187 285.785L195.646 285.8L196.034 285.555L195.235 284.286ZM96.1539 179.683L97.5931 180.106L96.1539 179.683ZM98.5588 143.456L99.9215 142.829L98.5588 143.456ZM54.9774 114.913L55.5222 113.515L54.9774 114.913ZM30.2949 100.431L30.5556 98.9542L28.2445 98.5464L28.8448 100.815L30.2949 100.431ZM115.033 159.456L113.536 159.358V159.358L115.033 159.456ZM109.605 180.342L111.017 180.846L109.605 180.342ZM123.026 243.433L124.044 242.332L123.026 243.433ZM197.137 272.971L196.98 274.463H196.981L197.137 272.971ZM197.699 273.037L197.504 274.524L197.682 274.548L197.859 274.528L197.699 273.037ZM272.376 243.433L271.357 242.332L272.376 243.433ZM285.797 180.343L287.21 179.839L285.797 180.343ZM280.368 159.456L278.872 159.554L280.368 159.456ZM365.106 100.432L366.556 100.816L367.157 98.5472L364.846 98.955L365.106 100.432ZM340.424 114.914L339.879 113.516V113.516L340.424 114.914ZM296.842 143.457L298.205 144.084L296.842 143.457ZM299.247 179.684L297.808 180.107V180.107L299.247 179.684ZM291.458 249.213L292.647 250.128L291.458 249.213ZM195.638 284.33L194.838 285.599L195.226 285.843L195.685 285.829L195.638 284.33ZM195.403 284.179L196.226 282.924L195.414 282.393L194.596 282.915L195.403 284.179ZM102.754 250.127C111.61 261.638 128.29 270.318 145.787 276.22C163.34 282.14 182.021 285.367 195.187 285.785L195.282 282.787C182.439 282.378 164.049 279.213 146.746 273.377C129.388 267.522 113.426 259.078 105.132 248.298L102.754 250.127ZM94.7146 179.26C91.7804 189.251 88.5513 200.209 88.6851 212.028C88.8197 223.914 92.3476 236.601 102.754 250.127L105.132 248.298C95.1217 235.287 91.8122 223.23 91.685 211.994C91.557 200.693 94.6416 190.155 97.5931 180.106L94.7146 179.26ZM97.1962 144.083C99.5572 149.213 99.9368 154.644 99.2169 160.498C98.4931 166.382 96.6752 172.585 94.7146 179.26L97.5931 180.106C99.5369 173.488 101.435 167.038 102.194 160.864C102.958 154.658 102.588 148.622 99.9215 142.829L97.1962 144.083ZM54.4327 116.311C62.8611 119.596 72.0294 123.172 79.8998 127.664C87.7898 132.167 94.1521 137.469 97.1962 144.083L99.9215 142.829C96.4846 135.361 89.4635 129.668 81.3868 125.059C73.2904 120.438 63.9084 116.784 55.5222 113.515L54.4327 116.311ZM28.8448 100.815C29.3086 102.568 30.4784 104.084 31.9945 105.417C33.5169 106.755 35.4918 107.999 37.7498 109.19C42.2584 111.568 48.1611 113.866 54.4327 116.311L55.5222 113.515C49.1951 111.049 43.4736 108.817 39.1492 106.536C36.9906 105.398 35.2467 104.281 33.9752 103.164C32.6974 102.04 31.9983 101.005 31.745 100.048L28.8448 100.815ZM116.53 159.553C117.792 140.217 103.929 126.449 86.3074 116.928C68.6269 107.375 46.6604 101.796 30.5556 98.9542L30.0342 101.909C46.0058 104.727 67.6106 110.236 84.8813 119.567C102.21 128.93 114.679 141.845 113.536 159.358L116.53 159.553ZM111.017 180.846C113.522 173.824 116.061 166.736 116.53 159.553L113.536 159.358C113.099 166.047 110.727 172.73 108.192 179.838L111.017 180.846ZM124.044 242.332C110.746 230.026 105.981 219.194 105.216 209.314C104.444 199.339 107.712 190.113 111.017 180.846L108.192 179.838C104.921 189.008 101.395 198.832 102.225 209.545C103.062 220.353 108.296 231.847 122.007 244.534L124.044 242.332ZM197.294 271.479C190.528 270.769 177.38 268.287 163.307 263.556C149.215 258.817 134.361 251.877 124.044 242.332L122.007 244.534C132.78 254.501 148.1 261.608 162.351 266.399C176.622 271.197 189.985 273.728 196.98 274.463L197.294 271.479ZM197.893 271.55C197.698 271.524 197.499 271.501 197.294 271.479L196.981 274.463C197.161 274.482 197.336 274.502 197.504 274.524L197.893 271.55ZM197.859 274.528C204.936 273.765 218.461 271.197 232.863 266.38C247.242 261.57 262.665 254.462 273.394 244.534L271.357 242.332C261.089 251.833 246.139 258.776 231.911 263.535C217.705 268.287 204.391 270.807 197.538 271.546L197.859 274.528ZM273.394 244.534C287.105 231.848 292.339 220.354 293.176 209.546C294.006 198.833 290.48 189.009 287.21 179.839L284.384 180.847C287.689 190.113 290.958 199.34 290.185 209.314C289.42 219.195 284.656 230.027 271.357 242.332L273.394 244.534ZM287.21 179.839C284.674 172.731 282.302 166.048 281.865 159.359L278.872 159.554C279.34 166.737 281.879 173.825 284.384 180.847L287.21 179.839ZM281.865 159.359C280.722 141.846 293.191 128.931 310.52 119.568C327.791 110.237 349.396 104.728 365.367 101.909L364.846 98.955C348.741 101.797 326.774 107.376 309.094 116.929C291.472 126.45 277.61 140.217 278.872 159.554L281.865 159.359ZM363.656 100.048C363.403 101.006 362.704 102.041 361.426 103.164C360.155 104.282 358.411 105.399 356.252 106.537C351.928 108.818 346.206 111.05 339.879 113.516L340.969 116.311C347.24 113.867 353.143 111.568 357.651 109.191C359.909 108 361.884 106.756 363.407 105.417C364.923 104.085 366.093 102.569 366.556 100.816L363.656 100.048ZM339.879 113.516C331.493 116.785 322.111 120.439 314.014 125.059C305.938 129.669 298.917 135.362 295.48 142.83L298.205 144.084C301.249 137.469 307.611 132.168 315.501 127.665C323.372 123.173 332.54 119.596 340.969 116.311L339.879 113.516ZM295.48 142.83C292.814 148.623 292.444 154.659 293.207 160.865C293.966 167.039 295.864 173.489 297.808 180.107L300.687 179.261C298.726 172.586 296.908 166.383 296.184 160.498C295.464 154.645 295.844 149.214 298.205 144.084L295.48 142.83ZM297.808 180.107C300.76 190.155 303.844 200.693 303.716 211.995C303.589 223.23 300.28 235.288 290.27 248.299L292.647 250.128C303.054 236.602 306.582 223.914 306.716 212.029C306.85 200.21 303.621 189.251 300.687 179.261L297.808 180.107ZM290.27 248.299C281.995 259.054 264.936 267.514 246.417 273.391C227.972 279.243 208.441 282.422 195.59 282.83L195.685 285.829C208.843 285.41 228.648 282.176 247.324 276.25C265.925 270.348 283.772 261.664 292.647 250.128L290.27 248.299ZM196.437 283.06C196.366 283.016 196.296 282.971 196.226 282.924L194.581 285.434C194.666 285.489 194.752 285.544 194.838 285.599L196.437 283.06ZM196.034 285.555C196.093 285.518 196.152 285.481 196.21 285.443L194.596 282.915C194.542 282.949 194.488 282.983 194.435 283.017L196.034 285.555Z" fill="#1B1A1A"/>
<path d="M224.213 76.999H171.603V139.381H224.213V76.999Z" fill="#FFDE00" stroke="#1B1A1A" stroke-width="3" stroke-miterlimit="10"/>
<path d="M201.401 83.5527H194.72C192.003 83.5527 189.493 85.0025 188.135 87.3555L184.794 93.144C183.436 95.4969 183.436 98.3965 184.794 100.749L188.135 106.538C189.493 108.891 192.003 110.341 194.72 110.341H201.401C204.118 110.341 206.628 108.891 207.986 106.538L211.327 100.749C212.685 98.3965 212.685 95.4969 211.327 93.144L207.986 87.3555C206.628 85.0025 204.118 83.5527 201.401 83.5527Z" fill="#E30613" stroke="#1B1A1A" stroke-width="3" stroke-miterlimit="10"/>
<path d="M198.061 0C198.061 34.2862 152.835 20.5171 152.835 47.774C152.835 66.04 171.603 61.4226 171.603 76.9979H224.518C224.518 61.4226 243.287 66.04 243.287 47.774C243.287 20.5171 198.061 34.2862 198.061 0Z" fill="#E30613" stroke="#1B1A1A" stroke-width="3" stroke-miterlimit="10"/>
<path d="M163.625 336.998L198.152 278.236L233.375 336.998L198.152 442.497L163.625 336.998Z" fill="#009FE3" stroke="#1B1A1A" stroke-width="3"/>
<path d="M198.5 442.497L198.5 278.509" stroke="#1B1A1A" stroke-width="3"/>
<path d="M233.375 320.258L267.902 261.496L303.125 320.258L267.902 425.757L233.375 320.258Z" fill="#009FE3" stroke="#1B1A1A" stroke-width="3"/>
<path d="M268.25 425.757V261.769" stroke="#1B1A1A" stroke-width="3"/>
<path d="M93.8755 320.258L128.402 261.496L163.625 320.258L128.402 425.757L93.8755 320.258Z" fill="#009FE3" stroke="#1B1A1A" stroke-width="3"/>
<path d="M128.75 425.757L128.75 261.769" stroke="#1B1A1A" stroke-width="3"/>
<path d="M170.949 371.538L198.052 325.41L225.703 371.538L198.052 454.355L170.949 371.538Z" fill="#009FE3" stroke="#1B1A1A" stroke-width="3"/>
<path d="M198.326 454.355L198.326 325.624" stroke="#1B1A1A" stroke-width="3"/>
<path d="M128.937 330.305L163.371 271.7L198.5 330.305L163.371 435.522L128.937 330.305Z" fill="#009FE3" stroke="#1B1A1A" stroke-width="3"/>
<path d="M163.719 435.522L163.719 271.972" stroke="#1B1A1A" stroke-width="3"/>
<path d="M198.687 330.305L233.121 271.7L268.25 330.305L233.121 435.522L198.687 330.305Z" fill="#009FE3" stroke="#1B1A1A" stroke-width="3"/>
<path d="M233.469 435.522L233.469 271.972" stroke="#1B1A1A" stroke-width="3"/>
<path d="M183.53 286.099L198.191 261.147L213.148 286.099L198.191 330.897L183.53 286.099Z" fill="#009FE3" stroke="#1B1A1A" stroke-width="3"/>
<path d="M198.339 330.897V261.263" stroke="#1B1A1A" stroke-width="3"/>
<path d="M114.478 286.099L129.138 261.147L144.095 286.099L129.138 330.897L114.478 286.099Z" fill="#009FE3" stroke="#1B1A1A" stroke-width="3"/>
<path d="M129.287 330.897V261.263" stroke="#1B1A1A" stroke-width="3"/>
<path d="M253.28 286.797L267.941 261.845L282.898 286.797L267.941 331.595L253.28 286.797Z" fill="#009FE3" stroke="#1B1A1A" stroke-width="3"/>
<path d="M268.089 331.594V261.961" stroke="#1B1A1A" stroke-width="3"/>
<path d="M268.25 263.761L302.777 204.999L338 263.761L302.777 369.26L268.25 263.761Z" fill="#009FE3" stroke="#1B1A1A" stroke-width="3"/>
<path d="M303.125 369.26V205.272" stroke="#1B1A1A" stroke-width="3"/>
<path d="M198.5 263.761L233.027 204.999L268.25 263.761L233.027 369.26L198.5 263.761Z" fill="#009FE3" stroke="#1B1A1A" stroke-width="3"/>
<path d="M233.375 369.26L233.375 205.272" stroke="#1B1A1A" stroke-width="3"/>
<path d="M128.75 263.761L163.277 204.999L198.5 263.761L163.277 369.26L128.75 263.761Z" fill="#009FE3" stroke="#1B1A1A" stroke-width="3"/>
<path d="M163.625 369.26L163.625 205.272" stroke="#1B1A1A" stroke-width="3"/>
<path d="M59.0005 263.761L93.5267 204.999L128.75 263.761L93.5267 369.26L59.0005 263.761Z" fill="#009FE3" stroke="#1B1A1A" stroke-width="3"/>
<path d="M93.8755 369.26L93.8755 205.272" stroke="#1B1A1A" stroke-width="3"/>
</svg>
