<svg width="284" height="346" viewBox="0 0 284 346" fill="none" xmlns="http://www.w3.org/2000/svg">
<path d="M181.218 110.56L149.868 163.916L117.885 110.56L149.868 14.7659L181.218 110.56Z" fill="#E30613" stroke="#1B1A1A" stroke-width="2.5"/>
<path d="M149.551 14.7659V163.668" stroke="#1B1A1A" stroke-width="2.5"/>
<path d="M117.884 125.761L86.5338 179.118L54.5504 125.761L86.5338 29.967L117.884 125.761Z" fill="#E30613" stroke="#1B1A1A" stroke-width="2.5"/>
<path d="M86.2177 29.9685V178.871" stroke="#1B1A1A" stroke-width="2.5"/>
<path d="M244.551 125.761L213.201 179.118L181.217 125.761L213.201 29.967L244.551 125.761Z" fill="#E30613" stroke="#1B1A1A" stroke-width="2.5"/>
<path d="M212.883 29.9685V178.871" stroke="#1B1A1A" stroke-width="2.5"/>
<path d="M174.569 79.1984L149.959 121.083L124.852 79.1984L149.959 4.00024L174.569 79.1984Z" fill="#E30613" stroke="#1B1A1A" stroke-width="2.5"/>
<path d="M149.711 4V120.888" stroke="#1B1A1A" stroke-width="2.5"/>
<path d="M212.715 116.637L181.449 169.851L149.551 116.637L181.449 21.0999L212.715 116.637Z" fill="#E30613" stroke="#1B1A1A" stroke-width="2.5"/>
<path d="M181.133 21.1001V169.604" stroke="#1B1A1A" stroke-width="2.5"/>
<path d="M149.382 116.637L118.116 169.851L86.2181 116.637L118.116 21.0999L149.382 116.637Z" fill="#E30613" stroke="#1B1A1A" stroke-width="2.5"/>
<path d="M117.799 21.1001V169.604" stroke="#1B1A1A" stroke-width="2.5"/>
<path d="M163.144 156.777L149.832 179.434L136.251 156.777L149.832 116.1L163.144 156.777Z" fill="#E30613" stroke="#1B1A1A" stroke-width="2.5"/>
<path d="M149.697 116.1V179.328" stroke="#1B1A1A" stroke-width="2.5"/>
<path d="M225.845 156.777L212.533 179.434L198.952 156.777L212.533 116.1L225.845 156.777Z" fill="#E30613" stroke="#1B1A1A" stroke-width="2.5"/>
<path d="M212.398 116.1V179.328" stroke="#1B1A1A" stroke-width="2.5"/>
<path d="M99.8099 156.143L86.4978 178.799L72.9167 156.143L86.4978 115.466L99.8099 156.143Z" fill="#E30613" stroke="#1B1A1A" stroke-width="2.5"/>
<path d="M86.3628 115.466V178.694" stroke="#1B1A1A" stroke-width="2.5"/>
<path d="M86.2174 177.062L54.8673 230.419L22.8839 177.062L54.8673 81.2686L86.2174 177.062Z" fill="#E30613" stroke="#1B1A1A" stroke-width="2.5"/>
<path d="M54.5505 81.2676V230.17" stroke="#1B1A1A" stroke-width="2.5"/>
<path d="M149.552 177.062L118.202 230.419L86.2181 177.062L118.202 81.2686L149.552 177.062Z" fill="#E30613" stroke="#1B1A1A" stroke-width="2.5"/>
<path d="M117.885 81.2676V230.17" stroke="#1B1A1A" stroke-width="2.5"/>
<path d="M212.885 177.062L181.534 230.419L149.551 177.062L181.534 81.2686L212.885 177.062Z" fill="#E30613" stroke="#1B1A1A" stroke-width="2.5"/>
<path d="M181.219 81.2676V230.17" stroke="#1B1A1A" stroke-width="2.5"/>
<path d="M276.219 177.062L244.869 230.419L212.885 177.062L244.869 81.2686L276.219 177.062Z" fill="#E30613" stroke="#1B1A1A" stroke-width="2.5"/>
<path d="M244.552 81.2676V230.17" stroke="#1B1A1A" stroke-width="2.5"/>
<path d="M50.0347 223.749C60.5566 223.749 69.0863 215.235 69.0863 204.733C69.0863 194.231 60.5566 185.717 50.0347 185.717C39.5128 185.717 30.9831 194.231 30.9831 204.733C30.9831 215.235 39.5128 223.749 50.0347 223.749Z" fill="#FFDE00" stroke="#1B1A1A" stroke-width="2.5" stroke-miterlimit="10"/>
<path d="M38.7756 201.31C49.2975 201.31 57.8272 192.796 57.8272 182.294C57.8272 171.791 49.2975 163.278 38.7756 163.278C28.2537 163.278 19.724 171.791 19.724 182.294C19.724 192.796 28.2537 201.31 38.7756 201.31Z" fill="#FFDE00" stroke="#1B1A1A" stroke-width="2.5" stroke-miterlimit="10"/>
<path d="M103.297 297.112C117.629 297.112 129.248 285.515 129.248 271.21C129.248 256.904 117.629 245.307 103.297 245.307C88.9643 245.307 77.3457 256.904 77.3457 271.21C77.3457 285.515 88.9643 297.112 103.297 297.112Z" fill="#FFDE00" stroke="#1B1A1A" stroke-width="2.5" stroke-miterlimit="10"/>
<path d="M75.7875 291.339C100.694 291.339 120.885 271.186 120.885 246.326C120.885 221.466 100.694 201.313 75.7875 201.313C50.8811 201.313 30.6904 221.466 30.6904 246.326C30.6904 271.186 50.8811 291.339 75.7875 291.339Z" fill="#FFDE00" stroke="#1B1A1A" stroke-width="2.5" stroke-miterlimit="10"/>
<path d="M135.223 303.08C152.857 303.08 167.153 288.811 167.153 271.21C167.153 253.608 152.857 239.339 135.223 239.339C117.589 239.339 103.293 253.608 103.293 271.21C103.293 288.811 117.589 303.08 135.223 303.08Z" fill="#FFDE00" stroke="#1B1A1A" stroke-width="2.5" stroke-miterlimit="10"/>
<path d="M79.0923 226.532C97.45 226.532 112.332 211.678 112.332 193.355C112.332 175.031 97.45 160.177 79.0923 160.177C60.7346 160.177 45.8528 175.031 45.8528 193.355C45.8528 211.678 60.7346 226.532 79.0923 226.532Z" fill="#FFDE00" stroke="#1B1A1A" stroke-width="2.5" stroke-miterlimit="10"/>
<path d="M254.769 234.489C270.126 234.489 282.575 222.063 282.575 206.735C282.575 191.407 270.126 178.981 254.769 178.981C239.413 178.981 226.964 191.407 226.964 206.735C226.964 222.063 239.413 234.489 254.769 234.489Z" fill="#FFDE00" stroke="#1B1A1A" stroke-width="2.5" stroke-miterlimit="10"/>
<path d="M165.692 328.981C180.024 328.981 191.643 317.384 191.643 303.078C191.643 288.772 180.024 277.176 165.692 277.176C151.36 277.176 139.741 288.772 139.741 303.078C139.741 317.384 151.36 328.981 165.692 328.981Z" fill="#FFDE00" stroke="#1B1A1A" stroke-width="2.5" stroke-miterlimit="10"/>
<path d="M96.3973 343.826C106.919 343.826 115.449 335.312 115.449 324.81C115.449 314.307 106.919 305.793 96.3973 305.793C85.8754 305.793 77.3457 314.307 77.3457 324.81C77.3457 335.312 85.8754 343.826 96.3973 343.826Z" fill="#FFDE00" stroke="#1B1A1A" stroke-width="2.5" stroke-miterlimit="10"/>
<path d="M259.658 274.749C265.786 274.749 270.753 269.791 270.753 263.674C270.753 257.558 265.786 252.599 259.658 252.599C253.53 252.599 248.562 257.558 248.562 263.674C248.562 269.791 253.53 274.749 259.658 274.749Z" fill="#FFDE00" stroke="#1B1A1A" stroke-width="2.5" stroke-miterlimit="10"/>
<path d="M212.509 331.345C218.637 331.345 223.605 326.387 223.605 320.27C223.605 314.154 218.637 309.196 212.509 309.196C206.381 309.196 201.414 314.154 201.414 320.27C201.414 326.387 206.381 331.345 212.509 331.345Z" fill="#FFDE00" stroke="#1B1A1A" stroke-width="2.5" stroke-miterlimit="10"/>
<path d="M13.0956 237.611C19.2235 237.611 24.1912 232.653 24.1912 226.536C24.1912 220.42 19.2235 215.461 13.0956 215.461C6.96767 215.461 2 220.42 2 226.536C2 232.653 6.96767 237.611 13.0956 237.611Z" fill="#FFDE00" stroke="#1B1A1A" stroke-width="2.5" stroke-miterlimit="10"/>
<path d="M238.203 253.505C248.725 253.505 257.255 244.992 257.255 234.489C257.255 223.987 248.725 215.473 238.203 215.473C227.682 215.473 219.152 223.987 219.152 234.489C219.152 244.992 227.682 253.505 238.203 253.505Z" fill="#FFDE00" stroke="#1B1A1A" stroke-width="2.5" stroke-miterlimit="10"/>
<path d="M226.962 305.794C234.961 305.794 241.445 299.322 241.445 291.339C241.445 283.355 234.961 276.883 226.962 276.883C218.964 276.883 212.48 283.355 212.48 291.339C212.48 299.322 218.964 305.794 226.962 305.794Z" fill="#FFDE00" stroke="#1B1A1A" stroke-width="2.5" stroke-miterlimit="10"/>
<path d="M226.962 289.207C234.961 289.207 241.445 282.735 241.445 274.752C241.445 266.768 234.961 260.296 226.962 260.296C218.964 260.296 212.48 266.768 212.48 274.752C212.48 282.735 218.964 289.207 226.962 289.207Z" fill="#FFDE00" stroke="#1B1A1A" stroke-width="2.5" stroke-miterlimit="10"/>
<path d="M212.51 303.659C220.508 303.659 226.992 297.187 226.992 289.203C226.992 281.219 220.508 274.747 212.51 274.747C204.511 274.747 198.027 281.219 198.027 289.203C198.027 297.187 204.511 303.659 212.51 303.659Z" fill="#FFDE00" stroke="#1B1A1A" stroke-width="2.5" stroke-miterlimit="10"/>
<path d="M188.337 292.891C214.64 292.891 235.962 271.609 235.962 245.355C235.962 219.102 214.64 197.819 188.337 197.819C162.035 197.819 140.712 219.102 140.712 245.355C140.712 271.609 162.035 292.891 188.337 292.891Z" fill="#FFDE00" stroke="#1B1A1A" stroke-width="2.5" stroke-miterlimit="10"/>
<path d="M145.962 255.748C171.191 255.748 191.643 235.334 191.643 210.152C191.643 184.97 171.191 164.556 145.962 164.556C120.733 164.556 100.281 184.97 100.281 210.152C100.281 235.334 120.733 255.748 145.962 255.748Z" fill="#FFDE00" stroke="#1B1A1A" stroke-width="2.5" stroke-miterlimit="10"/>
<path d="M215.556 236.995C235.301 236.995 251.307 221.018 251.307 201.311C251.307 181.603 235.301 165.627 215.556 165.627C195.812 165.627 179.806 181.603 179.806 201.311C179.806 221.018 195.812 236.995 215.556 236.995Z" fill="#FFDE00" stroke="#1B1A1A" stroke-width="2.5" stroke-miterlimit="10"/>
<path d="M184.743 242.765C195.265 242.765 203.794 234.252 203.794 223.749C203.794 213.247 195.265 204.733 184.743 204.733C174.221 204.733 165.691 213.247 165.691 223.749C165.691 234.252 174.221 242.765 184.743 242.765Z" fill="#FFDE00" stroke="#1B1A1A" stroke-width="2.5" stroke-miterlimit="10"/>
<path d="M75.7867 285.975C86.3086 285.975 94.8383 277.461 94.8383 266.958C94.8383 256.456 86.3086 247.942 75.7867 247.942C65.2647 247.942 56.735 256.456 56.735 266.958C56.735 277.461 65.2647 285.975 75.7867 285.975Z" fill="#FFDE00" stroke="#1B1A1A" stroke-width="2.5" stroke-miterlimit="10"/>
</svg>
