<svg width="280" height="416" viewBox="0 0 280 416" fill="none" xmlns="http://www.w3.org/2000/svg">
<circle cx="155.795" cy="112.902" r="111.652" transform="rotate(-180 155.795 112.902)" fill="#FFDE00" stroke="#1B1A1A" stroke-width="2.5"/>
<path d="M120.156 263.77L165.453 187.836L74.8654 187.836L120.156 263.77Z" fill="#009FE3" stroke="#1B1A1A" stroke-width="2.5" stroke-miterlimit="10"/>
<path d="M165.449 277.092L210.747 163.191L120.159 163.191L165.449 277.092Z" fill="#009FE3" stroke="#1B1A1A" stroke-width="2.5" stroke-miterlimit="10"/>
<path d="M217.071 253.113L268.697 155.198L165.453 155.198L217.071 253.113Z" fill="#009FE3" stroke="#1B1A1A" stroke-width="2.5" stroke-miterlimit="10"/>
<path d="M94.8432 239.126L140.141 163.192L49.5529 163.192L94.8432 239.126Z" fill="#009FE3" stroke="#1B1A1A" stroke-width="2.5" stroke-miterlimit="10"/>
<rect x="76.1154" y="151.786" width="28.14" height="215.31" fill="#E30613" stroke="#1B1A1A" stroke-width="2.5"/>
<path d="M266.414 99.9126C266.414 99.2222 265.854 98.6626 265.164 98.6626C264.473 98.6626 263.914 99.2222 263.914 99.9126C263.914 107.869 258.774 113.836 252.973 113.836C247.173 113.836 242.033 107.869 242.033 99.9126C242.033 99.2222 241.473 98.6626 240.783 98.6626C240.092 98.6626 239.533 99.2222 239.533 99.9126C239.533 107.869 234.393 113.836 228.592 113.836C222.792 113.836 217.652 107.869 217.652 99.9126C217.652 99.2222 217.092 98.6626 216.402 98.6626C215.712 98.6626 215.152 99.2222 215.152 99.9126C215.152 107.869 210.012 113.836 204.211 113.836C198.411 113.836 193.271 107.869 193.271 99.9126C193.271 99.2222 192.711 98.6626 192.021 98.6626C191.331 98.6626 190.771 99.2222 190.771 99.9126C190.771 107.869 185.631 113.836 179.83 113.836C174.031 113.836 168.901 107.871 168.901 99.9126C168.901 99.2222 168.341 98.6626 167.651 98.6626C166.961 98.6626 166.401 99.2222 166.401 99.9126C166.401 107.869 161.261 113.836 155.46 113.836C149.66 113.836 144.52 107.869 144.52 99.9126C144.52 99.2222 143.96 98.6626 143.27 98.6626C142.58 98.6626 142.02 99.2222 142.02 99.9126C142.02 107.869 136.88 113.836 131.079 113.836C125.28 113.836 120.145 107.87 120.145 99.9126C120.145 99.2222 119.585 98.6626 118.895 98.6626C118.204 98.6626 117.645 99.2222 117.645 99.9126C117.645 107.869 112.504 113.836 106.704 113.836C100.904 113.836 95.7635 107.869 95.7635 99.9126C95.7635 99.2222 95.2039 98.6626 94.5135 98.6626C93.8232 98.6626 93.2635 99.2222 93.2635 99.9126C93.2635 107.869 88.1233 113.836 82.3231 113.836C76.5228 113.836 71.3826 107.869 71.3826 99.9126C71.3826 99.2222 70.8229 98.6626 70.1326 98.6626C69.4422 98.6626 68.8826 99.2222 68.8826 99.9126C68.8826 107.869 63.7424 113.836 57.9421 113.836C52.1425 113.836 47.0071 107.87 47.0071 99.9126C47.0071 99.2222 46.4475 98.6626 45.7571 98.6626C45.0667 98.6626 44.5071 99.2222 44.5071 99.9126C44.5071 107.869 39.3669 113.836 33.5666 113.836C32.8763 113.836 32.3166 114.395 32.3166 115.086L32.3166 163.191C32.3166 163.881 32.8763 164.441 33.5666 164.441L277.354 164.441C278.045 164.441 278.604 163.881 278.604 163.191V115.086C278.604 114.395 278.045 113.836 277.354 113.836C271.554 113.836 266.414 107.869 266.414 99.9126Z" fill="#E30613" stroke="#1B1A1A" stroke-width="2.5" stroke-miterlimit="10" stroke-linecap="round" stroke-linejoin="round"/>
<path d="M253.201 133.925C246.48 133.925 241.037 126.839 241.037 118.105C241.037 126.839 235.589 133.925 228.869 133.925C222.148 133.925 216.7 126.839 216.7 118.105C216.7 126.839 211.251 133.925 204.531 133.925C197.811 133.925 192.368 126.839 192.368 118.105C192.368 126.839 186.919 133.925 180.199 133.925" stroke="#1B1A1A" stroke-width="2.5" stroke-miterlimit="10" stroke-linecap="round" stroke-linejoin="round"/>
<path d="M105.806 149.745C99.086 149.745 93.6374 142.66 93.6374 133.925C93.6374 142.66 88.1888 149.745 81.4686 149.745C74.7483 149.745 69.3052 142.66 69.3052 133.925C69.3052 142.66 63.8566 149.745 57.1364 149.745" stroke="#1B1A1A" stroke-width="2.5" stroke-miterlimit="10" stroke-linecap="round" stroke-linejoin="round"/>
<path d="M83.5232 196.83V267.102" stroke="#1B1A1A" stroke-width="2.5"/>
<path d="M94.1805 239.126V309.398" stroke="#1B1A1A" stroke-width="2.5"/>
<path d="M83.5232 274.427V344.699" stroke="#1B1A1A" stroke-width="2.5"/>
<path d="M98.1785 163.191V233.464" stroke="#1B1A1A" stroke-width="2.5"/>
<path d="M149.843 342.344C154.43 341.917 157.728 337.01 157.302 332.435C156.877 327.86 152.81 324.496 148.223 324.922C144.907 325.231 142.236 327.436 141.165 330.356C139.573 327.68 136.538 326.009 133.226 326.317C132.112 326.42 131.074 326.74 130.138 327.226C126.181 318.838 117.265 313.409 107.475 314.319C97.2971 315.266 89.3128 322.773 87.3323 332.258C84.4995 328.736 80.0011 326.652 75.1488 327.103C69.9849 327.583 65.7441 330.815 63.7334 335.208C62.3733 334.515 60.8097 334.18 59.1752 334.331C56.286 334.6 53.8751 336.309 52.5977 338.682C52.6776 337.829 52.6865 336.952 52.6042 336.067C51.8927 328.416 45.0935 322.79 37.4203 323.504C32.6917 323.943 28.7329 326.689 26.5582 330.523C25.1218 329.703 23.4265 329.294 21.6512 329.46C17.0634 329.886 13.6871 333.943 14.1124 338.518C14.1196 338.594 14.1352 338.67 14.1466 338.746C13.3703 338.591 12.5565 338.542 11.7285 338.619C7.1408 339.046 3.76444 343.102 4.18982 347.677C4.61521 352.252 8.68167 355.616 13.2694 355.19" fill="#E30613"/>
<path d="M149.843 342.344C154.43 341.917 157.728 337.01 157.302 332.435C156.877 327.86 152.81 324.496 148.223 324.922C144.907 325.231 142.236 327.436 141.165 330.356C139.573 327.68 136.538 326.009 133.226 326.317C132.112 326.42 131.074 326.74 130.138 327.226C126.181 318.838 117.265 313.409 107.475 314.319C97.2971 315.266 89.3128 322.773 87.3323 332.258C84.4995 328.736 80.0011 326.652 75.1488 327.103C69.9849 327.583 65.7441 330.815 63.7334 335.208C62.3733 334.515 60.8097 334.18 59.1752 334.331C56.286 334.6 53.8751 336.309 52.5977 338.682C52.6776 337.829 52.6865 336.952 52.6042 336.067C51.8927 328.416 45.0935 322.79 37.4203 323.504C32.6917 323.943 28.7329 326.689 26.5582 330.523C25.1218 329.703 23.4265 329.294 21.6512 329.46C17.0634 329.886 13.6871 333.943 14.1124 338.518C14.1196 338.594 14.1352 338.67 14.1466 338.746C13.3703 338.591 12.5565 338.542 11.7285 338.619C7.1408 339.046 3.76444 343.102 4.18982 347.677C4.61521 352.252 8.68167 355.616 13.2694 355.19" stroke="#1B1A1A" stroke-width="2.5" stroke-miterlimit="10"/>
<path d="M172.429 370.87C177.032 370.87 180.766 367.146 180.766 362.556C180.766 357.966 177.032 354.243 172.429 354.243C171.495 354.243 170.6 354.401 169.761 354.687C168.661 343.21 158.97 334.235 147.173 334.235C139.41 334.235 132.563 338.125 128.469 344.051C126.983 341.762 124.405 340.242 121.468 340.242C118.038 340.242 115.096 342.309 113.816 345.259C111.306 342.838 107.889 341.344 104.121 341.344C96.4216 341.344 90.1783 347.569 90.1783 355.246C90.1783 362.924 96.4216 369.149 104.121 369.149" fill="#E30613"/>
<path d="M172.429 370.87C177.032 370.87 180.766 367.146 180.766 362.556C180.766 357.966 177.032 354.243 172.429 354.243C171.495 354.243 170.6 354.401 169.761 354.687C168.661 343.21 158.97 334.235 147.173 334.235C139.41 334.235 132.563 338.125 128.469 344.051C126.983 341.762 124.405 340.242 121.468 340.242C118.038 340.242 115.096 342.309 113.816 345.259C111.306 342.838 107.889 341.344 104.121 341.344C96.4216 341.344 90.1783 347.569 90.1783 355.246C90.1783 362.924 96.4216 369.149 104.121 369.149" stroke="#1B1A1A" stroke-width="2.5" stroke-miterlimit="10"/>
<path d="M10.3381 374.229C5.73481 374.229 2.00082 370.506 2.00082 365.915C2.00082 361.325 5.73481 357.602 10.3381 357.602C11.2716 357.602 12.1665 357.76 13.0058 358.046C14.1063 346.569 23.7967 337.594 35.5939 337.594C43.3573 337.594 50.2044 341.484 54.2981 347.41C55.784 345.122 58.3618 343.602 61.2993 343.602C64.7293 343.602 67.6711 345.668 68.9514 348.619C71.4607 346.198 74.8778 344.703 78.6461 344.703C86.3453 344.703 92.5886 350.929 92.5886 358.606C92.5886 366.283 86.3453 372.508 78.6461 372.508" fill="#E30613"/>
<path d="M10.3381 374.229C5.73481 374.229 2.00082 370.506 2.00082 365.915C2.00082 361.325 5.73481 357.602 10.3381 357.602C11.2716 357.602 12.1665 357.76 13.0058 358.046C14.1063 346.569 23.7967 337.594 35.5939 337.594C43.3573 337.594 50.2044 341.484 54.2981 347.41C55.784 345.122 58.3618 343.602 61.2993 343.602C64.7293 343.602 67.6711 345.668 68.9514 348.619C71.4607 346.198 74.8778 344.703 78.6461 344.703C86.3453 344.703 92.5886 350.929 92.5886 358.606C92.5886 366.283 86.3453 372.508 78.6461 372.508" stroke="#1B1A1A" stroke-width="2.5" stroke-miterlimit="10"/>
<path d="M149.749 365.939C154.371 365.939 158.121 361.375 158.121 356.798C158.121 352.222 154.371 348.51 149.749 348.51C146.407 348.51 143.535 350.451 142.193 353.248C140.851 350.447 137.974 348.51 134.637 348.51C133.515 348.51 132.449 348.731 131.468 349.127C128.299 340.442 119.896 334.235 110.031 334.235C99.775 334.235 91.1013 340.944 88.2417 350.17C85.7346 346.415 81.4386 343.933 76.5492 343.933C71.3459 343.933 66.8091 346.747 64.3923 350.919C63.0979 350.106 61.567 349.629 59.92 349.629C55.2972 349.629 51.5474 353.342 51.5474 357.918C51.5474 362.495 55.2972 366.207 59.92 366.207" fill="#E30613"/>
<path d="M149.749 365.939C154.371 365.939 158.121 361.375 158.121 356.798C158.121 352.222 154.371 348.51 149.749 348.51C146.407 348.51 143.535 350.451 142.193 353.248C140.851 350.447 137.974 348.51 134.637 348.51C133.515 348.51 132.449 348.731 131.468 349.127C128.299 340.442 119.896 334.235 110.031 334.235C99.775 334.235 91.1013 340.944 88.2417 350.17C85.7346 346.415 81.4386 343.933 76.5492 343.933C71.3459 343.933 66.8091 346.747 64.3923 350.919C63.0979 350.106 61.567 349.629 59.92 349.629C55.2972 349.629 51.5474 353.342 51.5474 357.918C51.5474 362.495 55.2972 366.207 59.92 366.207" stroke="#1B1A1A" stroke-width="2.5" stroke-miterlimit="10"/>
<path d="M12.8922 369.774C8.26943 369.774 4.51958 374.338 4.51958 378.914C4.51958 383.491 8.26943 387.203 12.8922 387.203C16.2336 387.203 19.1061 385.262 20.4478 382.465C21.7895 385.266 24.6664 387.203 28.0034 387.203C29.1258 387.203 30.1923 386.982 31.1727 386.586C34.342 395.271 42.7448 401.478 52.6096 401.478C62.8658 401.478 71.5395 394.769 74.3991 385.543C76.9062 389.298 81.2022 391.78 86.0916 391.78C91.295 391.78 95.8317 388.966 98.2485 384.794C99.5429 385.607 101.074 386.084 102.721 386.084C107.344 386.084 111.093 382.371 111.093 377.795C111.093 373.218 107.344 369.506 102.721 369.506" fill="#E30613"/>
<path d="M12.8922 369.774C8.26943 369.774 4.51958 374.338 4.51958 378.914C4.51958 383.491 8.26943 387.203 12.8922 387.203C16.2336 387.203 19.1061 385.262 20.4478 382.465C21.7895 385.266 24.6664 387.203 28.0034 387.203C29.1258 387.203 30.1923 386.982 31.1727 386.586C34.342 395.271 42.7448 401.478 52.6096 401.478C62.8658 401.478 71.5395 394.769 74.3991 385.543C76.9062 389.298 81.2022 391.78 86.0916 391.78C91.295 391.78 95.8317 388.966 98.2485 384.794C99.5429 385.607 101.074 386.084 102.721 386.084C107.344 386.084 111.093 382.371 111.093 377.795C111.093 373.218 107.344 369.506 102.721 369.506" stroke="#1B1A1A" stroke-width="2.5" stroke-miterlimit="10"/>
<path d="M80.9183 376.561C76.3038 376.839 72.8817 382.394 73.2035 387.739C73.5253 393.084 77.5294 397.194 82.1439 396.916C85.4791 396.716 88.21 394.276 89.3526 390.928C90.8889 394.119 93.8968 396.209 97.2277 396.008C98.3481 395.941 99.3971 395.618 100.348 395.097C104.122 405.049 112.946 411.794 122.793 411.201C133.031 410.584 141.217 402.227 143.423 391.281C146.189 395.515 150.652 398.156 155.533 397.862C160.727 397.549 165.057 393.99 167.176 388.972C168.526 389.844 170.087 390.309 171.731 390.21C176.346 389.932 179.828 385.371 179.506 380.026C179.184 374.681 175.18 370.571 170.566 370.849" fill="#E30613"/>
<path d="M80.9183 376.561C76.3038 376.839 72.8817 382.394 73.2035 387.739C73.5253 393.084 77.5294 397.194 82.1439 396.916C85.4791 396.716 88.21 394.276 89.3526 390.928C90.8889 394.119 93.8967 396.209 97.2277 396.008C98.3481 395.941 99.3971 395.618 100.348 395.097C104.122 405.049 112.946 411.794 122.793 411.201C133.031 410.584 141.217 402.227 143.423 391.281C146.189 395.515 150.652 398.156 155.533 397.862C160.727 397.549 165.057 393.99 167.176 388.972C168.526 389.844 170.087 390.309 171.731 390.21C176.346 389.932 179.828 385.371 179.506 380.026C179.184 374.681 175.18 370.571 170.566 370.849" stroke="#1B1A1A" stroke-width="2.5" stroke-miterlimit="10"/>
<rect x="81.7801" y="367.826" width="90.6969" height="14.2764" fill="#E30613"/>
<ellipse cx="96.0564" cy="365.727" rx="13.4366" ry="7.97797" fill="#E30613"/>
</svg>
