<svg width="380" height="377" viewBox="0 0 380 377" fill="none" xmlns="http://www.w3.org/2000/svg">
<rect x="167.061" y="62.5774" width="44.8366" height="173.003" rx="22.4183" fill="#E30613" stroke="#1B1A1A" stroke-width="3"/>
<rect x="242.878" y="86.947" width="32.5708" height="127.874" rx="16.2854" fill="#E30613" stroke="#1B1A1A" stroke-width="3"/>
<rect x="107.491" y="86.947" width="32.5708" height="127.874" rx="16.2854" fill="#E30613" stroke="#1B1A1A" stroke-width="3"/>
<path d="M138.33 105.861C135.949 83.4134 156.026 51.1285 169.854 37.1014C174.458 36.3831 182.308 36.5532 176.881 42.9798C170.097 51.0131 153.101 76.6365 151.852 99.4464C149.64 139.855 177.738 140.226 191.873 154.573C212.677 175.689 191.207 214.347 176.608 234.462C171.753 225.041 198.105 193.697 191.298 172.851C183.729 149.672 143.044 150.312 138.33 105.861Z" fill="#E30613" stroke="#1B1A1A" stroke-width="3"/>
<path d="M241.578 105.861C243.958 83.4134 223.881 51.1285 210.053 37.1014C205.45 36.3831 197.6 36.5532 203.026 42.9798C209.81 51.0131 226.807 76.6365 228.055 99.4464C230.267 139.855 202.17 140.226 188.034 154.573C167.23 175.689 188.7 214.347 203.3 234.462C208.154 225.041 181.802 193.697 188.609 172.851C196.178 149.672 236.864 150.312 241.578 105.861Z" fill="#E30613" stroke="#1B1A1A" stroke-width="3"/>
<path d="M56.633 191.049C56.9187 222.521 77.1504 282.247 155.791 269.373L56.633 191.049Z" fill="#E30613" stroke="#1B1A1A" stroke-width="3"/>
<path d="M44.5751 104.032C36.7782 157.032 55.0921 262.79 190.724 261.824L44.5751 104.032Z" fill="#E30613" stroke="#1B1A1A" stroke-width="3"/>
<path d="M68.3295 68.7039C58.361 136.465 81.7756 271.677 255.182 270.443L68.3295 68.7039Z" fill="#E30613" stroke="#1B1A1A" stroke-width="3"/>
<path d="M323.387 191.049C323.101 222.521 302.87 282.247 224.229 269.373L323.387 191.049Z" fill="#E30613" stroke="#1B1A1A" stroke-width="3"/>
<path d="M335.024 102.473C343.389 155.386 326.21 261.335 190.576 261.824L335.024 102.473Z" fill="#E30613" stroke="#1B1A1A" stroke-width="3"/>
<path d="M192.639 199.675C222.429 189.519 272.778 151.553 235.857 80.9344L192.639 199.675Z" fill="#E30613" stroke="#1B1A1A" stroke-width="3"/>
<path d="M144.648 80.9346C128.355 107.863 114.19 169.311 187.866 199.675L144.648 80.9346Z" fill="#E30613" stroke="#1B1A1A" stroke-width="3"/>
<path d="M312.073 67.3955C322.768 135.045 300.805 270.501 127.396 271.127L312.073 67.3955Z" fill="#E30613" stroke="#1B1A1A" stroke-width="3"/>
<path fill-rule="evenodd" clip-rule="evenodd" d="M187.739 273.141C162.749 272.347 116.504 260.86 100.026 239.443C80.4098 213.946 86.8873 191.893 92.5422 172.639C96.2936 159.867 99.6829 148.327 94.8529 137.832C88.626 124.302 69.1354 116.705 52.98 110.408C40.8753 105.69 30.6429 101.702 29.2651 96.4941C60.084 101.933 112.992 117.799 110.681 153.205C110.246 159.869 107.887 166.484 105.466 173.272C99.1475 190.986 92.4097 209.878 118.361 233.889C138.623 252.638 176.345 260.881 189.567 262.27C189.752 262.289 189.932 262.311 190.106 262.333C203.489 260.89 241.682 252.556 261.856 233.89C287.807 209.878 281.069 190.987 274.751 173.273C272.33 166.485 269.97 159.87 269.535 153.205C267.225 117.8 320.133 101.934 350.951 96.4949C349.574 101.702 339.341 105.691 327.237 110.409C311.081 116.706 291.59 124.303 285.364 137.833C280.534 148.328 283.923 159.868 287.674 172.64C293.329 191.893 299.807 213.947 280.191 239.443C263.713 260.861 213.116 272.388 188.126 273.183C188.051 273.136 187.976 273.087 187.901 273.038C187.847 273.073 187.793 273.107 187.739 273.141Z" fill="#E30613"/>
<path d="M100.026 239.443L101.215 238.528L100.026 239.443ZM187.739 273.141L187.691 274.641L188.15 274.655L188.539 274.41L187.739 273.141ZM92.5422 172.639L93.9814 173.062L92.5422 172.639ZM94.8529 137.832L96.2155 137.205L94.8529 137.832ZM52.98 110.408L52.4353 111.806L52.98 110.408ZM29.2651 96.4941L29.5258 95.017L27.2147 94.6091L27.815 96.8778L29.2651 96.4941ZM110.681 153.205L112.178 153.302L110.681 153.205ZM105.466 173.272L104.053 172.768L105.466 173.272ZM118.361 233.889L117.342 234.99L118.361 233.889ZM189.567 262.27L189.41 263.762L189.567 262.27ZM190.106 262.333L189.912 263.821L190.089 263.844L190.267 263.825L190.106 262.333ZM261.856 233.89L260.837 232.789L261.856 233.89ZM274.751 173.273L276.164 172.769L274.751 173.273ZM269.535 153.205L268.039 153.303V153.303L269.535 153.205ZM350.951 96.4949L352.402 96.8785L353.002 94.6098L350.691 95.0177L350.951 96.4949ZM327.237 110.409L326.692 109.011L327.237 110.409ZM285.364 137.833L284.001 137.206V137.206L285.364 137.833ZM287.674 172.64L286.235 173.062V173.062L287.674 172.64ZM280.191 239.443L281.379 240.358L280.191 239.443ZM188.126 273.183L187.327 274.452L187.715 274.697L188.174 274.682L188.126 273.183ZM187.901 273.038L188.723 271.784L187.912 271.252L187.094 271.774L187.901 273.038ZM98.8371 240.357C107.357 251.432 123.397 259.775 140.211 265.447C157.081 271.137 175.035 274.238 187.691 274.641L187.787 271.642C175.453 271.25 157.789 268.21 141.17 262.604C124.495 256.98 109.173 248.871 101.215 238.528L98.8371 240.357ZM91.103 172.216C88.2841 181.814 85.1788 192.351 85.3075 203.717C85.437 215.149 88.8308 227.352 98.8371 240.357L101.215 238.528C91.6049 226.038 88.4294 214.465 88.3073 203.683C88.1845 192.834 91.1454 182.718 93.9814 173.062L91.103 172.216ZM93.4903 138.459C95.7528 143.375 96.1176 148.581 95.4268 154.198C94.7321 159.847 92.9871 165.802 91.103 172.216L93.9814 173.062C95.8487 166.704 97.674 160.503 98.4044 154.565C99.1385 148.595 98.7831 142.784 96.2155 137.205L93.4903 138.459ZM52.4353 111.806C60.5341 114.962 69.3387 118.397 76.8962 122.71C84.4732 127.035 90.5732 132.121 93.4903 138.459L96.2155 137.205C92.9058 130.013 86.147 124.536 78.3832 120.105C70.5997 115.663 61.5814 112.151 53.5247 109.01L52.4353 111.806ZM27.815 96.8778C28.2647 98.5775 29.3979 100.044 30.8592 101.328C32.3269 102.618 34.2288 103.816 36.4003 104.961C40.7357 107.248 46.4106 109.457 52.4353 111.806L53.5247 109.01C47.4446 106.641 41.951 104.497 37.7997 102.308C35.7277 101.215 34.0567 100.145 32.84 99.075C31.6169 97.9998 30.9544 97.0144 30.7152 96.1105L27.815 96.8778ZM112.178 153.302C113.393 134.688 100.047 121.444 83.1097 112.292C66.1143 103.109 45.0019 97.7481 29.5258 95.017L29.0044 97.9713C44.3472 100.679 65.098 105.97 81.6836 114.932C98.3276 123.925 110.28 136.316 109.184 153.107L112.178 153.302ZM106.878 173.776C109.284 167.031 111.727 160.213 112.178 153.302L109.184 153.107C108.765 159.524 106.489 165.937 104.053 172.768L106.878 173.776ZM119.379 232.788C106.61 220.973 102.042 210.578 101.308 201.103C100.567 191.534 103.702 182.681 106.878 173.776L104.053 172.768C100.911 181.577 97.5185 191.027 98.3167 201.335C99.1223 211.737 104.16 222.794 117.342 234.99L119.379 232.788ZM189.723 260.778C183.227 260.096 170.599 257.713 157.082 253.168C143.545 248.616 129.282 241.951 119.379 232.788L117.342 234.99C127.701 244.576 142.431 251.407 156.126 256.011C169.841 260.623 182.684 263.055 189.41 263.762L189.723 260.778ZM190.3 260.846C190.113 260.821 189.921 260.799 189.723 260.778L189.41 263.762C189.583 263.78 189.751 263.8 189.912 263.821L190.3 260.846ZM190.267 263.825C197.07 263.091 210.07 260.623 223.91 255.993C237.729 251.37 252.557 244.538 262.875 234.991L260.837 232.789C250.981 241.909 236.626 248.576 222.959 253.148C209.314 257.712 196.525 260.132 189.945 260.842L190.267 263.825ZM262.875 234.991C276.056 222.795 281.094 211.738 281.9 201.336C282.698 191.028 279.306 181.578 276.164 172.769L273.338 173.777C276.514 182.682 279.65 191.535 278.909 201.104C278.175 210.579 273.607 220.974 260.837 232.789L262.875 234.991ZM276.164 172.769C273.727 165.938 271.451 159.525 271.032 153.108L268.039 153.303C268.49 160.214 270.932 167.032 273.338 173.777L276.164 172.769ZM271.032 153.108C269.936 136.317 281.889 123.925 298.533 114.932C315.118 105.971 335.869 100.68 351.212 97.972L350.691 95.0177C335.215 97.7488 314.102 103.11 297.107 112.293C280.17 121.444 266.824 134.688 268.039 153.303L271.032 153.108ZM349.501 96.1112C349.262 97.0152 348.6 98.0005 347.377 99.0757C346.16 100.145 344.489 101.216 342.417 102.308C338.266 104.498 332.772 106.641 326.692 109.011L327.781 111.806C333.806 109.458 339.481 107.248 343.816 104.962C345.988 103.817 347.89 102.619 349.357 101.329C350.819 100.044 351.952 98.5783 352.402 96.8785L349.501 96.1112ZM326.692 109.011C318.635 112.151 309.617 115.663 301.833 120.106C294.07 124.536 287.311 130.014 284.001 137.206L286.726 138.46C289.643 132.121 295.743 127.035 303.32 122.711C310.878 118.398 319.682 114.963 327.781 111.806L326.692 109.011ZM284.001 137.206C281.433 142.785 281.078 148.596 281.812 154.565C282.543 160.504 284.368 166.705 286.235 173.062L289.114 172.217C287.229 165.802 285.484 159.848 284.79 154.199C284.099 148.582 284.464 143.376 286.726 138.46L284.001 137.206ZM286.235 173.062C289.071 182.718 292.032 192.835 291.909 203.684C291.787 214.466 288.612 226.038 279.002 238.529L281.379 240.358C291.386 227.352 294.78 215.15 294.909 203.718C295.038 192.352 291.932 181.815 289.114 172.217L286.235 173.062ZM279.002 238.529C271.063 248.847 254.689 256.971 236.897 262.617C219.18 268.239 200.42 271.291 188.078 271.684L188.174 274.682C200.822 274.28 219.856 271.172 237.804 265.477C255.677 259.805 272.84 251.457 281.379 240.358L279.002 238.529ZM188.926 271.914C188.858 271.871 188.791 271.828 188.723 271.784L187.079 274.293C187.161 274.347 187.244 274.4 187.327 274.452L188.926 271.914ZM188.539 274.41C188.595 274.375 188.652 274.339 188.708 274.303L187.094 271.774C187.042 271.807 186.99 271.84 186.939 271.872L188.539 274.41Z" fill="#1B1A1A"/>
<path d="M215.58 73.9795H165.033V133.916H215.58V73.9795Z" fill="#FFDE00" stroke="#1B1A1A" stroke-width="3" stroke-miterlimit="10"/>
<path d="M193.663 80.2773H187.244C184.634 80.2773 182.222 81.6703 180.917 83.931L177.707 89.4926C176.402 91.7533 176.402 94.5392 177.707 96.7999L180.917 102.361C182.222 104.622 184.634 106.015 187.244 106.015H193.663C196.273 106.015 198.685 104.622 199.99 102.361L203.2 96.7999C204.504 94.5392 204.504 91.7533 203.2 89.4926L199.99 83.931C198.685 81.6703 196.273 80.2773 193.663 80.2773Z" fill="#E30613" stroke="#1B1A1A" stroke-width="3" stroke-miterlimit="10"/>
<path d="M190.453 0C190.453 32.9421 147 19.7128 147 45.9011C147 63.4511 165.033 59.0147 165.033 73.9795H215.873C215.873 59.0147 233.906 63.4511 233.906 45.9011C233.906 19.7128 190.453 32.9421 190.453 0Z" fill="#E30613" stroke="#1B1A1A" stroke-width="3" stroke-miterlimit="10"/>
<path d="M122.064 345.078H253.693L319.507 231.046H56.2505L122.064 345.078Z" fill="#009FE3" stroke="#1B1A1A" stroke-width="3" stroke-miterlimit="10"/>
<path d="M325.866 231.044H251.084L240.942 248.606L258.345 278.759H318.597L336 248.606L325.866 231.044Z" fill="#009FE3" stroke="#1B1A1A" stroke-width="3" stroke-miterlimit="10"/>
<path d="M230.35 361.815H265.155L282.558 331.664L261.483 295.147L230.35 301.511L212.947 331.664L230.35 361.815Z" fill="#009FE3" stroke="#1B1A1A" stroke-width="3" stroke-miterlimit="10"/>
<path d="M123.428 361.815H158.234L175.634 331.664L158.234 301.511H123.428L106.026 331.664L123.428 361.815Z" fill="#009FE3" stroke="#1B1A1A" stroke-width="3" stroke-miterlimit="10"/>
<path d="M182.903 374.988H217.709L273.91 279.044L202.594 281.513L165.501 344.838L182.903 374.988Z" fill="#009FE3" stroke="#1B1A1A" stroke-width="3" stroke-miterlimit="10"/>
<path d="M180.336 321.351H237.897L270.268 265.262L243.339 231.046H174.902L151.555 271.487L180.336 321.351Z" fill="#009FE3" stroke="#1B1A1A" stroke-width="3" stroke-miterlimit="10"/>
<path d="M143.246 340.991H178.049L204.949 294.382L178.049 280.687H143.246L125.843 310.837L143.246 340.991Z" fill="#009FE3" stroke="#1B1A1A" stroke-width="3" stroke-miterlimit="10"/>
<path d="M139.572 296.305H216.787L234.19 266.154L216.787 236.001H139.572L122.17 266.154L139.572 296.305Z" fill="#009FE3" stroke="#1B1A1A" stroke-width="3" stroke-miterlimit="10"/>
<path d="M82.5415 304.685H129.193L142.667 281.067L129.193 257.45H82.5415L69.0681 281.067L82.5415 304.685Z" fill="#009FE3" stroke="#1B1A1A" stroke-width="2.541" stroke-miterlimit="10"/>
<path d="M219.688 266.53H282.033L302.514 231.045H199.211L219.688 266.53Z" fill="#009FE3" stroke="#1B1A1A" stroke-width="2.541" stroke-miterlimit="10"/>
<path d="M184.409 239.875H54.7878L79.9767 197.034H152.253L184.409 239.875Z" fill="#009FE3" stroke="#1B1A1A" stroke-width="3" stroke-miterlimit="10"/>
<path d="M300.238 202.526H250.642L227.25 231.087H323.917L300.238 202.526Z" fill="#009FE3" stroke="#1B1A1A" stroke-width="3" stroke-miterlimit="10"/>
<path d="M56.629 264.041H134.645L144.864 231.31L45.9999 229.988L56.629 264.041Z" fill="#009FE3" stroke="#1B1A1A" stroke-width="3" stroke-miterlimit="10"/>
<path d="M318.658 327.825L331.974 303.581L320.414 288.117L301.164 286.658L287.848 310.902L299.406 326.365L318.658 327.825Z" fill="#009FE3" stroke="#1B1A1A" stroke-width="2.541" stroke-miterlimit="10"/>
<path d="M151.911 243.929L191.649 187.343L227.463 188.092L240.32 221.523L200.581 278.109L164.77 277.363L151.911 243.929Z" fill="#009FE3" stroke="#1B1A1A" stroke-width="2.541" stroke-miterlimit="10"/>
</svg>
