<svg width="602" height="459" viewBox="0 0 602 459" fill="none" xmlns="http://www.w3.org/2000/svg">
<circle cx="401.493" cy="214.424" r="64.7107" transform="rotate(15 401.493 214.424)" fill="#FFDE00" stroke="black" stroke-width="2.40582"/>
<path fill-rule="evenodd" clip-rule="evenodd" d="M474.534 152.923C475.419 151.064 476.061 149.051 476.415 146.919C478.452 134.643 470.151 123.04 457.875 121.003C445.599 118.966 433.995 127.266 431.958 139.543C430.489 148.398 434.399 156.904 441.3 161.721C440.037 164.606 437.787 166.942 433.666 167.776C428.256 168.871 421.233 164.352 413.363 159.288C404.367 153.5 394.266 147 384.207 147.363C365.348 148.044 338.189 162.552 332.652 183.844C340.869 165.615 365.92 137.051 400.391 168.624C431.307 196.941 470.388 169.432 474.534 152.923Z" fill="#FFDE00"/>
<path d="M474.534 152.923L473.448 152.406L473.397 152.514L473.368 152.63L474.534 152.923ZM441.3 161.721L442.402 162.203L442.797 161.299L441.988 160.734L441.3 161.721ZM433.666 167.776L433.427 166.597L433.427 166.597L433.666 167.776ZM413.363 159.288L414.014 158.277L414.014 158.277L413.363 159.288ZM384.207 147.363L384.25 148.565L384.25 148.565L384.207 147.363ZM332.652 183.844L331.488 183.541L333.749 184.338L332.652 183.844ZM400.391 168.624L399.578 169.511L399.578 169.511L400.391 168.624ZM475.228 146.722C474.893 148.743 474.285 150.647 473.448 152.406L475.621 153.44C476.553 151.48 477.229 149.36 477.602 147.116L475.228 146.722ZM457.678 122.189C469.299 124.117 477.157 135.101 475.228 146.722L477.602 147.116C479.747 134.184 471.004 121.962 458.072 119.816L457.678 122.189ZM433.145 139.739C435.073 128.118 446.057 120.261 457.678 122.189L458.072 119.816C445.14 117.67 432.917 126.414 430.772 139.346L433.145 139.739ZM441.988 160.734C435.453 156.173 431.754 148.121 433.145 139.739L430.772 139.346C429.224 148.676 433.344 157.635 440.611 162.707L441.988 160.734ZM433.904 168.955C438.453 168.035 441.001 165.405 442.402 162.203L440.198 161.238C439.074 163.807 437.121 165.85 433.427 166.597L433.904 168.955ZM412.712 160.3C416.628 162.819 420.42 165.262 423.92 166.928C427.395 168.582 430.803 169.583 433.904 168.955L433.427 166.597C431.118 167.064 428.31 166.353 424.954 164.755C421.622 163.169 417.968 160.821 414.014 158.277L412.712 160.3ZM384.25 148.565C389.011 148.394 393.852 149.845 398.673 152.108C403.495 154.371 408.202 157.397 412.712 160.3L414.014 158.277C409.529 155.391 404.687 152.273 399.695 149.93C394.701 147.586 389.461 145.97 384.163 146.161L384.25 148.565ZM333.817 184.147C336.483 173.894 344.396 165.162 354.088 158.884C363.775 152.609 375.071 148.897 384.25 148.565L384.163 146.161C374.483 146.51 362.771 150.393 352.78 156.865C342.793 163.334 334.359 172.502 331.488 183.541L333.817 184.147ZM401.203 167.737C392.468 159.736 384.248 155.47 376.657 153.939C369.054 152.406 362.172 153.635 356.163 156.47C344.206 162.113 335.727 174.096 331.556 183.35L333.749 184.338C337.795 175.363 345.949 163.95 357.189 158.646C362.779 156.009 369.136 154.877 376.182 156.298C383.24 157.721 391.078 161.725 399.578 169.511L401.203 167.737ZM473.368 152.63C472.409 156.447 469.366 161.071 464.723 165.448C460.103 169.802 453.996 173.817 447.072 176.459C433.257 181.731 416.262 181.529 401.203 167.737L399.578 169.511C415.436 184.035 433.439 184.237 447.93 178.707C455.159 175.948 461.533 171.76 466.373 167.198C471.19 162.658 474.587 157.653 475.701 153.216L473.368 152.63Z" fill="black"/>
<circle cx="437.661" cy="143.608" r="18.0775" transform="rotate(161.207 437.661 143.608)" fill="#FFDE00" stroke="black" stroke-width="2.40582"/>
<path fill-rule="evenodd" clip-rule="evenodd" d="M469.44 135.701C470.24 134.02 470.821 132.2 471.14 130.272C472.983 119.167 465.475 108.671 454.37 106.829C443.265 104.986 432.769 112.494 430.926 123.599C429.597 131.61 433.134 139.304 439.377 143.661C438.235 146.271 436.199 148.384 432.471 149.138C427.578 150.129 421.225 146.041 414.106 141.46C405.969 136.224 396.832 130.345 387.732 130.673C370.673 131.289 346.106 144.413 341.098 163.672C348.53 147.183 371.19 121.345 402.372 149.905C430.338 175.52 465.691 150.634 469.44 135.701Z" fill="#FFDE00"/>
<path d="M469.44 135.701L468.354 135.184L468.303 135.292L468.273 135.408L469.44 135.701ZM439.377 143.661L440.479 144.143L440.874 143.239L440.065 142.674L439.377 143.661ZM432.471 149.138L432.233 147.959L432.233 147.959L432.471 149.138ZM414.106 141.46L414.757 140.449L414.757 140.449L414.106 141.46ZM387.732 130.673L387.776 131.875L387.776 131.875L387.732 130.673ZM341.098 163.672L339.934 163.37L342.195 164.167L341.098 163.672ZM402.372 149.905L403.184 149.018L403.184 149.018L402.372 149.905ZM469.954 130.075C469.652 131.891 469.106 133.603 468.354 135.184L470.526 136.218C471.374 134.436 471.989 132.509 472.327 130.469L469.954 130.075ZM454.173 108.015C464.622 109.749 471.688 119.626 469.954 130.075L472.327 130.469C474.278 118.709 466.327 107.593 454.567 105.642L454.173 108.015ZM432.113 123.796C433.847 113.347 443.723 106.281 454.173 108.015L454.567 105.642C442.806 103.691 431.691 111.642 429.74 123.402L432.113 123.796ZM440.065 142.674C434.188 138.573 430.863 131.332 432.113 123.796L429.74 123.402C428.332 131.888 432.08 140.035 438.688 144.647L440.065 142.674ZM432.71 150.317C436.865 149.476 439.198 147.07 440.479 144.143L438.275 143.179C437.271 145.472 435.533 147.291 432.233 147.959L432.71 150.317ZM413.455 142.472C416.995 144.75 420.433 146.964 423.606 148.474C426.756 149.973 429.867 150.893 432.71 150.317L432.233 147.959C430.182 148.374 427.67 147.744 424.64 146.302C421.634 144.871 418.336 142.751 414.757 140.449L413.455 142.472ZM387.776 131.875C392.057 131.721 396.417 133.026 400.769 135.069C405.123 137.112 409.374 139.846 413.455 142.472L414.757 140.449C410.701 137.839 406.315 135.014 401.791 132.891C397.265 130.767 392.507 129.297 387.689 129.471L387.776 131.875ZM342.262 163.975C344.664 154.739 351.797 146.861 360.55 141.191C369.298 135.524 379.497 132.174 387.776 131.875L387.689 129.471C378.909 129.788 368.294 133.308 359.242 139.172C350.195 145.033 342.54 153.347 339.934 163.37L342.262 163.975ZM403.184 149.018C395.271 141.77 387.817 137.899 380.926 136.509C374.022 135.117 367.771 136.233 362.316 138.807C351.466 143.927 343.78 154.795 340.001 163.178L342.195 164.167C345.848 156.061 353.209 145.765 363.342 140.983C368.378 138.607 374.104 137.588 380.45 138.868C386.81 140.15 393.882 143.76 401.559 150.792L403.184 149.018ZM468.273 135.408C467.414 138.831 464.678 142.996 460.487 146.947C456.318 150.876 450.807 154.5 444.559 156.885C432.094 161.642 416.768 161.46 403.184 149.018L401.559 150.792C415.942 163.965 432.276 164.148 445.417 159.132C451.971 156.631 457.749 152.834 462.137 148.698C466.502 144.583 469.592 140.037 470.607 135.994L468.273 135.408Z" fill="black"/>
<circle cx="436.085" cy="127.278" r="16.2375" transform="rotate(161.207 436.085 127.278)" fill="#FFDE00" stroke="black" stroke-width="2.40582"/>
<path fill-rule="evenodd" clip-rule="evenodd" d="M452.633 131.762C453.321 130.315 453.821 128.748 454.097 127.088C455.683 117.528 449.219 108.493 439.66 106.907C430.1 105.321 421.065 111.784 419.478 121.344C418.334 128.24 421.379 134.863 426.753 138.614C425.769 140.86 424.017 142.68 420.808 143.329C416.596 144.182 411.126 140.662 404.999 136.719C397.993 132.212 390.127 127.151 382.294 127.433C367.609 127.963 346.46 139.261 342.149 155.841C348.547 141.646 368.054 119.403 394.897 143.989C418.971 166.039 449.404 144.618 452.633 131.762Z" fill="#FFDE00"/>
<path d="M452.633 131.762L451.546 131.246L451.495 131.354L451.466 131.469L452.633 131.762ZM426.753 138.614L427.855 139.096L428.25 138.192L427.441 137.627L426.753 138.614ZM420.808 143.329L420.569 142.15L420.569 142.15L420.808 143.329ZM404.999 136.719L405.649 135.708L405.649 135.708L404.999 136.719ZM382.294 127.433L382.338 128.636L382.338 128.636L382.294 127.433ZM342.149 155.841L340.985 155.538L343.246 156.335L342.149 155.841ZM394.897 143.989L395.709 143.102L395.709 143.102L394.897 143.989ZM452.91 126.891C452.653 128.439 452.187 129.899 451.546 131.246L453.719 132.279C454.455 130.731 454.989 129.057 455.283 127.285L452.91 126.891ZM439.463 108.093C448.367 109.571 454.388 117.987 452.91 126.891L455.283 127.285C456.978 117.07 450.072 107.415 439.857 105.72L439.463 108.093ZM420.665 121.541C422.142 112.637 430.558 106.616 439.463 108.093L439.857 105.72C429.642 104.025 419.987 110.932 418.292 121.147L420.665 121.541ZM427.441 137.627C422.433 134.132 419.6 127.962 420.665 121.541L418.292 121.147C417.069 128.517 420.324 135.594 426.064 139.6L427.441 137.627ZM421.047 144.508C424.683 143.772 426.733 141.659 427.855 139.096L425.651 138.132C424.806 140.061 423.351 141.587 420.569 142.15L421.047 144.508ZM404.348 137.731C407.392 139.69 410.361 141.603 413.105 142.909C415.824 144.203 418.544 145.014 421.047 144.508L420.569 142.15C418.859 142.496 416.739 141.974 414.139 140.736C411.562 139.51 408.733 137.692 405.649 135.708L404.348 137.731ZM382.338 128.636C385.986 128.504 389.711 129.616 393.446 131.369C397.182 133.123 400.832 135.469 404.348 137.731L405.649 135.708C402.16 133.462 398.374 131.025 394.468 129.191C390.56 127.357 386.436 126.08 382.251 126.231L382.338 128.636ZM343.313 156.144C345.367 148.247 351.471 141.496 358.985 136.628C366.495 131.764 375.246 128.892 382.338 128.636L382.251 126.231C374.658 126.505 365.491 129.547 357.677 134.609C349.868 139.668 343.243 146.855 340.985 155.538L343.313 156.144ZM395.709 143.102C388.881 136.848 382.438 133.497 376.468 132.293C370.486 131.087 365.069 132.054 360.343 134.284C350.953 138.715 344.314 148.11 341.052 155.347L343.246 156.335C346.382 149.377 352.696 140.553 361.37 136.46C365.676 134.428 370.568 133.558 375.993 134.652C381.43 135.748 387.491 138.837 394.084 144.876L395.709 143.102ZM451.466 131.469C450.737 134.374 448.406 137.932 444.81 141.322C441.236 144.69 436.511 147.797 431.153 149.842C420.47 153.919 407.347 153.761 395.709 143.102L394.084 144.876C406.521 156.267 420.652 156.424 432.011 152.089C437.674 149.928 442.667 146.648 446.46 143.073C450.23 139.519 452.914 135.579 453.799 132.055L451.466 131.469Z" fill="black"/>
<circle cx="423.919" cy="124.508" r="13.8107" transform="rotate(161.207 423.919 124.508)" fill="#FFDE00" stroke="black" stroke-width="2.40582"/>
<path fill-rule="evenodd" clip-rule="evenodd" d="M509.884 255.709C511.791 252.984 513.353 249.95 514.487 246.648C521.019 227.638 510.903 206.931 491.892 200.4C472.881 193.868 452.175 203.985 445.643 222.995C440.932 236.709 444.883 251.304 454.586 260.825C451.803 265.083 447.592 268.203 440.804 268.428C431.894 268.724 421.915 259.644 410.735 249.471C397.955 237.842 383.603 224.784 367.482 222.669C337.258 218.704 305.679 222.266 291.159 254.7C309.128 227.862 341.112 201.345 387.571 260.869C429.238 314.254 498.858 280.897 509.884 255.709Z" fill="#FFDE00"/>
<path d="M509.884 255.709L508.899 255.019L508.83 255.117L508.782 255.226L509.884 255.709ZM454.586 260.825L455.593 261.484L456.133 260.658L455.429 259.967L454.586 260.825ZM440.804 268.428L440.844 269.63L440.844 269.63L440.804 268.428ZM410.735 249.471L411.545 248.581L411.545 248.581L410.735 249.471ZM367.482 222.669L367.638 221.476L367.638 221.476L367.482 222.669ZM291.159 254.7L290.061 254.209L292.159 255.37L291.159 254.7ZM387.571 260.869L388.519 260.129L388.519 260.129L387.571 260.869ZM513.35 246.258C512.252 249.452 510.742 252.385 508.899 255.019L510.87 256.398C512.84 253.583 514.454 250.449 515.625 247.039L513.35 246.258ZM491.501 201.537C509.884 207.853 519.666 227.875 513.35 246.258L515.625 247.039C522.373 227.4 511.922 206.01 492.283 199.262L491.501 201.537ZM446.781 223.386C453.097 205.004 473.119 195.222 491.501 201.537L492.283 199.262C472.644 192.515 451.253 202.965 444.506 222.604L446.781 223.386ZM455.429 259.967C446.044 250.758 442.226 236.645 446.781 223.386L444.506 222.604C439.638 236.773 443.722 251.85 453.744 261.684L455.429 259.967ZM440.844 269.63C448.068 269.39 452.621 266.031 455.593 261.484L453.58 260.167C450.985 264.136 447.117 267.015 440.765 267.226L440.844 269.63ZM409.926 250.361C415.499 255.432 420.849 260.303 425.931 263.861C430.991 267.403 435.985 269.791 440.844 269.63L440.765 267.226C436.713 267.36 432.263 265.357 427.311 261.89C422.381 258.438 417.152 253.683 411.545 248.581L409.926 250.361ZM367.325 223.861C375.12 224.884 382.555 228.563 389.677 233.491C396.8 238.42 403.524 244.536 409.926 250.361L411.545 248.581C405.166 242.777 398.324 236.549 391.046 231.513C383.767 226.476 375.965 222.568 367.638 221.476L367.325 223.861ZM292.257 255.192C299.371 239.301 310.623 230.527 323.808 226.177C337.047 221.81 352.29 221.889 367.325 223.861L367.638 221.476C352.449 219.484 336.791 219.361 323.055 223.893C309.264 228.442 297.467 237.666 290.061 254.209L292.257 255.192ZM388.519 260.129C365.189 230.238 345.19 221.565 328.493 224.211C311.914 226.838 299.177 240.564 290.16 254.031L292.159 255.37C301.111 241.999 313.35 229.047 328.869 226.587C344.271 224.146 363.493 231.976 386.622 261.609L388.519 260.129ZM508.782 255.226C506.154 261.231 499.941 267.88 491.312 273.649C482.709 279.4 471.817 284.2 459.981 286.575C436.345 291.318 409.02 286.395 388.519 260.129L386.622 261.609C407.789 288.729 436.108 293.82 460.455 288.934C472.611 286.494 483.795 281.568 492.649 275.649C501.477 269.747 508.102 262.781 510.986 256.191L508.782 255.226Z" fill="black"/>
<circle cx="453.64" cy="230.996" r="29.9413" transform="rotate(170.747 453.64 230.996)" fill="#FFDE00" stroke="black" stroke-width="2.40582"/>
<path fill-rule="evenodd" clip-rule="evenodd" d="M491.023 257.837C492.639 255.528 493.963 252.957 494.924 250.159C500.46 234.046 491.886 216.496 475.772 210.96C459.659 205.424 442.109 213.998 436.573 230.111C432.58 241.735 435.929 254.106 444.153 262.175C441.794 265.784 438.226 268.427 432.473 268.618C424.921 268.868 416.463 261.173 406.987 252.55C396.154 242.694 383.991 231.626 370.326 229.833C344.709 226.473 325.531 226.244 313.224 253.734C328.454 230.987 347.976 211.76 387.353 262.211C422.67 307.459 481.678 279.186 491.023 257.837Z" fill="#FFDE00"/>
<path d="M491.023 257.837L490.038 257.147L489.969 257.245L489.921 257.354L491.023 257.837ZM444.153 262.175L445.16 262.834L445.7 262.008L444.996 261.317L444.153 262.175ZM432.473 268.618L432.513 269.82L432.513 269.82L432.473 268.618ZM406.987 252.55L406.178 253.44L406.178 253.44L406.987 252.55ZM370.326 229.833L370.483 228.641L370.483 228.641L370.326 229.833ZM313.224 253.734L312.126 253.243L314.223 254.404L313.224 253.734ZM387.353 262.211L386.405 262.951L386.405 262.951L387.353 262.211ZM493.786 249.768C492.862 252.459 491.59 254.929 490.038 257.147L492.009 258.526C493.688 256.126 495.063 253.455 496.061 250.55L493.786 249.768ZM475.382 212.098C490.866 217.418 499.106 234.283 493.786 249.768L496.061 250.55C501.813 233.809 492.905 215.574 476.163 209.822L475.382 212.098ZM437.711 230.502C443.031 215.017 459.897 206.777 475.382 212.098L476.163 209.822C459.422 204.07 441.188 212.979 435.436 229.72L437.711 230.502ZM444.996 261.317C437.09 253.559 433.874 241.67 437.711 230.502L435.436 229.72C431.286 241.799 434.768 254.652 443.311 263.034L444.996 261.317ZM432.513 269.82C438.701 269.615 442.612 266.731 445.16 262.834L443.147 261.517C440.977 264.836 437.75 267.239 432.433 267.415L432.513 269.82ZM406.178 253.44C410.899 257.736 415.443 261.873 419.762 264.897C424.059 267.905 428.333 269.959 432.513 269.82L432.433 267.415C429.061 267.527 425.33 265.858 421.141 262.926C416.974 260.009 412.552 255.987 407.797 251.661L406.178 253.44ZM370.17 231.026C376.736 231.887 383.01 234.988 389.034 239.157C395.06 243.327 400.75 248.502 406.178 253.44L407.797 251.661C402.391 246.743 396.583 241.455 390.403 237.179C384.221 232.901 377.581 229.572 370.483 228.641L370.17 231.026ZM314.322 254.226C320.366 240.725 328.003 234.199 337.14 231.364C346.392 228.493 357.342 229.343 370.17 231.026L370.483 228.641C357.694 226.963 346.246 226.019 336.427 229.066C326.494 232.148 318.389 239.253 312.126 253.243L314.322 254.226ZM388.302 261.471C368.589 236.214 353.492 227.905 341.096 229.328C334.908 230.039 329.583 233.163 324.881 237.482C320.185 241.794 316.046 247.357 312.224 253.065L314.223 254.404C318.017 248.737 322.029 243.367 326.508 239.254C330.98 235.146 335.852 232.352 341.37 231.718C352.388 230.454 366.741 237.757 386.405 262.951L388.302 261.471ZM489.921 257.354C487.713 262.399 482.479 268.011 475.18 272.89C467.908 277.752 458.698 281.81 448.691 283.819C428.711 287.828 405.627 283.668 388.302 261.471L386.405 262.951C404.397 286.002 428.475 290.33 449.165 286.177C459.492 284.105 468.994 279.92 476.518 274.89C484.015 269.878 489.661 263.949 492.125 258.319L489.921 257.354Z" fill="black"/>
<circle cx="443.352" cy="236.89" r="25.1941" transform="rotate(170.747 443.352 236.89)" fill="#FFDE00" stroke="black" stroke-width="2.40582"/>
<path fill-rule="evenodd" clip-rule="evenodd" d="M486.375 204.777C487.991 202.469 489.314 199.898 490.276 197.1C495.812 180.987 487.237 163.437 471.124 157.901C455.011 152.365 437.461 160.939 431.925 177.052C427.932 188.675 431.281 201.046 439.505 209.116C437.146 212.724 433.577 215.367 427.825 215.558C420.272 215.809 411.815 208.113 402.339 199.491C391.506 189.634 379.342 178.567 365.678 176.774C340.061 173.414 320.882 173.184 308.575 200.675C323.806 177.927 343.328 158.701 382.705 209.152C418.022 254.4 477.03 226.127 486.375 204.777Z" fill="#FFDE00"/>
<path d="M486.375 204.777L485.39 204.088L485.321 204.186L485.273 204.295L486.375 204.777ZM439.505 209.116L440.512 209.774L441.052 208.948L440.348 208.257L439.505 209.116ZM427.825 215.558L427.865 216.761L427.865 216.761L427.825 215.558ZM402.339 199.491L401.529 200.381L401.529 200.381L402.339 199.491ZM365.678 176.774L365.835 175.581L365.835 175.581L365.678 176.774ZM308.575 200.675L307.478 200.183L309.575 201.344L308.575 200.675ZM382.705 209.152L381.757 209.892L381.757 209.892L382.705 209.152ZM489.138 196.709C488.213 199.4 486.941 201.87 485.39 204.088L487.361 205.467C489.04 203.067 490.415 200.396 491.413 197.491L489.138 196.709ZM470.733 159.038C486.218 164.358 494.458 181.224 489.138 196.709L491.413 197.491C497.165 180.749 488.256 162.515 471.515 156.763L470.733 159.038ZM433.063 177.443C438.383 161.958 455.249 153.718 470.733 159.038L471.515 156.763C454.774 151.011 436.539 159.92 430.787 176.661L433.063 177.443ZM440.348 208.257C432.441 200.5 429.226 188.611 433.063 177.443L430.787 176.661C426.638 188.739 430.12 201.592 438.663 209.975L440.348 208.257ZM427.865 216.761C434.053 216.555 437.963 213.672 440.512 209.774L438.498 208.458C436.328 211.777 433.102 214.18 427.785 214.356L427.865 216.761ZM401.529 200.381C406.25 204.677 410.794 208.814 415.113 211.838C419.41 214.846 423.684 216.899 427.865 216.761L427.785 214.356C424.412 214.468 420.682 212.799 416.493 209.867C412.326 206.949 407.903 202.928 403.148 198.601L401.529 200.381ZM365.522 177.967C372.088 178.828 378.361 181.929 384.386 186.098C390.412 190.267 396.102 195.442 401.529 200.381L403.148 198.601C397.743 193.683 391.935 188.396 385.755 184.119C379.573 179.842 372.933 176.512 365.835 175.581L365.522 177.967ZM309.673 201.167C315.717 187.666 323.355 181.14 332.492 178.304C341.743 175.433 352.693 176.284 365.522 177.967L365.835 175.581C353.046 173.904 341.598 172.959 331.779 176.006C321.846 179.089 313.74 186.194 307.478 200.183L309.673 201.167ZM383.653 208.412C363.94 183.155 348.844 174.846 336.448 176.269C330.26 176.979 324.935 180.104 320.232 184.422C315.537 188.735 311.397 194.298 307.576 200.006L309.575 201.344C313.369 195.678 317.381 190.308 321.86 186.194C326.332 182.087 331.204 179.292 336.722 178.659C347.739 177.395 362.092 184.698 381.757 209.892L383.653 208.412ZM485.273 204.295C483.065 209.34 477.831 214.951 470.532 219.831C463.26 224.693 454.05 228.751 444.043 230.759C424.063 234.769 400.979 230.609 383.653 208.412L381.757 209.892C399.748 232.943 423.827 237.27 444.516 233.118C454.844 231.045 464.346 226.861 471.869 221.831C479.367 216.819 485.013 210.89 487.477 205.26L485.273 204.295Z" fill="black"/>
<circle cx="438.703" cy="183.832" r="25.1941" transform="rotate(170.747 438.703 183.832)" fill="#FFDE00" stroke="black" stroke-width="2.40582"/>
<circle cx="363.419" cy="189.8" r="57.5757" transform="rotate(15 363.419 189.8)" fill="#FFDE00" stroke="black" stroke-width="2.40582"/>
<path fill-rule="evenodd" clip-rule="evenodd" d="M463.216 175.948C464.858 178.162 466.222 180.641 467.239 183.354C473.097 198.975 465.23 216.421 449.669 222.322C434.107 228.222 416.743 220.342 410.885 204.721C406.66 193.453 409.576 181.235 417.37 173.086C414.966 169.621 411.41 167.138 405.793 167.121C398.523 167.099 391.725 176.095 384.08 186.211C375.105 198.087 364.963 211.509 351.519 213.696C345.056 214.747 340.957 219.77 338.206 226.167C336.27 233.833 335.097 240.592 334.164 245.978C332.923 253.133 332.103 257.863 330.47 259.07C329.224 261.974 327.446 261.296 324.014 254.163C327.197 258.647 329.114 260.073 330.47 259.07C331.341 257.039 331.952 253.254 332.687 248.701C333.799 241.814 335.195 233.168 338.206 226.167C341.964 211.292 348.6 193.007 361.959 174.733C395.128 129.361 453.494 155.31 463.216 175.948Z" fill="#FFDE00"/>
<path d="M463.216 175.948L462.251 176.668L462.18 176.572L462.13 176.465L463.216 175.948ZM417.37 173.086L418.357 172.396L418.918 173.205L418.236 173.918L417.37 173.086ZM405.793 167.121L405.8 165.917L405.8 165.917L405.793 167.121ZM384.08 186.211L383.123 185.485L383.123 185.485L384.08 186.211ZM351.519 213.696L351.33 212.507L351.33 212.507L351.519 213.696ZM334.164 245.978L335.347 246.181L335.347 246.181L334.164 245.978ZM324.014 254.163L322.931 254.689L324.993 253.463L324.014 254.163ZM332.687 248.701L333.873 248.89L333.873 248.89L332.687 248.701ZM361.959 174.733L360.991 174.023L361.959 174.733ZM466.114 183.78C465.137 181.174 463.827 178.793 462.251 176.668L464.181 175.228C465.889 177.531 467.307 180.109 468.364 182.927L466.114 183.78ZM449.246 221.195C464.184 215.531 471.74 198.782 466.114 183.78L468.364 182.927C474.454 199.168 466.277 217.311 450.091 223.448L449.246 221.195ZM412.01 204.295C417.636 219.296 434.308 226.859 449.246 221.195L450.091 223.448C433.906 229.585 415.851 221.388 409.761 205.148L412.01 204.295ZM418.236 173.918C410.751 181.744 407.953 193.475 412.01 204.295L409.761 205.148C405.367 193.431 408.4 180.726 416.504 172.254L418.236 173.918ZM405.8 165.917C411.853 165.935 415.757 168.649 418.357 172.396L416.383 173.775C414.176 170.594 410.967 168.341 405.786 168.325L405.8 165.917ZM383.123 185.485C386.929 180.449 390.596 175.592 394.236 172.006C397.851 168.446 401.667 165.904 405.8 165.917L405.786 168.325C402.649 168.316 399.431 170.262 395.918 173.722C392.43 177.158 388.876 181.856 385.037 186.936L383.123 185.485ZM351.33 212.507C357.711 211.469 363.393 207.75 368.647 202.717C373.902 197.683 378.624 191.44 383.123 185.485L385.037 186.936C380.562 192.859 375.724 199.264 370.304 204.457C364.882 209.65 358.771 213.736 351.708 214.885L351.33 212.507ZM337.103 225.693C339.917 219.15 344.262 213.657 351.33 212.507L351.708 214.885C345.85 215.838 341.997 220.391 339.309 226.641L337.103 225.693ZM332.98 245.775C333.914 240.389 335.092 233.589 337.041 225.874L339.371 226.46C337.447 234.076 336.281 240.795 335.347 246.181L332.98 245.775ZM329.758 258.101C329.921 257.981 330.173 257.681 330.466 257.029C330.75 256.396 331.025 255.545 331.299 254.461C331.85 252.288 332.356 249.371 332.98 245.775L335.347 246.181C334.73 249.74 334.207 252.765 333.628 255.048C333.339 256.191 333.024 257.196 332.656 258.013C332.298 258.811 331.835 259.555 331.181 260.039L329.758 258.101ZM325.096 253.638C325.943 255.397 326.672 256.725 327.3 257.685C327.944 258.668 328.422 259.169 328.737 259.382C328.882 259.481 328.936 259.479 328.911 259.476C328.897 259.475 328.874 259.475 328.848 259.481C328.823 259.487 328.81 259.494 328.811 259.494C328.859 259.466 329.076 259.272 329.366 258.597L331.573 259.543C331.24 260.319 330.768 261.13 330.025 261.569C329.619 261.809 329.153 261.923 328.658 261.872C328.182 261.823 327.756 261.629 327.387 261.378C326.672 260.894 325.984 260.069 325.291 259.01C324.581 257.928 323.801 256.496 322.931 254.689L325.096 253.638ZM331.181 260.039C330.594 260.473 329.901 260.659 329.156 260.548C328.461 260.444 327.808 260.095 327.201 259.636C325.998 258.726 324.634 257.117 323.034 254.864L324.993 253.463C326.576 255.693 327.762 257.039 328.652 257.712C329.092 258.044 329.371 258.144 329.517 258.166C329.612 258.18 329.667 258.168 329.758 258.101L331.181 260.039ZM333.873 248.89C333.507 251.16 333.166 253.269 332.808 255.065C332.452 256.843 332.062 258.403 331.573 259.543L329.366 258.597C329.749 257.705 330.1 256.357 330.452 254.598C330.8 252.855 331.133 250.795 331.501 248.512L333.873 248.89ZM339.309 226.641C336.368 233.479 334.991 241.97 333.873 248.89L331.501 248.512C332.608 241.658 334.022 232.856 337.103 225.693L339.309 226.641ZM362.928 175.443C349.685 193.557 343.103 211.687 339.371 226.46L337.041 225.874C340.825 210.898 347.515 192.457 360.991 174.023L362.928 175.443ZM462.13 176.465C459.835 171.594 454.574 166.254 447.317 161.692C440.087 157.146 430.991 153.445 421.176 151.774C401.58 148.439 379.191 153.196 362.928 175.443L360.991 174.023C377.896 150.898 401.274 145.943 421.584 149.399C431.722 151.125 441.113 154.944 448.598 159.65C456.056 164.34 461.737 169.984 464.303 175.431L462.13 176.465Z" fill="black"/>
<path d="M392.962 194.649C391.17 208.16 400.623 220.551 414.063 222.333C427.503 224.115 439.858 214.617 441.65 201.105C443.442 187.594 433.989 175.203 420.549 173.421C407.109 171.639 394.754 181.137 392.962 194.649Z" fill="#FFDE00" stroke="black" stroke-width="2.40582"/>
<path fill-rule="evenodd" clip-rule="evenodd" d="M454.782 192.296C456.352 194.413 457.656 196.782 458.628 199.375C464.225 214.301 456.709 230.97 441.84 236.608C426.971 242.246 410.38 234.717 404.783 219.791C400.746 209.025 403.532 197.351 410.979 189.565C408.682 186.254 405.284 183.881 399.917 183.865C392.871 183.845 385.196 191.287 376.597 199.626C366.767 209.158 355.73 219.862 343.042 221.926C335.943 223.081 328.666 225.936 321.626 228.698C321.155 228.883 320.685 229.067 320.217 229.25C312.881 233.591 306.231 235.417 300.324 235.052C292.57 235.701 285.927 233.056 281.262 223.363C286.294 230.449 292.688 234.58 300.324 235.052C306.41 234.542 313.18 232.003 320.217 229.25C331.316 222.682 343.987 210.355 358.035 191.139C389.725 147.789 445.488 172.578 454.782 192.296Z" fill="#FFDE00"/>
<path d="M454.782 192.296L453.817 193.017L453.746 192.921L453.696 192.813L454.782 192.296ZM410.979 189.565L411.966 188.876L412.527 189.685L411.845 190.397L410.979 189.565ZM399.917 183.865L399.91 185.07L399.91 185.07L399.917 183.865ZM376.597 199.626L375.763 198.761L375.763 198.761L376.597 199.626ZM343.042 221.926L343.231 223.115L343.231 223.115L343.042 221.926ZM321.626 228.698L321.191 227.577L321.191 227.577L321.626 228.698ZM281.262 223.363L280.18 223.889L282.242 222.663L281.262 223.363ZM358.035 191.139L359.003 191.849L359.003 191.849L358.035 191.139ZM457.503 199.802C456.571 197.315 455.321 195.044 453.817 193.017L455.747 191.576C457.382 193.781 458.741 196.25 459.753 198.949L457.503 199.802ZM441.418 235.482C455.663 230.081 462.868 214.108 457.503 199.802L459.753 198.949C465.582 214.494 457.755 231.86 442.262 237.734L441.418 235.482ZM405.908 219.365C411.273 233.671 427.173 240.883 441.418 235.482L442.262 237.734C426.77 243.609 409.488 235.763 403.659 220.218L405.908 219.365ZM411.845 190.397C404.708 197.86 402.039 209.048 405.908 219.365L403.659 220.218C399.453 209.003 402.356 196.843 410.113 188.733L411.845 190.397ZM399.924 182.661C405.727 182.678 409.473 185.282 411.966 188.876L409.992 190.255C407.891 187.227 404.841 185.084 399.91 185.07L399.924 182.661ZM375.763 198.761C380.046 194.608 384.173 190.602 388.122 187.647C392.049 184.707 395.996 182.65 399.924 182.661L399.91 185.07C396.791 185.061 393.378 186.714 389.556 189.575C385.757 192.42 381.747 196.305 377.431 200.49L375.763 198.761ZM342.853 220.738C348.931 219.749 354.682 216.677 360.179 212.608C365.678 208.539 370.837 203.538 375.763 198.761L377.431 200.49C372.527 205.246 367.253 210.363 361.603 214.545C355.952 218.727 349.84 222.04 343.231 223.115L342.853 220.738ZM321.191 227.577C328.204 224.825 335.604 221.917 342.853 220.738L343.231 223.115C336.282 224.246 329.129 227.047 322.061 229.819L321.191 227.577ZM319.783 228.129C320.251 227.945 320.72 227.761 321.191 227.577L322.061 229.819C321.591 230.004 321.12 230.189 320.651 230.372L319.783 228.129ZM300.401 233.85C306.001 234.196 312.412 232.472 319.608 228.214L320.825 230.287C313.349 234.711 306.461 236.638 300.247 236.254L300.401 233.85ZM282.344 222.837C284.598 227.52 287.274 230.39 290.221 232.033C293.17 233.677 296.514 234.163 300.228 233.852L300.421 236.252C296.38 236.59 292.526 236.078 289.049 234.139C285.569 232.199 282.591 228.9 280.18 223.889L282.344 222.837ZM300.247 236.254C292.169 235.755 285.472 231.371 280.283 224.063L282.242 222.663C287.116 229.527 293.208 233.406 300.401 233.85L300.247 236.254ZM320.651 230.372C313.648 233.112 306.712 235.725 300.421 236.252L300.228 233.852C306.108 233.359 312.713 230.895 319.783 228.129L320.651 230.372ZM359.003 191.849C344.911 211.126 332.125 223.6 320.825 230.287L319.608 228.214C330.507 221.764 343.063 209.584 357.066 190.429L359.003 191.849ZM453.696 192.813C451.508 188.172 446.489 183.078 439.561 178.722C432.658 174.382 423.974 170.849 414.603 169.254C395.896 166.072 374.528 170.613 359.003 191.849L357.066 190.429C373.232 168.315 395.59 163.576 415.011 166.88C424.704 168.529 433.684 172.18 440.841 176.68C447.972 181.163 453.409 186.562 455.869 191.779L453.696 192.813Z" fill="black"/>
<path d="M387.711 210.174C386.002 223.055 395.014 234.867 407.826 236.566C420.638 238.265 432.416 229.21 434.125 216.329C435.833 203.448 426.821 191.637 414.009 189.938C401.197 188.239 389.419 197.293 387.711 210.174Z" fill="#FFDE00" stroke="black" stroke-width="2.40582"/>
<path fill-rule="evenodd" clip-rule="evenodd" d="M444.754 204.796C446.083 206.588 447.187 208.595 448.011 210.791C452.752 223.435 446.385 237.557 433.789 242.333C421.192 247.109 407.137 240.731 402.396 228.087C398.976 218.966 401.336 209.076 407.645 202.48C405.699 199.675 402.82 197.664 398.273 197.651C392.304 197.633 385.802 203.938 378.518 211.002C370.19 219.078 360.84 228.146 350.091 229.895C346.171 230.532 342.241 231.444 338.377 232.34C322.376 236.05 307.503 239.499 299.167 222.178C311.716 239.851 332.858 244.761 362.793 203.812C389.64 167.087 436.884 188.091 444.754 204.796Z" fill="#FFDE00"/>
<path d="M444.754 204.796L443.789 205.516L443.718 205.42L443.667 205.312L444.754 204.796ZM407.645 202.48L408.632 201.79L409.193 202.599L408.511 203.312L407.645 202.48ZM398.273 197.651L398.28 196.447L398.28 196.447L398.273 197.651ZM378.518 211.002L379.352 211.867L379.352 211.867L378.518 211.002ZM350.091 229.895L349.902 228.706L349.902 228.706L350.091 229.895ZM338.377 232.34L338.109 231.166L338.109 231.166L338.377 232.34ZM299.167 222.178L298.085 222.704L300.147 221.478L299.167 222.178ZM362.793 203.812L361.824 203.102L362.793 203.812ZM446.886 211.217C446.102 209.127 445.052 207.219 443.789 205.516L445.719 204.076C447.114 205.957 448.272 208.063 449.136 210.365L446.886 211.217ZM433.366 241.207C445.339 236.667 451.395 223.242 446.886 211.217L449.136 210.365C454.109 223.628 447.431 238.447 434.211 243.459L433.366 241.207ZM403.521 227.66C408.03 239.685 421.394 245.746 433.366 241.207L434.211 243.459C420.991 248.472 406.245 241.777 401.271 228.513L403.521 227.66ZM408.511 203.312C402.511 209.585 400.269 218.988 403.521 227.66L401.271 228.513C397.682 218.943 400.16 208.567 406.779 201.648L408.511 203.312ZM398.28 196.447C403.263 196.461 406.49 198.702 408.632 201.79L406.658 203.169C404.908 200.647 402.377 198.867 398.266 198.855L398.28 196.447ZM377.684 210.138C381.309 206.622 384.815 203.219 388.172 200.707C391.507 198.21 394.891 196.437 398.28 196.447L398.266 198.855C395.686 198.848 392.835 200.218 389.606 202.635C386.398 205.037 383.011 208.319 379.352 211.867L377.684 210.138ZM349.902 228.706C355.011 227.875 359.855 225.291 364.5 221.853C369.147 218.414 373.509 214.186 377.684 210.138L379.352 211.867C375.199 215.894 370.722 220.238 365.924 223.789C361.125 227.341 355.92 230.166 350.28 231.083L349.902 228.706ZM338.109 231.166C341.967 230.272 345.936 229.351 349.902 228.706L350.28 231.083C346.407 231.714 342.516 232.615 338.645 233.513L338.109 231.166ZM300.249 221.652C302.265 225.841 304.641 228.704 307.269 230.62C309.894 232.535 312.833 233.551 316.048 233.95C322.554 234.758 330.046 233.036 338.109 231.166L338.645 233.513C330.706 235.354 322.761 237.212 315.747 236.341C312.202 235.901 308.86 234.764 305.852 232.569C302.846 230.377 300.237 227.176 298.085 222.704L300.249 221.652ZM363.761 204.523C348.743 225.066 335.727 234.409 324.645 236.168C313.425 237.949 304.605 231.916 298.188 222.878L300.147 221.478C306.278 230.113 314.303 235.372 324.275 233.789C334.385 232.184 346.907 223.507 361.824 203.102L363.761 204.523ZM443.667 205.312C441.836 201.424 437.617 197.132 431.762 193.451C425.935 189.787 418.6 186.802 410.686 185.455C394.892 182.767 376.864 186.598 363.761 204.523L361.824 203.102C375.569 184.301 394.586 180.271 411.094 183.08C419.331 184.482 426.96 187.585 433.043 191.409C439.099 195.217 443.737 199.814 445.841 204.279L443.667 205.312Z" fill="black"/>
<path d="M388.115 219.965C386.681 230.777 394.245 240.69 404.998 242.116C415.75 243.542 425.637 235.943 427.07 225.131C428.504 214.319 420.94 204.405 410.188 202.979C399.435 201.554 389.549 209.153 388.115 219.965Z" fill="#FFDE00" stroke="black" stroke-width="2.40582"/>
<path fill-rule="evenodd" clip-rule="evenodd" d="M384.153 259.559C385.803 258.092 387.278 256.372 388.518 254.412C395.658 243.13 392.301 228.195 381.018 221.054C369.736 213.913 354.801 217.27 347.66 228.553C342.509 236.692 342.82 246.731 347.629 254.374C345.176 256.698 341.976 258.067 337.555 257.17C331.751 255.993 326.697 248.593 321.034 240.301C314.561 230.823 307.292 220.179 297.198 216.337C287.622 212.691 274.825 211.962 262.658 214.56C256.595 215.386 250.76 217.726 245.572 220.882C240.452 223.768 235.921 227.475 232.412 232.05C235.882 227.978 240.406 224.025 245.572 220.882C250.806 217.932 256.655 215.841 262.658 214.56C277.145 212.587 292.935 219.261 304.314 244.109C323.043 285.011 373.16 274.145 384.153 259.559Z" fill="#FFDE00"/>
<path d="M384.153 259.559L383.353 258.661L383.264 258.74L383.192 258.835L384.153 259.559ZM347.629 254.374L348.456 255.248L349.173 254.569L348.647 253.734L347.629 254.374ZM337.555 257.17L337.794 255.991L337.794 255.991L337.555 257.17ZM321.034 240.301L320.041 240.98L320.041 240.98L321.034 240.301ZM297.198 216.337L296.77 217.461L296.77 217.461L297.198 216.337ZM232.412 232.05L231.458 231.318L233.328 232.83L232.412 232.05ZM304.314 244.109L305.407 243.609L305.407 243.609L304.314 244.109ZM387.501 253.769C386.322 255.632 384.92 257.267 383.353 258.661L384.952 260.458C386.685 258.917 388.233 257.111 389.534 255.056L387.501 253.769ZM380.375 222.07C391.096 228.856 394.287 243.048 387.501 253.769L389.534 255.056C397.03 243.212 393.506 227.534 381.662 220.037L380.375 222.07ZM348.676 229.196C355.462 218.475 369.654 215.285 380.375 222.07L381.662 220.037C369.818 212.541 354.14 216.066 346.643 227.909L348.676 229.196ZM348.647 253.734C344.076 246.468 343.782 236.928 348.676 229.196L346.643 227.909C341.235 236.455 341.565 246.994 346.611 255.015L348.647 253.734ZM337.316 258.349C342.164 259.333 345.753 257.809 348.456 255.248L346.802 253.501C344.6 255.587 341.788 256.802 337.794 255.991L337.316 258.349ZM320.041 240.98C322.86 245.106 325.584 249.1 328.343 252.203C331.084 255.286 334.018 257.68 337.316 258.349L337.794 255.991C335.288 255.483 332.794 253.589 330.141 250.604C327.506 247.64 324.872 243.787 322.028 239.623L320.041 240.98ZM296.77 217.461C301.567 219.287 305.755 222.755 309.579 227.01C313.405 231.266 316.796 236.228 320.041 240.98L322.028 239.623C318.8 234.896 315.32 229.797 311.369 225.401C307.417 221.004 302.924 217.229 297.626 215.212L296.77 217.461ZM262.909 215.736C274.89 213.178 287.446 213.911 296.77 217.461L297.626 215.212C287.797 211.47 274.76 210.746 262.407 213.383L262.909 215.736ZM246.198 221.91C251.274 218.821 256.953 216.551 262.82 215.752L262.496 213.368C256.237 214.22 250.246 216.63 244.947 219.854L246.198 221.91ZM233.367 232.782C236.762 228.356 241.161 224.749 246.163 221.93L244.982 219.834C239.744 222.786 235.081 226.595 231.458 231.318L233.367 232.782ZM244.947 219.854C239.669 223.065 235.047 227.102 231.497 231.27L233.328 232.83C236.716 228.853 241.143 224.985 246.198 221.91L244.947 219.854ZM262.407 213.383C256.302 214.687 250.335 216.817 244.982 219.834L246.163 221.93C251.277 219.048 257.009 216.996 262.909 215.736L262.407 213.383ZM305.407 243.609C299.65 231.035 292.723 222.944 285.293 218.259C277.85 213.565 269.99 212.347 262.496 213.368L262.82 215.752C269.813 214.799 277.092 215.932 284.01 220.294C290.942 224.665 297.599 232.336 303.22 244.61L305.407 243.609ZM383.192 258.835C380.636 262.227 375.68 265.534 369.255 267.923C362.859 270.301 355.135 271.72 347.177 271.44C331.294 270.879 314.546 263.567 305.407 243.609L303.22 244.61C312.81 265.553 330.486 273.258 347.092 273.844C355.377 274.136 363.415 272.661 370.093 270.178C376.742 267.705 382.173 264.185 385.113 260.283L383.192 258.835Z" fill="black"/>
<circle cx="351.599" cy="234.951" r="19.4847" transform="rotate(-175.884 351.599 234.951)" fill="#FFDE00" stroke="black" stroke-width="2.40582"/>
<path fill-rule="evenodd" clip-rule="evenodd" d="M357.805 255.316C359.193 254.082 360.433 252.635 361.476 250.988C367.481 241.5 364.657 228.941 355.169 222.935C345.682 216.93 333.122 219.754 327.117 229.242C322.785 236.086 323.047 244.528 327.091 250.956C325.029 252.91 322.338 254.061 318.62 253.307C313.739 252.317 309.489 246.094 304.727 239.121C299.283 231.151 293.17 222.2 284.682 218.969C276.629 215.903 265.868 215.29 255.636 217.475C250.537 218.169 245.631 220.137 241.268 222.791C236.963 225.218 233.152 228.336 230.202 232.183C233.119 228.758 236.924 225.434 241.268 222.791C245.669 220.311 250.588 218.552 255.636 217.475C267.819 215.815 281.097 221.428 290.666 242.324C306.416 276.719 348.561 267.581 357.805 255.316Z" fill="#FFDE00"/>
<path d="M357.805 255.316L357.006 254.417L356.916 254.497L356.844 254.592L357.805 255.316ZM327.091 250.956L327.919 251.829L328.635 251.151L328.109 250.315L327.091 250.956ZM318.62 253.307L318.859 252.128L318.859 252.128L318.62 253.307ZM304.727 239.121L303.734 239.8L303.734 239.8L304.727 239.121ZM284.682 218.969L285.11 217.845L284.682 218.969ZM230.202 232.183L229.247 231.451L231.117 232.963L230.202 232.183ZM290.666 242.324L291.759 241.823L290.666 242.324ZM360.459 250.345C359.477 251.896 358.31 253.257 357.006 254.417L358.605 256.215C360.075 254.907 361.389 253.375 362.492 251.631L360.459 250.345ZM354.526 223.952C363.453 229.602 366.109 241.418 360.459 250.345L362.492 251.631C368.852 241.582 365.862 228.279 355.813 221.919L354.526 223.952ZM328.133 229.885C333.783 220.958 345.6 218.302 354.526 223.952L355.813 221.919C345.764 215.559 332.461 218.549 326.101 228.598L328.133 229.885ZM328.109 250.315C324.303 244.265 324.059 236.323 328.133 229.885L326.101 228.598C321.512 235.849 321.792 244.791 326.073 251.597L328.109 250.315ZM318.381 254.486C322.525 255.327 325.605 254.021 327.919 251.829L326.264 250.083C324.452 251.799 322.15 252.796 318.859 252.128L318.381 254.486ZM303.734 239.8C306.102 243.267 308.4 246.637 310.73 249.257C313.041 251.857 315.544 253.911 318.381 254.486L318.859 252.128C316.815 251.714 314.752 250.16 312.528 247.658C310.321 245.177 308.114 241.948 305.72 238.443L303.734 239.8ZM284.254 220.093C288.248 221.613 291.746 224.505 294.952 228.072C298.158 231.64 301.003 235.802 303.734 239.8L305.72 238.443C303.007 234.47 300.073 230.172 296.741 226.464C293.407 222.755 289.605 219.556 285.11 217.845L284.254 220.093ZM255.887 218.651C265.933 216.506 276.453 217.123 284.254 220.093L285.11 217.845C276.805 214.683 265.803 214.074 255.385 216.298L255.887 218.651ZM241.893 223.819C246.145 221.232 250.895 219.334 255.798 218.667L255.474 216.283C250.18 217.004 245.117 219.041 240.643 221.763L241.893 223.819ZM231.156 232.915C233.993 229.216 237.671 226.199 241.859 223.839L240.678 221.743C236.254 224.236 232.312 227.455 229.247 231.451L231.156 232.915ZM240.643 221.763C236.187 224.475 232.285 227.883 229.286 231.403L231.117 232.963C233.953 229.634 237.661 226.394 241.893 223.819L240.643 221.763ZM255.385 216.298C250.235 217.398 245.199 219.195 240.678 221.743L241.859 223.839C246.14 221.426 250.942 219.707 255.887 218.651L255.385 216.298ZM291.759 241.823C286.907 231.225 281.061 224.388 274.773 220.424C268.471 216.45 261.816 215.419 255.474 216.283L255.798 218.667C261.639 217.871 267.714 218.817 273.49 222.459C279.279 226.109 284.856 232.526 289.572 242.825L291.759 241.823ZM356.844 254.592C354.726 257.403 350.596 260.167 345.21 262.17C339.855 264.161 333.384 265.351 326.718 265.116C313.419 264.646 299.409 258.528 291.759 241.823L289.572 242.825C297.672 260.515 312.61 267.025 326.633 267.52C333.626 267.767 340.41 266.522 346.049 264.425C351.658 262.339 356.262 259.362 358.766 256.04L356.844 254.592Z" fill="black"/>
<circle cx="330.43" cy="234.622" r="16.194" transform="rotate(-175.884 330.43 234.622)" fill="#FFDE00" stroke="black" stroke-width="2.40582"/>
<path fill-rule="evenodd" clip-rule="evenodd" d="M230.508 230.041C229.382 231.182 228.395 232.498 227.59 233.975C222.952 242.483 226.09 253.141 234.598 257.778C243.107 262.416 253.764 259.278 258.402 250.77C261.747 244.632 261.047 237.376 257.203 232.069C258.869 230.269 261.122 229.126 264.366 229.567C269.202 230.223 274.091 235.88 279.509 242.151C284.318 247.716 289.545 253.764 295.523 257.229C324.189 273.844 354.995 281.267 368.806 270.434C355.097 277.797 306.336 269.491 289.057 237.453C273.559 208.718 237.778 218.958 230.508 230.041Z" fill="#FFDE00"/>
<path d="M230.508 230.041L231.364 230.886L231.448 230.801L231.513 230.701L230.508 230.041ZM257.203 232.069L256.32 231.251L255.65 231.975L256.228 232.774L257.203 232.069ZM264.366 229.567L264.528 228.375L264.528 228.375L264.366 229.567ZM279.509 242.151L280.419 241.364L280.419 241.364L279.509 242.151ZM295.523 257.229L296.127 256.188L296.127 256.188L295.523 257.229ZM368.806 270.434L369.548 271.381L368.237 269.375L368.806 270.434ZM289.057 237.453L290.116 236.882L290.116 236.882L289.057 237.453ZM228.646 234.551C229.397 233.173 230.317 231.948 231.364 230.886L229.651 229.196C228.448 230.416 227.393 231.822 226.534 233.399L228.646 234.551ZM235.174 256.722C227.249 252.402 224.326 242.476 228.646 234.551L226.534 233.399C221.578 242.491 224.931 253.879 234.023 258.834L235.174 256.722ZM257.346 250.194C253.026 258.119 243.099 261.042 235.174 256.722L234.023 258.834C243.114 263.79 254.502 260.437 259.458 251.346L257.346 250.194ZM256.228 232.774C259.811 237.721 260.461 244.479 257.346 250.194L259.458 251.346C263.034 244.786 262.283 237.032 258.177 231.363L256.228 232.774ZM264.528 228.375C260.852 227.876 258.221 229.198 256.32 231.251L258.085 232.886C259.517 231.34 261.392 230.377 264.205 230.759L264.528 228.375ZM280.419 241.364C277.724 238.245 275.097 235.203 272.529 232.864C269.982 230.544 267.322 228.754 264.528 228.375L264.205 230.759C266.246 231.036 268.449 232.402 270.909 234.643C273.349 236.865 275.876 239.786 278.599 242.937L280.419 241.364ZM296.127 256.188C290.358 252.845 285.264 246.97 280.419 241.364L278.599 242.937C283.373 248.462 288.733 254.684 294.92 258.27L296.127 256.188ZM368.064 269.488C361.586 274.568 350.887 275.504 337.969 272.944C325.12 270.398 310.377 264.448 296.127 256.188L294.92 258.27C309.336 266.625 324.329 272.694 337.501 275.304C350.605 277.901 362.215 277.133 369.548 271.381L368.064 269.488ZM287.998 238.024C296.839 254.416 313.672 264.649 329.903 269.864C338.032 272.476 346.061 273.846 352.949 274.095C359.79 274.341 365.666 273.486 369.375 271.494L368.237 269.375C365.092 271.064 359.732 271.932 353.035 271.69C346.384 271.451 338.573 270.123 330.638 267.574C314.742 262.466 298.554 252.528 290.116 236.882L287.998 238.024ZM231.513 230.701C233.156 228.197 236.525 225.601 241.035 223.581C245.517 221.573 251.001 220.19 256.733 220.018C268.162 219.675 280.506 224.133 287.998 238.024L290.116 236.882C282.11 222.038 268.814 217.249 256.661 217.613C250.602 217.795 244.809 219.254 240.052 221.385C235.324 223.504 231.495 226.343 229.502 229.381L231.513 230.701Z" fill="black"/>
<circle cx="256.951" cy="239.196" r="13.8107" transform="rotate(0.379541 256.951 239.196)" fill="#FFDE00" stroke="black" stroke-width="2.40582"/>
<circle r="64.7107" transform="matrix(-0.965926 0.258819 0.258819 0.965926 200.113 208.424)" fill="#FFDE00" stroke="black" stroke-width="2.40582"/>
<path fill-rule="evenodd" clip-rule="evenodd" d="M127.071 146.923C126.187 145.064 125.544 143.051 125.19 140.919C123.153 128.643 131.454 117.04 143.73 115.003C156.007 112.966 167.61 121.266 169.647 133.543C171.117 142.398 167.207 150.904 160.306 155.721C161.568 158.606 163.819 160.942 167.94 161.776C173.349 162.871 180.373 158.352 188.242 153.288C197.238 147.5 207.34 141 217.399 141.363C236.258 142.044 263.416 156.552 268.953 177.844C260.737 159.615 235.686 131.051 201.215 162.624C170.299 190.941 131.218 163.432 127.071 146.923Z" fill="#FFDE00"/>
<path d="M127.071 146.923L128.157 146.406L128.209 146.514L128.238 146.63L127.071 146.923ZM160.306 155.721L159.204 156.203L158.808 155.299L159.617 154.734L160.306 155.721ZM167.94 161.776L168.178 160.597L168.178 160.597L167.94 161.776ZM188.242 153.288L187.591 152.277L187.591 152.277L188.242 153.288ZM217.399 141.363L217.356 142.565L217.356 142.565L217.399 141.363ZM268.953 177.844L270.117 177.541L267.856 178.338L268.953 177.844ZM201.215 162.624L202.027 163.511L202.027 163.511L201.215 162.624ZM126.377 140.722C126.712 142.743 127.321 144.647 128.157 146.406L125.985 147.44C125.053 145.48 124.376 143.36 124.004 141.116L126.377 140.722ZM143.927 116.189C132.306 118.117 124.449 129.101 126.377 140.722L124.004 141.116C121.858 128.184 130.602 115.962 143.534 113.816L143.927 116.189ZM168.46 133.739C166.532 122.118 155.548 114.261 143.927 116.189L143.534 113.816C156.465 111.67 168.688 120.414 170.834 133.346L168.46 133.739ZM159.617 154.734C166.152 150.173 169.851 142.121 168.46 133.739L170.834 133.346C172.382 142.676 168.261 151.635 160.994 156.707L159.617 154.734ZM167.701 162.955C163.153 162.035 160.605 159.405 159.204 156.203L161.408 155.238C162.532 157.807 164.485 159.85 168.178 160.597L167.701 162.955ZM188.893 154.3C184.978 156.819 181.185 159.262 177.686 160.928C174.21 162.582 170.802 163.583 167.701 162.955L168.178 160.597C170.487 161.064 173.295 160.353 176.652 158.755C179.984 157.169 183.637 154.821 187.591 152.277L188.893 154.3ZM217.356 142.565C212.594 142.394 207.754 143.845 202.933 146.108C198.111 148.371 193.404 151.397 188.893 154.3L187.591 152.277C192.077 149.391 196.918 146.273 201.911 143.93C206.905 141.586 212.145 139.97 217.442 140.161L217.356 142.565ZM267.789 178.147C265.123 167.894 257.21 159.162 247.518 152.884C237.831 146.609 226.534 142.897 217.356 142.565L217.442 140.161C227.122 140.51 238.835 144.393 248.826 150.865C258.812 157.334 267.247 166.502 270.117 177.541L267.789 178.147ZM200.402 161.737C209.138 153.736 217.358 149.47 224.948 147.939C232.551 146.406 239.434 147.635 245.443 150.47C257.4 156.113 265.879 168.096 270.05 177.35L267.856 178.338C263.811 169.363 255.656 157.95 244.416 152.646C238.827 150.009 232.469 148.877 225.424 150.298C218.365 151.721 210.527 155.725 202.027 163.511L200.402 161.737ZM128.238 146.63C129.197 150.447 132.24 155.071 136.883 159.448C141.503 163.802 147.61 167.817 154.533 170.459C168.348 175.731 185.344 175.529 200.402 161.737L202.027 163.511C186.17 178.035 168.167 178.237 153.676 172.707C146.446 169.948 140.073 165.76 135.233 161.198C130.416 156.658 127.019 151.653 125.904 147.216L128.238 146.63Z" fill="black"/>
<circle r="18.0775" transform="matrix(0.946688 0.322153 0.322153 -0.946688 163.945 137.608)" fill="#FFDE00" stroke="black" stroke-width="2.40582"/>
<path fill-rule="evenodd" clip-rule="evenodd" d="M132.165 129.701C131.366 128.02 130.785 126.2 130.465 124.272C128.622 113.167 136.131 102.671 147.236 100.829C158.341 98.986 168.836 106.494 170.679 117.599C172.008 125.61 168.471 133.304 162.229 137.661C163.371 140.271 165.407 142.384 169.134 143.138C174.028 144.129 180.381 140.041 187.499 135.46C195.637 130.224 204.774 124.345 213.873 124.673C230.932 125.289 255.499 138.413 260.507 157.672C253.075 141.183 230.415 115.345 199.234 143.905C171.267 169.52 135.914 144.634 132.165 129.701Z" fill="#FFDE00"/>
<path d="M132.165 129.701L133.252 129.184L133.303 129.292L133.332 129.408L132.165 129.701ZM162.229 137.661L161.127 138.143L160.731 137.239L161.54 136.674L162.229 137.661ZM169.134 143.138L169.373 141.959L169.373 141.959L169.134 143.138ZM187.499 135.46L186.848 134.449L186.848 134.449L187.499 135.46ZM213.873 124.673L213.83 125.875L213.83 125.875L213.873 124.673ZM260.507 157.672L261.672 157.37L259.411 158.167L260.507 157.672ZM199.234 143.905L198.421 143.018L198.421 143.018L199.234 143.905ZM131.652 124.075C131.953 125.891 132.5 127.603 133.252 129.184L131.079 130.218C130.232 128.436 129.617 126.509 129.278 124.469L131.652 124.075ZM147.433 102.015C136.983 103.749 129.918 113.626 131.652 124.075L129.278 124.469C127.327 112.709 135.279 101.593 147.039 99.6419L147.433 102.015ZM169.492 117.796C167.759 107.347 157.882 100.281 147.433 102.015L147.039 99.6419C158.799 97.6906 169.914 105.642 171.866 117.402L169.492 117.796ZM161.54 136.674C167.417 132.573 170.743 125.332 169.492 117.796L171.866 117.402C173.274 125.888 169.526 134.035 162.917 138.647L161.54 136.674ZM168.896 144.317C164.741 143.476 162.408 141.07 161.127 138.143L163.331 137.179C164.334 139.472 166.072 141.291 169.373 141.959L168.896 144.317ZM188.15 136.472C184.61 138.75 181.173 140.964 177.999 142.474C174.85 143.973 171.738 144.893 168.896 144.317L169.373 141.959C171.423 142.374 173.935 141.744 176.965 140.302C179.971 138.871 183.27 136.751 186.848 134.449L188.15 136.472ZM213.83 125.875C209.548 125.721 205.189 127.026 200.837 129.069C196.483 131.112 192.231 133.846 188.15 136.472L186.848 134.449C190.904 131.839 195.29 129.014 199.814 126.891C204.34 124.767 209.099 123.297 213.917 123.471L213.83 125.875ZM259.343 157.975C256.941 148.739 249.808 140.861 241.055 135.191C232.307 129.524 222.109 126.174 213.83 125.875L213.917 123.471C222.697 123.788 233.311 127.308 242.363 133.172C251.411 139.033 259.065 147.347 261.672 157.37L259.343 157.975ZM198.421 143.018C206.334 135.77 213.788 131.899 220.679 130.509C227.583 129.117 233.834 130.233 239.29 132.807C250.14 137.927 257.825 148.795 261.604 157.178L259.411 158.167C255.757 150.061 248.396 139.765 238.263 134.983C233.227 132.607 227.502 131.588 221.155 132.868C214.796 134.15 207.724 137.76 200.046 144.792L198.421 143.018ZM133.332 129.408C134.191 132.831 136.927 136.996 141.119 140.947C145.287 144.876 150.798 148.5 157.047 150.885C169.511 155.642 184.837 155.46 198.421 143.018L200.046 144.792C185.664 157.965 169.33 158.148 156.189 153.132C149.635 150.631 143.857 146.834 139.468 142.698C135.103 138.583 132.014 134.037 130.999 129.994L133.332 129.408Z" fill="black"/>
<circle r="16.2375" transform="matrix(0.946688 0.322153 0.322153 -0.946688 165.521 121.278)" fill="#FFDE00" stroke="black" stroke-width="2.40582"/>
<path fill-rule="evenodd" clip-rule="evenodd" d="M148.973 125.762C148.284 124.315 147.784 122.748 147.509 121.088C145.923 111.528 152.386 102.493 161.946 100.907C171.505 99.3205 180.541 105.784 182.127 115.344C183.271 122.24 180.227 128.863 174.853 132.614C175.836 134.86 177.589 136.68 180.797 137.329C185.01 138.182 190.479 134.662 196.607 130.719C203.612 126.212 211.478 121.151 219.311 121.433C233.996 121.963 255.145 133.261 259.456 149.841C253.058 135.646 233.551 113.403 206.709 137.989C182.634 160.039 152.202 138.618 148.973 125.762Z" fill="#FFDE00"/>
<path d="M148.973 125.762L150.059 125.246L150.11 125.354L150.14 125.469L148.973 125.762ZM174.853 132.614L173.751 133.096L173.355 132.192L174.164 131.627L174.853 132.614ZM180.797 137.329L181.036 136.15L181.036 136.15L180.797 137.329ZM196.607 130.719L195.956 129.708L195.956 129.708L196.607 130.719ZM219.311 121.433L219.268 122.636L219.268 122.636L219.311 121.433ZM259.456 149.841L260.621 149.538L258.36 150.335L259.456 149.841ZM206.709 137.989L205.896 137.102L205.896 137.102L206.709 137.989ZM148.695 120.891C148.952 122.439 149.418 123.899 150.059 125.246L147.887 126.279C147.15 124.731 146.616 123.057 146.322 121.285L148.695 120.891ZM162.143 102.093C153.239 103.571 147.218 111.987 148.695 120.891L146.322 121.285C144.627 111.07 151.534 101.415 161.749 99.7201L162.143 102.093ZM180.94 115.541C179.463 106.637 171.047 100.616 162.143 102.093L161.749 99.7201C171.964 98.0251 181.619 104.932 183.314 115.147L180.94 115.541ZM174.164 131.627C179.172 128.132 182.006 121.962 180.94 115.541L183.314 115.147C184.537 122.517 181.281 129.594 175.541 133.6L174.164 131.627ZM180.559 138.508C176.923 137.772 174.873 135.659 173.751 133.096L175.955 132.132C176.799 134.061 178.254 135.587 181.036 136.15L180.559 138.508ZM197.258 131.731C194.213 133.69 191.244 135.603 188.501 136.909C185.781 138.203 183.061 139.014 180.559 138.508L181.036 136.15C182.746 136.496 184.867 135.974 187.467 134.736C190.043 133.51 192.873 131.692 195.956 129.708L197.258 131.731ZM219.268 122.636C215.619 122.504 211.894 123.616 208.16 125.369C204.423 127.123 200.773 129.469 197.258 131.731L195.956 129.708C199.446 127.462 203.231 125.025 207.137 123.191C211.045 121.357 215.17 120.08 219.355 120.231L219.268 122.636ZM258.292 150.144C256.239 142.247 250.134 135.496 242.62 130.628C235.11 125.764 226.36 122.892 219.268 122.636L219.355 120.231C226.948 120.505 236.114 123.547 243.928 128.609C251.737 133.668 258.363 140.855 260.621 149.538L258.292 150.144ZM205.896 137.102C212.725 130.848 219.168 127.497 225.137 126.293C231.119 125.087 236.537 126.054 241.263 128.284C250.653 132.715 257.291 142.11 260.553 149.347L258.36 150.335C255.223 143.377 248.909 134.553 240.236 130.46C235.93 128.428 231.037 127.558 225.613 128.652C220.175 129.748 214.114 132.837 207.521 138.876L205.896 137.102ZM150.14 125.469C150.869 128.374 153.199 131.932 156.796 135.322C160.369 138.69 165.095 141.797 170.452 143.842C181.135 147.919 194.258 147.761 205.896 137.102L207.521 138.876C195.085 150.267 180.954 150.424 169.595 146.089C163.931 143.928 158.939 140.648 155.146 137.073C151.376 133.519 148.691 129.579 147.806 126.055L150.14 125.469Z" fill="black"/>
<circle r="13.8107" transform="matrix(0.946688 0.322153 0.322153 -0.946688 177.686 118.508)" fill="#FFDE00" stroke="black" stroke-width="2.40582"/>
<path fill-rule="evenodd" clip-rule="evenodd" d="M91.7212 249.709C89.8146 246.984 88.2525 243.95 87.118 240.648C80.5864 221.638 90.7027 200.931 109.714 194.4C128.724 187.868 149.43 197.985 155.962 216.995C160.674 230.709 156.723 245.304 147.019 254.825C149.803 259.083 154.013 262.203 160.801 262.428C169.712 262.724 179.69 253.644 190.87 243.471C203.651 231.842 218.002 218.784 234.124 216.669C264.348 212.704 295.926 216.266 310.446 248.7C292.477 221.862 260.494 195.345 214.035 254.869C172.367 308.254 102.747 274.897 91.7212 249.709Z" fill="#FFDE00"/>
<path d="M91.7212 249.709L92.7067 249.019L92.7752 249.117L92.8231 249.226L91.7212 249.709ZM147.019 254.825L146.012 255.484L145.472 254.658L146.177 253.967L147.019 254.825ZM160.801 262.428L160.761 263.63L160.761 263.63L160.801 262.428ZM190.87 243.471L190.061 242.581L190.061 242.581L190.87 243.471ZM234.124 216.669L233.967 215.476L233.967 215.476L234.124 216.669ZM310.446 248.7L311.544 248.209L309.447 249.37L310.446 248.7ZM214.035 254.869L213.086 254.129L213.086 254.129L214.035 254.869ZM88.2556 240.258C89.3533 243.452 90.8639 246.385 92.7067 249.019L90.7356 250.398C88.7653 247.583 87.1517 244.449 85.9804 241.039L88.2556 240.258ZM110.104 195.537C91.7219 201.853 81.9399 221.875 88.2556 240.258L85.9804 241.039C79.2329 221.4 89.6836 200.01 109.323 193.262L110.104 195.537ZM154.824 217.386C148.509 199.004 128.487 189.222 110.104 195.537L109.323 193.262C128.962 186.515 150.352 196.965 157.1 216.604L154.824 217.386ZM146.177 253.967C155.562 244.758 159.38 230.645 154.824 217.386L157.1 216.604C161.968 230.773 157.884 245.85 147.862 255.684L146.177 253.967ZM160.761 263.63C153.538 263.39 148.985 260.031 146.012 255.484L148.026 254.167C150.62 258.136 154.489 261.015 160.841 261.226L160.761 263.63ZM191.68 244.361C186.107 249.432 180.756 254.303 175.674 257.861C170.614 261.403 165.62 263.791 160.761 263.63L160.841 261.226C164.892 261.36 169.343 259.357 174.295 255.89C179.225 252.438 184.454 247.683 190.061 242.581L191.68 244.361ZM234.28 217.861C226.485 218.884 219.051 222.563 211.929 227.491C204.805 232.42 198.081 238.536 191.68 244.361L190.061 242.581C196.44 236.777 203.282 230.549 210.56 225.513C217.839 220.476 225.641 216.568 233.967 215.476L234.28 217.861ZM309.348 249.192C302.234 233.301 290.982 224.527 277.797 220.177C264.558 215.81 249.316 215.889 234.28 217.861L233.967 215.476C249.156 213.484 264.815 213.361 278.551 217.893C292.341 222.442 304.138 231.666 311.544 248.209L309.348 249.192ZM213.086 254.129C236.416 224.238 256.415 215.565 273.113 218.211C289.692 220.838 302.429 234.564 311.446 248.031L309.447 249.37C300.495 235.999 288.255 223.047 272.736 220.587C257.335 218.146 238.112 225.976 214.983 255.609L213.086 254.129ZM92.8231 249.226C95.4516 255.231 101.664 261.88 110.293 267.649C118.896 273.4 129.789 278.2 141.624 280.575C165.261 285.318 192.586 280.395 213.086 254.129L214.983 255.609C193.816 282.729 165.497 287.82 141.151 282.934C128.995 280.494 117.81 275.568 108.956 269.649C100.129 263.747 93.5039 256.781 90.6192 250.191L92.8231 249.226Z" fill="black"/>
<circle r="29.9413" transform="matrix(0.986988 0.160793 0.160793 -0.986988 147.965 224.996)" fill="#FFDE00" stroke="black" stroke-width="2.40582"/>
<path fill-rule="evenodd" clip-rule="evenodd" d="M110.582 251.837C108.967 249.528 107.643 246.957 106.682 244.159C101.146 228.046 109.72 210.496 125.833 204.96C141.946 199.424 159.496 207.998 165.032 224.111C169.026 235.735 165.677 248.106 157.452 256.175C159.811 259.784 163.38 262.427 169.132 262.618C176.685 262.868 185.142 255.173 194.618 246.55C205.451 236.694 217.615 225.626 231.279 223.833C256.896 220.473 276.075 220.244 288.382 247.734C273.152 224.987 253.63 205.76 214.252 256.211C178.935 301.459 119.927 273.186 110.582 251.837Z" fill="#FFDE00"/>
<path d="M110.582 251.837L111.568 251.147L111.636 251.245L111.684 251.354L110.582 251.837ZM157.452 256.175L156.445 256.834L155.905 256.008L156.61 255.317L157.452 256.175ZM169.132 262.618L169.093 263.82L169.093 263.82L169.132 262.618ZM194.618 246.55L195.428 247.44L195.428 247.44L194.618 246.55ZM231.279 223.833L231.123 222.641L231.123 222.641L231.279 223.833ZM288.382 247.734L289.48 247.243L287.382 248.404L288.382 247.734ZM214.252 256.211L215.2 256.951L215.2 256.951L214.252 256.211ZM107.819 243.768C108.744 246.459 110.016 248.929 111.568 251.147L109.596 252.526C107.917 250.126 106.542 247.455 105.544 244.55L107.819 243.768ZM126.224 206.098C110.739 211.418 102.499 228.283 107.819 243.768L105.544 244.55C99.7921 227.809 108.701 209.574 125.442 203.822L126.224 206.098ZM163.895 224.502C158.574 209.017 141.709 200.777 126.224 206.098L125.442 203.822C142.183 198.07 160.418 206.979 166.17 223.72L163.895 224.502ZM156.61 255.317C164.516 247.559 167.732 235.67 163.895 224.502L166.17 223.72C170.32 235.799 166.838 248.652 158.295 257.034L156.61 255.317ZM169.093 263.82C162.904 263.615 158.994 260.731 156.445 256.834L158.459 255.517C160.629 258.836 163.855 261.239 169.172 261.415L169.093 263.82ZM195.428 247.44C190.707 251.736 186.163 255.873 181.844 258.897C177.547 261.905 173.273 263.959 169.093 263.82L169.172 261.415C172.545 261.527 176.275 259.858 180.464 256.926C184.631 254.009 189.054 249.987 193.809 245.661L195.428 247.44ZM231.435 225.026C224.869 225.887 218.596 228.988 212.571 233.157C206.546 237.327 200.855 242.502 195.428 247.44L193.809 245.661C199.214 240.743 205.022 235.455 211.202 231.179C217.384 226.901 224.024 223.572 231.123 222.641L231.435 225.026ZM287.284 248.226C281.24 234.725 273.603 228.199 264.465 225.364C255.214 222.493 244.264 223.343 231.435 225.026L231.123 222.641C243.911 220.963 255.359 220.019 265.178 223.066C275.111 226.148 283.217 233.253 289.48 247.243L287.284 248.226ZM213.304 255.471C233.017 230.214 248.113 221.905 260.509 223.328C266.697 224.039 272.023 227.163 276.725 231.482C281.42 235.794 285.56 241.357 289.381 247.065L287.382 248.404C283.588 242.737 279.577 237.367 275.098 233.254C270.625 229.146 265.753 226.352 260.235 225.718C249.218 224.454 234.865 231.757 215.2 256.951L213.304 255.471ZM111.684 251.354C113.892 256.399 119.126 262.011 126.425 266.89C133.697 271.752 142.907 275.81 152.914 277.819C172.894 281.828 195.979 277.668 213.304 255.471L215.2 256.951C197.209 280.002 173.131 284.33 152.441 280.177C142.113 278.105 132.612 273.92 125.088 268.89C117.591 263.878 111.944 257.949 109.48 252.319L111.684 251.354Z" fill="black"/>
<circle r="25.1941" transform="matrix(0.986988 0.160793 0.160793 -0.986988 158.253 230.89)" fill="#FFDE00" stroke="black" stroke-width="2.40582"/>
<path fill-rule="evenodd" clip-rule="evenodd" d="M115.23 198.777C113.615 196.469 112.291 193.898 111.33 191.1C105.794 174.987 114.368 157.437 130.481 151.901C146.594 146.365 164.144 154.939 169.68 171.052C173.674 182.675 170.325 195.046 162.1 203.116C164.46 206.724 168.028 209.367 173.781 209.558C181.333 209.809 189.791 202.113 199.267 193.491C210.099 183.634 222.263 172.567 235.927 170.774C261.544 167.414 280.723 167.184 293.03 194.675C277.8 171.927 258.278 152.701 218.9 203.152C183.584 248.4 124.575 220.127 115.23 198.777Z" fill="#FFDE00"/>
<path d="M115.23 198.777L116.216 198.088L116.284 198.186L116.332 198.295L115.23 198.777ZM162.1 203.116L161.094 203.774L160.554 202.948L161.258 202.257L162.1 203.116ZM173.781 209.558L173.741 210.761L173.741 210.761L173.781 209.558ZM199.267 193.491L200.076 194.381L200.076 194.381L199.267 193.491ZM235.927 170.774L235.771 169.581L235.771 169.581L235.927 170.774ZM293.03 194.675L294.128 194.183L292.03 195.344L293.03 194.675ZM218.9 203.152L219.849 203.892L219.849 203.892L218.9 203.152ZM112.468 190.709C113.392 193.4 114.664 195.87 116.216 198.088L114.245 199.467C112.566 197.067 111.19 194.396 110.192 191.491L112.468 190.709ZM130.872 153.038C115.387 158.358 107.147 175.224 112.468 190.709L110.192 191.491C104.44 174.749 113.349 156.515 130.09 150.763L130.872 153.038ZM168.543 171.443C163.223 155.958 146.357 147.718 130.872 153.038L130.09 150.763C146.832 145.011 165.066 153.92 170.818 170.661L168.543 171.443ZM161.258 202.257C169.164 194.5 172.38 182.611 168.543 171.443L170.818 170.661C174.968 182.739 171.486 195.592 162.943 203.975L161.258 202.257ZM173.741 210.761C167.553 210.555 163.642 207.672 161.094 203.774L163.107 202.458C165.277 205.777 168.504 208.18 173.821 208.356L173.741 210.761ZM200.076 194.381C195.355 198.677 190.811 202.814 186.492 205.838C182.195 208.846 177.921 210.899 173.741 210.761L173.821 208.356C177.193 208.468 180.924 206.799 185.113 203.867C189.28 200.949 193.702 196.928 198.457 192.601L200.076 194.381ZM236.084 171.967C229.518 172.828 223.244 175.929 217.22 180.098C211.194 184.267 205.504 189.442 200.076 194.381L198.457 192.601C203.862 187.683 209.67 182.396 215.851 178.119C222.032 173.842 228.673 170.512 235.771 169.581L236.084 171.967ZM291.932 195.167C285.888 181.666 278.251 175.14 269.114 172.304C259.862 169.433 248.912 170.284 236.084 171.967L235.771 169.581C248.56 167.904 260.008 166.959 269.827 170.006C279.76 173.089 287.865 180.194 294.128 194.183L291.932 195.167ZM217.952 202.412C237.665 177.155 252.762 168.846 265.158 170.269C271.346 170.979 276.671 174.104 281.373 178.422C286.069 182.735 290.208 188.298 294.03 194.006L292.03 195.344C288.237 189.678 284.225 184.308 279.746 180.194C275.274 176.087 270.402 173.292 264.883 172.659C253.866 171.395 239.513 178.698 219.849 203.892L217.952 202.412ZM116.332 198.295C118.54 203.34 123.775 208.951 131.073 213.831C138.346 218.693 147.556 222.751 157.563 224.759C177.543 228.769 200.627 224.609 217.952 202.412L219.849 203.892C201.857 226.943 177.779 231.27 157.089 227.118C146.762 225.045 137.26 220.861 129.736 215.831C122.239 210.819 116.593 204.89 114.128 199.26L116.332 198.295Z" fill="black"/>
<circle r="25.1941" transform="matrix(0.986988 0.160793 0.160793 -0.986988 162.902 177.832)" fill="#FFDE00" stroke="black" stroke-width="2.40582"/>
<circle r="57.5757" transform="matrix(-0.965926 0.258819 0.258819 0.965926 238.186 183.8)" fill="#FFDE00" stroke="black" stroke-width="2.40582"/>
<path fill-rule="evenodd" clip-rule="evenodd" d="M138.389 169.948C136.748 172.162 135.383 174.641 134.366 177.354C128.508 192.975 136.375 210.421 151.937 216.322C167.498 222.222 184.862 214.342 190.72 198.721C194.946 187.453 192.03 175.235 184.235 167.086C186.639 163.621 190.196 161.138 195.813 161.121C203.083 161.099 209.881 170.095 217.525 180.211C226.5 192.087 236.643 205.509 250.087 207.696C256.549 208.747 260.648 213.77 263.399 220.167C265.336 227.833 266.508 234.592 267.442 239.978C268.683 247.133 269.503 251.863 271.136 253.07C272.381 255.974 274.159 255.296 277.592 248.163C274.409 252.647 272.492 254.073 271.136 253.07C270.264 251.039 269.653 247.254 268.918 242.701C267.806 235.814 266.41 227.168 263.399 220.167C259.642 205.292 253.005 187.007 239.646 168.733C206.478 123.361 148.112 149.31 138.389 169.948Z" fill="#FFDE00"/>
<path d="M138.389 169.948L139.354 170.668L139.425 170.572L139.476 170.465L138.389 169.948ZM184.235 167.086L183.248 166.396L182.687 167.205L183.369 167.918L184.235 167.086ZM195.813 161.121L195.806 159.917L195.806 159.917L195.813 161.121ZM217.525 180.211L218.482 179.485L218.482 179.485L217.525 180.211ZM250.087 207.696L250.276 206.507L250.276 206.507L250.087 207.696ZM267.442 239.978L266.258 240.181L266.258 240.181L267.442 239.978ZM277.592 248.163L278.674 248.689L276.612 247.463L277.592 248.163ZM268.918 242.701L267.732 242.89L267.732 242.89L268.918 242.701ZM239.646 168.733L240.615 168.023L239.646 168.733ZM135.491 177.78C136.469 175.174 137.779 172.793 139.354 170.668L137.424 169.228C135.717 171.531 134.298 174.109 133.241 176.927L135.491 177.78ZM152.359 215.195C137.421 209.531 129.866 192.782 135.491 177.78L133.241 176.927C127.151 193.168 135.329 211.311 151.514 217.448L152.359 215.195ZM189.595 198.295C183.97 213.296 167.297 220.859 152.359 215.195L151.514 217.448C167.7 223.585 185.755 215.388 191.845 199.148L189.595 198.295ZM183.369 167.918C190.854 175.744 193.653 187.475 189.595 198.295L191.845 199.148C196.239 187.431 193.205 174.726 185.102 166.254L183.369 167.918ZM195.806 159.917C189.753 159.935 185.849 162.649 183.248 166.396L185.222 167.775C187.43 164.594 190.638 162.341 195.819 162.325L195.806 159.917ZM218.482 179.485C214.677 174.449 211.009 169.592 207.369 166.006C203.755 162.446 199.939 159.904 195.806 159.917L195.819 162.325C198.956 162.316 202.175 164.262 205.688 167.722C209.175 171.158 212.729 175.856 216.568 180.936L218.482 179.485ZM250.276 206.507C243.895 205.469 238.213 201.75 232.959 196.717C227.703 191.683 222.982 185.44 218.482 179.485L216.568 180.936C221.044 186.859 225.881 193.264 231.301 198.457C236.724 203.65 242.834 207.736 249.897 208.885L250.276 206.507ZM264.503 219.693C261.689 213.15 257.343 207.657 250.276 206.507L249.897 208.885C255.755 209.838 259.608 214.391 262.296 220.641L264.503 219.693ZM268.626 239.775C267.692 234.389 266.513 227.589 264.564 219.874L262.235 220.46C264.159 228.076 265.324 234.795 266.258 240.181L268.626 239.775ZM271.847 252.101C271.684 251.981 271.432 251.681 271.139 251.029C270.855 250.396 270.581 249.545 270.306 248.461C269.756 246.288 269.249 243.371 268.626 239.775L266.258 240.181C266.875 243.74 267.399 246.765 267.977 249.048C268.267 250.191 268.581 251.196 268.949 252.013C269.308 252.811 269.771 253.555 270.424 254.039L271.847 252.101ZM276.509 247.638C275.663 249.397 274.934 250.725 274.305 251.685C273.661 252.668 273.183 253.169 272.869 253.382C272.723 253.481 272.669 253.479 272.694 253.476C272.708 253.475 272.731 253.475 272.757 253.481C272.782 253.487 272.796 253.494 272.795 253.494C272.747 253.466 272.529 253.272 272.239 252.597L270.032 253.543C270.365 254.319 270.837 255.13 271.58 255.569C271.986 255.809 272.452 255.923 272.947 255.872C273.423 255.823 273.849 255.629 274.219 255.378C274.933 254.894 275.621 254.069 276.315 253.01C277.024 251.928 277.805 250.496 278.674 248.689L276.509 247.638ZM270.424 254.039C271.012 254.473 271.705 254.659 272.449 254.548C273.144 254.444 273.797 254.095 274.404 253.636C275.607 252.726 276.971 251.117 278.571 248.864L276.612 247.463C275.029 249.693 273.843 251.039 272.953 251.712C272.514 252.044 272.234 252.144 272.089 252.166C271.993 252.18 271.938 252.168 271.847 252.101L270.424 254.039ZM267.732 242.89C268.099 245.16 268.439 247.269 268.798 249.065C269.153 250.843 269.543 252.403 270.032 253.543L272.239 252.597C271.857 251.705 271.506 250.357 271.154 248.598C270.806 246.855 270.473 244.795 270.104 242.512L267.732 242.89ZM262.296 220.641C265.237 227.479 266.615 235.97 267.732 242.89L270.104 242.512C268.998 235.658 267.583 226.856 264.503 219.693L262.296 220.641ZM238.678 169.443C251.92 187.557 258.503 205.687 262.235 220.46L264.564 219.874C260.78 204.898 254.091 186.457 240.615 168.023L238.678 169.443ZM139.476 170.465C141.771 165.594 147.032 160.254 154.288 155.692C161.518 151.146 170.614 147.445 180.43 145.774C200.026 142.439 222.414 147.196 238.678 169.443L240.615 168.023C223.71 144.898 200.331 139.943 180.021 143.399C169.884 145.125 160.492 148.944 153.007 153.65C145.549 158.34 139.869 163.984 137.302 169.431L139.476 170.465Z" fill="black"/>
<path d="M208.644 188.649C210.435 202.16 200.983 214.551 187.543 216.333C174.103 218.115 161.747 208.617 159.955 195.105C158.164 181.594 167.616 169.203 181.056 167.421C194.496 165.639 206.852 175.137 208.644 188.649Z" fill="#FFDE00" stroke="black" stroke-width="2.40582"/>
<path fill-rule="evenodd" clip-rule="evenodd" d="M146.823 186.296C145.254 188.413 143.95 190.782 142.977 193.375C137.38 208.301 144.897 224.97 159.766 230.608C174.634 236.246 191.225 228.717 196.822 213.791C200.859 203.025 198.073 191.351 190.627 183.565C192.923 180.254 196.321 177.881 201.689 177.865C208.735 177.845 216.409 185.287 225.008 193.626C234.838 203.158 245.876 213.862 258.563 215.926C265.663 217.081 272.939 219.936 279.979 222.698C280.45 222.883 280.92 223.067 281.389 223.25C288.725 227.591 295.374 229.417 301.281 229.052C309.035 229.701 315.678 227.056 320.343 217.363C315.312 224.449 308.917 228.58 301.281 229.052C295.195 228.542 288.425 226.003 281.389 223.25C270.289 216.682 257.618 204.355 243.571 185.139C211.881 141.789 156.117 166.578 146.823 186.296Z" fill="#FFDE00"/>
<path d="M146.823 186.296L147.788 187.017L147.859 186.921L147.91 186.813L146.823 186.296ZM190.627 183.565L189.64 182.876L189.079 183.685L189.76 184.397L190.627 183.565ZM201.689 177.865L201.695 179.07L201.695 179.07L201.689 177.865ZM225.008 193.626L225.842 192.761L225.842 192.761L225.008 193.626ZM258.563 215.926L258.374 217.115L258.374 217.115L258.563 215.926ZM279.979 222.698L280.415 221.577L280.415 221.577L279.979 222.698ZM320.343 217.363L321.426 217.889L319.364 216.663L320.343 217.363ZM243.571 185.139L242.602 185.849L242.602 185.849L243.571 185.139ZM144.102 193.802C145.035 191.315 146.285 189.044 147.788 187.017L145.858 185.576C144.223 187.781 142.865 190.25 141.853 192.949L144.102 193.802ZM160.188 229.482C145.943 224.081 138.738 208.108 144.102 193.802L141.853 192.949C136.023 208.494 143.851 225.86 159.343 231.734L160.188 229.482ZM195.697 213.365C190.333 227.671 174.433 234.883 160.188 229.482L159.343 231.734C174.836 237.609 192.118 229.763 197.947 214.218L195.697 213.365ZM189.76 184.397C196.898 191.86 199.566 203.048 195.697 213.365L197.947 214.218C202.152 203.003 199.249 190.843 191.493 182.733L189.76 184.397ZM201.682 176.661C195.879 176.678 192.133 179.282 189.64 182.876L191.614 184.255C193.714 181.227 196.764 179.084 201.695 179.07L201.682 176.661ZM225.842 192.761C221.559 188.608 217.432 184.602 213.483 181.647C209.556 178.707 205.609 176.65 201.682 176.661L201.695 179.07C204.814 179.061 208.228 180.714 212.049 183.575C215.849 186.42 219.858 190.305 224.174 194.49L225.842 192.761ZM258.753 214.738C252.674 213.749 246.923 210.677 241.426 206.608C235.928 202.539 230.768 197.538 225.842 192.761L224.174 194.49C229.078 199.246 234.352 204.363 240.002 208.545C245.653 212.727 251.765 216.04 258.374 217.115L258.753 214.738ZM280.415 221.577C273.401 218.825 266.002 215.917 258.753 214.738L258.374 217.115C265.324 218.246 272.477 221.047 279.544 223.819L280.415 221.577ZM281.823 222.129C281.355 221.945 280.886 221.761 280.415 221.577L279.544 223.819C280.015 224.004 280.485 224.189 280.954 224.372L281.823 222.129ZM301.204 227.85C295.604 228.196 289.193 226.472 281.997 222.214L280.78 224.287C288.257 228.711 295.145 230.638 301.358 230.254L301.204 227.85ZM319.261 216.837C317.007 221.52 314.331 224.39 311.384 226.033C308.436 227.677 305.092 228.163 301.378 227.852L301.184 230.252C305.225 230.59 309.079 230.078 312.557 228.139C316.036 226.199 319.014 222.9 321.426 217.889L319.261 216.837ZM301.358 230.254C309.437 229.755 316.134 225.371 321.323 218.063L319.364 216.663C314.49 223.527 308.398 227.406 301.204 227.85L301.358 230.254ZM280.954 224.372C287.957 227.112 294.893 229.725 301.184 230.252L301.378 227.852C295.497 227.359 288.893 224.895 281.823 222.129L280.954 224.372ZM242.602 185.849C256.695 205.126 269.48 217.6 280.78 224.287L281.997 222.214C271.098 215.764 258.542 203.584 244.539 184.429L242.602 185.849ZM147.91 186.813C150.098 182.172 155.116 177.078 162.045 172.722C168.947 168.382 177.632 164.849 187.003 163.254C205.71 160.072 227.078 164.613 242.602 185.849L244.539 184.429C228.373 162.315 206.015 157.576 186.594 160.88C176.901 162.529 167.922 166.18 160.764 170.68C153.633 175.163 148.196 180.562 145.737 185.779L147.91 186.813Z" fill="black"/>
<path d="M213.895 204.174C215.603 217.055 206.592 228.867 193.78 230.566C180.968 232.265 169.189 223.21 167.481 210.329C165.773 197.448 174.784 185.637 187.596 183.938C200.408 182.239 212.187 191.293 213.895 204.174Z" fill="#FFDE00" stroke="black" stroke-width="2.40582"/>
<path fill-rule="evenodd" clip-rule="evenodd" d="M156.851 198.796C155.523 200.588 154.418 202.595 153.595 204.791C148.853 217.435 155.221 231.557 167.817 236.333C180.413 241.109 194.468 234.731 199.21 222.087C202.63 212.966 200.27 203.076 193.961 196.48C195.907 193.675 198.785 191.664 203.332 191.651C209.302 191.633 215.803 197.938 223.088 205.002C231.415 213.078 240.766 222.146 251.514 223.895C255.434 224.532 259.364 225.444 263.228 226.34C279.23 230.05 294.102 233.499 302.438 216.178C289.89 233.851 268.748 238.761 238.813 197.812C211.965 161.087 164.722 182.091 156.851 198.796Z" fill="#FFDE00"/>
<path d="M156.851 198.796L157.816 199.516L157.887 199.42L157.938 199.312L156.851 198.796ZM193.961 196.48L192.974 195.79L192.413 196.599L193.095 197.312L193.961 196.48ZM203.332 191.651L203.325 190.447L203.325 190.447L203.332 191.651ZM223.088 205.002L222.253 205.867L222.253 205.867L223.088 205.002ZM251.514 223.895L251.704 222.706L251.704 222.706L251.514 223.895ZM263.228 226.34L263.496 225.166L263.496 225.166L263.228 226.34ZM302.438 216.178L303.521 216.704L301.459 215.478L302.438 216.178ZM238.813 197.812L239.781 197.102L238.813 197.812ZM154.719 205.217C155.503 203.127 156.554 201.219 157.816 199.516L155.886 198.076C154.492 199.957 153.333 202.063 152.47 204.365L154.719 205.217ZM168.239 235.207C156.267 230.667 150.21 217.242 154.719 205.217L152.47 204.365C147.496 217.628 154.175 232.447 167.394 237.459L168.239 235.207ZM198.085 221.66C193.576 233.685 180.212 239.746 168.239 235.207L167.394 237.459C180.614 242.472 195.361 235.777 200.334 222.513L198.085 221.66ZM193.095 197.312C199.094 203.585 201.337 212.988 198.085 221.66L200.334 222.513C203.923 212.943 201.445 202.567 194.827 195.648L193.095 197.312ZM203.325 190.447C198.342 190.461 195.116 192.702 192.974 195.79L194.948 197.169C196.697 194.647 199.228 192.867 203.339 192.855L203.325 190.447ZM223.922 204.138C220.296 200.622 216.79 197.219 213.434 194.707C210.099 192.21 206.715 190.437 203.325 190.447L203.339 192.855C205.919 192.848 208.77 194.218 212 196.635C215.207 199.037 218.595 202.319 222.253 205.867L223.922 204.138ZM251.704 222.706C246.595 221.875 241.75 219.291 237.105 215.853C232.459 212.414 228.096 208.186 223.922 204.138L222.253 205.867C226.406 209.894 230.883 214.238 235.681 217.789C240.48 221.341 245.685 224.166 251.325 225.083L251.704 222.706ZM263.496 225.166C259.639 224.272 255.67 223.351 251.704 222.706L251.325 225.083C255.199 225.714 259.09 226.615 262.961 227.513L263.496 225.166ZM301.356 215.652C299.34 219.841 296.964 222.704 294.337 224.62C291.712 226.535 288.772 227.551 285.557 227.95C279.051 228.758 271.559 227.036 263.496 225.166L262.961 227.513C270.899 229.354 278.844 231.212 285.859 230.341C289.404 229.901 292.745 228.764 295.754 226.569C298.76 224.377 301.368 221.176 303.521 216.704L301.356 215.652ZM237.844 198.523C252.863 219.066 265.879 228.409 276.961 230.168C288.181 231.949 297.001 225.916 303.418 216.878L301.459 215.478C295.328 224.113 287.302 229.372 277.33 227.789C267.22 226.184 254.698 217.507 239.781 197.102L237.844 198.523ZM157.938 199.312C159.77 195.424 163.989 191.132 169.843 187.451C175.671 183.787 183.006 180.802 190.92 179.455C206.714 176.767 224.741 180.598 237.844 198.523L239.781 197.102C226.037 178.301 207.019 174.271 190.511 177.08C182.275 178.482 174.645 181.585 168.562 185.409C162.506 189.217 157.868 193.814 155.765 198.279L157.938 199.312Z" fill="black"/>
<path d="M213.491 213.965C214.924 224.777 207.36 234.69 196.608 236.116C185.856 237.542 175.969 229.943 174.535 219.131C173.101 208.319 180.665 198.405 191.418 196.979C202.17 195.554 212.057 203.153 213.491 213.965Z" fill="#FFDE00" stroke="black" stroke-width="2.40582"/>
<path fill-rule="evenodd" clip-rule="evenodd" d="M217.453 253.559C215.803 252.092 214.328 250.372 213.088 248.412C205.947 237.13 209.304 222.195 220.587 215.054C231.87 207.913 246.805 211.27 253.946 222.553C259.097 230.692 258.785 240.731 253.976 248.374C256.429 250.698 259.629 252.067 264.05 251.17C269.854 249.993 274.908 242.593 280.571 234.301C287.044 224.823 294.313 214.179 304.407 210.337C313.984 206.691 326.781 205.962 338.948 208.56C345.011 209.386 350.845 211.726 356.033 214.882C361.153 217.768 365.684 221.475 369.193 226.05C365.724 221.978 361.199 218.025 356.033 214.882C350.799 211.932 344.95 209.841 338.948 208.56C324.46 206.587 308.67 213.261 297.292 238.109C278.563 279.011 228.446 268.145 217.453 253.559Z" fill="#FFDE00"/>
<path d="M217.453 253.559L218.252 252.661L218.342 252.74L218.414 252.835L217.453 253.559ZM253.976 248.374L253.149 249.248L252.433 248.569L252.958 247.734L253.976 248.374ZM264.05 251.17L263.811 249.991L263.811 249.991L264.05 251.17ZM280.571 234.301L281.564 234.98L281.564 234.98L280.571 234.301ZM304.407 210.337L304.835 211.461L304.835 211.461L304.407 210.337ZM369.193 226.05L370.148 225.318L368.277 226.83L369.193 226.05ZM297.292 238.109L296.198 237.609L296.198 237.609L297.292 238.109ZM214.104 247.769C215.284 249.632 216.685 251.267 218.252 252.661L216.653 254.458C214.92 252.917 213.372 251.111 212.072 249.056L214.104 247.769ZM221.23 216.07C210.509 222.856 207.319 237.048 214.104 247.769L212.072 249.056C204.575 237.212 208.1 221.534 219.944 214.037L221.23 216.07ZM252.929 223.196C246.144 212.475 231.951 209.285 221.23 216.07L219.944 214.037C231.788 206.541 247.466 210.066 254.962 221.909L252.929 223.196ZM252.958 247.734C257.529 240.468 257.823 230.928 252.929 223.196L254.962 221.909C260.371 230.455 260.041 240.994 254.995 249.015L252.958 247.734ZM264.289 252.349C259.441 253.333 255.853 251.809 253.149 249.248L254.804 247.501C257.006 249.587 259.817 250.802 263.811 249.991L264.289 252.349ZM281.564 234.98C278.746 239.106 276.021 243.1 273.263 246.203C270.522 249.286 267.587 251.68 264.289 252.349L263.811 249.991C266.317 249.483 268.812 247.589 271.465 244.604C274.1 241.64 276.733 237.787 279.578 233.623L281.564 234.98ZM304.835 211.461C300.039 213.287 295.85 216.755 292.026 221.01C288.201 225.266 284.81 230.228 281.564 234.98L279.578 233.623C282.806 228.896 286.286 223.797 290.237 219.401C294.189 215.004 298.682 211.229 303.979 209.212L304.835 211.461ZM338.696 209.736C326.716 207.178 314.159 207.911 304.835 211.461L303.979 209.212C313.808 205.47 326.846 204.746 339.199 207.383L338.696 209.736ZM355.408 215.91C350.332 212.821 344.653 210.551 338.785 209.752L339.11 207.368C345.368 208.22 351.359 210.63 356.658 213.854L355.408 215.91ZM368.238 226.782C364.843 222.356 360.445 218.749 355.442 215.93L356.624 213.834C361.862 216.786 366.525 220.595 370.148 225.318L368.238 226.782ZM356.658 213.854C361.936 217.065 366.558 221.102 370.109 225.27L368.277 226.83C364.89 222.853 360.463 218.985 355.408 215.91L356.658 213.854ZM339.199 207.383C345.304 208.687 351.27 210.817 356.624 213.834L355.442 215.93C350.329 213.048 344.597 210.996 338.696 209.736L339.199 207.383ZM296.198 237.609C301.956 225.035 308.882 216.944 316.312 212.259C323.756 207.565 331.615 206.347 339.11 207.368L338.785 209.752C331.793 208.799 324.513 209.932 317.595 214.294C310.664 218.665 304.006 226.336 298.385 238.61L296.198 237.609ZM218.414 252.835C220.969 256.227 225.926 259.534 232.351 261.923C238.746 264.301 246.47 265.72 254.429 265.44C270.312 264.879 287.059 257.567 296.198 237.609L298.385 238.61C288.796 259.553 271.12 267.258 254.514 267.844C246.228 268.136 238.191 266.661 231.512 264.178C224.863 261.705 219.433 258.185 216.492 254.283L218.414 252.835Z" fill="black"/>
<circle r="19.4847" transform="matrix(0.99742 -0.0717793 -0.0717793 -0.99742 250.006 228.951)" fill="#FFDE00" stroke="black" stroke-width="2.40582"/>
<path fill-rule="evenodd" clip-rule="evenodd" d="M243.8 249.316C242.413 248.082 241.172 246.635 240.13 244.988C234.125 235.5 236.948 222.941 246.436 216.935C255.924 210.93 268.483 213.754 274.488 223.242C278.82 230.086 278.558 238.528 274.514 244.956C276.577 246.91 279.268 248.061 282.986 247.307C287.866 246.317 292.117 240.094 296.879 233.121C302.322 225.151 308.435 216.2 316.923 212.969C324.977 209.903 335.738 209.29 345.969 211.475C351.068 212.169 355.975 214.137 360.337 216.791C364.643 219.218 368.453 222.336 371.404 226.183C368.486 222.758 364.682 219.434 360.337 216.791C355.936 214.311 351.017 212.552 345.969 211.475C333.787 209.815 320.508 215.428 310.94 236.324C295.19 270.719 253.044 261.581 243.8 249.316Z" fill="#FFDE00"/>
<path d="M243.8 249.316L244.6 248.417L244.689 248.497L244.761 248.592L243.8 249.316ZM274.514 244.956L273.687 245.829L272.971 245.151L273.496 244.315L274.514 244.956ZM282.986 247.307L282.747 246.128L282.747 246.128L282.986 247.307ZM296.879 233.121L297.872 233.8L297.872 233.8L296.879 233.121ZM316.923 212.969L316.495 211.845L316.923 212.969ZM371.404 226.183L372.358 225.451L370.488 226.963L371.404 226.183ZM310.94 236.324L309.846 235.823L310.94 236.324ZM241.146 244.345C242.128 245.896 243.295 247.257 244.6 248.417L243.001 250.215C241.53 248.907 240.217 247.375 239.113 245.631L241.146 244.345ZM247.079 217.952C238.153 223.602 235.496 235.418 241.146 244.345L239.113 245.631C232.753 235.582 235.743 222.279 245.793 215.919L247.079 217.952ZM273.472 223.885C267.822 214.958 256.006 212.302 247.079 217.952L245.793 215.919C255.842 209.559 269.145 212.549 275.505 222.598L273.472 223.885ZM273.496 244.315C277.302 238.265 277.547 230.323 273.472 223.885L275.505 222.598C280.094 229.849 279.814 238.791 275.532 245.597L273.496 244.315ZM283.225 248.486C279.08 249.327 276.001 248.021 273.687 245.829L275.342 244.083C277.153 245.799 279.456 246.796 282.747 246.128L283.225 248.486ZM297.872 233.8C295.504 237.267 293.205 240.637 290.876 243.257C288.564 245.857 286.061 247.911 283.225 248.486L282.747 246.128C284.791 245.714 286.854 244.16 289.078 241.658C291.284 239.177 293.491 235.948 295.885 232.443L297.872 233.8ZM317.351 214.093C313.358 215.613 309.86 218.505 306.654 222.072C303.447 225.64 300.602 229.802 297.872 233.8L295.885 232.443C298.599 228.47 301.532 224.172 304.865 220.464C308.198 216.755 312 213.556 316.495 211.845L317.351 214.093ZM345.718 212.651C335.673 210.506 325.152 211.123 317.351 214.093L316.495 211.845C324.801 208.683 335.803 208.074 346.221 210.298L345.718 212.651ZM359.712 217.819C355.461 215.232 350.71 213.334 345.807 212.667L346.132 210.283C351.426 211.004 356.488 213.041 360.962 215.763L359.712 217.819ZM370.449 226.915C367.612 223.216 363.934 220.199 359.747 217.839L360.928 215.743C365.352 218.236 369.294 221.455 372.358 225.451L370.449 226.915ZM360.962 215.763C365.418 218.475 369.321 221.883 372.32 225.403L370.488 226.963C367.652 223.634 363.945 220.394 359.712 217.819L360.962 215.763ZM346.221 210.298C351.371 211.398 356.407 213.195 360.928 215.743L359.747 217.839C355.465 215.426 350.664 213.707 345.718 212.651L346.221 210.298ZM309.846 235.823C314.699 225.225 320.545 218.388 326.832 214.424C333.134 210.45 339.789 209.419 346.132 210.283L345.807 212.667C339.967 211.871 333.891 212.817 328.116 216.459C322.326 220.109 316.749 226.526 312.033 236.825L309.846 235.823ZM244.761 248.592C246.88 251.403 251.01 254.167 256.395 256.17C261.751 258.161 268.221 259.351 274.888 259.116C288.187 258.646 302.197 252.528 309.846 235.823L312.033 236.825C303.933 254.515 288.995 261.025 274.973 261.52C267.979 261.767 261.195 260.522 255.557 258.425C249.948 256.339 245.343 253.362 242.84 250.04L244.761 248.592Z" fill="black"/>
<circle r="16.194" transform="matrix(0.99742 -0.0717793 -0.0717793 -0.99742 271.176 228.622)" fill="#FFDE00" stroke="black" stroke-width="2.40582"/>
<path fill-rule="evenodd" clip-rule="evenodd" d="M371.098 224.041C372.223 225.182 373.21 226.498 374.015 227.975C378.653 236.483 375.515 247.141 367.007 251.778C358.499 256.416 347.842 253.278 343.204 244.77C339.858 238.632 340.559 231.376 344.403 226.069C342.736 224.269 340.484 223.126 337.239 223.567C332.403 224.223 327.515 229.88 322.096 236.151C317.287 241.716 312.06 247.764 306.082 251.229C277.416 267.844 246.611 275.267 232.799 264.434C246.508 271.797 295.269 263.491 312.548 231.453C328.046 202.718 363.828 212.958 371.098 224.041Z" fill="#FFDE00"/>
<path d="M371.098 224.041L370.241 224.886L370.158 224.801L370.092 224.701L371.098 224.041ZM344.403 226.069L345.285 225.251L345.956 225.975L345.377 226.774L344.403 226.069ZM337.239 223.567L337.077 222.375L337.077 222.375L337.239 223.567ZM322.096 236.151L321.186 235.364L321.186 235.364L322.096 236.151ZM306.082 251.229L305.479 250.188L305.479 250.188L306.082 251.229ZM232.799 264.434L232.057 265.381L233.369 263.375L232.799 264.434ZM312.548 231.453L311.49 230.882L311.49 230.882L312.548 231.453ZM372.959 228.551C372.208 227.173 371.289 225.948 370.241 224.886L371.954 223.196C373.158 224.416 374.212 225.822 375.072 227.399L372.959 228.551ZM366.431 250.722C374.356 246.402 377.279 236.476 372.959 228.551L375.072 227.399C380.027 236.491 376.674 247.879 367.583 252.834L366.431 250.722ZM344.26 244.194C348.58 252.119 358.506 255.042 366.431 250.722L367.583 252.834C358.491 257.79 347.103 254.437 342.148 245.346L344.26 244.194ZM345.377 226.774C341.795 231.721 341.145 238.479 344.26 244.194L342.148 245.346C338.572 238.786 339.323 231.032 343.429 225.363L345.377 226.774ZM337.077 222.375C340.754 221.876 343.384 223.198 345.285 225.251L343.52 226.886C342.089 225.34 340.213 224.377 337.401 224.759L337.077 222.375ZM321.186 235.364C323.882 232.245 326.508 229.203 329.076 226.864C331.624 224.544 334.283 222.754 337.077 222.375L337.401 224.759C335.359 225.036 333.157 226.402 330.696 228.643C328.256 230.865 325.729 233.786 323.006 236.937L321.186 235.364ZM305.479 250.188C311.248 246.845 316.341 240.97 321.186 235.364L323.006 236.937C318.232 242.462 312.872 248.684 306.685 252.27L305.479 250.188ZM233.542 263.488C240.019 268.568 250.718 269.504 263.636 266.944C276.486 264.398 291.229 258.448 305.479 250.188L306.685 252.27C292.269 260.625 277.277 266.694 264.104 269.304C251 271.901 239.391 271.133 232.057 265.381L233.542 263.488ZM313.607 232.024C304.766 248.416 287.934 258.649 271.703 263.864C263.574 266.476 255.544 267.846 248.657 268.095C241.816 268.341 235.94 267.486 232.23 265.494L233.369 263.375C236.514 265.064 241.873 265.932 248.57 265.69C255.221 265.451 263.033 264.123 270.967 261.574C286.864 256.466 303.051 246.528 311.49 230.882L313.607 232.024ZM370.092 224.701C368.45 222.197 365.08 219.601 360.57 217.581C356.089 215.573 350.605 214.19 344.873 214.018C333.443 213.675 321.099 218.133 313.607 232.024L311.49 230.882C319.496 216.038 332.791 211.249 344.945 211.613C351.004 211.795 356.797 213.254 361.554 215.385C366.282 217.504 370.111 220.343 372.104 223.381L370.092 224.701Z" fill="black"/>
<circle r="13.8107" transform="matrix(-0.999978 0.00662419 0.00662419 0.999978 344.655 233.196)" fill="#FFDE00" stroke="black" stroke-width="2.40582"/>
<path d="M150.5 275.029C150.5 193.015 216.985 126.529 299 126.529C381.014 126.529 447.5 193.015 447.5 275.029C447.5 295.539 443.344 311.228 435.935 323.254C428.532 335.271 417.807 343.752 404.453 349.726C377.645 361.72 340.466 363.529 299 363.529C257.534 363.529 220.354 361.72 193.546 349.726C180.193 343.751 169.468 335.271 162.065 323.254C154.656 311.228 150.5 295.539 150.5 275.029Z" fill="#E30613" stroke="#1B1A1A" stroke-width="3"/>
<path d="M213.09 418.49H382.688L467.488 271.563H128.29L213.09 418.49Z" fill="#009FE3" stroke="#1B1A1A" stroke-width="3" stroke-miterlimit="10"/>
<path d="M475.681 271.563H379.326L366.259 294.19L388.682 333.042H466.315L488.738 294.19L475.681 271.563Z" fill="#009FE3" stroke="#1B1A1A" stroke-width="3" stroke-miterlimit="10"/>
<path d="M352.611 440.054H397.457L419.88 401.206L392.725 354.154L352.611 362.354L330.188 401.206L352.611 440.054Z" fill="#009FE3" stroke="#1B1A1A" stroke-width="3" stroke-miterlimit="10"/>
<path d="M214.846 440.054H259.692L282.111 401.206L259.692 362.354H214.846L192.423 401.206L214.846 440.054Z" fill="#009FE3" stroke="#1B1A1A" stroke-width="3" stroke-miterlimit="10"/>
<path d="M291.479 457.029H336.325L408.738 333.407L316.849 336.589L269.056 418.181L291.479 457.029Z" fill="#009FE3" stroke="#1B1A1A" stroke-width="3" stroke-miterlimit="10"/>
<path d="M288.169 387.919H362.334L404.043 315.65L369.347 271.565H281.167L251.086 323.671L288.169 387.919Z" fill="#009FE3" stroke="#1B1A1A" stroke-width="3" stroke-miterlimit="10"/>
<path d="M240.381 413.224H285.223L319.883 353.17L285.223 335.524H240.381L217.958 374.373L240.381 413.224Z" fill="#009FE3" stroke="#1B1A1A" stroke-width="3" stroke-miterlimit="10"/>
<path d="M235.647 355.648H335.135L357.558 316.8L335.135 277.949H235.647L213.224 316.8L235.647 355.648Z" fill="#009FE3" stroke="#1B1A1A" stroke-width="3" stroke-miterlimit="10"/>
<path d="M162.165 366.446H222.274L239.635 336.014L222.274 305.585H162.165L144.805 336.014L162.165 366.446Z" fill="#009FE3" stroke="#1B1A1A" stroke-width="2.541" stroke-miterlimit="10"/>
<path d="M338.873 317.283H419.203L445.593 271.562H312.49L338.873 317.283Z" fill="#009FE3" stroke="#1B1A1A" stroke-width="2.541" stroke-miterlimit="10"/>
<path d="M293.417 282.938H126.405L158.86 227.739H251.985L293.417 282.938Z" fill="#009FE3" stroke="#1B1A1A" stroke-width="3" stroke-miterlimit="10"/>
<path d="M442.66 234.815H378.756L348.616 271.615H473.168L442.66 234.815Z" fill="#009FE3" stroke="#1B1A1A" stroke-width="3" stroke-miterlimit="10"/>
<path d="M128.777 314.075H229.298L242.465 271.903L115.082 270.199L128.777 314.075Z" fill="#009FE3" stroke="#1B1A1A" stroke-width="3" stroke-miterlimit="10"/>
<path d="M466.393 396.259L483.55 365.021L468.656 345.096L443.853 343.217L426.695 374.455L441.588 394.378L466.393 396.259Z" fill="#009FE3" stroke="#1B1A1A" stroke-width="2.541" stroke-miterlimit="10"/>
<path d="M251.544 288.163L302.746 215.254L348.891 216.218L365.457 259.294L314.255 332.203L268.114 331.241L251.544 288.163Z" fill="#009FE3" stroke="#1B1A1A" stroke-width="2.541" stroke-miterlimit="10"/>
<path d="M318.859 130.834L318.859 169.863C314.183 173.584 309.966 175.425 307.199 175.425C304.435 175.425 300.214 173.584 295.539 169.863L295.539 130.834C279.026 126.422 267 112.901 267 96.8895L267 82.9257C267 102.517 284.998 118.4 307.199 118.4C329.4 118.4 347.398 102.517 347.398 82.9257L347.398 96.8896C347.398 112.901 335.372 126.422 318.859 130.834Z" fill="#009FE3" stroke="#1B1A1A" stroke-width="3" stroke-miterlimit="10"/>
<path d="M267.003 84.3903C267.003 82.1988 268.748 80.1359 271.821 78.3363C269.739 75.6527 268.996 73.1634 269.924 71.1318C270.89 69.0187 273.551 67.6581 277.398 67.0342C276.546 63.6639 276.922 60.974 278.748 59.3625C280.504 57.8138 283.392 57.4438 287.005 58.0866C287.684 54.8887 289.151 52.6659 291.439 51.81C293.816 50.9196 296.786 51.6156 300.008 53.5782C302.104 50.6626 304.531 48.9978 307.113 48.9978C309.597 48.9978 311.934 50.5372 313.974 53.2491C317.015 51.4119 319.836 50.7566 322.138 51.5749C324.532 52.4276 326.074 54.7759 326.781 58.1712C330.6 57.4188 333.649 57.7511 335.475 59.3626C337.23 60.9113 337.649 63.4602 336.921 66.6486C340.544 67.2474 343.063 68.5422 344.033 70.5612C345.042 72.6586 344.253 75.2796 342.029 78.1232C345.333 79.9729 347.22 82.1142 347.22 84.3934C347.22 86.5849 345.476 88.6478 342.402 90.4474C344.484 93.131 345.227 95.6203 344.3 97.6519C343.333 99.765 340.672 101.126 336.825 101.749C337.677 105.12 337.301 107.81 335.475 109.421C333.72 110.97 330.831 111.34 327.218 110.697C326.54 113.895 325.072 116.118 322.784 116.974C320.408 117.864 317.438 117.168 314.215 115.205C312.119 118.121 309.693 119.786 307.11 119.786C304.626 119.786 302.289 118.247 300.25 115.535C297.208 117.372 294.388 118.027 292.085 117.209C289.691 116.356 288.149 114.008 287.442 110.613C283.623 111.365 280.575 111.033 278.748 109.421C276.993 107.872 276.574 105.324 277.303 102.135C273.679 101.536 271.16 100.241 270.19 98.2225C269.181 96.1251 269.97 93.5041 272.194 90.6605C268.89 88.8077 267.003 86.6695 267.003 84.3903Z" fill="#FFDE00" stroke="#1B1A1A" stroke-width="3" stroke-miterlimit="10"/>
<path d="M440.58 174.979H390.033V234.916H440.58V174.979Z" fill="#FFDE00" stroke="#1B1A1A" stroke-width="3" stroke-miterlimit="10"/>
<path d="M418.663 181.277H412.244C409.634 181.277 407.222 182.67 405.917 184.931L402.707 190.493C401.402 192.753 401.402 195.539 402.707 197.8L405.917 203.361C407.222 205.622 409.634 207.015 412.244 207.015H418.663C421.273 207.015 423.685 205.622 424.99 203.361L428.2 197.8C429.504 195.539 429.504 192.753 428.2 190.493L424.99 184.931C423.685 182.67 421.273 181.277 418.663 181.277Z" fill="#E30613" stroke="#1B1A1A" stroke-width="3" stroke-miterlimit="10"/>
<path d="M415.453 101C415.453 133.942 372 120.713 372 146.901C372 164.451 390.033 160.015 390.033 174.979H440.873C440.873 160.015 458.906 164.451 458.906 146.901C458.906 120.713 415.453 133.942 415.453 101Z" fill="#E30613" stroke="#1B1A1A" stroke-width="3" stroke-miterlimit="10"/>
<path d="M223.58 167.979H173.033V227.916H223.58V167.979Z" fill="#FFDE00" stroke="#1B1A1A" stroke-width="3" stroke-miterlimit="10"/>
<path d="M201.663 174.277H195.244C192.634 174.277 190.222 175.67 188.917 177.931L185.707 183.493C184.402 185.753 184.402 188.539 185.707 190.8L188.917 196.361C190.222 198.622 192.634 200.015 195.244 200.015H201.663C204.273 200.015 206.685 198.622 207.99 196.361L211.2 190.8C212.504 188.539 212.504 185.753 211.2 183.493L207.99 177.931C206.685 175.67 204.273 174.277 201.663 174.277Z" fill="#E30613" stroke="#1B1A1A" stroke-width="3" stroke-miterlimit="10"/>
<path d="M198.453 94C198.453 126.942 155 113.713 155 139.901C155 157.451 173.033 153.015 173.033 167.979H223.873C223.873 153.015 241.906 157.451 241.906 139.901C241.906 113.713 198.453 126.942 198.453 94Z" fill="#E30613" stroke="#1B1A1A" stroke-width="3" stroke-miterlimit="10"/>
</svg>
