<svg width="380" height="392" viewBox="0 0 380 392" fill="none" xmlns="http://www.w3.org/2000/svg">
<rect x="167.061" y="31.5774" width="44.8366" height="173.003" rx="22.4183" fill="#E30613" stroke="#1B1A1A" stroke-width="3"/>
<rect x="242.878" y="55.947" width="32.5708" height="127.874" rx="16.2854" fill="#E30613" stroke="#1B1A1A" stroke-width="3"/>
<rect x="107.491" y="55.947" width="32.5708" height="127.874" rx="16.2854" fill="#E30613" stroke="#1B1A1A" stroke-width="3"/>
<path d="M138.33 74.8614C135.949 52.4134 156.026 20.1285 169.854 6.10138C174.458 5.3831 182.308 5.5532 176.881 11.9798C170.097 20.0131 153.101 45.6365 151.852 68.4464C149.64 108.855 177.738 109.226 191.873 123.573C212.677 144.689 191.207 183.347 176.608 203.462C171.753 194.041 198.105 162.697 191.298 141.851C183.729 118.672 143.044 119.312 138.33 74.8614Z" fill="#E30613" stroke="#1B1A1A" stroke-width="3"/>
<path d="M241.578 74.8614C243.958 52.4134 223.881 20.1285 210.053 6.10138C205.45 5.3831 197.6 5.5532 203.026 11.9798C209.81 20.0131 226.807 45.6365 228.055 68.4464C230.267 108.855 202.17 109.226 188.034 123.573C167.23 144.689 188.7 183.347 203.3 203.462C208.154 194.041 181.802 162.697 188.609 141.851C196.178 118.672 236.864 119.312 241.578 74.8614Z" fill="#E30613" stroke="#1B1A1A" stroke-width="3"/>
<path d="M217.208 137.017C219.589 159.465 199.511 191.75 185.683 205.777C181.08 206.496 173.23 206.325 178.657 199.899C185.44 191.866 202.437 166.242 203.686 143.432C205.897 103.024 177.8 102.653 163.665 88.3055C142.86 67.1899 164.331 28.532 178.93 8.41651C183.785 17.8375 157.432 49.1812 164.24 70.0279C171.809 93.2066 212.494 92.5668 217.208 137.017Z" fill="#E30613" stroke="#1B1A1A" stroke-width="3"/>
<path d="M162.532 137.017C160.151 159.465 180.228 191.75 194.056 205.777C198.66 206.496 206.51 206.325 201.083 199.899C194.299 191.866 177.303 166.242 176.054 143.432C173.843 103.024 201.94 102.653 216.075 88.3055C236.879 67.1899 215.409 28.532 200.81 8.41651C195.955 17.8375 222.308 49.1812 215.5 70.0279C207.931 93.2066 167.246 92.5668 162.532 137.017Z" fill="#E30613" stroke="#1B1A1A" stroke-width="3"/>
<path d="M56.633 160.049C56.9187 191.521 77.1503 251.247 155.791 238.373L56.633 160.049Z" fill="#E30613" stroke="#1B1A1A" stroke-width="3"/>
<path d="M44.5751 73.0322C36.7782 126.032 55.0921 231.79 190.724 230.824L44.5751 73.0322Z" fill="#E30613" stroke="#1B1A1A" stroke-width="3"/>
<path d="M68.3295 37.7039C58.361 105.465 81.7756 240.677 255.182 239.443L68.3295 37.7039Z" fill="#E30613" stroke="#1B1A1A" stroke-width="3"/>
<path d="M323.387 160.049C323.101 191.521 302.87 251.247 224.229 238.373L323.387 160.049Z" fill="#E30613" stroke="#1B1A1A" stroke-width="3"/>
<path d="M335.024 71.4731C343.389 124.386 326.21 230.335 190.576 230.824L335.024 71.4731Z" fill="#E30613" stroke="#1B1A1A" stroke-width="3"/>
<path d="M192.639 168.675C222.429 158.519 272.778 120.553 235.857 49.9344L192.639 168.675Z" fill="#E30613" stroke="#1B1A1A" stroke-width="3"/>
<path d="M144.648 49.9346C128.355 76.8629 114.19 138.311 187.866 168.675L144.648 49.9346Z" fill="#E30613" stroke="#1B1A1A" stroke-width="3"/>
<path d="M312.073 36.3955C322.768 104.045 300.805 239.501 127.396 240.127L312.073 36.3955Z" fill="#E30613" stroke="#1B1A1A" stroke-width="3"/>
<path fill-rule="evenodd" clip-rule="evenodd" d="M187.739 242.141C162.749 241.347 116.504 229.86 100.026 208.443C80.4098 182.946 86.8872 160.893 92.5422 141.639C96.2935 128.867 99.6829 117.327 94.8529 106.832C88.626 93.3019 69.1354 85.705 52.98 79.408C40.8753 74.6899 30.6429 70.7015 29.2651 65.4941C60.084 70.9329 112.992 86.7995 110.681 122.205C110.246 128.869 107.887 135.484 105.466 142.272C99.1475 159.986 92.4097 178.878 118.361 202.889C138.623 221.638 176.345 229.881 189.567 231.27C189.752 231.289 189.932 231.311 190.106 231.333C203.489 229.89 241.682 221.556 261.856 202.89C287.807 178.878 281.069 159.987 274.751 142.273C272.33 135.485 269.97 128.87 269.535 122.205C267.225 86.8002 320.133 70.9336 350.951 65.4949C349.574 70.7023 339.341 74.6906 327.237 79.4087C311.081 85.7057 291.59 93.3026 285.364 106.833C280.534 117.328 283.923 128.868 287.674 141.64C293.329 160.893 299.807 182.947 280.191 208.443C263.713 229.861 213.116 241.388 188.126 242.183C188.051 242.136 187.976 242.087 187.901 242.038C187.847 242.073 187.793 242.107 187.739 242.141Z" fill="#E30613"/>
<path d="M100.026 208.443L101.215 207.528L100.026 208.443ZM187.739 242.141L187.691 243.641L188.15 243.655L188.539 243.41L187.739 242.141ZM92.5422 141.639L93.9814 142.062L92.5422 141.639ZM94.8529 106.832L96.2155 106.205L94.8529 106.832ZM52.98 79.408L52.4352 80.8056L52.98 79.408ZM29.2651 65.4941L29.5258 64.017L27.2147 63.6091L27.815 65.8778L29.2651 65.4941ZM110.681 122.205L112.178 122.302L110.681 122.205ZM105.466 142.272L104.053 141.768L105.466 142.272ZM118.361 202.889L117.342 203.99L118.361 202.889ZM189.567 231.27L189.41 232.762L189.567 231.27ZM190.106 231.333L189.912 232.821L190.089 232.844L190.267 232.825L190.106 231.333ZM261.856 202.89L260.837 201.789L261.856 202.89ZM274.751 142.273L276.164 141.769L274.751 142.273ZM269.535 122.205L268.039 122.303V122.303L269.535 122.205ZM350.951 65.4949L352.402 65.8785L353.002 63.6098L350.691 64.0177L350.951 65.4949ZM327.237 79.4087L326.692 78.0111L327.237 79.4087ZM285.364 106.833L284.001 106.206V106.206L285.364 106.833ZM287.674 141.64L286.235 142.062V142.062L287.674 141.64ZM280.191 208.443L281.379 209.358L280.191 208.443ZM188.126 242.183L187.326 243.452L187.715 243.697L188.174 243.682L188.126 242.183ZM187.901 242.038L188.723 240.784L187.912 240.252L187.094 240.774L187.901 242.038ZM98.837 209.357C107.357 220.432 123.397 228.775 140.211 234.447C157.081 240.137 175.035 243.238 187.691 243.641L187.787 240.642C175.453 240.25 157.789 237.21 141.17 231.604C124.495 225.98 109.173 217.871 101.215 207.528L98.837 209.357ZM91.103 141.216C88.2841 150.814 85.1788 161.351 85.3075 172.717C85.4369 184.149 88.8307 196.352 98.837 209.357L101.215 207.528C91.6049 195.038 88.4294 183.465 88.3073 172.683C88.1844 161.834 91.1453 151.718 93.9814 142.062L91.103 141.216ZM93.4903 107.459C95.7528 112.375 96.1176 117.581 95.4268 123.198C94.7321 128.847 92.9871 134.802 91.103 141.216L93.9814 142.062C95.8487 135.704 97.674 129.503 98.4044 123.565C99.1385 117.595 98.7831 111.784 96.2155 106.205L93.4903 107.459ZM52.4352 80.8056C60.534 83.9623 69.3387 87.3972 76.8961 91.7103C84.4732 96.0347 90.5732 101.121 93.4903 107.459L96.2155 106.205C92.9057 99.0132 86.147 93.5357 78.3832 89.1048C70.5997 84.6627 61.5814 81.1507 53.5247 78.0104L52.4352 80.8056ZM27.815 65.8778C28.2647 67.5775 29.3979 69.0435 30.8592 70.3281C32.3268 71.6184 34.2288 72.8163 36.4002 73.9614C40.7357 76.2477 46.4106 78.4573 52.4352 80.8056L53.5247 78.0104C47.4446 75.6405 41.951 73.4969 37.7996 71.3077C35.7276 70.2151 34.0567 69.1446 32.8399 68.075C31.6169 66.9998 30.9544 66.0144 30.7152 65.1105L27.815 65.8778ZM112.178 122.302C113.393 103.688 100.047 90.4435 83.1097 81.2923C66.1143 72.1095 45.0018 66.7481 29.5258 64.017L29.0044 66.9713C44.3472 69.6789 65.098 74.9702 81.6836 83.9317C98.3276 92.9247 110.28 105.316 109.184 122.107L112.178 122.302ZM106.878 142.776C109.284 136.031 111.727 129.213 112.178 122.302L109.184 122.107C108.765 128.524 106.489 134.937 104.053 141.768L106.878 142.776ZM119.379 201.788C106.61 189.973 102.042 179.578 101.308 170.103C100.567 160.534 103.702 151.681 106.878 142.776L104.053 141.768C100.911 150.577 97.5185 160.027 98.3167 170.335C99.1223 180.737 104.16 191.794 117.342 203.99L119.379 201.788ZM189.723 229.778C183.227 229.096 170.599 226.713 157.082 222.168C143.545 217.616 129.282 210.951 119.379 201.788L117.342 203.99C127.701 213.576 142.431 220.407 156.126 225.011C169.841 229.623 182.684 232.055 189.41 232.762L189.723 229.778ZM190.3 229.846C190.113 229.821 189.921 229.799 189.723 229.778L189.41 232.762C189.583 232.78 189.75 232.8 189.912 232.821L190.3 229.846ZM190.267 232.825C197.07 232.091 210.07 229.623 223.91 224.993C237.729 220.37 252.557 213.538 262.875 203.991L260.837 201.789C250.981 210.909 236.626 217.576 222.959 222.148C209.314 226.712 196.525 229.132 189.945 229.842L190.267 232.825ZM262.875 203.991C276.056 191.795 281.094 180.738 281.9 170.336C282.698 160.028 279.306 150.578 276.164 141.769L273.338 142.777C276.514 151.682 279.65 160.535 278.909 170.104C278.175 179.579 273.607 189.974 260.837 201.789L262.875 203.991ZM276.164 141.769C273.727 134.938 271.451 128.525 271.032 122.108L268.039 122.303C268.49 129.214 270.932 136.032 273.338 142.777L276.164 141.769ZM271.032 122.108C269.936 105.317 281.889 92.9254 298.533 83.9324C315.118 74.971 335.869 69.6797 351.212 66.972L350.691 64.0177C335.215 66.7488 314.102 72.1102 297.107 81.293C280.17 90.4443 266.824 103.688 268.039 122.303L271.032 122.108ZM349.501 65.1112C349.262 66.0152 348.6 67.0005 347.377 68.0757C346.16 69.1453 344.489 70.2158 342.417 71.3085C338.266 73.4977 332.772 75.6412 326.692 78.0111L327.781 80.8063C333.806 78.458 339.481 76.2484 343.816 73.9621C345.988 72.817 347.89 71.6191 349.357 70.3289C350.819 69.0442 351.952 67.5783 352.402 65.8785L349.501 65.1112ZM326.692 78.0111C318.635 81.1514 309.617 84.6634 301.833 89.1055C294.07 93.5364 287.311 99.0139 284.001 106.206L286.726 107.46C289.643 101.121 295.743 96.0354 303.32 91.7111C310.878 87.3979 319.682 83.963 327.781 80.8063L326.692 78.0111ZM284.001 106.206C281.433 111.785 281.078 117.596 281.812 123.565C282.542 129.504 284.368 135.705 286.235 142.062L289.113 141.217C287.229 134.802 285.484 128.848 284.79 123.199C284.099 117.582 284.464 112.376 286.726 107.46L284.001 106.206ZM286.235 142.062C289.071 151.718 292.032 161.835 291.909 172.684C291.787 183.466 288.612 195.038 279.002 207.529L281.379 209.358C291.386 196.352 294.78 184.15 294.909 172.718C295.038 161.352 291.932 150.815 289.113 141.217L286.235 142.062ZM279.002 207.529C271.063 217.847 254.689 225.971 236.897 231.617C219.18 237.239 200.42 240.291 188.078 240.684L188.174 243.682C200.822 243.28 219.856 240.172 237.804 234.477C255.677 228.805 272.84 220.457 281.379 209.358L279.002 207.529ZM188.926 240.914C188.858 240.871 188.791 240.828 188.723 240.784L187.079 243.293C187.161 243.347 187.244 243.4 187.326 243.452L188.926 240.914ZM188.539 243.41C188.595 243.375 188.652 243.339 188.708 243.303L187.094 240.774C187.042 240.807 186.99 240.84 186.939 240.872L188.539 243.41Z" fill="#1B1A1A"/>
<path d="M76.2973 252.183C88.4102 252.183 98.2297 242.382 98.2297 230.292C98.2297 218.202 88.4102 208.4 76.2973 208.4C64.1843 208.4 54.3649 218.202 54.3649 230.292C54.3649 242.382 64.1843 252.183 76.2973 252.183Z" fill="#009FE3" stroke="#1B1A1A" stroke-width="3" stroke-miterlimit="10"/>
<path d="M63.336 226.352C75.4489 226.352 85.2684 216.551 85.2684 204.461C85.2684 192.37 75.4489 182.569 63.336 182.569C51.223 182.569 41.4036 192.37 41.4036 204.461C41.4036 216.551 51.223 226.352 63.336 226.352Z" fill="#009FE3" stroke="#1B1A1A" stroke-width="3" stroke-miterlimit="10"/>
<path d="M137.613 336.64C154.112 336.64 167.488 323.289 167.488 306.82C167.488 290.352 154.112 277.001 137.613 277.001C121.113 277.001 107.738 290.352 107.738 306.82C107.738 323.289 121.113 336.64 137.613 336.64Z" fill="#009FE3" stroke="#1B1A1A" stroke-width="3" stroke-miterlimit="10"/>
<path d="M105.944 329.994C134.617 329.994 157.86 306.794 157.86 278.175C157.86 249.556 134.617 226.355 105.944 226.355C77.2716 226.355 54.028 249.556 54.028 278.175C54.028 306.794 77.2716 329.994 105.944 329.994Z" fill="#009FE3" stroke="#1B1A1A" stroke-width="3" stroke-miterlimit="10"/>
<path d="M174.367 343.511C194.668 343.511 211.125 327.085 211.125 306.822C211.125 286.559 194.668 270.133 174.367 270.133C154.067 270.133 137.61 286.559 137.61 306.822C137.61 327.085 154.067 343.511 174.367 343.511Z" fill="#009FE3" stroke="#1B1A1A" stroke-width="3" stroke-miterlimit="10"/>
<path d="M109.749 255.389C130.882 255.389 148.014 238.288 148.014 217.194C148.014 196.1 130.882 179 109.749 179C88.6152 179 71.4831 196.1 71.4831 217.194C71.4831 238.288 88.6152 255.389 109.749 255.389Z" fill="#009FE3" stroke="#1B1A1A" stroke-width="3" stroke-miterlimit="10"/>
<path d="M311.99 264.55C329.669 264.55 344 250.245 344 232.599C344 214.954 329.669 200.649 311.99 200.649C294.311 200.649 279.98 214.954 279.98 232.599C279.98 250.245 294.311 264.55 311.99 264.55Z" fill="#009FE3" stroke="#1B1A1A" stroke-width="2.5095" stroke-miterlimit="10"/>
<path d="M209.444 373.327C225.943 373.327 239.319 359.976 239.319 343.508C239.319 327.039 225.943 313.688 209.444 313.688C192.944 313.688 179.569 327.039 179.569 343.508C179.569 359.976 192.944 373.327 209.444 373.327Z" fill="#009FE3" stroke="#1B1A1A" stroke-width="3" stroke-miterlimit="10"/>
<path d="M129.67 390.419C141.783 390.419 151.603 380.618 151.603 368.528C151.603 356.438 141.783 346.636 129.67 346.636C117.558 346.636 107.738 356.438 107.738 368.528C107.738 380.618 117.558 390.419 129.67 390.419Z" fill="#009FE3" stroke="#1B1A1A" stroke-width="3" stroke-miterlimit="10"/>
<path d="M317.618 310.896C324.673 310.896 330.391 305.188 330.391 298.147C330.391 291.105 324.673 285.397 317.618 285.397C310.563 285.397 304.845 291.105 304.845 298.147C304.845 305.188 310.563 310.896 317.618 310.896Z" fill="#009FE3" stroke="#1B1A1A" stroke-width="1.7471" stroke-miterlimit="10"/>
<path d="M263.342 376.05C270.396 376.05 276.115 370.342 276.115 363.3C276.115 356.259 270.396 350.551 263.342 350.551C256.287 350.551 250.568 356.259 250.568 363.3C250.568 370.342 256.287 376.05 263.342 376.05Z" fill="#009FE3" stroke="#1B1A1A" stroke-width="1.7471" stroke-miterlimit="10"/>
<path d="M33.7734 268.141C40.8279 268.141 46.5467 262.433 46.5467 255.392C46.5467 248.35 40.8279 242.642 33.7734 242.642C26.7188 242.642 21 248.35 21 255.392C21 262.433 26.7188 268.141 33.7734 268.141Z" fill="#009FE3" stroke="#1B1A1A" stroke-width="1.7471" stroke-miterlimit="10"/>
<path d="M292.919 286.442C305.032 286.442 314.851 276.641 314.851 264.551C314.851 252.461 305.032 242.659 292.919 242.659C280.806 242.659 270.986 252.461 270.986 264.551C270.986 276.641 280.806 286.442 292.919 286.442Z" fill="#009FE3" stroke="#1B1A1A" stroke-width="3" stroke-miterlimit="10"/>
<path d="M279.979 346.638C289.187 346.638 296.651 339.187 296.651 329.996C296.651 320.805 289.187 313.354 279.979 313.354C270.771 313.354 263.306 320.805 263.306 329.996C263.306 339.187 270.771 346.638 279.979 346.638Z" fill="#009FE3" stroke="#1B1A1A" stroke-width="3" stroke-miterlimit="10"/>
<path d="M279.979 327.54C289.187 327.54 296.651 320.089 296.651 310.898C296.651 301.707 289.187 294.257 279.979 294.257C270.771 294.257 263.306 301.707 263.306 310.898C263.306 320.089 270.771 327.54 279.979 327.54Z" fill="#009FE3" stroke="#1B1A1A" stroke-width="3" stroke-miterlimit="10"/>
<path d="M263.341 344.177C272.549 344.177 280.014 336.727 280.014 327.536C280.014 318.345 272.549 310.895 263.341 310.895C254.133 310.895 246.668 318.345 246.668 327.536C246.668 336.727 254.133 344.177 263.341 344.177Z" fill="#009FE3" stroke="#1B1A1A" stroke-width="3" stroke-miterlimit="10"/>
<path d="M235.513 331.779C265.793 331.779 290.34 307.279 290.34 277.055C290.34 246.832 265.793 222.332 235.513 222.332C205.234 222.332 180.687 246.832 180.687 277.055C180.687 307.279 205.234 331.779 235.513 331.779Z" fill="#009FE3" stroke="#1B1A1A" stroke-width="3" stroke-miterlimit="10"/>
<path d="M186.73 289.021C215.774 289.021 239.319 265.52 239.319 236.53C239.319 207.541 215.774 184.04 186.73 184.04C157.687 184.04 134.142 207.541 134.142 236.53C134.142 265.52 157.687 289.021 186.73 289.021Z" fill="#009FE3" stroke="#1B1A1A" stroke-width="3" stroke-miterlimit="10"/>
<path d="M266.848 267.432C289.578 267.432 308.004 249.04 308.004 226.352C308.004 203.665 289.578 185.273 266.848 185.273C244.118 185.273 225.691 203.665 225.691 226.352C225.691 249.04 244.118 267.432 266.848 267.432Z" fill="#009FE3" stroke="#1B1A1A" stroke-width="3" stroke-miterlimit="10"/>
<path d="M231.376 274.078C243.489 274.078 253.308 264.277 253.308 252.187C253.308 240.096 243.489 230.295 231.376 230.295C219.263 230.295 209.444 240.096 209.444 252.187C209.444 264.277 219.263 274.078 231.376 274.078Z" fill="#009FE3" stroke="#1B1A1A" stroke-width="3" stroke-miterlimit="10"/>
<path d="M105.944 323.817C118.057 323.817 127.876 314.015 127.876 301.925C127.876 289.835 118.057 280.034 105.944 280.034C93.8306 280.034 84.0112 289.835 84.0112 301.925C84.0112 314.015 93.8306 323.817 105.944 323.817Z" fill="#009FE3" stroke="#1B1A1A" stroke-width="3" stroke-miterlimit="10"/>
<path d="M200.37 61.7898C200.37 44.2325 195.586 29.9996 189.685 29.9996C183.784 29.9996 179 44.2325 179 61.7898C179 79.3471 183.784 93.5801 189.685 93.5801C195.586 93.5801 200.37 79.3471 200.37 61.7898Z" fill="#FFFBF1" stroke="#1B1A1A" stroke-width="3" stroke-miterlimit="10"/>
<path d="M199.525 61.7754C199.525 56.0079 195.191 51.3325 189.844 51.3325C184.497 51.3325 180.162 56.0079 180.162 61.7754C180.162 67.5428 184.497 72.2183 189.844 72.2183C195.191 72.2183 199.525 67.5428 199.525 61.7754Z" fill="#1B1A1A" stroke="#1B1A1A" stroke-width="3" stroke-miterlimit="10"/>
</svg>
