<svg width="380" height="633" viewBox="0 0 380 633" fill="none" xmlns="http://www.w3.org/2000/svg">
<rect x="205.056" y="264.305" width="28.14" height="215.31" transform="rotate(180 205.056 264.305)" fill="#E30613" stroke="#1B1A1A" stroke-width="2.5"/>
<path d="M197.648 219.261L197.648 148.989" stroke="#1B1A1A" stroke-width="2.5"/>
<path d="M197.648 141.664L197.648 71.3914" stroke="#1B1A1A" stroke-width="2.5"/>
<path d="M182.993 252.899L182.993 182.627" stroke="#1B1A1A" stroke-width="2.5"/>
<path d="M131.329 73.7468C126.741 74.1735 123.444 79.0813 123.869 83.6559C124.294 88.2305 128.361 91.5952 132.949 91.1686C136.265 90.8602 138.935 88.6546 140.007 85.735C141.598 88.4113 144.634 90.082 147.945 89.774C149.059 89.6705 150.097 89.3508 151.033 88.8645C154.99 97.2527 163.906 102.682 173.696 101.771C183.874 100.825 191.859 93.3179 193.839 83.8325C196.672 87.3548 201.17 89.4389 206.023 88.9877C211.186 88.5075 215.427 85.276 217.438 80.8827C218.798 81.576 220.362 81.9113 221.996 81.7593C224.885 81.4907 227.296 79.7814 228.574 77.4092C228.494 78.2622 228.485 79.1386 228.567 80.0237C229.279 87.675 236.078 93.3008 243.751 92.5873C248.48 92.1476 252.439 89.4016 254.613 85.5681C256.05 86.3874 257.745 86.7964 259.52 86.6313C264.108 86.2047 267.484 82.1479 267.059 77.5733C267.052 77.4967 267.036 77.4209 267.025 77.3447C267.801 77.5 268.615 77.5488 269.443 77.4718C274.031 77.0452 277.407 72.9884 276.982 68.4139C276.556 63.8393 272.49 60.4746 267.902 60.9012" fill="#E30613"/>
<path d="M131.329 73.7468C126.741 74.1735 123.444 79.0813 123.869 83.6559C124.294 88.2305 128.361 91.5952 132.949 91.1686C136.265 90.8602 138.935 88.6546 140.007 85.735C141.598 88.4113 144.634 90.082 147.945 89.774C149.059 89.6705 150.097 89.3508 151.033 88.8645C154.99 97.2527 163.906 102.682 173.696 101.771C183.874 100.825 191.859 93.3179 193.839 83.8325C196.672 87.3548 201.17 89.4389 206.023 88.9877C211.186 88.5075 215.427 85.276 217.438 80.8827C218.798 81.576 220.362 81.9113 221.996 81.7593C224.885 81.4907 227.296 79.7814 228.574 77.4092C228.494 78.2622 228.485 79.1386 228.567 80.0237C229.279 87.675 236.078 93.3008 243.751 92.5873C248.48 92.1476 252.439 89.4016 254.613 85.5681C256.05 86.3874 257.745 86.7964 259.52 86.6313C264.108 86.2047 267.484 82.1479 267.059 77.5733C267.052 77.4967 267.036 77.4209 267.025 77.3447C267.801 77.5 268.615 77.5488 269.443 77.4718C274.031 77.0452 277.407 72.9884 276.982 68.4139C276.556 63.8393 272.49 60.4746 267.902 60.9012" stroke="#1B1A1A" stroke-width="2.5" stroke-miterlimit="10"/>
<path d="M108.742 45.2212C104.139 45.2212 100.405 48.9445 100.405 53.5345C100.405 58.1245 104.139 61.8477 108.742 61.8477C109.676 61.8477 110.571 61.6898 111.41 61.4037C112.511 72.8809 122.201 81.856 133.998 81.856C141.762 81.856 148.609 77.9662 152.703 72.0397C154.188 74.3283 156.766 75.8484 159.704 75.8484C163.134 75.8484 166.076 73.7818 167.356 70.8314C169.865 73.2523 173.282 74.7468 177.051 74.7468C184.75 74.7468 190.993 68.5214 190.993 60.8443C190.993 53.1673 184.75 46.9419 177.051 46.9419" fill="#E30613"/>
<path d="M108.742 45.2212C104.139 45.2212 100.405 48.9445 100.405 53.5345C100.405 58.1245 104.139 61.8477 108.742 61.8477C109.676 61.8477 110.571 61.6898 111.41 61.4037C112.511 72.8809 122.201 81.856 133.998 81.856C141.762 81.856 148.609 77.9662 152.703 72.0397C154.188 74.3283 156.766 75.8484 159.704 75.8484C163.134 75.8484 166.076 73.7818 167.356 70.8314C169.865 73.2523 173.282 74.7468 177.051 74.7468C184.75 74.7468 190.993 68.5214 190.993 60.8443C190.993 53.1673 184.75 46.9419 177.051 46.9419" stroke="#1B1A1A" stroke-width="2.5" stroke-miterlimit="10"/>
<path d="M270.833 41.8621C275.437 41.8621 279.171 45.5853 279.171 50.1753C279.171 54.7654 275.437 58.4886 270.833 58.4886C269.9 58.4886 269.005 58.3306 268.166 58.0446C267.065 69.5217 257.375 78.4968 245.577 78.4968C237.814 78.4968 230.967 74.6071 226.873 68.6806C225.387 70.9692 222.81 72.4892 219.872 72.4892C216.442 72.4892 213.5 70.4227 212.22 67.4722C209.711 69.8932 206.294 71.3876 202.525 71.3876C194.826 71.3876 188.583 65.1623 188.583 57.4852C188.583 49.8081 194.826 43.5828 202.525 43.5828" fill="#E30613"/>
<path d="M270.833 41.8621C275.437 41.8621 279.171 45.5853 279.171 50.1753C279.171 54.7654 275.437 58.4886 270.833 58.4886C269.9 58.4886 269.005 58.3306 268.166 58.0446C267.065 69.5217 257.375 78.4968 245.577 78.4968C237.814 78.4968 230.967 74.6071 226.873 68.6806C225.387 70.9692 222.81 72.4892 219.872 72.4892C216.442 72.4892 213.5 70.4227 212.22 67.4722C209.711 69.8932 206.294 71.3876 202.525 71.3876C194.826 71.3876 188.583 65.1623 188.583 57.4852C188.583 49.8081 194.826 43.5828 202.525 43.5828" stroke="#1B1A1A" stroke-width="2.5" stroke-miterlimit="10"/>
<path d="M131.423 50.152C126.8 50.152 123.05 54.7158 123.05 59.2924C123.05 63.869 126.8 67.5813 131.423 67.5813C134.764 67.5813 137.637 65.64 138.978 62.843C140.32 65.6443 143.197 67.5813 146.534 67.5813C147.656 67.5813 148.723 67.3599 149.703 66.964C152.873 75.6489 161.275 81.856 171.14 81.856C181.396 81.856 190.07 75.1465 192.93 65.921C195.437 69.6759 199.733 72.1579 204.622 72.1579C209.826 72.1579 214.362 69.3438 216.779 65.1717C218.073 65.9848 219.604 66.4616 221.251 66.4616C225.874 66.4616 229.624 62.7493 229.624 58.1727C229.624 53.5961 225.874 49.8838 221.251 49.8838" fill="#E30613"/>
<path d="M131.423 50.152C126.8 50.152 123.05 54.7158 123.05 59.2924C123.05 63.869 126.8 67.5813 131.423 67.5813C134.764 67.5813 137.637 65.64 138.978 62.843C140.32 65.6443 143.197 67.5813 146.534 67.5813C147.656 67.5813 148.723 67.3599 149.703 66.964C152.873 75.6489 161.275 81.856 171.14 81.856C181.396 81.856 190.07 75.1465 192.93 65.921C195.437 69.6759 199.733 72.1579 204.622 72.1579C209.826 72.1579 214.362 69.3438 216.779 65.1717C218.073 65.9848 219.604 66.4616 221.251 66.4616C225.874 66.4616 229.624 62.7493 229.624 58.1727C229.624 53.5961 225.874 49.8838 221.251 49.8838" stroke="#1B1A1A" stroke-width="2.5" stroke-miterlimit="10"/>
<path d="M268.279 46.3167C272.902 46.3167 276.652 41.7529 276.652 37.1764C276.652 32.5998 272.902 28.8874 268.279 28.8874C264.938 28.8874 262.065 30.8288 260.724 33.6258C259.382 30.8245 256.505 28.8874 253.168 28.8874C252.046 28.8874 250.979 29.1088 249.999 29.5047C246.829 20.8199 238.427 14.6128 228.562 14.6128C218.306 14.6128 209.632 21.3223 206.772 30.5478C204.265 26.7929 199.969 24.3109 195.08 24.3109C189.876 24.3109 185.34 27.1249 182.923 31.2971C181.628 30.4839 180.098 30.0071 178.451 30.0071C173.828 30.0071 170.078 33.7195 170.078 38.296C170.078 42.8726 173.828 46.585 178.451 46.585" fill="#E30613"/>
<path d="M268.279 46.3167C272.902 46.3167 276.652 41.7529 276.652 37.1764C276.652 32.5998 272.902 28.8874 268.279 28.8874C264.938 28.8874 262.065 30.8288 260.724 33.6258C259.382 30.8245 256.505 28.8874 253.168 28.8874C252.046 28.8874 250.979 29.1088 249.999 29.5047C246.829 20.8199 238.427 14.6128 228.562 14.6128C218.306 14.6128 209.632 21.3223 206.772 30.5478C204.265 26.7929 199.969 24.3109 195.08 24.3109C189.876 24.3109 185.34 27.1249 182.923 31.2971C181.628 30.4839 180.098 30.0071 178.451 30.0071C173.828 30.0071 170.078 33.7195 170.078 38.296C170.078 42.8726 173.828 46.585 178.451 46.585" stroke="#1B1A1A" stroke-width="2.5" stroke-miterlimit="10"/>
<path d="M200.253 39.5299C204.868 39.2521 208.29 33.6967 207.968 28.3518C207.646 23.0068 203.642 18.8966 199.027 19.1744C195.692 19.3752 192.961 21.8151 191.819 25.1624C190.283 21.9714 187.275 19.882 183.944 20.0826C182.823 20.15 181.774 20.4727 180.823 20.994C177.049 11.0415 168.225 4.29728 158.378 4.89015C148.141 5.50655 139.954 13.8638 137.749 24.8101C134.982 20.5754 130.519 17.9349 125.639 18.2287C120.445 18.5415 116.114 22.1006 113.995 27.1185C112.646 26.2466 111.084 25.7818 109.44 25.8807C104.826 26.1586 101.344 30.7196 101.665 36.0645C101.987 41.4094 105.991 45.5197 110.606 45.2419" fill="#E30613"/>
<path d="M200.253 39.5299C204.868 39.2521 208.29 33.6967 207.968 28.3518C207.646 23.0068 203.642 18.8966 199.027 19.1744C195.692 19.3752 192.961 21.8151 191.819 25.1624C190.283 21.9714 187.275 19.882 183.944 20.0826C182.823 20.15 181.774 20.4727 180.823 20.994C177.049 11.0415 168.225 4.29728 158.378 4.89015C148.141 5.50655 139.954 13.8638 137.749 24.8101C134.982 20.5754 130.519 17.9349 125.639 18.2287C120.445 18.5415 116.114 22.1006 113.995 27.1185C112.646 26.2466 111.084 25.7818 109.44 25.8807C104.826 26.1586 101.344 30.7196 101.665 36.0645C101.987 41.4094 105.991 45.5197 110.606 45.2419" stroke="#1B1A1A" stroke-width="2.5" stroke-miterlimit="10"/>
<rect x="199.171" y="48.0134" width="90.6969" height="14.2764" transform="rotate(180 199.171 48.0134)" fill="#E30613"/>
<ellipse cx="184.895" cy="50.1129" rx="13.4366" ry="7.97797" transform="rotate(180 184.895 50.1129)" fill="#E30613"/>
<path d="M190.063 439.372L284.022 134.427L96.1027 134.427L190.063 439.372Z" fill="#FFDE00" stroke="#1B1A1A" stroke-width="3" stroke-miterlimit="10"/>
<path d="M190.062 439.372L221.598 197.28L158.799 197.28L190.062 439.372Z" fill="#009FE3" stroke="#1B1A1A" stroke-width="3" stroke-miterlimit="10"/>
<path d="M221.598 197.28C238.959 197.28 252.998 183.229 252.998 165.853C235.672 165.853 221.598 151.802 221.598 134.427C221.598 151.802 207.559 165.853 190.198 165.853C190.198 166.059 190.198 166.23 190.198 166.436C190.506 183.537 204.477 197.28 221.598 197.28Z" fill="#009FE3" stroke="#1B1A1A" stroke-width="3" stroke-miterlimit="10"/>
<path d="M158.799 197.28C175.954 197.28 189.891 183.537 190.199 166.436C190.199 166.23 190.199 166.059 190.199 165.853C172.873 165.853 158.799 151.802 158.799 134.427C158.799 151.802 144.76 165.853 127.399 165.853C127.399 183.229 141.473 197.28 158.799 197.28Z" fill="#009FE3" stroke="#1B1A1A" stroke-width="3" stroke-miterlimit="10"/>
<path d="M190.199 165.854C207.559 165.854 221.598 151.802 221.598 134.427C204.272 134.427 190.199 120.376 190.199 103C190.199 120.376 176.159 134.427 158.799 134.427C158.799 134.632 158.799 134.804 158.799 135.009C159.107 152.111 173.078 165.854 190.199 165.854Z" fill="#FFDE00" stroke="#1B1A1A" stroke-width="3" stroke-miterlimit="10"/>
<path d="M242.589 164.242C264.23 171.062 284.09 155.229 284.227 134.632C284.227 134.529 284.125 134.427 284.022 134.427C267.894 134.324 254.608 122.055 252.999 106.29C252.965 106.05 252.691 106.05 252.656 106.29C251.013 122.055 237.795 134.358 221.599 134.427C221.496 134.427 221.428 134.495 221.428 134.598C221.428 147.998 229.817 160.198 242.589 164.242Z" fill="#E30613" stroke="#1B1A1A" stroke-width="3" stroke-miterlimit="10"/>
<path d="M127.4 165.854C144.555 165.854 158.491 152.111 158.8 135.009C158.8 134.804 158.8 134.632 158.8 134.427C141.473 134.427 127.4 120.376 127.4 103C127.4 120.376 113.361 134.427 96 134.427C96 151.802 110.073 165.854 127.4 165.854Z" fill="#E30613" stroke="#1B1A1A" stroke-width="3" stroke-miterlimit="10"/>
<path d="M158.799 197.246C175.954 197.246 189.89 183.503 190.199 166.402C190.507 183.503 204.478 197.246 221.598 197.246L221.598 221.544C219.681 223.463 195.712 221.544 195.712 258.763C195.712 261.813 193.246 264.246 190.199 264.246C187.185 264.246 184.72 261.813 184.72 258.763C184.72 221.544 160.716 223.463 158.799 221.544L158.799 197.246Z" fill="#E30613" stroke="#1B1A1A" stroke-width="3" stroke-miterlimit="10"/>
<rect x="167.061" y="272.577" width="44.8366" height="173.003" rx="22.4183" fill="#E30613" stroke="#1B1A1A" stroke-width="3"/>
<rect x="242.878" y="296.947" width="32.5708" height="127.874" rx="16.2854" fill="#E30613" stroke="#1B1A1A" stroke-width="3"/>
<rect x="107.491" y="296.947" width="32.5708" height="127.874" rx="16.2854" fill="#E30613" stroke="#1B1A1A" stroke-width="3"/>
<path d="M138.33 315.861C135.949 293.413 156.026 261.128 169.854 247.101C174.458 246.383 182.308 246.553 176.881 252.98C170.097 261.013 153.101 286.637 151.852 309.446C149.64 349.855 177.738 350.226 191.873 364.573C212.677 385.689 191.207 424.347 176.608 444.462C171.753 435.041 198.105 403.697 191.298 382.851C183.729 359.672 143.044 360.312 138.33 315.861Z" fill="#E30613" stroke="#1B1A1A" stroke-width="3"/>
<path d="M241.578 315.861C243.958 293.413 223.881 261.128 210.053 247.101C205.45 246.383 197.6 246.553 203.026 252.98C209.81 261.013 226.807 286.637 228.055 309.446C230.267 349.855 202.17 350.226 188.034 364.573C167.23 385.689 188.7 424.347 203.3 444.462C208.154 435.041 181.802 403.697 188.609 382.851C196.178 359.672 236.864 360.312 241.578 315.861Z" fill="#E30613" stroke="#1B1A1A" stroke-width="3"/>
<path d="M217.208 378.017C219.589 400.465 199.511 432.75 185.683 446.777C181.08 447.496 173.23 447.325 178.657 440.899C185.44 432.866 202.437 407.242 203.685 384.432C205.897 344.024 177.8 343.653 163.665 329.305C142.86 308.19 164.33 269.532 178.93 249.417C183.785 258.838 157.432 290.181 164.24 311.028C171.809 334.207 212.494 333.567 217.208 378.017Z" fill="#E30613" stroke="#1B1A1A" stroke-width="3"/>
<path d="M162.532 378.017C160.151 400.465 180.228 432.75 194.056 446.777C198.66 447.496 206.51 447.325 201.083 440.899C194.299 432.866 177.303 407.242 176.054 384.432C173.843 344.024 201.94 343.653 216.075 329.305C236.879 308.19 215.409 269.532 200.81 249.417C195.955 258.838 222.308 290.181 215.5 311.028C207.931 334.207 167.246 333.567 162.532 378.017Z" fill="#E30613" stroke="#1B1A1A" stroke-width="3"/>
<path d="M56.633 401.049C56.9187 432.521 77.1504 492.247 155.791 479.373L56.633 401.049Z" fill="#E30613" stroke="#1B1A1A" stroke-width="3"/>
<path d="M44.5751 314.032C36.7782 367.032 55.0921 472.79 190.724 471.824L44.5751 314.032Z" fill="#FFDE00" stroke="#1B1A1A" stroke-width="3"/>
<path d="M68.3295 278.704C58.361 346.465 81.7756 481.677 255.182 480.443L68.3295 278.704Z" fill="#E30613" stroke="#1B1A1A" stroke-width="3"/>
<path d="M323.387 401.049C323.101 432.521 302.87 492.247 224.229 479.373L323.387 401.049Z" fill="#E30613" stroke="#1B1A1A" stroke-width="3"/>
<path d="M335.024 312.473C343.389 365.386 326.21 471.335 190.576 471.824L335.024 312.473Z" fill="#FFDE00" stroke="#1B1A1A" stroke-width="3"/>
<path d="M192.639 409.675C222.429 399.519 272.778 361.553 235.857 290.934L192.639 409.675Z" fill="#E30613" stroke="#1B1A1A" stroke-width="3"/>
<path d="M144.648 290.935C128.355 317.863 114.19 379.311 187.866 409.675L144.648 290.935Z" fill="#E30613" stroke="#1B1A1A" stroke-width="3"/>
<path d="M312.073 277.396C322.768 345.045 300.805 480.501 127.396 481.127L312.073 277.396Z" fill="#E30613" stroke="#1B1A1A" stroke-width="3"/>
<path fill-rule="evenodd" clip-rule="evenodd" d="M187.739 483.141C162.749 482.347 116.504 470.86 100.026 449.443C80.4098 423.946 86.8873 401.893 92.5422 382.639C96.2936 369.867 99.6829 358.327 94.8529 347.832C88.626 334.302 69.1354 326.705 52.98 320.408C40.8753 315.69 30.6429 311.702 29.2651 306.494C60.084 311.933 112.992 327.799 110.681 363.205C110.246 369.869 107.887 376.484 105.466 383.272C99.1475 400.986 92.4097 419.878 118.361 443.889C138.623 462.638 176.345 470.881 189.567 472.27C189.752 472.289 189.932 472.311 190.106 472.333C203.489 470.89 241.682 462.556 261.856 443.89C287.807 419.878 281.069 400.987 274.751 383.273C272.33 376.485 269.97 369.87 269.535 363.205C267.225 327.8 320.133 311.934 350.951 306.495C349.574 311.702 339.341 315.691 327.237 320.409C311.081 326.706 291.59 334.303 285.364 347.833C280.534 358.328 283.923 369.868 287.674 382.64C293.329 401.893 299.807 423.947 280.191 449.443C263.713 470.861 213.116 482.388 188.126 483.183C188.051 483.136 187.976 483.087 187.901 483.038C187.847 483.073 187.793 483.107 187.739 483.141Z" fill="#E30613"/>
<path d="M100.026 449.443L101.215 448.528L101.215 448.528L100.026 449.443ZM187.739 483.141L187.691 484.641L188.15 484.655L188.539 484.41L187.739 483.141ZM92.5422 382.639L93.9814 383.062L93.9814 383.062L92.5422 382.639ZM94.8529 347.832L96.2155 347.205L96.2155 347.205L94.8529 347.832ZM52.98 320.408L52.4353 321.806L52.4353 321.806L52.98 320.408ZM29.2651 306.494L29.5258 305.017L27.2147 304.609L27.815 306.878L29.2651 306.494ZM110.681 363.205L112.178 363.302L110.681 363.205ZM105.466 383.272L104.053 382.768L104.053 382.768L105.466 383.272ZM118.361 443.889L117.342 444.99L117.342 444.99L118.361 443.889ZM189.567 472.27L189.41 473.762L189.41 473.762L189.567 472.27ZM190.106 472.333L189.912 473.821L190.089 473.844L190.267 473.825L190.106 472.333ZM261.856 443.89L260.837 442.789L260.837 442.789L261.856 443.89ZM274.751 383.273L276.164 382.769L276.164 382.769L274.751 383.273ZM269.535 363.205L268.039 363.303L268.039 363.303L269.535 363.205ZM350.951 306.495L352.402 306.879L353.002 304.61L350.691 305.018L350.951 306.495ZM327.237 320.409L326.692 319.011L326.692 319.011L327.237 320.409ZM285.364 347.833L284.001 347.206L284.001 347.206L285.364 347.833ZM287.674 382.64L286.235 383.062L286.235 383.062L287.674 382.64ZM280.191 449.443L281.379 450.358L281.379 450.358L280.191 449.443ZM188.126 483.183L187.327 484.452L187.715 484.697L188.174 484.682L188.126 483.183ZM187.901 483.038L188.723 481.784L187.912 481.252L187.094 481.774L187.901 483.038ZM98.8371 450.357C107.357 461.432 123.397 469.775 140.211 475.447C157.081 481.137 175.035 484.238 187.691 484.641L187.787 481.642C175.453 481.25 157.789 478.21 141.17 472.604C124.495 466.98 109.173 458.871 101.215 448.528L98.8371 450.357ZM91.103 382.216C88.2841 391.814 85.1788 402.351 85.3075 413.717C85.437 425.149 88.8308 437.352 98.8371 450.357L101.215 448.528C91.6049 436.038 88.4294 424.465 88.3073 413.683C88.1845 402.834 91.1454 392.718 93.9814 383.062L91.103 382.216ZM93.4903 348.459C95.7528 353.375 96.1176 358.581 95.4268 364.198C94.7321 369.847 92.9871 375.802 91.103 382.216L93.9814 383.062C95.8487 376.704 97.674 370.503 98.4044 364.565C99.1385 358.595 98.7831 352.784 96.2155 347.205L93.4903 348.459ZM52.4353 321.806C60.5341 324.962 69.3387 328.397 76.8962 332.71C84.4732 337.035 90.5732 342.121 93.4903 348.459L96.2155 347.205C92.9058 340.013 86.147 334.536 78.3832 330.105C70.5997 325.663 61.5814 322.151 53.5247 319.01L52.4353 321.806ZM27.815 306.878C28.2647 308.578 29.3979 310.044 30.8592 311.328C32.3269 312.618 34.2288 313.816 36.4003 314.961C40.7357 317.248 46.4106 319.457 52.4353 321.806L53.5247 319.01C47.4446 316.641 41.951 314.497 37.7997 312.308C35.7277 311.215 34.0567 310.145 32.84 309.075C31.6169 308 30.9544 307.014 30.7152 306.11L27.815 306.878ZM112.178 363.302C113.393 344.688 100.047 331.444 83.1097 322.292C66.1143 313.109 45.0019 307.748 29.5258 305.017L29.0044 307.971C44.3472 310.679 65.098 315.97 81.6836 324.932C98.3276 333.925 110.28 346.316 109.184 363.107L112.178 363.302ZM106.878 383.776C109.284 377.031 111.727 370.213 112.178 363.302L109.184 363.107C108.765 369.524 106.489 375.937 104.053 382.768L106.878 383.776ZM119.379 442.789C106.61 430.973 102.042 420.578 101.308 411.103C100.567 401.534 103.702 392.681 106.878 383.776L104.053 382.768C100.911 391.577 97.5185 401.027 98.3167 411.335C99.1223 421.737 104.16 432.794 117.342 444.99L119.379 442.789ZM189.723 470.778C183.227 470.096 170.599 467.713 157.082 463.168C143.545 458.616 129.282 451.951 119.379 442.789L117.342 444.99C127.701 454.576 142.431 461.407 156.126 466.011C169.841 470.623 182.684 473.055 189.41 473.762L189.723 470.778ZM190.3 470.846C190.113 470.821 189.921 470.799 189.723 470.778L189.41 473.762C189.583 473.78 189.751 473.8 189.912 473.821L190.3 470.846ZM190.267 473.825C197.07 473.091 210.07 470.623 223.91 465.993C237.729 461.37 252.557 454.538 262.875 444.991L260.837 442.789C250.981 451.909 236.626 458.576 222.959 463.148C209.314 467.712 196.525 470.132 189.945 470.842L190.267 473.825ZM262.875 444.991C276.056 432.795 281.094 421.738 281.9 411.336C282.698 401.028 279.306 391.578 276.164 382.769L273.338 383.777C276.514 392.682 279.65 401.535 278.909 411.104C278.175 420.579 273.607 430.974 260.837 442.789L262.875 444.991ZM276.164 382.769C273.727 375.938 271.451 369.525 271.032 363.108L268.039 363.303C268.49 370.214 270.932 377.032 273.338 383.777L276.164 382.769ZM271.032 363.108C269.936 346.317 281.889 333.925 298.533 324.932C315.118 315.971 335.869 310.68 351.212 307.972L350.691 305.018C335.215 307.749 314.102 313.11 297.107 322.293C280.17 331.444 266.824 344.688 268.039 363.303L271.032 363.108ZM349.501 306.111C349.262 307.015 348.6 308.001 347.377 309.076C346.16 310.145 344.489 311.216 342.417 312.308C338.266 314.498 332.772 316.641 326.692 319.011L327.781 321.806C333.806 319.458 339.481 317.248 343.816 314.962C345.988 313.817 347.89 312.619 349.357 311.329C350.819 310.044 351.952 308.578 352.402 306.879L349.501 306.111ZM326.692 319.011C318.635 322.151 309.617 325.663 301.833 330.106C294.07 334.536 287.311 340.014 284.001 347.206L286.726 348.46C289.643 342.121 295.743 337.035 303.32 332.711C310.878 328.398 319.682 324.963 327.781 321.806L326.692 319.011ZM284.001 347.206C281.433 352.785 281.078 358.596 281.812 364.565C282.543 370.504 284.368 376.705 286.235 383.062L289.114 382.217C287.229 375.802 285.484 369.848 284.79 364.199C284.099 358.582 284.464 353.376 286.726 348.46L284.001 347.206ZM286.235 383.062C289.071 392.718 292.032 402.835 291.909 413.684C291.787 424.466 288.612 436.038 279.002 448.529L281.379 450.358C291.386 437.352 294.78 425.15 294.909 413.718C295.038 402.352 291.932 391.815 289.114 382.217L286.235 383.062ZM279.002 448.529C271.063 458.847 254.689 466.971 236.897 472.617C219.18 478.239 200.42 481.291 188.078 481.684L188.174 484.682C200.822 484.28 219.856 481.172 237.804 475.477C255.677 469.805 272.84 461.457 281.379 450.358L279.002 448.529ZM188.926 481.914C188.858 481.871 188.791 481.828 188.723 481.784L187.079 484.293C187.161 484.347 187.244 484.4 187.327 484.452L188.926 481.914ZM188.539 484.41C188.595 484.375 188.652 484.339 188.708 484.303L187.094 481.774C187.042 481.807 186.99 481.84 186.939 481.872L188.539 484.41Z" fill="#1B1A1A"/>
<path d="M76.2973 493.183C88.4102 493.183 98.2297 483.382 98.2297 471.292C98.2297 459.202 88.4102 449.4 76.2973 449.4C64.1843 449.4 54.3649 459.202 54.3649 471.292C54.3649 483.382 64.1843 493.183 76.2973 493.183Z" fill="#009FE3" stroke="#1B1A1A" stroke-width="3" stroke-miterlimit="10"/>
<path d="M63.336 467.352C75.4489 467.352 85.2684 457.551 85.2684 445.461C85.2684 433.37 75.4489 423.569 63.336 423.569C51.2231 423.569 41.4036 433.37 41.4036 445.461C41.4036 457.551 51.2231 467.352 63.336 467.352Z" fill="#009FE3" stroke="#1B1A1A" stroke-width="3" stroke-miterlimit="10"/>
<path d="M137.613 577.64C154.112 577.64 167.488 564.289 167.488 547.82C167.488 531.352 154.112 518.001 137.613 518.001C121.113 518.001 107.738 531.352 107.738 547.82C107.738 564.289 121.113 577.64 137.613 577.64Z" fill="#009FE3" stroke="#1B1A1A" stroke-width="3" stroke-miterlimit="10"/>
<path d="M105.944 570.994C134.617 570.994 157.86 547.794 157.86 519.175C157.86 490.556 134.617 467.355 105.944 467.355C77.2716 467.355 54.0279 490.556 54.0279 519.175C54.0279 547.794 77.2716 570.994 105.944 570.994Z" fill="#009FE3" stroke="#1B1A1A" stroke-width="3" stroke-miterlimit="10"/>
<path d="M174.367 584.511C194.668 584.511 211.125 568.085 211.125 547.822C211.125 527.559 194.668 511.133 174.367 511.133C154.067 511.133 137.61 527.559 137.61 547.822C137.61 568.085 154.067 584.511 174.367 584.511Z" fill="#009FE3" stroke="#1B1A1A" stroke-width="3" stroke-miterlimit="10"/>
<path d="M109.749 496.389C130.882 496.389 148.014 479.288 148.014 458.194C148.014 437.1 130.882 420 109.749 420C88.6152 420 71.4831 437.1 71.4831 458.194C71.4831 479.288 88.6152 496.389 109.749 496.389Z" fill="#009FE3" stroke="#1B1A1A" stroke-width="3" stroke-miterlimit="10"/>
<path d="M311.99 505.55C329.669 505.55 344 491.245 344 473.599C344 455.954 329.669 441.649 311.99 441.649C294.311 441.649 279.98 455.954 279.98 473.599C279.98 491.245 294.311 505.55 311.99 505.55Z" fill="#009FE3" stroke="#1B1A1A" stroke-width="2.5095" stroke-miterlimit="10"/>
<path d="M209.444 614.327C225.943 614.327 239.319 600.976 239.319 584.508C239.319 568.039 225.943 554.688 209.444 554.688C192.944 554.688 179.569 568.039 179.569 584.508C179.569 600.976 192.944 614.327 209.444 614.327Z" fill="#009FE3" stroke="#1B1A1A" stroke-width="3" stroke-miterlimit="10"/>
<path d="M129.67 631.419C141.783 631.419 151.603 621.618 151.603 609.528C151.603 597.438 141.783 587.636 129.67 587.636C117.557 587.636 107.738 597.438 107.738 609.528C107.738 621.618 117.557 631.419 129.67 631.419Z" fill="#009FE3" stroke="#1B1A1A" stroke-width="3" stroke-miterlimit="10"/>
<path d="M317.618 551.896C324.673 551.896 330.391 546.188 330.391 539.147C330.391 532.105 324.673 526.397 317.618 526.397C310.563 526.397 304.845 532.105 304.845 539.147C304.845 546.188 310.563 551.896 317.618 551.896Z" fill="#009FE3" stroke="#1B1A1A" stroke-width="1.7471" stroke-miterlimit="10"/>
<path d="M263.342 617.05C270.396 617.05 276.115 611.342 276.115 604.3C276.115 597.259 270.396 591.551 263.342 591.551C256.287 591.551 250.568 597.259 250.568 604.3C250.568 611.342 256.287 617.05 263.342 617.05Z" fill="#009FE3" stroke="#1B1A1A" stroke-width="1.7471" stroke-miterlimit="10"/>
<path d="M33.7734 509.141C40.8279 509.141 46.5467 503.433 46.5467 496.392C46.5467 489.35 40.8279 483.642 33.7734 483.642C26.7188 483.642 21 489.35 21 496.392C21 503.433 26.7188 509.141 33.7734 509.141Z" fill="#009FE3" stroke="#1B1A1A" stroke-width="1.7471" stroke-miterlimit="10"/>
<path d="M292.919 527.442C305.032 527.442 314.851 517.641 314.851 505.551C314.851 493.461 305.032 483.659 292.919 483.659C280.806 483.659 270.986 493.461 270.986 505.551C270.986 517.641 280.806 527.442 292.919 527.442Z" fill="#009FE3" stroke="#1B1A1A" stroke-width="3" stroke-miterlimit="10"/>
<path d="M279.979 587.638C289.187 587.638 296.651 580.187 296.651 570.996C296.651 561.805 289.187 554.354 279.979 554.354C270.771 554.354 263.306 561.805 263.306 570.996C263.306 580.187 270.771 587.638 279.979 587.638Z" fill="#009FE3" stroke="#1B1A1A" stroke-width="3" stroke-miterlimit="10"/>
<path d="M279.979 568.54C289.187 568.54 296.651 561.089 296.651 551.898C296.651 542.707 289.187 535.257 279.979 535.257C270.771 535.257 263.306 542.707 263.306 551.898C263.306 561.089 270.771 568.54 279.979 568.54Z" fill="#009FE3" stroke="#1B1A1A" stroke-width="3" stroke-miterlimit="10"/>
<path d="M263.341 585.177C272.549 585.177 280.014 577.727 280.014 568.536C280.014 559.345 272.549 551.895 263.341 551.895C254.133 551.895 246.668 559.345 246.668 568.536C246.668 577.727 254.133 585.177 263.341 585.177Z" fill="#009FE3" stroke="#1B1A1A" stroke-width="3" stroke-miterlimit="10"/>
<path d="M235.513 572.779C265.793 572.779 290.34 548.279 290.34 518.055C290.34 487.832 265.793 463.332 235.513 463.332C205.234 463.332 180.687 487.832 180.687 518.055C180.687 548.279 205.234 572.779 235.513 572.779Z" fill="#009FE3" stroke="#1B1A1A" stroke-width="3" stroke-miterlimit="10"/>
<path d="M186.73 530.021C215.774 530.021 239.319 506.52 239.319 477.53C239.319 448.541 215.774 425.04 186.73 425.04C157.687 425.04 134.142 448.541 134.142 477.53C134.142 506.52 157.687 530.021 186.73 530.021Z" fill="#009FE3" stroke="#1B1A1A" stroke-width="3" stroke-miterlimit="10"/>
<path d="M266.848 508.432C289.578 508.432 308.004 490.04 308.004 467.352C308.004 444.665 289.578 426.273 266.848 426.273C244.118 426.273 225.691 444.665 225.691 467.352C225.691 490.04 244.118 508.432 266.848 508.432Z" fill="#009FE3" stroke="#1B1A1A" stroke-width="3" stroke-miterlimit="10"/>
<path d="M231.376 515.078C243.489 515.078 253.308 505.277 253.308 493.187C253.308 481.096 243.489 471.295 231.376 471.295C219.263 471.295 209.444 481.096 209.444 493.187C209.444 505.277 219.263 515.078 231.376 515.078Z" fill="#009FE3" stroke="#1B1A1A" stroke-width="3" stroke-miterlimit="10"/>
<path d="M105.944 564.817C118.056 564.817 127.876 555.015 127.876 542.925C127.876 530.835 118.056 521.034 105.944 521.034C93.8306 521.034 84.0112 530.835 84.0112 542.925C84.0112 555.015 93.8306 564.817 105.944 564.817Z" fill="#009FE3" stroke="#1B1A1A" stroke-width="3" stroke-miterlimit="10"/>
<path d="M200.37 302.79C200.37 285.233 195.586 271 189.685 271C183.784 271 179 285.233 179 302.79C179 320.347 183.784 334.58 189.685 334.58C195.586 334.58 200.37 320.347 200.37 302.79Z" fill="#FFFBF1" stroke="#1B1A1A" stroke-width="3" stroke-miterlimit="10"/>
<path d="M199.525 302.775C199.525 297.008 195.191 292.332 189.844 292.332C184.497 292.332 180.162 297.008 180.162 302.775C180.162 308.543 184.497 313.218 189.844 313.218C195.191 313.218 199.525 308.543 199.525 302.775Z" fill="#1B1A1A" stroke="#1B1A1A" stroke-width="3" stroke-miterlimit="10"/>
</svg>
