<svg width="463" height="507" viewBox="0 0 463 507" fill="none" xmlns="http://www.w3.org/2000/svg">
<path d="M172.114 379.849L208.051 318.686L244.714 379.849L208.051 489.658L172.114 379.849Z" fill="#FFDE00" stroke="#1B1A1A" stroke-width="3"/>
<path d="M208.414 489.658L208.414 318.97" stroke="#1B1A1A" stroke-width="3"/>
<path d="M244.714 362.425L280.651 301.262L317.314 362.425L280.651 472.234L244.714 362.425Z" fill="#FFDE00" stroke="#1B1A1A" stroke-width="3"/>
<path d="M281.014 472.234V301.546" stroke="#1B1A1A" stroke-width="3"/>
<path d="M99.5137 362.425L135.451 301.262L172.113 362.425L135.451 472.235L99.5137 362.425Z" fill="#FFDE00" stroke="#1B1A1A" stroke-width="3"/>
<path d="M135.814 472.235L135.814 301.547" stroke="#1B1A1A" stroke-width="3"/>
<path d="M179.736 415.8L207.947 367.787L236.727 415.8L207.947 502L179.736 415.8Z" fill="#FFDE00" stroke="#1B1A1A" stroke-width="3"/>
<path d="M208.232 502L208.232 368.01" stroke="#1B1A1A" stroke-width="3"/>
<path d="M136.008 372.883L171.849 311.883L208.414 372.883L171.849 482.398L136.008 372.883Z" fill="#FFDE00" stroke="#1B1A1A" stroke-width="3"/>
<path d="M172.211 482.399L172.211 312.167" stroke="#1B1A1A" stroke-width="3"/>
<path d="M208.608 372.883L244.449 311.883L281.014 372.883L244.449 482.398L208.608 372.883Z" fill="#FFDE00" stroke="#1B1A1A" stroke-width="3"/>
<path d="M244.811 482.399L244.811 312.167" stroke="#1B1A1A" stroke-width="3"/>
<path d="M192.832 326.87L208.092 300.899L223.66 326.87L208.092 373.499L192.832 326.87Z" fill="#FFDE00" stroke="#1B1A1A" stroke-width="3"/>
<path d="M208.247 373.499V301.02" stroke="#1B1A1A" stroke-width="3"/>
<path d="M120.957 326.871L136.217 300.899L151.785 326.871L136.217 373.499L120.957 326.871Z" fill="#FFDE00" stroke="#1B1A1A" stroke-width="3"/>
<path d="M136.372 373.499V301.02" stroke="#1B1A1A" stroke-width="3"/>
<path d="M265.432 327.597L280.692 301.626L296.26 327.597L280.692 374.225L265.432 327.597Z" fill="#FFDE00" stroke="#1B1A1A" stroke-width="3"/>
<path d="M280.846 374.225V301.746" stroke="#1B1A1A" stroke-width="3"/>
<path d="M281.014 303.618L316.951 242.455L353.613 303.618L316.951 413.427L281.014 303.618Z" fill="#FFDE00" stroke="#1B1A1A" stroke-width="3"/>
<path d="M317.314 413.428V242.74" stroke="#1B1A1A" stroke-width="3"/>
<path d="M208.414 303.618L244.351 242.455L281.014 303.618L244.351 413.427L208.414 303.618Z" fill="#FFDE00" stroke="#1B1A1A" stroke-width="3"/>
<path d="M244.714 413.428L244.714 242.74" stroke="#1B1A1A" stroke-width="3"/>
<path d="M135.814 303.618L171.751 242.455L208.414 303.618L171.751 413.427L135.814 303.618Z" fill="#FFDE00" stroke="#1B1A1A" stroke-width="3"/>
<path d="M172.113 413.428L172.113 242.74" stroke="#1B1A1A" stroke-width="3"/>
<path d="M63.2143 303.618L99.1512 242.455L135.814 303.618L99.1512 413.427L63.2143 303.618Z" fill="#FFDE00" stroke="#1B1A1A" stroke-width="3"/>
<path d="M99.5139 413.428L99.5139 242.74" stroke="#1B1A1A" stroke-width="3"/>
<path d="M127.353 181.124H65.9259V253.961H127.353V181.124Z" fill="#E30613" stroke="#1B1A1A" stroke-width="3" stroke-miterlimit="10"/>
<path d="M100.718 188.777H92.9171C89.7453 188.777 86.8144 190.47 85.2285 193.217L81.3279 199.976C79.742 202.723 79.742 206.109 81.3279 208.856L85.2285 215.615C86.8144 218.362 89.7453 220.055 92.9171 220.055H100.718C103.89 220.055 106.821 218.362 108.407 215.615L112.307 208.856C113.893 206.109 113.893 202.723 112.307 199.976L108.407 193.217C106.821 190.47 103.89 188.777 100.718 188.777Z" fill="#009FE3" stroke="#1B1A1A" stroke-width="3" stroke-miterlimit="10"/>
<path d="M96.8174 91.22C96.8174 131.253 44.0111 115.176 44.0111 147.001C44.0111 168.329 65.9256 162.937 65.9256 181.123H127.709C127.709 162.937 149.624 168.329 149.624 147.001C149.624 115.176 96.8174 131.253 96.8174 91.22Z" fill="#FFDE00" stroke="#1B1A1A" stroke-width="3" stroke-miterlimit="10"/>
<circle cx="239.829" cy="231.503" r="76.1179" transform="rotate(10.0917 239.829 231.503)" fill="#009FE3" stroke="black" stroke-width="3"/>
<path fill-rule="evenodd" clip-rule="evenodd" d="M319.329 151.989C320.179 149.719 320.73 147.293 320.93 144.756C322.083 130.147 311.175 117.37 296.567 116.217C281.958 115.064 269.181 125.972 268.028 140.581C267.196 151.118 272.641 160.703 281.222 165.66C280.032 169.172 277.627 172.14 272.876 173.534C266.639 175.363 257.944 170.769 248.201 165.621C237.063 159.736 224.557 153.128 212.791 154.568C190.734 157.266 160.331 177.025 155.981 202.563C163.784 180.348 190.297 144.311 233.921 177.881C273.047 207.989 316.127 171.776 319.329 151.989Z" fill="#009FE3"/>
<path d="M319.329 151.989L317.924 151.463L317.872 151.603L317.848 151.75L319.329 151.989ZM281.222 165.66L282.643 166.141L283.038 164.976L281.973 164.361L281.222 165.66ZM272.876 173.534L273.298 174.973L272.876 173.534ZM248.201 165.621L247.5 166.947L248.201 165.621ZM212.791 154.568L212.609 153.079L212.791 154.568ZM155.981 202.563L154.502 202.311L157.396 203.06L155.981 202.563ZM233.921 177.881L233.006 179.07L233.921 177.881ZM319.435 144.638C319.246 147.034 318.726 149.323 317.924 151.463L320.733 152.515C321.632 150.115 322.214 147.552 322.426 144.874L319.435 144.638ZM296.449 117.713C310.232 118.8 320.523 130.855 319.435 144.638L322.426 144.874C323.644 129.44 312.119 115.94 296.685 114.722L296.449 117.713ZM269.523 140.699C270.611 126.916 282.666 116.625 296.449 117.713L296.685 114.722C281.251 113.504 267.751 125.028 266.533 140.463L269.523 140.699ZM281.973 164.361C273.872 159.683 268.739 150.638 269.523 140.699L266.533 140.463C265.654 151.598 271.409 161.724 280.472 166.959L281.973 164.361ZM273.298 174.973C278.571 173.426 281.314 170.062 282.643 166.141L279.802 165.178C278.75 168.282 276.683 170.854 272.454 172.095L273.298 174.973ZM247.5 166.947C252.346 169.508 257.047 171.995 261.327 173.599C265.575 175.191 269.696 176.03 273.298 174.973L272.454 172.095C269.819 172.867 266.474 172.324 262.38 170.789C258.316 169.266 253.798 166.882 248.902 164.295L247.5 166.947ZM212.973 156.056C218.524 155.377 224.335 156.589 230.213 158.755C236.092 160.922 241.915 163.996 247.5 166.947L248.902 164.295C243.349 161.361 237.35 158.188 231.25 155.94C225.149 153.691 218.824 152.318 212.609 153.079L212.973 156.056ZM157.459 202.815C159.55 190.545 167.937 179.52 178.666 171.185C189.389 162.854 202.255 157.368 212.973 156.056L212.609 153.079C201.27 154.466 187.906 160.208 176.826 168.816C165.751 177.419 156.762 189.043 154.502 202.311L157.459 202.815ZM234.836 176.692C223.772 168.178 213.684 163.994 204.606 162.961C195.512 161.926 187.543 164.066 180.764 168.006C167.28 175.844 158.53 190.779 154.566 202.066L157.396 203.06C161.235 192.132 169.643 177.941 182.272 170.599C188.55 166.95 195.877 164.986 204.267 165.942C212.673 166.898 222.258 170.799 233.006 179.07L234.836 176.692ZM317.848 151.75C317.111 156.303 314.018 162.021 309.017 167.617C304.042 173.183 297.291 178.502 289.444 182.295C273.789 189.862 253.864 191.334 234.836 176.692L233.006 179.07C253.104 194.535 274.282 192.956 290.749 184.996C298.963 181.026 306.028 175.463 311.254 169.616C316.453 163.798 319.945 157.569 320.809 152.229L317.848 151.75Z" fill="black"/>
<circle cx="275.128" cy="144.775" r="21.204" transform="rotate(156.299 275.128 144.775)" fill="#009FE3" stroke="black" stroke-width="3"/>
<path fill-rule="evenodd" clip-rule="evenodd" d="M311.617 132.296C312.385 130.243 312.883 128.05 313.064 125.756C314.107 112.541 304.24 100.983 291.026 99.9404C277.812 98.8974 266.254 108.764 265.211 121.979C264.459 131.511 269.383 140.181 277.146 144.665C276.07 147.842 273.894 150.526 269.597 151.787C263.955 153.442 256.089 149.286 247.276 144.629C237.202 139.306 225.889 133.328 215.246 134.63C195.294 137.072 167.793 154.944 163.857 178.045C170.916 157.951 194.899 125.353 234.36 155.719C269.753 182.954 308.723 150.195 311.617 132.296Z" fill="#009FE3"/>
<path d="M311.617 132.296L310.212 131.77L310.16 131.91L310.136 132.057L311.617 132.296ZM277.146 144.665L278.567 145.146L278.962 143.981L277.897 143.366L277.146 144.665ZM269.597 151.787L269.174 150.347L269.597 151.787ZM247.276 144.629L247.977 143.303L247.276 144.629ZM215.246 134.63L215.064 133.142L215.246 134.63ZM163.857 178.045L162.379 177.793L165.272 178.542L163.857 178.045ZM234.36 155.719L235.274 154.53L234.36 155.719ZM311.569 125.638C311.399 127.791 310.932 129.847 310.212 131.77L313.021 132.822C313.839 130.64 314.368 128.309 314.56 125.874L311.569 125.638ZM290.908 101.436C303.297 102.414 312.547 113.249 311.569 125.638L314.56 125.874C315.668 111.833 305.184 99.5532 291.144 98.4451L290.908 101.436ZM266.706 122.097C267.684 109.708 278.52 100.458 290.908 101.436L291.144 98.4451C277.104 97.3369 264.824 107.82 263.716 121.861L266.706 122.097ZM277.897 143.366C270.615 139.161 266.001 131.031 266.706 122.097L263.716 121.861C262.916 131.991 268.151 141.202 276.396 145.964L277.897 143.366ZM270.019 153.226C274.838 151.812 277.352 148.732 278.567 145.146L275.726 144.183C274.787 146.952 272.95 149.24 269.174 150.347L270.019 153.226ZM246.576 145.955C250.957 148.27 255.218 150.524 259.099 151.979C262.95 153.422 266.715 154.195 270.019 153.226L269.174 150.347C266.837 151.033 263.849 150.555 260.152 149.17C256.487 147.796 252.409 145.644 247.977 143.303L246.576 145.955ZM215.428 136.119C220.417 135.509 225.649 136.597 230.955 138.553C236.263 140.509 241.522 143.285 246.576 145.955L247.977 143.303C242.956 140.65 237.521 137.775 231.993 135.738C226.463 133.699 220.717 132.45 215.064 133.142L215.428 136.119ZM165.336 178.297C167.219 167.246 174.777 157.302 184.466 149.775C194.148 142.253 205.762 137.302 215.428 136.119L215.064 133.142C204.777 134.4 192.665 139.606 182.625 147.406C172.591 155.201 164.431 165.744 162.379 177.793L165.336 178.297ZM235.274 154.53C225.251 146.817 216.102 143.019 207.858 142.08C199.598 141.14 192.359 143.084 186.204 146.662C173.966 153.776 166.034 167.321 162.442 177.548L165.272 178.542C168.739 168.675 176.328 155.873 187.711 149.256C193.367 145.969 199.963 144.201 207.519 145.061C215.091 145.923 223.737 149.438 233.445 156.908L235.274 154.53ZM310.136 132.057C309.476 136.138 306.697 141.286 302.183 146.337C297.695 151.36 291.603 156.16 284.523 159.582C270.401 166.409 252.436 167.736 235.274 154.53L233.445 156.908C251.676 170.937 270.893 169.502 285.828 162.283C293.276 158.683 299.681 153.64 304.42 148.336C309.133 143.063 312.31 137.404 313.097 132.536L310.136 132.057Z" fill="black"/>
<circle cx="271.635" cy="125.774" r="19.0373" transform="rotate(156.299 271.635 125.774)" fill="#009FE3" stroke="black" stroke-width="3"/>
<path fill-rule="evenodd" clip-rule="evenodd" d="M291.5 129.368C292.162 127.6 292.591 125.712 292.747 123.736C293.645 112.361 285.151 102.411 273.775 101.513C262.4 100.615 252.45 109.109 251.552 120.485C250.905 128.691 255.144 136.154 261.827 140.014C260.9 142.749 259.027 145.06 255.328 146.145C250.471 147.569 243.7 143.992 236.113 139.983C227.44 135.4 217.701 130.255 208.54 131.376C191.363 133.477 167.689 148.863 164.301 168.75C170.378 151.451 191.023 123.389 224.994 149.53C255.461 172.975 289.007 144.776 291.5 129.368Z" fill="#009FE3"/>
<path d="M291.5 129.368L290.096 128.842L290.043 128.981L290.019 129.128L291.5 129.368ZM261.827 140.014L263.247 140.495L263.642 139.33L262.577 138.715L261.827 140.014ZM255.328 146.145L254.905 144.705L254.905 144.705L255.328 146.145ZM236.113 139.983L235.412 141.309L236.113 139.983ZM208.54 131.376L208.357 129.887L208.54 131.376ZM164.301 168.75L162.823 168.498L165.717 169.247L164.301 168.75ZM224.994 149.53L224.079 150.718L224.994 149.53ZM291.252 123.618C291.107 125.453 290.709 127.204 290.096 128.842L292.905 129.894C293.616 127.997 294.075 125.971 294.242 123.854L291.252 123.618ZM273.657 103.008C284.207 103.841 292.084 113.068 291.252 123.618L294.242 123.854C295.205 111.653 286.095 100.981 273.893 100.018L273.657 103.008ZM253.048 120.603C253.88 110.053 263.108 102.176 273.657 103.008L273.893 100.018C261.692 99.0547 251.02 108.165 250.057 120.367L253.048 120.603ZM262.577 138.715C256.376 135.134 252.447 128.211 253.048 120.603L250.057 120.367C249.362 129.171 253.912 137.175 261.077 141.313L262.577 138.715ZM255.75 147.584C259.971 146.346 262.182 143.639 263.247 140.495L260.406 139.532C259.617 141.859 258.083 143.773 254.905 144.705L255.75 147.584ZM235.412 141.309C239.18 143.3 242.861 145.248 246.218 146.506C249.543 147.752 252.838 148.438 255.75 147.584L254.905 144.705C252.961 145.276 250.442 144.885 247.271 143.697C244.131 142.52 240.632 140.674 236.814 138.657L235.412 141.309ZM208.722 132.865C212.971 132.345 217.439 133.27 221.991 134.948C226.545 136.627 231.059 139.009 235.412 141.309L236.814 138.657C232.494 136.374 227.802 133.893 223.028 132.133C218.252 130.373 213.27 129.286 208.357 129.887L208.722 132.865ZM165.78 169.002C167.389 159.558 173.854 151.039 182.17 144.578C190.481 138.122 200.444 133.877 208.722 132.865L208.357 129.887C199.459 130.976 188.997 135.475 180.33 142.209C171.668 148.938 164.602 158.055 162.823 168.498L165.78 169.002ZM225.908 148.341C217.258 141.684 209.347 138.395 202.203 137.582C195.043 136.767 188.767 138.453 183.433 141.553C172.839 147.712 165.987 159.424 162.886 168.252L165.717 169.247C168.692 160.777 175.201 149.809 184.941 144.147C189.775 141.337 195.409 139.828 201.864 140.562C208.335 141.299 215.744 144.305 224.079 150.718L225.908 148.341ZM290.019 129.128C289.46 132.587 287.095 136.983 283.223 141.316C279.377 145.62 274.154 149.735 268.084 152.668C255.984 158.517 240.607 159.652 225.908 148.341L224.079 150.718C239.847 162.853 256.477 161.611 269.39 155.369C275.827 152.258 281.363 147.9 285.46 143.315C289.531 138.76 292.294 133.853 292.981 129.608L290.019 129.128Z" fill="black"/>
<circle cx="257.082" cy="123.75" r="16.1796" transform="rotate(156.299 257.082 123.75)" fill="#009FE3" stroke="black" stroke-width="3"/>
<path fill-rule="evenodd" clip-rule="evenodd" d="M371.16 269.019C373.123 265.63 374.65 261.914 375.648 257.925C381.396 234.963 367.44 211.689 344.478 205.941C321.515 200.193 298.241 214.148 292.493 237.111C288.347 253.675 294.453 270.401 306.797 280.594C303.961 285.87 299.335 289.954 291.394 290.902C280.969 292.147 268.347 282.5 254.205 271.691C238.038 259.334 219.885 245.46 200.757 244.603C164.897 242.996 128.207 250.357 114.439 289.874C132.817 256.575 167.67 222.242 228.176 287.397C282.441 345.834 360.762 299.683 371.16 269.019Z" fill="#009FE3"/>
<path d="M371.16 269.019L369.862 268.267L369.788 268.396L369.74 268.537L371.16 269.019ZM306.797 280.594L308.118 281.304L308.701 280.221L307.752 279.437L306.797 280.594ZM291.394 290.902L291.216 289.413L291.394 290.902ZM254.205 271.691L255.116 270.499L254.205 271.691ZM200.757 244.603L200.824 243.104L200.757 244.603ZM114.439 289.874L113.022 289.38L115.752 290.599L114.439 289.874ZM228.176 287.397L229.275 286.377L228.176 287.397ZM374.193 257.561C373.229 261.412 371.755 264.999 369.862 268.267L372.458 269.771C374.49 266.262 376.07 262.415 377.103 258.29L374.193 257.561ZM344.114 207.396C366.273 212.943 379.739 235.402 374.193 257.561L377.103 258.29C383.052 234.524 368.608 210.435 344.842 204.486L344.114 207.396ZM293.948 237.475C299.495 215.316 321.955 201.849 344.114 207.396L344.842 204.486C321.076 198.537 296.987 212.98 291.038 236.747L293.948 237.475ZM307.752 279.437C295.838 269.599 289.948 253.457 293.948 237.475L291.038 236.747C286.746 253.892 293.069 271.203 305.842 281.751L307.752 279.437ZM291.571 292.392C300.052 291.379 305.078 286.96 308.118 281.304L305.476 279.884C302.844 284.78 298.617 288.529 291.216 289.413L291.571 292.392ZM253.294 272.882C260.343 278.27 267.115 283.449 273.441 287.114C279.739 290.763 285.859 293.074 291.571 292.392L291.216 289.413C286.504 289.975 281.101 288.085 274.945 284.519C268.819 280.969 262.21 275.921 255.116 270.499L253.294 272.882ZM200.69 246.101C209.92 246.515 219 250.075 227.847 255.136C236.695 260.199 245.196 266.693 253.294 272.882L255.116 270.499C247.047 264.332 238.388 257.711 229.336 252.532C220.283 247.353 210.722 243.548 200.824 243.104L200.69 246.101ZM115.855 290.367C122.593 271.03 134.893 259.619 149.904 253.196C164.98 246.745 182.857 245.302 200.69 246.101L200.824 243.104C182.798 242.297 164.4 243.731 148.723 250.438C132.982 257.173 120.053 269.201 113.022 289.38L115.855 290.367ZM229.275 286.377C198.883 253.65 174.517 245.461 155.149 250.259C135.926 255.021 122.35 272.436 113.126 289.149L115.752 290.599C124.906 274.013 137.946 257.612 155.87 253.171C173.65 248.767 196.962 255.99 227.076 288.418L229.275 286.377ZM369.74 268.537C367.268 275.826 360.662 284.241 351.126 291.873C341.62 299.481 329.334 306.205 315.698 310.181C288.468 318.12 255.948 315.1 229.275 286.377L227.076 288.418C254.669 318.131 288.441 321.253 316.538 313.061C330.565 308.971 343.2 302.059 353 294.216C362.769 286.397 369.853 277.544 372.581 269.501L369.74 268.537Z" fill="black"/>
<circle cx="302.682" cy="245.693" r="35.1745" transform="rotate(165.839 302.682 245.693)" fill="#009FE3" stroke="black" stroke-width="3"/>
<path fill-rule="evenodd" clip-rule="evenodd" d="M349.245 273.418C350.907 270.546 352.201 267.397 353.047 264.017C357.919 244.555 346.091 224.828 326.628 219.956C307.166 215.085 287.439 226.913 282.567 246.375C279.053 260.415 284.229 274.591 294.691 283.231C292.287 287.702 288.366 291.163 281.636 291.966C272.801 293.021 262.103 284.844 250.116 275.683C236.414 265.21 221.027 253.45 204.815 252.724C174.421 251.362 151.897 253.026 140.228 286.519C155.804 258.296 176.771 233.772 228.054 288.996C274.049 338.525 340.432 299.407 349.245 273.418Z" fill="#009FE3"/>
<path d="M349.245 273.418L347.947 272.666L347.872 272.795L347.824 272.936L349.245 273.418ZM294.691 283.231L296.013 283.941L296.595 282.857L295.646 282.074L294.691 283.231ZM281.636 291.966L281.814 293.456L281.636 291.966ZM250.116 275.683L249.205 276.875L249.205 276.875L250.116 275.683ZM204.815 252.724L204.748 254.223L204.815 252.724ZM140.228 286.519L138.811 286.026L141.541 287.244L140.228 286.519ZM228.054 288.996L226.955 290.017L228.054 288.996ZM351.592 263.653C350.78 266.895 349.54 269.914 347.947 272.666L350.543 274.169C352.275 271.178 353.622 267.898 354.502 264.381L351.592 263.653ZM326.264 221.411C344.923 226.082 356.263 244.994 351.592 263.653L354.502 264.381C359.575 244.115 347.259 223.574 326.993 218.501L326.264 221.411ZM284.023 246.739C288.693 228.081 307.605 216.741 326.264 221.411L326.993 218.501C306.726 213.428 286.185 225.745 281.112 246.011L284.023 246.739ZM295.646 282.074C285.613 273.789 280.654 260.197 284.023 246.739L281.112 246.011C277.452 260.632 282.845 275.394 293.736 284.387L295.646 282.074ZM281.814 293.456C289.084 292.588 293.404 288.792 296.013 283.941L293.37 282.52C291.17 286.612 287.649 289.738 281.459 290.477L281.814 293.456ZM249.205 276.875C255.176 281.438 260.929 285.838 266.306 288.954C271.654 292.052 276.896 294.043 281.814 293.456L281.459 290.477C277.541 290.944 273.016 289.374 267.81 286.358C262.633 283.358 257.043 279.089 251.027 274.491L249.205 276.875ZM204.748 254.223C212.52 254.571 220.18 257.57 227.662 261.851C235.146 266.132 242.339 271.627 249.205 276.875L251.027 274.491C244.191 269.266 236.839 263.645 229.152 259.247C221.462 254.847 213.323 251.604 204.882 251.226L204.748 254.223ZM141.644 287.013C147.369 270.581 155.657 262.177 166.065 257.94C176.611 253.648 189.526 253.541 204.748 254.223L204.882 251.226C189.71 250.546 176.166 250.59 164.934 255.162C153.564 259.79 144.755 268.964 138.811 286.026L141.644 287.013ZM229.153 287.975C203.478 260.327 184.901 252.067 170.453 254.995C163.242 256.456 157.294 260.671 152.205 266.22C147.124 271.76 142.823 278.711 138.914 285.794L141.541 287.244C145.42 280.215 149.582 273.518 154.416 268.248C159.242 262.986 164.662 259.229 171.049 257.935C183.8 255.351 201.347 262.441 226.955 290.017L229.153 287.975ZM347.824 272.936C345.749 279.056 340.187 286.155 332.122 292.61C324.088 299.041 313.701 304.725 302.173 308.086C279.16 314.797 251.691 312.245 229.153 287.975L226.955 290.017C250.412 315.276 279.133 317.93 303.013 310.967C314.932 307.491 325.668 301.618 333.996 294.952C342.294 288.311 348.334 280.774 350.665 273.899L347.824 272.936Z" fill="black"/>
<circle cx="291.203" cy="253.647" r="29.5843" transform="rotate(165.839 291.203 253.647)" fill="#009FE3" stroke="black" stroke-width="3"/>
<path fill-rule="evenodd" clip-rule="evenodd" d="M338.446 211.632C340.108 208.76 341.402 205.611 342.248 202.232C347.12 182.769 335.292 163.042 315.829 158.171C296.367 153.299 276.64 165.127 271.768 184.59C268.254 198.629 273.43 212.806 283.892 221.445C281.488 225.916 277.567 229.377 270.837 230.181C262.002 231.235 251.304 223.059 239.317 213.897C225.614 203.424 210.228 191.665 194.016 190.938C163.622 189.577 141.098 191.24 129.428 224.734C145.005 196.51 165.972 171.986 217.255 227.21C263.25 276.74 329.633 237.622 338.446 211.632Z" fill="#009FE3"/>
<path d="M338.446 211.632L337.147 210.881L337.073 211.009L337.025 211.15L338.446 211.632ZM283.892 221.445L285.213 222.155L285.796 221.072L284.847 220.288L283.892 221.445ZM270.837 230.181L271.015 231.67L270.837 230.181ZM239.317 213.897L238.406 215.089L238.406 215.089L239.317 213.897ZM194.016 190.938L193.949 192.437L194.016 190.938ZM129.428 224.734L128.012 224.24L130.742 225.458L129.428 224.734ZM217.255 227.21L216.156 228.231L217.255 227.21ZM340.793 201.867C339.981 205.11 338.741 208.129 337.147 210.881L339.744 212.384C341.476 209.392 342.823 206.113 343.703 202.596L340.793 201.867ZM315.465 159.626C334.124 164.296 345.463 183.209 340.793 201.867L343.703 202.596C348.776 182.33 336.459 161.788 316.193 156.716L315.465 159.626ZM273.223 184.954C277.894 166.295 296.806 154.955 315.465 159.626L316.193 156.716C295.927 151.643 275.386 163.959 270.313 184.225L273.223 184.954ZM284.847 220.288C274.814 212.003 269.855 198.411 273.223 184.954L270.313 184.225C266.653 198.847 272.046 213.608 282.937 222.602L284.847 220.288ZM271.015 231.67C278.285 230.802 282.605 227.007 285.213 222.155L282.571 220.735C280.371 224.826 276.85 227.952 270.659 228.691L271.015 231.67ZM238.406 215.089C244.377 219.653 250.13 224.053 255.507 227.168C260.855 230.267 266.097 232.257 271.015 231.67L270.659 228.691C266.742 229.159 262.217 227.588 257.011 224.572C251.833 221.573 246.244 217.304 240.228 212.706L238.406 215.089ZM193.949 192.437C201.721 192.785 209.38 195.784 216.863 200.065C224.347 204.347 231.54 209.841 238.406 215.089L240.228 212.706C233.392 207.481 226.04 201.859 218.353 197.461C210.663 193.062 202.523 189.818 194.083 189.44L193.949 192.437ZM130.845 225.227C136.57 208.796 144.858 200.391 155.266 196.155C165.812 191.862 178.727 191.755 193.949 192.437L194.083 189.44C178.911 188.76 165.367 188.804 154.135 193.376C142.765 198.004 133.956 207.178 128.012 224.24L130.845 225.227ZM218.354 226.189C192.679 198.541 174.101 190.281 159.654 193.209C152.442 194.67 146.495 198.885 141.406 204.434C136.324 209.974 132.024 216.926 128.115 224.009L130.742 225.458C134.621 218.43 138.783 211.732 143.617 206.462C148.442 201.2 153.862 197.444 160.25 196.149C173.001 193.565 190.548 200.655 216.156 228.231L218.354 226.189ZM337.025 211.15C334.95 217.271 329.388 224.369 321.323 230.825C313.288 237.255 302.902 242.939 291.374 246.301C268.36 253.011 240.892 250.459 218.354 226.189L216.156 228.231C239.613 253.49 268.334 256.144 292.214 249.181C304.133 245.705 314.869 239.833 323.197 233.167C331.495 226.526 337.535 218.988 339.866 212.114L337.025 211.15Z" fill="black"/>
<circle cx="280.404" cy="191.861" r="29.5843" transform="rotate(165.839 280.404 191.861)" fill="#009FE3" stroke="black" stroke-width="3"/>
<circle cx="192.678" cy="206.449" r="67.7159" transform="rotate(10.0917 192.678 206.449)" fill="#009FE3" stroke="black" stroke-width="3"/>
<path fill-rule="evenodd" clip-rule="evenodd" d="M308.37 180.141C310.519 182.574 312.369 185.345 313.836 188.425C322.282 206.162 314.811 227.423 297.148 235.914C279.484 244.405 258.318 236.909 249.872 219.172C243.779 206.377 245.969 191.748 254.292 181.402C251.123 177.579 246.7 175.024 240.108 175.57C231.577 176.278 224.507 187.516 216.557 200.155C207.224 214.994 196.677 231.762 181.124 235.683C173.648 237.568 169.344 243.874 166.761 251.656C165.262 260.845 164.567 268.894 164.014 275.307C163.28 283.826 162.794 289.458 161 291.039C159.831 294.571 157.677 293.955 152.931 285.933C157.117 290.872 159.51 292.352 161 291.039C161.817 288.568 162.153 284.066 162.557 278.65C163.167 270.458 163.934 260.173 166.761 251.656C169.671 233.826 175.615 211.704 189.447 188.917C223.791 132.342 294.884 156.908 308.37 180.141Z" fill="#009FE3"/>
<path d="M308.37 180.141L307.248 181.139L307.15 181.028L307.075 180.899L308.37 180.141ZM254.292 181.402L255.445 180.441L256.228 181.385L255.457 182.344L254.292 181.402ZM240.108 175.57L240.228 177.067L240.108 175.57ZM216.557 200.155L217.824 200.955L216.557 200.155ZM181.124 235.683L180.762 234.226L181.124 235.683ZM164.014 275.307L162.522 275.181L164.014 275.307ZM152.931 285.933L151.642 286.701L154.073 284.958L152.931 285.933ZM162.557 278.65L164.05 278.758L162.557 278.65ZM189.447 188.917L188.168 188.138L189.447 188.917ZM312.484 189.075C311.078 186.122 309.305 183.468 307.248 181.139L309.492 179.144C311.733 181.68 313.661 184.568 315.188 187.775L312.484 189.075ZM296.503 234.56C313.416 226.43 320.576 206.067 312.484 189.075L315.188 187.775C323.989 206.257 316.205 228.417 297.792 237.268L296.503 234.56ZM251.223 218.522C259.315 235.514 279.589 242.69 296.503 234.56L297.792 237.268C279.379 246.119 257.321 238.304 248.52 219.822L251.223 218.522ZM255.457 182.344C247.484 192.255 245.388 206.267 251.223 218.522L248.52 219.822C242.17 206.487 244.454 191.242 253.127 180.461L255.457 182.344ZM239.988 174.073C247.122 173.482 252.001 176.287 255.445 180.441L253.14 182.364C250.244 178.872 246.278 176.566 240.228 177.067L239.988 174.073ZM215.291 199.356C219.248 193.066 223.064 186.992 226.978 182.412C230.864 177.866 235.103 174.478 239.988 174.073L240.228 177.067C236.581 177.37 233.02 179.954 229.251 184.365C225.51 188.741 221.817 194.606 217.824 200.955L215.291 199.356ZM180.762 234.226C188.121 232.371 194.399 227.449 200.05 221.021C205.704 214.591 210.611 206.796 215.291 199.356L217.824 200.955C213.17 208.353 208.137 216.361 202.295 223.005C196.452 229.651 189.68 235.074 181.486 237.14L180.762 234.226ZM165.34 251.185C167.986 243.214 172.545 236.298 180.762 234.226L181.486 237.14C174.751 238.838 170.703 244.534 168.182 252.128L165.34 251.185ZM162.522 275.181C163.075 268.768 163.773 260.668 165.283 251.417L168.239 251.895C166.75 261.022 166.06 269.019 165.507 275.433L162.522 275.181ZM160.012 289.911C160.175 289.768 160.435 289.406 160.711 288.617C160.979 287.853 161.214 286.832 161.426 285.534C161.852 282.934 162.153 279.463 162.522 275.181L165.507 275.433C165.141 279.669 164.831 283.274 164.382 286.015C164.158 287.387 163.889 288.603 163.537 289.606C163.195 290.584 162.721 291.519 161.987 292.166L160.012 289.911ZM154.219 285.164C155.389 287.141 156.376 288.622 157.207 289.681C158.06 290.767 158.663 291.296 159.039 291.507C159.211 291.603 159.261 291.59 159.214 291.589C159.142 291.588 159.074 291.617 159.048 291.635C159.044 291.638 159.112 291.589 159.223 291.401C159.332 291.216 159.453 290.945 159.578 290.569L162.421 291.509C162.107 292.457 161.629 293.478 160.778 294.083C160.312 294.415 159.76 294.603 159.155 294.593C158.574 294.583 158.041 294.392 157.574 294.131C156.672 293.626 155.774 292.718 154.852 291.543C153.907 290.34 152.845 288.735 151.642 286.701L154.219 285.164ZM161.987 292.166C161.325 292.749 160.509 293.046 159.602 292.989C158.757 292.936 157.942 292.584 157.178 292.103C155.663 291.149 153.894 289.391 151.789 286.907L154.073 284.958C156.154 287.414 157.675 288.865 158.775 289.558C159.318 289.9 159.642 289.981 159.796 289.99C159.887 289.996 159.929 289.985 160.012 289.911L161.987 292.166ZM164.05 278.758C163.849 281.458 163.662 283.968 163.422 286.113C163.184 288.237 162.883 290.114 162.421 291.509L159.578 290.569C159.934 289.493 160.21 287.884 160.445 285.784C160.678 283.707 160.86 281.258 161.063 278.541L164.05 278.758ZM168.182 252.128C165.425 260.435 164.664 270.524 164.05 278.758L161.063 278.541C161.671 270.391 162.444 259.911 165.34 251.185L168.182 252.128ZM190.726 189.696C177.022 212.271 171.128 234.194 168.239 251.895L165.283 251.417C168.214 233.457 174.208 211.136 188.168 188.138L190.726 189.696ZM307.075 180.899C303.903 175.434 297.208 169.71 288.242 165.092C279.311 160.491 268.276 157.068 256.603 156.098C233.301 154.162 207.546 161.988 190.726 189.696L188.168 188.138C205.692 159.272 232.656 151.093 256.858 153.104C268.937 154.108 280.35 157.646 289.615 162.419C298.846 167.173 306.094 173.231 309.665 179.383L307.075 180.899Z" fill="black"/>
<path d="M227.911 209.165C227.173 225.152 239.476 238.698 255.378 239.433C271.279 240.167 284.78 227.814 285.518 211.827C286.257 195.84 273.954 182.294 258.052 181.56C242.15 180.825 228.65 193.178 227.911 209.165Z" fill="#009FE3" stroke="black" stroke-width="3"/>
<path fill-rule="evenodd" clip-rule="evenodd" d="M300.123 200.173C302.177 202.498 303.946 205.146 305.348 208.09C313.418 225.038 306.279 245.353 289.402 253.465C272.525 261.578 252.302 254.416 244.231 237.468C238.41 225.244 240.502 211.267 248.455 201.381C245.426 197.728 241.201 195.286 234.902 195.808C226.633 196.494 218.378 205.999 209.13 216.649C198.558 228.823 186.686 242.493 172.008 246.194C163.795 248.264 155.546 252.346 147.564 256.296C147.03 256.56 146.498 256.824 145.966 257.086C137.797 262.919 130.179 265.73 123.212 265.897C114.18 267.44 106.12 265.007 99.6695 254.104C106.287 261.911 114.206 266.113 123.212 265.897C130.301 264.686 137.988 261.025 145.966 257.086C158.327 248.262 171.951 232.522 186.497 208.561C219.31 154.508 287.233 177.975 300.123 200.173Z" fill="#009FE3"/>
<path d="M300.123 200.173L299.001 201.171L298.902 201.06L298.828 200.931L300.123 200.173ZM248.455 201.381L249.607 200.419L250.391 201.364L249.62 202.323L248.455 201.381ZM234.902 195.808L235.022 197.305L234.902 195.808ZM209.13 216.649L210.259 217.634L209.13 216.649ZM172.008 246.194L172.37 247.651L172.008 246.194ZM147.564 256.296L146.904 254.95L146.904 254.95L147.564 256.296ZM99.6695 254.104L98.3809 254.873L100.812 253.129L99.6695 254.104ZM186.497 208.561L185.218 207.782L186.497 208.561ZM303.996 208.74C302.654 205.924 300.963 203.392 299.001 201.171L301.245 199.175C303.39 201.604 305.237 204.369 306.699 207.44L303.996 208.74ZM288.757 252.111C304.884 244.359 311.711 224.943 303.996 208.74L306.699 207.44C315.125 225.133 307.674 246.346 290.047 254.819L288.757 252.111ZM245.583 236.819C253.299 253.021 272.63 259.863 288.757 252.111L290.047 254.819C272.421 263.292 251.304 255.81 242.879 238.118L245.583 236.819ZM249.62 202.323C242.017 211.773 240.019 225.134 245.583 236.819L242.879 238.118C236.801 225.354 238.987 210.76 247.29 200.44L249.62 202.323ZM234.782 194.311C241.623 193.744 246.305 196.436 249.607 200.419L247.302 202.343C244.548 199.021 240.779 196.828 235.022 197.305L234.782 194.311ZM208.001 215.664C212.607 210.36 217.05 205.241 221.389 201.37C225.704 197.522 230.145 194.696 234.782 194.311L235.022 197.305C231.39 197.606 227.569 199.875 223.377 203.613C219.21 207.329 214.902 212.287 210.259 217.634L208.001 215.664ZM171.646 244.737C178.66 242.969 185.086 238.795 191.121 233.472C197.157 228.148 202.703 221.765 208.001 215.664L210.259 217.634C204.985 223.707 199.309 230.246 193.096 235.726C186.883 241.207 180.034 245.718 172.37 247.651L171.646 244.737ZM146.904 254.95C154.853 251.016 163.25 246.854 171.646 244.737L172.37 247.651C164.341 249.675 156.239 253.677 148.225 257.643L146.904 254.95ZM145.307 255.739C145.838 255.477 146.37 255.214 146.904 254.95L148.225 257.643C147.691 257.907 147.158 258.171 146.626 258.434L145.307 255.739ZM123.18 264.396C129.763 264.238 137.095 261.577 145.1 255.863L146.833 258.309C138.498 264.26 130.594 267.223 123.244 267.399L123.18 264.396ZM100.958 253.335C104.067 258.591 107.485 261.675 111.088 263.297C114.695 264.921 118.649 265.154 122.964 264.417L123.46 267.378C118.743 268.184 114.151 267.972 109.856 266.038C105.56 264.104 101.722 260.52 98.3809 254.873L100.958 253.335ZM123.244 267.399C113.686 267.628 105.364 263.144 98.5273 255.078L100.812 253.129C107.21 260.678 114.726 264.598 123.18 264.396L123.244 267.399ZM146.625 258.434C138.688 262.353 130.802 266.124 123.46 267.378L122.964 264.417C129.799 263.249 137.289 259.698 145.307 255.739L146.625 258.434ZM187.776 209.34C173.181 233.382 159.43 249.316 146.833 258.309L145.1 255.863C157.224 247.208 170.721 231.663 185.218 207.782L187.776 209.34ZM298.828 200.931C295.805 195.725 289.419 190.263 280.859 185.854C272.333 181.463 261.798 178.195 250.654 177.27C228.41 175.422 203.83 182.893 187.776 209.34L185.218 207.782C201.976 180.176 227.764 172.354 250.908 174.276C262.458 175.235 273.372 178.618 282.232 183.181C291.057 187.726 297.996 193.522 301.418 199.415L298.828 200.931Z" fill="black"/>
<path d="M223.315 227.91C222.61 243.149 234.338 256.06 249.494 256.76C264.651 257.461 277.519 245.687 278.223 230.448C278.927 215.209 267.2 202.298 252.043 201.598C236.887 200.897 224.019 212.671 223.315 227.91Z" fill="#009FE3" stroke="black" stroke-width="3"/>
<path fill-rule="evenodd" clip-rule="evenodd" d="M289.616 215.849C291.355 217.818 292.853 220.062 294.04 222.555C300.877 236.912 294.83 254.122 280.532 260.995C266.235 267.867 249.102 261.8 242.265 247.443C237.333 237.086 239.106 225.245 245.844 216.871C243.278 213.776 239.698 211.707 234.362 212.149C227.356 212.73 220.364 220.782 212.529 229.804C203.572 240.118 193.515 251.699 181.081 254.834C176.546 255.977 172.027 257.442 167.584 258.883C149.184 264.849 132.082 270.393 120.556 250.911C137.06 270.381 162.359 274.013 193.355 222.953C221.154 177.159 278.7 197.043 289.616 215.849Z" fill="#009FE3"/>
<path d="M289.616 215.849L288.493 216.847L288.395 216.736L288.321 216.607L289.616 215.849ZM245.844 216.871L246.996 215.909L247.78 216.854L247.008 217.813L245.844 216.871ZM234.362 212.149L234.482 213.646L234.362 212.149ZM212.529 229.804L211.4 228.819L212.529 229.804ZM181.081 254.834L180.719 253.377L181.081 254.834ZM167.584 258.883L167.126 257.454L167.584 258.883ZM120.556 250.911L119.268 251.68L121.699 249.937L120.556 250.911ZM193.355 222.953L192.076 222.174L193.355 222.953ZM292.689 223.205C291.562 220.839 290.142 218.712 288.493 216.847L290.738 214.852C292.569 216.924 294.144 219.284 295.392 221.905L292.689 223.205ZM279.887 259.64C293.435 253.128 299.171 236.817 292.689 223.205L295.392 221.905C302.584 237.007 296.224 255.116 281.177 262.349L279.887 259.64ZM243.617 246.793C250.099 260.405 266.34 266.153 279.887 259.64L281.177 262.349C266.13 269.582 248.105 263.195 240.913 248.093L243.617 246.793ZM247.008 217.813C240.621 225.752 238.942 236.976 243.617 246.793L240.913 248.093C235.724 237.197 237.591 224.739 244.679 215.929L247.008 217.813ZM234.242 210.652C240.12 210.165 244.157 212.483 246.996 215.909L244.691 217.833C242.399 215.069 239.276 213.249 234.482 213.646L234.242 210.652ZM211.4 228.819C215.299 224.33 219.073 219.98 222.762 216.69C226.427 213.422 230.236 210.984 234.242 210.652L234.482 213.646C231.482 213.895 228.292 215.774 224.75 218.933C221.234 222.069 217.594 226.257 213.658 230.789L211.4 228.819ZM180.719 253.377C186.611 251.892 192.023 248.382 197.121 243.884C202.221 239.386 206.91 233.991 211.4 228.819L213.658 230.789C209.192 235.932 204.373 241.484 199.097 246.138C193.819 250.794 187.985 254.641 181.443 256.291L180.719 253.377ZM167.126 257.454C171.561 256.016 176.128 254.535 180.719 253.377L181.443 256.291C176.965 257.42 172.493 258.869 168.041 260.312L167.126 257.454ZM121.845 250.143C124.626 254.844 127.694 257.953 130.956 259.928C134.214 261.902 137.751 262.795 141.552 262.939C149.249 263.23 157.85 260.461 167.126 257.454L168.041 260.312C158.917 263.27 149.768 266.256 141.432 265.941C137.217 265.781 133.168 264.781 129.403 262.501C125.642 260.223 122.249 256.72 119.268 251.68L121.845 250.143ZM194.634 223.732C179.08 249.354 164.735 261.651 151.878 264.839C138.85 268.07 127.865 261.856 119.414 251.886L121.699 249.937C129.751 259.437 139.667 264.774 151.165 261.923C162.831 259.03 176.634 247.613 192.076 222.174L194.634 223.732ZM288.321 216.607C285.791 212.249 280.424 207.647 273.192 203.922C265.995 200.215 257.099 197.455 247.689 196.673C228.913 195.113 208.182 201.415 194.634 223.732L192.076 222.174C206.327 198.698 228.268 192.044 247.943 193.679C257.759 194.495 267.034 197.37 274.566 201.249C282.062 205.111 287.982 210.046 290.911 215.091L288.321 216.607Z" fill="black"/>
<path d="M224.775 239.356C224.184 252.141 234.022 262.97 246.735 263.557C259.447 264.145 270.242 254.269 270.833 241.485C271.424 228.7 261.585 217.871 248.873 217.284C236.16 216.696 225.365 226.572 224.775 239.356Z" fill="#009FE3" stroke="black" stroke-width="3"/>
<path fill-rule="evenodd" clip-rule="evenodd" d="M224.032 286.205C225.82 284.317 227.377 282.15 228.635 279.727C235.876 265.77 230.432 248.586 216.476 241.344C202.519 234.103 185.334 239.547 178.093 253.504C172.869 263.571 174.247 275.319 180.659 283.802C178.015 286.776 174.398 288.704 169.121 288.097C162.193 287.3 155.518 279.127 148.038 269.97C139.488 259.501 129.888 247.747 117.658 244.255C106.055 240.942 90.9677 241.377 76.9544 245.651C69.9243 247.23 63.3144 250.564 57.5459 254.789C51.8294 258.691 46.887 263.497 43.2312 269.219C46.8912 264.091 51.8013 258.998 57.5459 254.789C63.3891 250.802 70.041 247.759 76.9544 245.651C93.753 241.876 112.951 248.116 128.804 276.123C154.899 322.223 212.604 304.425 224.032 286.205Z" fill="#009FE3"/>
<path d="M224.032 286.205L222.943 285.174L222.841 285.282L222.761 285.408L224.032 286.205ZM180.659 283.802L181.78 284.798L182.597 283.879L181.855 282.897L180.659 283.802ZM169.121 288.097L168.95 289.587L169.121 288.097ZM148.038 269.97L146.877 270.919L148.038 269.97ZM117.658 244.255L117.246 245.697L117.658 244.255ZM43.2312 269.219L41.9673 268.411L44.4521 270.09L43.2312 269.219ZM128.804 276.123L130.11 275.384L128.804 276.123ZM227.303 279.036C226.111 281.334 224.636 283.386 222.943 285.174L225.121 287.237C227.005 285.248 228.644 282.967 229.966 280.418L227.303 279.036ZM215.785 242.676C229.006 249.535 234.163 265.815 227.303 279.036L229.966 280.418C237.589 265.726 231.858 247.636 217.166 240.013L215.785 242.676ZM179.424 254.194C186.284 240.973 202.563 235.816 215.785 242.676L217.166 240.013C202.474 232.39 184.384 238.121 176.761 252.813L179.424 254.194ZM181.855 282.897C175.779 274.858 174.477 263.73 179.424 254.194L176.761 252.813C171.262 263.413 172.714 275.779 179.462 284.706L181.855 282.897ZM168.95 289.587C174.767 290.256 178.849 288.094 181.78 284.798L179.537 282.805C177.18 285.457 174.03 287.152 169.292 286.607L168.95 289.587ZM146.877 270.919C150.598 275.475 154.201 279.891 157.755 283.258C161.284 286.602 164.985 289.131 168.95 289.587L169.292 286.607C166.329 286.266 163.228 284.311 159.818 281.08C156.432 277.872 152.958 273.622 149.2 269.021L146.877 270.919ZM117.246 245.697C123.04 247.351 128.292 250.989 133.202 255.591C138.115 260.194 142.59 265.67 146.877 270.919L149.2 269.021C144.937 263.801 140.337 258.166 135.254 253.402C130.169 248.636 124.507 244.65 118.07 242.813L117.246 245.697ZM77.392 247.085C91.1782 242.881 105.967 242.477 117.246 245.697L118.07 242.813C106.143 239.408 90.7571 239.873 76.5169 244.216L77.392 247.085ZM58.4323 256C64.0696 251.87 70.493 248.64 77.2833 247.114L76.6256 244.187C69.3555 245.821 62.5592 249.257 56.6594 253.579L58.4323 256ZM44.4952 270.026C48.0254 264.501 52.8146 259.835 58.3915 256.028L56.7003 253.551C50.8442 257.547 45.7486 262.493 41.9673 268.411L44.4952 270.026ZM56.6594 253.579C50.7836 257.884 45.7612 263.092 42.0104 268.347L44.4521 270.09C48.0211 265.09 52.819 260.112 58.4323 256L56.6594 253.579ZM76.5169 244.216C69.4787 246.362 62.6853 249.466 56.7003 253.551L58.3915 256.028C64.0929 252.137 70.6033 249.156 77.392 247.085L76.5169 244.216ZM130.11 275.384C122.082 261.202 113.13 252.393 103.923 247.636C94.6971 242.869 85.333 242.231 76.6256 244.187L77.2833 247.114C85.3745 245.296 94.0088 245.89 102.545 250.301C111.1 254.722 119.674 263.037 127.499 276.861L130.11 275.384ZM222.761 285.408C220.116 289.626 214.65 293.996 207.36 297.443C200.106 300.873 191.197 303.314 181.843 303.786C163.177 304.727 142.825 297.846 130.11 275.384L127.499 276.861C140.879 300.499 162.426 307.769 181.994 306.782C191.756 306.29 201.047 303.746 208.642 300.155C216.202 296.581 222.234 291.895 225.303 287.002L222.761 285.408Z" fill="black"/>
<circle cx="183.359" cy="260.614" r="22.8611" transform="rotate(179.208 183.359 260.614)" fill="#009FE3" stroke="black" stroke-width="3"/>
<path fill-rule="evenodd" clip-rule="evenodd" d="M192.693 283.881C194.196 282.294 195.505 280.472 196.563 278.434C202.652 266.697 198.074 252.246 186.338 246.156C174.601 240.067 160.15 244.645 154.06 256.382C149.668 264.848 150.826 274.727 156.218 281.861C153.995 284.361 150.954 285.983 146.516 285.473C140.69 284.803 135.076 277.93 128.787 270.229C121.597 261.426 113.523 251.541 103.239 248.605C93.4812 245.819 80.7937 246.184 69.0095 249.778C63.0976 251.106 57.5392 253.91 52.6882 257.463C47.8811 260.744 43.7248 264.786 40.6506 269.597C43.7283 265.285 47.8574 261.002 52.6882 257.463C57.602 254.11 63.1958 251.551 69.0095 249.778C83.1361 246.604 99.2806 251.851 112.612 275.403C134.556 314.171 183.083 299.203 192.693 283.881Z" fill="#009FE3"/>
<path d="M192.693 283.881L191.603 282.85L191.501 282.958L191.422 283.084L192.693 283.881ZM156.218 281.861L157.339 282.857L158.156 281.938L157.415 280.956L156.218 281.861ZM146.516 285.473L146.687 283.983L146.687 283.983L146.516 285.473ZM128.787 270.229L129.948 269.28L128.787 270.229ZM103.239 248.605L103.65 247.162L103.239 248.605ZM40.6506 269.597L39.3866 268.79L41.8715 270.469L40.6506 269.597ZM112.612 275.403L113.917 274.664L112.612 275.403ZM195.231 277.743C194.239 279.655 193.012 281.363 191.603 282.85L193.782 284.913C195.38 283.224 196.772 281.288 197.894 279.125L195.231 277.743ZM185.647 247.488C196.648 253.196 200.939 266.742 195.231 277.743L197.894 279.125C204.365 266.652 199.5 251.296 187.028 244.825L185.647 247.488ZM155.392 257.072C161.1 246.071 174.645 241.78 185.647 247.488L187.028 244.825C174.556 238.354 159.2 243.219 152.729 255.691L155.392 257.072ZM157.415 280.956C152.358 274.266 151.275 265.006 155.392 257.072L152.729 255.691C148.06 264.69 149.294 275.187 155.021 282.765L157.415 280.956ZM146.344 286.963C151.322 287.535 154.829 285.68 157.339 282.857L155.097 280.864C153.16 283.043 150.585 284.431 146.687 283.983L146.344 286.963ZM127.625 271.178C130.751 275.006 133.791 278.732 136.793 281.576C139.771 284.398 142.931 286.57 146.344 286.963L146.687 283.983C144.275 283.705 141.715 282.107 138.857 279.399C136.023 276.713 133.111 273.153 129.948 269.28L127.625 271.178ZM102.827 250.047C107.647 251.423 112.032 254.454 116.147 258.311C120.264 262.17 124.018 266.762 127.625 271.178L129.948 269.28C126.365 264.893 122.487 260.141 118.199 256.122C113.909 252.102 109.114 248.722 103.65 247.162L102.827 250.047ZM69.4471 251.213C81.0043 247.688 93.3932 247.354 102.827 250.047L103.65 247.162C93.5692 244.284 80.5832 244.68 68.572 248.343L69.4471 251.213ZM53.5747 258.673C58.2944 255.216 63.6664 252.516 69.3384 251.242L68.6807 248.315C62.5289 249.697 56.784 252.603 51.8018 256.253L53.5747 258.673ZM41.9146 270.405C44.8633 265.79 48.8663 261.888 53.5338 258.702L51.8427 256.224C46.8959 259.601 42.5864 263.782 39.3866 268.79L41.9146 270.405ZM51.8018 256.253C46.8397 259.888 42.5984 264.286 39.4297 268.726L41.8715 270.469C44.8582 266.284 48.8751 262.116 53.5747 258.673L51.8018 256.253ZM68.572 248.343C62.6335 250.154 56.8982 252.774 51.8427 256.224L53.5338 258.702C58.3058 255.445 63.7581 252.948 69.4471 251.213L68.572 248.343ZM113.917 274.664C107.151 262.71 99.592 255.263 91.7975 251.236C83.9847 247.199 76.0521 246.658 68.6807 248.315L69.3384 251.242C76.0935 249.724 83.2964 250.22 90.4203 253.901C97.5626 257.591 104.742 264.544 111.307 276.142L113.917 274.664ZM191.422 283.084C189.231 286.577 184.68 290.228 178.571 293.116C172.498 295.988 165.037 298.032 157.202 298.428C141.577 299.216 124.557 293.46 113.917 274.664L111.307 276.142C122.611 296.113 140.827 302.258 157.353 301.424C165.595 301.008 173.439 298.861 179.853 295.828C186.231 292.813 191.349 288.846 193.963 284.678L191.422 283.084Z" fill="black"/>
<circle cx="158.489" cy="262.361" r="18.9861" transform="rotate(179.208 158.489 262.361)" fill="#009FE3" stroke="black" stroke-width="3"/>
<path fill-rule="evenodd" clip-rule="evenodd" d="M40.7941 267.054C39.5883 268.507 38.5629 270.15 37.7668 271.964C33.1828 282.414 37.938 294.602 48.3878 299.186C58.8376 303.77 71.0249 299.014 75.6089 288.565C78.9156 281.027 77.3626 272.584 72.318 266.744C74.0918 264.465 76.6198 262.897 80.4707 263.087C86.2102 263.37 92.5157 269.515 99.505 276.326C105.708 282.371 112.45 288.94 119.813 292.403C155.119 309.008 192.01 314.613 207.122 300.513C191.78 310.532 133.735 305.699 110.234 269.852C89.1559 237.701 48.2082 253.32 40.7941 267.054Z" fill="#009FE3"/>
<path d="M40.7941 267.054L41.9481 268.013L42.0433 267.898L42.1141 267.767L40.7941 267.054ZM72.318 266.744L71.1343 265.823L70.3786 266.794L71.1828 267.725L72.318 266.744ZM80.4707 263.087L80.3968 264.585L80.4707 263.087ZM99.505 276.326L100.552 275.252L100.552 275.252L99.505 276.326ZM119.813 292.403L120.451 291.046L119.813 292.403ZM207.122 300.513L208.146 301.609L206.302 299.257L207.122 300.513ZM110.234 269.852L108.979 270.675L110.234 269.852ZM39.1405 272.567C39.8798 270.882 40.8309 269.358 41.9481 268.013L39.6401 266.096C38.3457 267.655 37.2461 269.418 36.3932 271.362L39.1405 272.567ZM48.9904 297.812C39.2992 293.561 34.8893 282.258 39.1405 272.567L36.3932 271.362C31.4764 282.57 36.5768 295.642 47.7852 300.559L48.9904 297.812ZM74.2353 287.962C69.9841 297.653 58.6815 302.063 48.9904 297.812L47.7852 300.559C58.9937 305.476 72.0658 300.376 76.9826 289.167L74.2353 287.962ZM71.1828 267.725C75.8638 273.144 77.301 280.973 74.2353 287.962L76.9826 289.167C80.5302 281.08 78.8615 272.025 73.4531 265.764L71.1828 267.725ZM80.5445 261.589C76.1508 261.372 73.173 263.204 71.1343 265.823L73.5017 267.666C75.0106 265.727 77.0887 264.422 80.3968 264.585L80.5445 261.589ZM100.552 275.252C97.0759 271.864 93.6838 268.556 90.4305 266.067C87.2048 263.6 83.8873 261.754 80.5445 261.589L80.3968 264.585C82.7936 264.704 85.4985 266.072 88.6078 268.45C91.6894 270.807 94.9447 273.976 98.4581 277.4L100.552 275.252ZM120.451 291.046C113.361 287.711 106.803 281.343 100.552 275.252L98.4581 277.4C104.613 283.398 111.539 290.17 119.175 293.761L120.451 291.046ZM206.099 299.416C199.039 306.003 186.612 308.183 171.205 306.481C155.884 304.79 137.996 299.297 120.451 291.046L119.175 293.761C136.936 302.114 155.147 307.726 170.876 309.463C186.518 311.191 200.093 309.122 208.146 301.609L206.099 299.416ZM108.979 270.675C121.019 289.04 141.823 299.359 161.403 303.845C171.21 306.091 180.777 306.891 188.89 306.488C196.947 306.088 203.773 304.492 207.943 301.768L206.302 299.257C202.801 301.543 196.618 303.1 188.741 303.492C180.922 303.88 171.632 303.11 162.073 300.92C142.919 296.533 122.949 286.512 111.488 269.03L108.979 270.675ZM42.1141 267.767C43.7784 264.684 47.4554 261.308 52.536 258.487C57.582 255.686 63.8664 253.514 70.5631 252.736C83.9131 251.186 98.8105 255.164 108.979 270.675L111.488 269.03C100.579 252.39 84.4637 248.102 70.217 249.756C63.1152 250.581 56.4552 252.88 51.0796 255.865C45.7387 258.83 41.5169 262.558 39.4741 266.342L42.1141 267.767Z" fill="black"/>
<circle cx="72.7408" cy="275.131" r="16.1796" transform="rotate(-4.52877 72.7408 275.131)" fill="#009FE3" stroke="black" stroke-width="3"/>
</svg>
