<svg width="382" height="421" viewBox="0 0 382 421" fill="none" xmlns="http://www.w3.org/2000/svg">
<path d="M101.816 380.312H272.814L358.312 232.173H16.3174L101.816 380.312Z" fill="#009FE3" stroke="#1B1A1A" stroke-width="3" stroke-miterlimit="10"/>
<path d="M366.574 232.171H269.424L256.249 254.985L278.857 294.157H357.13L379.738 254.985L366.574 232.171Z" fill="#009FE3" stroke="#1B1A1A" stroke-width="3" stroke-miterlimit="10"/>
<path d="M242.489 402.053H287.705L310.313 362.885L282.934 315.445L242.489 323.713L219.881 362.885L242.489 402.053Z" fill="#009FE3" stroke="#1B1A1A" stroke-width="3" stroke-miterlimit="10"/>
<path d="M103.588 402.053H148.803L171.408 362.885L148.803 323.713H103.588L80.9796 362.885L103.588 402.053Z" fill="#009FE3" stroke="#1B1A1A" stroke-width="3" stroke-miterlimit="10"/>
<path d="M180.852 419.168H226.068L299.078 294.527L206.431 297.734L158.244 379.999L180.852 419.168Z" fill="#009FE3" stroke="#1B1A1A" stroke-width="3" stroke-miterlimit="10"/>
<path d="M177.515 349.489H252.292L294.345 276.623L259.363 232.175H170.455L140.126 284.71L177.515 349.489Z" fill="#009FE3" stroke="#1B1A1A" stroke-width="3" stroke-miterlimit="10"/>
<path d="M129.332 375.001H174.545L209.491 314.452L174.545 296.66H129.332L106.725 335.829L129.332 375.001Z" fill="#009FE3" stroke="#1B1A1A" stroke-width="3" stroke-miterlimit="10"/>
<path d="M124.56 316.951H224.868L247.476 277.782L224.868 238.61H124.56L101.952 277.782L124.56 316.951Z" fill="#009FE3" stroke="#1B1A1A" stroke-width="3" stroke-miterlimit="10"/>
<path d="M50.4721 327.838H111.077L128.58 297.155L111.077 266.476H50.4721L32.9688 297.155L50.4721 327.838Z" fill="#009FE3" stroke="#1B1A1A" stroke-width="2.541" stroke-miterlimit="10"/>
<path d="M228.637 278.269H309.629L336.237 232.17H202.037L228.637 278.269Z" fill="#009FE3" stroke="#1B1A1A" stroke-width="2.541" stroke-miterlimit="10"/>
<path d="M182.807 243.641H14.4167L47.1395 187.987H141.033L182.807 243.641Z" fill="#009FE3" stroke="#1B1A1A" stroke-width="3" stroke-miterlimit="10"/>
<path d="M333.28 195.122H268.849L238.461 232.225H364.041L333.28 195.122Z" fill="#009FE3" stroke="#1B1A1A" stroke-width="3" stroke-miterlimit="10"/>
<path d="M16.8082 275.036H118.158L131.433 232.515L3 230.798L16.8082 275.036Z" fill="#009FE3" stroke="#1B1A1A" stroke-width="3" stroke-miterlimit="10"/>
<path d="M357.209 357.897L374.508 326.401L359.49 306.312L334.483 304.417L317.184 335.913L332.199 356L357.209 357.897Z" fill="#009FE3" stroke="#1B1A1A" stroke-width="2.541" stroke-miterlimit="10"/>
<path d="M140.588 248.909L192.213 175.398L238.738 176.371L255.44 219.801L203.816 293.312L157.294 292.342L140.588 248.909Z" fill="#009FE3" stroke="#1B1A1A" stroke-width="2.541" stroke-miterlimit="10"/>
<circle cx="225.761" cy="141.317" r="80.6927" transform="rotate(10.0917 225.761 141.317)" fill="#FFDE00" stroke="black" stroke-width="3"/>
<circle cx="283.633" cy="47.2463" r="26.5972" transform="rotate(4.51285 283.633 47.2463)" fill="#E30613" stroke="black" stroke-width="3"/>
<circle cx="277.976" cy="27.3368" r="23.9158" transform="rotate(4.51285 277.976 27.3368)" fill="#E30613" stroke="black" stroke-width="3"/>
<path d="M219.969 61.066C178.182 28.9101 152.786 63.4294 145.312 84.7085C149.479 60.2461 178.601 41.3197 199.729 38.7346C220.858 36.1496 244.48 60.6579 257.283 56.9021C270.329 53.0752 264.909 36.8569 266.552 31.4841L301.259 30.4716C308.252 46.4023 261.756 93.2218 219.969 61.066Z" fill="#E30613" stroke="black" stroke-width="3"/>
<circle cx="259.987" cy="25.4783" r="20.3793" transform="rotate(4.51285 259.987 25.4783)" fill="#E30613" stroke="black" stroke-width="3"/>
<path d="M210.051 54.5133C174.079 26.8318 152.217 56.5479 145.782 74.8661C149.37 53.8075 174.439 37.5146 192.628 35.2893C210.816 33.064 231.152 54.1621 242.173 50.9289C253.404 47.6344 248.738 33.6729 250.152 29.0477L280.03 28.1761C286.05 41.8901 246.024 82.1948 210.051 54.5133Z" fill="#E30613" stroke="black" stroke-width="3"/>
<circle cx="244.03" cy="27.2131" r="17.2217" transform="rotate(156.299 244.03 27.2131)" fill="#FFDE00" stroke="black" stroke-width="3"/>
<circle cx="325.556" cy="158.277" r="43.8863" transform="rotate(14.0531 325.556 158.277)" fill="#E30613" stroke="black" stroke-width="3"/>
<path d="M213.42 200.507C149.348 131.511 112.441 167.868 92.9794 203.129C107.559 161.283 146.412 153.489 184.385 155.19C222.359 156.891 256.706 207.043 280.364 204.218C304.471 201.34 299.725 171.174 304.209 162.199L365.63 170.688C373.231 200.813 277.491 269.503 213.42 200.507Z" fill="#E30613" stroke="black" stroke-width="3"/>
<circle cx="308.336" cy="166.406" r="36.9682" transform="rotate(14.0531 308.336 166.406)" fill="#E30613" stroke="black" stroke-width="3"/>
<path d="M213.293 202.198C158.987 143.719 136.784 169.689 120.289 199.576C132.646 164.108 156.499 162.347 188.684 163.789C220.869 165.23 249.981 207.738 270.033 205.344C290.465 202.904 286.443 177.337 290.243 169.729L342.302 176.924C348.744 202.457 267.598 260.677 213.293 202.198Z" fill="#E30613" stroke="black" stroke-width="3"/>
<circle cx="280.164" cy="164.764" r="31.4165" transform="rotate(165.839 280.164 164.764)" fill="#FFDE00" stroke="black" stroke-width="3"/>
<circle cx="296.899" cy="100.98" r="36.9682" transform="rotate(14.0531 296.899 100.98)" fill="#E30613" stroke="black" stroke-width="3"/>
<path d="M201.856 136.772C147.551 78.2933 125.348 104.263 108.853 134.15C121.21 98.6821 145.062 96.921 177.247 98.3627C209.433 99.8045 238.544 142.312 258.597 139.918C279.029 137.478 275.007 111.911 278.807 104.303L330.865 111.499C337.308 137.032 256.162 195.252 201.856 136.772Z" fill="#E30613" stroke="black" stroke-width="3"/>
<circle cx="175.83" cy="114.786" r="71.7956" transform="rotate(10.0917 175.83 114.786)" fill="#FFDE00" stroke="black" stroke-width="3"/>
<path d="M142.285 204.364C140.708 205.755 138.174 204.187 133.741 198.957C138.767 207.452 141.048 208.105 142.285 204.364C145.616 201.429 144.689 185.316 148.387 162.66C151.122 154.419 155.679 147.741 163.596 145.746C194.093 138.057 206.415 83.718 226.057 82.0899C246.071 80.431 247.2 105.773 252.315 112.335L300.697 95.2283C301.888 69.4453 212.959 29.4256 172.41 96.2237C157.762 120.353 151.468 143.779 148.387 162.66C143.414 177.642 144.461 197.789 142.285 204.364Z" fill="#E30613"/>
<path d="M133.741 198.957C155.331 224.429 131.86 163.022 172.41 96.2237C212.959 29.4256 301.888 69.4453 300.697 95.2283L252.315 112.335C247.2 105.773 246.071 80.431 226.057 82.0899C206.415 83.718 194.093 138.057 163.596 145.746C133.099 153.434 152.461 230.599 133.741 198.957Z" stroke="black" stroke-width="3"/>
<path d="M102.269 177.74C92.7322 177.968 84.3468 173.518 77.3394 165.251C84.1697 176.796 92.7048 179.374 102.269 177.74C109.647 177.563 117.714 174.586 126.365 168.409C135.341 163.978 144.663 159.214 153.942 156.875C183.081 149.529 201.776 105.075 220.542 103.52C239.665 101.934 240.745 126.148 245.631 132.418L291.859 116.073C292.997 91.438 208.028 53.2004 169.284 117.024C153.881 142.398 139.454 159.065 126.365 168.409C117.917 172.581 109.776 176.457 102.269 177.74Z" fill="#E30613"/>
<path d="M77.3394 165.251C97.9684 189.588 130.54 180.848 169.284 117.024C208.028 53.2004 292.997 91.438 291.859 116.073L245.631 132.418C240.745 126.148 239.665 101.934 220.542 103.52C201.776 105.075 183.081 149.529 153.942 156.875C124.802 164.221 95.2254 195.484 77.3394 165.251Z" stroke="black" stroke-width="3"/>
<path d="M281.815 132.492C274.93 118.033 257.68 111.928 243.29 118.846C228.899 125.763 222.807 143.088 229.692 157.547C236.578 172.005 253.828 178.11 268.218 171.193C282.608 164.276 288.701 146.95 281.815 132.492Z" fill="#E30613" stroke="black" stroke-width="3"/>
<path d="M176.547 132.263C143.725 186.332 116.934 182.486 99.4581 161.869C114.61 187.481 138.864 172.246 163.55 166.023C188.235 159.799 204.073 122.14 219.971 120.822C236.171 119.479 237.086 139.992 241.225 145.304L280.388 131.457C281.352 110.587 209.37 78.1938 176.547 132.263Z" fill="#E30613" stroke="black" stroke-width="3"/>
<path d="M209.731 149.629C209.104 163.215 219.559 174.724 233.07 175.349C246.581 175.973 258.053 165.477 258.681 151.891C259.309 138.305 248.853 126.796 235.343 126.171C221.832 125.547 210.359 136.043 209.731 149.629Z" fill="#FFDE00" stroke="black" stroke-width="3"/>
<circle cx="187.147" cy="178.498" r="28.648" transform="rotate(27.4222 187.147 178.498)" fill="#E30613" stroke="black" stroke-width="3"/>
<path d="M32.7337 165.977C26.6505 170.433 21.451 175.827 17.5753 181.256C21.4466 175.198 26.6803 170.108 32.7337 165.977C38.8422 161.502 45.8417 157.972 53.2862 156.299C68.1254 151.774 84.102 151.314 96.389 154.822C120.668 161.753 135.162 199.439 150.885 201.248C166.906 203.09 168.473 182.867 172.749 177.755L211.138 192.675C211.423 213.31 139.002 242.997 108.192 188.567C91.4048 158.91 71.0749 152.302 53.2862 156.299C45.9653 158.532 38.9213 161.754 32.7337 165.977Z" fill="#E30613"/>
<path d="M17.5753 181.256C34.6421 157.346 77.383 134.138 108.192 188.567C139.002 242.997 211.423 213.31 211.138 192.675L172.749 177.755C168.473 182.867 166.906 203.09 150.885 201.248C135.162 199.439 120.668 161.753 96.389 154.822C72.1099 147.89 33.4244 156.452 17.5753 181.256Z" stroke="black" stroke-width="3"/>
<circle cx="165.963" cy="172.144" r="24.297" transform="rotate(179.208 165.963 172.144)" fill="#FFDE00" stroke="black" stroke-width="3"/>
<circle cx="157.44" cy="179.34" r="23.8524" transform="rotate(27.4222 157.44 179.34)" fill="#E30613" stroke="black" stroke-width="3"/>
<path d="M27.5897 168.809C22.4742 172.556 18.1017 177.092 14.8425 181.658C18.098 176.563 22.4992 172.283 27.5897 168.809C32.7266 165.045 38.6126 162.077 44.873 160.67C57.3518 156.865 70.787 156.478 81.1196 159.428C101.537 165.257 113.725 196.948 126.947 198.469C140.42 200.018 141.737 183.012 145.333 178.713L177.616 191.26C177.856 208.613 116.954 233.577 91.0454 187.806C76.9282 162.865 59.8321 157.309 44.873 160.67C38.7166 162.548 32.793 165.257 27.5897 168.809Z" fill="#E30613"/>
<path d="M14.8425 181.658C29.1946 161.551 65.1368 142.034 91.0454 187.806C116.954 233.577 177.856 208.613 177.616 191.26L145.333 178.713C141.737 183.012 140.42 200.018 126.947 198.469C113.725 196.948 101.537 165.257 81.1196 159.428C60.7024 153.599 28.1705 160.799 14.8425 181.658Z" stroke="black" stroke-width="3"/>
<circle cx="139.627" cy="173.993" r="20.1936" transform="rotate(179.208 139.627 173.993)" fill="#FFDE00" stroke="black" stroke-width="3"/>
<circle cx="31.8255" cy="192.952" r="20.3793" transform="rotate(-156.314 31.8255 192.952)" fill="#E30613" stroke="black" stroke-width="3"/>
<path d="M88.527 181.927C113.413 219.887 174.88 225.005 191.126 214.395C175.123 229.326 136.058 223.391 98.6708 205.807C82.0889 198.009 68.4818 175.329 57.0097 174.764C45.3202 174.187 45.1423 188.907 42.2875 192.811L13.7807 183.822C12.5981 168.891 63.6409 143.967 88.527 181.927Z" fill="#E30613" stroke="black" stroke-width="3"/>
<circle cx="48.8243" cy="187.517" r="17.2217" transform="rotate(-4.52877 48.8243 187.517)" fill="#FFDE00" stroke="black" stroke-width="3"/>
</svg>
