<svg width="652" height="634" viewBox="0 0 652 634" fill="none" xmlns="http://www.w3.org/2000/svg">
<circle cx="646.094" cy="122.368" r="4.97032" fill="white"/>
<circle cx="646.094" cy="148.876" r="4.97032" fill="white"/>
<circle cx="646.094" cy="135.623" r="4.97032" fill="white"/>
<circle cx="646.094" cy="162.131" r="4.97032" fill="white"/>
<path d="M135.726 242.69L84.4683 190.927L154.925 209.436L135.726 242.69Z" fill="#FFDE00" stroke="#1B1A1A" stroke-width="3"/>
<path d="M85.4417 138.143C77.9039 147.847 71.4458 175.062 85.4417 193.32C72.6553 184.52 48.6985 167.859 85.4417 138.143Z" fill="#E30613" stroke="#1B1A1A" stroke-width="3"/>
<path d="M85.2487 193.349C92.7865 203.053 99.2447 230.268 85.2487 248.526C98.0351 239.727 121.992 223.065 85.2487 193.349Z" fill="#E30613" stroke="#1B1A1A" stroke-width="3"/>
<path d="M30.2383 193.281C39.9426 200.819 67.157 207.277 85.4154 193.281C76.6157 206.068 59.9542 230.025 30.2383 193.281Z" fill="#E30613" stroke="#1B1A1A" stroke-width="3"/>
<path d="M85.4512 193.476C95.1555 185.939 122.37 179.48 140.628 193.476C131.829 180.69 115.167 156.733 85.4512 193.476Z" fill="#E30613" stroke="#1B1A1A" stroke-width="3"/>
<path d="M46.4145 154.295C47.9464 166.487 62.6234 190.297 85.4306 193.311C70.1669 196.13 41.4454 201.289 46.4145 154.295Z" fill="#E30613" stroke="#1B1A1A" stroke-width="3"/>
<path d="M85.3179 193.475C97.5099 195.007 121.32 209.684 124.334 232.491C127.153 217.227 132.312 188.506 85.3179 193.475Z" fill="#E30613" stroke="#1B1A1A" stroke-width="3"/>
<path d="M46.3687 232.323C58.5607 230.791 82.3708 216.114 85.3848 193.307C88.2038 208.57 93.3624 237.292 46.3687 232.323Z" fill="#E30613" stroke="#1B1A1A" stroke-width="3"/>
<path d="M85.5493 193.42C87.0812 181.228 101.758 157.418 124.565 154.404C109.302 151.585 80.5802 146.427 85.5493 193.42Z" fill="#E30613" stroke="#1B1A1A" stroke-width="3"/>
<path d="M495.507 384.665L546.765 436.429L476.308 417.919L495.507 384.665Z" fill="#FFDE00" stroke="#1B1A1A" stroke-width="3"/>
<path d="M545.792 489.212C553.33 479.508 559.788 452.294 545.792 434.035C558.578 442.835 582.535 459.496 545.792 489.212Z" fill="#E30613" stroke="#1B1A1A" stroke-width="3"/>
<path d="M545.985 434.006C538.447 424.302 531.989 397.088 545.985 378.829C533.198 387.629 509.241 404.29 545.985 434.006Z" fill="#E30613" stroke="#1B1A1A" stroke-width="3"/>
<path d="M600.995 434.074C591.291 426.536 564.076 420.078 545.818 434.074C554.618 421.288 571.279 397.331 600.995 434.074Z" fill="#E30613" stroke="#1B1A1A" stroke-width="3"/>
<path d="M545.782 433.879C536.078 441.417 508.863 447.875 490.605 433.879C499.405 446.665 516.066 470.622 545.782 433.879Z" fill="#E30613" stroke="#1B1A1A" stroke-width="3"/>
<path d="M584.819 473.059C583.287 460.867 568.61 437.057 545.803 434.043C561.066 431.224 589.788 426.065 584.819 473.059Z" fill="#E30613" stroke="#1B1A1A" stroke-width="3"/>
<path d="M545.915 433.879C533.723 432.347 509.913 417.67 506.899 394.863C504.08 410.127 498.922 438.848 545.915 433.879Z" fill="#E30613" stroke="#1B1A1A" stroke-width="3"/>
<path d="M584.865 395.031C572.673 396.563 548.863 411.24 545.849 434.047C543.03 418.784 537.871 390.062 584.865 395.031Z" fill="#E30613" stroke="#1B1A1A" stroke-width="3"/>
<path d="M545.683 433.934C544.151 446.126 529.474 469.936 506.667 472.95C521.931 475.769 550.652 480.927 545.683 433.934Z" fill="#E30613" stroke="#1B1A1A" stroke-width="3"/>
<path d="M502.885 260.211L554.143 208.448L483.686 226.957L502.885 260.211Z" fill="#FFDE00" stroke="#1B1A1A" stroke-width="3"/>
<path d="M553.17 155.665C560.707 165.369 567.166 192.584 553.17 210.842C565.956 202.042 589.913 185.381 553.17 155.665Z" fill="#E30613" stroke="#1B1A1A" stroke-width="3"/>
<path d="M553.363 210.871C545.825 220.575 539.367 247.79 553.363 266.048C540.576 257.248 516.619 240.587 553.363 210.871Z" fill="#E30613" stroke="#1B1A1A" stroke-width="3"/>
<path d="M608.373 210.803C598.669 218.341 571.454 224.799 553.196 210.803C561.996 223.59 578.657 247.547 608.373 210.803Z" fill="#E30613" stroke="#1B1A1A" stroke-width="3"/>
<path d="M553.16 210.999C543.456 203.461 516.241 197.003 497.983 210.999C506.783 198.212 523.444 174.256 553.16 210.999Z" fill="#E30613" stroke="#1B1A1A" stroke-width="3"/>
<path d="M592.197 171.817C590.665 184.009 575.988 207.819 553.181 210.833C568.444 213.652 597.166 218.811 592.197 171.817Z" fill="#E30613" stroke="#1B1A1A" stroke-width="3"/>
<path d="M553.293 210.997C541.101 212.529 517.291 227.206 514.277 250.013C511.458 234.749 506.3 206.028 553.293 210.997Z" fill="#E30613" stroke="#1B1A1A" stroke-width="3"/>
<path d="M592.243 249.845C580.051 248.313 556.24 233.636 553.227 210.829C550.408 226.092 545.249 254.814 592.243 249.845Z" fill="#E30613" stroke="#1B1A1A" stroke-width="3"/>
<path d="M553.061 210.942C551.529 198.75 536.852 174.94 514.045 171.926C529.309 169.107 558.03 163.949 553.061 210.942Z" fill="#E30613" stroke="#1B1A1A" stroke-width="3"/>
<path d="M128.348 367.144L77.0904 418.907L147.548 400.398L128.348 367.144Z" fill="#FFDE00" stroke="#1B1A1A" stroke-width="3"/>
<path d="M79.9095 470.969C72.3717 461.264 65.9135 434.05 79.9095 415.792C67.1231 424.591 43.1662 441.253 79.9095 470.969Z" fill="#E30613" stroke="#1B1A1A" stroke-width="3"/>
<path d="M77.8708 416.485C85.4086 406.781 91.8667 379.566 77.8708 361.308C90.6572 370.107 114.614 386.769 77.8708 416.485Z" fill="#E30613" stroke="#1B1A1A" stroke-width="3"/>
<path d="M22.8603 416.553C32.5646 409.015 59.7791 402.557 78.0375 416.553C69.2377 403.766 52.5763 379.809 22.8603 416.553Z" fill="#E30613" stroke="#1B1A1A" stroke-width="3"/>
<path d="M78.0732 416.358C87.7775 423.895 114.992 430.354 133.25 416.358C124.451 429.144 107.789 453.101 78.0732 416.358Z" fill="#E30613" stroke="#1B1A1A" stroke-width="3"/>
<path d="M39.0366 455.538C40.5685 443.346 55.2454 419.535 78.0527 416.521C62.789 413.702 34.0675 408.544 39.0366 455.538Z" fill="#E30613" stroke="#1B1A1A" stroke-width="3"/>
<path d="M77.94 416.357C90.132 414.826 113.942 400.149 116.956 377.341C119.775 392.605 124.934 421.327 77.94 416.357Z" fill="#E30613" stroke="#1B1A1A" stroke-width="3"/>
<path d="M38.9908 377.51C51.1828 379.042 74.9929 393.719 78.0069 416.526C80.8259 401.262 85.9845 372.541 38.9908 377.51Z" fill="#E30613" stroke="#1B1A1A" stroke-width="3"/>
<path d="M78.1723 416.412C79.7042 428.604 94.3812 452.414 117.188 455.428C101.925 458.247 73.2032 463.406 78.1723 416.412Z" fill="#E30613" stroke="#1B1A1A" stroke-width="3"/>
<path d="M357.052 363.497L305.793 311.734L376.251 330.243L357.052 363.497Z" fill="#FFDE00" stroke="#1B1A1A" stroke-width="3"/>
<path d="M306.767 258.95C299.229 268.654 292.771 295.868 306.767 314.127C293.981 305.327 270.024 288.666 306.767 258.95Z" fill="#E30613" stroke="#1B1A1A" stroke-width="3"/>
<path d="M306.574 314.156C314.112 323.86 320.57 351.075 306.574 369.333C319.36 360.533 343.317 343.872 306.574 314.156Z" fill="#E30613" stroke="#1B1A1A" stroke-width="3"/>
<path d="M251.563 314.088C261.268 321.626 288.482 328.084 306.741 314.088C297.941 326.874 281.279 350.831 251.563 314.088Z" fill="#E30613" stroke="#1B1A1A" stroke-width="3"/>
<path d="M306.776 314.283C316.481 306.745 343.695 300.287 361.953 314.283C353.154 301.497 336.492 277.54 306.776 314.283Z" fill="#E30613" stroke="#1B1A1A" stroke-width="3"/>
<path d="M267.74 275.102C269.272 287.294 283.949 311.104 306.756 314.118C291.492 316.937 262.771 322.095 267.74 275.102Z" fill="#E30613" stroke="#1B1A1A" stroke-width="3"/>
<path d="M306.643 314.282C318.835 315.814 342.645 330.491 345.659 353.298C348.478 338.034 353.637 309.313 306.643 314.282Z" fill="#E30613" stroke="#1B1A1A" stroke-width="3"/>
<path d="M267.694 353.129C279.886 351.598 303.696 336.921 306.71 314.113C309.529 329.377 314.688 358.099 267.694 353.129Z" fill="#E30613" stroke="#1B1A1A" stroke-width="3"/>
<path d="M306.874 314.227C308.406 302.035 323.083 278.225 345.891 275.211C330.627 272.392 301.905 267.233 306.874 314.227Z" fill="#E30613" stroke="#1B1A1A" stroke-width="3"/>
<path d="M239.922 498.275L188.159 549.533L206.669 479.076L239.922 498.275Z" fill="#FFDE00" stroke="#1B1A1A" stroke-width="3"/>
<path d="M135.376 548.559C145.08 556.097 172.295 562.555 190.553 548.559C181.753 561.346 165.092 585.303 135.376 548.559Z" fill="#E30613" stroke="#1B1A1A" stroke-width="3"/>
<path d="M190.581 548.752C200.285 541.214 227.5 534.756 245.758 548.752C236.958 535.966 220.297 512.009 190.581 548.752Z" fill="#E30613" stroke="#1B1A1A" stroke-width="3"/>
<path d="M190.514 603.763C198.052 594.058 204.51 566.844 190.514 548.586C203.301 557.385 227.258 574.047 190.514 603.763Z" fill="#E30613" stroke="#1B1A1A" stroke-width="3"/>
<path d="M190.709 548.55C183.171 538.846 176.713 511.631 190.709 493.373C177.923 502.172 153.966 518.834 190.709 548.55Z" fill="#E30613" stroke="#1B1A1A" stroke-width="3"/>
<path d="M151.529 587.587C163.721 586.055 187.531 571.378 190.545 548.571C193.364 563.835 198.523 592.556 151.529 587.587Z" fill="#E30613" stroke="#1B1A1A" stroke-width="3"/>
<path d="M190.708 548.684C192.24 536.492 206.917 512.681 229.725 509.667C214.461 506.848 185.739 501.69 190.708 548.684Z" fill="#E30613" stroke="#1B1A1A" stroke-width="3"/>
<path d="M229.556 587.633C228.024 575.441 213.347 551.631 190.54 548.617C205.804 545.798 234.525 540.639 229.556 587.633Z" fill="#E30613" stroke="#1B1A1A" stroke-width="3"/>
<path d="M190.654 548.452C178.462 546.92 154.652 532.243 151.638 509.436C148.819 524.7 143.66 553.421 190.654 548.452Z" fill="#E30613" stroke="#1B1A1A" stroke-width="3"/>
<path d="M381.899 135.725L433.662 84.4673L415.153 154.924L381.899 135.725Z" fill="#FFDE00" stroke="#1B1A1A" stroke-width="3"/>
<path d="M486.445 85.4408C476.741 77.9029 449.527 71.4448 431.268 85.4408C440.068 72.6543 456.729 48.6975 486.445 85.4408Z" fill="#E30613" stroke="#1B1A1A" stroke-width="3"/>
<path d="M431.24 85.2477C421.536 92.7856 394.321 99.2437 376.063 85.2477C384.863 98.0341 401.524 121.991 431.24 85.2477Z" fill="#E30613" stroke="#1B1A1A" stroke-width="3"/>
<path d="M431.307 30.2373C423.769 39.9416 417.311 67.1561 431.307 85.4144C418.521 76.6147 394.564 59.9532 431.307 30.2373Z" fill="#E30613" stroke="#1B1A1A" stroke-width="3"/>
<path d="M431.112 85.4502C438.65 95.1545 445.108 122.369 431.112 140.627C443.898 131.828 467.855 115.166 431.112 85.4502Z" fill="#E30613" stroke="#1B1A1A" stroke-width="3"/>
<path d="M470.292 46.4131C458.1 47.945 434.29 62.6219 431.276 85.4292C428.457 70.1654 423.299 41.444 470.292 46.4131Z" fill="#E30613" stroke="#1B1A1A" stroke-width="3"/>
<path d="M431.113 85.3164C429.581 97.5085 414.904 121.319 392.097 124.333C407.36 127.152 436.082 132.31 431.113 85.3164Z" fill="#E30613" stroke="#1B1A1A" stroke-width="3"/>
<path d="M392.265 46.3672C393.797 58.5593 408.474 82.3694 431.281 85.3833C416.017 88.2024 387.296 93.361 392.265 46.3672Z" fill="#E30613" stroke="#1B1A1A" stroke-width="3"/>
<path d="M431.168 85.5478C443.36 87.0797 467.17 101.757 470.184 124.564C473.003 109.3 478.161 80.5787 431.168 85.5478Z" fill="#E30613" stroke="#1B1A1A" stroke-width="3"/>
<path d="M257.444 128.348L205.681 77.0904L224.19 147.548L257.444 128.348Z" fill="#FFDE00" stroke="#1B1A1A" stroke-width="3"/>
<path d="M152.897 78.0638C162.602 70.526 189.816 64.0678 208.075 78.0638C199.275 65.2774 182.613 41.3205 152.897 78.0638Z" fill="#E30613" stroke="#1B1A1A" stroke-width="3"/>
<path d="M208.103 77.8708C217.807 85.4086 245.021 91.8667 263.28 77.8708C254.48 90.6572 237.818 114.614 208.103 77.8708Z" fill="#E30613" stroke="#1B1A1A" stroke-width="3"/>
<path d="M208.036 22.8604C215.574 32.5646 222.032 59.7791 208.036 78.0375C220.822 69.2377 244.779 52.5763 208.036 22.8604Z" fill="#E30613" stroke="#1B1A1A" stroke-width="3"/>
<path d="M208.231 78.0728C200.693 87.777 194.235 114.992 208.231 133.25C195.444 124.45 171.488 107.789 208.231 78.0728Z" fill="#E30613" stroke="#1B1A1A" stroke-width="3"/>
<path d="M169.05 39.0366C181.242 40.5685 205.052 55.2454 208.066 78.0527C210.885 62.789 216.044 34.0675 169.05 39.0366Z" fill="#E30613" stroke="#1B1A1A" stroke-width="3"/>
<path d="M208.23 77.94C209.762 90.132 224.439 113.942 247.246 116.956C231.982 119.775 203.261 124.934 208.23 77.94Z" fill="#E30613" stroke="#1B1A1A" stroke-width="3"/>
<path d="M247.078 38.9908C245.546 51.1828 230.869 74.9929 208.062 78.0069C223.325 80.8259 252.047 85.9845 247.078 38.9908Z" fill="#E30613" stroke="#1B1A1A" stroke-width="3"/>
<path d="M208.175 78.1718C195.983 79.7038 172.173 94.3807 169.159 117.188C166.34 101.924 161.182 73.2028 208.175 78.1718Z" fill="#E30613" stroke="#1B1A1A" stroke-width="3"/>
<path d="M364.377 505.652L416.14 556.91L397.631 486.452L364.377 505.652Z" fill="#FFDE00" stroke="#1B1A1A" stroke-width="3"/>
<path d="M468.924 555.936C459.22 563.474 432.005 569.932 413.747 555.936C422.546 568.723 439.208 592.679 468.924 555.936Z" fill="#E30613" stroke="#1B1A1A" stroke-width="3"/>
<path d="M413.719 556.129C404.014 548.591 376.8 542.133 358.542 556.129C367.341 543.343 384.003 519.386 413.719 556.129Z" fill="#E30613" stroke="#1B1A1A" stroke-width="3"/>
<path d="M413.785 611.14C406.248 601.435 399.79 574.221 413.785 555.963C400.999 564.762 377.042 581.424 413.785 611.14Z" fill="#E30613" stroke="#1B1A1A" stroke-width="3"/>
<path d="M413.59 555.927C421.128 546.223 427.586 519.008 413.59 500.75C426.377 509.55 450.334 526.211 413.59 555.927Z" fill="#E30613" stroke="#1B1A1A" stroke-width="3"/>
<path d="M452.771 594.963C440.579 593.432 416.769 578.755 413.755 555.947C410.936 571.211 405.777 599.932 452.771 594.963Z" fill="#E30613" stroke="#1B1A1A" stroke-width="3"/>
<path d="M413.591 556.06C412.059 543.868 397.382 520.058 374.575 517.044C389.839 514.225 418.56 509.066 413.591 556.06Z" fill="#E30613" stroke="#1B1A1A" stroke-width="3"/>
<path d="M374.744 595.009C376.276 582.817 390.952 559.007 413.76 555.993C398.496 553.174 369.775 548.016 374.744 595.009Z" fill="#E30613" stroke="#1B1A1A" stroke-width="3"/>
<path d="M413.646 555.828C425.838 554.296 449.648 539.619 452.662 516.812C455.481 532.076 460.64 560.797 413.646 555.828Z" fill="#E30613" stroke="#1B1A1A" stroke-width="3"/>
<path d="M604.537 335.031C602.365 334.551 600.251 333.889 598.152 333.147C596.808 332.673 595.449 332.157 594.079 331.636C591.212 330.547 588.299 329.441 585.393 328.666C581.009 327.498 576.406 327.005 571.351 328.266C566.308 329.525 560.955 332.496 554.993 338.019L554.92 338.087L554.856 338.164C545.651 349.306 535.379 354.754 525.04 355.968C514.677 357.185 504.064 354.169 494.179 348.044C483.998 341.735 475.141 338.621 466.978 340.307C458.778 342 451.764 348.428 444.998 359.959C439.291 369.687 432.777 375.331 425.972 377.835C419.179 380.335 411.888 379.782 404.461 376.715C403.441 376.294 402.759 375.246 402.759 374.036L402.759 269.218C402.759 266.131 406.44 265.161 407.984 267.645C408.335 268.21 408.684 268.773 409.032 269.334C411.624 273.513 414.128 277.551 416.618 281.127C419.44 285.178 422.306 288.731 425.356 291.285C428.419 293.849 431.763 295.485 435.505 295.513C439.244 295.541 443.115 293.962 447.234 290.637C451.832 286.926 456.196 285.17 460.344 284.804C464.497 284.437 468.57 285.451 472.601 287.505C480.73 291.648 488.45 299.892 495.844 308.875C507.975 323.613 530.612 332.052 551.45 317.552L551.498 317.519L551.543 317.482C557.111 312.932 562.325 311.49 567.28 311.875C572.298 312.266 577.227 314.545 582.152 317.777C586.27 320.479 590.272 323.768 594.258 327.042C595.045 327.689 595.833 328.336 596.62 328.977C599.255 331.125 601.897 333.219 604.537 335.031Z" fill="#FFDE00" stroke="#1B1A1A" stroke-width="3"/>
<path d="M21.6292 300.358C23.801 300.838 25.915 301.5 28.0145 302.241C29.3579 302.716 30.7172 303.232 32.0868 303.752C34.9542 304.842 37.8667 305.948 40.7729 306.722C45.1572 307.89 49.7601 308.384 54.8148 307.122C59.8583 305.864 65.2113 302.893 71.1726 297.37L71.2459 297.302L71.3096 297.225C80.515 286.082 90.7873 280.635 101.126 279.421C111.489 278.204 122.102 281.22 131.987 287.345C142.168 293.653 151.025 296.767 159.188 295.082C167.388 293.389 174.402 286.961 181.168 275.43C186.875 265.702 193.389 260.057 200.194 257.553C206.987 255.054 214.278 255.607 221.705 258.674C222.725 259.095 223.407 260.143 223.407 261.353L223.407 366.171C223.407 369.257 219.726 370.228 218.182 367.744C217.831 367.179 217.482 366.615 217.134 366.054C214.542 361.876 212.038 357.838 209.548 354.262C206.726 350.21 203.86 346.658 200.81 344.104C197.747 341.539 194.403 339.904 190.661 339.876C186.922 339.848 183.051 341.426 178.932 344.751C174.334 348.463 169.97 350.218 165.822 350.585C161.669 350.952 157.596 349.938 153.565 347.884C145.436 343.741 137.716 335.496 130.322 326.514C118.191 311.776 95.5538 303.336 74.7158 317.837L74.6683 317.87L74.6234 317.906C69.0554 322.456 63.8415 323.899 58.8865 323.513C53.868 323.123 48.9393 320.843 44.0142 317.612C39.8965 314.909 35.8937 311.621 31.9084 308.347C31.1206 307.699 30.3334 307.053 29.5462 306.411C26.9111 304.264 24.2693 302.17 21.6292 300.358Z" fill="#FFDE00" stroke="#1B1A1A" stroke-width="3"/>
<path d="M297.24 601.799C297.72 599.627 298.382 597.513 299.123 595.414C299.597 594.07 300.114 592.711 300.634 591.341C301.723 588.474 302.83 585.562 303.604 582.655C304.772 578.271 305.266 573.668 304.004 568.613C302.745 563.57 299.774 558.217 294.251 552.256L294.184 552.182L294.107 552.119C282.964 542.913 277.517 532.641 276.303 522.303C275.085 511.939 278.102 501.326 284.227 491.441C290.535 481.26 293.649 472.403 291.964 464.241C290.271 456.041 283.843 449.026 272.311 442.26C262.584 436.553 256.939 430.04 254.435 423.235C251.936 416.442 252.489 409.151 255.556 401.723C255.977 400.703 257.025 400.021 258.235 400.021L363.053 400.021C366.139 400.021 367.11 403.703 364.626 405.246C364.061 405.597 363.497 405.946 362.936 406.294C358.758 408.886 354.72 411.39 351.143 413.881C347.092 416.702 343.54 419.568 340.986 422.618C338.421 425.681 336.786 429.025 336.758 432.767C336.73 436.506 338.308 440.377 341.633 444.496C345.345 449.094 347.1 453.458 347.467 457.606C347.833 461.759 346.82 465.832 344.765 469.863C340.623 477.993 332.378 485.712 323.396 493.106C308.658 505.238 300.218 527.874 314.719 548.712L314.752 548.76L314.788 548.805C319.338 554.373 320.781 559.587 320.395 564.542C320.004 569.56 317.725 574.489 314.493 579.414C311.791 583.532 308.503 587.535 305.228 591.52C304.581 592.308 303.935 593.095 303.293 593.882C301.146 596.517 299.052 599.159 297.24 601.799Z" fill="#FFDE00" stroke="#1B1A1A" stroke-width="3"/>
<path d="M331.867 26.2401C331.387 28.4118 330.725 30.5258 329.983 32.6253C329.509 33.9688 328.993 35.3281 328.472 36.6977C327.383 39.5651 326.277 42.4776 325.502 45.3837C324.334 49.768 323.841 54.3709 325.102 59.4256C326.361 64.4691 329.332 69.8222 334.855 75.7835L334.923 75.8568L335 75.9204C346.142 85.1258 351.59 95.3982 352.804 105.736C354.021 116.1 351.005 126.713 344.88 136.598C338.571 146.779 335.457 155.636 337.143 163.798C338.836 171.998 345.264 179.013 356.795 185.779C366.523 191.486 372.167 197.999 374.671 204.804C377.171 211.597 376.618 218.888 373.551 226.316C373.13 227.336 372.082 228.018 370.872 228.018L266.054 228.018C262.967 228.018 261.997 224.336 264.481 222.793C265.046 222.442 265.609 222.093 266.17 221.745C270.349 219.153 274.387 216.649 277.963 214.158C282.014 211.337 285.567 208.471 288.121 205.421C290.685 202.358 292.321 199.014 292.349 195.272C292.377 191.533 290.798 187.662 287.473 183.543C283.762 178.945 282.006 174.581 281.64 170.433C281.273 166.28 282.287 162.207 284.341 158.176C288.484 150.046 296.728 142.327 305.71 134.933C320.448 122.801 328.888 100.165 314.388 79.3266L314.355 79.2791L314.318 79.2343C309.768 73.6663 308.326 68.4523 308.711 63.4974C309.102 58.4788 311.381 53.5502 314.613 48.6251C317.315 44.5073 320.604 40.5046 323.878 36.5192C324.525 35.7314 325.172 34.9443 325.813 34.1571C327.961 31.5219 330.055 28.8801 331.867 26.2401Z" fill="#FFDE00" stroke="#1B1A1A" stroke-width="3"/>
<path d="M313.544 501.326C417.253 501.326 501.326 417.253 501.326 313.544C501.326 209.835 417.253 125.762 313.544 125.762C209.835 125.762 125.762 209.835 125.762 313.544C125.762 417.253 209.835 501.326 313.544 501.326ZM510.314 313.544C510.314 422.217 422.217 510.314 313.544 510.314C204.871 510.314 116.773 422.217 116.773 313.544C116.773 204.871 204.871 116.773 313.544 116.773C422.217 116.773 510.314 204.871 510.314 313.544Z" fill="#E30613" stroke="#1B1A1A" stroke-width="3"/>
<path d="M507.736 172.999C506.927 173.445 506.099 173.862 505.257 174.264C504.326 174.709 503.357 175.145 502.375 175.586C500.299 176.519 498.168 177.477 496.229 178.6C493.293 180.301 490.574 182.488 488.549 185.86C486.53 189.222 485.275 193.637 485.045 199.68L485.041 199.78L485.05 199.879C486.053 210.418 483.553 218.521 478.861 224.461C474.154 230.422 467.124 234.35 458.829 236.298C450.196 238.326 443.818 241.354 440.35 246.626C436.862 251.931 436.585 259.086 439.083 268.678C441.124 276.512 440.721 282.668 438.64 287.385C436.565 292.087 432.739 295.547 427.556 297.846C426.579 298.279 425.366 298.034 424.503 297.171L373.029 245.697C370.866 243.533 372.72 240.297 375.597 240.964C382.762 242.627 389.56 244.058 394.767 243.196C397.44 242.754 399.807 241.695 401.596 239.68C403.373 237.68 404.44 234.894 404.827 231.26C405.283 226.984 406.621 223.867 408.537 221.58C410.456 219.289 413.043 217.727 416.167 216.712C422.489 214.658 430.748 214.922 439.3 215.751C453.475 217.126 469.933 209.632 473.287 190.928L473.297 190.871L473.303 190.813C473.826 185.619 475.754 182.241 478.457 179.929C481.208 177.575 484.897 176.209 489.128 175.331C492.666 174.597 496.448 174.226 500.238 173.855C500.989 173.781 501.74 173.708 502.489 173.631C504.258 173.451 506.023 173.254 507.736 172.999Z" fill="#FFDE00" stroke="#1B1A1A" stroke-width="3"/>
<path d="M458.603 503.531C458.157 502.721 457.74 501.893 457.338 501.052C456.893 500.121 456.457 499.152 456.016 498.17C455.083 496.094 454.125 493.963 453.002 492.024C451.301 489.087 449.114 486.369 445.742 484.344C442.38 482.325 437.965 481.07 431.922 480.84L431.822 480.836L431.723 480.845C421.184 481.848 413.081 479.348 407.141 474.656C401.18 469.949 397.252 462.919 395.304 454.624C393.276 445.991 390.248 439.613 384.976 436.145C379.672 432.657 372.516 432.38 362.925 434.878C355.09 436.919 348.934 436.516 344.217 434.435C339.515 432.36 336.055 428.534 333.756 423.351C333.323 422.374 333.569 421.161 334.431 420.298L385.906 368.824C388.069 366.661 391.305 368.515 390.638 371.392C388.975 378.557 387.544 385.355 388.406 390.562C388.848 393.235 389.907 395.602 391.922 397.391C393.923 399.168 396.708 400.235 400.342 400.622C404.618 401.078 407.735 402.416 410.022 404.332C412.313 406.251 413.875 408.838 414.89 411.962C416.944 418.283 416.68 426.543 415.851 435.095C414.476 449.27 421.97 465.728 440.674 469.082L440.731 469.092L440.789 469.098C445.983 469.621 449.361 471.549 451.673 474.252C454.027 477.003 455.393 480.691 456.271 484.923C457.005 488.461 457.376 492.243 457.747 496.033C457.821 496.784 457.894 497.535 457.971 498.284C458.151 500.053 458.348 501.818 458.603 503.531Z" fill="#FFDE00" stroke="#1B1A1A" stroke-width="3"/>
<path d="M128.071 461.744C128.88 461.298 129.708 460.881 130.55 460.479C131.48 460.034 132.45 459.598 133.431 459.157C135.508 458.224 137.639 457.266 139.578 456.143C142.514 454.442 145.233 452.255 147.258 448.883C149.277 445.521 150.531 441.106 150.762 435.063L150.766 434.964L150.756 434.864C149.753 424.325 152.253 416.223 156.945 410.282C161.653 404.321 168.682 400.393 176.977 398.445C185.611 396.417 191.988 393.389 195.456 388.117C198.945 382.813 199.222 375.657 196.724 366.066C194.683 358.231 195.086 352.075 197.167 347.359C199.241 342.656 203.068 339.196 208.25 336.897C209.228 336.464 210.44 336.71 211.303 337.572L262.777 389.047C264.941 391.21 263.087 394.446 260.21 393.779C253.044 392.116 246.246 390.685 241.039 391.547C238.367 391.989 235.999 393.048 234.21 395.063C232.434 397.064 231.367 399.849 230.979 403.483C230.523 407.759 229.185 410.877 227.27 413.163C225.351 415.454 222.764 417.016 219.64 418.031C213.318 420.085 205.058 419.821 196.507 418.992C182.331 417.617 165.874 425.112 162.519 443.815L162.509 443.872L162.503 443.93C161.981 449.124 160.053 452.502 157.35 454.814C154.598 457.168 150.91 458.534 146.679 459.412C143.141 460.146 139.359 460.517 135.569 460.888C134.818 460.962 134.067 461.035 133.317 461.112C131.549 461.292 129.784 461.489 128.071 461.744Z" fill="#FFDE00" stroke="#1B1A1A" stroke-width="3"/>
<path d="M166.92 128.274C167.365 129.084 167.782 129.912 168.185 130.753C168.63 131.684 169.065 132.653 169.506 133.635C170.44 135.711 171.398 137.843 172.521 139.781C174.222 142.718 176.409 145.437 179.781 147.461C183.143 149.48 187.558 150.735 193.6 150.966L193.7 150.969L193.8 150.96C204.338 149.957 212.441 152.457 218.382 157.149C224.342 161.857 228.27 168.886 230.219 177.181C232.246 185.815 235.274 192.192 240.547 195.66C245.851 199.149 253.006 199.426 262.598 196.927C270.432 194.887 276.589 195.289 281.305 197.37C286.007 199.445 289.468 203.272 291.766 208.454C292.199 209.431 291.954 210.644 291.091 211.507L239.617 262.981C237.453 265.145 234.217 263.29 234.885 260.414C236.547 253.248 237.978 246.45 237.117 241.243C236.675 238.571 235.615 236.203 233.6 234.414C231.6 232.637 228.814 231.571 225.18 231.183C220.904 230.727 217.787 229.389 215.5 227.473C213.209 225.554 211.647 222.968 210.632 219.843C208.579 213.522 208.842 205.262 209.672 196.71C211.047 182.535 203.552 166.077 184.848 162.723L184.791 162.713L184.734 162.707C179.54 162.184 176.162 160.256 173.849 157.553C171.495 154.802 170.13 151.114 169.252 146.883C168.517 143.344 168.147 139.563 167.775 135.772C167.702 135.022 167.628 134.271 167.552 133.521C167.371 131.752 167.175 129.988 166.92 128.274Z" fill="#FFDE00" stroke="#1B1A1A" stroke-width="3"/>
<path d="M314.554 433.304C378.404 433.304 430.165 381.543 430.165 317.693C430.165 253.842 378.404 202.081 314.554 202.081C250.703 202.081 198.942 253.842 198.942 317.693C198.942 381.543 250.703 433.304 314.554 433.304Z" fill="#E30613" stroke="#1B1A1A" stroke-width="3" stroke-miterlimit="10"/>
<path d="M339.973 250.881C342.484 233.973 345.204 208.179 320.15 182.222C284.32 145.102 244.567 161.144 244.567 161.144C244.567 161.144 275.323 180 281.6 186.504C296.351 201.786 289.131 222.919 289.131 222.919C293.525 227.471 339.973 250.881 339.973 250.881Z" fill="#009FE3" stroke="#1B1A1A" stroke-width="3" stroke-miterlimit="10"/>
<path d="M289.132 384.508C286.621 401.415 283.901 427.209 308.955 453.166C344.785 490.286 384.538 474.245 384.538 474.245C384.538 474.245 353.783 455.388 347.505 448.884C332.754 433.602 339.974 412.469 339.974 412.469C335.581 407.917 289.132 384.508 289.132 384.508Z" fill="#009FE3" stroke="#1B1A1A" stroke-width="3" stroke-miterlimit="10"/>
<path d="M247.738 292.268C230.83 289.757 205.036 287.037 179.079 312.091C141.959 347.922 158 387.673 158 387.673C158 387.673 176.857 356.918 183.361 350.64C198.643 335.889 219.776 343.109 219.776 343.109C224.328 338.716 247.738 292.268 247.738 292.268Z" fill="#009FE3" stroke="#1B1A1A" stroke-width="3" stroke-miterlimit="10"/>
<path d="M381.368 343.112C398.275 345.623 424.069 348.343 450.027 323.288C487.146 287.459 471.105 247.706 471.105 247.706C471.105 247.706 452.248 278.461 445.744 284.739C430.462 299.49 409.329 292.27 409.329 292.27C404.777 296.663 381.368 343.112 381.368 343.112Z" fill="#009FE3" stroke="#1B1A1A" stroke-width="3" stroke-miterlimit="10"/>
<path d="M285.281 252.48C275.102 238.749 258.787 218.587 222.716 217.949C171.132 217.035 154.366 256.488 154.366 256.488C154.366 256.488 189.447 248.076 198.484 248.234C219.719 248.611 229.559 268.658 229.559 268.658C235.885 268.769 285.281 252.48 285.281 252.48Z" fill="#009FE3" stroke="#1B1A1A" stroke-width="3" stroke-miterlimit="10"/>
<path d="M343.82 382.921C354 396.651 370.315 416.814 406.386 417.451C457.97 418.363 474.735 378.912 474.735 378.912C474.735 378.912 439.654 387.325 430.618 387.166C409.382 386.79 399.543 366.742 399.543 366.742C393.217 366.629 343.82 382.921 343.82 382.921Z" fill="#009FE3" stroke="#1B1A1A" stroke-width="3" stroke-miterlimit="10"/>
<path d="M249.332 346.965C235.602 357.145 215.439 373.46 214.802 409.531C213.89 461.115 253.34 477.88 253.34 477.88C253.34 477.88 244.928 442.799 245.087 433.763C245.463 412.527 265.511 402.688 265.511 402.688C265.622 396.362 249.332 346.965 249.332 346.965Z" fill="#009FE3" stroke="#1B1A1A" stroke-width="3" stroke-miterlimit="10"/>
<path d="M379.773 288.423C393.503 278.244 413.666 261.928 414.303 225.857C415.215 174.274 375.765 157.508 375.765 157.508C375.765 157.508 384.177 192.589 384.018 201.626C383.642 222.861 363.594 232.701 363.594 232.701C363.481 239.026 379.773 288.423 379.773 288.423Z" fill="#009FE3" stroke="#1B1A1A" stroke-width="3" stroke-miterlimit="10"/>
<path d="M314.553 414.7C368.128 414.7 411.56 371.268 411.56 317.693C411.56 264.118 368.128 220.686 314.553 220.686C260.977 220.686 217.546 264.118 217.546 317.693C217.546 371.268 260.977 414.7 314.553 414.7Z" fill="#FFDE00" stroke="#1B1A1A" stroke-width="3" stroke-miterlimit="10"/>
<path d="M314.554 392.096C355.646 392.096 388.959 358.784 388.959 317.691C388.959 276.598 355.646 243.286 314.554 243.286C273.461 243.286 240.148 276.598 240.148 317.691C240.148 358.784 273.461 392.096 314.554 392.096Z" fill="#009FE3" stroke="#1B1A1A" stroke-width="3" stroke-miterlimit="10"/>
<path d="M298.266 384.505H329.972C334.03 384.505 337.627 381.892 338.88 378.032L341.563 369.776C343.53 363.723 339.017 357.515 332.655 357.515H295.585C289.22 357.515 284.71 363.725 286.677 369.776L289.36 378.032C290.611 381.892 294.208 384.505 298.266 384.505Z" fill="#FFDE00" stroke="#1B1A1A" stroke-width="3" stroke-miterlimit="10"/>
<path d="M314.553 350.661C342.057 350.661 364.352 328.365 364.352 300.861C364.352 273.358 342.057 251.062 314.553 251.062C287.05 251.062 264.754 273.358 264.754 300.861C264.754 328.365 287.05 350.661 314.553 350.661Z" fill="#E30613" stroke="#1B1A1A" stroke-width="3" stroke-miterlimit="10"/>
<path d="M315.161 335.96C335.028 335.96 351.132 319.856 351.132 299.99C351.132 280.123 335.028 264.019 315.161 264.019C295.295 264.019 279.19 280.123 279.19 299.99C279.19 319.856 295.295 335.96 315.161 335.96Z" fill="#FFDE00" stroke="#1B1A1A" stroke-width="3" stroke-miterlimit="10"/>
<path d="M315.199 310.254C332.083 310.254 345.769 305.654 345.769 299.979C345.769 294.304 332.083 289.704 315.199 289.704C298.316 289.704 284.629 294.304 284.629 299.979C284.629 305.654 298.316 310.254 315.199 310.254Z" fill="#FFFBF1" stroke="#1B1A1A" stroke-width="3" stroke-miterlimit="10"/>
<path d="M315.214 310.905C320.76 310.905 325.256 306.409 325.256 300.863C325.256 295.317 320.76 290.821 315.214 290.821C309.668 290.821 305.172 295.317 305.172 300.863C305.172 306.409 309.668 310.905 315.214 310.905Z" fill="#1B1A1A" stroke="#1B1A1A" stroke-width="3" stroke-miterlimit="10"/>
<path d="M328.735 357.862C330.241 368.005 331.873 383.48 316.841 399.051C295.347 421.32 271.498 411.698 271.498 411.698C271.498 411.698 289.948 400.385 293.715 396.484C302.564 387.316 300.584 358.049 300.584 358.049L328.735 357.862Z" fill="#E30613" stroke="#1B1A1A" stroke-width="3" stroke-miterlimit="10"/>
</svg>
