<svg width="929" height="388" viewBox="0 0 929 388" fill="none" xmlns="http://www.w3.org/2000/svg">
<path d="M694.61 188.8C683.86 188.8 675.14 180.08 675.14 169.33C675.14 158.58 683.86 149.86 694.61 149.86C696.79 149.86 698.88 150.23 700.84 150.9C703.41 124.02 726.04 103 753.59 103C771.72 103 787.71 112.11 797.27 125.99C800.74 120.63 806.76 117.07 813.62 117.07C821.63 117.07 828.5 121.91 831.49 128.82C837.35 123.15 845.33 119.65 854.13 119.65C872.11 119.65 886.69 134.23 886.69 152.21C886.69 170.19 872.11 184.77 854.13 184.77" fill="#FFFBF1"/>
<path d="M694.61 188.8C683.86 188.8 675.14 180.08 675.14 169.33C675.14 158.58 683.86 149.86 694.61 149.86C696.79 149.86 698.88 150.23 700.84 150.9C703.41 124.02 726.04 103 753.59 103C771.72 103 787.71 112.11 797.27 125.99C800.74 120.63 806.76 117.07 813.62 117.07C821.63 117.07 828.5 121.91 831.49 128.82C837.35 123.15 845.33 119.65 854.13 119.65C872.11 119.65 886.69 134.23 886.69 152.21C886.69 170.19 872.11 184.77 854.13 184.77" stroke="#E5E3E3" stroke-width="3" stroke-miterlimit="10"/>
<path d="M677.33 213.47C666.58 213.47 657.86 201.75 657.86 191C657.86 180.25 666.58 171.53 677.33 171.53C685.1 171.53 691.78 176.09 694.9 182.66C698.02 176.08 704.71 171.53 712.47 171.53C715.08 171.53 717.56 172.05 719.84 172.98C727.21 152.58 746.75 138 769.69 138C793.54 138 813.71 153.76 820.36 175.43C826.19 166.61 836.18 160.78 847.55 160.78C859.65 160.78 870.2 167.39 875.82 177.19C878.83 175.28 882.39 174.16 886.22 174.16C896.97 174.16 905.69 182.88 905.69 193.63C905.69 204.38 896.97 213.1 886.22 213.1" fill="#FFFBF1"/>
<path d="M677.33 213.47C666.58 213.47 657.86 201.75 657.86 191C657.86 180.25 666.58 171.53 677.33 171.53C685.1 171.53 691.78 176.09 694.9 182.66C698.02 176.08 704.71 171.53 712.47 171.53C715.08 171.53 717.56 172.05 719.84 172.98C727.21 152.58 746.75 138 769.69 138C793.54 138 813.71 153.76 820.36 175.43C826.19 166.61 836.18 160.78 847.55 160.78C859.65 160.78 870.2 167.39 875.82 177.19C878.83 175.28 882.39 174.16 886.22 174.16C896.97 174.16 905.69 182.88 905.69 193.63C905.69 204.38 896.97 213.1 886.22 213.1" stroke="#E5E3E3" stroke-width="3" stroke-miterlimit="10"/>
<path d="M762.185 90.9998L843.689 255L680.689 255L762.185 90.9998Z" fill="#FFFBF1" stroke="#E5E3E3" stroke-width="3" stroke-miterlimit="10"/>
<path d="M674.58 4.99976L768.205 267.289L580.97 267.289L674.58 4.99976Z" fill="#FFFBF1" stroke="#E5E3E3" stroke-width="3" stroke-miterlimit="10"/>
<path d="M592.19 160L670.69 267L513.69 267L592.19 160Z" fill="#FFFBF1" stroke="#E5E3E3" stroke-width="3" stroke-miterlimit="10"/>
<rect x="-1.5" y="1.5" width="563" height="95" transform="matrix(-1 8.74228e-08 8.74228e-08 1 895.69 250)" fill="#FFFBF1" stroke="#E5E3E3" stroke-width="3"/>
<rect x="-1.5" y="1.5" width="347" height="48" transform="matrix(-1 8.74228e-08 8.74228e-08 1 411.69 297)" fill="#FFFBF1" stroke="#E5E3E3" stroke-width="3"/>
<path d="M21.4701 325.57C10.7201 325.57 2.00004 316.85 2.00004 306.1C2.00004 295.35 10.7201 286.63 21.4701 286.63C22.8401 286.63 24.1801 286.78 25.4801 287.05C29.5801 261.86 51.4301 242.63 77.7801 242.63C102.4 242.63 123.1 259.42 129.05 282.18C132.59 278.48 137.57 276.16 143.1 276.16C148.92 276.16 154.13 278.73 157.69 282.77C162.68 271.18 174.19 263.06 187.61 263.06C195.44 263.06 202.62 265.82 208.24 270.43C216.72 252.45 235 240 256.2 240C275.84 240 292.97 250.69 302.13 266.57C307.48 262.72 314.04 260.44 321.13 260.44C339.11 260.44 353.69 275.02 353.69 293C353.69 310.98 339.11 325.56 321.13 325.56" fill="#FFFBF1"/>
<path d="M21.4701 325.57C10.7201 325.57 2.00004 316.85 2.00004 306.1C2.00004 295.35 10.7201 286.63 21.4701 286.63C22.8401 286.63 24.1801 286.78 25.4801 287.05C29.5801 261.86 51.4301 242.63 77.7801 242.63C102.4 242.63 123.1 259.42 129.05 282.18C132.59 278.48 137.57 276.16 143.1 276.16C148.92 276.16 154.13 278.73 157.69 282.77C162.68 271.18 174.19 263.06 187.61 263.06C195.44 263.06 202.62 265.82 208.24 270.43C216.72 252.45 235 240 256.2 240C275.84 240 292.97 250.69 302.13 266.57C307.48 262.72 314.04 260.44 321.13 260.44C339.11 260.44 353.69 275.02 353.69 293C353.69 310.98 339.11 325.56 321.13 325.56" stroke="#E5E3E3" stroke-width="3" stroke-miterlimit="10"/>
<path d="M336.65 271.89C325.9 271.89 317.18 263.17 317.18 252.42C317.18 241.67 325.9 232.95 336.65 232.95C342.47 232.95 347.68 235.52 351.24 239.56C356.23 227.97 367.74 219.85 381.16 219.85C390.72 219.85 399.32 223.97 405.28 230.54C410.52 206.78 431.69 189 457.02 189C480.87 189 501.04 204.76 507.69 226.43C513.52 217.61 523.51 211.78 534.88 211.78C549.43 211.78 561.75 221.33 565.92 234.5C568.26 233.5 570.84 232.95 573.54 232.95C584.29 232.95 593.01 241.67 593.01 252.42C593.01 263.17 584.29 271.89 573.54 271.89" fill="#FFFBF1"/>
<path d="M336.65 271.89C325.9 271.89 317.18 263.17 317.18 252.42C317.18 241.67 325.9 232.95 336.65 232.95C342.47 232.95 347.68 235.52 351.24 239.56C356.23 227.97 367.74 219.85 381.16 219.85C390.72 219.85 399.32 223.97 405.28 230.54C410.52 206.78 431.69 189 457.02 189C480.87 189 501.04 204.76 507.69 226.43C513.52 217.61 523.51 211.78 534.88 211.78C549.43 211.78 561.75 221.33 565.92 234.5C568.26 233.5 570.84 232.95 573.54 232.95C584.29 232.95 593.01 241.67 593.01 252.42C593.01 263.17 584.29 271.89 573.54 271.89" stroke="#E5E3E3" stroke-width="3" stroke-miterlimit="10"/>
<path d="M571.1 257.47C560.35 257.47 551.63 246.75 551.63 236C551.63 225.25 560.35 216.53 571.1 216.53C578.87 216.53 585.55 221.09 588.67 227.66C591.79 221.08 598.48 216.53 606.24 216.53C608.85 216.53 611.33 217.05 613.61 217.98C620.99 197.58 640.53 183 663.47 183C687.32 183 707.49 198.76 714.14 220.43C719.96 211.61 729.96 205.78 741.33 205.78C753.43 205.78 763.98 212.39 769.6 222.19C772.61 220.28 776.17 219.16 780 219.16C786.77 219.16 792.74 222.62 796.22 227.87C795.85 225.9 795.64 223.86 795.64 221.78C795.64 203.8 810.22 189.22 828.2 189.22C839.28 189.22 849.07 194.76 854.95 203.22C858.11 201 861.96 199.68 866.12 199.68C876.87 199.68 885.59 208.4 885.59 219.15C885.59 219.33 885.57 219.51 885.56 219.69C887.33 219.16 889.21 218.87 891.15 218.87C901.9 218.87 910.62 227.59 910.62 238.34C910.62 249.09 901.9 257.81 891.15 257.81" fill="#FFFBF1"/>
<path d="M571.1 257.47C560.35 257.47 551.63 246.75 551.63 236C551.63 225.25 560.35 216.53 571.1 216.53C578.87 216.53 585.55 221.09 588.67 227.66C591.79 221.08 598.48 216.53 606.24 216.53C608.85 216.53 611.33 217.05 613.61 217.98C620.99 197.58 640.53 183 663.47 183C687.32 183 707.49 198.76 714.14 220.43C719.96 211.61 729.96 205.78 741.33 205.78C753.43 205.78 763.98 212.39 769.6 222.19C772.61 220.28 776.17 219.16 780 219.16C786.77 219.16 792.74 222.62 796.22 227.87C795.85 225.9 795.64 223.86 795.64 221.78C795.64 203.8 810.22 189.22 828.2 189.22C839.28 189.22 849.07 194.76 854.95 203.22C858.11 201 861.96 199.68 866.12 199.68C876.87 199.68 885.59 208.4 885.59 219.15C885.59 219.33 885.57 219.51 885.56 219.69C887.33 219.16 889.21 218.87 891.15 218.87C901.9 218.87 910.62 227.59 910.62 238.34C910.62 249.09 901.9 257.81 891.15 257.81" stroke="#E5E3E3" stroke-width="3" stroke-miterlimit="10"/>
<path d="M474.571 323.358C463.821 323.358 455.101 314.638 455.101 303.888C455.101 293.138 463.821 284.418 474.571 284.418C476.751 284.418 478.841 284.788 480.801 285.458C483.371 258.578 506.001 237.558 533.551 237.558C551.681 237.558 567.671 246.668 577.231 260.548C580.701 255.188 586.721 251.628 593.581 251.628C601.591 251.628 608.461 256.468 611.451 263.378C617.311 257.708 625.291 254.208 634.091 254.208C652.071 254.208 666.651 268.788 666.651 286.768C666.651 304.748 652.071 319.328 634.091 319.328" fill="#FFFBF1"/>
<path d="M474.571 323.358C463.821 323.358 455.101 314.638 455.101 303.888C455.101 293.138 463.821 284.418 474.571 284.418C476.751 284.418 478.841 284.788 480.801 285.458C483.371 258.578 506.001 237.558 533.551 237.558C551.681 237.558 567.671 246.668 577.231 260.548C580.701 255.188 586.721 251.628 593.581 251.628C601.591 251.628 608.461 256.468 611.451 263.378C617.311 257.708 625.291 254.208 634.091 254.208C652.071 254.208 666.651 268.788 666.651 286.768C666.651 304.748 652.071 319.328 634.091 319.328" stroke="#E5E3E3" stroke-width="3" stroke-miterlimit="10"/>
<path d="M907.22 327.081C917.97 327.081 926.69 318.361 926.69 307.611C926.69 296.861 917.97 288.141 907.22 288.141C905.04 288.141 902.95 288.511 900.99 289.181C898.42 262.301 875.79 241.281 848.24 241.281C830.11 241.281 814.12 250.391 804.56 264.271C801.09 258.911 795.07 255.351 788.21 255.351C780.2 255.351 773.33 260.191 770.34 267.101C764.48 261.431 756.5 257.931 747.7 257.931C729.72 257.931 715.14 272.511 715.14 290.491C715.14 308.471 729.72 323.051 747.7 323.051" fill="#FFFBF1"/>
<path d="M907.22 327.081C917.97 327.081 926.69 318.361 926.69 307.611C926.69 296.861 917.97 288.141 907.22 288.141C905.04 288.141 902.95 288.511 900.99 289.181C898.42 262.301 875.79 241.281 848.24 241.281C830.11 241.281 814.12 250.391 804.56 264.271C801.09 258.911 795.07 255.351 788.21 255.351C780.2 255.351 773.33 260.191 770.34 267.101C764.48 261.431 756.5 257.931 747.7 257.931C729.72 257.931 715.14 272.511 715.14 290.491C715.14 308.471 729.72 323.051 747.7 323.051" stroke="#E5E3E3" stroke-width="3" stroke-miterlimit="10"/>
<path d="M276.641 337.47C265.891 337.47 257.171 325.75 257.171 315C257.171 304.25 265.891 295.53 276.641 295.53C284.411 295.53 291.091 300.09 294.211 306.66C297.331 300.08 304.021 295.53 311.781 295.53C314.391 295.53 316.871 296.05 319.151 296.98C326.521 276.58 346.061 262 369.001 262C392.851 262 413.021 277.76 419.671 299.43C425.501 290.61 435.491 284.78 446.861 284.78C458.961 284.78 469.511 291.39 475.131 301.19C478.141 299.28 481.701 298.16 485.531 298.16C496.281 298.16 505.001 306.88 505.001 317.63C505.001 328.38 496.281 337.1 485.531 337.1" fill="#FFFBF1"/>
<path d="M276.641 337.47C265.891 337.47 257.171 325.75 257.171 315C257.171 304.25 265.891 295.53 276.641 295.53C284.411 295.53 291.091 300.09 294.211 306.66C297.331 300.08 304.021 295.53 311.781 295.53C314.391 295.53 316.871 296.05 319.151 296.98C326.521 276.58 346.061 262 369.001 262C392.851 262 413.021 277.76 419.671 299.43C425.501 290.61 435.491 284.78 446.861 284.78C458.961 284.78 469.511 291.39 475.131 301.19C478.141 299.28 481.701 298.16 485.531 298.16C496.281 298.16 505.001 306.88 505.001 317.63C505.001 328.38 496.281 337.1 485.531 337.1" stroke="#E5E3E3" stroke-width="3" stroke-miterlimit="10"/>
<path d="M576.33 357.747C565.58 357.747 556.86 347.027 556.86 336.277C556.86 325.527 565.58 316.807 576.33 316.807C584.1 316.807 590.78 321.367 593.9 327.937C597.02 321.357 603.71 316.807 611.47 316.807C614.08 316.807 616.56 317.327 618.84 318.257C626.21 297.857 645.75 283.277 668.69 283.277C692.54 283.277 712.71 299.037 719.36 320.707C725.19 311.887 735.18 306.057 746.55 306.057C758.65 306.057 769.2 312.667 774.82 322.467C777.83 320.557 781.39 319.437 785.22 319.437C795.97 319.437 804.69 328.157 804.69 338.907C804.69 349.657 795.97 358.377 785.22 358.377" fill="#FFFBF1"/>
<path d="M576.33 357.747C565.58 357.747 556.86 347.027 556.86 336.277C556.86 325.527 565.58 316.807 576.33 316.807C584.1 316.807 590.78 321.367 593.9 327.937C597.02 321.357 603.71 316.807 611.47 316.807C614.08 316.807 616.56 317.327 618.84 318.257C626.21 297.857 645.75 283.277 668.69 283.277C692.54 283.277 712.71 299.037 719.36 320.707C725.19 311.887 735.18 306.057 746.55 306.057C758.65 306.057 769.2 312.667 774.82 322.467C777.83 320.557 781.39 319.437 785.22 319.437C795.97 319.437 804.69 328.157 804.69 338.907C804.69 349.657 795.97 358.377 785.22 358.377" stroke="#E5E3E3" stroke-width="3" stroke-miterlimit="10"/>
<path d="M103.61 385.8C92.8601 385.8 84.1401 377.08 84.1401 366.33C84.1401 355.58 92.8601 346.86 103.61 346.86C105.79 346.86 107.88 347.23 109.84 347.9C112.41 321.02 135.04 300 162.59 300C180.72 300 196.71 309.11 206.27 322.99C209.74 317.63 215.76 314.07 222.62 314.07C230.63 314.07 237.5 318.91 240.49 325.82C246.35 320.15 254.33 316.65 263.13 316.65C281.11 316.65 295.69 331.23 295.69 349.21C295.69 367.19 281.11 381.77 263.13 381.77" fill="#FFFBF1"/>
<path d="M103.61 385.8C92.8601 385.8 84.1401 377.08 84.1401 366.33C84.1401 355.58 92.8601 346.86 103.61 346.86C105.79 346.86 107.88 347.23 109.84 347.9C112.41 321.02 135.04 300 162.59 300C180.72 300 196.71 309.11 206.27 322.99C209.74 317.63 215.76 314.07 222.62 314.07C230.63 314.07 237.5 318.91 240.49 325.82C246.35 320.15 254.33 316.65 263.13 316.65C281.11 316.65 295.69 331.23 295.69 349.21C295.69 367.19 281.11 381.77 263.13 381.77" stroke="#E5E3E3" stroke-width="3" stroke-miterlimit="10"/>
</svg>
