<?xml version="1.0" encoding="utf-8"?>
<!-- Generator: Adobe Illustrator 24.1.3, SVG Export Plug-In . SVG Version: 6.00 Build 0)  -->
<svg version="1.1" id="Layer_1" xmlns="http://www.w3.org/2000/svg" xmlns:xlink="http://www.w3.org/1999/xlink" x="0px" y="0px"
	 viewBox="0 0 344 531" style="enable-background:new 0 0 344 531;" xml:space="preserve">
<style type="text/css">
	.st0{fill:none;stroke:#000000;stroke-width:7.5;}
	.st1{fill:none;stroke:#000000;stroke-width:2.5;}
	.st2{fill:none;stroke:#FFDE00;stroke-width:2.5;}
	.st3{fill:#FFDE00;stroke:#1B1A1A;stroke-width:2.5;stroke-miterlimit:10;}
	.st4{fill:#E30613;stroke:#1B1A1A;stroke-width:2.5;stroke-miterlimit:10;}
	.st5{fill:#009FE3;stroke:#1B1A1A;stroke-width:2.5;stroke-miterlimit:10;}
	.st6{fill:#FFFBF1;stroke:#1B1A1A;stroke-width:2.5;stroke-miterlimit:10;}
	.st7{fill:#1B1A1A;stroke:#1B1A1A;stroke-width:2.5;stroke-miterlimit:10;}
</style>
<path class="st0" d="M175.8,163c0,0,10.5,79.4-10.4,179.3c-20.9,99.9,29.6,175.1,29.6,175.1"/>
<path class="st1" d="M175.8,163c0,0,10.5,79.4-10.4,179.3c-20.9,99.9,29.6,175.1,29.6,175.1"/>
<path class="st2" d="M175.8,163c0,0,10.5,79.4-10.4,179.3c-20.9,99.9,29.6,175.1,29.6,175.1"/>
<path class="st3" d="M129.4,117.5c-6.6,7.8-16.2,20.1-11.7,41.2c6.5,30.3,31.8,34.7,31.8,34.7s-9.7-19.4-10.8-24.7
	c-2.7-12.5,14.5-36.3,14.5-36.3L129.4,117.5z"/>
<path class="st3" d="M114.7,99.5c-8.4,5.8-20.9,15.2-22,36.8c-1.6,30.9,21.7,41.8,21.7,41.8s-4.3-21.2-4.1-26.6
	c0.7-12.7,23.4-31.3,23.4-31.3L114.7,99.5z"/>
<path class="st3" d="M155.1,121.8c-6.6,7.8-16.2,20.1-11.7,41.2c6.5,30.3,31.8,34.7,31.8,34.7s-9.7-19.4-10.8-24.7
	c-2.7-12.5,14.5-36.3,14.5-36.3L155.1,121.8z"/>
<path class="st3" d="M192.3,103.9c9.4,4.1,23.4,10.9,28.7,31.9c7.5,30-13.2,45.2-13.2,45.2s0.2-21.6-1.2-26.9
	c-3.1-12.4-29-26.2-29-26.2L192.3,103.9z"/>
<path class="st3" d="M197.6,81.3c10.1,1.5,25.4,4.5,35.9,23.4c15,27-1.1,47.1-1.1,47.1s-5.5-20.9-8.1-25.7
	c-6.2-11.1-34.8-17.8-34.8-17.8L197.6,81.3z"/>
<path class="st3" d="M171.1,119.1c9.4,4.1,23.4,10.9,28.7,31.9c7.5,30-13.2,45.2-13.2,45.2s0.2-21.6-1.2-26.9
	c-3.1-12.4-29-26.2-29-26.2L171.1,119.1z"/>
<path class="st3" d="M150.9,61.6c-9.6,4.6-21.2,0.4-25.9-9.3c-4.7-9.7-0.6-21.4,9-26c9.6-4.6,21.2-0.4,25.9,9.3
	C164.6,45.4,160.5,57,150.9,61.6z"/>
<path class="st4" d="M146.6,79.3c4.4,18.8,26.2,49.6,39.7,60.6c7.3,6,18.3,3.4,22.3-5.2c7.3-15.8,13.3-53.1,8.9-71.9
	c-4.4-19.1-25.6-38-45.1-33.4S142.2,60.3,146.6,79.3z"/>
<path class="st4" d="M83.4,94.8c4.4,18.8,26.2,49.6,39.7,60.6c7.3,6,18.3,3.4,22.3-5.2c7.3-15.8,13.3-53.1,8.9-71.9
	c-4.4-19.1-25.6-38-45.1-33.4C89.6,49.5,78.9,75.8,83.4,94.8z"/>
<path class="st5" d="M170.9,166.6c30-7,48.7-37,41.8-67c-7-30-37-48.7-67-41.8c-30,7-48.7,37-41.8,67
	C110.9,154.8,140.9,173.5,170.9,166.6z"/>
<path class="st3" d="M168.9,157.8c25.2-5.9,40.9-31,35-56.2c-5.9-25.2-31-40.9-56.2-35c-25.2,5.9-40.9,31-35,56.2
	C118.5,148,143.7,163.7,168.9,157.8z"/>
<path class="st5" d="M132.5,88.5c4.5-7.2,4.2-15.6-0.8-18.7c-5-3.1-12.6,0.3-17.2,7.5c-4.5,7.2-4.2,15.6,0.8,18.7
	C120.3,99.1,128,95.8,132.5,88.5z"/>
<path class="st4" d="M125.6,84.2c4.5-7.2,4.2-15.6-0.8-18.7c-5-3.1-12.6,0.3-17.2,7.5c-4.5,7.2-4.2,15.6,0.8,18.7
	C113.4,94.8,121,91.4,125.6,84.2z"/>
<path class="st3" d="M115.9,78.1c4.5-7.2,4.2-15.6-0.8-18.7s-12.6,0.3-17.2,7.5c-4.5,7.2-4.2,15.6,0.8,18.7
	C103.7,88.8,111.4,85.4,115.9,78.1z"/>
<path class="st5" d="M191,78.5c3.1-5-0.3-12.6-7.5-17.2c-7.2-4.5-15.6-4.2-18.7,0.8s0.3,12.6,7.5,17.2
	C179.5,83.8,187.9,83.4,191,78.5z"/>
<path class="st4" d="M195.3,71.5c3.1-5-0.3-12.6-7.5-17.2c-7.2-4.5-15.6-4.2-18.7,0.8s0.3,12.6,7.5,17.2
	C183.8,76.9,192.2,76.5,195.3,71.5z"/>
<path class="st3" d="M201.3,61.8c3.1-5-0.3-12.6-7.5-17.2c-7.2-4.5-15.6-4.2-18.7,0.8c-3.1,5,0.3,12.6,7.5,17.2
	C189.9,67.2,198.2,66.8,201.3,61.8z"/>
<path class="st4" d="M169.6,128.8l-14.2,3.3c-3,0.7-5.1,3.4-5,6.4l0.2,10.5c0.1,4.1,3.9,7.1,7.9,6.1l18.4-4.3c4-0.9,6.1-5.3,4.4-9
	l-4.4-9.5C175.7,129.6,172.6,128.1,169.6,128.8z"/>
<path class="st4" d="M161.5,126.1c12.9-3,21-15.9,18-28.9c-3-12.9-15.9-21-28.9-18c-12.9,3-21,15.9-18,28.9
	C135.7,121,148.6,129.1,161.5,126.1z"/>
<path class="st5" d="M160.3,119.3c9.3-2.2,15.2-11.5,13-20.9c-2.2-9.3-11.5-15.2-20.9-13c-9.3,2.2-15.2,11.5-13,20.9
	C141.6,115.6,150.9,121.4,160.3,119.3z"/>
<path class="st6" d="M157.4,107c7.9-1.8,13.9-5.5,13.3-8.2c-0.6-2.7-7.6-3.3-15.5-1.5c-7.9,1.8-13.9,5.5-13.3,8.2
	C142.5,108.2,149.5,108.9,157.4,107z"/>
<path class="st6" d="M142.7,46.5c7.9-1.8,13.9-5.5,13.3-8.2c-0.6-2.7-7.6-3.3-15.5-1.5c-7.9,1.8-13.9,5.5-13.3,8.2
	C127.8,47.7,134.7,48.4,142.7,46.5z"/>
<path class="st7" d="M157.4,107c2.6-0.6,4.2-3.2,3.6-5.8c-0.6-2.6-3.2-4.2-5.8-3.6c-2.6,0.6-4.2,3.2-3.6,5.8S154.8,107.6,157.4,107z
	"/>
<path class="st7" d="M142.7,46.5c2.6-0.6,4.2-3.2,3.6-5.8c-0.6-2.6-3.2-4.2-5.8-3.6c-2.6,0.6-4.2,3.2-3.6,5.8
	C137.5,45.5,140.1,47.1,142.7,46.5z"/>
<path class="st4" d="M110,77.6c-2.7,1.3-6,0-7.3-2.9c-1.4-2.9-0.3-6.3,2.3-7.5s6,0,7.3,2.9C113.7,73,112.7,76.3,110,77.6z"/>
<path class="st4" d="M190.9,58.8c-2.7,1.3-6,0-7.3-2.9c-1.4-2.9-0.3-6.3,2.3-7.5c2.7-1.3,6,0,7.3,2.9
	C194.7,54.2,193.6,57.5,190.9,58.8z"/>
</svg>
