<svg width="240" height="432" viewBox="0 0 240 432" fill="none" xmlns="http://www.w3.org/2000/svg">
<path d="M121.803 174.566C121.803 174.566 129.349 229.978 115.166 299.587C100.984 369.195 136.3 421.795 136.3 421.795" stroke="black" stroke-width="7.5"/>
<path d="M121.803 174.566C121.803 174.566 129.349 229.978 115.166 299.587C100.984 369.195 136.3 421.795 136.3 421.795" stroke="black" stroke-width="2.5"/>
<path d="M121.803 174.566C121.803 174.566 129.349 229.978 115.166 299.587C100.984 369.195 136.3 421.795 136.3 421.795" stroke="#FFDE00" stroke-width="2.5"/>
<path d="M122.113 184C148.106 184 169.178 143.258 169.178 93C169.178 42.7421 148.106 2 122.113 2C96.12 2 75.0484 42.7421 75.0484 93C75.0484 143.258 96.12 184 122.113 184Z" fill="#FFDE00" stroke="#1B1A1A" stroke-width="2.5" stroke-miterlimit="10"/>
<path d="M164.04 134.386C159.152 115.797 142.235 102.087 122.113 102.087C101.991 102.087 85.0743 115.797 80.1869 134.386C87.9797 163.839 103.828 183.999 122.113 183.999C140.399 183.999 156.249 163.837 164.04 134.386Z" fill="#E30613" stroke="#1B1A1A" stroke-width="2.5" stroke-miterlimit="10"/>
<path d="M103.402 183.449H142.635C151.305 183.449 158.332 176.422 158.332 167.753V152.037C158.332 132.534 142.522 116.724 123.019 116.724C103.517 116.724 87.7077 132.534 87.7077 152.035V167.751C87.7077 176.421 94.7344 183.449 103.402 183.449Z" fill="#009FE3" stroke="#1B1A1A" stroke-width="2.5" stroke-miterlimit="10"/>
<path d="M106.152 178.768H139.886C147.339 178.768 153.381 172.726 153.381 165.273V151.76C153.381 134.991 139.787 121.398 123.019 121.398C106.251 121.398 92.6571 134.991 92.6571 151.76V165.273C92.6554 172.726 98.697 178.768 106.152 178.768Z" fill="#009FE3" stroke="#1B1A1A" stroke-width="2.5" stroke-miterlimit="10"/>
<path d="M116.198 122.168L116.263 122.713L123.02 134.416L129.778 122.713L129.843 122.168C127.65 121.664 125.367 121.398 123.02 121.398C120.674 121.398 118.391 121.664 116.198 122.168Z" fill="#E30613" stroke="#1B1A1A" stroke-width="2.5" stroke-miterlimit="10"/>
<path d="M150.495 138.822C148.542 134.681 145.68 131.053 142.165 128.194L137.04 140.779L150.495 138.822Z" fill="#E30613" stroke="#1B1A1A" stroke-width="2.5" stroke-miterlimit="10"/>
<path d="M153.382 151.762C153.382 147.136 152.347 142.75 150.495 138.824L140.539 148.116L153.382 151.762Z" fill="#FFDE00" stroke="#1B1A1A" stroke-width="2.5" stroke-miterlimit="10"/>
<path d="M142.165 128.196C138.629 125.319 134.434 123.224 129.841 122.17L131.142 136.16L142.165 128.196Z" fill="#FFDE00" stroke="#1B1A1A" stroke-width="2.5" stroke-miterlimit="10"/>
<path d="M153.382 165.274V151.761L141.679 158.516L153.382 165.274Z" fill="#E30613" stroke="#1B1A1A" stroke-width="2.5" stroke-miterlimit="10"/>
<path d="M95.5441 138.822C97.4977 134.681 100.36 131.053 103.874 128.194L108.999 140.779L95.5441 138.822Z" fill="#E30613" stroke="#1B1A1A" stroke-width="2.5" stroke-miterlimit="10"/>
<path d="M92.6569 151.762C92.6569 147.136 93.6922 142.75 95.5438 138.824L105.499 148.116L92.6569 151.762Z" fill="#FFDE00" stroke="#1B1A1A" stroke-width="2.5" stroke-miterlimit="10"/>
<path d="M103.874 128.196C107.409 125.319 111.604 123.224 116.198 122.17L114.896 136.16L103.874 128.196Z" fill="#FFDE00" stroke="#1B1A1A" stroke-width="2.5" stroke-miterlimit="10"/>
<path d="M92.6569 165.274V151.761L104.36 158.516L92.6569 165.274Z" fill="#E30613" stroke="#1B1A1A" stroke-width="2.5" stroke-miterlimit="10"/>
<path d="M123.018 157.171C111.375 157.171 101.888 166.387 101.445 177.922C102.91 178.467 104.496 178.766 106.152 178.766H107.48C109.656 172.27 115.788 167.585 123.018 167.585C130.248 167.585 136.38 172.268 138.557 178.766H139.885C141.541 178.766 143.127 178.467 144.592 177.922C144.149 166.387 134.663 157.171 123.018 157.171Z" fill="#FFDE00" stroke="#1B1A1A" stroke-width="2.5" stroke-miterlimit="10"/>
<path d="M123.019 167.591C115.79 167.591 109.658 172.274 107.48 178.772H138.558C136.381 172.274 130.25 167.591 123.019 167.591Z" fill="#E30613" stroke="#1B1A1A" stroke-width="2.5" stroke-miterlimit="10"/>
<path d="M138.286 39.4431C145.754 39.4431 151.808 37.4077 151.808 34.8968C151.808 32.386 145.754 30.3506 138.286 30.3506C130.818 30.3506 124.764 32.386 124.764 34.8968C124.764 37.4077 130.818 39.4431 138.286 39.4431Z" fill="#FFFBF1" stroke="#1B1A1A" stroke-width="2.5" stroke-miterlimit="10"/>
<path d="M138.286 39.4296C140.739 39.4296 142.728 37.4406 142.728 34.987C142.728 32.5335 140.739 30.5445 138.286 30.5445C135.832 30.5445 133.843 32.5335 133.843 34.987C133.843 37.4406 135.832 39.4296 138.286 39.4296Z" fill="#1B1A1A" stroke="#1B1A1A" stroke-width="2.5" stroke-miterlimit="10"/>
<path d="M138.286 63.5771C145.754 63.5771 151.807 61.5417 151.807 59.0309C151.807 56.5201 145.754 54.4846 138.286 54.4846C130.818 54.4846 124.764 56.5201 124.764 59.0309C124.764 61.5417 130.818 63.5771 138.286 63.5771Z" fill="#FFFBF1" stroke="#1B1A1A" stroke-width="2.5" stroke-miterlimit="10"/>
<path d="M138.286 63.5665C140.739 63.5665 142.728 61.5775 142.728 59.124C142.728 56.6704 140.739 54.6814 138.286 54.6814C135.832 54.6814 133.843 56.6704 133.843 59.124C133.843 61.5775 135.832 63.5665 138.286 63.5665Z" fill="#1B1A1A" stroke="#1B1A1A" stroke-width="2.5" stroke-miterlimit="10"/>
<path d="M138.286 87.7174C145.754 87.7174 151.807 85.682 151.807 83.1712C151.807 80.6604 145.754 78.6249 138.286 78.6249C130.818 78.6249 124.764 80.6604 124.764 83.1712C124.764 85.682 130.818 87.7174 138.286 87.7174Z" fill="#FFFBF1" stroke="#1B1A1A" stroke-width="2.5" stroke-miterlimit="10"/>
<path d="M138.286 87.7058C140.739 87.7058 142.728 85.7168 142.728 83.2632C142.728 80.8097 140.739 78.8207 138.286 78.8207C135.832 78.8207 133.843 80.8097 133.843 83.2632C133.843 85.7168 135.832 87.7058 138.286 87.7058Z" fill="#1B1A1A" stroke="#1B1A1A" stroke-width="2.5" stroke-miterlimit="10"/>
<path d="M108.264 51.5121C115.732 51.5121 121.786 49.4767 121.786 46.9659C121.786 44.455 115.732 42.4196 108.264 42.4196C100.796 42.4196 94.7424 44.455 94.7424 46.9659C94.7424 49.4767 100.796 51.5121 108.264 51.5121Z" fill="#FFFBF1" stroke="#1B1A1A" stroke-width="2.5" stroke-miterlimit="10"/>
<path d="M108.264 51.5004C110.717 51.5004 112.706 49.5114 112.706 47.0578C112.706 44.6043 110.717 42.6153 108.264 42.6153C105.81 42.6153 103.821 44.6043 103.821 47.0578C103.821 49.5114 105.81 51.5004 108.264 51.5004Z" fill="#1B1A1A" stroke="#1B1A1A" stroke-width="2.5" stroke-miterlimit="10"/>
<path d="M108.264 75.6482C115.732 75.6482 121.785 73.6127 121.785 71.1019C121.785 68.5911 115.732 66.5557 108.264 66.5557C100.796 66.5557 94.7421 68.5911 94.7421 71.1019C94.7421 73.6127 100.796 75.6482 108.264 75.6482Z" fill="#FFFBF1" stroke="#1B1A1A" stroke-width="2.5" stroke-miterlimit="10"/>
<path d="M108.264 75.6382C110.717 75.6382 112.706 73.6492 112.706 71.1957C112.706 68.7422 110.717 66.7532 108.264 66.7532C105.81 66.7532 103.821 68.7422 103.821 71.1957C103.821 73.6492 105.81 75.6382 108.264 75.6382Z" fill="#1B1A1A" stroke="#1B1A1A" stroke-width="2.5" stroke-miterlimit="10"/>
<path d="M108.264 99.7874C115.731 99.7874 121.785 97.752 121.785 95.2411C121.785 92.7303 115.731 90.6949 108.264 90.6949C100.796 90.6949 94.7421 92.7303 94.7421 95.2411C94.7421 97.752 100.796 99.7874 108.264 99.7874Z" fill="#FFFBF1" stroke="#1B1A1A" stroke-width="2.5" stroke-miterlimit="10"/>
<path d="M108.264 99.7755C110.717 99.7755 112.706 97.7866 112.706 95.333C112.706 92.8795 110.717 90.8905 108.264 90.8905C105.81 90.8905 103.821 92.8795 103.821 95.333C103.821 97.7866 105.81 99.7755 108.264 99.7755Z" fill="#1B1A1A" stroke="#1B1A1A" stroke-width="2.5" stroke-miterlimit="10"/>
<path d="M83.6306 69.7345C84.2026 67.9465 84.0404 65.9811 83.0669 64.3771C81.9713 62.5706 79.9993 61.3212 77.1073 61.3212C70.8566 61.3212 62.7376 66.3842 62.7376 82.4332C62.7376 96.3864 79.091 103.545 84.1073 103.545C80.7637 91.8736 80.1716 80.5482 83.6306 69.7345Z" fill="#009FE3" stroke="#1B1A1A" stroke-width="2.5" stroke-miterlimit="10"/>
<path d="M160.597 69.7354C160.025 67.9473 160.187 65.982 161.161 64.3779C162.256 62.5715 164.228 61.322 167.12 61.322C173.371 61.322 181.49 66.3851 181.49 82.434C181.49 96.3872 165.137 103.546 160.12 103.546C163.464 91.8744 164.056 80.549 160.597 69.7354Z" fill="#009FE3" stroke="#1B1A1A" stroke-width="2.5" stroke-miterlimit="10"/>
</svg>
