<svg width="142" height="364" viewBox="0 0 142 364" fill="none" xmlns="http://www.w3.org/2000/svg">
<path d="M69.1161 212.859C69.1161 212.859 65.0043 245.263 73.8328 286.119C82.6614 326.976 62.1083 357.557 62.1083 357.557" stroke="black" stroke-width="7.5"/>
<path d="M69.1161 212.859C69.1161 212.859 65.0043 245.263 73.8328 286.119C82.6614 326.976 62.1083 357.557 62.1083 357.557" stroke="black" stroke-width="2.5"/>
<path d="M69.1161 212.859C69.1161 212.859 65.0043 245.263 73.8328 286.119C82.6614 326.976 62.1083 357.557 62.1083 357.557" stroke="#FFDE00" stroke-width="2.5"/>
<path d="M71.4997 228.673C105.465 228.673 133 201.139 133 167.173C133 133.208 105.465 105.673 71.4997 105.673C37.5342 105.673 9.99973 133.208 9.99973 167.173C9.99973 201.139 37.5342 228.673 71.4997 228.673Z" fill="#009FE3" stroke="#1B1A1A" stroke-width="2.5" stroke-miterlimit="10"/>
<path d="M46.1248 190.87H37.2215C37.2215 190.87 36.7621 214.025 39.0909 219.318C40.3727 222.233 40.9516 223.577 40.9516 228.82C40.9516 233.566 39.978 233.949 39.9867 235.136C39.9867 235.136 38.836 241.432 41.6731 241.432C44.5103 241.432 43.3596 235.136 43.3596 235.136C43.3683 233.949 42.3947 233.566 42.3947 228.82C42.3947 223.577 42.9736 222.233 44.2554 219.318C46.5842 214.025 46.1248 190.87 46.1248 190.87Z" fill="#FFDE00" stroke="#1B1A1A" stroke-width="2.5" stroke-miterlimit="10"/>
<path d="M104.972 190.87H96.0689C96.0689 190.87 95.6095 214.025 97.9383 219.318C99.2201 222.233 99.799 223.577 99.799 228.82C99.799 233.566 98.8254 233.949 98.8341 235.136C98.8341 235.136 97.6834 241.432 100.521 241.432C103.358 241.432 102.207 235.136 102.207 235.136C102.216 233.949 101.242 233.566 101.242 228.82C101.242 223.577 101.821 222.233 103.103 219.318C105.432 214.025 104.972 190.87 104.972 190.87Z" fill="#FFDE00" stroke="#1B1A1A" stroke-width="2.5" stroke-miterlimit="10"/>
<path d="M79.8609 187.129H62.4406V191.305C62.4406 196.116 66.3406 200.016 71.1508 200.016C75.9609 200.016 79.8609 196.116 79.8609 191.305V187.129Z" fill="#009FE3" stroke="#1B1A1A" stroke-width="2.5" stroke-miterlimit="10"/>
<path d="M71.1478 203.462C89.896 203.462 105.094 198.354 105.094 192.052C105.094 185.751 89.896 180.642 71.1478 180.642C52.3997 180.642 37.2013 185.751 37.2013 192.052C37.2013 198.354 52.3997 203.462 71.1478 203.462Z" fill="#FFFBF1" stroke="#1B1A1A" stroke-width="2.5" stroke-miterlimit="10"/>
<path d="M71.1462 203.433C77.3033 203.433 82.2947 198.441 82.2947 192.284C82.2947 186.128 77.3033 181.136 71.1462 181.136C64.989 181.136 59.9976 186.128 59.9976 192.284C59.9976 198.441 64.989 203.433 71.1462 203.433Z" fill="#1B1A1A" stroke="#1B1A1A" stroke-width="2.5" stroke-miterlimit="10"/>
<path d="M25.9997 55.866C25.9997 80.1426 44.0198 124.203 57.4732 141.563C64.7596 150.968 78.99 150.968 86.2764 141.563C99.7298 124.203 117.75 80.1426 117.75 55.866C117.747 31.2102 97.2075 2 71.8733 2C46.5391 2 25.9997 31.2102 25.9997 55.866Z" fill="#E30613" stroke="#1B1A1A" stroke-width="2.5" stroke-miterlimit="10"/>
<path d="M101.696 135.625C114.044 135.625 124.055 125.615 124.055 113.266C124.055 100.918 114.044 90.9077 101.696 90.9077C89.3477 90.9077 79.3374 100.918 79.3374 113.266C79.3374 125.615 89.3477 135.625 101.696 135.625Z" fill="#FFDE00" stroke="#1B1A1A" stroke-width="2.5" stroke-miterlimit="10"/>
<path d="M45.2772 134.954C57.6255 134.954 67.6358 124.943 67.6358 112.595C67.6358 100.247 57.6255 90.2365 45.2772 90.2365C32.9289 90.2365 22.9186 100.247 22.9186 112.595C22.9186 124.943 32.9289 134.954 45.2772 134.954Z" fill="#FFDE00" stroke="#1B1A1A" stroke-width="2.5" stroke-miterlimit="10"/>
<path d="M45.2258 117.654C53.4037 117.654 60.0332 115.425 60.0332 112.677C60.0332 109.928 53.4037 107.7 45.2258 107.7C37.0479 107.7 30.4184 109.928 30.4184 112.677C30.4184 115.425 37.0479 117.654 45.2258 117.654Z" fill="#FFFBF1" stroke="#1B1A1A" stroke-width="2.5" stroke-miterlimit="10"/>
<path d="M45.2258 117.64C47.9115 117.64 50.0887 115.463 50.0887 112.778C50.0887 110.092 47.9115 107.915 45.2258 107.915C42.5401 107.915 40.3628 110.092 40.3628 112.778C40.3628 115.463 42.5401 117.64 45.2258 117.64Z" fill="#1B1A1A" stroke="#1B1A1A" stroke-width="2.5" stroke-miterlimit="10"/>
<path d="M102.092 117.654C110.27 117.654 116.9 115.425 116.9 112.677C116.9 109.928 110.27 107.7 102.092 107.7C93.9144 107.7 87.2849 109.928 87.2849 112.677C87.2849 115.425 93.9144 117.654 102.092 117.654Z" fill="#FFFBF1" stroke="#1B1A1A" stroke-width="2.5" stroke-miterlimit="10"/>
<path d="M102.093 117.64C104.779 117.64 106.956 115.463 106.956 112.778C106.956 110.092 104.779 107.915 102.093 107.915C99.4071 107.915 97.2298 110.092 97.2298 112.778C97.2298 115.463 99.4071 117.64 102.093 117.64Z" fill="#1B1A1A" stroke="#1B1A1A" stroke-width="2.5" stroke-miterlimit="10"/>
<path d="M71.758 91.7393C78.5896 91.7393 84.1277 86.2012 84.1277 79.3697C84.1277 72.5381 78.5896 67.0001 71.758 67.0001C64.9265 67.0001 59.3884 72.5381 59.3884 79.3697C59.3884 86.2012 64.9265 91.7393 71.758 91.7393Z" fill="#FFDE00" stroke="#1B1A1A" stroke-width="2.5" stroke-miterlimit="10"/>
<path d="M71.3884 77.9999C88.5092 77.9999 102.388 64.1207 102.388 46.9999C102.388 29.8791 88.5092 16 71.3884 16C54.2676 16 40.3884 29.8791 40.3884 46.9999C40.3884 64.1207 54.2676 77.9999 71.3884 77.9999Z" fill="#009FE3" stroke="#1B1A1A" stroke-width="2.5" stroke-miterlimit="10"/>
<path d="M71.129 167.155C89.8772 167.155 105.076 162.046 105.076 155.745C105.076 149.443 89.8772 144.335 71.129 144.335C52.3809 144.335 37.1825 149.443 37.1825 155.745C37.1825 162.046 52.3809 167.155 71.129 167.155Z" fill="#FFFBF1" stroke="#1B1A1A" stroke-width="2.5" stroke-miterlimit="10"/>
<path d="M71.1284 167.125C77.2856 167.125 82.2769 162.134 82.2769 155.977C82.2769 149.82 77.2856 144.829 71.1284 144.829C64.9713 144.829 59.9799 149.82 59.9799 155.977C59.9799 162.134 64.9713 167.125 71.1284 167.125Z" fill="#1B1A1A" stroke="#1B1A1A" stroke-width="2.5" stroke-miterlimit="10"/>
<path d="M71.8884 59.0001C79.8965 59.0001 86.3884 52.5082 86.3884 44.5001C86.3884 36.4919 79.8965 30.0001 71.8884 30.0001C63.8803 30.0001 57.3884 36.4919 57.3884 44.5001C57.3884 52.5082 63.8803 59.0001 71.8884 59.0001Z" fill="#FFDE00" stroke="#1B1A1A" stroke-width="2.5" stroke-miterlimit="10"/>
<path d="M71.7026 51.0001C84.0264 51.0001 94.0168 47.6422 94.0168 43.5C94.0168 39.3579 84.0264 36.0001 71.7026 36.0001C59.3788 36.0001 49.3884 39.3579 49.3884 43.5C49.3884 47.6422 59.3788 51.0001 71.7026 51.0001Z" fill="#FFFBF1" stroke="#1B1A1A" stroke-width="2.5" stroke-miterlimit="10"/>
<path d="M71.704 50.9802C75.7513 50.9802 79.0323 47.6994 79.0323 43.6523C79.0323 39.6051 75.7513 36.3243 71.704 36.3243C67.6567 36.3243 64.3757 39.6051 64.3757 43.6523C64.3757 47.6994 67.6567 50.9802 71.704 50.9802Z" fill="#1B1A1A" stroke="#1B1A1A" stroke-width="2.5" stroke-miterlimit="10"/>
</svg>
