<svg width="167" height="596" viewBox="0 0 167 596" fill="none" xmlns="http://www.w3.org/2000/svg">
<path d="M64.961 185.977C64.961 185.977 16.4586 302.222 55.9589 347.722C95.4592 393.222 49.1232 594.406 49.1232 594.406" stroke="#1B1A1A" stroke-width="7.5"/>
<path d="M65.1309 185.938C65.1309 185.938 16.6285 302.183 56.1288 347.682C95.6292 393.182 49.2931 594.366 49.2931 594.366" stroke="#FFDE00" stroke-width="2.5"/>
<path d="M102.864 15.8447C116.239 18.8022 163.775 37.3735 141.59 137.701C137.361 156.824 120.625 201.227 64.61 188.84C8.59523 176.454 12.141 129.135 16.3695 110.012C38.5545 9.6842 89.4888 12.8871 102.864 15.8447Z" fill="#E30613" stroke="#1B1A1A" stroke-width="2.5" stroke-miterlimit="10"/>
<path d="M114.582 181.256C118.757 179.087 122.43 176.441 125.657 173.489C127.363 171.927 127.9 169.46 127.004 167.33L100.286 103.896L106.607 176.873C106.945 180.757 111.122 183.053 114.582 181.256Z" fill="#009FE3" stroke="#1B1A1A" stroke-width="2.5" stroke-miterlimit="10"/>
<path d="M15.6074 150.141C17.3763 154.193 19.6934 158.146 22.686 161.862C25.105 164.866 29.7813 164.517 31.7037 161.173L68.5346 97.0994L16.9515 143.91C15.2152 145.487 14.67 147.993 15.6074 150.141Z" fill="#009FE3" stroke="#1B1A1A" stroke-width="2.5" stroke-miterlimit="10"/>
<path d="M132.039 139.863C134.901 142.985 140.079 141.812 141.306 137.758C142.037 135.338 142.607 133.098 143.042 131.128C143.733 128.004 144.356 124.962 144.913 121.995C145.945 116.518 142.441 111.209 136.997 110.006L96.4241 101.023L132.039 139.863Z" fill="#009FE3" stroke="#1B1A1A" stroke-width="2.5" stroke-miterlimit="10"/>
<path d="M24.0298 116.631L73.7257 96.0014L32.2108 86.8349C26.7665 85.6333 21.3536 88.9678 19.9771 94.3688C19.2318 97.2917 18.5138 100.315 17.8235 103.437C17.3503 105.577 16.8864 108.071 16.5127 110.829C15.9438 115.019 20.1225 118.252 24.0298 116.631Z" fill="#009FE3" stroke="#1B1A1A" stroke-width="2.5" stroke-miterlimit="10"/>
<path d="M79.1502 81.5397L96.6697 85.4137C103.331 86.8868 110.273 84.6953 114.878 79.6621L126.992 66.4276C131.597 61.3944 133.169 54.2869 131.115 47.7831L124.6 27.1643C116.131 19.7369 107.472 16.864 102.864 15.8451C98.2562 14.8263 89.1927 13.7801 78.3817 16.9442L63.781 32.894C59.1754 37.9273 57.6038 45.0348 59.6583 51.5385L65.0622 68.6464C67.1183 75.1528 72.4885 80.0667 79.1502 81.5397Z" fill="#009FE3" stroke="#1B1A1A" stroke-width="2.5" stroke-miterlimit="10"/>
<path d="M56.0854 175.12C54.6224 181.402 58.6674 187.526 64.9649 188.919L67.43 189.464C73.7272 190.856 79.9772 187.009 81.2994 180.696C83.9036 168.265 87.2692 148.575 85.2103 137.675C83.4659 128.447 82.7002 124.2 86.0535 109.036C89.0882 95.3117 92.0735 94.8091 92.8068 91.3709C92.8068 91.3709 100.071 73.8754 92.0889 72.1102C84.1064 70.3451 83.317 89.2724 83.317 89.2724C82.5327 92.6972 85.0273 94.4137 81.9926 108.138C78.6388 123.305 76.1523 126.83 70.6818 134.463C64.2177 143.478 58.9665 162.75 56.0854 175.12Z" fill="#FFDE00" stroke="#1B1A1A" stroke-width="2.5" stroke-miterlimit="10"/>
<path d="M78.8969 163.379C81.3224 152.41 80.2995 142.857 76.6122 142.042C72.9248 141.226 67.9694 149.457 65.5439 160.426C63.1184 171.395 64.1413 180.948 67.8287 181.763C71.516 182.579 76.4715 174.348 78.8969 163.379Z" fill="#FFFBF1" stroke="#1B1A1A" stroke-width="2.5" stroke-miterlimit="10"/>
<path d="M78.7372 163.343C79.534 159.74 77.2589 156.173 73.6556 155.376C70.0523 154.579 66.4854 156.855 65.6886 160.458C64.8918 164.061 67.1669 167.628 70.7701 168.425C74.3734 169.222 77.9404 166.947 78.7372 163.343Z" fill="#1B1A1A" stroke="#1B1A1A" stroke-width="2.5" stroke-miterlimit="10"/>
<path d="M97.4238 40.5024C82.3809 37.176 69.2797 38.5789 68.1615 43.6358C67.0433 48.6927 78.3315 55.4887 93.3744 58.815C108.417 62.1414 121.518 60.7385 122.637 55.6816C123.755 50.6247 112.467 43.8287 97.4238 40.5024Z" fill="#FFFBF1" stroke="#1B1A1A" stroke-width="2.5" stroke-miterlimit="10"/>
<path d="M97.4186 40.526C92.4769 39.4332 87.585 42.5533 86.4923 47.4949C85.3995 52.4365 88.5198 57.3283 93.4616 58.4211C98.4033 59.5138 103.295 56.3937 104.388 51.4521C105.481 46.5105 102.36 41.6187 97.4186 40.526Z" fill="#1B1A1A" stroke="#1B1A1A" stroke-width="2.5" stroke-miterlimit="10"/>
<path d="M49.0616 113.777L64.4369 117.177C67.6617 117.89 70.9423 116.245 72.3005 113.235L76.9615 102.907C78.7825 98.8724 76.4324 94.1833 72.1099 93.2275L52.2019 88.8254C47.8794 87.8695 43.7714 91.1305 43.7215 95.5565L43.5931 106.887C43.5556 110.189 45.839 113.064 49.0616 113.777Z" fill="#FFDE00" stroke="#1B1A1A" stroke-width="2.5" stroke-miterlimit="10"/>
<path d="M112.306 127.163L96.9309 123.763C93.7062 123.05 91.425 120.175 91.4624 116.873L91.5908 105.543C91.6407 101.117 95.7487 97.8557 100.071 98.8115L119.979 103.214C124.302 104.169 126.652 108.859 124.831 112.893L120.17 123.221C118.812 126.231 115.531 127.876 112.306 127.163Z" fill="#FFDE00" stroke="#1B1A1A" stroke-width="2.5" stroke-miterlimit="10"/>
<path d="M65.3255 117.144C67.5131 111.421 70.4615 102.603 63.7008 91.5799C54.033 75.814 38.8761 78.3522 38.8761 78.3522C38.8761 78.3522 48.1819 87.3342 49.8766 90.095C53.8567 96.586 48.9253 113.406 48.9253 113.406L65.3255 117.144Z" fill="#009FE3" stroke="#1B1A1A" stroke-width="2.5" stroke-miterlimit="10"/>
<path d="M96.1408 123.359C96.5703 117.247 97.6147 108.008 108.393 100.863C123.807 90.6428 136.48 99.3351 136.48 99.3351C136.48 99.3351 124.255 103.556 121.554 105.345C115.208 109.553 112.588 126.883 112.588 126.883L96.1408 123.359Z" fill="#009FE3" stroke="#1B1A1A" stroke-width="2.5" stroke-miterlimit="10"/>
<path d="M47.7173 73.7608C51.8524 74.6752 56.0066 71.789 56.9961 67.3144C57.9855 62.8397 55.4355 58.4711 51.3005 57.5567C47.1654 56.6424 43.0112 59.5285 42.0217 64.0032C41.0323 68.4778 43.5823 72.8465 47.7173 73.7608Z" fill="#FFDE00" stroke="#1B1A1A" stroke-width="2.5" stroke-miterlimit="10"/>
<path d="M29.7945 106.598C32.7509 107.252 35.7206 105.191 36.4273 101.995C37.1341 98.7986 35.3103 95.6776 32.3539 95.0239C29.3974 94.3701 26.4278 96.4312 25.721 99.6273C25.0143 102.823 26.838 105.944 29.7945 106.598Z" fill="#E30613" stroke="#1B1A1A" stroke-width="2.5" stroke-miterlimit="10"/>
<path d="M24.7756 155.036C27.7321 155.69 30.7017 153.628 31.4085 150.432C32.1152 147.236 30.2915 144.115 27.335 143.461C24.3786 142.808 21.4089 144.869 20.7022 148.065C19.9954 151.261 21.8192 154.382 24.7756 155.036Z" fill="#E30613" stroke="#1B1A1A" stroke-width="2.5" stroke-miterlimit="10"/>
<path d="M116.903 174.877C119.86 175.531 122.83 173.47 123.536 170.273C124.243 167.077 122.419 163.956 119.463 163.303C116.506 162.649 113.537 164.71 112.83 167.906C112.123 171.102 113.947 174.223 116.903 174.877Z" fill="#E30613" stroke="#1B1A1A" stroke-width="2.5" stroke-miterlimit="10"/>
<path d="M110.592 153.146C112.61 153.592 114.636 152.188 115.117 150.011C115.599 147.834 114.354 145.707 112.336 145.261C110.318 144.815 108.293 146.218 107.811 148.395C107.33 150.573 108.575 152.7 110.592 153.146Z" fill="#E30613" stroke="#1B1A1A" stroke-width="2.5" stroke-miterlimit="10"/>
<path d="M38.7585 137.261C40.7761 137.708 42.802 136.304 43.2835 134.127C43.7649 131.949 42.5197 129.823 40.5021 129.376C38.4845 128.93 36.4586 130.334 35.9771 132.511C35.4957 134.689 36.7409 136.815 38.7585 137.261Z" fill="#E30613" stroke="#1B1A1A" stroke-width="2.5" stroke-miterlimit="10"/>
<path d="M132.63 129.49C135.587 130.143 138.556 128.082 139.263 124.886C139.97 121.69 138.146 118.569 135.19 117.915C132.233 117.261 129.264 119.322 128.557 122.519C127.85 125.715 129.674 128.836 132.63 129.49Z" fill="#E30613" stroke="#1B1A1A" stroke-width="2.5" stroke-miterlimit="10"/>
<path d="M129.605 91.8685C133.74 92.7828 137.894 89.8967 138.884 85.422C139.873 80.9474 137.323 76.5787 133.188 75.6644C129.053 74.75 124.899 77.6362 123.91 82.1108C122.92 86.5855 125.47 90.9541 129.605 91.8685Z" fill="#FFDE00" stroke="#1B1A1A" stroke-width="2.5" stroke-miterlimit="10"/>
</svg>
