<svg width="120" height="205" viewBox="0 0 120 205" fill="none" xmlns="http://www.w3.org/2000/svg">
<path d="M59.9061 152.642C91.8865 152.642 117.812 126.716 117.812 94.736C117.812 62.7556 91.8865 36.8304 59.9061 36.8304C27.9257 36.8304 2.00049 62.7556 2.00049 94.736C2.00049 126.716 27.9257 152.642 59.9061 152.642Z" fill="#FFDE00" stroke="#1B1A1A" stroke-width="3" stroke-miterlimit="10"/>
<path d="M59.9056 170.93C91.886 170.93 117.811 145.005 117.811 113.024C117.811 81.0438 91.886 55.1185 59.9056 55.1185C27.9252 55.1185 2 81.0438 2 113.024C2 145.005 27.9252 170.93 59.9056 170.93Z" fill="#009FE3" stroke="#1B1A1A" stroke-width="3" stroke-miterlimit="10"/>
<path d="M59.4713 76.4388C46.4875 76.4388 35.9621 83.6487 35.9621 92.5427C35.9621 101.437 46.4875 108.647 59.4713 108.647C72.455 108.647 82.9805 101.437 82.9805 92.5427C82.9805 83.6487 72.455 76.4388 59.4713 76.4388Z" fill="#009FE3" stroke="#1B1A1A" stroke-width="3" stroke-miterlimit="10"/>
<path d="M59.4688 64.0083C46.4851 64.0083 35.9597 71.2183 35.9597 80.1122C35.9597 89.0061 46.4851 96.2161 59.4688 96.2161C72.4526 96.2161 82.978 89.0061 82.978 80.1122C82.978 71.2183 72.4526 64.0083 59.4688 64.0083Z" fill="#E30613" stroke="#1B1A1A" stroke-width="3" stroke-miterlimit="10"/>
<path d="M59.4713 46.6361C46.4875 46.6361 35.9621 53.846 35.9621 62.74C35.9621 71.6339 46.4875 78.8438 59.4713 78.8438C72.455 78.8438 82.9805 71.6339 82.9805 62.74C82.9805 53.846 72.455 46.6361 59.4713 46.6361Z" fill="#FFDE00" stroke="#1B1A1A" stroke-width="3" stroke-miterlimit="10"/>
<path d="M59.4713 24.3193C46.4875 24.3193 35.9621 31.5293 35.9621 40.4232C35.9621 49.3172 46.4875 56.5271 59.4713 56.5271C72.455 56.5271 82.9805 49.3172 82.9805 40.4232C82.9805 31.5293 72.455 24.3193 59.4713 24.3193Z" fill="#E30613" stroke="#1B1A1A" stroke-width="3" stroke-miterlimit="10"/>
<path d="M59.4688 2C46.4851 2 35.9597 9.20994 35.9597 18.1039C35.9597 26.9978 46.4851 34.2078 59.4688 34.2078C72.4526 34.2078 82.978 26.9978 82.978 18.1039C82.978 9.20994 72.4526 2 59.4688 2Z" fill="#009FE3" stroke="#1B1A1A" stroke-width="3" stroke-miterlimit="10"/>
<path d="M59.3459 25.2377C70.8269 25.2377 80.1341 22.1095 80.1341 18.2506C80.1341 14.3917 70.8269 11.2635 59.3459 11.2635C47.8648 11.2635 38.5576 14.3917 38.5576 18.2506C38.5576 22.1095 47.8648 25.2377 59.3459 25.2377Z" fill="#FFFBF1" stroke="#1B1A1A" stroke-width="3" stroke-miterlimit="10"/>
<path d="M59.3457 25.2179C63.1162 25.2179 66.1729 22.1614 66.1729 18.391C66.1729 14.6207 63.1162 11.5642 59.3457 11.5642C55.5752 11.5642 52.5186 14.6207 52.5186 18.391C52.5186 22.1614 55.5752 25.2179 59.3457 25.2179Z" fill="#1B1A1A" stroke="#1B1A1A" stroke-width="3" stroke-miterlimit="10"/>
<path d="M105.829 148.163C100.437 127.689 81.7733 112.587 59.5743 112.587C37.3752 112.587 18.7118 127.689 13.3198 148.163C21.9171 180.606 39.4014 202.812 59.5743 202.812C79.7472 202.812 97.2333 180.604 105.829 148.163Z" fill="#E30613" stroke="#1B1A1A" stroke-width="3" stroke-miterlimit="10"/>
<path d="M42.4698 180.939H77.2517C84.9373 180.939 91.1668 174.71 91.1668 167.024V153.091C91.1668 135.801 77.1508 121.785 59.8607 121.785C42.5721 121.785 28.5562 135.801 28.5562 153.09V167.023C28.5562 174.708 34.7856 180.939 42.4698 180.939Z" fill="#009FE3" stroke="#1B1A1A" stroke-width="3" stroke-miterlimit="10"/>
<path d="M44.9095 176.794H74.8157C81.4233 176.794 86.7794 171.438 86.7794 164.831V152.851C86.7794 137.985 74.7282 125.934 59.8626 125.934C44.997 125.934 32.9458 137.985 32.9458 152.851V164.831C32.9443 171.438 38.3004 176.794 44.9095 176.794Z" fill="#009FE3" stroke="#1B1A1A" stroke-width="3" stroke-miterlimit="10"/>
<path d="M53.813 126.616L53.8708 127.099L59.8616 137.475L65.8523 127.099L65.9101 126.616C63.9661 126.17 61.942 125.934 59.8616 125.934C57.7811 125.934 55.757 126.17 53.813 126.616Z" fill="#E30613" stroke="#1B1A1A" stroke-width="3" stroke-miterlimit="10"/>
<path d="M84.2186 141.38C82.4866 137.709 79.9495 134.492 76.834 131.958L72.2905 143.115L84.2186 141.38Z" fill="#E30613" stroke="#1B1A1A" stroke-width="3" stroke-miterlimit="10"/>
<path d="M86.7784 152.852C86.7784 148.75 85.8606 144.862 84.219 141.382L75.3931 149.619L86.7784 152.852Z" fill="#FFDE00" stroke="#1B1A1A" stroke-width="3" stroke-miterlimit="10"/>
<path d="M76.8344 131.959C73.6996 129.408 69.9806 127.55 65.9087 126.616L67.0624 139.019L76.8344 131.959Z" fill="#FFDE00" stroke="#1B1A1A" stroke-width="3" stroke-miterlimit="10"/>
<path d="M86.7789 164.83V152.85L76.4033 158.839L86.7789 164.83Z" fill="#E30613" stroke="#1B1A1A" stroke-width="3" stroke-miterlimit="10"/>
<path d="M35.5029 141.38C37.2349 137.709 39.7721 134.492 42.8876 131.958L47.431 143.115L35.5029 141.38Z" fill="#E30613" stroke="#1B1A1A" stroke-width="3" stroke-miterlimit="10"/>
<path d="M32.9434 152.852C32.9434 148.75 33.8612 144.862 35.5028 141.382L44.3287 149.619L32.9434 152.852Z" fill="#FFDE00" stroke="#1B1A1A" stroke-width="3" stroke-miterlimit="10"/>
<path d="M42.8877 131.959C46.0225 129.408 49.7415 127.55 53.8134 126.616L52.6597 139.019L42.8877 131.959Z" fill="#FFDE00" stroke="#1B1A1A" stroke-width="3" stroke-miterlimit="10"/>
<path d="M32.9434 164.83V152.85L43.3189 158.839L32.9434 164.83Z" fill="#E30613" stroke="#1B1A1A" stroke-width="3" stroke-miterlimit="10"/>
<path d="M59.8598 157.648C49.5376 157.648 41.1268 165.818 40.7339 176.044C42.0329 176.528 43.4386 176.793 44.9066 176.793H46.084C48.0132 171.034 53.4494 166.88 59.8598 166.88C66.2687 166.88 71.7048 171.032 73.6355 176.793H74.8129C76.2809 176.793 77.6867 176.528 78.9856 176.044C78.5927 165.818 70.1834 157.648 59.8598 157.648Z" fill="#FFDE00" stroke="#1B1A1A" stroke-width="3" stroke-miterlimit="10"/>
<path d="M59.8602 166.883C53.4513 166.883 48.0152 171.035 46.0845 176.796H73.6359C71.7067 171.035 66.2706 166.883 59.8602 166.883Z" fill="#E30613" stroke="#1B1A1A" stroke-width="3" stroke-miterlimit="10"/>
</svg>
