<svg width="176" height="205" viewBox="0 0 176 205" fill="none" xmlns="http://www.w3.org/2000/svg">
<path d="M100.065 93.8075C107.878 99.7212 120.132 108.211 140.568 103.358C169.799 96.4155 173.294 72.8001 173.294 72.8001C173.294 72.8001 154.78 82.3773 149.661 83.5881C137.629 86.4478 113.924 71.2836 113.924 71.2836L100.065 93.8075Z" fill="#E30613" stroke="#1B1A1A" stroke-width="3" stroke-miterlimit="10"/>
<path d="M101.211 82.2709C110.364 86.0559 124.505 91.2339 142.927 81.5056C169.276 67.5903 166.239 43.9174 166.239 43.9174C166.239 43.9174 150.957 57.7347 146.341 60.1669C135.496 65.8968 108.48 57.0963 108.48 57.0963L101.211 82.2709Z" fill="#E30613" stroke="#1B1A1A" stroke-width="3" stroke-miterlimit="10"/>
<path d="M105.875 77.472C115.787 76.3886 130.751 74.1346 141.601 56.9319C157.119 32.3258 142.068 13.2715 142.068 13.2715C142.068 13.2715 136.083 32.5194 133.362 36.8252C126.975 46.9552 98.9613 52.2066 98.9613 52.2066L105.875 77.472Z" fill="#E30613" stroke="#1B1A1A" stroke-width="3" stroke-miterlimit="10"/>
<path d="M75.9716 93.8075C68.1582 99.7212 55.905 108.211 35.4687 103.358C6.23805 96.4155 2.74221 72.8001 2.74221 72.8001C2.74221 72.8001 21.2562 82.3773 26.3755 83.5881C38.4076 86.4478 62.113 71.2836 62.113 71.2836L75.9716 93.8075Z" fill="#E30613" stroke="#1B1A1A" stroke-width="3" stroke-miterlimit="10"/>
<path d="M74.8259 82.2709C65.6727 86.0559 51.5313 91.2339 33.1094 81.5056C6.76018 67.5903 9.79719 43.9174 9.79719 43.9174C9.79719 43.9174 25.0793 57.7347 29.6952 60.1669C40.5407 65.8968 67.5569 57.0963 67.5569 57.0963L74.8259 82.2709Z" fill="#E30613" stroke="#1B1A1A" stroke-width="3" stroke-miterlimit="10"/>
<path d="M70.1621 77.472C60.2492 76.3886 45.2857 74.1346 34.436 56.9319C18.9179 32.3258 33.9686 13.2715 33.9686 13.2715C33.9686 13.2715 39.9537 32.5194 42.6751 36.8252C49.0613 46.9552 77.0753 52.2065 77.0753 52.2065L70.1621 77.472Z" fill="#E30613" stroke="#1B1A1A" stroke-width="3" stroke-miterlimit="10"/>
<path d="M88.4126 156.171C112.671 156.171 132.336 126.854 132.336 90.6898C132.336 54.5254 112.671 25.2084 88.4126 25.2084C64.1541 25.2084 44.4888 54.5254 44.4888 90.6898C44.4888 126.854 64.1541 156.171 88.4126 156.171Z" fill="#FFDE00" stroke="#1B1A1A" stroke-width="3" stroke-miterlimit="10"/>
<path d="M130.648 97.32C130.648 119.656 111.749 137.761 88.438 137.761C65.1274 137.761 46.2285 119.654 46.2285 97.32V113.438C46.2285 174.396 77.711 202.774 88.438 202.774C99.165 202.774 130.648 174.399 130.648 113.438V97.32Z" fill="#009FE3" stroke="#1B1A1A" stroke-width="3" stroke-miterlimit="10" stroke-linecap="round" stroke-linejoin="round"/>
<path d="M76.1944 151.938V196.433C81.1027 200.677 85.5339 202.774 88.438 202.774C91.3422 202.774 95.7709 200.674 100.682 196.433V151.938C118.018 146.907 130.648 131.493 130.648 113.238V97.32C130.648 119.654 111.75 137.761 88.4405 137.761C65.1263 137.763 46.2285 119.656 46.2285 97.3224V113.24C46.2285 131.493 58.8557 146.91 76.1944 151.938Z" fill="#FFDE00" stroke="#1B1A1A" stroke-width="3" stroke-miterlimit="10"/>
<path d="M87.8674 186.465C91.9627 186.465 95.2826 177.217 95.2826 165.81C95.2826 154.402 91.9627 145.154 87.8674 145.154C83.772 145.154 80.4521 154.402 80.4521 165.81C80.4521 177.217 83.772 186.465 87.8674 186.465Z" fill="#E30613" stroke="#1B1A1A" stroke-width="3" stroke-miterlimit="10"/>
<path d="M87.8674 172.334C91.9627 172.334 95.2826 169.17 95.2826 165.268C95.2826 161.365 91.9627 158.201 87.8674 158.201C83.772 158.201 80.4521 161.365 80.4521 165.268C80.4521 169.17 83.772 172.334 87.8674 172.334Z" fill="#1B1A1A" stroke="#1B1A1A" stroke-width="3" stroke-miterlimit="10"/>
<path d="M61.6582 158.43V171.047C61.6582 172.661 62.7496 174.094 64.362 174.593L67.8091 175.662C70.3376 176.445 72.9303 174.65 72.9303 172.115V157.361C72.9303 154.829 70.3376 153.034 67.8091 153.815L64.362 154.883C62.7496 155.385 61.6582 156.815 61.6582 158.43Z" fill="#FFDE00" stroke="#1B1A1A" stroke-width="3" stroke-miterlimit="10"/>
<path d="M72.7846 170.557C68.5499 171.157 62.0854 171.807 55.5839 165.825C46.2847 157.269 50.3022 147.779 50.3022 147.779C50.3022 147.779 55.0258 155.123 56.6555 156.62C60.4829 160.142 72.7056 159.354 72.7056 159.354L72.7846 170.557Z" fill="#E30613" stroke="#1B1A1A" stroke-width="3" stroke-miterlimit="10"/>
<path d="M115.28 158.43V171.047C115.28 172.661 114.189 174.094 112.576 174.593L109.129 175.662C106.601 176.445 104.008 174.65 104.008 172.115V157.361C104.008 154.829 106.601 153.034 109.129 153.815L112.576 154.883C114.189 155.385 115.28 156.815 115.28 158.43Z" fill="#FFDE00" stroke="#1B1A1A" stroke-width="3" stroke-miterlimit="10"/>
<path d="M104.153 170.557C108.388 171.157 114.852 171.806 121.354 165.825C130.653 157.271 126.635 147.779 126.635 147.779C126.635 147.779 121.912 155.123 120.282 156.619C116.455 160.142 104.232 159.354 104.232 159.354L104.153 170.557Z" fill="#E30613" stroke="#1B1A1A" stroke-width="3" stroke-miterlimit="10"/>
<path d="M119.405 111.412C132.615 111.412 143.324 101.207 143.324 88.6179C143.324 76.029 132.615 65.8237 119.405 65.8237C106.195 65.8237 95.4863 76.029 95.4863 88.6179C95.4863 101.207 106.195 111.412 119.405 111.412Z" fill="#009FE3" stroke="#1B1A1A" stroke-width="3" stroke-miterlimit="10"/>
<path d="M119.408 95.3325C130.632 95.3325 139.732 92.4178 139.732 88.8223C139.732 85.2269 130.632 82.3122 119.408 82.3122C108.183 82.3122 99.0835 85.2269 99.0835 88.8223C99.0835 92.4178 108.183 95.3325 119.408 95.3325Z" fill="#FFFBF1" stroke="#1B1A1A" stroke-width="3" stroke-miterlimit="10"/>
<path d="M119.407 94.6234C123.094 94.6234 126.082 91.7755 126.082 88.2625C126.082 84.7495 123.094 81.9016 119.407 81.9016C115.721 81.9016 112.732 84.7495 112.732 88.2625C112.732 91.7755 115.721 94.6234 119.407 94.6234Z" fill="#1B1A1A" stroke="#1B1A1A" stroke-width="3" stroke-miterlimit="10"/>
<path d="M56.2309 111.411C69.441 111.411 80.1499 101.206 80.1499 88.6171C80.1499 76.0283 69.441 65.823 56.2309 65.823C43.0209 65.823 32.312 76.0283 32.312 88.6171C32.312 101.206 43.0209 111.411 56.2309 111.411Z" fill="#009FE3" stroke="#1B1A1A" stroke-width="3" stroke-miterlimit="10"/>
<path d="M56.2328 95.3318C67.4576 95.3318 76.557 92.4171 76.557 88.8216C76.557 85.2261 67.4576 82.3114 56.2328 82.3114C45.0081 82.3114 35.9087 85.2261 35.9087 88.8216C35.9087 92.4171 45.0081 95.3318 56.2328 95.3318Z" fill="#FFFBF1" stroke="#1B1A1A" stroke-width="3" stroke-miterlimit="10"/>
<path d="M56.2324 94.6226C59.9187 94.6226 62.9071 91.7748 62.9071 88.2618C62.9071 84.7488 59.9187 81.9009 56.2324 81.9009C52.546 81.9009 49.5576 84.7488 49.5576 88.2618C49.5576 91.7748 52.546 94.6226 56.2324 94.6226Z" fill="#1B1A1A" stroke="#1B1A1A" stroke-width="3" stroke-miterlimit="10"/>
<path d="M98.0063 2.00076H78.4913C78.4913 2.00076 77.4842 33.5069 82.5887 40.7083C85.3982 44.6745 86.6673 46.5028 86.6673 53.6377C86.6673 60.0945 84.5333 60.6157 84.5522 62.2304C84.5522 62.2304 82.03 70.7977 88.2488 70.7977C94.4676 70.7977 91.9454 62.2304 91.9454 62.2304C91.9643 60.6157 89.8303 60.0945 89.8303 53.6377C89.8303 46.5028 91.0993 44.6745 93.9089 40.7083C99.0133 33.5069 98.0063 2.00076 98.0063 2.00076Z" fill="#E30613" stroke="#1B1A1A" stroke-width="3" stroke-miterlimit="10"/>
<path d="M98.0048 2H78.4897V4.9041C78.4897 8.2491 82.8587 10.9612 88.2473 10.9612C93.6359 10.9612 98.0048 8.2491 98.0048 4.9041V2Z" fill="#009FE3" stroke="#1B1A1A" stroke-width="3" stroke-miterlimit="10"/>
</svg>
