<svg width="152" height="205" viewBox="0 0 152 205" fill="none" xmlns="http://www.w3.org/2000/svg">
<path d="M76.1199 54.5684C35.1843 54.5684 1.99955 87.7532 1.99955 128.689C1.99955 169.624 35.1844 202.809 76.1199 202.809C117.055 202.809 150.24 169.624 150.24 128.689C150.24 87.7532 117.055 54.5684 76.1199 54.5684Z" fill="#009FE3" stroke="#1B1A1A" stroke-width="3" stroke-miterlimit="10"/>
<path d="M76.1197 66.3194C41.6739 66.3194 13.7501 94.2432 13.7501 128.689C13.7502 163.135 41.674 191.058 76.1197 191.058C110.565 191.058 138.489 163.135 138.489 128.689C138.489 94.2432 110.565 66.3194 76.1197 66.3194Z" fill="#FFDE00" stroke="#1B1A1A" stroke-width="3" stroke-miterlimit="10"/>
<path d="M25.418 112.757C27.7152 106.036 31.6324 95.9936 45.8324 91.1894C66.1404 84.3174 77.7578 97.8235 77.7578 97.8235C77.7578 97.8235 62.8052 98.9203 59.2489 100.123C50.8884 102.952 49.523 112.133 49.523 112.133C47.0327 112.972 25.418 112.757 25.418 112.757Z" fill="#E30613" stroke="#1B1A1A" stroke-width="3" stroke-miterlimit="10"/>
<path d="M38.1772 111.39C25.6849 111.39 15.558 114.795 15.558 118.995C15.558 123.195 25.6849 126.6 38.1772 126.6C50.6694 126.6 60.7964 123.195 60.7964 118.995C60.7964 114.795 50.6694 111.39 38.1772 111.39Z" fill="#FFFBF1" stroke="#1B1A1A" stroke-width="3" stroke-miterlimit="10"/>
<path d="M38.1769 111.41C34.0725 111.41 30.7453 114.737 30.7453 118.842C30.7453 122.946 34.0725 126.273 38.1769 126.273C42.2812 126.273 45.6084 122.946 45.6084 118.842C45.6084 114.737 42.2812 111.41 38.1769 111.41Z" fill="#1B1A1A" stroke="#1B1A1A" stroke-width="3" stroke-miterlimit="10"/>
<path d="M125.917 127.298C123.62 120.577 119.703 110.535 105.503 105.731C85.1946 98.8587 73.5772 112.365 73.5772 112.365C73.5772 112.365 88.5298 113.462 92.0861 114.665C100.447 117.494 101.812 126.674 101.812 126.674C104.302 127.513 125.917 127.298 125.917 127.298Z" fill="#E30613" stroke="#1B1A1A" stroke-width="3" stroke-miterlimit="10"/>
<path d="M113.158 125.931C100.666 125.931 90.5389 129.336 90.5389 133.536C90.5389 137.737 100.666 141.141 113.158 141.141C125.65 141.141 135.777 137.737 135.777 133.536C135.777 129.336 125.65 125.931 113.158 125.931Z" fill="#FFFBF1" stroke="#1B1A1A" stroke-width="3" stroke-miterlimit="10"/>
<path d="M113.158 125.952C109.053 125.952 105.726 129.279 105.726 133.383C105.726 137.488 109.053 140.815 113.158 140.815C117.262 140.815 120.589 137.488 120.589 133.383C120.589 129.279 117.262 125.952 113.158 125.952Z" fill="#1B1A1A" stroke="#1B1A1A" stroke-width="3" stroke-miterlimit="10"/>
<path d="M46.0054 147.657C48.3026 154.378 52.2198 164.42 66.4198 169.224C86.7278 176.096 98.3452 162.59 98.3452 162.59C98.3452 162.59 83.3926 161.493 79.8363 160.29C71.4758 157.461 70.1104 148.281 70.1104 148.281C67.6201 147.442 46.0054 147.657 46.0054 147.657Z" fill="#E30613" stroke="#1B1A1A" stroke-width="3" stroke-miterlimit="10"/>
<path d="M58.7646 133.811C46.2723 133.811 36.1454 137.215 36.1454 141.416C36.1454 145.616 46.2723 149.021 58.7646 149.021C71.2568 149.021 81.3838 145.616 81.3838 141.416C81.3838 137.215 71.2568 133.811 58.7646 133.811Z" fill="#FFFBF1" stroke="#1B1A1A" stroke-width="3" stroke-miterlimit="10"/>
<path d="M58.7647 134.136C54.6604 134.136 51.3332 137.463 51.3332 141.568C51.3332 145.672 54.6604 148.999 58.7647 148.999C62.8691 148.999 66.1963 145.672 66.1963 141.568C66.1963 137.463 62.8691 134.136 58.7647 134.136Z" fill="#1B1A1A" stroke="#1B1A1A" stroke-width="3" stroke-miterlimit="10"/>
<path d="M52.5256 12.9077C41.0986 27.5989 27.656 54.0028 17.3657 81.5438L134.874 81.5438C124.578 54.0028 111.141 27.5989 99.7136 12.9077C95.0964 6.97587 88.7767 3.34333 82.0781 1.99999L70.1662 1.99999C63.4625 3.34333 57.1429 6.97588 52.5256 12.9077Z" fill="#FFDE00" stroke="#1B1A1A" stroke-width="3" stroke-miterlimit="10"/>
<path d="M61.6002 38.6456C54.5682 47.8276 46.2959 64.33 39.9634 81.5431L112.276 81.5431C105.94 64.33 97.671 47.8276 90.639 38.6456C87.7976 34.9382 83.9086 32.6678 79.7864 31.8282L72.456 31.8282C68.3306 32.6678 64.4416 34.9382 61.6002 38.6456Z" fill="#E30613" stroke="#1B1A1A" stroke-width="3" stroke-miterlimit="10"/>
<path d="M86.1597 49.422L65.8711 49.422C61.6172 49.422 57.9442 52.4046 57.076 56.5677L54.087 70.8591C52.9189 76.4432 57.1791 81.6869 62.8821 81.6869L89.1518 81.6869C94.8548 81.6869 99.1149 76.4432 97.9468 70.859L94.9579 56.5677C94.0834 52.4046 90.4135 49.422 86.1597 49.422Z" fill="#FFDE00" stroke="#1B1A1A" stroke-width="3" stroke-miterlimit="10"/>
<path d="M76.0143 60.215C69.0974 60.215 63.4901 64.0561 63.4901 68.7942C63.4901 73.5324 69.0974 77.3734 76.0143 77.3734C82.9313 77.3734 88.5386 73.5324 88.5386 68.7942C88.5386 64.0561 82.9313 60.215 76.0143 60.215Z" fill="#009FE3" stroke="#1B1A1A" stroke-width="3" stroke-miterlimit="10"/>
<path d="M76.015 51.7905C67.951 51.7905 61.4138 56.2678 61.4138 61.7907C61.4138 67.3137 67.951 71.791 76.015 71.791C84.079 71.791 90.6162 67.3137 90.6162 61.7907C90.6162 56.2678 84.079 51.7905 76.015 51.7905Z" fill="#E30613" stroke="#1B1A1A" stroke-width="3" stroke-miterlimit="10"/>
<path d="M76.0142 41.3155C66.7203 41.3155 59.1862 46.4765 59.1862 52.843C59.1862 59.2094 66.7203 64.3704 76.0142 64.3704C85.3081 64.3704 92.8423 59.2094 92.8423 52.843C92.8423 46.4765 85.3081 41.3155 76.0142 41.3155Z" fill="#FFDE00" stroke="#1B1A1A" stroke-width="3" stroke-miterlimit="10"/>
<path d="M76.0152 30.3143C65.9468 30.3143 57.7848 35.9046 57.7848 42.8006C57.7848 49.6965 65.9468 55.2868 76.0152 55.2868C86.0836 55.2868 94.2456 49.6965 94.2456 42.8006C94.2456 35.9046 86.0836 30.3143 76.0152 30.3143Z" fill="#E30613" stroke="#1B1A1A" stroke-width="3" stroke-miterlimit="10"/>
<path d="M76.0149 15.4816C64.3993 15.4816 54.983 21.9304 54.983 29.8854C54.983 37.8404 64.3993 44.2892 76.0149 44.2892C87.6305 44.2892 97.0469 37.8404 97.0469 29.8854C97.0469 21.9304 87.6305 15.4816 76.0149 15.4816Z" fill="#009FE3" stroke="#1B1A1A" stroke-width="3" stroke-miterlimit="10"/>
</svg>
