<svg width="160" height="205" viewBox="0 0 160 205" fill="none" xmlns="http://www.w3.org/2000/svg">
<path d="M154.904 122.372L4.1732 122.372C8.38906 160.984 40.5202 202.81 79.5385 202.81C118.557 202.81 150.688 160.984 154.904 122.372Z" fill="#FFDE00" stroke="#1B1A1A" stroke-width="3" stroke-miterlimit="10"/>
<path d="M108.624 84.6901L50.9062 84.6901C38.1507 84.6901 27.8158 95.0297 27.8158 107.78L27.8158 130.899C27.8158 159.589 51.0744 182.847 79.7653 182.847C108.456 182.847 131.715 159.589 131.715 130.899L131.715 107.78C131.715 95.0296 121.38 84.6901 108.624 84.6901Z" fill="#009FE3" stroke="#1B1A1A" stroke-width="3" stroke-miterlimit="10"/>
<path d="M91.4385 181.532L91.3264 180.6L79.7633 160.578L68.2003 180.6L68.0882 181.532C71.8389 182.393 75.7476 182.847 79.7633 182.847C83.7791 182.852 87.6827 182.393 91.4385 181.532Z" fill="#E30613" stroke="#1B1A1A" stroke-width="3" stroke-miterlimit="10"/>
<path d="M32.7518 153.037C36.0948 160.121 40.9921 166.332 47.0055 171.219L55.7759 149.684L32.7518 153.037Z" fill="#E30613" stroke="#1B1A1A" stroke-width="3" stroke-miterlimit="10"/>
<path d="M27.8138 130.9C27.8138 138.819 29.5872 146.32 32.7519 153.037L49.7881 137.137L27.8138 130.9Z" fill="#FFDE00" stroke="#1B1A1A" stroke-width="3" stroke-miterlimit="10"/>
<path d="M47.0008 171.223C53.0498 176.146 60.2302 179.733 68.0884 181.537L65.8614 157.602L47.0008 171.223Z" fill="#FFDE00" stroke="#1B1A1A" stroke-width="3" stroke-miterlimit="10"/>
<path d="M27.8139 107.778L27.8139 130.898L47.8364 119.34L27.8139 107.778Z" fill="#E30613" stroke="#1B1A1A" stroke-width="3" stroke-miterlimit="10"/>
<path d="M126.775 153.037C123.432 160.121 118.535 166.332 112.521 171.219L103.751 149.684L126.775 153.037Z" fill="#E30613" stroke="#1B1A1A" stroke-width="3" stroke-miterlimit="10"/>
<path d="M131.713 130.9C131.713 138.819 129.94 146.32 126.775 153.036L109.739 137.137L131.713 130.9Z" fill="#FFDE00" stroke="#1B1A1A" stroke-width="3" stroke-miterlimit="10"/>
<path d="M112.521 171.223C106.472 176.146 99.2916 179.733 91.4334 181.537L93.6604 157.602L112.521 171.223Z" fill="#FFDE00" stroke="#1B1A1A" stroke-width="3" stroke-miterlimit="10"/>
<path d="M131.713 107.778L131.713 130.898L111.691 119.34L131.713 107.778Z" fill="#E30613" stroke="#1B1A1A" stroke-width="3" stroke-miterlimit="10"/>
<path d="M78.8134 125.177C78.8134 98.8783 -94.0178 125.177 78.8134 125.177C-94.0178 125.177 78.8134 151.476 78.8134 125.177C78.8134 151.48 251.645 125.177 78.8134 125.177C251.648 125.177 78.8134 98.8747 78.8134 125.177Z" fill="#E30613"/>
<path d="M78.8134 125.177C-94.0178 125.177 78.8134 98.8783 78.8134 125.177ZM78.8134 125.177C78.8134 151.476 -94.0178 125.177 78.8134 125.177ZM78.8134 125.177C251.645 125.177 78.8134 151.48 78.8134 125.177ZM78.8134 125.177C78.8134 98.8747 251.648 125.177 78.8134 125.177Z" stroke="#1B1A1A" stroke-width="3" stroke-miterlimit="10"/>
<path d="M103.304 126.939C105.498 127.997 109.22 128.593 113.121 128.593C117.022 128.593 120.744 127.997 122.938 126.939C123.805 126.521 124.352 126.125 124.663 125.8C124.967 125.482 124.968 125.317 124.968 125.3C124.968 125.283 124.967 125.119 124.663 124.801C124.352 124.475 123.805 124.08 122.938 123.661C120.744 122.603 117.022 122.007 113.121 122.007C109.22 122.007 105.498 122.603 103.304 123.661C102.437 124.08 101.89 124.475 101.579 124.801C101.275 125.119 101.274 125.283 101.274 125.3C101.274 125.317 101.275 125.482 101.579 125.8C101.89 126.125 102.437 126.521 103.304 126.939Z" fill="white" stroke="#1B1A1A" stroke-width="3"/>
<circle r="2.85651" transform="matrix(1 -8.74228e-08 -8.74228e-08 -1 113.069 125.357)" fill="#1B1A1A" stroke="#1B1A1A" stroke-width="3"/>
<path d="M55.3929 126.939C53.1986 127.997 49.4765 128.593 45.5758 128.593C41.6751 128.593 37.953 127.997 35.7587 126.939C34.8913 126.521 34.3445 126.125 34.0336 125.8C33.7301 125.482 33.7287 125.317 33.7287 125.3C33.7287 125.283 33.7301 125.119 34.0336 124.801C34.3445 124.475 34.8913 124.08 35.7587 123.661C37.953 122.603 41.6751 122.007 45.5758 122.007C49.4765 122.007 53.1986 122.603 55.3929 123.661C56.2603 124.08 56.8071 124.475 57.118 124.801C57.4215 125.119 57.4229 125.283 57.4229 125.3C57.4229 125.317 57.4215 125.482 57.118 125.8C56.8071 126.125 56.2603 126.521 55.3929 126.939Z" fill="white" stroke="#1B1A1A" stroke-width="3"/>
<circle cx="45.6274" cy="125.357" r="2.85651" transform="rotate(180 45.6274 125.357)" fill="#1B1A1A" stroke="#1B1A1A" stroke-width="3"/>
<path d="M80.9872 101.988C80.9872 75.6889 -91.844 101.988 80.9872 101.988C-91.844 101.988 80.9872 128.287 80.9872 101.988C80.9872 128.29 253.818 101.988 80.9872 101.988C253.822 101.988 80.9872 75.6853 80.9872 101.988Z" fill="#E30613"/>
<path d="M80.9872 101.988C-91.844 101.988 80.9872 75.6889 80.9872 101.988ZM80.9872 101.988C80.9872 128.287 -91.844 101.988 80.9872 101.988ZM80.9872 101.988C253.818 101.988 80.9872 128.29 80.9872 101.988ZM80.9872 101.988C80.9872 75.6853 253.822 101.988 80.9872 101.988Z" stroke="#1B1A1A" stroke-width="3" stroke-miterlimit="10"/>
<path d="M105.478 103.748C107.672 104.806 111.394 105.403 115.295 105.403C119.195 105.403 122.918 104.806 125.112 103.748C125.979 103.33 126.526 102.935 126.837 102.609C127.141 102.291 127.142 102.127 127.142 102.109C127.142 102.092 127.141 101.928 126.837 101.61C126.526 101.284 125.979 100.889 125.112 100.471C122.918 99.4127 119.195 98.8162 115.295 98.8162C111.394 98.8162 107.672 99.4127 105.478 100.471C104.61 100.889 104.064 101.284 103.753 101.61C103.449 101.928 103.448 102.092 103.448 102.109C103.448 102.127 103.449 102.291 103.753 102.609C104.064 102.935 104.61 103.33 105.478 103.748Z" fill="white" stroke="#1B1A1A" stroke-width="3"/>
<circle r="2.85651" transform="matrix(1 -8.74228e-08 -8.74228e-08 -1 115.243 102.167)" fill="#1B1A1A" stroke="#1B1A1A" stroke-width="3"/>
<path d="M57.5667 103.748C55.3725 104.806 51.6503 105.403 47.7496 105.403C43.849 105.403 40.1268 104.806 37.9326 103.748C37.0651 103.33 36.5183 102.935 36.2074 102.609C35.9039 102.291 35.9026 102.127 35.9026 102.109C35.9026 102.092 35.9039 101.928 36.2074 101.61C36.5183 101.284 37.0651 100.889 37.9326 100.471C40.1268 99.4127 43.849 98.8162 47.7496 98.8162C51.6503 98.8162 55.3725 99.4127 57.5667 100.471C58.4341 100.889 58.9809 101.284 59.2918 101.61C59.5954 101.928 59.5967 102.092 59.5967 102.109C59.5967 102.127 59.5954 102.291 59.2918 102.609C58.9809 102.935 58.4341 103.33 57.5667 103.748Z" fill="white" stroke="#1B1A1A" stroke-width="3"/>
<circle cx="47.8012" cy="102.167" r="2.85651" transform="rotate(180 47.8012 102.167)" fill="#1B1A1A" stroke="#1B1A1A" stroke-width="3"/>
<path d="M79.678 19.1084C59.4682 19.1084 43.0849 35.4917 43.0849 55.7014C43.0849 75.9112 59.4682 78.5127 79.678 78.5127C99.8877 78.5127 116.271 75.9112 116.271 55.7014C116.271 35.4917 99.8877 19.1084 79.678 19.1084Z" fill="#E30613" stroke="#1B1A1A" stroke-width="3" stroke-miterlimit="10"/>
<path d="M43.0845 84.6918L117.221 84.6918C115.147 65.5299 99.3438 44.7722 80.1527 44.7722C60.9617 44.7722 45.158 65.5299 43.0845 84.6918Z" fill="#009FE3" stroke="#1B1A1A" stroke-width="3" stroke-miterlimit="10"/>
<path d="M64.9459 24.8113L95.3608 24.8113L95.3608 17.4172C95.3608 8.90208 88.5529 2.00007 80.1538 2.00007C71.7548 2.00007 64.9469 8.90209 64.9469 17.4172L64.9469 24.8113L64.9459 24.8113Z" fill="#009FE3" stroke="#1B1A1A" stroke-width="3" stroke-miterlimit="10"/>
<path d="M79.6781 13.4053C71.0168 13.4053 63.9954 22.7671 63.9954 34.3156C63.9954 45.864 71.0168 55.2259 79.6781 55.2259C88.3394 55.2259 95.3608 45.864 95.3608 34.3156C95.3608 22.7671 88.3394 13.4053 79.6781 13.4053Z" fill="#FFDE00" stroke="#1B1A1A" stroke-width="3" stroke-miterlimit="10"/>
<path d="M79.6778 23.8605C74.166 23.8605 69.6979 28.7542 69.6979 34.7909C69.6979 40.8276 74.166 45.7213 79.6778 45.7213C85.1896 45.7213 89.6577 40.8276 89.6577 34.7909C89.6577 28.7542 85.1896 23.8605 79.6778 23.8605Z" fill="#E30613" stroke="#1B1A1A" stroke-width="3" stroke-miterlimit="10"/>
<path d="M79.6779 58.0769C67.867 58.0769 58.2924 62.9706 58.2924 69.0073C58.2924 75.044 67.867 79.9377 79.6779 79.9377C91.4888 79.9377 101.063 75.044 101.063 69.0073C101.063 62.9706 91.4888 58.0769 79.6779 58.0769Z" fill="#FFDE00" stroke="#1B1A1A" stroke-width="3" stroke-miterlimit="10"/>
</svg>
