<svg width="374" height="385" viewBox="0 0 374 385" fill="none" xmlns="http://www.w3.org/2000/svg">
<path d="M88.1044 88.0449C88.0493 87.5042 87.9916 86.9627 87.9284 86.424C87.9322 86.432 87.9361 86.44 87.9399 86.448C88.2156 87.0247 88.4886 87.6321 88.7668 88.2509C89.3624 89.5757 89.9816 90.9532 90.7017 92.1964C91.7972 94.0875 93.2167 95.8565 95.412 97.1748C97.5992 98.4882 100.453 99.2926 104.321 99.4403L104.405 99.4434L104.488 99.4355C111.109 98.8053 116.17 100.377 119.869 103.299C123.586 106.234 126.049 110.628 127.273 115.841C128.564 121.337 130.508 125.48 133.952 127.746C137.423 130.028 142.066 130.182 148.18 128.589C152.695 127.413 156.292 127.536 159.102 128.553C161.895 129.564 164.028 131.502 165.558 134.186C166.327 135.536 165.961 137.348 164.655 138.654L140.021 163.288C138.369 164.94 136.501 165.005 135.045 164.2C133.537 163.366 132.336 161.51 132.397 159.052C132.456 156.714 132.084 154.51 130.779 152.798C129.448 151.052 127.327 150.048 124.399 149.735C121.734 149.451 119.815 148.621 118.418 147.45C117.017 146.277 116.053 144.688 115.422 142.746C114.14 138.801 114.299 133.618 114.826 128.191C115.709 119.087 110.892 108.47 98.8333 106.307L98.7859 106.299L98.7379 106.294C95.5099 105.969 93.4409 104.777 92.0294 103.127C90.5834 101.437 89.731 99.1543 89.1782 96.4911C88.7158 94.2637 88.4825 91.8834 88.2469 89.4788C88.2001 89.0015 88.1532 88.5231 88.1044 88.0449Z" fill="#FFDE00" stroke="#1B1A1A" stroke-width="2.5"/>
<path d="M291.896 290.817C291.951 291.358 292.008 291.899 292.072 292.438C292.068 292.43 292.064 292.422 292.06 292.414C291.784 291.837 291.511 291.23 291.233 290.611C290.638 289.286 290.018 287.909 289.298 286.665C288.203 284.774 286.783 283.005 284.588 281.687C282.401 280.374 279.547 279.569 275.679 279.422L275.595 279.418L275.512 279.426C268.891 280.057 263.83 278.485 260.131 275.563C256.414 272.628 253.951 268.234 252.727 263.021C251.436 257.525 249.492 253.382 246.048 251.116C242.577 248.834 237.934 248.68 231.82 250.273C227.305 251.449 223.708 251.326 220.898 250.309C218.105 249.297 215.972 247.36 214.442 244.676C213.673 243.326 214.039 241.514 215.345 240.208L239.979 215.574C241.631 213.922 243.499 213.857 244.955 214.662C246.463 215.496 247.664 217.352 247.603 219.81C247.544 222.147 247.916 224.351 249.221 226.064C250.552 227.81 252.673 228.814 255.601 229.126C258.266 229.411 260.185 230.241 261.582 231.412C262.983 232.585 263.947 234.174 264.578 236.116C265.86 240.061 265.701 245.244 265.174 250.67C264.291 259.774 269.108 270.392 281.167 272.555L281.214 272.563L281.262 272.568C284.49 272.893 286.559 274.085 287.971 275.734C289.417 277.425 290.269 279.707 290.822 282.371C291.284 284.598 291.517 286.978 291.753 289.383C291.8 289.86 291.847 290.339 291.896 290.817Z" fill="#FFDE00" stroke="#1B1A1A" stroke-width="2.5"/>
<path d="M291.896 88.1831C291.951 87.6423 292.008 87.1008 292.072 86.5622C292.068 86.5701 292.064 86.5781 292.06 86.5861C291.784 87.1629 291.511 87.7702 291.233 88.3891C290.638 89.7139 290.018 91.0914 289.298 92.3345C288.203 94.2257 286.783 95.9946 284.588 97.313C282.401 98.6264 279.547 99.4308 275.679 99.5784L275.595 99.5816L275.512 99.5737C268.891 98.9434 263.83 100.515 260.131 103.437C256.414 106.372 253.951 110.766 252.727 115.979C251.436 121.475 249.492 125.618 246.048 127.884C242.577 130.166 237.934 130.32 231.82 128.727C227.305 127.551 223.708 127.674 220.898 128.691C218.105 129.703 215.972 131.64 214.442 134.324C213.673 135.674 214.039 137.486 215.345 138.792L239.979 163.426C241.631 165.078 243.499 165.143 244.955 164.338C246.463 163.504 247.664 161.648 247.603 159.19C247.544 156.853 247.916 154.649 249.221 152.936C250.552 151.19 252.673 150.186 255.601 149.874C258.266 149.589 260.185 148.759 261.582 147.588C262.983 146.415 263.947 144.826 264.578 142.884C265.86 138.939 265.701 133.756 265.174 128.33C264.291 119.226 269.108 108.608 281.167 106.445L281.214 106.437L281.262 106.432C284.49 106.107 286.559 104.915 287.971 103.266C289.417 101.575 290.269 99.2925 290.822 96.6293C291.284 94.4018 291.517 92.0215 291.753 89.617C291.8 89.1396 291.847 88.6613 291.896 88.1831Z" fill="#FFDE00" stroke="#1B1A1A" stroke-width="2.5"/>
<path d="M88.1044 289.817C88.0493 290.358 87.9916 290.899 87.9284 291.438C87.9322 291.43 87.9361 291.422 87.9399 291.414C88.2156 290.837 88.4886 290.23 88.7668 289.611C89.3624 288.286 89.9816 286.909 90.7017 285.665C91.7972 283.774 93.2167 282.005 95.412 280.687C97.5992 279.374 100.453 278.569 104.321 278.422L104.405 278.418L104.488 278.426C111.109 279.057 116.17 277.485 119.869 274.563C123.586 271.628 126.049 267.234 127.273 262.021C128.564 256.525 130.508 252.382 133.952 250.116C137.423 247.834 142.066 247.68 148.18 249.273C152.695 250.449 156.292 250.326 159.102 249.309C161.895 248.297 164.028 246.36 165.558 243.676C166.327 242.326 165.961 240.514 164.655 239.208L140.021 214.574C138.369 212.922 136.501 212.857 135.045 213.662C133.537 214.496 132.336 216.352 132.397 218.81C132.456 221.147 132.084 223.351 130.779 225.064C129.448 226.81 127.327 227.814 124.399 228.126C121.734 228.411 119.815 229.241 118.418 230.412C117.017 231.585 116.053 233.174 115.422 235.116C114.14 239.061 114.299 244.244 114.826 249.67C115.709 258.774 110.892 269.392 98.8333 271.555L98.7859 271.563L98.7379 271.568C95.5099 271.893 93.4409 273.085 92.0294 274.734C90.5834 276.425 89.731 278.707 89.1782 281.371C88.7158 283.598 88.4825 285.978 88.2469 288.383C88.2001 288.86 88.1532 289.339 88.1044 289.817Z" fill="#FFDE00" stroke="#1B1A1A" stroke-width="2.5"/>
<path d="M185.465 9.57217C186.476 8.33068 187.474 7.08185 188.395 5.8291C188.159 6.66273 187.888 7.48823 187.597 8.31257C187.301 9.1503 186.977 10.0049 186.648 10.8699C185.954 12.6972 185.243 14.5707 184.748 16.4291C183.998 19.2422 183.676 22.216 184.492 25.4864C185.306 28.7475 187.223 32.1866 190.75 35.9944L190.807 36.0554L190.871 36.1085C197.89 41.9071 201.3 48.3574 202.06 54.8286C202.822 61.3209 200.935 67.9865 197.075 74.2154C193.063 80.6906 191.035 86.3939 192.128 91.6888C193.228 97.0147 197.395 101.523 204.737 105.83C210.503 109.213 213.962 113.028 215.649 116.989C217.329 120.937 217.309 125.168 215.862 129.516C215.35 131.054 213.781 132.071 211.959 132.071L156.805 132.071C154.48 132.071 153.025 130.719 152.558 129.11C152.088 127.492 152.589 125.507 154.525 124.182C158.506 121.459 161.915 118.615 163.441 115.314C164.224 113.62 164.512 111.806 164.141 109.867C163.775 107.949 162.78 105.995 161.142 103.967C158.818 101.087 157.733 98.3734 157.507 95.8113C157.28 93.2447 157.905 90.7167 159.189 88.197C161.786 83.1009 166.97 78.2383 172.67 73.5468C182.106 65.7793 187.541 51.2492 178.23 37.8689L178.202 37.8293L178.172 37.792C175.328 34.3119 174.443 31.0785 174.681 28.0204C174.923 24.9093 176.339 21.8324 178.377 18.7259C180.082 16.1282 182.156 13.6035 184.233 11.0752C184.644 10.5745 185.056 10.0737 185.465 9.57217Z" fill="#FFDE00" stroke="#1B1A1A" stroke-width="2.5"/>
<path d="M183.715 374.749C182.703 375.99 181.706 377.239 180.784 378.492C181.02 377.658 181.291 376.833 181.582 376.009C181.878 375.171 182.202 374.316 182.531 373.451C183.225 371.624 183.937 369.75 184.432 367.892C185.181 365.079 185.503 362.105 184.687 358.835C183.873 355.574 181.957 352.135 178.429 348.327L178.372 348.266L178.308 348.213C171.289 342.414 167.88 335.964 167.12 329.493C166.357 323 168.245 316.335 172.104 310.106C176.116 303.631 178.144 297.927 177.051 292.632C175.951 287.306 171.784 282.798 164.442 278.491C158.676 275.108 155.217 271.293 153.531 267.332C151.85 263.385 151.87 259.153 153.318 254.805C153.83 253.267 155.399 252.25 157.221 252.25L212.374 252.25C214.699 252.25 216.154 253.602 216.621 255.211C217.091 256.829 216.59 258.814 214.654 260.139C210.673 262.862 207.264 265.706 205.738 269.007C204.955 270.702 204.667 272.515 205.038 274.454C205.405 276.372 206.399 278.326 208.037 280.354C210.361 283.234 211.446 285.948 211.673 288.51C211.899 291.076 211.274 293.604 209.99 296.124C207.393 301.22 202.209 306.083 196.51 310.774C187.074 318.542 181.638 333.072 190.949 346.452L190.977 346.492L191.008 346.529C193.851 350.009 194.736 353.243 194.498 356.301C194.256 359.412 192.841 362.489 190.802 365.595C189.097 368.193 187.023 370.718 184.946 373.246C184.535 373.747 184.123 374.247 183.715 374.749Z" fill="#FFDE00" stroke="#1B1A1A" stroke-width="2.5"/>
<path d="M364.286 200.285C365.527 201.297 366.776 202.294 368.029 203.215C367.195 202.98 366.37 202.709 365.545 202.418C364.708 202.122 363.853 201.797 362.988 201.469C361.161 200.775 359.287 200.063 357.429 199.568C354.616 198.819 351.642 198.497 348.372 199.313C345.11 200.127 341.671 202.043 337.864 205.571L337.802 205.628L337.749 205.692C331.951 212.71 325.5 216.12 319.029 216.88C312.537 217.643 305.871 215.755 299.643 211.896C293.167 207.884 287.464 205.856 282.169 206.949C276.843 208.049 272.335 212.216 268.028 219.558C264.645 225.324 260.83 228.783 256.869 230.469C252.921 232.15 248.69 232.13 244.342 230.682C242.804 230.17 241.787 228.601 241.787 226.779L241.787 171.626C241.787 169.301 243.139 167.846 244.748 167.379C246.366 166.908 248.351 167.41 249.676 169.346C252.399 173.326 255.243 176.736 258.543 178.261C260.238 179.045 262.052 179.333 263.991 178.962C265.908 178.595 267.863 177.6 269.891 175.963C272.771 173.638 275.484 172.554 278.047 172.327C280.613 172.101 283.141 172.725 285.661 174.01C290.757 176.607 295.62 181.791 300.311 187.49C308.079 196.926 322.609 202.361 335.989 193.05L336.029 193.023L336.066 192.992C339.546 190.149 342.779 189.264 345.838 189.502C348.949 189.744 352.025 191.159 355.132 193.198C357.73 194.902 360.254 196.977 362.783 199.054C363.283 199.465 363.784 199.876 364.286 200.285Z" fill="#FFDE00" stroke="#1B1A1A" stroke-width="2.5"/>
<path d="M9.57217 185.356C8.33068 184.344 7.08185 183.347 5.8291 182.426C6.66273 182.661 7.48823 182.932 8.31257 183.223C9.1503 183.519 10.0049 183.844 10.8699 184.172C12.6972 184.866 14.5707 185.578 16.4291 186.073C19.2422 186.823 22.216 187.144 25.4864 186.328C28.7475 185.514 32.1866 183.598 35.9944 180.07L36.0554 180.014L36.1085 179.949C41.9071 172.931 48.3574 169.521 54.8286 168.761C61.3209 167.998 67.9866 169.886 74.2154 173.745C80.6906 177.757 86.3939 179.786 91.6888 178.692C97.0147 177.593 101.523 173.425 105.83 166.084C109.213 160.318 113.028 156.859 116.989 155.172C120.937 153.492 125.168 153.512 129.516 154.959C131.054 155.471 132.071 157.04 132.071 158.862L132.071 214.016C132.071 216.34 130.719 217.795 129.11 218.263C127.492 218.733 125.507 218.232 124.182 216.295C121.459 212.315 118.615 208.905 115.314 207.38C113.62 206.596 111.806 206.308 109.867 206.679C107.949 207.046 105.995 208.041 103.967 209.678C101.087 212.003 98.3734 213.088 95.8113 213.314C93.2447 213.541 90.7167 212.916 88.197 211.632C83.1009 209.035 78.2383 203.85 73.5468 198.151C65.7793 188.715 51.2492 183.28 37.8689 192.591L37.8293 192.618L37.792 192.649C34.3119 195.493 31.0785 196.377 28.0204 196.139C24.9093 195.897 21.8324 194.482 18.7259 192.443C16.1282 190.739 13.6035 188.665 11.0752 186.588C10.5745 186.176 10.0737 185.765 9.57217 185.356Z" fill="#FFDE00" stroke="#1B1A1A" stroke-width="2.5"/>
</svg>
