<svg width="209" height="209" viewBox="0 0 209 209" fill="none" xmlns="http://www.w3.org/2000/svg">
<path d="M104.28 177.973C144.787 177.973 177.624 145.136 177.624 104.629C177.624 64.1223 144.787 31.2849 104.28 31.2849C63.7731 31.2849 30.9358 64.1223 30.9358 104.629C30.9358 145.136 63.7731 177.973 104.28 177.973Z" fill="#E30613" stroke="#1B1A1A" stroke-width="2.5" stroke-miterlimit="10"/>
<path d="M120.406 62.2438C121.999 51.5177 123.725 35.154 107.831 18.6867C85.1002 -4.8623 59.8809 5.31432 59.8809 5.31432C59.8809 5.31432 79.392 17.2772 83.3746 21.4034C92.7326 31.0982 88.1523 44.5051 88.1523 44.5051C90.9394 47.393 120.406 62.2438 120.406 62.2438Z" fill="#009FE3" stroke="#1B1A1A" stroke-width="2.5" stroke-miterlimit="10"/>
<path d="M88.1521 147.018C86.5591 157.744 84.8335 174.107 100.728 190.575C123.458 214.124 148.678 203.947 148.678 203.947C148.678 203.947 129.166 191.984 125.184 187.858C115.826 178.163 120.406 164.756 120.406 164.756C117.619 161.868 88.1521 147.018 88.1521 147.018Z" fill="#009FE3" stroke="#1B1A1A" stroke-width="2.5" stroke-miterlimit="10"/>
<path d="M61.8928 88.501C51.1668 86.908 34.803 85.1824 18.3357 101.077C-5.21325 123.809 4.96337 149.026 4.96337 149.026C4.96337 149.026 16.9263 129.515 21.0524 125.533C30.7473 116.175 44.1541 120.755 44.1541 120.755C47.042 117.968 61.8928 88.501 61.8928 88.501Z" fill="#009FE3" stroke="#1B1A1A" stroke-width="2.5" stroke-miterlimit="10"/>
<path d="M146.669 120.756C157.395 122.349 173.759 124.075 190.226 108.18C213.775 85.45 203.598 60.2307 203.598 60.2307C203.598 60.2307 191.635 79.7419 187.509 83.7245C177.814 93.0825 164.407 88.5022 164.407 88.5022C161.519 91.2893 146.669 120.756 146.669 120.756Z" fill="#009FE3" stroke="#1B1A1A" stroke-width="2.5" stroke-miterlimit="10"/>
<path d="M85.7101 63.258C79.2524 54.5474 68.9019 41.7562 46.0183 41.3517C13.2935 40.7719 2.65723 65.8007 2.65723 65.8007C2.65723 65.8007 24.9127 60.4639 30.6457 60.5647C44.1174 60.8035 50.3598 73.5215 50.3598 73.5215C54.3727 73.5919 85.7101 63.258 85.7101 63.258Z" fill="#009FE3" stroke="#1B1A1A" stroke-width="2.5" stroke-miterlimit="10"/>
<path d="M122.848 146.01C129.305 154.721 139.656 167.512 162.539 167.917C195.264 168.495 205.901 143.468 205.901 143.468C205.901 143.468 183.645 148.804 177.912 148.704C164.44 148.465 158.198 135.747 158.198 135.747C154.185 135.675 122.848 146.01 122.848 146.01Z" fill="#009FE3" stroke="#1B1A1A" stroke-width="2.5" stroke-miterlimit="10"/>
<path d="M62.9034 123.2C54.1928 129.658 41.4016 140.008 40.9972 162.892C40.4188 195.617 65.4462 206.253 65.4462 206.253C65.4462 206.253 60.1094 183.997 60.2102 178.264C60.449 164.793 73.167 158.55 73.167 158.55C73.2374 154.537 62.9034 123.2 62.9034 123.2Z" fill="#009FE3" stroke="#1B1A1A" stroke-width="2.5" stroke-miterlimit="10"/>
<path d="M145.656 86.0608C154.366 79.6031 167.158 69.2525 167.562 46.3689C168.14 13.6442 143.113 3.00787 143.113 3.00787C143.113 3.00787 148.45 25.2634 148.349 30.9963C148.11 44.4681 135.392 50.7104 135.392 50.7104C135.32 54.7234 145.656 86.0608 145.656 86.0608Z" fill="#009FE3" stroke="#1B1A1A" stroke-width="2.5" stroke-miterlimit="10"/>
<path d="M104.279 166.171C138.268 166.171 165.821 138.618 165.821 104.63C165.821 70.6413 138.268 43.0882 104.279 43.0882C70.2908 43.0882 42.7378 70.6413 42.7378 104.63C42.7378 138.618 70.2908 166.171 104.279 166.171Z" fill="#FFDE00" stroke="#1B1A1A" stroke-width="2.5" stroke-miterlimit="10"/>
<path d="M104.28 151.831C130.35 151.831 151.483 130.697 151.483 104.628C151.483 78.5587 130.35 57.4252 104.28 57.4252C78.2108 57.4252 57.0774 78.5587 57.0774 104.628C57.0774 130.697 78.2108 151.831 104.28 151.831Z" fill="#009FE3" stroke="#1B1A1A" stroke-width="2.5" stroke-miterlimit="10"/>
<path d="M93.9467 147.016L114.061 147.016C116.636 147.016 118.918 145.358 119.713 142.909L121.415 137.672C122.663 133.831 119.8 129.893 115.763 129.893L92.246 129.893C88.2082 129.893 85.3466 133.833 86.5945 137.672L88.2966 142.909C89.0903 145.358 91.3722 147.016 93.9467 147.016Z" fill="#FFDE00" stroke="#1B1A1A" stroke-width="2.5" stroke-miterlimit="10"/>
<path d="M104.281 125.545C121.729 125.545 135.874 111.4 135.874 93.9519C135.874 76.5036 121.729 62.3591 104.281 62.3591C86.8326 62.3591 72.688 76.5036 72.688 93.9519C72.688 111.4 86.8326 125.545 104.281 125.545Z" fill="#E30613" stroke="#1B1A1A" stroke-width="2.5" stroke-miterlimit="10"/>
<path d="M104.667 116.219C117.27 116.219 127.487 106.002 127.487 93.3988C127.487 80.7957 117.27 70.5788 104.667 70.5788C92.0633 70.5788 81.8464 80.7957 81.8464 93.3988C81.8464 106.002 92.0633 116.219 104.667 116.219Z" fill="#FFDE00" stroke="#1B1A1A" stroke-width="2.5" stroke-miterlimit="10"/>
<path d="M104.69 99.9103C115.401 99.9103 124.084 96.9919 124.084 93.3919C124.084 89.7918 115.401 86.8734 104.69 86.8734C93.9791 86.8734 85.2961 89.7918 85.2961 93.3919C85.2961 96.9919 93.9791 99.9103 104.69 99.9103Z" fill="#FFFBF1" stroke="#1B1A1A" stroke-width="2.5" stroke-miterlimit="10"/>
<path d="M104.699 100.323C108.218 100.323 111.07 97.4709 111.07 93.9524C111.07 90.4339 108.218 87.5817 104.699 87.5817C101.181 87.5817 98.3286 90.4339 98.3286 93.9524C98.3286 97.4709 101.181 100.323 104.699 100.323Z" fill="#1B1A1A" stroke="#1B1A1A" stroke-width="2.5" stroke-miterlimit="10"/>
<path d="M113.276 130.113C114.232 136.547 115.267 146.365 105.731 156.243C92.095 170.371 76.9653 164.267 76.9653 164.267C76.9653 164.267 88.6701 157.09 91.0596 154.614C96.6739 148.799 95.4177 130.232 95.4177 130.232L113.276 130.113Z" fill="#E30613" stroke="#1B1A1A" stroke-width="2.5" stroke-miterlimit="10"/>
</svg>
