<svg width="721" height="514" viewBox="0 0 721 514" fill="none" xmlns="http://www.w3.org/2000/svg">
<path d="M100.154 260.497C108.413 264.331 75.9674 241.914 81.8664 243.684C102.318 249.82 153.782 299.914 177.953 304.389C191.001 306.805 229.129 301.605 244.683 279.964C251.467 270.525 244.094 281.734 264.741 247.518C278.818 224.19 366.656 226.577 366.656 270.231C360.897 311.202 307.215 247.918 285.388 255.777C266.741 262.492 258.387 291.801 238.194 300.906C187.166 323.913 171.129 311.504 163.865 306.215C130.239 281.734 124.126 278.762 120.506 275.835C111.971 268.932 107.511 265.262 105.348 263.451C106.163 264.271 105.898 264.418 100.154 260.497Z" fill="#FFDE00"/>
<path d="M100.154 260.497C108.413 264.331 75.9674 241.914 81.8664 243.684C102.318 249.82 153.782 299.914 177.953 304.389C191.001 306.805 229.129 301.605 244.683 279.964C251.467 270.525 244.094 281.734 264.741 247.518C278.818 224.19 366.656 226.577 366.656 270.231C360.897 311.202 307.215 247.918 285.388 255.777C266.741 262.492 258.387 291.801 238.194 300.906C187.166 323.913 171.129 311.504 163.865 306.215C130.239 281.734 124.126 278.762 120.506 275.835C86.5858 248.404 117.037 272.023 100.154 260.497Z" stroke="#1B1A1A" stroke-width="2.5"/>
<path d="M161.562 128.904C148.858 125.423 144.748 104.756 144.81 96.1933C143.996 116.619 147.16 127.602 161.562 134.911C174.292 141.371 200.466 119.97 235.646 139.142C249.462 146.672 259.472 183.816 277.714 183.816C299.865 183.816 307.735 175.481 323.319 187.725C341.56 202.058 358.809 244.064 366.689 271.302C366.689 220.672 346.028 184.188 330.206 173.951C314.384 163.713 304.398 169.063 286.835 171.717C262.196 175.44 259.233 144.669 237.625 129.463C217.522 115.316 182.155 134.547 161.562 128.904Z" fill="#FFDE00" stroke="#1B1A1A" stroke-width="2.5"/>
<path d="M161.562 412.135C148.858 415.617 144.748 436.284 144.81 444.847C143.996 424.421 147.16 413.438 161.562 406.129C174.292 399.669 200.466 421.07 235.646 401.897C249.462 394.368 259.472 357.224 277.714 357.224C299.865 357.224 307.735 365.559 323.319 353.315C341.56 338.982 358.809 296.976 366.689 269.737C366.689 320.368 346.028 356.851 330.206 367.089C314.384 377.327 304.398 371.977 286.835 369.323C262.196 365.6 259.233 396.371 237.625 411.577C217.522 425.724 182.155 406.492 161.562 412.135Z" fill="#FFDE00" stroke="#1B1A1A" stroke-width="2.5"/>
<path d="M624.971 281.144C616.712 277.31 649.157 299.727 643.258 297.957C622.807 291.82 571.343 241.727 547.172 237.252C534.123 234.836 495.996 240.036 480.441 261.677C473.657 271.116 481.031 259.907 460.384 294.122C446.306 317.451 358.468 315.064 358.468 271.41C364.228 230.439 417.91 293.723 439.737 285.863C458.383 279.149 466.737 249.839 486.93 240.735C537.958 217.728 553.996 230.137 561.26 235.426C594.885 259.907 600.999 262.879 604.618 265.806C613.154 272.709 617.613 276.379 619.777 278.19C618.962 277.369 619.226 277.222 624.971 281.144Z" fill="#E30613"/>
<path d="M624.971 281.144C616.712 277.31 649.157 299.727 643.258 297.957C622.807 291.82 571.343 241.727 547.172 237.252C534.123 234.836 495.996 240.036 480.441 261.677C473.657 271.116 481.031 259.907 460.384 294.122C446.306 317.451 358.468 315.064 358.468 271.41C364.228 230.439 417.91 293.723 439.737 285.863C458.383 279.149 466.737 249.839 486.93 240.735C537.958 217.728 553.996 230.137 561.26 235.426C594.885 259.907 600.999 262.879 604.618 265.806C638.539 293.237 608.088 269.618 624.971 281.144Z" stroke="#1B1A1A" stroke-width="2.5"/>
<path d="M596.154 398.309C610.347 401.788 614.938 422.443 614.869 431C615.778 410.587 612.244 399.611 596.155 392.307C581.933 385.85 552.694 407.238 513.393 388.078C497.959 380.553 486.776 343.432 466.398 343.432C441.652 343.432 432.861 351.762 415.452 339.525C395.073 325.201 375.804 283.222 367.001 256C367.001 306.599 390.083 343.06 407.758 353.291C425.433 363.522 436.588 358.175 456.209 355.523C483.734 351.803 487.043 382.555 511.182 397.751C533.64 411.889 573.149 392.67 596.154 398.309Z" fill="#E30613" stroke="#1B1A1A" stroke-width="2.5"/>
<path d="M596.154 114.691C610.347 111.212 614.938 90.5571 614.869 82C615.778 102.413 612.244 113.389 596.155 120.693C581.933 127.15 552.694 105.762 513.393 124.922C497.959 132.447 486.776 169.568 466.398 169.568C441.652 169.568 432.861 161.238 415.452 173.475C395.073 187.799 375.804 229.778 367.001 257C367.001 206.401 390.083 169.94 407.758 159.709C425.433 149.478 436.588 154.825 456.209 157.477C483.734 161.197 487.043 130.445 511.182 115.249C533.64 101.111 573.149 120.33 596.154 114.691Z" fill="#E30613" stroke="#1B1A1A" stroke-width="2.5"/>
<path d="M660.345 264.076C675.651 271.322 698.053 295.833 704.983 309.496C708.738 316.897 704.491 325.869 696.387 327.657C681.426 330.958 648.268 329.17 632.962 321.924C617.418 314.564 605.131 292.896 612.692 276.923C620.253 260.95 644.799 256.718 660.345 264.076Z" fill="#009FE3" stroke="#1B1A1A" stroke-width="2.5" stroke-miterlimit="10"/>
<path d="M47.7502 251.109C35.7757 239.135 22.9313 208.513 21.0042 193.314C19.9593 185.082 26.9785 178.062 35.2115 179.107C50.4104 181.034 81.0318 193.879 93.0063 205.853C105.166 218.016 109.443 242.555 96.9471 255.052C84.4509 267.548 59.9118 263.271 47.7502 251.109Z" fill="#009FE3" stroke="#1B1A1A" stroke-width="2.5" stroke-miterlimit="10"/>
<path d="M108.477 89.8851C103.79 73.612 107.364 40.5986 113.03 26.3646C116.099 18.6538 125.638 15.9066 132.338 20.8042C144.707 29.8439 165.292 55.8997 169.979 72.1728C174.736 88.7007 166.607 112.246 149.625 117.137C132.643 122.027 113.236 106.412 108.477 89.8851Z" fill="#009FE3" stroke="#1B1A1A" stroke-width="2.5" stroke-miterlimit="10"/>
<path d="M151.741 465.94C139.767 477.915 109.146 490.759 93.9466 492.686C85.7137 493.731 78.6945 486.712 79.7394 478.479C81.6664 463.28 94.5109 432.659 106.485 420.684C118.648 408.524 143.188 404.247 155.684 416.743C168.18 429.24 163.903 453.779 151.741 465.94Z" fill="#009FE3" stroke="#1B1A1A" stroke-width="2.5" stroke-miterlimit="10"/>
<path d="M659.827 415.57C671.801 427.544 684.646 458.165 686.573 473.364C687.618 481.597 680.598 488.617 672.365 487.572C657.167 485.645 626.545 472.8 614.571 460.826C602.411 448.663 598.134 424.123 610.63 411.627C623.126 399.131 647.665 403.408 659.827 415.57Z" fill="#009FE3" stroke="#1B1A1A" stroke-width="2.5" stroke-miterlimit="10"/>
<path d="M598.86 57.9597C607.359 43.3128 633.658 23.0389 647.853 17.2752C655.542 14.1521 664.128 19.1344 665.231 27.3597C667.27 42.5441 662.716 75.4365 654.216 90.0834C645.581 104.958 622.962 115.39 607.677 106.52C592.392 97.6502 590.227 72.8355 598.86 57.9597Z" fill="#009FE3" stroke="#1B1A1A" stroke-width="2.5" stroke-miterlimit="10"/>
</svg>
