<svg width="711" height="513" viewBox="0 0 711 513" fill="none" xmlns="http://www.w3.org/2000/svg">
<path d="M100.961 239.048C109.22 242.882 76.7745 220.465 82.6735 222.235C103.125 228.372 154.589 278.465 178.76 282.94C191.808 285.356 229.936 280.156 245.49 258.515C252.274 249.076 244.901 260.285 265.548 226.07C279.625 202.741 367.463 205.128 367.463 248.782C361.704 289.753 308.022 226.469 286.195 234.329C267.548 241.043 259.195 270.353 239.001 279.457C187.974 302.464 171.936 290.055 164.672 284.766C131.046 260.285 124.933 257.313 121.313 254.386C112.778 247.483 108.318 243.813 106.155 242.002C106.97 242.823 106.705 242.97 100.961 239.048Z" fill="#FFDE00"/>
<path d="M100.961 239.048C109.22 242.882 76.7745 220.465 82.6735 222.235C103.125 228.372 154.589 278.465 178.76 282.94C191.808 285.356 229.936 280.156 245.49 258.515C252.274 249.076 244.901 260.285 265.548 226.07C279.625 202.741 367.463 205.128 367.463 248.782C361.704 289.753 308.022 226.469 286.195 234.329C267.548 241.043 259.195 270.353 239.001 279.457C187.974 302.464 171.936 290.055 164.672 284.766C131.046 260.285 124.933 257.313 121.313 254.386C87.3929 226.955 117.844 250.574 100.961 239.048Z" stroke="#1B1A1A" stroke-width="2.5"/>
<path d="M162.369 107.456C149.665 103.974 145.555 83.3069 145.617 74.7444C144.803 95.1704 147.967 106.153 162.369 113.462C175.099 119.922 201.273 98.5209 236.453 117.693C250.269 125.223 260.279 162.367 278.521 162.367C300.672 162.367 308.542 154.032 324.126 166.276C342.367 180.609 359.616 222.615 367.496 249.854C367.496 199.223 346.835 162.74 331.013 152.502C315.191 142.264 305.205 147.614 287.642 150.268C263.003 153.991 260.04 123.22 238.432 108.014C218.329 93.8674 182.962 113.099 162.369 107.456Z" fill="#FFDE00" stroke="#1B1A1A" stroke-width="2.5"/>
<path d="M162.369 390.686C149.665 394.168 145.555 414.835 145.617 423.398C144.803 402.972 147.967 391.989 162.369 384.68C175.099 378.22 201.273 399.621 236.453 380.449C250.269 372.919 260.279 335.775 278.521 335.775C300.672 335.775 308.542 344.11 324.126 331.866C342.367 317.533 359.616 275.527 367.496 248.289C367.496 298.919 346.835 335.403 331.013 345.64C315.191 355.878 305.205 350.528 287.642 347.874C263.003 344.151 260.04 374.922 238.432 390.128C218.329 404.275 182.962 385.043 162.369 390.686Z" fill="#FFDE00" stroke="#1B1A1A" stroke-width="2.5"/>
<path d="M625.778 259.695C617.519 255.861 649.964 278.278 644.065 276.508C623.614 270.372 572.15 220.278 547.979 215.803C534.93 213.387 496.803 218.587 481.248 240.228C474.464 249.667 481.838 238.458 461.191 272.673C447.113 296.002 359.275 293.615 359.275 249.961C365.035 208.99 418.717 272.274 440.544 264.415C459.19 257.7 467.544 228.391 487.737 219.286C538.765 196.279 554.803 208.688 562.067 213.977C595.692 238.458 601.806 241.43 605.425 244.357C613.961 251.26 618.42 254.93 620.584 256.741C619.769 255.92 620.033 255.774 625.778 259.695Z" fill="#FFDE00"/>
<path d="M625.778 259.695C617.519 255.861 649.964 278.278 644.065 276.508C623.614 270.372 572.15 220.278 547.979 215.803C534.93 213.387 496.803 218.587 481.248 240.228C474.464 249.667 481.838 238.458 461.191 272.673C447.113 296.002 359.275 293.615 359.275 249.961C365.035 208.99 418.717 272.274 440.544 264.415C459.19 257.7 467.544 228.391 487.737 219.286C538.765 196.279 554.803 208.688 562.067 213.977C595.692 238.458 601.806 241.43 605.425 244.357C639.346 271.788 608.895 248.169 625.778 259.695Z" stroke="#1B1A1A" stroke-width="2.5"/>
<path d="M564.368 391.288C577.072 394.769 581.182 415.436 581.12 423.999C581.934 403.573 578.77 392.59 564.368 385.281C551.638 378.821 525.464 400.222 490.284 381.05C476.468 373.52 466.458 336.376 448.216 336.376C426.065 336.376 418.195 344.711 402.612 332.467C384.37 318.134 367.121 276.128 359.241 248.89C359.241 299.52 379.902 336.004 395.724 346.241C411.546 356.479 421.532 351.129 439.095 348.475C463.734 344.752 466.697 375.523 488.305 390.729C508.408 404.876 543.775 385.645 564.368 391.288Z" fill="#FFDE00" stroke="#1B1A1A" stroke-width="2.5"/>
<path d="M564.368 108.057C577.072 104.575 581.182 83.908 581.12 75.3455C581.934 95.7715 578.77 106.754 564.368 114.063C551.638 120.523 525.464 99.122 490.284 118.295C476.468 125.824 466.458 162.968 448.216 162.968C426.065 162.968 418.195 154.633 402.612 166.877C384.37 181.21 367.121 223.216 359.241 250.455C359.241 199.824 379.902 163.341 395.724 153.103C411.546 142.865 421.532 148.215 439.095 150.869C463.734 154.592 466.697 123.821 488.305 108.615C508.408 94.4685 543.775 113.7 564.368 108.057Z" fill="#FFDE00" stroke="#1B1A1A" stroke-width="2.5"/>
<path d="M364.461 74.5722C365.473 73.3307 366.47 72.0818 367.392 70.8291C367.156 71.6627 366.885 72.4882 366.594 73.3126C366.298 74.1503 365.974 75.0049 365.645 75.8699C364.951 77.6972 364.239 79.5707 363.744 81.4291C362.995 84.2422 362.673 87.216 363.489 90.4864C364.303 93.7475 366.219 97.1866 369.747 100.994L369.804 101.055L369.868 101.108C376.887 106.907 380.297 113.357 381.057 119.829C381.819 126.321 379.931 132.987 376.072 139.215C372.06 145.691 370.032 151.394 371.125 156.689C372.225 162.015 376.392 166.523 383.734 170.83C389.5 174.213 392.959 178.028 394.645 181.989C396.326 185.937 396.306 190.168 394.858 194.516C394.346 196.054 392.777 197.071 390.955 197.071H335.802C333.477 197.071 332.022 195.719 331.555 194.11C331.085 192.492 331.586 190.507 333.522 189.182C337.503 186.459 340.912 183.615 342.438 180.314C343.221 178.62 343.509 176.806 343.138 174.867C342.771 172.949 341.777 170.995 340.139 168.967C337.815 166.087 336.73 163.373 336.503 160.811C336.277 158.245 336.902 155.717 338.186 153.197C340.783 148.101 345.967 143.238 351.666 138.547C361.102 130.779 366.538 116.249 357.227 102.869L357.199 102.829L357.169 102.792C354.325 99.3119 353.44 96.0785 353.678 93.0204C353.92 89.9093 355.336 86.8324 357.374 83.7259C359.079 81.1282 361.153 78.6035 363.23 76.0752C363.641 75.5745 364.053 75.0737 364.461 74.5722Z" fill="#FFDE00" stroke="#1B1A1A" stroke-width="2.5"/>
<path d="M265.99 134.069C265.935 133.528 265.878 132.987 265.814 132.448C265.818 132.456 265.822 132.464 265.826 132.472C266.102 133.049 266.375 133.656 266.653 134.275C267.248 135.6 267.868 136.977 268.588 138.221C269.683 140.112 271.103 141.881 273.298 143.199C275.485 144.512 278.339 145.317 282.207 145.464L282.291 145.468L282.374 145.46C288.995 144.829 294.056 146.401 297.755 149.323C301.472 152.258 303.935 156.652 305.159 161.865C306.45 167.361 308.394 171.504 311.838 173.77C315.309 176.052 319.952 176.206 326.066 174.613C330.581 173.437 334.178 173.56 336.988 174.577C339.781 175.589 341.914 177.526 343.444 180.21C344.213 181.56 343.847 183.372 342.541 184.678L317.907 209.312C316.255 210.964 314.387 211.029 312.931 210.224C311.423 209.39 310.222 207.534 310.283 205.076C310.342 202.739 309.97 200.535 308.665 198.822C307.334 197.076 305.213 196.072 302.285 195.76C299.62 195.475 297.701 194.645 296.304 193.474C294.903 192.301 293.939 190.712 293.308 188.77C292.026 184.825 292.185 179.642 292.712 174.216C293.595 165.112 288.778 154.494 276.719 152.331L276.672 152.323L276.624 152.318C273.396 151.993 271.327 150.801 269.915 149.152C268.469 147.461 267.617 145.178 267.064 142.515C266.602 140.288 266.368 137.908 266.133 135.503C266.086 135.026 266.039 134.547 265.99 134.069Z" fill="#FFDE00" stroke="#1B1A1A" stroke-width="2.5"/>
<path d="M532.113 260.703C533.354 261.715 534.603 262.712 535.856 263.633C535.022 263.398 534.197 263.127 533.372 262.836C532.535 262.54 531.68 262.215 530.815 261.887C528.988 261.193 527.114 260.481 525.256 259.986C522.443 259.237 519.469 258.915 516.199 259.731C512.938 260.545 509.498 262.461 505.691 265.989L505.63 266.045L505.577 266.11C499.778 273.128 493.328 276.538 486.856 277.298C480.364 278.061 473.699 276.173 467.47 272.314C460.994 268.302 455.291 266.274 449.996 267.367C444.67 268.466 440.162 272.634 435.855 279.976C432.472 285.742 428.657 289.201 424.696 290.887C420.749 292.568 416.517 292.547 412.169 291.1C410.631 290.588 409.614 289.019 409.614 287.197L409.614 232.044C409.614 229.719 410.966 228.264 412.575 227.797C414.193 227.326 416.178 227.827 417.503 229.764C420.226 233.744 423.07 237.154 426.371 238.679C428.065 239.463 429.879 239.751 431.818 239.38C433.736 239.013 435.69 238.018 437.718 236.381C440.598 234.056 443.312 232.971 445.874 232.745C448.44 232.519 450.968 233.143 453.488 234.427C458.584 237.024 463.447 242.209 468.138 247.908C475.906 257.344 490.436 262.779 503.816 253.468L503.856 253.441L503.893 253.41C507.373 250.567 510.607 249.682 513.665 249.92C516.776 250.162 519.853 251.577 522.959 253.616C525.557 255.32 528.082 257.394 530.61 259.472C531.111 259.883 531.611 260.294 532.113 260.703Z" fill="#FFDE00" stroke="#1B1A1A" stroke-width="2.5"/>
<path d="M471.685 162.641C472.225 162.586 472.767 162.528 473.306 162.465C473.298 162.469 473.29 162.473 473.282 162.477C472.705 162.752 472.097 163.025 471.479 163.303C470.154 163.899 468.776 164.518 467.533 165.238C465.642 166.334 463.873 167.753 462.555 169.949C461.241 172.136 460.437 174.989 460.289 178.858L460.286 178.941L460.294 179.024C460.924 185.645 459.353 190.706 456.431 194.406C453.495 198.122 449.102 200.585 443.888 201.81C438.392 203.101 434.249 205.044 431.984 208.489C429.701 211.959 429.548 216.603 431.14 222.717C432.316 227.232 432.193 230.829 431.176 233.638C430.165 236.431 428.227 238.564 425.543 240.094C424.194 240.863 422.381 240.497 421.076 239.192L396.441 214.557C394.79 212.906 394.724 211.037 395.529 209.582C396.363 208.074 398.22 206.873 400.678 206.934C403.015 206.992 405.219 206.621 406.931 205.316C408.677 203.985 409.682 201.864 409.994 198.935C410.278 196.271 411.109 194.352 412.279 192.955C413.453 191.554 415.041 190.589 416.984 189.958C420.928 188.677 426.112 188.836 431.538 189.362C440.642 190.245 451.26 185.428 453.422 173.37L453.431 173.322L453.436 173.274C453.76 170.047 454.952 167.977 456.602 166.566C458.292 165.12 460.575 164.268 463.238 163.715C465.466 163.252 467.846 163.019 470.251 162.783C470.728 162.737 471.206 162.69 471.685 162.641Z" fill="#FFDE00" stroke="#1B1A1A" stroke-width="2.5"/>
<path d="M349.711 433.949C348.7 435.191 347.702 436.439 346.781 437.692C347.017 436.859 347.288 436.033 347.579 435.209C347.875 434.371 348.199 433.516 348.528 432.651C349.222 430.824 349.933 428.951 350.429 427.092C351.178 424.279 351.5 421.305 350.684 418.035C349.87 414.774 347.954 411.335 344.426 407.527L344.369 407.466L344.305 407.413C337.286 401.614 333.876 395.164 333.116 388.693C332.354 382.2 334.241 375.535 338.101 369.306C342.113 362.831 344.141 357.127 343.048 351.832C341.948 346.506 337.781 341.999 330.439 337.691C324.673 334.308 321.214 330.493 319.527 326.532C317.847 322.585 317.867 318.353 319.314 314.005C319.826 312.467 321.395 311.45 323.218 311.45L378.371 311.45C380.696 311.45 382.151 312.802 382.618 314.411C383.088 316.029 382.587 318.014 380.651 319.339C376.67 322.062 373.261 324.907 371.735 328.207C370.952 329.902 370.664 331.715 371.035 333.654C371.401 335.572 372.396 337.526 374.034 339.554C376.358 342.434 377.443 345.148 377.669 347.71C377.896 350.277 377.271 352.805 375.987 355.324C373.39 360.42 368.206 365.283 362.507 369.974C353.07 377.742 347.635 392.272 356.946 405.652L356.974 405.692L357.004 405.729C359.848 409.209 360.733 412.443 360.495 415.501C360.253 418.612 358.837 421.689 356.799 424.795C355.094 427.393 353.02 429.918 350.943 432.446C350.532 432.947 350.12 433.448 349.711 433.949Z" fill="#FFDE00" stroke="#1B1A1A" stroke-width="2.5"/>
<path d="M447.774 368.334C447.829 368.875 447.887 369.416 447.95 369.955C447.946 369.947 447.943 369.939 447.939 369.931C447.663 369.354 447.39 368.747 447.112 368.128C446.516 366.803 445.897 365.425 445.177 364.182C444.081 362.291 442.662 360.522 440.467 359.204C438.279 357.89 435.426 357.086 431.557 356.938L431.474 356.935L431.391 356.943C424.77 357.573 419.709 356.002 416.009 353.08C412.293 350.145 409.83 345.751 408.606 340.537C407.315 335.041 405.371 330.898 401.927 328.633C398.456 326.35 393.813 326.197 387.698 327.79C383.184 328.966 379.586 328.843 376.777 327.825C373.984 326.814 371.851 324.877 370.321 322.193C369.552 320.843 369.918 319.03 371.223 317.725L395.858 293.091C397.509 291.439 399.378 291.373 400.834 292.178C402.341 293.012 403.543 294.869 403.481 297.327C403.423 299.664 403.794 301.868 405.1 303.581C406.43 305.327 408.551 306.331 411.48 306.643C414.145 306.927 416.063 307.758 417.461 308.929C418.861 310.102 419.826 311.69 420.457 313.633C421.738 317.578 421.579 322.761 421.053 328.187C420.17 337.291 424.987 347.909 437.045 350.071L437.093 350.08L437.141 350.085C440.369 350.41 442.438 351.602 443.849 353.251C445.295 354.941 446.148 357.224 446.701 359.888C447.163 362.115 447.396 364.495 447.632 366.9C447.679 367.377 447.725 367.856 447.774 368.334Z" fill="#FFDE00" stroke="#1B1A1A" stroke-width="2.5"/>
<path d="M177.399 245.954C176.158 244.942 174.909 243.945 173.656 243.024C174.49 243.259 175.315 243.53 176.139 243.821C176.977 244.117 177.832 244.442 178.697 244.77C180.524 245.464 182.398 246.176 184.256 246.671C187.069 247.42 190.043 247.742 193.313 246.926C196.574 246.112 200.014 244.196 203.821 240.668L203.882 240.612L203.935 240.547C209.734 233.529 216.184 230.119 222.655 229.359C229.148 228.596 235.813 230.484 242.042 234.343C248.518 238.355 254.221 240.383 259.516 239.29C264.842 238.191 269.35 234.023 273.657 226.681C277.04 220.915 280.855 217.456 284.816 215.77C288.763 214.089 292.995 214.109 297.343 215.557C298.881 216.069 299.898 217.638 299.898 219.46L299.898 274.613C299.898 276.938 298.546 278.393 296.937 278.86C295.319 279.331 293.334 278.83 292.009 276.893C289.286 272.913 286.442 269.503 283.141 267.978C281.446 267.194 279.633 266.906 277.694 267.277C275.776 267.644 273.822 268.639 271.794 270.276C268.914 272.601 266.2 273.685 263.638 273.912C261.072 274.138 258.544 273.514 256.024 272.23C250.928 269.633 246.065 264.448 241.374 258.749C233.606 249.313 219.076 243.878 205.696 253.189L205.656 253.216L205.619 253.247C202.139 256.09 198.905 256.975 195.847 256.737C192.736 256.495 189.659 255.08 186.553 253.041C183.955 251.337 181.43 249.263 178.902 247.185C178.401 246.774 177.901 246.363 177.399 245.954Z" fill="#FFDE00" stroke="#1B1A1A" stroke-width="2.5"/>
<path d="M240.218 346.29C239.677 346.345 239.136 346.403 238.597 346.466C238.605 346.462 238.613 346.458 238.621 346.455C239.198 346.179 239.805 345.906 240.424 345.628C241.749 345.032 243.126 344.413 244.369 343.693C246.26 342.597 248.029 341.178 249.348 338.982C250.661 336.795 251.465 333.942 251.613 330.073L251.616 329.99L251.608 329.907C250.978 323.286 252.55 318.225 255.472 314.525C258.407 310.809 262.8 308.346 268.014 307.121C273.51 305.831 277.653 303.887 279.918 300.443C282.201 296.972 282.355 292.329 280.762 286.214C279.586 281.699 279.709 278.102 280.726 275.293C281.737 272.5 283.675 270.367 286.359 268.837C287.709 268.068 289.521 268.434 290.826 269.739L315.461 294.374C317.112 296.025 317.178 297.894 316.373 299.349C315.539 300.857 313.683 302.059 311.224 301.997C308.887 301.939 306.683 302.31 304.971 303.615C303.225 304.946 302.221 307.067 301.908 309.996C301.624 312.661 300.793 314.579 299.623 315.977C298.449 317.377 296.861 318.342 294.919 318.973C290.974 320.254 285.791 320.095 280.364 319.569C271.26 318.686 260.643 323.503 258.48 335.561L258.472 335.609L258.467 335.657C258.142 338.885 256.95 340.954 255.3 342.365C253.61 343.811 251.327 344.664 248.664 345.216C246.437 345.679 244.056 345.912 241.652 346.148C241.174 346.194 240.696 346.241 240.218 346.29Z" fill="#FFDE00" stroke="#1B1A1A" stroke-width="2.5"/>
<path d="M357.088 326.673C397.595 326.673 430.433 293.835 430.433 253.328C430.433 212.821 397.595 179.984 357.088 179.984C316.581 179.984 283.744 212.821 283.744 253.328C283.744 293.835 316.581 326.673 357.088 326.673Z" fill="#E30613" stroke="#1B1A1A" stroke-width="2.5" stroke-miterlimit="10"/>
<path d="M373.215 210.943C374.808 200.217 376.533 183.853 360.639 167.386C337.909 143.837 312.689 154.014 312.689 154.014C312.689 154.014 332.2 165.977 336.183 170.103C345.541 179.798 340.961 193.204 340.961 193.204C343.748 196.092 373.215 210.943 373.215 210.943Z" fill="#009FE3" stroke="#1B1A1A" stroke-width="2.5" stroke-miterlimit="10"/>
<path d="M340.96 295.717C339.367 306.443 337.642 322.807 353.536 339.274C376.267 362.823 401.486 352.646 401.486 352.646C401.486 352.646 381.975 340.684 377.992 336.557C368.634 326.863 373.214 313.456 373.214 313.456C370.427 310.568 340.96 295.717 340.96 295.717Z" fill="#009FE3" stroke="#1B1A1A" stroke-width="2.5" stroke-miterlimit="10"/>
<path d="M314.701 237.2C303.975 235.607 287.611 233.882 271.144 249.776C247.595 272.508 257.772 297.726 257.772 297.726C257.772 297.726 269.735 278.215 273.861 274.232C283.556 264.874 296.962 269.454 296.962 269.454C299.85 266.667 314.701 237.2 314.701 237.2Z" fill="#009FE3" stroke="#1B1A1A" stroke-width="2.5" stroke-miterlimit="10"/>
<path d="M399.477 269.455C410.203 271.048 426.567 272.774 443.034 256.88C466.583 234.149 456.406 208.93 456.406 208.93C456.406 208.93 444.444 228.441 440.317 232.424C430.623 241.782 417.216 237.201 417.216 237.201C414.328 239.989 399.477 269.455 399.477 269.455Z" fill="#009FE3" stroke="#1B1A1A" stroke-width="2.5" stroke-miterlimit="10"/>
<path d="M338.518 211.957C332.061 203.247 321.71 190.455 298.827 190.051C266.102 189.471 255.466 214.5 255.466 214.5C255.466 214.5 277.721 209.163 283.454 209.264C296.926 209.503 303.168 222.221 303.168 222.221C307.181 222.291 338.518 211.957 338.518 211.957Z" fill="#009FE3" stroke="#1B1A1A" stroke-width="2.5" stroke-miterlimit="10"/>
<path d="M375.656 294.71C382.114 303.42 392.464 316.211 415.348 316.616C448.073 317.194 458.709 292.167 458.709 292.167C458.709 292.167 436.453 297.504 430.72 297.403C417.249 297.164 411.006 284.446 411.006 284.446C406.993 284.374 375.656 294.71 375.656 294.71Z" fill="#009FE3" stroke="#1B1A1A" stroke-width="2.5" stroke-miterlimit="10"/>
<path d="M315.712 271.899C307.001 278.357 294.21 288.707 293.806 311.591C293.227 344.316 318.255 354.952 318.255 354.952C318.255 354.952 312.918 332.697 313.019 326.964C313.257 313.492 325.975 307.25 325.975 307.25C326.046 303.237 315.712 271.899 315.712 271.899Z" fill="#009FE3" stroke="#1B1A1A" stroke-width="2.5" stroke-miterlimit="10"/>
<path d="M398.464 234.76C407.175 228.302 419.966 217.952 420.37 195.068C420.949 162.343 395.921 151.707 395.921 151.707C395.921 151.707 401.258 173.963 401.157 179.695C400.919 193.167 388.201 199.41 388.201 199.41C388.129 203.423 398.464 234.76 398.464 234.76Z" fill="#009FE3" stroke="#1B1A1A" stroke-width="2.5" stroke-miterlimit="10"/>
<path d="M357.088 314.87C391.076 314.87 418.629 287.317 418.629 253.329C418.629 219.34 391.076 191.787 357.088 191.787C323.099 191.787 295.546 219.34 295.546 253.329C295.546 287.317 323.099 314.87 357.088 314.87Z" fill="#FFDE00" stroke="#1B1A1A" stroke-width="2.5" stroke-miterlimit="10"/>
<path d="M357.089 300.53C383.158 300.53 404.291 279.397 404.291 253.327C404.291 227.258 383.158 206.125 357.089 206.125C331.019 206.125 309.886 227.258 309.886 253.327C309.886 279.397 331.019 300.53 357.089 300.53Z" fill="#009FE3" stroke="#1B1A1A" stroke-width="2.5" stroke-miterlimit="10"/>
<path d="M346.755 295.715H366.869C369.444 295.715 371.726 294.057 372.521 291.608L374.223 286.371C375.471 282.53 372.608 278.592 368.572 278.592H345.054C341.017 278.592 338.155 282.532 339.403 286.371L341.105 291.608C341.899 294.057 344.181 295.715 346.755 295.715Z" fill="#FFDE00" stroke="#1B1A1A" stroke-width="2.5" stroke-miterlimit="10"/>
<path d="M357.089 274.244C374.537 274.244 388.682 260.099 388.682 242.651C388.682 225.203 374.537 211.058 357.089 211.058C339.641 211.058 325.496 225.203 325.496 242.651C325.496 260.099 339.641 274.244 357.089 274.244Z" fill="#E30613" stroke="#1B1A1A" stroke-width="2.5" stroke-miterlimit="10"/>
<path d="M357.475 264.918C370.078 264.918 380.295 254.701 380.295 242.098C380.295 229.495 370.078 219.278 357.475 219.278C344.872 219.278 334.655 229.495 334.655 242.098C334.655 254.701 344.872 264.918 357.475 264.918Z" fill="#FFDE00" stroke="#1B1A1A" stroke-width="2.5" stroke-miterlimit="10"/>
<path d="M357.498 248.61C368.209 248.61 376.892 245.691 376.892 242.091C376.892 238.491 368.209 235.573 357.498 235.573C346.787 235.573 338.104 238.491 338.104 242.091C338.104 245.691 346.787 248.61 357.498 248.61Z" fill="#FFFBF1" stroke="#1B1A1A" stroke-width="2.5" stroke-miterlimit="10"/>
<path d="M357.508 249.022C361.026 249.022 363.878 246.17 363.878 242.652C363.878 239.133 361.026 236.281 357.508 236.281C353.989 236.281 351.137 239.133 351.137 242.652C351.137 246.17 353.989 249.022 357.508 249.022Z" fill="#1B1A1A" stroke="#1B1A1A" stroke-width="2.5" stroke-miterlimit="10"/>
<path d="M366.085 278.812C367.04 285.246 368.075 295.064 358.539 304.943C344.903 319.07 329.774 312.966 329.774 312.966C329.774 312.966 341.478 305.789 343.868 303.314C349.482 297.498 348.226 278.931 348.226 278.931L366.085 278.812Z" fill="#E30613" stroke="#1B1A1A" stroke-width="2.5" stroke-miterlimit="10"/>
<path d="M576.771 62.6667C588.745 50.6923 619.367 37.8478 634.566 35.9207C642.799 34.8758 649.818 41.8951 648.773 50.128C646.846 65.3269 634.001 95.9483 622.027 107.923C609.864 120.083 585.325 124.36 572.828 111.864C560.332 99.3674 564.609 74.8283 576.771 62.6667Z" fill="#009FE3" stroke="#1B1A1A" stroke-width="2.5" stroke-miterlimit="10"/>
<path d="M652.969 257.596C667.635 266.063 687.967 292.317 693.762 306.499C696.903 314.181 691.939 322.778 683.716 323.899C668.537 325.972 635.634 321.49 620.969 313.023C606.075 304.422 595.592 281.826 604.429 266.521C613.265 251.216 638.075 248.996 652.969 257.596Z" fill="#009FE3" stroke="#1B1A1A" stroke-width="2.5" stroke-miterlimit="10"/>
<path d="M622.028 420.142C634.003 432.117 646.847 462.738 648.774 477.937C649.819 486.17 642.8 493.189 634.567 492.144C619.368 490.217 588.747 477.373 576.772 465.398C564.612 453.235 560.335 428.696 572.831 416.2C585.327 403.704 609.867 407.981 622.028 420.142Z" fill="#009FE3" stroke="#1B1A1A" stroke-width="2.5" stroke-miterlimit="10"/>
<path d="M47.7495 243.109C35.775 231.135 22.9305 200.513 21.0035 185.314C19.9586 177.081 26.9778 170.062 35.2108 171.107C50.4097 173.034 81.0311 185.879 93.0056 197.853C105.166 210.016 109.443 234.555 96.9464 247.051C84.4502 259.548 59.9111 255.271 47.7495 243.109Z" fill="#009FE3" stroke="#1B1A1A" stroke-width="2.5" stroke-miterlimit="10"/>
<path d="M108.476 81.8849C103.789 65.6119 107.363 32.5985 113.03 18.3645C116.098 10.6536 125.637 7.90647 132.337 12.804C144.706 21.8438 165.291 47.8996 169.978 64.1727C174.736 80.7006 166.607 104.246 149.625 109.137C132.643 114.027 113.236 98.4122 108.476 81.8849Z" fill="#009FE3" stroke="#1B1A1A" stroke-width="2.5" stroke-miterlimit="10"/>
<path d="M151.741 457.94C139.766 469.915 109.145 482.759 93.9462 484.686C85.7132 485.731 78.694 478.712 79.7389 470.479C81.666 455.28 94.5104 424.659 106.485 412.684C118.648 400.524 143.187 396.247 155.683 408.743C168.179 421.24 163.903 445.779 151.741 457.94Z" fill="#009FE3" stroke="#1B1A1A" stroke-width="2.5" stroke-miterlimit="10"/>
</svg>
