<svg width="116" height="136" viewBox="0 0 116 136" fill="none" xmlns="http://www.w3.org/2000/svg">
<path d="M57.8656 93.9972C74.8666 93.9972 88.6486 80.2151 88.6486 63.2141C88.6486 46.2131 74.8666 32.431 57.8656 32.431C40.8646 32.431 27.0825 46.2131 27.0825 63.2141C27.0825 80.2151 40.8646 93.9972 57.8656 93.9972Z" fill="#FFDE00" stroke="#1B1A1A" stroke-width="3" stroke-miterlimit="10"/>
<path d="M69.2288 106.46C74.8628 99.2087 81.4907 86.1769 86.5644 72.5838H28.627C33.7031 86.1769 40.3285 99.2087 45.9626 106.46C48.2392 109.387 51.3551 111.18 54.6578 111.843H60.531C63.8363 111.18 66.9522 109.387 69.2288 106.46Z" fill="#FFDE00" stroke="#1B1A1A" stroke-width="3" stroke-miterlimit="10"/>
<path d="M58.525 102.658C65.4677 102.658 71.0959 100.765 71.0959 98.4311C71.0959 96.0969 65.4677 94.2046 58.525 94.2046C51.5823 94.2046 45.9541 96.0969 45.9541 98.4311C45.9541 100.765 51.5823 102.658 58.525 102.658Z" fill="#FFFBF1" stroke="#1B1A1A" stroke-width="3" stroke-miterlimit="10"/>
<path d="M58.5223 102.476C60.8033 102.476 62.6524 100.627 62.6524 98.3462C62.6524 96.0652 60.8033 94.2161 58.5223 94.2161C56.2412 94.2161 54.3921 96.0652 54.3921 98.3462C54.3921 100.627 56.2412 102.476 58.5223 102.476Z" fill="#1B1A1A" stroke="#1B1A1A" stroke-width="3" stroke-miterlimit="10"/>
<path d="M31.8313 18.1347C32.2138 21.541 33.0037 26.6821 38.9279 30.3941C47.4015 35.7033 53.9359 30.5105 53.9359 30.5105C53.9359 30.5105 47.3137 28.4728 45.8309 27.5417C42.3424 25.3568 40.5089 15.7328 40.5089 15.7328L31.8313 18.1347Z" fill="#FFDE00" stroke="#1B1A1A" stroke-width="3" stroke-miterlimit="10"/>
<path d="M84.1079 18.1347C83.7254 21.541 82.9355 26.6821 77.0113 30.3941C68.5377 35.7033 62.0033 30.5105 62.0033 30.5105C62.0033 30.5105 68.6255 28.4728 70.1084 27.5417C73.5968 25.3568 75.4303 15.7328 75.4303 15.7328L84.1079 18.1347Z" fill="#FFDE00" stroke="#1B1A1A" stroke-width="3" stroke-miterlimit="10"/>
<path d="M67.106 15.8294C67.106 19.9272 65.9288 23.5736 64.102 26.1563C62.2726 28.7428 59.8846 30.1589 57.4096 30.1589C54.9345 30.1589 52.5466 28.7428 50.7171 26.1563C48.8903 23.5736 47.7131 19.9272 47.7131 15.8294C47.7131 11.7316 48.8903 8.08526 50.7171 5.50253C52.5466 2.91606 54.9345 1.5 57.4096 1.5C59.8846 1.5 62.2726 2.91606 64.102 5.50253C65.9288 8.08526 67.106 11.7316 67.106 15.8294Z" fill="#FFDE00" stroke="#1B1A1A" stroke-width="3"/>
<circle cx="57.5832" cy="62.9317" r="23.5954" fill="#FF8A00" stroke="#1B1A1A" stroke-width="3"/>
<path d="M60.4205 61.5364L72.2105 61.5364C73.283 61.5364 74.1525 62.4058 74.1525 63.4784C74.1525 64.5509 73.283 65.4204 72.2105 65.4204L60.4205 65.4204L60.4205 77.2104C60.4205 78.2829 59.5511 79.1523 58.4785 79.1523C57.406 79.1523 56.5365 78.2829 56.5365 77.2104L56.5365 65.4204L44.7465 65.4204C43.674 65.4204 42.8045 64.5509 42.8045 63.4784C42.8045 62.4058 43.674 61.5364 44.7465 61.5364L56.5365 61.5364L56.5365 49.7464C56.5365 48.6739 57.406 47.8044 58.4785 47.8044C59.5511 47.8044 60.4205 48.6739 60.4205 49.7464L60.4205 61.5364Z" fill="#1B1A1A"/>
</svg>
