<svg width="109" height="56" viewBox="0 0 109 56" fill="none" xmlns="http://www.w3.org/2000/svg">
<path d="M31.9549 51.7553C40.9235 52.3159 39.4405 42.7405 50.2584 46.0223C44.2501 40.8375 37.1815 41.5035 30.6066 43.785C21.8344 45.7545 26.6128 31.9724 34.6488 30.6788C44.9558 28.5059 49.8138 38.3695 56.227 44.9947C68.6132 56.7288 75.4459 32.6503 97.1932 41.8303C80.3588 29.6122 76.0142 40.9554 65.6022 40.8261C61.4824 41.0675 58.9253 36.54 60.0112 32.7421C61.2155 27.5153 67.4212 27.1802 70.4188 31.0038C72.598 33.3444 75.8647 31.7675 78.3261 30.76C78.3068 30.6848 78.2844 30.6062 78.2651 30.531C69.4681 31.3732 70.8665 22.0536 61.5577 23.3929C57.149 24.066 52.8137 25.2146 48.4183 25.9562C44.2395 26.9461 34.9258 24.217 35.1302 19.1569C35.2653 15.8126 36.3853 11.3268 43.3996 11.6101C51.0515 11.9192 49.9661 22.1868 62.2366 11.7237C51.4894 16.099 52.6661 3.56957 41.5071 3.11884C29.7105 2.64234 25.1113 10.3763 22.3948 10.2666C0.878807 25.9562 22.3948 46.0223 22.3948 46.0223C23.8357 46.087 27.7848 51.4947 31.9549 51.7553Z" fill="#FF8A00" stroke="#1B1A1A" stroke-width="2.5" stroke-miterlimit="10" stroke-linecap="round" stroke-linejoin="round"/>
<path d="M69 18.1094C71.5803 10.5958 82.4429 6.43899 88.6938 11.7958C94.1838 16.5015 99.4465 20.3054 107.431 15.7565C104.192 24.5563 91.5957 26.9719 85.5566 20.423C80.7017 14.7682 74.8822 14.5408 69 18.1094Z" fill="#FFDE00" stroke="#1B1A1A" stroke-width="2.5" stroke-miterlimit="10" stroke-linecap="round" stroke-linejoin="round"/>
<path d="M16.217 29.6986L29.9287 42.004C31.5548 43.4633 31.5548 45.8294 29.9287 47.2888C28.3025 48.7482 25.666 48.7482 24.0399 47.2888L3.21979 28.6041C1.59364 27.1448 1.59364 24.7787 3.21979 23.3193L24.0399 4.63461C25.666 3.17525 28.3025 3.17525 29.9287 4.63461C31.5548 6.09398 31.5548 8.46007 29.9287 9.91944L16.217 22.2248L56.1324 22.2248C58.4321 22.2248 60.2964 23.8979 60.2964 25.9617C60.2964 28.0256 58.4321 29.6986 56.1324 29.6986L16.217 29.6986Z" fill="#FFDE00" stroke="#1B1A1A" stroke-width="2.5"/>
<rect x="1.25" y="-1.25" width="20.3326" height="14.3162" rx="7.15811" transform="matrix(1 0 0 -1 40.1167 31.8917)" fill="#FF8A00" stroke="#1B1A1A" stroke-width="2.5"/>
</svg>
