<svg width="85" height="69" viewBox="0 0 85 69" fill="none" xmlns="http://www.w3.org/2000/svg">
<mask id="path-1-outside-1" maskUnits="userSpaceOnUse" x="19.843" y="4.53314" width="58" height="58" fill="black">
<rect fill="white" x="19.843" y="4.53314" width="58" height="58"/>
<path d="M49.0303 59.9078C63.4932 59.9078 75.2176 48.1833 75.2176 33.7205C75.2176 19.2576 63.4932 7.53314 49.0303 7.53314C34.5675 7.53314 22.843 19.2576 22.843 33.7205C22.843 48.1833 34.5675 59.9078 49.0303 59.9078Z"/>
</mask>
<path d="M49.0303 59.9078C63.4932 59.9078 75.2176 48.1833 75.2176 33.7205C75.2176 19.2576 63.4932 7.53314 49.0303 7.53314C34.5675 7.53314 22.843 19.2576 22.843 33.7205C22.843 48.1833 34.5675 59.9078 49.0303 59.9078Z" fill="#FFFBF1"/>
<path d="M49.0303 59.9078C63.4932 59.9078 75.2176 48.1833 75.2176 33.7205C75.2176 19.2576 63.4932 7.53314 49.0303 7.53314C34.5675 7.53314 22.843 19.2576 22.843 33.7205C22.843 48.1833 34.5675 59.9078 49.0303 59.9078Z" stroke="#1B1A1A" stroke-width="5" stroke-miterlimit="10" stroke-linecap="round" stroke-linejoin="round" mask="url(#path-1-outside-1)"/>
<mask id="path-2-outside-2" maskUnits="userSpaceOnUse" x="-1.62627" y="18.6026" width="40.6106" height="29.3837" fill="black">
<rect fill="white" x="-1.62627" y="18.6026" width="40.6106" height="29.3837"/>
<path d="M10.3215 35.5112L17.049 40.8822C17.9021 41.523 17.9722 42.6443 17.2057 43.3865C16.4392 44.1288 15.1263 44.211 14.2732 43.5701L3.35079 35.3648C2.4977 34.7239 2.42752 33.6027 3.19403 32.8604L13.008 23.3572C13.7745 22.6149 15.0874 22.5328 15.9405 23.1736C16.7936 23.8145 16.8638 24.9357 16.0973 25.678L10.066 31.939L35.0273 31.939C35.0273 31.939 35.1548 32.3922 35.216 33.3702C35.2773 34.3482 35.3147 35.5112 35.3147 35.5112L10.3215 35.5112Z"/>
</mask>
<path d="M10.3215 35.5112L17.049 40.8822C17.9021 41.523 17.9722 42.6443 17.2057 43.3865C16.4392 44.1288 15.1263 44.211 14.2732 43.5701L3.35079 35.3648C2.4977 34.7239 2.42752 33.6027 3.19403 32.8604L13.008 23.3572C13.7745 22.6149 15.0874 22.5328 15.9405 23.1736C16.7936 23.8145 16.8638 24.9357 16.0973 25.678L10.066 31.939L35.0273 31.939C35.0273 31.939 35.1548 32.3922 35.216 33.3702C35.2773 34.3482 35.3147 35.5112 35.3147 35.5112L10.3215 35.5112Z" fill="#FF8A00"/>
<path d="M10.3215 35.5112L17.049 40.8822C17.9021 41.523 17.9722 42.6443 17.2057 43.3865C16.4392 44.1288 15.1263 44.211 14.2732 43.5701L3.35079 35.3648C2.4977 34.7239 2.42752 33.6027 3.19403 32.8604L13.008 23.3572C13.7745 22.6149 15.0874 22.5328 15.9405 23.1736C16.7936 23.8145 16.8638 24.9357 16.0973 25.678L10.066 31.939L35.0273 31.939C35.0273 31.939 35.1548 32.3922 35.216 33.3702C35.2773 34.3482 35.3147 35.5112 35.3147 35.5112L10.3215 35.5112Z" stroke="#1B1A1A" stroke-width="5" mask="url(#path-2-outside-2)"/>
<mask id="path-3-outside-3" maskUnits="userSpaceOnUse" x="22.3796" y="2.44951" width="63" height="67" fill="black">
<rect fill="white" x="22.3796" y="2.44951" width="63" height="67"/>
<path d="M27.9534 66.4867C26.8436 66.4867 25.8187 65.7631 25.4865 64.643C25.0823 63.2809 25.8599 61.8466 27.2221 61.4423C32.2587 59.9489 36.9194 55.1337 38.0626 50.2438C38.9742 46.3402 37.7279 42.7739 34.3547 39.6453C30.4124 35.9889 29.1996 31.099 31.0253 26.2324C32.8947 21.2627 37.5785 17.5548 42.162 17.4209C48.1745 17.2458 50.7598 19.1409 53.0386 20.8121C55.4951 22.6146 57.6169 24.1698 65.8284 23.0574C70.641 22.406 73.9395 20.0293 75.6261 15.9943C76.9805 12.7576 76.9187 9.32005 76.79 8.36989C76.5994 6.96139 77.5857 5.66361 78.9967 5.47306C80.4027 5.28252 81.703 6.26873 81.8936 7.6798C81.9219 7.8858 82.5527 12.7859 80.3795 17.9822C78.7006 21.9966 74.9309 27.0229 66.5211 28.161C57.0066 29.4511 53.5381 27.5662 49.995 24.9655C48.0741 23.557 46.5574 22.4446 42.3139 22.5682C39.8136 22.6403 36.9734 25.0479 35.8482 28.0451C35.0911 30.0613 34.8233 33.056 37.8592 35.8704C42.5534 40.2247 44.4073 45.7454 43.0812 51.4154C41.526 58.0717 35.4722 64.3649 28.6898 66.3785C28.4426 66.4532 28.1954 66.4867 27.9534 66.4867Z"/>
</mask>
<path d="M27.9534 66.4867C26.8436 66.4867 25.8187 65.7631 25.4865 64.643C25.0823 63.2809 25.8599 61.8466 27.2221 61.4423C32.2587 59.9489 36.9194 55.1337 38.0626 50.2438C38.9742 46.3402 37.7279 42.7739 34.3547 39.6453C30.4124 35.9889 29.1996 31.099 31.0253 26.2324C32.8947 21.2627 37.5785 17.5548 42.162 17.4209C48.1745 17.2458 50.7598 19.1409 53.0386 20.8121C55.4951 22.6146 57.6169 24.1698 65.8284 23.0574C70.641 22.406 73.9395 20.0293 75.6261 15.9943C76.9805 12.7576 76.9187 9.32005 76.79 8.36989C76.5994 6.96139 77.5857 5.66361 78.9967 5.47306C80.4027 5.28252 81.703 6.26873 81.8936 7.6798C81.9219 7.8858 82.5527 12.7859 80.3795 17.9822C78.7006 21.9966 74.9309 27.0229 66.5211 28.161C57.0066 29.4511 53.5381 27.5662 49.995 24.9655C48.0741 23.557 46.5574 22.4446 42.3139 22.5682C39.8136 22.6403 36.9734 25.0479 35.8482 28.0451C35.0911 30.0613 34.8233 33.056 37.8592 35.8704C42.5534 40.2247 44.4073 45.7454 43.0812 51.4154C41.526 58.0717 35.4722 64.3649 28.6898 66.3785C28.4426 66.4532 28.1954 66.4867 27.9534 66.4867Z" fill="#FF8A00"/>
<path d="M27.9534 66.4867C26.8436 66.4867 25.8187 65.7631 25.4865 64.643C25.0823 63.2809 25.8599 61.8466 27.2221 61.4423C32.2587 59.9489 36.9194 55.1337 38.0626 50.2438C38.9742 46.3402 37.7279 42.7739 34.3547 39.6453C30.4124 35.9889 29.1996 31.099 31.0253 26.2324C32.8947 21.2627 37.5785 17.5548 42.162 17.4209C48.1745 17.2458 50.7598 19.1409 53.0386 20.8121C55.4951 22.6146 57.6169 24.1698 65.8284 23.0574C70.641 22.406 73.9395 20.0293 75.6261 15.9943C76.9805 12.7576 76.9187 9.32005 76.79 8.36989C76.5994 6.96139 77.5857 5.66361 78.9967 5.47306C80.4027 5.28252 81.703 6.26873 81.8936 7.6798C81.9219 7.8858 82.5527 12.7859 80.3795 17.9822C78.7006 21.9966 74.9309 27.0229 66.5211 28.161C57.0066 29.4511 53.5381 27.5662 49.995 24.9655C48.0741 23.557 46.5574 22.4446 42.3139 22.5682C39.8136 22.6403 36.9734 25.0479 35.8482 28.0451C35.0911 30.0613 34.8233 33.056 37.8592 35.8704C42.5534 40.2247 44.4073 45.7454 43.0812 51.4154C41.526 58.0717 35.4722 64.3649 28.6898 66.3785C28.4426 66.4532 28.1954 66.4867 27.9534 66.4867Z" stroke="#1B1A1A" stroke-width="5" mask="url(#path-3-outside-3)"/>
<mask id="path-4-outside-4" maskUnits="userSpaceOnUse" x="24.9327" y="-4.17933" width="33.0664" height="40.1937" fill="black">
<rect fill="white" x="24.9327" y="-4.17933" width="33.0664" height="40.1937"/>
<path d="M48.6583 28.7198C48.2279 28.9239 47.7365 29.0116 47.2299 28.9468C45.8193 28.7665 44.8223 27.4752 45.0027 26.0645C46.8226 11.8962 32.1803 9.61134 32.032 9.59327C30.6214 9.41289 29.6244 8.12161 29.8048 6.71096C29.9852 5.30032 31.2765 4.30335 32.6871 4.48372C32.9146 4.51266 38.3197 5.24415 43.2412 9.05468C47.0315 11.9881 51.3014 17.4355 50.1088 26.7184C49.9966 27.6236 49.4261 28.3558 48.6583 28.7198Z"/>
</mask>
<path d="M48.6583 28.7198C48.2279 28.9239 47.7365 29.0116 47.2299 28.9468C45.8193 28.7665 44.8223 27.4752 45.0027 26.0645C46.8226 11.8962 32.1803 9.61134 32.032 9.59327C30.6214 9.41289 29.6244 8.12161 29.8048 6.71096C29.9852 5.30032 31.2765 4.30335 32.6871 4.48372C32.9146 4.51266 38.3197 5.24415 43.2412 9.05468C47.0315 11.9881 51.3014 17.4355 50.1088 26.7184C49.9966 27.6236 49.4261 28.3558 48.6583 28.7198Z" fill="#FF8A00"/>
<path d="M48.6583 28.7198C48.2279 28.9239 47.7365 29.0116 47.2299 28.9468C45.8193 28.7665 44.8223 27.4752 45.0027 26.0645C46.8226 11.8962 32.1803 9.61134 32.032 9.59327C30.6214 9.41289 29.6244 8.12161 29.8048 6.71096C29.9852 5.30032 31.2765 4.30335 32.6871 4.48372C32.9146 4.51266 38.3197 5.24415 43.2412 9.05468C47.0315 11.9881 51.3014 17.4355 50.1088 26.7184C49.9966 27.6236 49.4261 28.3558 48.6583 28.7198Z" stroke="#1B1A1A" stroke-width="5" mask="url(#path-4-outside-4)"/>
<mask id="path-5-outside-5" maskUnits="userSpaceOnUse" x="22.1755" y="4.72624" width="56" height="58" fill="black">
<rect fill="white" x="22.1755" y="4.72624" width="56" height="58"/>
<path d="M65.2444 26.8298C63.2514 22.1228 63.9853 17.1429 66.7688 14.6812C62.1133 10.3656 55.8845 7.72624 49.0351 7.72624C38.3876 7.72624 29.2311 14.1044 25.1755 23.2481C28.662 24.4635 31.2447 28.743 31.2447 33.8183C31.2447 38.8935 28.662 43.1731 25.1755 44.3885C26.2132 46.7265 27.5831 48.8844 29.2285 50.8027C29.3521 49.1007 29.9933 47.5917 31.1057 46.4793C32.3442 45.2408 34.0488 44.5842 36.029 44.5842C38.9722 44.5842 42.0776 46.003 44.5495 48.4724C46.5709 50.4937 47.9485 53.0815 48.327 55.5689C48.569 57.1551 48.4145 58.6254 47.8944 59.882C48.2703 59.8974 48.6488 59.9077 49.0299 59.9077C63.3158 59.9077 74.9211 48.4234 75.1168 34.1839C74.9186 34.202 74.7177 34.2123 74.5169 34.2123C70.8424 34.2123 67.1139 31.2459 65.2444 26.8298ZM48.0386 33.3445C42.0183 33.3445 37.1208 28.4469 37.1208 22.4267C37.1208 16.4064 42.0183 11.5089 48.0386 11.5089C54.0588 11.5089 58.9564 16.4064 58.9564 22.4267C58.9564 28.4469 54.0588 33.3445 48.0386 33.3445ZM61.346 54.4334C56.2939 54.4334 52.1868 50.3238 52.1868 45.2743C52.1868 40.2248 56.2965 36.1151 61.346 36.1151C66.3954 36.1151 70.5051 40.2248 70.5051 45.2743C70.5051 50.3238 66.398 54.4334 61.346 54.4334Z"/>
</mask>
<path d="M65.2444 26.8298C63.2514 22.1228 63.9853 17.1429 66.7688 14.6812C62.1133 10.3656 55.8845 7.72624 49.0351 7.72624C38.3876 7.72624 29.2311 14.1044 25.1755 23.2481C28.662 24.4635 31.2447 28.743 31.2447 33.8183C31.2447 38.8935 28.662 43.1731 25.1755 44.3885C26.2132 46.7265 27.5831 48.8844 29.2285 50.8027C29.3521 49.1007 29.9933 47.5917 31.1057 46.4793C32.3442 45.2408 34.0488 44.5842 36.029 44.5842C38.9722 44.5842 42.0776 46.003 44.5495 48.4724C46.5709 50.4937 47.9485 53.0815 48.327 55.5689C48.569 57.1551 48.4145 58.6254 47.8944 59.882C48.2703 59.8974 48.6488 59.9077 49.0299 59.9077C63.3158 59.9077 74.9211 48.4234 75.1168 34.1839C74.9186 34.202 74.7177 34.2123 74.5169 34.2123C70.8424 34.2123 67.1139 31.2459 65.2444 26.8298ZM48.0386 33.3445C42.0183 33.3445 37.1208 28.4469 37.1208 22.4267C37.1208 16.4064 42.0183 11.5089 48.0386 11.5089C54.0588 11.5089 58.9564 16.4064 58.9564 22.4267C58.9564 28.4469 54.0588 33.3445 48.0386 33.3445ZM61.346 54.4334C56.2939 54.4334 52.1868 50.3238 52.1868 45.2743C52.1868 40.2248 56.2965 36.1151 61.346 36.1151C66.3954 36.1151 70.5051 40.2248 70.5051 45.2743C70.5051 50.3238 66.398 54.4334 61.346 54.4334Z" fill="#FFDE00"/>
<path d="M65.2444 26.8298C63.2514 22.1228 63.9853 17.1429 66.7688 14.6812C62.1133 10.3656 55.8845 7.72624 49.0351 7.72624C38.3876 7.72624 29.2311 14.1044 25.1755 23.2481C28.662 24.4635 31.2447 28.743 31.2447 33.8183C31.2447 38.8935 28.662 43.1731 25.1755 44.3885C26.2132 46.7265 27.5831 48.8844 29.2285 50.8027C29.3521 49.1007 29.9933 47.5917 31.1057 46.4793C32.3442 45.2408 34.0488 44.5842 36.029 44.5842C38.9722 44.5842 42.0776 46.003 44.5495 48.4724C46.5709 50.4937 47.9485 53.0815 48.327 55.5689C48.569 57.1551 48.4145 58.6254 47.8944 59.882C48.2703 59.8974 48.6488 59.9077 49.0299 59.9077C63.3158 59.9077 74.9211 48.4234 75.1168 34.1839C74.9186 34.202 74.7177 34.2123 74.5169 34.2123C70.8424 34.2123 67.1139 31.2459 65.2444 26.8298ZM48.0386 33.3445C42.0183 33.3445 37.1208 28.4469 37.1208 22.4267C37.1208 16.4064 42.0183 11.5089 48.0386 11.5089C54.0588 11.5089 58.9564 16.4064 58.9564 22.4267C58.9564 28.4469 54.0588 33.3445 48.0386 33.3445ZM61.346 54.4334C56.2939 54.4334 52.1868 50.3238 52.1868 45.2743C52.1868 40.2248 56.2965 36.1151 61.346 36.1151C66.3954 36.1151 70.5051 40.2248 70.5051 45.2743C70.5051 50.3238 66.398 54.4334 61.346 54.4334Z" stroke="#1B1A1A" stroke-width="5" stroke-miterlimit="10" stroke-linecap="round" stroke-linejoin="round" mask="url(#path-5-outside-5)"/>
<mask id="path-6-outside-6" maskUnits="userSpaceOnUse" x="49.1875" y="33.1154" width="24" height="24" fill="black">
<rect fill="white" x="49.1875" y="33.1154" width="24" height="24"/>
<path d="M61.3466 36.1154C56.2946 36.1154 52.1875 40.225 52.1875 45.2745C52.1875 50.324 56.2971 54.4336 61.3466 54.4336C66.3961 54.4336 70.5057 50.324 70.5057 45.2745C70.5057 40.225 66.3987 36.1154 61.3466 36.1154ZM61.3466 51.5548C57.8576 51.5548 55.02 48.7172 55.02 45.2281C55.02 41.7391 57.8576 38.9015 61.3466 38.9015C64.8357 38.9015 67.6733 41.7391 67.6733 45.2281C67.6733 48.7172 64.8357 51.5548 61.3466 51.5548Z"/>
</mask>
<path d="M61.3466 36.1154C56.2946 36.1154 52.1875 40.225 52.1875 45.2745C52.1875 50.324 56.2971 54.4336 61.3466 54.4336C66.3961 54.4336 70.5057 50.324 70.5057 45.2745C70.5057 40.225 66.3987 36.1154 61.3466 36.1154ZM61.3466 51.5548C57.8576 51.5548 55.02 48.7172 55.02 45.2281C55.02 41.7391 57.8576 38.9015 61.3466 38.9015C64.8357 38.9015 67.6733 41.7391 67.6733 45.2281C67.6733 48.7172 64.8357 51.5548 61.3466 51.5548Z" fill="#FF8A00"/>
<path d="M61.3466 36.1154C56.2946 36.1154 52.1875 40.225 52.1875 45.2745C52.1875 50.324 56.2971 54.4336 61.3466 54.4336C66.3961 54.4336 70.5057 50.324 70.5057 45.2745C70.5057 40.225 66.3987 36.1154 61.3466 36.1154ZM61.3466 51.5548C57.8576 51.5548 55.02 48.7172 55.02 45.2281C55.02 41.7391 57.8576 38.9015 61.3466 38.9015C64.8357 38.9015 67.6733 41.7391 67.6733 45.2281C67.6733 48.7172 64.8357 51.5548 61.3466 51.5548Z" stroke="#1B1A1A" stroke-width="5" stroke-miterlimit="10" stroke-linecap="round" stroke-linejoin="round" mask="url(#path-6-outside-6)"/>
<mask id="path-7-outside-7" maskUnits="userSpaceOnUse" x="34.1206" y="8.51151" width="28" height="28" fill="black">
<rect fill="white" x="34.1206" y="8.51151" width="28" height="28"/>
<path d="M48.0384 11.5115C42.0182 11.5115 37.1206 16.4091 37.1206 22.4293C37.1206 28.4496 42.0182 33.3471 48.0384 33.3471C54.0587 33.3471 58.9562 28.4496 58.9562 22.4293C58.9562 16.4091 54.0587 11.5115 48.0384 11.5115ZM48.0384 30.5121C43.5812 30.5121 39.9531 26.8866 39.9531 22.4267C39.9531 17.9669 43.5786 14.3414 48.0384 14.3414C52.4982 14.3414 56.1238 17.9669 56.1238 22.4267C56.1238 26.8866 52.4957 30.5121 48.0384 30.5121Z"/>
</mask>
<path d="M48.0384 11.5115C42.0182 11.5115 37.1206 16.4091 37.1206 22.4293C37.1206 28.4496 42.0182 33.3471 48.0384 33.3471C54.0587 33.3471 58.9562 28.4496 58.9562 22.4293C58.9562 16.4091 54.0587 11.5115 48.0384 11.5115ZM48.0384 30.5121C43.5812 30.5121 39.9531 26.8866 39.9531 22.4267C39.9531 17.9669 43.5786 14.3414 48.0384 14.3414C52.4982 14.3414 56.1238 17.9669 56.1238 22.4267C56.1238 26.8866 52.4957 30.5121 48.0384 30.5121Z" fill="#FF8A00"/>
<path d="M48.0384 11.5115C42.0182 11.5115 37.1206 16.4091 37.1206 22.4293C37.1206 28.4496 42.0182 33.3471 48.0384 33.3471C54.0587 33.3471 58.9562 28.4496 58.9562 22.4293C58.9562 16.4091 54.0587 11.5115 48.0384 11.5115ZM48.0384 30.5121C43.5812 30.5121 39.9531 26.8866 39.9531 22.4267C39.9531 17.9669 43.5786 14.3414 48.0384 14.3414C52.4982 14.3414 56.1238 17.9669 56.1238 22.4267C56.1238 26.8866 52.4957 30.5121 48.0384 30.5121Z" stroke="#1B1A1A" stroke-width="5" stroke-miterlimit="10" stroke-linecap="round" stroke-linejoin="round" mask="url(#path-7-outside-7)"/>
<mask id="path-8-outside-8" maskUnits="userSpaceOnUse" x="61.1194" y="11.6837" width="17" height="26" fill="black">
<rect fill="white" x="61.1194" y="11.6837" width="17" height="26"/>
<path d="M68.7416 16.7154C66.7795 18.3041 66.334 22.1382 67.8533 25.7252C69.2643 29.0546 72.0067 31.3798 74.5224 31.3798C74.6898 31.3798 74.8494 31.3643 75.0116 31.3437H75.0091C75.0863 32.1574 75.1249 32.984 75.1249 33.8183C75.1249 33.9419 75.1249 34.0629 75.1224 34.1865H75.1249C74.9267 34.2045 74.7258 34.2148 74.525 34.2148C70.8454 34.2148 67.1194 31.2484 65.2474 26.8324C63.2544 22.1254 63.9883 17.1454 66.7718 14.6837C67.4619 15.3223 68.1185 16.0021 68.7416 16.7154Z"/>
</mask>
<path d="M68.7416 16.7154C66.7795 18.3041 66.334 22.1382 67.8533 25.7252C69.2643 29.0546 72.0067 31.3798 74.5224 31.3798C74.6898 31.3798 74.8494 31.3643 75.0116 31.3437H75.0091C75.0863 32.1574 75.1249 32.984 75.1249 33.8183C75.1249 33.9419 75.1249 34.0629 75.1224 34.1865H75.1249C74.9267 34.2045 74.7258 34.2148 74.525 34.2148C70.8454 34.2148 67.1194 31.2484 65.2474 26.8324C63.2544 22.1254 63.9883 17.1454 66.7718 14.6837C67.4619 15.3223 68.1185 16.0021 68.7416 16.7154Z" fill="#FF8A00"/>
<path d="M68.7416 16.7154C66.7795 18.3041 66.334 22.1382 67.8533 25.7252C69.2643 29.0546 72.0067 31.3798 74.5224 31.3798C74.6898 31.3798 74.8494 31.3643 75.0116 31.3437H75.0091C75.0863 32.1574 75.1249 32.984 75.1249 33.8183C75.1249 33.9419 75.1249 34.0629 75.1224 34.1865H75.1249C74.9267 34.2045 74.7258 34.2148 74.525 34.2148C70.8454 34.2148 67.1194 31.2484 65.2474 26.8324C63.2544 22.1254 63.9883 17.1454 66.7718 14.6837C67.4619 15.3223 68.1185 16.0021 68.7416 16.7154Z" stroke="#1B1A1A" stroke-width="5" stroke-miterlimit="10" stroke-linecap="round" stroke-linejoin="round" mask="url(#path-8-outside-8)"/>
<mask id="path-9-outside-9" maskUnits="userSpaceOnUse" x="21.1721" y="20.2459" width="13" height="27" fill="black">
<rect fill="white" x="21.1721" y="20.2459" width="13" height="27"/>
<path d="M31.2455 33.8161C31.2455 28.7409 28.6628 24.4613 25.1764 23.2459C24.7953 24.106 24.4579 24.9892 24.1721 25.893C26.5565 26.6475 28.4156 29.9692 28.4156 33.8161C28.4156 37.6631 26.5565 40.9848 24.1721 41.7393C24.4605 42.6431 24.7953 43.5263 25.1764 44.3863C28.6628 43.171 31.2455 38.894 31.2455 33.8161Z"/>
</mask>
<path d="M31.2455 33.8161C31.2455 28.7409 28.6628 24.4613 25.1764 23.2459C24.7953 24.106 24.4579 24.9892 24.1721 25.893C26.5565 26.6475 28.4156 29.9692 28.4156 33.8161C28.4156 37.6631 26.5565 40.9848 24.1721 41.7393C24.4605 42.6431 24.7953 43.5263 25.1764 44.3863C28.6628 43.171 31.2455 38.894 31.2455 33.8161Z" fill="#FF8A00"/>
<path d="M31.2455 33.8161C31.2455 28.7409 28.6628 24.4613 25.1764 23.2459C24.7953 24.106 24.4579 24.9892 24.1721 25.893C26.5565 26.6475 28.4156 29.9692 28.4156 33.8161C28.4156 37.6631 26.5565 40.9848 24.1721 41.7393C24.4605 42.6431 24.7953 43.5263 25.1764 44.3863C28.6628 43.171 31.2455 38.894 31.2455 33.8161Z" stroke="#1B1A1A" stroke-width="5" stroke-miterlimit="10" stroke-linecap="round" stroke-linejoin="round" mask="url(#path-9-outside-9)"/>
<mask id="path-10-outside-10" maskUnits="userSpaceOnUse" x="26.1875" y="41.7518" width="25" height="21" fill="black">
<rect fill="white" x="26.1875" y="41.7518" width="25" height="21"/>
<path d="M48.2654 55.7365C47.8868 53.2491 46.5092 50.6613 44.4879 48.6399C42.0159 46.168 38.9105 44.7518 35.9674 44.7518C33.9846 44.7518 32.2826 45.4058 31.044 46.6469C29.9857 47.7052 29.3549 49.1215 29.1875 50.7205C30.1583 51.8612 31.2243 52.9169 32.3727 53.8748C31.6878 51.8149 31.8603 49.8347 33.0448 48.6502C33.9254 47.7696 35.1202 47.5842 35.9648 47.5842C38.1303 47.5842 40.5662 48.7275 42.482 50.6433C44.0862 52.2475 45.1728 54.2611 45.4638 56.164C45.59 56.9879 45.6518 58.4273 44.8896 59.5758C45.8758 59.7354 46.8775 59.8384 47.8971 59.8822C48.3658 58.6642 48.4971 57.2532 48.2654 55.7365Z"/>
</mask>
<path d="M48.2654 55.7365C47.8868 53.2491 46.5092 50.6613 44.4879 48.6399C42.0159 46.168 38.9105 44.7518 35.9674 44.7518C33.9846 44.7518 32.2826 45.4058 31.044 46.6469C29.9857 47.7052 29.3549 49.1215 29.1875 50.7205C30.1583 51.8612 31.2243 52.9169 32.3727 53.8748C31.6878 51.8149 31.8603 49.8347 33.0448 48.6502C33.9254 47.7696 35.1202 47.5842 35.9648 47.5842C38.1303 47.5842 40.5662 48.7275 42.482 50.6433C44.0862 52.2475 45.1728 54.2611 45.4638 56.164C45.59 56.9879 45.6518 58.4273 44.8896 59.5758C45.8758 59.7354 46.8775 59.8384 47.8971 59.8822C48.3658 58.6642 48.4971 57.2532 48.2654 55.7365Z" fill="#FF8A00"/>
<path d="M48.2654 55.7365C47.8868 53.2491 46.5092 50.6613 44.4879 48.6399C42.0159 46.168 38.9105 44.7518 35.9674 44.7518C33.9846 44.7518 32.2826 45.4058 31.044 46.6469C29.9857 47.7052 29.3549 49.1215 29.1875 50.7205C30.1583 51.8612 31.2243 52.9169 32.3727 53.8748C31.6878 51.8149 31.8603 49.8347 33.0448 48.6502C33.9254 47.7696 35.1202 47.5842 35.9648 47.5842C38.1303 47.5842 40.5662 48.7275 42.482 50.6433C44.0862 52.2475 45.1728 54.2611 45.4638 56.164C45.59 56.9879 45.6518 58.4273 44.8896 59.5758C45.8758 59.7354 46.8775 59.8384 47.8971 59.8822C48.3658 58.6642 48.4971 57.2532 48.2654 55.7365Z" stroke="#1B1A1A" stroke-width="5" stroke-miterlimit="10" stroke-linecap="round" stroke-linejoin="round" mask="url(#path-10-outside-10)"/>
<mask id="path-11-outside-11" maskUnits="userSpaceOnUse" x="55.1519" y="39.1672" width="23" height="28" fill="black">
<rect fill="white" x="55.1519" y="39.1672" width="23" height="28"/>
<path d="M72.7519 50.7702C72.1236 49.7479 71.4206 48.8467 70.679 48.0536C69.322 46.5987 67.8363 45.5018 66.4406 44.683C64.2416 43.3929 62.0323 42.623 60.1706 42.1672C58.9295 43.3234 58.1519 44.9714 58.1519 46.797C58.1519 46.8665 58.1544 46.9335 58.157 47.0004C60.8298 47.5437 64.8545 48.911 67.5401 52.3306C68.1066 53.0516 68.6139 53.8678 69.0362 54.7845C69.8525 56.5535 70.352 58.7062 70.352 61.3301C70.352 62.7514 71.5056 63.905 72.927 63.905C74.3483 63.905 75.5019 62.7514 75.5019 61.3301C75.5045 56.8548 74.3767 53.4121 72.7519 50.7702Z"/>
</mask>
<path d="M72.7519 50.7702C72.1236 49.7479 71.4206 48.8467 70.679 48.0536C69.322 46.5987 67.8363 45.5018 66.4406 44.683C64.2416 43.3929 62.0323 42.623 60.1706 42.1672C58.9295 43.3234 58.1519 44.9714 58.1519 46.797C58.1519 46.8665 58.1544 46.9335 58.157 47.0004C60.8298 47.5437 64.8545 48.911 67.5401 52.3306C68.1066 53.0516 68.6139 53.8678 69.0362 54.7845C69.8525 56.5535 70.352 58.7062 70.352 61.3301C70.352 62.7514 71.5056 63.905 72.927 63.905C74.3483 63.905 75.5019 62.7514 75.5019 61.3301C75.5045 56.8548 74.3767 53.4121 72.7519 50.7702Z" fill="#FF8A00"/>
<path d="M72.7519 50.7702C72.1236 49.7479 71.4206 48.8467 70.679 48.0536C69.322 46.5987 67.8363 45.5018 66.4406 44.683C64.2416 43.3929 62.0323 42.623 60.1706 42.1672C58.9295 43.3234 58.1519 44.9714 58.1519 46.797C58.1519 46.8665 58.1544 46.9335 58.157 47.0004C60.8298 47.5437 64.8545 48.911 67.5401 52.3306C68.1066 53.0516 68.6139 53.8678 69.0362 54.7845C69.8525 56.5535 70.352 58.7062 70.352 61.3301C70.352 62.7514 71.5056 63.905 72.927 63.905C74.3483 63.905 75.5019 62.7514 75.5019 61.3301C75.5045 56.8548 74.3767 53.4121 72.7519 50.7702Z" stroke="#1B1A1A" stroke-width="5" mask="url(#path-11-outside-11)"/>
</svg>
