<svg width="104" height="104" viewBox="0 0 104 104" fill="none" xmlns="http://www.w3.org/2000/svg">
<path d="M97.2996 97.2996C99.8955 94.7036 81.7187 72.3178 56.7004 47.2996C31.6822 22.2813 9.29641 4.10447 6.70043 6.70045C4.10445 9.29642 22.2813 31.6822 47.2996 56.7004C72.3178 81.7187 94.7036 99.8956 97.2996 97.2996Z" fill="#FF8A00" stroke="#1B1A1A" stroke-width="2.5" stroke-miterlimit="10"/>
<path d="M6.70044 97.2996C4.10446 94.7036 22.2813 72.3178 47.2996 47.2996C72.3178 22.2813 94.7036 4.10447 97.2996 6.70045C99.8955 9.29642 81.7187 31.6822 56.7004 56.7004C31.6822 81.7187 9.29641 99.8956 6.70044 97.2996Z" fill="#FF8A00" stroke="#1B1A1A" stroke-width="2.5" stroke-miterlimit="10"/>
<path d="M52.5837 87.1766C72.5076 87.1766 88.6592 71.025 88.6592 51.1011C88.6592 31.1772 72.5076 15.0257 52.5837 15.0257C32.6598 15.0257 16.5083 31.1772 16.5083 51.1011C16.5083 71.025 32.6598 87.1766 52.5837 87.1766Z" fill="#FFDE00" stroke="#1B1A1A" stroke-width="2.5" stroke-miterlimit="10"/>
<path d="M52.5822 81.4573C69.3475 81.4573 82.9384 67.8664 82.9384 51.1011C82.9384 34.3359 69.3475 20.745 52.5822 20.745C35.817 20.745 22.2261 34.3359 22.2261 51.1011C22.2261 67.8664 35.817 81.4573 52.5822 81.4573Z" fill="#FF8A00" stroke="#1B1A1A" stroke-width="2.5" stroke-miterlimit="10"/>
<text transform="translate(24 38)" fill="#1B1A1A" xml:space="preserve" style="white-space: pre" font-family="Helvetica Neue" font-size="16" font-weight="bold" letter-spacing="0em"><tspan x="17.0938" y="10.064">My </tspan><tspan x="11.1719" y="28.064">Clan</tspan></text>
<path d="M53.0063 20.9538C52.5668 17.7673 52.0969 12.9087 56.6271 8.16317C63.107 1.37567 70.2505 4.58828 70.2505 4.58828C70.2505 4.58828 64.6984 7.97238 63.565 9.16197C60.8971 11.9555 61.454 21.1327 61.454 21.1327L53.0063 20.9538Z" fill="#FF8A00" stroke="#1B1A1A" stroke-width="2.5" stroke-miterlimit="10"/>
<path d="M51.131 20.9538C51.5704 17.7673 52.0403 12.9087 47.5101 8.16317C41.0302 1.37567 33.8867 4.58828 33.8867 4.58828C33.8867 4.58828 39.4388 7.97238 40.5722 9.16197C43.2401 11.9555 42.6832 21.1327 42.6832 21.1327L51.131 20.9538Z" fill="#FF8A00" stroke="#1B1A1A" stroke-width="2.5" stroke-miterlimit="10"/>
<path d="M22.4036 49.6817C19.2171 50.1212 14.3584 50.5911 9.61294 46.0609C2.82544 39.5809 6.03805 32.4375 6.03805 32.4375C6.03805 32.4375 9.42215 37.9896 10.6117 39.123C13.4053 41.7909 22.5825 41.234 22.5825 41.234L22.4036 49.6817Z" fill="#FF8A00" stroke="#1B1A1A" stroke-width="2.5" stroke-miterlimit="10"/>
<path d="M22.4036 51.5571C19.2171 51.1176 14.3584 50.6477 9.61294 55.178C2.82544 61.6579 6.03805 68.8014 6.03805 68.8014C6.03805 68.8014 9.42215 63.2493 10.6117 62.1158C13.4053 59.4479 22.5825 60.0048 22.5825 60.0048L22.4036 51.5571Z" fill="#FF8A00" stroke="#1B1A1A" stroke-width="2.5" stroke-miterlimit="10"/>
<path d="M50.4063 81.4697C50.8458 84.6562 51.3157 89.5149 46.7855 94.2604C40.3056 101.048 33.1621 97.8352 33.1621 97.8352C33.1621 97.8352 38.7142 94.4511 39.8476 93.2616C42.5155 90.468 41.9586 81.2908 41.9586 81.2908L50.4063 81.4697Z" fill="#FF8A00" stroke="#1B1A1A" stroke-width="2.5" stroke-miterlimit="10"/>
<path d="M52.2816 81.4697C51.8422 84.6562 51.3723 89.5149 55.9025 94.2604C62.3824 101.048 69.5259 97.8352 69.5259 97.8352C69.5259 97.8352 63.9738 94.4511 62.8403 93.2616C60.1725 90.468 60.7294 81.2908 60.7294 81.2908L52.2816 81.4697Z" fill="#FF8A00" stroke="#1B1A1A" stroke-width="2.5" stroke-miterlimit="10"/>
<path d="M82.1936 52.2817C85.3801 51.8422 90.2387 51.3723 94.9842 55.9026C101.772 62.3825 98.5591 69.526 98.5591 69.526C98.5591 69.526 95.175 63.9739 93.9854 62.8404C91.1919 60.1725 82.0147 60.7295 82.0147 60.7295L82.1936 52.2817Z" fill="#FF8A00" stroke="#1B1A1A" stroke-width="2.5" stroke-miterlimit="10"/>
<path d="M82.1936 50.4064C85.3801 50.8459 90.2387 51.3158 94.9842 46.7855C101.772 40.3056 98.5591 33.1621 98.5591 33.1621C98.5591 33.1621 95.175 38.7142 93.9854 39.8477C91.1919 42.5156 82.0147 41.9587 82.0147 41.9587L82.1936 50.4064Z" fill="#FF8A00" stroke="#1B1A1A" stroke-width="2.5" stroke-miterlimit="10"/>
<circle cx="51.6376" cy="20.4783" r="9.25725" fill="#FFDE00" stroke="#1B1A1A" stroke-width="2.5"/>
<circle cx="22.6523" cy="50.1884" r="9.25725" transform="rotate(-90 22.6523 50.1884)" fill="#FFDE00" stroke="#1B1A1A" stroke-width="2.5"/>
<circle cx="82.797" cy="50.1884" r="9.25725" transform="rotate(-90 82.797 50.1884)" fill="#FFDE00" stroke="#1B1A1A" stroke-width="2.5"/>
<circle cx="51.6376" cy="79.1739" r="9.25725" fill="#FFDE00" stroke="#1B1A1A" stroke-width="2.5"/>
</svg>
