<?xml version="1.0" encoding="utf-8"?>
<!-- Generator: Adobe Illustrator 24.1.3, SVG Export Plug-In . SVG Version: 6.00 Build 0)  -->
<svg version="1.1" id="Layer_1" xmlns="http://www.w3.org/2000/svg" xmlns:xlink="http://www.w3.org/1999/xlink" x="0px" y="0px"
	 viewBox="0 0 104 104" style="enable-background:new 0 0 104 104;" xml:space="preserve">
<style type="text/css">
	.st0{fill:#FF8A00;stroke:#1B1A1A;stroke-width:2.5;stroke-miterlimit:10;}
	.st1{fill:#FFDE00;stroke:#1B1A1A;stroke-width:2.5;stroke-miterlimit:10;}
	.st2{fill:#1B1A1A;}
	.st3{fill:#FFDE00;stroke:#1B1A1A;stroke-width:2.5;}
</style>
<path class="st0" d="M97.3,97.3c2.6-2.6-15.6-25-40.6-50c-25-25-47.4-43.2-50-40.6c-2.6,2.6,15.6,25,40.6,50
	C72.3,81.7,94.7,99.9,97.3,97.3z"/>
<path class="st0" d="M6.7,97.3c-2.6-2.6,15.6-25,40.6-50c25-25,47.4-43.2,50-40.6c2.6,2.6-15.6,25-40.6,50
	C31.7,81.7,9.3,99.9,6.7,97.3z"/>
<path class="st1" d="M52.6,87.2c19.9,0,36.1-16.2,36.1-36.1S72.5,15,52.6,15S16.5,31.2,16.5,51.1S32.7,87.2,52.6,87.2z"/>
<path class="st0" d="M52.6,81.5c16.8,0,30.4-13.6,30.4-30.4c0-16.8-13.6-30.4-30.4-30.4c-16.8,0-30.4,13.6-30.4,30.4
	C22.2,67.9,35.8,81.5,52.6,81.5z"/>
<path class="st2" d="M42.2,34.6V46h2.4v-8h0l2.8,8h1.9l2.8-8.1h0V46h2.4V34.6H51l-2.5,7.9h0l-2.7-7.9H42.2z M60.6,47l3.5-9.3h-2.4
	l-1.8,5.7h0l-1.9-5.7h-2.4l2.9,7.8c0.1,0.2,0.1,0.3,0.1,0.5c0,0.2-0.1,0.5-0.2,0.7c-0.1,0.2-0.4,0.3-0.7,0.4c-0.2,0-0.4,0-0.7,0
	c-0.2,0-0.4,0-0.7-0.1v1.9c0.2,0,0.5,0,0.7,0c0.2,0,0.5,0,0.7,0c0.8,0,1.4-0.1,1.8-0.4C60,48.2,60.3,47.7,60.6,47z M43.9,56.4h2.4
	c-0.1-0.7-0.3-1.2-0.5-1.8c-0.3-0.5-0.7-0.9-1.1-1.3c-0.4-0.4-0.9-0.6-1.5-0.8c-0.6-0.2-1.1-0.3-1.8-0.3c-0.9,0-1.7,0.2-2.4,0.5
	c-0.7,0.3-1.3,0.7-1.8,1.3s-0.8,1.2-1.1,1.9c-0.3,0.7-0.4,1.5-0.4,2.4c0,0.8,0.1,1.6,0.4,2.3c0.3,0.7,0.6,1.3,1.1,1.9s1.1,1,1.8,1.3
	c0.7,0.3,1.5,0.4,2.4,0.4c0.7,0,1.3-0.1,1.9-0.3c0.6-0.2,1.1-0.5,1.5-0.9c0.4-0.4,0.8-0.9,1.1-1.5c0.3-0.6,0.4-1.2,0.5-1.9H44
	c-0.1,0.8-0.4,1.4-0.8,1.9c-0.4,0.5-1,0.7-1.8,0.7c-0.6,0-1-0.1-1.4-0.3c-0.4-0.2-0.7-0.5-1-0.9c-0.2-0.4-0.4-0.8-0.5-1.2
	c-0.1-0.5-0.2-0.9-0.2-1.4c0-0.5,0.1-1,0.2-1.5c0.1-0.5,0.3-0.9,0.5-1.2c0.2-0.4,0.6-0.7,1-0.9c0.4-0.2,0.9-0.3,1.4-0.3
	c0.3,0,0.6,0.1,0.9,0.2c0.3,0.1,0.5,0.2,0.8,0.4s0.4,0.4,0.6,0.6C43.8,55.9,43.8,56.1,43.9,56.4z M48,52.6V64h2.3V52.6H48z
	 M51.9,58.3c0-0.5,0.2-1,0.4-1.3c0.2-0.4,0.5-0.6,0.9-0.8c0.4-0.2,0.8-0.4,1.2-0.4c0.5-0.1,0.9-0.1,1.4-0.1c0.4,0,0.8,0,1.3,0.1
	c0.4,0.1,0.8,0.2,1.2,0.3c0.4,0.2,0.6,0.4,0.9,0.7c0.2,0.3,0.3,0.7,0.3,1.2v4.3c0,0.4,0,0.7,0.1,1.1c0,0.3,0.1,0.6,0.2,0.8h-2.3
	c0-0.1-0.1-0.3-0.1-0.4c0-0.1,0-0.3,0-0.4c-0.4,0.4-0.8,0.6-1.3,0.8c-0.5,0.1-1,0.2-1.5,0.2c-0.4,0-0.8,0-1.1-0.1
	c-0.3-0.1-0.6-0.2-0.9-0.4c-0.3-0.2-0.5-0.5-0.6-0.8c-0.1-0.3-0.2-0.7-0.2-1.1c0-0.5,0.1-0.9,0.2-1.2c0.2-0.3,0.4-0.6,0.6-0.7
	c0.3-0.2,0.6-0.3,0.9-0.4c0.3-0.1,0.7-0.2,1-0.2c0.3-0.1,0.7-0.1,1-0.1c0.3,0,0.6-0.1,0.9-0.1s0.5-0.2,0.6-0.3
	c0.1-0.1,0.2-0.3,0.2-0.5c0-0.2,0-0.4-0.1-0.6c-0.1-0.1-0.2-0.3-0.3-0.3c-0.1-0.1-0.3-0.1-0.5-0.2c-0.2,0-0.4,0-0.6,0
	c-0.4,0-0.8,0.1-1.1,0.3c-0.3,0.2-0.4,0.5-0.4,1H51.9z M57.2,60c-0.1,0.1-0.2,0.2-0.4,0.2c-0.1,0-0.3,0.1-0.5,0.1
	c-0.2,0-0.3,0.1-0.5,0.1c-0.2,0-0.4,0-0.5,0.1c-0.2,0-0.3,0.1-0.5,0.1c-0.2,0.1-0.3,0.1-0.4,0.2c-0.1,0.1-0.2,0.2-0.3,0.3
	c-0.1,0.1-0.1,0.3-0.1,0.5c0,0.2,0,0.4,0.1,0.5c0.1,0.1,0.2,0.3,0.3,0.3c0.1,0.1,0.3,0.1,0.4,0.2c0.2,0,0.3,0,0.5,0
	c0.4,0,0.8-0.1,1-0.2c0.2-0.1,0.4-0.3,0.5-0.5c0.1-0.2,0.2-0.4,0.2-0.6c0-0.2,0-0.4,0-0.5V60z M61.2,55.7V64h2.3v-4.3
	c0-0.8,0.1-1.4,0.4-1.8c0.3-0.4,0.7-0.6,1.3-0.6c0.5,0,0.9,0.2,1.1,0.5c0.2,0.3,0.3,0.8,0.3,1.5V64H69v-5.1c0-0.5,0-1-0.1-1.4
	c-0.1-0.4-0.2-0.8-0.5-1.1c-0.2-0.3-0.5-0.5-0.9-0.7c-0.4-0.2-0.9-0.3-1.5-0.3c-0.5,0-0.9,0.1-1.4,0.3c-0.5,0.2-0.8,0.6-1.1,1h0
	v-1.2H61.2z"/>
<path class="st0" d="M53,21c-0.4-3.2-0.9-8,3.6-12.8c6.5-6.8,13.6-3.6,13.6-3.6S64.7,8,63.6,9.2c-2.7,2.8-2.1,12-2.1,12L53,21z"/>
<path class="st0" d="M51.1,21c0.4-3.2,0.9-8-3.6-12.8C41,1.4,33.9,4.6,33.9,4.6s5.6,3.4,6.7,4.6c2.7,2.8,2.1,12,2.1,12L51.1,21z"/>
<path class="st0" d="M22.4,49.7c-3.2,0.4-8,0.9-12.8-3.6C2.8,39.6,6,32.4,6,32.4s3.4,5.6,4.6,6.7c2.8,2.7,12,2.1,12,2.1L22.4,49.7z"
	/>
<path class="st0" d="M22.4,51.6c-3.2-0.4-8-0.9-12.8,3.6C2.8,61.7,6,68.8,6,68.8s3.4-5.6,4.6-6.7c2.8-2.7,12-2.1,12-2.1L22.4,51.6z"
	/>
<path class="st0" d="M50.4,81.5c0.4,3.2,0.9,8-3.6,12.8c-6.5,6.8-13.6,3.6-13.6,3.6s5.6-3.4,6.7-4.6c2.7-2.8,2.1-12,2.1-12
	L50.4,81.5z"/>
<path class="st0" d="M52.3,81.5c-0.4,3.2-0.9,8,3.6,12.8c6.5,6.8,13.6,3.6,13.6,3.6s-5.6-3.4-6.7-4.6c-2.7-2.8-2.1-12-2.1-12
	L52.3,81.5z"/>
<path class="st0" d="M82.2,52.3c3.2-0.4,8-0.9,12.8,3.6c6.8,6.5,3.6,13.6,3.6,13.6S95.2,64,94,62.8c-2.8-2.7-12-2.1-12-2.1
	L82.2,52.3z"/>
<path class="st0" d="M82.2,50.4c3.2,0.4,8,0.9,12.8-3.6c6.8-6.5,3.6-13.6,3.6-13.6s-3.4,5.6-4.6,6.7C91.2,42.5,82,42,82,42
	L82.2,50.4z"/>
<circle class="st3" cx="51.6" cy="20.5" r="9.3"/>
<circle class="st3" cx="22.7" cy="50.2" r="9.3"/>
<circle class="st3" cx="82.8" cy="50.2" r="9.3"/>
<circle class="st3" cx="51.6" cy="79.2" r="9.3"/>
</svg>
