<svg width="104" height="104" viewBox="0 0 104 104" fill="none" xmlns="http://www.w3.org/2000/svg">
<path d="M97.2996 97.2996C99.8955 94.7036 81.7187 72.3178 56.7004 47.2996C31.6822 22.2813 9.29641 4.10447 6.70043 6.70045C4.10445 9.29642 22.2813 31.6822 47.2996 56.7004C72.3178 81.7187 94.7036 99.8956 97.2996 97.2996Z" fill="#FF8A00" stroke="#1B1A1A" stroke-width="2.5" stroke-miterlimit="10"/>
<path d="M6.70044 97.2996C4.10446 94.7036 22.2813 72.3178 47.2996 47.2996C72.3178 22.2813 94.7036 4.10447 97.2996 6.70045C99.8955 9.29642 81.7187 31.6822 56.7004 56.7004C31.6822 81.7187 9.29641 99.8956 6.70044 97.2996Z" fill="#FF8A00" stroke="#1B1A1A" stroke-width="2.5" stroke-miterlimit="10"/>
<path d="M52.5842 87.1766C72.5081 87.1766 88.6597 71.025 88.6597 51.1011C88.6597 31.1772 72.5081 15.0257 52.5842 15.0257C32.6603 15.0257 16.5088 31.1772 16.5088 51.1011C16.5088 71.025 32.6603 87.1766 52.5842 87.1766Z" fill="#FFDE00" stroke="#1B1A1A" stroke-width="2.5" stroke-miterlimit="10"/>
<path d="M52.5827 81.4573C69.348 81.4573 82.9389 67.8664 82.9389 51.1011C82.9389 34.3359 69.348 20.745 52.5827 20.745C35.8175 20.745 22.2266 34.3359 22.2266 51.1011C22.2266 67.8664 35.8175 81.4573 52.5827 81.4573Z" fill="#FF8A00" stroke="#1B1A1A" stroke-width="2.5" stroke-miterlimit="10"/>
<path d="M42.1978 36.576V48H44.5498V39.984H44.5818L47.3818 48H49.3177L52.1178 39.904H52.1498V48H54.5018V36.576H50.9658L48.4378 44.432H48.4058L45.7338 36.576H42.1978ZM60.5534 49.024L64.0094 39.728H61.6574L59.8494 45.392H59.8174L57.9454 39.728H55.5294L58.4254 47.488C58.4894 47.648 58.5214 47.8187 58.5214 48C58.5214 48.2453 58.4467 48.4693 58.2974 48.672C58.1587 48.8747 57.94 48.992 57.6414 49.024C57.4174 49.0347 57.1934 49.0293 56.9694 49.008C56.7454 48.9867 56.5267 48.9653 56.3134 48.944V50.816C56.548 50.8373 56.7774 50.8533 57.0014 50.864C57.236 50.8853 57.4707 50.896 57.7054 50.896C58.484 50.896 59.092 50.752 59.5294 50.464C59.9667 50.176 60.308 49.696 60.5534 49.024ZM43.8919 58.416H46.3239C46.2492 57.7547 46.0679 57.168 45.7799 56.656C45.4919 56.144 45.1239 55.7173 44.6759 55.376C44.2385 55.024 43.7372 54.7573 43.1719 54.576C42.6172 54.3947 42.0252 54.304 41.3959 54.304C40.5212 54.304 39.7319 54.4587 39.0279 54.768C38.3345 55.0773 37.7479 55.504 37.2679 56.048C36.7879 56.592 36.4199 57.232 36.1639 57.968C35.9079 58.6933 35.7799 59.4827 35.7799 60.336C35.7799 61.168 35.9079 61.9467 36.1639 62.672C36.4199 63.3867 36.7879 64.0107 37.2679 64.544C37.7479 65.0773 38.3345 65.4987 39.0279 65.808C39.7319 66.1067 40.5212 66.256 41.3959 66.256C42.0999 66.256 42.7452 66.1493 43.3319 65.936C43.9185 65.7227 44.4305 65.4133 44.8679 65.008C45.3052 64.6027 45.6572 64.112 45.9239 63.536C46.1905 62.96 46.3559 62.3147 46.4199 61.6H43.9879C43.8919 62.368 43.6252 62.9867 43.1879 63.456C42.7612 63.9253 42.1639 64.16 41.3959 64.16C40.8305 64.16 40.3505 64.0533 39.9559 63.84C39.5612 63.616 39.2412 63.3227 38.9959 62.96C38.7505 62.5973 38.5692 62.192 38.4519 61.744C38.3452 61.2853 38.2919 60.816 38.2919 60.336C38.2919 59.8347 38.3452 59.3493 38.4519 58.88C38.5692 58.4107 38.7505 57.9947 38.9959 57.632C39.2412 57.2587 39.5612 56.9653 39.9559 56.752C40.3505 56.528 40.8305 56.416 41.3959 56.416C41.7052 56.416 41.9985 56.4693 42.2759 56.576C42.5639 56.672 42.8199 56.8107 43.0439 56.992C43.2679 57.1733 43.4545 57.3867 43.6039 57.632C43.7532 57.8667 43.8492 58.128 43.8919 58.416ZM47.9593 54.576V66H50.2313V54.576H47.9593ZM51.9243 60.272C51.9563 59.7387 52.0896 59.296 52.3243 58.944C52.5589 58.592 52.8576 58.3093 53.2203 58.096C53.5829 57.8827 53.9883 57.7333 54.4363 57.648C54.8949 57.552 55.3536 57.504 55.8123 57.504C56.2283 57.504 56.6496 57.536 57.0763 57.6C57.5029 57.6533 57.8923 57.7653 58.2443 57.936C58.5963 58.1067 58.8843 58.3467 59.1083 58.656C59.3323 58.9547 59.4443 59.3547 59.4443 59.856L59.4443 64.16C59.4443 64.5333 59.4656 64.8907 59.5083 65.232C59.5509 65.5733 59.6256 65.8293 59.7323 66H57.4283C57.3856 65.872 57.3483 65.744 57.3163 65.616C57.2949 65.4773 57.2789 65.3387 57.2683 65.2C56.9056 65.5733 56.4789 65.8347 55.9883 65.984C55.4976 66.1333 54.9963 66.208 54.4843 66.208C54.0896 66.208 53.7216 66.16 53.3803 66.064C53.0389 65.968 52.7403 65.8187 52.4843 65.616C52.2283 65.4133 52.0256 65.1573 51.8763 64.848C51.7376 64.5387 51.6683 64.1707 51.6683 63.744C51.6683 63.2747 51.7483 62.8907 51.9083 62.592C52.0789 62.2827 52.2923 62.0373 52.5483 61.856C52.8149 61.6747 53.1136 61.5413 53.4443 61.456C53.7856 61.36 54.1269 61.2853 54.4683 61.232C54.8096 61.1787 55.1456 61.136 55.4763 61.104C55.8069 61.072 56.1003 61.024 56.3563 60.96C56.6123 60.896 56.8149 60.8053 56.9643 60.688C57.1136 60.56 57.1829 60.3787 57.1723 60.144C57.1723 59.8987 57.1296 59.7067 57.0443 59.568C56.9696 59.4187 56.8629 59.3067 56.7243 59.232C56.5963 59.1467 56.4416 59.0933 56.2603 59.072C56.0896 59.04 55.9029 59.024 55.7003 59.024C55.2523 59.024 54.9003 59.12 54.6443 59.312C54.3883 59.504 54.2389 59.824 54.1963 60.272H51.9243ZM57.1723 61.952C57.0763 62.0373 56.9536 62.1067 56.8043 62.16C56.6656 62.2027 56.5109 62.24 56.3403 62.272C56.1803 62.304 56.0096 62.3307 55.8283 62.352C55.6469 62.3733 55.4656 62.4 55.2843 62.432C55.1136 62.464 54.9429 62.5067 54.7723 62.56C54.6123 62.6133 54.4683 62.688 54.3403 62.784C54.2229 62.8693 54.1269 62.9813 54.0523 63.12C53.9776 63.2587 53.9403 63.4347 53.9403 63.648C53.9403 63.8507 53.9776 64.0213 54.0523 64.16C54.1269 64.2987 54.2283 64.4107 54.3563 64.496C54.4843 64.5707 54.6336 64.624 54.8043 64.656C54.9749 64.688 55.1509 64.704 55.3323 64.704C55.7803 64.704 56.1269 64.6293 56.3723 64.48C56.6176 64.3307 56.7989 64.1547 56.9163 63.952C57.0336 63.7387 57.1029 63.5253 57.1243 63.312C57.1563 63.0987 57.1723 62.928 57.1723 62.8L57.1723 61.952ZM61.2078 57.728L61.2078 66H63.4798L63.4798 61.664C63.4798 60.8213 63.6184 60.2187 63.8958 59.856C64.1731 59.4827 64.6211 59.296 65.2398 59.296C65.7838 59.296 66.1624 59.4667 66.3758 59.808C66.5891 60.1387 66.6958 60.6453 66.6958 61.328V66H68.9678V60.912C68.9678 60.4 68.9198 59.936 68.8238 59.52C68.7384 59.0933 68.5838 58.736 68.3598 58.448C68.1358 58.1493 67.8264 57.92 67.4318 57.76C67.0478 57.5893 66.5518 57.504 65.9438 57.504C65.4638 57.504 64.9944 57.616 64.5358 57.84C64.0771 58.0533 63.7038 58.4 63.4158 58.88H63.3678V57.728H61.2078Z" fill="#1B1A1A"/>
<path d="M53.006 20.9538C52.5665 17.7673 52.0967 12.9087 56.6269 8.16317C63.1068 1.37567 70.2503 4.58828 70.2503 4.58828C70.2503 4.58828 64.6982 7.97238 63.5647 9.16197C60.8968 11.9555 61.4538 21.1327 61.4538 21.1327L53.006 20.9538Z" fill="#FF8A00" stroke="#1B1A1A" stroke-width="2.5" stroke-miterlimit="10"/>
<path d="M51.1307 20.9538C51.5702 17.7673 52.0401 12.9087 47.5098 8.16317C41.0299 1.37567 33.8864 4.58828 33.8864 4.58828C33.8864 4.58828 39.4385 7.97238 40.572 9.16197C43.2399 11.9555 42.683 21.1327 42.683 21.1327L51.1307 20.9538Z" fill="#FF8A00" stroke="#1B1A1A" stroke-width="2.5" stroke-miterlimit="10"/>
<path d="M22.4031 49.6817C19.2166 50.1212 14.3579 50.5911 9.61245 46.0609C2.82495 39.5809 6.03756 32.4375 6.03756 32.4375C6.03756 32.4375 9.42166 37.9896 10.6112 39.123C13.4048 41.7909 22.582 41.234 22.582 41.234L22.4031 49.6817Z" fill="#FF8A00" stroke="#1B1A1A" stroke-width="2.5" stroke-miterlimit="10"/>
<path d="M22.4031 51.5571C19.2166 51.1176 14.3579 50.6477 9.61245 55.178C2.82495 61.6579 6.03756 68.8014 6.03756 68.8014C6.03756 68.8014 9.42166 63.2493 10.6112 62.1158C13.4048 59.4479 22.582 60.0048 22.582 60.0048L22.4031 51.5571Z" fill="#FF8A00" stroke="#1B1A1A" stroke-width="2.5" stroke-miterlimit="10"/>
<path d="M50.4061 81.4697C50.8456 84.6562 51.3155 89.5149 46.7852 94.2604C40.3053 101.048 33.1618 97.8352 33.1618 97.8352C33.1618 97.8352 38.7139 94.4511 39.8474 93.2616C42.5153 90.468 41.9584 81.2908 41.9584 81.2908L50.4061 81.4697Z" fill="#FF8A00" stroke="#1B1A1A" stroke-width="2.5" stroke-miterlimit="10"/>
<path d="M52.2814 81.4697C51.8419 84.6562 51.372 89.5149 55.9023 94.2604C62.3822 101.048 69.5257 97.8352 69.5257 97.8352C69.5257 97.8352 63.9736 94.4511 62.8401 93.2616C60.1722 90.468 60.7291 81.2908 60.7291 81.2908L52.2814 81.4697Z" fill="#FF8A00" stroke="#1B1A1A" stroke-width="2.5" stroke-miterlimit="10"/>
<path d="M82.1936 52.2817C85.3801 51.8422 90.2387 51.3723 94.9842 55.9026C101.772 62.3825 98.5591 69.526 98.5591 69.526C98.5591 69.526 95.175 63.9739 93.9854 62.8404C91.1919 60.1725 82.0147 60.7295 82.0147 60.7295L82.1936 52.2817Z" fill="#FF8A00" stroke="#1B1A1A" stroke-width="2.5" stroke-miterlimit="10"/>
<path d="M82.1936 50.4064C85.3801 50.8459 90.2387 51.3158 94.9842 46.7855C101.772 40.3056 98.5591 33.1621 98.5591 33.1621C98.5591 33.1621 95.175 38.7142 93.9854 39.8477C91.1919 42.5156 82.0147 41.9587 82.0147 41.9587L82.1936 50.4064Z" fill="#FF8A00" stroke="#1B1A1A" stroke-width="2.5" stroke-miterlimit="10"/>
<circle cx="51.6381" cy="20.4783" r="9.25725" fill="#FFDE00" stroke="#1B1A1A" stroke-width="2.5"/>
<circle cx="22.6518" cy="50.1884" r="9.25725" transform="rotate(-90 22.6518 50.1884)" fill="#FFDE00" stroke="#1B1A1A" stroke-width="2.5"/>
<circle cx="82.7973" cy="50.1884" r="9.25725" transform="rotate(-90 82.7973 50.1884)" fill="#FFDE00" stroke="#1B1A1A" stroke-width="2.5"/>
<circle cx="51.6381" cy="79.1739" r="9.25725" fill="#FFDE00" stroke="#1B1A1A" stroke-width="2.5"/>
</svg>
