<?xml version="1.0" encoding="utf-8"?>
<!-- Generator: Adobe Illustrator 24.1.3, SVG Export Plug-In . SVG Version: 6.00 Build 0)  -->
<svg version="1.1" id="Layer_1" xmlns="http://www.w3.org/2000/svg" xmlns:xlink="http://www.w3.org/1999/xlink" x="0px" y="0px"
	 viewBox="0 0 108.4 107.7" style="enable-background:new 0 0 108.4 107.7;" xml:space="preserve">
<style type="text/css">
	.st0{fill:#FF8A00;stroke:#1B1A1A;stroke-width:3;stroke-miterlimit:10;}
	.st1{fill:#FFDE00;stroke:#1B1A1A;stroke-width:3;stroke-miterlimit:10;}
	.st2{fill:#FF8A00;stroke:#1B1A1A;stroke-width:3;}
	.st3{fill:#1B1A1A;}
</style>
<path class="st0" d="M71.3,54c-14.5-5.1-22.1-21-17-35.5s21.1-22,35.6-16.9s22.1,21,17,35.5S85.8,59.2,71.3,54z"/>
<path class="st0" d="M20.6,69.1C8.8,64.9,2.6,52,6.8,40.2C11,28.5,24,22.3,35.8,26.5s18,17.1,13.8,28.9
	C45.4,67.2,32.4,73.3,20.6,69.1z"/>
<path class="st0" d="M28.4,107.1c-5-1.8-7.7-7.3-5.9-12.3c1.8-5,7.3-7.7,12.4-5.9c5,1.8,7.7,7.3,5.9,12.3
	C39,106.2,33.5,108.9,28.4,107.1z"/>
<path class="st0" d="M6.5,24.2c-5-1.8-7.7-7.3-5.9-12.3S7.9,4.2,13,6c5,1.8,7.7,7.3,5.9,12.3C17.1,23.4,11.6,26,6.5,24.2z"/>
<path class="st0" d="M56.9,37.7c-8.7-3.1-13.2-12.6-10.1-21.2S59.4,3.4,68,6.4C76.7,9.5,81.2,19,78.1,27.6
	C75,36.3,65.5,40.8,56.9,37.7z"/>
<path class="st0" d="M13.1,94.6c-6.6-2.3-10-9.5-7.7-16.1s9.5-10,16.1-7.7s10,9.5,7.7,16.1C26.9,93.5,19.7,96.9,13.1,94.6z"/>
<path class="st0" d="M52.1,97.7C43.4,94.6,38.9,85.1,42,76.5s12.6-13.1,21.2-10.1c8.7,3.1,13.2,12.6,10.1,21.2
	C70.3,96.2,60.8,100.8,52.1,97.7z"/>
<path class="st0" d="M86.1,65.5c8.7,3.1,13.2,12.6,10.1,21.2C93.1,95.3,83.6,99.8,75,96.8c-8.7-3.1-13.2-12.6-10.1-21.2
	C67.9,66.9,77.4,62.4,86.1,65.5z"/>
<path class="st1" d="M54.1,15.2c20.2,0,36.7,16.4,36.7,36.7c0,20.2-16.4,36.7-36.7,36.7c-20.2,0-36.7-16.4-36.7-36.7
	S33.8,15.2,54.1,15.2z"/>
<path class="st0" d="M90.8,28.3c8.7,3.1,13.2,12.6,10.1,21.2c-3.1,8.6-12.6,13.2-21.2,10.1S66.5,47,69.6,38.4
	C72.7,29.8,82.2,25.3,90.8,28.3z"/>
<path class="st0" d="M17,75.6c-5-1.8-7.7-7.3-5.9-12.3s7.3-7.7,12.4-5.9s7.7,7.3,5.9,12.3C27.6,74.8,22,77.4,17,75.6z"/>
<circle class="st2" cx="54.1" cy="51.9" r="25.3"/>
<path class="st3" d="M56.2,54v9.6c0,0.9-0.7,1.6-1.6,1.6S53,64.5,53,63.6V54h-9.6c-0.9,0-1.6-0.7-1.6-1.6s0.7-1.6,1.6-1.6H53v-9.6
	c0-0.9,0.7-1.6,1.6-1.6s1.6,0.7,1.6,1.6v9.6h9.6c0.9,0,1.6,0.7,1.6,1.6S66.7,54,65.8,54H56.2z"/>
</svg>
