<svg width="205" height="241" viewBox="0 0 205 241" fill="none" xmlns="http://www.w3.org/2000/svg">
<path d="M176.562 148.731C168.663 148.731 162.26 142.34 162.26 134.457C162.26 126.573 168.663 120.182 176.562 120.182C184.46 120.182 190.863 126.573 190.863 134.457C190.863 142.34 184.46 148.731 176.562 148.731Z" fill="#FFFBF1" stroke="#E5E3E3" stroke-width="3" stroke-miterlimit="10"/>
<path d="M185.015 131.887C177.116 131.887 170.713 125.496 170.713 117.612C170.713 109.728 177.116 103.337 185.015 103.337C192.913 103.337 199.316 109.728 199.316 117.612C199.316 125.496 192.913 131.887 185.015 131.887Z" fill="#FFFBF1" stroke="#E5E3E3" stroke-width="3" stroke-miterlimit="10"/>
<path d="M136.582 203.802C125.823 203.802 117.101 195.097 117.101 184.358C117.101 173.619 125.823 164.914 136.582 164.914C147.341 164.914 156.062 173.619 156.062 184.358C156.062 195.097 147.341 203.802 136.582 203.802Z" fill="#FFFBF1" stroke="#E5E3E3" stroke-width="3" stroke-miterlimit="10"/>
<path d="M157.23 199.469C138.533 199.469 123.377 184.34 123.377 165.679C123.377 147.017 138.533 131.889 157.23 131.889C175.926 131.889 191.083 147.017 191.083 165.679C191.083 184.34 175.926 199.469 157.23 199.469Z" fill="#FFFBF1" stroke="#E5E3E3" stroke-width="3" stroke-miterlimit="10"/>
<path d="M112.613 208.283C99.3753 208.283 88.6441 197.572 88.6441 184.359C88.6441 171.146 99.3753 160.435 112.613 160.435C125.85 160.435 136.582 171.146 136.582 184.359C136.582 197.572 125.85 208.283 112.613 208.283Z" fill="#FFFBF1" stroke="#E5E3E3" stroke-width="3" stroke-miterlimit="10"/>
<path d="M154.751 150.82C140.97 150.82 129.799 139.67 129.799 125.915C129.799 112.16 140.97 101.01 154.751 101.01C168.531 101.01 179.703 112.16 179.703 125.915C179.703 139.67 168.531 150.82 154.751 150.82Z" fill="#FFFBF1" stroke="#E5E3E3" stroke-width="3" stroke-miterlimit="10"/>
<path d="M22.8729 156.795C11.3451 156.795 1.99997 147.467 1.99997 135.961C1.99997 124.454 11.3451 115.127 22.8729 115.127C34.4007 115.127 43.7458 124.454 43.7458 135.961C43.7458 147.467 34.4007 156.795 22.8729 156.795Z" fill="#FFFBF1" stroke="#E5E3E3" stroke-width="3" stroke-miterlimit="10"/>
<path d="M89.7401 227.725C78.9813 227.725 70.2595 219.02 70.2595 208.281C70.2595 197.542 78.9813 188.837 89.7401 188.837C100.499 188.837 109.221 197.542 109.221 208.281C109.221 219.02 100.499 227.725 89.7401 227.725Z" fill="#FFFBF1" stroke="#E5E3E3" stroke-width="3" stroke-miterlimit="10"/>
<path d="M141.758 238.871C133.86 238.871 127.457 232.48 127.457 224.596C127.457 216.712 133.86 210.321 141.758 210.321C149.657 210.321 156.06 216.712 156.06 224.596C156.06 232.48 149.657 238.871 141.758 238.871Z" fill="#FFFBF1" stroke="#E5E3E3" stroke-width="3" stroke-miterlimit="10"/>
<path d="M22.6711 189.366C18.071 189.366 14.3419 185.644 14.3419 181.052C14.342 176.461 18.071 172.739 22.6711 172.739C27.2712 172.739 31.0002 176.461 31.0002 181.052C31.0002 185.644 27.2712 189.366 22.6711 189.366Z" fill="#FFFBF1" stroke="#E5E3E3" stroke-width="3" stroke-miterlimit="10"/>
<path d="M54.5949 229.5C49.9949 229.5 46.2658 225.777 46.2658 221.186C46.2658 216.594 49.9949 212.872 54.5949 212.872C59.195 212.872 62.9241 216.594 62.9241 221.186C62.9241 225.777 59.195 229.5 54.5949 229.5Z" fill="#FFFBF1" stroke="#E5E3E3" stroke-width="3" stroke-miterlimit="10"/>
<path d="M35.3093 171.07C27.4108 171.07 21.0078 164.679 21.0078 156.795C21.0078 148.911 27.4108 142.52 35.3093 142.52C43.2078 142.52 49.6108 148.911 49.6108 156.795C49.6108 164.679 43.2078 171.07 35.3093 171.07Z" fill="#FFFBF1" stroke="#E5E3E3" stroke-width="3" stroke-miterlimit="10"/>
<path d="M43.7479 210.321C37.7436 210.321 32.8762 205.462 32.8762 199.469C32.8762 193.476 37.7436 188.618 43.7479 188.618C49.7522 188.618 54.6196 193.476 54.6196 199.469C54.6196 205.462 49.7522 210.321 43.7479 210.321Z" fill="#FFFBF1" stroke="#E5E3E3" stroke-width="3" stroke-miterlimit="10"/>
<path d="M43.7486 197.869C37.7444 197.869 32.8769 193.01 32.8769 187.017C32.8769 181.024 37.7444 176.166 43.7486 176.166C49.7529 176.166 54.6204 181.024 54.6204 187.017C54.6204 193.01 49.7529 197.869 43.7486 197.869Z" fill="#FFFBF1" stroke="#E5E3E3" stroke-width="3" stroke-miterlimit="10"/>
<path d="M54.5968 208.718C48.5925 208.718 43.7251 203.86 43.7251 197.866C43.7251 191.873 48.5925 187.015 54.5968 187.015C60.6011 187.015 65.4685 191.873 65.4685 197.866C65.4685 203.86 60.6011 208.718 54.5968 208.718Z" fill="#FFFBF1" stroke="#E5E3E3" stroke-width="3" stroke-miterlimit="10"/>
<path d="M72.7421 200.633C52.9976 200.633 36.9915 184.657 36.9915 164.949C36.9915 145.241 52.9976 129.265 72.7421 129.265C92.4866 129.265 108.493 145.241 108.493 164.949C108.493 184.657 92.4866 200.633 72.7421 200.633Z" fill="#FFFBF1" stroke="#E5E3E3" stroke-width="3" stroke-miterlimit="10"/>
<path d="M104.553 172.751C85.6142 172.751 70.2614 157.427 70.2614 138.524C70.2614 119.621 85.6142 104.296 104.553 104.296C123.491 104.296 138.844 119.621 138.844 138.524C138.844 157.427 123.491 172.751 104.553 172.751Z" fill="#FFFBF1" stroke="#E5E3E3" stroke-width="3" stroke-miterlimit="10"/>
<path d="M52.3125 158.674C37.4908 158.674 25.4755 146.681 25.4755 131.887C25.4755 117.093 37.4908 105.1 52.3125 105.1C67.1341 105.1 79.1494 117.093 79.1494 131.887C79.1494 146.681 67.1341 158.674 52.3125 158.674Z" fill="#FFFBF1" stroke="#E5E3E3" stroke-width="3" stroke-miterlimit="10"/>
<path d="M75.4392 163.008C67.5407 163.008 61.1377 156.617 61.1378 148.733C61.1378 140.849 67.5407 134.458 75.4392 134.458C83.3377 134.458 89.7407 140.849 89.7407 148.733C89.7407 156.617 83.3377 163.008 75.4392 163.008Z" fill="#FFFBF1" stroke="#E5E3E3" stroke-width="3" stroke-miterlimit="10"/>
<path d="M157.232 195.441C149.333 195.441 142.93 189.05 142.93 181.166C142.93 173.282 149.333 166.891 157.232 166.891C165.13 166.891 171.533 173.282 171.533 181.166C171.533 189.05 165.13 195.441 157.232 195.441Z" fill="#FFFBF1" stroke="#E5E3E3" stroke-width="3" stroke-miterlimit="10"/>
<path d="M28.5552 92.1393C36.4537 92.1393 42.8566 98.5303 42.8566 106.414C42.8566 114.298 36.4536 120.689 28.5552 120.689C20.6567 120.689 14.2537 114.298 14.2537 106.414C14.2537 98.5303 20.6567 92.1393 28.5552 92.1393Z" fill="#FFFBF1" stroke="#E5E3E3" stroke-width="3" stroke-miterlimit="10"/>
<path d="M20.102 108.984C28.0005 108.984 34.4035 115.375 34.4035 123.258C34.4035 131.142 28.0005 137.533 20.102 137.533C12.2035 137.533 5.80054 131.142 5.80054 123.258C5.80054 115.375 12.2035 108.984 20.102 108.984Z" fill="#FFFBF1" stroke="#E5E3E3" stroke-width="3" stroke-miterlimit="10"/>
<path d="M68.535 37.0683C79.2939 37.0683 88.0156 45.7738 88.0156 56.5125C88.0156 67.2513 79.2938 75.9568 68.535 75.9568C57.7762 75.9568 49.0544 67.2513 49.0544 56.5125C49.0545 45.7737 57.7762 37.0683 68.535 37.0683Z" fill="#FFFBF1" stroke="#E5E3E3" stroke-width="3" stroke-miterlimit="10"/>
<path d="M47.8872 41.4021C66.5838 41.4021 81.7403 56.5304 81.7403 75.1921C81.7403 93.8537 66.5837 108.982 47.8872 108.982C29.1907 108.982 14.0342 93.8537 14.0342 75.192C14.0342 56.5304 29.1907 41.4021 47.8872 41.4021Z" fill="#FFFBF1" stroke="#E5E3E3" stroke-width="3" stroke-miterlimit="10"/>
<path d="M92.5041 32.5877C105.742 32.5877 116.473 43.2989 116.473 56.5117C116.473 69.7246 105.742 80.4357 92.5041 80.4357C79.2666 80.4357 68.5354 69.7246 68.5354 56.5117C68.5354 43.2988 79.2666 32.5877 92.5041 32.5877Z" fill="#FFFBF1" stroke="#E5E3E3" stroke-width="3" stroke-miterlimit="10"/>
<path d="M50.3675 90.0499C64.148 90.0499 75.3194 101.2 75.3194 114.955C75.3194 128.71 64.148 139.861 50.3675 139.861C36.5869 139.861 25.4155 128.71 25.4155 114.955C25.4155 101.2 36.5869 90.0499 50.3675 90.0499Z" fill="#FFFBF1" stroke="#E5E3E3" stroke-width="3" stroke-miterlimit="10"/>
<path d="M182.243 84.0763C193.771 84.0763 203.116 93.404 203.116 104.91C203.116 116.417 193.771 125.744 182.243 125.744C170.715 125.744 161.37 116.417 161.37 104.91C161.37 93.404 170.715 84.0763 182.243 84.0763Z" fill="#FFFBF1" stroke="#E5E3E3" stroke-width="3" stroke-miterlimit="10"/>
<path d="M115.376 13.1459C126.135 13.1459 134.856 21.8514 134.856 32.5901C134.856 43.3289 126.135 52.0344 115.376 52.0344C104.617 52.0344 95.8953 43.3289 95.8953 32.5901C95.8953 21.8514 104.617 13.1459 115.376 13.1459Z" fill="#FFFBF1" stroke="#E5E3E3" stroke-width="3" stroke-miterlimit="10"/>
<path d="M63.3586 2.00001C71.2571 2.00001 77.6601 8.39107 77.6601 16.2748C77.6601 24.1586 71.2571 30.5497 63.3586 30.5497C55.4601 30.5497 49.0571 24.1586 49.0571 16.2748C49.0571 8.39106 55.4601 2.00001 63.3586 2.00001Z" fill="#FFFBF1" stroke="#E5E3E3" stroke-width="3" stroke-miterlimit="10"/>
<path d="M185.913 53.8549C190.513 53.8549 194.243 57.5771 194.243 62.1685C194.243 66.76 190.513 70.4822 185.913 70.4821C181.313 70.4821 177.584 66.76 177.584 62.1685C177.584 57.5771 181.313 53.8549 185.913 53.8549Z" fill="#FFFBF1" stroke="#E5E3E3" stroke-width="3" stroke-miterlimit="10"/>
<path d="M150.522 11.3713C155.122 11.3713 158.851 15.0934 158.851 19.6848C158.851 24.2763 155.122 27.9984 150.522 27.9984C145.922 27.9984 142.193 24.2763 142.193 19.6848C142.193 15.0934 145.922 11.3712 150.522 11.3713Z" fill="#FFFBF1" stroke="#E5E3E3" stroke-width="3" stroke-miterlimit="10"/>
<path d="M169.808 69.801C177.706 69.801 184.109 76.192 184.109 84.0758C184.109 91.9596 177.706 98.3506 169.808 98.3506C161.909 98.3506 155.506 91.9596 155.506 84.0758C155.506 76.192 161.909 69.801 169.808 69.801Z" fill="#FFFBF1" stroke="#E5E3E3" stroke-width="3" stroke-miterlimit="10"/>
<path d="M161.369 30.5502C167.374 30.5502 172.241 35.4086 172.241 41.4017C172.241 47.3948 167.374 52.2531 161.369 52.2531C155.365 52.2531 150.498 47.3948 150.498 41.4017C150.498 35.4086 155.365 30.5502 161.369 30.5502Z" fill="#FFFBF1" stroke="#E5E3E3" stroke-width="3" stroke-miterlimit="10"/>
<path d="M161.368 43.0021C167.373 43.0021 172.24 47.8604 172.24 53.8535C172.24 59.8466 167.373 64.7049 161.368 64.7049C155.364 64.7049 150.497 59.8466 150.497 53.8535C150.497 47.8604 155.364 43.0021 161.368 43.0021Z" fill="#FFFBF1" stroke="#E5E3E3" stroke-width="3" stroke-miterlimit="10"/>
<path d="M150.52 32.1529C156.524 32.1529 161.392 37.0112 161.392 43.0043C161.392 48.9974 156.524 53.8557 150.52 53.8557C144.516 53.8557 139.648 48.9974 139.648 43.0043C139.648 37.0112 144.516 32.1529 150.52 32.1529Z" fill="#FFFBF1" stroke="#E5E3E3" stroke-width="3" stroke-miterlimit="10"/>
<path d="M132.375 40.238C152.119 40.238 168.125 56.2143 168.125 75.922C168.125 95.6296 152.119 111.606 132.375 111.606C112.63 111.606 96.6243 95.6296 96.6243 75.9219C96.6243 56.2142 112.63 40.238 132.375 40.238Z" fill="#FFFBF1" stroke="#E5E3E3" stroke-width="3" stroke-miterlimit="10"/>
<path d="M100.564 68.1193C119.503 68.1193 134.856 83.4434 134.856 102.347C134.856 121.25 119.503 136.574 100.564 136.574C81.6255 136.574 66.2727 121.25 66.2727 102.347C66.2727 83.4434 81.6255 68.1193 100.564 68.1193Z" fill="#FFFBF1" stroke="#E5E3E3" stroke-width="3" stroke-miterlimit="10"/>
<path d="M152.804 82.1964C167.626 82.1964 179.641 94.1893 179.641 108.983C179.641 123.777 167.626 135.77 152.804 135.77C137.983 135.77 125.968 123.777 125.968 108.983C125.968 94.1892 137.983 82.1963 152.804 82.1964Z" fill="#FFFBF1" stroke="#E5E3E3" stroke-width="3" stroke-miterlimit="10"/>
<path d="M129.678 77.863C137.576 77.863 143.979 84.254 143.979 92.1378C143.979 100.022 137.576 106.413 129.678 106.413C121.779 106.413 115.376 100.022 115.376 92.1378C115.376 84.254 121.779 77.863 129.678 77.863Z" fill="#FFFBF1" stroke="#E5E3E3" stroke-width="3" stroke-miterlimit="10"/>
<path d="M47.8852 45.4296C55.7837 45.4296 62.1867 51.8206 62.1867 59.7044C62.1867 67.5881 55.7837 73.9792 47.8852 73.9792C39.9867 73.9792 33.5837 67.5881 33.5837 59.7044C33.5837 51.8206 39.9867 45.4296 47.8852 45.4296Z" fill="#FFFBF1" stroke="#E5E3E3" stroke-width="3" stroke-miterlimit="10"/>
<path d="M119.863 112.732C105.361 107.587 97.7683 91.6827 102.903 77.2082C108.038 62.7336 123.957 55.1702 138.459 60.3149C152.96 65.4595 160.553 81.364 155.418 95.8385C150.283 110.313 134.365 117.876 119.863 112.732Z" fill="#FF8A00" stroke="#1B1A1A" stroke-width="3" stroke-miterlimit="10"/>
<path d="M69.2432 127.833C57.457 123.651 51.2857 110.725 55.4592 98.9607C59.6327 87.1965 72.5706 81.0494 84.3567 85.2307C96.1429 89.412 102.314 102.338 98.1407 114.103C93.9672 125.867 81.0293 132.014 69.2432 127.833Z" fill="#FF8A00" stroke="#1B1A1A" stroke-width="3" stroke-miterlimit="10"/>
<path d="M77.0227 165.763C71.9834 163.975 69.3448 158.448 71.1292 153.418C72.9136 148.388 78.4453 145.76 83.4847 147.548C88.524 149.336 91.1626 154.862 89.3781 159.892C87.5937 164.922 82.062 167.55 77.0227 165.763Z" fill="#FF8A00" stroke="#1B1A1A" stroke-width="3" stroke-miterlimit="10"/>
<path d="M55.125 82.9249C50.0857 81.1371 47.447 75.6103 49.2315 70.5804C51.0159 65.5505 56.5476 62.9222 61.5869 64.71C66.6263 66.4978 69.2649 72.0246 67.4804 77.0545C65.696 82.0844 60.1643 84.7127 55.125 82.9249Z" fill="#FF8A00" stroke="#1B1A1A" stroke-width="3" stroke-miterlimit="10"/>
<path d="M102.731 124.82C97.6914 123.032 95.0528 117.505 96.8372 112.475C98.6216 107.445 104.153 104.817 109.193 106.605C114.232 108.392 116.871 113.919 115.086 118.949C113.302 123.979 107.77 126.607 102.731 124.82Z" fill="#FF8A00" stroke="#1B1A1A" stroke-width="3" stroke-miterlimit="10"/>
<path d="M105.464 96.4031C96.8112 93.3334 92.2806 83.8436 95.3445 75.2071C98.4085 66.5705 107.907 62.0576 116.559 65.1273C125.212 68.1969 129.743 77.6867 126.679 86.3233C123.615 94.9599 114.117 99.4727 105.464 96.4031Z" fill="#FF8A00" stroke="#1B1A1A" stroke-width="3" stroke-miterlimit="10"/>
<path d="M61.7166 153.268C55.139 150.935 51.6949 143.721 54.0241 137.155C56.3532 130.59 63.5736 127.159 70.1512 129.493C76.7288 131.826 80.1729 139.04 77.8437 145.606C75.5146 152.171 68.2942 155.602 61.7166 153.268Z" fill="#FF8A00" stroke="#1B1A1A" stroke-width="3" stroke-miterlimit="10"/>
<path d="M101.707 128.512C95.1295 126.179 91.6854 118.965 94.0145 112.399C96.3437 105.834 103.564 102.403 110.142 104.737C116.719 107.07 120.163 114.284 117.834 120.85C115.505 127.415 108.285 130.846 101.707 128.512Z" fill="#FF8A00" stroke="#1B1A1A" stroke-width="3" stroke-miterlimit="10"/>
<path d="M100.703 156.389C92.0505 153.319 87.5199 143.829 90.5838 135.193C93.6478 126.556 103.146 122.043 111.799 125.113C120.451 128.183 124.982 137.672 121.918 146.309C118.854 154.946 109.356 159.458 100.703 156.389Z" fill="#FF8A00" stroke="#1B1A1A" stroke-width="3" stroke-miterlimit="10"/>
<path d="M134.651 124.161C143.304 127.231 147.834 136.72 144.77 145.357C141.706 153.994 132.208 158.506 123.555 155.437C114.903 152.367 110.372 142.877 113.436 134.241C116.5 125.604 125.998 121.091 134.651 124.161Z" fill="#FF8A00" stroke="#1B1A1A" stroke-width="3" stroke-miterlimit="10"/>
<path d="M102.651 73.8515C122.897 73.8515 139.309 90.2638 139.309 110.509C139.309 130.755 122.897 147.167 102.651 147.167C82.4057 147.167 65.9934 130.755 65.9934 110.509C65.9934 90.2638 82.4057 73.8515 102.651 73.8515Z" fill="#FFDE00" stroke="#1B1A1A" stroke-width="3" stroke-miterlimit="10"/>
<path d="M139.412 87.027C148.064 90.0967 152.595 99.5865 149.531 108.223C146.467 116.86 136.969 121.373 128.316 118.303C119.663 115.233 115.133 105.743 118.197 97.1068C121.261 88.4702 130.759 83.9574 139.412 87.027Z" fill="#FF8A00" stroke="#1B1A1A" stroke-width="3" stroke-miterlimit="10"/>
<path d="M65.5969 134.342C60.5576 132.554 57.919 127.028 59.7034 121.998C61.4878 116.968 67.0196 114.339 72.0589 116.127C77.0982 117.915 79.7368 123.442 77.9524 128.472C76.1679 133.502 70.6362 136.13 65.5969 134.342Z" fill="#FF8A00" stroke="#1B1A1A" stroke-width="3" stroke-miterlimit="10"/>
<circle cx="102.696" cy="110.553" r="25.2761" transform="rotate(90 102.696 110.553)" fill="#FF8A00" stroke="#1B1A1A" stroke-width="3"/>
<path d="M104.849 112.708L104.849 122.343C104.849 123.219 104.139 123.93 103.263 123.93C102.386 123.93 101.676 123.219 101.676 122.343L101.676 112.708L92.0413 112.708C91.1649 112.708 90.4544 111.998 90.4544 111.121C90.4544 110.245 91.1649 109.534 92.0413 109.534L101.676 109.534L101.676 99.9002C101.676 99.0237 102.386 98.3133 103.263 98.3133C104.139 98.3133 104.849 99.0237 104.849 99.9002L104.849 109.534L114.484 109.534C115.36 109.534 116.071 110.245 116.071 111.121C116.071 111.998 115.36 112.708 114.484 112.708L104.849 112.708Z" fill="#1B1A1A"/>
</svg>
