<svg width="175" height="191" viewBox="0 0 175 191" fill="none" xmlns="http://www.w3.org/2000/svg">
<path d="M125.939 102.785C105.739 75.9032 84.1586 48.8329 101.761 2C62.5661 51.7253 100.509 80.4248 101.572 118.935C103.059 134.129 88.1017 144.258 74.0884 140.811C54.8453 137.139 52.7084 114.248 66.2141 102.596C74.4308 94.1783 68.1974 82.3373 64.1599 73.3886C63.6759 73.5303 63.8175 73.4949 63.3335 73.6365C67.7252 106.055 33.5007 102.277 39.7695 136.49C39.8521 136.938 39.9466 137.399 40.0528 137.859C45.5424 161.931 68.3155 178.034 92.9302 176.074C128.973 173.193 147.661 131.697 125.939 102.785Z" fill="#FF8A00" stroke="#1B1A1A" stroke-width="3" stroke-miterlimit="10" stroke-linecap="round" stroke-linejoin="round"/>
<rect x="-2.12132" width="224.01" height="12.3771" rx="6.18856" transform="matrix(-0.707107 -0.707107 -0.707107 0.707107 169.401 176.478)" fill="#FFDE00" stroke="#1B1A1A" stroke-width="3"/>
<rect x="-2.12132" width="23.0654" height="17.477" rx="8.7385" transform="matrix(-0.707107 -0.707107 -0.707107 0.707107 29.4958 32.6171)" fill="#FF8A00" stroke="#1B1A1A" stroke-width="3"/>
<rect x="4.09935" y="177.978" width="224.01" height="12.3771" rx="6.18856" transform="rotate(-45 4.09935 177.978)" fill="#FFDE00" stroke="#1B1A1A" stroke-width="3"/>
<rect x="144.004" y="34.1171" width="23.0654" height="17.477" rx="8.7385" transform="rotate(-45 144.004 34.1171)" fill="#FF8A00" stroke="#1B1A1A" stroke-width="3"/>
</svg>
