<svg width="135" height="231" viewBox="0 0 135 231" fill="none" xmlns="http://www.w3.org/2000/svg">
<rect x="1.5" y="201.5" width="132" height="12" rx="6" fill="#FFDE00" stroke="#1B1A1A" stroke-width="3"/>
<path d="M25.2189 60C37.9293 64.2982 44.9649 82.3926 35.9013 92.801C27.9406 101.94 21.5009 110.703 29.2036 124C14.3052 118.599 10.2225 97.6244 21.3052 87.5749C30.8847 79.4863 31.2672 69.7956 25.2189 60Z" fill="#FF8A00" stroke="#1B1A1A" stroke-width="3" stroke-miterlimit="10" stroke-linecap="round" stroke-linejoin="round"/>
<path d="M49.8418 31C40.2618 34.29 35.6318 47.61 41.7918 56.11C47.9518 64.61 58.9518 59.61 52.7918 52.11C46.7518 44.76 45.2818 38.5 49.8418 31Z" fill="#FFDE00" stroke="#1B1A1A" stroke-width="3" stroke-miterlimit="10" stroke-linecap="round" stroke-linejoin="round"/>
<path d="M102.305 161.574C94.8064 134.854 112.93 128.916 124.452 106.526C143.986 64.1888 76.2476 66.9732 81.6472 2C67.1119 32.3478 97.3494 58.1544 105.841 85.5157C109.951 96.0913 100.528 106.614 89.8946 106.983C75.4987 108.257 69.385 92.3055 76.6308 81.2204C80.7763 73.5347 73.9746 66.3232 69.3066 60.7368C69.1237 60.851 68.9495 60.9739 68.7666 61.0881C76.4828 78.9981 61.6601 85.2522 61.6601 99.0426C61.6601 129.865 84.6256 128.108 84.6256 153.352C84.6256 164.271 78.3465 177.297 68.7492 177.297C45.235 177.297 46.7678 150.867 51.4184 141.196C57.1837 130.778 50.3124 116.461 39.8355 112.657C59.0474 139.667 28 139.544 28 170.753C28 186.976 39.1388 211 67.53 211C94.0052 211 109.272 186.414 102.305 161.574Z" fill="#FF8A00" stroke="#1B1A1A" stroke-width="3" stroke-miterlimit="10" stroke-linecap="round" stroke-linejoin="round"/>
<rect x="9.25411" y="216.843" width="116.347" height="11.0408" rx="5.52041" transform="rotate(-15 9.25411 216.843)" fill="#FF8A00" stroke="#1B1A1A" stroke-width="3"/>
<rect x="27.1291" y="182.748" width="72.4694" height="11.0408" rx="5.52041" transform="rotate(30 27.1291 182.748)" fill="#FFDE00" stroke="#1B1A1A" stroke-width="3"/>
</svg>
