<svg width="114" height="84" viewBox="0 0 114 84" fill="none" xmlns="http://www.w3.org/2000/svg">
<path d="M57 82C79.0914 82 97 64.0914 97 42C97 19.9086 79.0914 2 57 2C34.9086 2 17 19.9086 17 42C17 64.0914 34.9086 82 57 82Z" fill="#FF8A00" stroke="#1B1A1A" stroke-width="2.5" stroke-miterlimit="10"/>
<path d="M14.1675 30.7399C17.1361 33.7026 18.6401 37.9218 18.6401 43.2745C18.6401 44.8059 19.3696 46.0053 20.4962 46.9241C20.2568 45.6704 20.1301 44.388 20.1301 43.0856C20.1301 33.153 27.3151 24.4426 38.0292 19.6709C38.032 16.8057 40.0402 14.1436 43.6792 12.1714C46.3746 10.7115 49.7404 9.75264 53.3934 9.38052C53.5765 7.48273 55.0664 5.99999 56.869 6C58.6716 6 60.1616 7.48559 60.3447 9.38052C63.9977 9.75264 67.3635 10.7116 70.0589 12.1714C73.7007 14.1436 75.7061 16.8085 75.7089 19.6709C86.423 24.4426 93.608 33.153 93.608 43.0856C93.608 44.471 93.4672 45.8307 93.1968 47.1617C94.498 46.2171 95.3599 44.9433 95.3599 43.2745C95.3599 37.9189 96.8639 33.7026 99.8325 30.74C102.739 27.8375 106.834 26.3633 112 26.3633L112 37.813C109.952 37.813 108.434 38.2023 107.73 38.9065C107.02 39.6163 106.629 41.1678 106.629 43.2745C106.629 53.4734 97.4497 60.8756 84.8035 60.8756L84.8035 60.7869C82.0743 63.1598 78.8071 65.1835 75.1456 66.7493L75.1456 71L38.5897 71L38.5897 66.7493C34.9704 65.2007 31.7399 63.2085 29.0303 60.8727C16.4714 60.8069 7.37115 53.4275 7.37115 43.2745C7.37115 41.1678 6.97965 39.6163 6.26989 38.9065C5.56294 38.2023 4.04764 37.813 2.00001 37.813L2.00001 26.3633C7.16555 26.3662 11.2608 27.8374 14.1675 30.7399Z" fill="#FFDE00" stroke="#1B1A1A" stroke-width="2.5" stroke-miterlimit="10" stroke-linecap="round" stroke-linejoin="round"/>
<path d="M38.3964 20.0464C33.9269 21.6369 30.7419 23.9532 27.4345 27.3043L40.6655 33.5109L38.3964 20.0464Z" fill="#FF8A00" stroke="#1B1A1A" stroke-width="2.5" stroke-miterlimit="10"/>
<path d="M38.2068 66.7483C33.7019 64.4754 32.7633 64.0965 29.1969 61.2554L40.7975 53.1258L38.2068 66.7483Z" fill="#FF8A00" stroke="#1B1A1A" stroke-width="2.5" stroke-miterlimit="10"/>
<path d="M74.9806 20.0462C79.45 21.6367 82.6351 23.953 85.9425 27.3041L72.7115 33.5106L74.9806 20.0462Z" fill="#FF8A00" stroke="#1B1A1A" stroke-width="2.5" stroke-miterlimit="10"/>
<path d="M75.1702 65.7483C79.6751 63.4754 80.6136 63.0965 84.18 60.2554L72.5794 52.1258L75.1702 65.7483Z" fill="#FF8A00" stroke="#1B1A1A" stroke-width="2.5" stroke-miterlimit="10"/>
<path d="M75.2946 20.0111C61.1388 27.1814 44.1593 23.2294 37.6938 20.1771C37.7286 13.4159 46.9207 10.5082 55.6923 10.3103C71.1289 9.96205 75.2109 16.8916 75.2946 20.0111Z" fill="#FFDE00" stroke="#1B1A1A" stroke-width="2.5"/>
<path d="M50.7755 23.6425C54.5408 24.543 58.25 24.3471 61.4791 23.5029L55.8508 14.2907L50.7755 23.6425Z" fill="#FF8A00" stroke="#1B1A1A" stroke-width="2.5" stroke-miterlimit="10"/>
<path d="M63.108 23.3042C66.6944 23.1256 69.9349 22.0011 72.574 20.4323L65.0884 13.8098L63.108 23.3042Z" fill="#FF8A00" stroke="#1B1A1A" stroke-width="2.5" stroke-miterlimit="10"/>
<path d="M50.125 23.4659C46.5353 23.3763 43.2684 22.3326 40.5919 20.8297L47.9139 14.0235L50.125 23.4659Z" fill="#FF8A00" stroke="#1B1A1A" stroke-width="2.5" stroke-miterlimit="10"/>
<path d="M66.5518 42.0619C66.5518 47.4981 62.2137 51.8737 56.9009 51.8737C51.5881 51.8737 47.25 47.4981 47.25 42.0619C47.25 36.6256 51.5881 32.25 56.9009 32.25C62.2137 32.25 66.5518 36.6256 66.5518 42.0619Z" fill="#FF8A00" stroke="#1B1A1A" stroke-width="2.5"/>
</svg>
