<svg width="113" height="84" viewBox="0 0 113 84" fill="none" xmlns="http://www.w3.org/2000/svg">
<path d="M50.29 81.5526C72.2578 81.5526 90.0663 63.7441 90.0663 41.7763C90.0663 19.8085 72.2578 2 50.29 2C28.3221 2 10.5137 19.8085 10.5137 41.7763C10.5137 63.7441 28.3221 81.5526 50.29 81.5526Z" fill="#FF8A00" stroke="#1B1A1A" stroke-width="3" stroke-miterlimit="10"/>
<path d="M18.6394 24.9717C20.6912 24.9823 22.6516 25.4054 24.4603 26.1602C27.4898 23.2607 31.3669 20.8229 35.8345 19.0199C35.8264 18.909 35.8184 18.7982 35.8189 18.6873C35.8433 13.9905 42.4513 10.1203 51.1527 9.33961C51.1501 9.28418 51.1446 9.2315 51.1449 9.17608C51.155 7.23637 52.6962 5.67039 54.5895 5.68021C56.48 5.69001 58.0078 7.27192 57.9977 9.21163C57.9974 9.26705 57.9914 9.31967 57.9882 9.37507C66.6782 10.2432 73.2486 14.1845 73.2242 18.8813C73.2236 18.9922 73.2144 19.103 73.2052 19.2138C84.147 23.7597 91.4696 32.1165 91.4202 41.6349C91.4125 43.1229 90.9743 44.3829 90.6211 45.7998C92.332 44.8638 93.7812 43.7088 93.791 41.8301C93.8179 36.6455 95.3779 32.5718 98.4302 29.7196C100.686 27.6086 103.632 26.291 107.214 25.7858C109.155 25.5105 110.897 25.8049 110.897 25.8049L110.84 36.8613C110.84 36.8613 109.804 36.5428 108.333 36.8483C107.496 37.0213 106.861 37.2979 106.467 37.6672C105.737 38.3506 105.329 39.8504 105.318 41.8899C105.267 51.763 95.838 58.8801 82.8989 58.813C80.1231 61.1429 76.7682 63.4702 72.9909 64.9941L72.9665 70.833L35.5641 70.639L35.5885 63.6636C32.1061 62.2157 28.9917 60.3845 26.3659 58.2482C24.0129 59.6326 21.3172 60.4139 18.4585 60.3991C9.41267 60.3522 2.09388 52.3667 2.14454 42.5989C2.19231 32.8339 9.59355 24.9248 18.6394 24.9717ZM18.4987 52.0888C19.1961 52.0924 19.8739 51.9824 20.5205 51.7751C18.4911 48.5529 17.3713 44.9918 17.3907 41.2509C17.4051 38.4799 18.0442 35.8147 19.2128 33.3184C19.0112 33.298 18.8067 33.2831 18.5992 33.282C14.3198 33.2598 10.8167 37.4592 10.7898 42.6438C10.76 47.8311 14.2193 52.0666 18.4987 52.0888Z" fill="#FFDE00" stroke="#1B1A1A" stroke-width="3" stroke-miterlimit="10" stroke-linecap="round" stroke-linejoin="round"/>
<path d="M35.7278 19.0467C31.2177 20.6373 28.0037 22.9535 24.6662 26.3047L38.0175 32.5112L35.7278 19.0467Z" fill="#FF8A00" stroke="#1B1A1A" stroke-width="3" stroke-miterlimit="10"/>
<path d="M73.311 19.0111C59.0266 26.1814 41.8926 22.2295 35.3684 19.1771C35.4035 12.4159 44.6791 9.50823 53.5305 9.31034C69.1074 8.96208 73.2266 15.8916 73.311 19.0111Z" fill="#FFDE00" stroke="#1B1A1A" stroke-width="3"/>
<path d="M35.5366 63.7482C30.9908 61.4753 30.0437 61.0964 26.4449 58.2553L38.151 50.1256L35.5366 63.7482Z" fill="#FF8A00" stroke="#1B1A1A" stroke-width="3" stroke-miterlimit="10"/>
<path d="M49.5512 22.6425C53.3507 23.543 57.0937 23.3471 60.3521 22.5029L54.6727 13.2907L49.5512 22.6425Z" fill="#FF8A00" stroke="#1B1A1A" stroke-width="3" stroke-miterlimit="10"/>
<path d="M61.5929 22.3041C65.2119 22.1255 68.4819 21.001 71.1449 19.4321L63.5913 12.8097L61.5929 22.3041Z" fill="#FF8A00" stroke="#1B1A1A" stroke-width="3" stroke-miterlimit="10"/>
<path d="M48.4923 22.4659C44.8699 22.3764 41.5733 21.3327 38.8725 19.8297L46.261 13.0235L48.4923 22.4659Z" fill="#FF8A00" stroke="#1B1A1A" stroke-width="3" stroke-miterlimit="10"/>
<path d="M71.1964 39.1019L64.6029 32.449C63.8209 31.66 63.8209 30.3808 64.6029 29.5918C65.3848 28.8027 66.6527 28.8027 67.4346 29.5918L77.4463 39.6937C78.2283 40.4827 78.2283 41.7619 77.4463 42.5509L67.4346 52.6528C66.6527 53.4418 65.3848 53.4418 64.6029 52.6528C63.8209 51.8638 63.8209 50.5846 64.6029 49.7956L71.1964 43.1427H52.0023C50.8965 43.1427 50 42.2381 50 41.1223C50 40.0065 50.8965 39.1019 52.0023 39.1019H71.1964Z" fill="#1B1A1A" stroke="#FFDE00"/>
<path d="M20.659 51.418C16.2126 44.7574 16.8748 38.8091 19.4263 33.4174L35.0604 41.2488L20.659 51.418Z" fill="#FF8A00" stroke="#1B1A1A" stroke-width="3" stroke-miterlimit="10"/>
</svg>
