<svg width="135" height="166" viewBox="0 0 135 166" fill="none" xmlns="http://www.w3.org/2000/svg">
<rect x="1.5" y="132.5" width="132" height="12" rx="6" fill="#FFDE00" stroke="#1B1A1A" stroke-width="3"/>
<rect x="39.7642" y="153.745" width="72.4694" height="11.0408" rx="5.52041" transform="rotate(-32.3497 39.7642 153.745)" fill="#FF8A00" stroke="#1B1A1A" stroke-width="3"/>
<path d="M60.9687 83.8528L60.9788 83.8413L60.9887 83.8297C68.4253 75.0521 76.3306 73.8718 84.5426 72.7058L84.7382 72.678C92.937 71.5144 101.494 70.3001 108.999 60.9005C120.196 47.5323 116.257 25.6216 100.978 17.1342C94.0098 12.7102 85.3137 12.1224 78.0969 14.7852C70.8409 17.4624 64.9762 23.4774 63.9474 32.2718C62.0814 44.8742 72.6886 53.8547 84.9185 54.1838L84.9378 54.1843L84.9571 54.1843C93.1982 54.1943 98.6865 49.6286 100.046 43.8615C101.408 38.086 98.5033 31.6387 91.1237 28.1905L91.1151 28.1865L91.1065 28.1826C87.1191 26.3804 83.5665 26.3672 80.7526 27.6591C77.9604 28.941 76.1066 31.4137 75.3272 34.1732C74.5487 36.9296 74.817 40.0489 76.3459 42.7195C76.9801 43.8273 77.8208 44.8398 78.8692 45.7085C77.2584 44.9943 75.9809 44.0035 75.0049 42.8529C73.0125 40.5041 72.1529 37.344 72.4404 34.1159C73.0137 27.6777 78.1131 21.2457 87.3022 21.2457C93.7336 21.2457 99.9843 24.818 103.767 30.2479C107.522 35.6399 108.79 42.7828 105.388 49.9545C100.834 59.4877 92.6588 63.7502 84.1287 63.7188C75.5387 63.6872 66.5246 59.2901 60.5262 51.3088L60.5183 51.2983L60.5102 51.2879C52.575 41.107 51.6444 28.6612 56.3681 18.7865C61.0768 8.94319 71.4836 1.5 86.5894 1.5C107.329 1.5 120.143 13.0604 125.541 26.8737C130.988 40.8145 128.824 56.8266 119.832 65.7178C112.76 72.7073 101.487 79.9486 86.3364 80.2921L86.3362 80.2921C76.3814 80.5195 66.632 86.8285 61.4426 95.233C58.8335 99.4585 57.3316 104.284 57.5814 109.216C57.6661 110.887 57.9515 112.558 58.4556 114.211C52.8615 104.62 52.8733 93.023 60.9687 83.8528Z" fill="#FF8A00" stroke="#1B1A1A" stroke-width="3"/>
<rect x="26.6548" y="122.125" width="85.1065" height="11.0408" rx="5.52041" transform="rotate(15.2601 26.6548 122.125)" fill="#FF8A00" stroke="#1B1A1A" stroke-width="3"/>
</svg>
