<svg width="42" height="42" viewBox="0 0 42 42" fill="none" xmlns="http://www.w3.org/2000/svg">
<path d="M21.0004 18.0305L30.0155 9.01547C30.8356 8.19537 32.1652 8.19537 32.9853 9.01547C33.8054 9.83557 33.8054 11.1652 32.9853 11.9853L23.9702 21.0004L32.9853 30.0155C33.8054 30.8356 33.8054 32.1652 32.9853 32.9853C32.1652 33.8054 30.8356 33.8054 30.0155 32.9853L21.0004 23.9702L11.9853 32.9853C11.1652 33.8054 9.83557 33.8054 9.01547 32.9853C8.19537 32.1652 8.19537 30.8356 9.01547 30.0155L18.0305 21.0004L9.01547 11.9853C8.19537 11.1652 8.19537 9.83557 9.01547 9.01547C9.83557 8.19537 11.1652 8.19537 11.9853 9.01547L21.0004 18.0305Z" fill="#FF8A00"/>
<mask id="mask0" mask-type="alpha" maskUnits="userSpaceOnUse" x="8" y="8" width="26" height="26">
<path d="M21.0004 18.0305L30.0155 9.01547C30.8356 8.19537 32.1652 8.19537 32.9853 9.01547C33.8054 9.83557 33.8054 11.1652 32.9853 11.9853L23.9702 21.0004L32.9853 30.0155C33.8054 30.8356 33.8054 32.1652 32.9853 32.9853C32.1652 33.8054 30.8356 33.8054 30.0155 32.9853L21.0004 23.9702L11.9853 32.9853C11.1652 33.8054 9.83557 33.8054 9.01547 32.9853C8.19537 32.1652 8.19537 30.8356 9.01547 30.0155L18.0305 21.0004L9.01547 11.9853C8.19537 11.1652 8.19537 9.83557 9.01547 9.01547C9.83557 8.19537 11.1652 8.19537 11.9853 9.01547L21.0004 18.0305Z" fill="white"/>
</mask>
<g mask="url(#mask0)">
</g>
</svg>
