<svg width="20" height="20" viewBox="0 0 20 20" fill="none" xmlns="http://www.w3.org/2000/svg">
<path fill-rule="evenodd" clip-rule="evenodd" d="M13.0201 0H6.97993C6.48464 0 6.30504 0.0515698 6.12397 0.148407C5.9429 0.245244 5.80079 0.387349 5.70396 0.568419C5.60712 0.749489 5.55555 0.929093 5.55555 1.42438V2.22222H14.4444V1.42438C14.4444 0.929093 14.3929 0.749489 14.296 0.568419C14.1992 0.387349 14.0571 0.245244 13.876 0.148407C13.6949 0.0515698 13.5153 0 13.0201 0ZM1.11111 2.22245H3.3333H16.6666H18.8889C19.5025 2.22245 20 2.71991 20 3.33356C20 3.94721 19.5025 4.44467 18.8889 4.44467H17.7777V16.0404C17.7777 17.1112 17.6676 17.6817 17.3496 18.2763C17.0524 18.832 16.6096 19.2749 16.0538 19.5721C15.4593 19.8901 14.8887 20.0002 13.8179 20.0002H6.18207C5.1112 20.0002 4.54068 19.8901 3.94614 19.5721C3.39037 19.2749 2.94756 18.832 2.65033 18.2763C2.33237 17.6817 2.22219 17.1112 2.22219 16.0404V4.44467H1.11111C0.497461 4.44467 0 3.94721 0 3.33356C0 2.71991 0.497461 2.22245 1.11111 2.22245ZM15.5556 4.44467H4.44448V16.0399C4.44448 16.7753 4.48772 16.9992 4.60997 17.2278C4.70009 17.3963 4.8257 17.5219 4.9942 17.612C5.22279 17.7343 5.44674 17.7775 6.18213 17.7775H13.8179C14.5533 17.7775 14.7773 17.7343 15.0059 17.612C15.1744 17.5219 15.3 17.3963 15.3901 17.2278C15.5123 16.9992 15.5556 16.7753 15.5556 16.0399V4.44467ZM7.77776 6.66684C8.39141 6.66684 8.88887 7.1643 8.88887 7.77795V14.4446C8.88887 15.0583 8.39141 15.5557 7.77776 15.5557C7.16411 15.5557 6.66665 15.0583 6.66665 14.4446V7.77795C6.66665 7.1643 7.16411 6.66684 7.77776 6.66684ZM13.3333 7.77795C13.3333 7.1643 12.8359 6.66684 12.2222 6.66684C11.6086 6.66684 11.1111 7.1643 11.1111 7.77795V14.4446C11.1111 15.0583 11.6086 15.5557 12.2222 15.5557C12.8359 15.5557 13.3333 15.0583 13.3333 14.4446V7.77795Z" fill="#1B1A1A"/>
</svg>
