<svg width="104" height="104" viewBox="0 0 104 104" fill="none" xmlns="http://www.w3.org/2000/svg">
<path d="M2 52C2 79.6132 24.3845 102 52 102C79.6132 102 102 79.6155 102 52C101.998 24.3845 79.6132 2 52 2C24.3845 2 2 24.3845 2 52Z" fill="#FF8A00" stroke="#1B1A1A" stroke-width="2.5" stroke-miterlimit="10" stroke-linecap="round" stroke-linejoin="round"/>
<path d="M7.50439 52.0001C7.50439 76.5728 27.4236 96.492 51.9963 96.492C76.569 96.492 96.4882 76.5728 96.4882 52.0001C96.4882 27.4274 76.569 7.50818 51.9963 7.50818C27.426 7.50583 7.50439 27.4274 7.50439 52.0001Z" fill="#FFDE00" stroke="#1B1A1A" stroke-width="2.5" stroke-miterlimit="10" stroke-linecap="round" stroke-linejoin="round"/>
<path d="M53.0858 17.106C40.2946 17.106 29.464 26.643 25.7919 39.8027C24.9302 42.8948 23.9841 45.9611 22.8054 48.9476L19.9293 56.2377C18.6685 59.4308 21.0234 62.8892 24.456 62.8892V71.8064C24.456 76.7838 28.492 80.8221 33.4718 80.8221H44.8119C68.2529 80.8221 81.7202 67.6319 81.7202 49.6543C81.7179 31.6791 68.8986 17.106 53.0858 17.106Z" fill="#FF8A00" stroke="#1B1A1A" stroke-width="2.5" stroke-miterlimit="10" stroke-linecap="round" stroke-linejoin="round"/>
<path d="M49.3979 91.5875C49.3979 90.9301 44.9675 81.4143 44.9675 81.4143L48.0151 78.2986C55.8827 70.2549 66.5209 65.5169 77.7624 65.0497L79.7487 71.734L49.3979 91.5875Z" fill="#FF8A00" stroke="#1B1A1A" stroke-width="2.5" stroke-miterlimit="10" stroke-linecap="round" stroke-linejoin="round"/>
<path d="M64.7498 57.5003C69.0302 57.5003 72.5001 54.0304 72.5001 49.75C72.5001 45.4697 69.0302 41.9998 64.7498 41.9998C60.4694 41.9998 56.9995 45.4697 56.9995 49.75C56.9995 54.0304 60.4694 57.5003 64.7498 57.5003Z" fill="#FFDE00" stroke="#1B1A1A" stroke-width="2.5" stroke-miterlimit="10"/>
<path d="M43.4998 47.5004C47.7802 47.5004 51.2501 44.0305 51.2501 39.7502C51.2501 35.4698 47.7802 31.9999 43.4998 31.9999C39.2194 31.9999 35.7495 35.4698 35.7495 39.7502C35.7495 44.0305 39.2194 47.5004 43.4998 47.5004Z" fill="#FFDE00" stroke="#1B1A1A" stroke-width="2.5" stroke-miterlimit="10"/>
<path d="M42.2498 71.2498C46.5302 71.2498 50.0001 67.7799 50.0001 63.4996C50.0001 59.2192 46.5302 55.7493 42.2498 55.7493C37.9694 55.7493 34.4995 59.2192 34.4995 63.4996C34.4995 67.7799 37.9694 71.2498 42.2498 71.2498Z" fill="#FFDE00" stroke="#1B1A1A" stroke-width="2.5" stroke-miterlimit="10"/>
</svg>
