<svg width="104" height="104" viewBox="0 0 104 104" fill="none" xmlns="http://www.w3.org/2000/svg">
<path d="M50.2932 20.8369C33.0834 20.8369 19.13 34.7879 19.13 52C19.13 69.2122 33.081 83.1632 50.2932 83.1632C67.503 83.1632 81.4563 69.2122 81.4563 52C81.4563 34.7879 67.503 20.8369 50.2932 20.8369ZM44.332 74.4362C31.94 74.4362 21.8935 64.3897 21.8935 51.9977C21.8935 39.6057 31.94 29.5592 44.332 29.5592C56.724 29.5592 66.7704 39.6057 66.7704 51.9977C66.7704 64.392 56.724 74.4362 44.332 74.4362Z" fill="#FFDE00" stroke="#1B1A1A" stroke-width="2.5" stroke-miterlimit="10"/>
<path d="M52 2C24.3868 2 2 24.3845 2 52C2 79.6132 24.3845 102 52 102C79.6155 101.998 102 79.6132 102 52C102 24.3845 79.6155 2 52 2ZM52 91.7704C30.0334 91.7704 12.2273 73.9642 12.2273 51.9976C12.2273 30.0311 30.0334 12.2249 52 12.2249C73.9666 12.2249 91.7727 30.0311 91.7727 51.9976C91.7727 73.9642 73.9666 91.7704 52 91.7704Z" fill="#FFDE00" stroke="#1B1A1A" stroke-width="2.5" stroke-miterlimit="10"/>
<path d="M44.4631 51.9999C44.4631 58.8814 38.8846 64.4576 32.0054 64.4576C29.7561 64.4576 27.6501 63.8589 25.8282 62.8165C28.9203 66.5026 33.5573 68.8505 38.7461 68.8505C48.053 68.8505 55.5967 61.3068 55.5967 51.9999C55.5967 42.693 48.053 35.1493 38.7461 35.1493C33.5573 35.1493 28.9203 37.4948 25.8282 41.1833C27.6501 40.1408 29.7561 39.5421 32.0054 39.5421C38.8846 39.5398 44.4631 45.1183 44.4631 51.9999Z" fill="#FFDE00" stroke="#1B1A1A" stroke-width="2.5" stroke-miterlimit="10"/>
<path d="M30.4983 52.0001C30.4983 56.022 27.8969 59.4358 24.2859 60.6543C24.7437 61.4174 25.2602 62.1405 25.8284 62.8167C27.6504 63.8591 29.7564 64.4578 32.0056 64.4578C38.8872 64.4578 44.4634 58.8793 44.4634 52.0001C44.4634 45.1185 38.8849 39.5424 32.0056 39.5424C29.7564 39.5424 27.6504 40.1411 25.8284 41.1835C25.2602 41.862 24.7437 42.5852 24.2859 43.3459C27.8969 44.5644 30.4983 47.9759 30.4983 52.0001Z" fill="#FF8A00" stroke="#1B1A1A" stroke-width="2.5" stroke-miterlimit="10"/>
<path d="M52.0002 12.2274C30.0337 12.2274 12.2275 30.0336 12.2275 52.0001C12.2275 73.9667 30.0337 91.7729 52.0002 91.7729C73.9668 91.7729 91.7729 73.9667 91.7729 52.0001C91.7729 30.0336 73.9668 12.2274 52.0002 12.2274ZM50.2933 83.1609C36.2461 83.1609 24.3706 73.8657 20.4802 61.0887C19.6045 58.2126 19.1325 55.1604 19.1325 51.9978C19.1325 48.8352 19.6045 45.783 20.4802 42.9069C24.3706 30.1322 36.2461 20.8347 50.2933 20.8347C67.5031 20.837 81.4565 34.788 81.4565 52.0001C81.4565 69.2099 67.5031 83.1609 50.2933 83.1609Z" fill="#FF8A00" stroke="#1B1A1A" stroke-width="2.5" stroke-miterlimit="10"/>
<path d="M44.3318 29.5616C35.3653 29.5616 27.6268 34.8232 24.0345 42.4256C23.9195 42.6697 23.8068 42.9186 23.6988 43.1675C22.5366 45.8793 21.8933 48.8634 21.8933 52.0001C21.8933 48.8352 22.7667 45.8746 24.2858 43.3459C24.7436 42.5829 25.2601 41.8597 25.8283 41.1835C28.9204 37.4974 33.5575 35.1495 38.7462 35.1495C48.0531 35.1495 55.5968 42.6932 55.5968 52.0001C55.5968 61.307 48.0531 68.8507 38.7462 68.8507C33.5575 68.8507 28.9204 66.5052 25.8283 62.8167C25.2601 62.1382 24.7436 61.415 24.2858 60.6543C22.769 58.1257 21.8933 55.165 21.8933 52.0001C21.8933 55.1369 22.5366 58.121 23.6988 60.8328C23.8068 61.0816 23.9171 61.3305 24.0345 61.5747C27.6268 69.1771 35.3653 74.4386 44.3318 74.4386C56.7238 74.4386 66.7703 64.3921 66.7703 52.0001C66.7703 39.6081 56.7238 29.5616 44.3318 29.5616Z" fill="#FF8A00" stroke="#1B1A1A" stroke-width="2.5" stroke-miterlimit="10"/>
<path d="M30.4983 51.9999C30.4983 47.978 27.8969 44.5642 24.2859 43.3457C22.7691 45.8743 21.8934 48.835 21.8934 51.9999C21.8934 55.1648 22.7668 58.1255 24.2859 60.6541C27.8969 59.4332 30.4983 56.0218 30.4983 51.9999Z" fill="#FFDE00" stroke="#1B1A1A" stroke-width="2.5" stroke-miterlimit="10"/>
</svg>
