<svg width="104" height="104" viewBox="0 0 104 104" fill="none" xmlns="http://www.w3.org/2000/svg">
<path d="M52 102C79.6132 102 102 79.6155 102 52C102 24.3868 79.6155 2 52 2C24.3845 2.00235 2 24.3868 2 52C2 79.6155 24.3845 102 52 102Z" fill="#FFDE00" stroke="#1B1A1A" stroke-width="2.5" stroke-miterlimit="10" stroke-linecap="round" stroke-linejoin="round"/>
<path d="M52.515 96.401C77.0601 96.401 96.9594 76.5016 96.9594 51.9566C96.9594 27.4115 77.0601 7.51212 52.515 7.51212C27.9699 7.51212 8.07056 27.4115 8.07056 51.9566C8.07056 76.5041 27.9675 96.401 52.515 96.401Z" fill="#FF8A00" stroke="#1B1A1A" stroke-width="2.5" stroke-miterlimit="10" stroke-linecap="round" stroke-linejoin="round"/>
<path d="M64.1346 77.4912C78.1485 77.4912 89.5084 66.1313 89.5084 52.1174C89.5084 38.1035 78.1485 26.7436 64.1346 26.7436C50.1207 26.7452 38.7607 38.1051 38.7607 52.1174C38.7607 66.1313 50.1207 77.4912 64.1346 77.4912Z" fill="#FFDE00" stroke="#1B1A1A" stroke-width="2.5" stroke-miterlimit="10" stroke-linecap="round" stroke-linejoin="round"/>
<path d="M35.1526 41.9793L35.1526 61.778C35.1526 61.778 49.0206 62.7994 54.6344 57.6218C57.7262 54.7697 59.1514 53.4838 64.7134 53.4838C69.7466 53.4838 70.1533 55.6492 71.4117 55.6296C71.4117 55.6296 78.0905 58.1892 78.0905 51.8786C78.0905 45.5681 71.4117 48.1276 71.4117 48.1276C70.1536 48.1081 69.7469 50.2735 64.7134 50.2735C59.1514 50.2735 57.7261 48.9875 54.6344 46.1355C49.0203 40.9572 35.1526 41.9793 35.1526 41.9793Z" fill="#FF8A00" stroke="#1B1A1A" stroke-width="2.5" stroke-miterlimit="10"/>
<path d="M30.8241 47.1873L9.65918 47.1873L9.65918 56.5672H30.8241V47.1873Z" fill="#FFDE00" stroke="#1B1A1A" stroke-width="2.5" stroke-miterlimit="10" stroke-linecap="round" stroke-linejoin="round"/>
<path d="M27.357 64.0967C34.9955 70.0139 48.7237 76.9748 63.0432 82.3034L63.0432 21.4548C48.7237 26.7861 34.9955 33.7444 27.357 39.6615C24.2729 42.0525 22.3842 45.325 21.6857 48.7937L21.6857 54.962C22.3868 58.4333 24.2729 61.7058 27.357 64.0967Z" fill="#FFDE00" stroke="#1B1A1A" stroke-width="2.5" stroke-miterlimit="10"/>
<path d="M55.9495 75.2344C59.6249 75.2344 58.509 64.7368 58.509 51.7846C58.509 38.8325 59.6249 28.3349 55.9495 28.3349C52.2741 28.3349 45.1997 38.8325 45.1997 51.7846C45.1997 64.7368 52.2741 75.2344 55.9495 75.2344Z" fill="#FF8A00" stroke="#1B1A1A" stroke-width="2.5" stroke-miterlimit="10" stroke-linecap="round" stroke-linejoin="round"/>
<path d="M38.8725 63.5428C42.5293 63.5428 41.4191 58.2879 41.4191 51.8042C41.4191 45.3205 42.5293 40.0655 38.8725 40.0655C35.2157 40.0655 28.177 45.3205 28.177 51.8042C28.177 58.2879 35.2157 63.5428 38.8725 63.5428Z" fill="#FF8A00" stroke="#1B1A1A" stroke-width="2.5" stroke-miterlimit="10" stroke-linecap="round" stroke-linejoin="round"/>
</svg>
