<svg width="104" height="104" viewBox="0 0 104 104" fill="none" xmlns="http://www.w3.org/2000/svg">
<path d="M102 52C102 24.3845 79.615 2 52.0012 2C24.385 2 2 24.3845 2 52C2 79.6132 24.385 102 52.0012 102C79.615 101.998 102 79.6132 102 52Z" fill="#FFDE00" stroke="#1B1A1A" stroke-width="2.5" stroke-miterlimit="10" stroke-linecap="round" stroke-linejoin="round"/>
<path d="M96.3716 52C96.3716 27.4529 76.4738 7.55554 51.9282 7.55554C27.3805 7.55554 7.48267 27.4529 7.48267 52C7.48267 76.545 27.3805 96.4444 51.9282 96.4444C76.4738 96.4423 96.3716 76.545 96.3716 52Z" fill="#FF8A00" stroke="#1B1A1A" stroke-width="2.5" stroke-miterlimit="10" stroke-linecap="round" stroke-linejoin="round"/>
<path d="M32.401 85.8442C43.2272 85.8442 52.0037 77.0679 52.0037 66.2419C52.0037 77.0679 60.7802 85.8442 71.6065 85.8442C71.7755 85.8442 71.9446 85.8419 72.1113 85.8372C85.4991 85.4991 93.7379 71.0034 87.4549 59.1772L52.0014 8.05493L16.5479 59.1772C10.2649 71.0034 18.5037 85.4991 31.8915 85.8372C32.0629 85.8419 32.232 85.8442 32.401 85.8442Z" fill="#FFDE00" stroke="#1B1A1A" stroke-width="2.5" stroke-miterlimit="10" stroke-linecap="round" stroke-linejoin="round"/>
<path d="M69.9454 24.6567C60.0326 24.6567 51.998 32.6911 51.998 42.6038C51.998 32.6911 43.9634 24.6567 34.0505 24.6567C33.8956 24.6567 33.7406 24.6591 33.588 24.6614C21.3319 24.9714 13.788 38.2438 19.5404 49.0698L52.0003 95.8743L84.4556 49.0721C90.2079 38.2438 82.6641 24.9737 70.408 24.6638C70.253 24.6591 70.1004 24.6567 69.9454 24.6567Z" fill="#FF8A00" stroke="#1B1A1A" stroke-width="2.5" stroke-miterlimit="10" stroke-linecap="round" stroke-linejoin="round"/>
<path d="M38.3829 78.7138C45.9056 78.7138 52.0055 72.6141 52.0055 65.0916C52.0055 72.6141 58.1054 78.7138 65.6281 78.7138C65.7455 78.7138 65.8629 78.7115 65.9803 78.7091C75.2827 78.4744 81.0093 68.3997 76.6422 60.1822L52.0055 24.6567L27.3688 60.1822C23.0017 68.3997 28.7283 78.472 38.0307 78.7091C38.1481 78.7115 38.2655 78.7138 38.3829 78.7138Z" fill="#FFDE00" stroke="#1B1A1A" stroke-width="2.5" stroke-miterlimit="10" stroke-linecap="round" stroke-linejoin="round"/>
<path d="M61.6326 35.594C56.3169 35.594 52.0062 39.9047 52.0062 45.2202C52.0062 39.9047 47.6954 35.594 42.3797 35.594C42.2975 35.594 42.213 35.594 42.1308 35.5963C35.5567 35.763 31.5112 42.8817 34.5964 48.688L52.0062 73.7913L69.4159 48.688C72.5011 42.8817 68.4557 35.763 61.8815 35.5963C61.797 35.5963 61.7148 35.594 61.6326 35.594Z" fill="#FF8A00" stroke="#1B1A1A" stroke-width="2.5" stroke-miterlimit="10" stroke-linecap="round" stroke-linejoin="round"/>
</svg>
