<svg width="104" height="104" viewBox="0 0 104 104" fill="none" xmlns="http://www.w3.org/2000/svg">
<path d="M2 52C2 79.6132 24.3845 102 52 102C79.6132 102 102 79.6155 102 52C101.998 24.3845 79.6132 2 52 2C24.3845 2 2 24.3845 2 52Z" fill="#FF8A00" stroke="#1B1A1A" stroke-width="2.5" stroke-miterlimit="10"/>
<path d="M7.99976 52.0001C7.99976 76.3006 27.6993 96.0001 51.9998 96.0001C76.3002 96.0001 95.9998 76.3006 95.9998 52.0001C95.9998 27.6997 76.3002 8.00012 51.9998 8.00012C27.6993 8.00012 7.99976 27.6997 7.99976 52.0001Z" fill="#FFDE00" stroke="#1B1A1A" stroke-width="2.5" stroke-miterlimit="10"/>
<path d="M12.9998 47.0001C12.9998 68.5387 30.4611 86.0001 51.9998 86.0001C73.5384 86.0001 90.9998 68.5387 90.9998 47.0001C90.9998 25.4615 73.5384 8.00012 51.9998 8.00012C30.4611 8.00012 12.9998 25.4579 12.9998 47.0001Z" fill="#FF8A00" stroke="#1B1A1A" stroke-width="2.5" stroke-miterlimit="10"/>
<path d="M28.1046 63.0255C28.1046 75.7146 38.3577 86.0001 51.0068 86.0001C63.6559 86.0001 73.9089 75.7146 73.9089 63.0255C73.9089 51.4087 65.3142 41.8071 54.1556 40.2687C54.7535 32.1344 55.8118 18.1398 56.1021 14.543C56.1602 13.8202 56.0849 13.0651 55.943 12.3487C55.4461 9.85662 53.519 8.20386 51.1165 8.13482C48.7764 8.06793 46.8105 9.65596 46.1523 12.1135C45.763 13.5721 45.8942 15.0501 46.019 16.5108C46.3653 20.5348 47.3138 32.5335 47.8881 40.2644C36.7144 41.7899 28.1046 51.4 28.1046 63.0255ZM50.9336 11.4058C52.1833 11.3713 53.1834 12.3077 53.2135 13.5419C53.2458 14.7696 52.2758 15.7902 51.0541 15.8161C49.869 15.8398 48.8667 14.8688 48.828 13.6606C48.7914 12.448 49.7335 11.4382 50.9336 11.4058Z" fill="#FFDE00" stroke="#1B1A1A" stroke-width="2.5" stroke-miterlimit="10"/>
<path d="M66.9197 70.0279C66.9197 61.2073 59.768 54.0556 50.9474 54.0556C42.1268 54.0556 34.9751 61.2073 34.9751 70.0279C34.9751 78.8484 42.1268 86.0001 50.9474 86.0001C59.7702 86.0001 66.9197 78.8507 66.9197 70.0279Z" fill="#FF8A00" stroke="#1B1A1A" stroke-width="2.5" stroke-miterlimit="10"/>
<path d="M60.6599 63.4497C60.6599 58.176 56.3831 53.8993 51.1095 53.8993C45.8358 53.8993 41.5591 58.176 41.5591 63.4497C41.5591 68.7233 45.8358 73.0001 51.1095 73.0001C56.3831 73.0001 60.6599 68.7256 60.6599 63.4497Z" fill="#FFDE00" stroke="#1B1A1A" stroke-width="2.5" stroke-miterlimit="10"/>
</svg>
