<svg width="104" height="104" viewBox="0 0 104 104" fill="none" xmlns="http://www.w3.org/2000/svg">
<path d="M2 52C2 79.6132 24.3845 102 52 102C79.6132 102 102 79.6155 102 52C101.998 24.3845 79.6132 2 52 2C24.3845 2 2 24.3845 2 52Z" fill="#FF8A00" stroke="#1B1A1A" stroke-width="2.5" stroke-miterlimit="10"/>
<path d="M18.1992 51.9065C18.1992 70.5227 33.2889 85.6124 51.9051 85.6124C70.5213 85.6124 85.6109 70.5227 85.6109 51.9065C85.6109 33.2904 70.5213 18.2007 51.9051 18.2007C33.2889 18.2007 18.1992 33.2904 18.1992 51.9065Z" fill="#FFDE00" stroke="#1B1A1A" stroke-width="2.5" stroke-miterlimit="10"/>
<path d="M33.4988 51.9988C33.4988 62.2167 41.782 70.4999 51.9999 70.4999C62.2178 70.4999 70.501 62.2167 70.501 51.9988C70.501 41.7809 62.2178 33.4977 51.9999 33.4977C41.782 33.4977 33.4988 41.7809 33.4988 51.9988Z" fill="#FF8A00" stroke="#1B1A1A" stroke-width="2.5" stroke-miterlimit="10"/>
<path d="M55.3883 50.042L72.0887 21.1164C73.596 18.5056 71.713 15.2444 68.6984 15.2444H35.3001C32.2878 15.2444 30.4024 18.5056 31.9098 21.1164L48.6101 50.042C50.1151 52.6505 53.8834 52.6505 55.3883 50.042Z" fill="#FFDE00" stroke="#1B1A1A" stroke-width="2.5" stroke-miterlimit="10"/>
<path d="M55.3875 37.8146L61.2829 27.6061C62.7903 24.9953 60.9073 21.7341 57.8926 21.7341H46.104C43.0917 21.7341 41.2064 24.9953 42.7137 27.6061L48.6092 37.817C50.1142 40.4254 53.8825 40.4254 55.3875 37.8146Z" fill="#FF8A00" stroke="#1B1A1A" stroke-width="2.5" stroke-miterlimit="10"/>
<path d="M48.6109 53.956L31.9106 82.8816C30.4032 85.4924 32.2862 88.7536 35.3009 88.7536H68.7015C71.7138 88.7536 73.5991 85.4924 72.0918 82.8816L55.3915 53.956C53.8842 51.3475 50.1159 51.3475 48.6109 53.956Z" fill="#FFDE00" stroke="#1B1A1A" stroke-width="2.5" stroke-miterlimit="10"/>
<path d="M48.611 66.3238L42.7155 76.5347C41.2082 79.1455 43.0912 82.4067 46.1058 82.4067H57.8944C60.9067 82.4067 62.792 79.1455 61.2847 76.5347L55.3892 66.3238C53.8843 63.713 50.1159 63.713 48.611 66.3238Z" fill="#FF8A00" stroke="#1B1A1A" stroke-width="2.5" stroke-miterlimit="10"/>
</svg>
