<svg width="201" height="212" viewBox="0 0 201 212" fill="none" xmlns="http://www.w3.org/2000/svg">
<path d="M113.897 134.761C122.88 141.896 136.968 152.138 160.464 146.283C194.071 137.907 198.09 109.417 198.09 109.417C198.09 109.417 176.804 120.971 170.918 122.432C157.085 125.882 129.83 107.587 129.83 107.587L113.897 134.761Z" fill="#E30613" stroke="#1B1A1A" stroke-width="3" stroke-miterlimit="10"/>
<path d="M115.214 120.843C125.738 125.409 141.996 131.656 163.176 119.919C193.47 103.131 189.979 74.571 189.979 74.571C189.979 74.571 172.409 91.2409 167.102 94.1753C154.632 101.088 123.571 90.4707 123.571 90.4707L115.214 120.843Z" fill="#E30613" stroke="#1B1A1A" stroke-width="3" stroke-miterlimit="10"/>
<path d="M120.576 115.053C131.973 113.746 149.177 111.027 161.651 90.2727C179.492 60.5867 162.188 37.5986 162.188 37.5986C162.188 37.5986 155.307 60.8202 152.178 66.015C144.836 78.2363 112.628 84.5718 112.628 84.5718L120.576 115.053Z" fill="#E30613" stroke="#1B1A1A" stroke-width="3" stroke-miterlimit="10"/>
<path d="M86.1961 134.761C77.213 141.896 63.1253 152.138 39.6293 146.283C6.02227 137.907 2.00305 109.417 2.00305 109.417C2.00305 109.417 23.2889 120.971 29.1746 122.432C43.0082 125.882 70.2627 107.587 70.2627 107.587L86.1961 134.761Z" fill="#E30613" stroke="#1B1A1A" stroke-width="3" stroke-miterlimit="10"/>
<path d="M84.8786 120.843C74.355 125.409 58.0965 131.656 36.9165 119.919C6.6223 103.131 10.114 74.571 10.114 74.571C10.114 74.571 27.6841 91.2409 32.9911 94.1753C45.4604 101.088 76.5213 90.4707 76.5213 90.4707L84.8786 120.843Z" fill="#E30613" stroke="#1B1A1A" stroke-width="3" stroke-miterlimit="10"/>
<path d="M79.5168 115.053C68.1198 113.746 50.916 111.027 38.442 90.2727C20.6005 60.5867 37.9045 37.5986 37.9045 37.5986C37.9045 37.5986 44.7857 60.8202 47.9146 66.015C55.2569 78.2363 87.4651 84.5718 87.4651 84.5718L79.5168 115.053Z" fill="#E30613" stroke="#1B1A1A" stroke-width="3" stroke-miterlimit="10"/>
<path d="M100.5 210C128.39 210 151 174.63 151 131C151 87.3695 128.39 52 100.5 52C72.6096 52 50 87.3695 50 131C50 174.63 72.6096 210 100.5 210Z" fill="#FFDE00" stroke="#1B1A1A" stroke-width="3" stroke-miterlimit="10"/>
</svg>
