<svg width="212" height="167" viewBox="0 0 212 167" fill="none" xmlns="http://www.w3.org/2000/svg">
<path d="M2 113H210C204.182 59.7186 159.843 2 106 2C52.1569 2 7.81764 59.7186 2 113Z" fill="#FFDE00" stroke="#1B1A1A" stroke-width="3" stroke-miterlimit="10"/>
<path d="M66.1213 165H145.769C163.371 165 177.633 150.732 177.633 133.138V101.234C177.633 61.6434 145.537 29.5493 105.945 29.5493C66.3533 29.5493 34.2578 61.6434 34.2578 101.234V133.138C34.2578 150.732 48.5194 165 66.1213 165Z" fill="#009FE3" stroke="#1B1A1A" stroke-width="3" stroke-miterlimit="10"/>
<path d="M89.8365 31.3638L89.9913 32.6507L105.948 60.2795L121.904 32.6507L122.059 31.3638C116.883 30.1754 111.489 29.5496 105.948 29.5496C100.406 29.5425 95.0194 30.1754 89.8365 31.3638Z" fill="#E30613" stroke="#1B1A1A" stroke-width="3" stroke-miterlimit="10"/>
<path d="M170.821 70.6861C166.208 60.9116 159.45 52.3396 151.152 45.5959L139.049 75.3132L170.821 70.6861Z" fill="#E30613" stroke="#1B1A1A" stroke-width="3" stroke-miterlimit="10"/>
<path d="M177.635 101.235C177.635 90.3068 175.188 79.9556 170.821 70.6874L147.312 92.6273L177.635 101.235Z" fill="#FFDE00" stroke="#1B1A1A" stroke-width="3" stroke-miterlimit="10"/>
<path d="M151.159 45.5893C142.811 38.7964 132.903 33.8458 122.059 31.3565L125.132 64.3859L151.159 45.5893Z" fill="#FFDE00" stroke="#1B1A1A" stroke-width="3" stroke-miterlimit="10"/>
<path d="M177.635 133.141V101.237L150.005 117.186L177.635 133.141Z" fill="#E30613" stroke="#1B1A1A" stroke-width="3" stroke-miterlimit="10"/>
<path d="M41.0748 70.6861C45.688 60.9116 52.4461 52.3396 60.7442 45.5959L72.8468 75.3132L41.0748 70.6861Z" fill="#E30613" stroke="#1B1A1A" stroke-width="3" stroke-miterlimit="10"/>
<path d="M34.2596 101.235C34.2596 90.3068 36.7069 79.9556 41.074 70.6874L64.583 92.6273L34.2596 101.235Z" fill="#FFDE00" stroke="#1B1A1A" stroke-width="3" stroke-miterlimit="10"/>
<path d="M60.744 45.5893C69.0914 38.7964 78.9999 33.8458 89.8437 31.3565L86.7706 64.3859L60.744 45.5893Z" fill="#FFDE00" stroke="#1B1A1A" stroke-width="3" stroke-miterlimit="10"/>
<path d="M34.2596 133.141V101.237L61.8896 117.186L34.2596 133.141Z" fill="#E30613" stroke="#1B1A1A" stroke-width="3" stroke-miterlimit="10"/>
</svg>
