<svg width="207" height="179" viewBox="0 0 207 179" fill="none" xmlns="http://www.w3.org/2000/svg">
<path d="M116.897 101.761C125.88 108.896 139.967 119.138 163.463 113.283C197.07 104.907 201.09 76.4165 201.09 76.4165C201.09 76.4165 179.804 87.9709 173.918 89.4318C160.085 92.8817 132.83 74.587 132.83 74.587L116.897 101.761Z" fill="#E30613" stroke="#1B1A1A" stroke-width="3" stroke-miterlimit="10"/>
<path d="M118.214 87.8427C128.738 92.4092 144.996 98.6561 166.176 86.9195C196.47 70.1314 192.979 41.5711 192.979 41.5711C192.979 41.5711 175.409 58.241 170.101 61.1754C157.632 68.0882 126.571 57.4708 126.571 57.4708L118.214 87.8427Z" fill="#E30613" stroke="#1B1A1A" stroke-width="3" stroke-miterlimit="10"/>
<path d="M123.576 82.0533C134.973 80.7462 152.177 78.0269 164.651 57.2727C182.492 27.5867 165.188 4.59863 165.188 4.59863C165.188 4.59863 158.307 27.8202 155.178 33.015C147.836 45.2363 115.628 51.5718 115.628 51.5718L123.576 82.0533Z" fill="#E30613" stroke="#1B1A1A" stroke-width="3" stroke-miterlimit="10"/>
<path d="M89.1961 101.761C80.213 108.896 66.1253 119.138 42.6293 113.283C9.02227 104.907 5.00305 76.4165 5.00305 76.4165C5.00305 76.4165 26.2889 87.9709 32.1746 89.4318C46.0082 92.8817 73.2627 74.587 73.2627 74.587L89.1961 101.761Z" fill="#E30613" stroke="#1B1A1A" stroke-width="3" stroke-miterlimit="10"/>
<path d="M87.8787 87.8427C77.3551 92.4092 61.0966 98.6561 39.9166 86.9195C9.62242 70.1314 13.1141 41.5711 13.1141 41.5711C13.1141 41.5711 30.6842 58.241 35.9912 61.1754C48.4605 68.0882 79.5214 57.4708 79.5214 57.4708L87.8787 87.8427Z" fill="#E30613" stroke="#1B1A1A" stroke-width="3" stroke-miterlimit="10"/>
<path d="M82.5165 82.0533C71.1196 80.7462 53.9158 78.0269 41.4417 57.2727C23.6002 27.5867 40.9043 4.59863 40.9043 4.59863C40.9043 4.59863 47.7855 27.8202 50.9143 33.015C58.2566 45.2363 90.4648 51.5718 90.4648 51.5718L82.5165 82.0533Z" fill="#E30613" stroke="#1B1A1A" stroke-width="3" stroke-miterlimit="10"/>
<path d="M103.5 177C131.39 177 154 141.63 154 98C154 54.3695 131.39 19 103.5 19C75.6096 19 53 54.3695 53 98C53 141.63 75.6096 177 103.5 177Z" fill="#FFDE00" stroke="#1B1A1A" stroke-width="3" stroke-miterlimit="10"/>
</svg>
