<svg width="212" height="185" viewBox="0 0 212 185" fill="none" xmlns="http://www.w3.org/2000/svg">
<path d="M2 113H210C204.182 59.7186 159.843 2 106 2C52.1569 2 7.81764 59.7186 2 113Z" fill="#FFDE00" stroke="#1B1A1A" stroke-width="3" stroke-miterlimit="10"/>
<path d="M66.1213 183H145.769C163.371 183 177.633 168.732 177.633 151.138V101.234C177.633 61.6434 145.537 29.5493 105.945 29.5493C66.3533 29.5493 34.2578 61.6434 34.2578 101.234V151.138C34.2578 168.732 48.5194 183 66.1213 183Z" fill="#009FE3" stroke="#1B1A1A" stroke-width="3" stroke-miterlimit="10"/>
<path d="M89.8364 31.3638L89.9911 32.6506L105.947 60.2794L121.904 32.6506L122.059 31.3638C116.883 30.1753 111.489 29.5495 105.947 29.5495C100.406 29.5425 95.0192 30.1753 89.8364 31.3638Z" fill="#E30613" stroke="#1B1A1A" stroke-width="3" stroke-miterlimit="10"/>
<path d="M170.821 70.6862C166.208 60.9117 159.45 52.3397 151.152 45.5959L139.049 75.3133L170.821 70.6862Z" fill="#E30613" stroke="#1B1A1A" stroke-width="3" stroke-miterlimit="10"/>
<path d="M177.635 101.235C177.635 90.3068 175.188 79.9557 170.821 70.6875L147.312 92.6274L177.635 101.235Z" fill="#FFDE00" stroke="#1B1A1A" stroke-width="3" stroke-miterlimit="10"/>
<path d="M151.158 45.5894C142.811 38.7964 132.902 33.8459 122.059 31.3566L125.132 64.386L151.158 45.5894Z" fill="#FFDE00" stroke="#1B1A1A" stroke-width="3" stroke-miterlimit="10"/>
<path d="M41.0747 70.6862C45.6879 60.9117 52.446 52.3397 60.7441 45.5959L72.8467 75.3133L41.0747 70.6862Z" fill="#E30613" stroke="#1B1A1A" stroke-width="3" stroke-miterlimit="10"/>
<path d="M34.2598 101.235C34.2598 90.3068 36.707 79.9557 41.0741 70.6875L64.5831 92.6274L34.2598 101.235Z" fill="#FFDE00" stroke="#1B1A1A" stroke-width="3" stroke-miterlimit="10"/>
<path d="M60.7441 45.5894C69.0915 38.7964 79 33.8459 89.8439 31.3566L86.7708 64.386L60.7441 45.5894Z" fill="#FFDE00" stroke="#1B1A1A" stroke-width="3" stroke-miterlimit="10"/>
</svg>
