<svg width="131" height="59" viewBox="0 0 131 59" fill="none" xmlns="http://www.w3.org/2000/svg">
<path d="M101.93 57C117.118 57 129.43 44.6878 129.43 29.5C129.43 14.3122 117.118 2 101.93 2C86.7423 2 74.4302 14.3122 74.4302 29.5C74.4302 44.6878 86.7423 57 101.93 57Z" fill="#E30613" stroke="#1B1A1A" stroke-width="3" stroke-miterlimit="10"/>
<path d="M101.933 37.599C114.838 37.599 125.3 34.0826 125.3 29.7448C125.3 25.4071 114.838 21.8906 101.933 21.8906C89.0273 21.8906 78.5656 25.4071 78.5656 29.7448C78.5656 34.0826 89.0273 37.599 101.933 37.599Z" fill="#FFFBF1" stroke="#1B1A1A" stroke-width="3" stroke-miterlimit="10"/>
<path d="M101.932 36.7448C106.17 36.7448 109.606 33.309 109.606 29.0707C109.606 24.8325 106.17 21.3967 101.932 21.3967C97.6937 21.3967 94.2579 24.8325 94.2579 29.0707C94.2579 33.309 97.6937 36.7448 101.932 36.7448Z" fill="#1B1A1A" stroke="#1B1A1A" stroke-width="3" stroke-miterlimit="10"/>
<path d="M29.2977 57C44.4856 57 56.7977 44.6878 56.7977 29.5C56.7977 14.3122 44.4856 2 29.2977 2C14.1099 2 1.79773 14.3122 1.79773 29.5C1.79773 44.6878 14.1099 57 29.2977 57Z" fill="#E30613" stroke="#1B1A1A" stroke-width="3" stroke-miterlimit="10"/>
<path d="M29.3002 37.599C42.2055 37.599 52.6673 34.0826 52.6673 29.7448C52.6673 25.4071 42.2055 21.8906 29.3002 21.8906C16.395 21.8906 5.93323 25.4071 5.93323 29.7448C5.93323 34.0826 16.395 37.599 29.3002 37.599Z" fill="#FFFBF1" stroke="#1B1A1A" stroke-width="3" stroke-miterlimit="10"/>
<path d="M29.2997 36.7448C33.5379 36.7448 36.9737 33.309 36.9737 29.0707C36.9737 24.8325 33.5379 21.3967 29.2997 21.3967C25.0614 21.3967 21.6256 24.8325 21.6256 29.0707C21.6256 33.309 25.0614 36.7448 29.2997 36.7448Z" fill="#1B1A1A" stroke="#1B1A1A" stroke-width="3" stroke-miterlimit="10"/>
</svg>
