<svg width="219" height="68" viewBox="0 0 219 68" fill="none" xmlns="http://www.w3.org/2000/svg">
<path d="M111.102 18.1315C111.102 54.4225 349.599 18.1315 111.102 18.1315C349.599 18.1315 111.102 -18.1595 111.102 18.1315C-127.396 18.1315 111.102 -18.1643 111.102 18.1315C111.102 54.4274 -127.401 18.1315 111.102 18.1315Z" fill="#E30613"/>
<path d="M111.102 18.1315C349.599 18.1315 111.102 54.4225 111.102 18.1315ZM111.102 18.1315C111.102 -18.1595 349.599 18.1315 111.102 18.1315ZM111.102 18.1315C-127.396 18.1315 111.102 -18.1643 111.102 18.1315ZM111.102 18.1315C111.102 54.4274 -127.401 18.1315 111.102 18.1315Z" stroke="#1B1A1A" stroke-width="3" stroke-miterlimit="10"/>
<path d="M77.5538 15.188C74.4122 13.6732 69.175 12.8483 63.7593 12.8483C58.3436 12.8483 53.1063 13.6732 49.9647 15.188C48.7328 15.782 47.9125 16.3631 47.4193 16.8799C46.9335 17.389 46.8411 17.7493 46.8411 17.9627C46.8411 18.176 46.9335 18.5363 47.4193 19.0454C47.9125 19.5622 48.7328 20.1433 49.9647 20.7373C53.1063 22.2521 58.3436 23.0771 63.7593 23.0771C69.175 23.0771 74.4122 22.2521 77.5538 20.7373C78.7858 20.1433 79.606 19.5622 80.0992 19.0454C80.585 18.5363 80.6775 18.176 80.6775 17.9627C80.6775 17.7493 80.585 17.389 80.0992 16.8799C79.606 16.3631 78.7858 15.782 77.5538 15.188Z" fill="white" stroke="#1B1A1A" stroke-width="3"/>
<circle r="4.51175" transform="matrix(-1 0 0 1 63.8303 17.8835)" fill="#1B1A1A" stroke="#1B1A1A" stroke-width="3"/>
<path d="M143.173 15.188C146.314 13.6732 151.552 12.8483 156.967 12.8483C162.383 12.8483 167.62 13.6732 170.762 15.188C171.994 15.782 172.814 16.3631 173.307 16.8799C173.793 17.389 173.886 17.7493 173.886 17.9627C173.886 18.176 173.793 18.5363 173.307 19.0454C172.814 19.5622 171.994 20.1433 170.762 20.7373C167.62 22.2521 162.383 23.0771 156.967 23.0771C151.552 23.0771 146.314 22.2521 143.173 20.7373C141.941 20.1433 141.121 19.5622 140.627 19.0454C140.142 18.5363 140.049 18.176 140.049 17.9627C140.049 17.7493 140.142 17.389 140.627 16.8799C141.121 16.3631 141.941 15.782 143.173 15.188Z" fill="white" stroke="#1B1A1A" stroke-width="3"/>
<circle cx="156.896" cy="17.8835" r="4.51175" fill="#1B1A1A" stroke="#1B1A1A" stroke-width="3"/>
<path d="M108.102 50.1315C108.102 86.4225 346.599 50.1315 108.102 50.1315C346.599 50.1315 108.102 13.8405 108.102 50.1315C-130.396 50.1315 108.102 13.8357 108.102 50.1315C108.102 86.4274 -130.401 50.1315 108.102 50.1315Z" fill="#E30613"/>
<path d="M108.102 50.1315C346.599 50.1315 108.102 86.4225 108.102 50.1315ZM108.102 50.1315C108.102 13.8405 346.599 50.1315 108.102 50.1315ZM108.102 50.1315C-130.396 50.1315 108.102 13.8357 108.102 50.1315ZM108.102 50.1315C108.102 86.4274 -130.401 50.1315 108.102 50.1315Z" stroke="#1B1A1A" stroke-width="3" stroke-miterlimit="10"/>
<path d="M74.5538 47.188C71.4122 45.6732 66.175 44.8483 60.7593 44.8483C55.3436 44.8483 50.1063 45.6732 46.9647 47.188C45.7328 47.782 44.9125 48.3631 44.4193 48.8799C43.9335 49.389 43.8411 49.7493 43.8411 49.9627C43.8411 50.176 43.9335 50.5363 44.4193 51.0454C44.9125 51.5622 45.7328 52.1433 46.9647 52.7373C50.1063 54.2521 55.3436 55.0771 60.7593 55.0771C66.175 55.0771 71.4122 54.2521 74.5538 52.7373C75.7858 52.1433 76.606 51.5622 77.0992 51.0454C77.585 50.5363 77.6775 50.176 77.6775 49.9627C77.6775 49.7493 77.585 49.389 77.0992 48.8799C76.606 48.3631 75.7858 47.782 74.5538 47.188Z" fill="white" stroke="#1B1A1A" stroke-width="3"/>
<circle r="4.51175" transform="matrix(-1 0 0 1 60.8303 49.8835)" fill="#1B1A1A" stroke="#1B1A1A" stroke-width="3"/>
<path d="M140.173 47.188C143.314 45.6732 148.552 44.8483 153.967 44.8483C159.383 44.8483 164.62 45.6732 167.762 47.188C168.994 47.782 169.814 48.3631 170.307 48.8799C170.793 49.389 170.886 49.7493 170.886 49.9627C170.886 50.176 170.793 50.5363 170.307 51.0454C169.814 51.5622 168.994 52.1433 167.762 52.7373C164.62 54.2521 159.383 55.0771 153.967 55.0771C148.552 55.0771 143.314 54.2521 140.173 52.7373C138.941 52.1433 138.121 51.5622 137.627 51.0454C137.142 50.5363 137.049 50.176 137.049 49.9627C137.049 49.7493 137.142 49.389 137.627 48.8799C138.121 48.3631 138.941 47.782 140.173 47.188Z" fill="white" stroke="#1B1A1A" stroke-width="3"/>
<circle cx="153.896" cy="49.8835" r="4.51175" fill="#1B1A1A" stroke="#1B1A1A" stroke-width="3"/>
</svg>
