<svg width="83" height="83" viewBox="0 0 83 83" fill="none" xmlns="http://www.w3.org/2000/svg">
<path d="M41.3988 80.7943C63.1582 80.7943 80.7977 63.1556 80.7977 41.3971C80.7977 19.6387 63.1582 2 41.3988 2C19.6395 2 2 19.6387 2 41.3971C2 63.1556 19.6395 80.7943 41.3988 80.7943Z" fill="#FFDE00" stroke="#1B1A1A" stroke-width="3" stroke-miterlimit="10"/>
<path d="M41.3986 80.7944C57.9094 80.7944 71.2941 67.4103 71.2941 50.9002C71.2941 34.3901 57.9094 21.006 41.3986 21.006C24.8877 21.006 11.5031 34.3901 11.5031 50.9002C11.5031 67.4103 24.8877 80.7944 41.3986 80.7944Z" fill="#E30613" stroke="#1B1A1A" stroke-width="3" stroke-miterlimit="10"/>
<path d="M41.4003 58.6087C55.0243 58.6087 66.0687 54.8965 66.0687 50.3174C66.0687 45.7382 55.0243 42.0261 41.4003 42.0261C27.7763 42.0261 16.7319 45.7382 16.7319 50.3174C16.7319 54.8965 27.7763 58.6087 41.4003 58.6087Z" fill="#FFFBF1" stroke="#1B1A1A" stroke-width="3" stroke-miterlimit="10"/>
<path d="M41.398 58.5828C45.8723 58.5828 49.4995 54.9558 49.4995 50.4817C49.4995 46.0076 45.8723 42.3806 41.398 42.3806C36.9237 42.3806 33.2966 46.0076 33.2966 50.4817C33.2966 54.9558 36.9237 58.5828 41.398 58.5828Z" fill="#1B1A1A" stroke="#1B1A1A" stroke-width="3" stroke-miterlimit="10"/>
</svg>
