<svg width="55" height="79" viewBox="0 0 55 79" fill="none" xmlns="http://www.w3.org/2000/svg">
<path d="M27.5101 47.3056C41.599 47.3056 53.0203 43.4668 53.0203 38.7314C53.0203 33.996 41.599 30.1572 27.5101 30.1572C13.4213 30.1572 2 33.996 2 38.7314C2 43.4668 13.4213 47.3056 27.5101 47.3056Z" fill="#FFFBF1" stroke="#1B1A1A" stroke-width="3" stroke-miterlimit="10"/>
<path d="M27.5101 47.281C32.1371 47.281 35.888 43.5303 35.888 38.9035C35.888 34.2767 32.1371 30.5259 27.5101 30.5259C22.8831 30.5259 19.1322 34.2767 19.1322 38.9035C19.1322 43.5303 22.8831 47.281 27.5101 47.281Z" fill="#1B1A1A" stroke="#1B1A1A" stroke-width="3" stroke-miterlimit="10"/>
<path d="M27.5101 19.1484C41.599 19.1484 53.0203 15.3096 53.0203 10.5742C53.0203 5.83879 41.599 2 27.5101 2C13.4213 2 2 5.83879 2 10.5742C2 15.3096 13.4213 19.1484 27.5101 19.1484Z" fill="#FFFBF1" stroke="#1B1A1A" stroke-width="3" stroke-miterlimit="10"/>
<path d="M27.5113 19.1259C32.1383 19.1259 35.8892 15.3752 35.8892 10.7484C35.8892 6.1216 32.1383 2.37085 27.5113 2.37085C22.8843 2.37085 19.1334 6.1216 19.1334 10.7484C19.1334 15.3752 22.8843 19.1259 27.5113 19.1259Z" fill="#1B1A1A" stroke="#1B1A1A" stroke-width="3" stroke-miterlimit="10"/>
<path d="M27.5101 77C41.599 77 53.0203 73.1612 53.0203 68.4258C53.0203 63.6904 41.599 59.8516 27.5101 59.8516C13.4213 59.8516 2 63.6904 2 68.4258C2 73.1612 13.4213 77 27.5101 77Z" fill="#FFFBF1" stroke="#1B1A1A" stroke-width="3" stroke-miterlimit="10"/>
<path d="M27.5113 76.9753C32.1383 76.9753 35.8892 73.2246 35.8892 68.5978C35.8892 63.971 32.1383 60.2203 27.5113 60.2203C22.8843 60.2203 19.1334 63.971 19.1334 68.5978C19.1334 73.2246 22.8843 76.9753 27.5113 76.9753Z" fill="#1B1A1A" stroke="#1B1A1A" stroke-width="3" stroke-miterlimit="10"/>
</svg>
