<svg width="225" height="135" viewBox="0 0 225 135" fill="none" xmlns="http://www.w3.org/2000/svg">
<path d="M41.0001 31.0164C43.5414 23.581 47.8751 12.4714 63.5847 7.15642C86.0516 -0.446076 98.9041 14.4958 98.9041 14.4958C98.9041 14.4958 82.3618 15.7092 78.4275 17.0403C69.1782 20.1698 67.6676 30.3261 67.6676 30.3261C64.9126 31.2547 41.0001 31.0164 41.0001 31.0164Z" fill="#E30613" stroke="#1B1A1A" stroke-width="3" stroke-miterlimit="10"/>
<path d="M66.9052 48.0275C64.3638 55.4628 60.0302 66.5725 44.3206 71.8874C21.8536 79.4899 9.00122 64.548 9.00122 64.548C9.00122 64.548 25.5434 63.3346 29.4778 62.0036C38.7271 58.874 40.2377 48.7178 40.2377 48.7178C42.9927 47.7891 66.9052 48.0275 66.9052 48.0275Z" fill="#E30613" stroke="#1B1A1A" stroke-width="3" stroke-miterlimit="10"/>
<path d="M52.0252 31.0003C38.205 31.0003 27.0014 34.7671 27.0014 39.4138C27.0014 44.0604 38.205 47.8273 52.0252 47.8273C65.8455 47.8273 77.0491 44.0604 77.0491 39.4138C77.0491 34.7671 65.8455 31.0003 52.0252 31.0003Z" fill="#FFFBF1" stroke="#1B1A1A" stroke-width="3" stroke-miterlimit="10"/>
<path d="M52.0252 31.3622C47.4846 31.3622 43.8037 35.0432 43.8037 39.5838C43.8037 44.1245 47.4846 47.8054 52.0252 47.8054C56.5659 47.8054 60.2468 44.1245 60.2468 39.5838C60.2468 35.0432 56.5659 31.3622 52.0252 31.3622Z" fill="#1B1A1A" stroke="#1B1A1A" stroke-width="3" stroke-miterlimit="10"/>
<path d="M82.0238 21.8271C95.8441 21.8271 107.048 18.0602 107.048 13.4136C107.048 8.76691 95.8441 5.00006 82.0238 5.00006C68.2036 5.00006 57 8.76691 57 13.4136C57 18.0602 68.2036 21.8271 82.0238 21.8271Z" fill="#FFFBF1" stroke="#1B1A1A" stroke-width="3" stroke-miterlimit="10"/>
<path d="M82.0241 21.806C86.5647 21.806 90.2457 18.1251 90.2457 13.5844C90.2457 9.04378 86.5647 5.36285 82.0241 5.36285C77.4834 5.36285 73.8025 9.04378 73.8025 13.5844C73.8025 18.1251 77.4834 21.806 82.0241 21.806Z" fill="#1B1A1A" stroke="#1B1A1A" stroke-width="3" stroke-miterlimit="10"/>
<path d="M27.0238 73.827C40.8441 73.827 52.0477 70.0602 52.0477 65.4135C52.0477 60.7669 40.8441 57 27.0238 57C13.2036 57 2 60.7669 2 65.4135C2 70.0602 13.2036 73.827 27.0238 73.827Z" fill="#FFFBF1" stroke="#1B1A1A" stroke-width="3" stroke-miterlimit="10"/>
<path d="M27.0241 73.806C31.5647 73.806 35.2457 70.125 35.2457 65.5844C35.2457 61.0437 31.5647 57.3628 27.0241 57.3628C22.4834 57.3628 18.8025 61.0437 18.8025 65.5844C18.8025 70.125 22.4834 73.806 27.0241 73.806Z" fill="#1B1A1A" stroke="#1B1A1A" stroke-width="3" stroke-miterlimit="10"/>
<path d="M184.048 28.0164C181.506 20.581 177.172 9.47135 161.463 4.15642C138.996 -3.44608 126.144 11.4958 126.144 11.4958C126.144 11.4958 142.686 12.7092 146.62 14.0403C155.869 17.1698 157.38 27.3261 157.38 27.3261C160.135 28.2547 184.048 28.0164 184.048 28.0164Z" fill="#E30613" stroke="#1B1A1A" stroke-width="3" stroke-miterlimit="10"/>
<path d="M158.142 45.0275C160.684 52.4628 165.017 63.5725 180.727 68.8874C203.194 76.4899 216.046 61.548 216.046 61.548C216.046 61.548 199.504 60.3346 195.57 59.0036C186.321 55.874 184.81 45.7178 184.81 45.7178C182.055 44.7891 158.142 45.0275 158.142 45.0275Z" fill="#E30613" stroke="#1B1A1A" stroke-width="3" stroke-miterlimit="10"/>
<path d="M173.022 28.0003C186.843 28.0003 198.046 31.7671 198.046 36.4138C198.046 41.0604 186.843 44.8273 173.022 44.8273C159.202 44.8273 147.999 41.0604 147.999 36.4138C147.999 31.7671 159.202 28.0003 173.022 28.0003Z" fill="#FFFBF1" stroke="#1B1A1A" stroke-width="3" stroke-miterlimit="10"/>
<path d="M173.022 28.3622C177.563 28.3622 181.244 32.0432 181.244 36.5838C181.244 41.1245 177.563 44.8054 173.022 44.8054C168.482 44.8054 164.801 41.1245 164.801 36.5838C164.801 32.0432 168.482 28.3622 173.022 28.3622Z" fill="#1B1A1A" stroke="#1B1A1A" stroke-width="3" stroke-miterlimit="10"/>
<path d="M143.024 18.8271C129.203 18.8271 118 15.0602 118 10.4136C118 5.76691 129.203 2.00006 143.024 2.00006C156.844 2.00006 168.048 5.76691 168.048 10.4136C168.048 15.0602 156.844 18.8271 143.024 18.8271Z" fill="#FFFBF1" stroke="#1B1A1A" stroke-width="3" stroke-miterlimit="10"/>
<path d="M143.024 18.806C138.483 18.806 134.802 15.1251 134.802 10.5844C134.802 6.04378 138.483 2.36285 143.024 2.36285C147.564 2.36285 151.245 6.04378 151.245 10.5844C151.245 15.1251 147.564 18.806 143.024 18.806Z" fill="#1B1A1A" stroke="#1B1A1A" stroke-width="3" stroke-miterlimit="10"/>
<path d="M198.024 70.827C184.203 70.827 173 67.0602 173 62.4135C173 57.7669 184.203 54 198.024 54C211.844 54 223.048 57.7669 223.048 62.4135C223.048 67.0602 211.844 70.827 198.024 70.827Z" fill="#FFFBF1" stroke="#1B1A1A" stroke-width="3" stroke-miterlimit="10"/>
<path d="M198.024 70.806C193.483 70.806 189.802 67.125 189.802 62.5844C189.802 58.0437 193.483 54.3628 198.024 54.3628C202.564 54.3628 206.245 58.0437 206.245 62.5844C206.245 67.125 202.564 70.806 198.024 70.806Z" fill="#1B1A1A" stroke="#1B1A1A" stroke-width="3" stroke-miterlimit="10"/>
<path d="M80.9836 94.0476C88.419 91.5062 99.5287 87.1726 104.844 71.463C112.446 48.996 97.5042 36.1436 97.5042 36.1436C97.5042 36.1436 96.2908 52.6858 94.9597 56.6202C91.8302 65.8695 81.6739 67.3801 81.6739 67.3801C80.7453 70.1351 80.9836 94.0476 80.9836 94.0476Z" fill="#E30613" stroke="#1B1A1A" stroke-width="3" stroke-miterlimit="10"/>
<path d="M63.9726 68.1423C56.5373 70.6837 45.4276 75.0174 40.1127 90.7269C32.5102 113.194 47.4521 126.046 47.4521 126.046C47.4521 126.046 48.6655 109.504 49.9966 105.57C53.1261 96.3205 63.2824 94.8099 63.2824 94.8099C64.211 92.0549 63.9726 68.1423 63.9726 68.1423Z" fill="#E30613" stroke="#1B1A1A" stroke-width="3" stroke-miterlimit="10"/>
<path d="M80.9999 83.0224C80.9999 96.8427 77.233 108.046 72.5864 108.046C67.9397 108.046 64.1728 96.8427 64.1729 83.0224C64.1729 69.2021 67.9397 57.9986 72.5864 57.9986C77.233 57.9986 80.9999 69.2021 80.9999 83.0224Z" fill="#FFFBF1" stroke="#1B1A1A" stroke-width="3" stroke-miterlimit="10"/>
<path d="M80.638 83.0225C80.638 87.5631 76.9571 91.2441 72.4164 91.2441C67.8758 91.2441 64.1948 87.5631 64.1948 83.0225C64.1948 78.4818 67.8758 74.8009 72.4164 74.8009C76.9571 74.8009 80.638 78.4818 80.638 83.0225Z" fill="#1B1A1A" stroke="#1B1A1A" stroke-width="3" stroke-miterlimit="10"/>
<path d="M90.173 53.0238C90.173 39.2035 93.9398 28 98.5865 28C103.233 28 107 39.2035 107 53.0238C107 66.8441 103.233 78.0477 98.5865 78.0477C93.9398 78.0477 90.173 66.8441 90.173 53.0238Z" fill="#FFFBF1" stroke="#1B1A1A" stroke-width="3" stroke-miterlimit="10"/>
<path d="M90.194 53.0237C90.194 48.4831 93.875 44.8021 98.4156 44.8021C102.956 44.8021 106.637 48.4831 106.637 53.0237C106.637 57.5644 102.956 61.2453 98.4156 61.2453C93.875 61.2453 90.194 57.5644 90.194 53.0237Z" fill="#1B1A1A" stroke="#1B1A1A" stroke-width="3" stroke-miterlimit="10"/>
<path d="M38.173 108.024C38.173 94.2035 41.9398 83 46.5865 83C51.2331 83 55 94.2035 55 108.024C55 121.844 51.2331 133.048 46.5865 133.048C41.9398 133.048 38.173 121.844 38.173 108.024Z" fill="#FFFBF1" stroke="#1B1A1A" stroke-width="3" stroke-miterlimit="10"/>
<path d="M38.194 108.024C38.194 103.483 41.875 99.8021 46.4156 99.8021C50.9563 99.8021 54.6372 103.483 54.6372 108.024C54.6372 112.564 50.9563 116.245 46.4156 116.245C41.875 116.245 38.194 112.564 38.194 108.024Z" fill="#1B1A1A" stroke="#1B1A1A" stroke-width="3" stroke-miterlimit="10"/>
<path d="M144.016 94.0476C136.581 91.5062 125.471 87.1726 120.156 71.463C112.554 48.996 127.496 36.1436 127.496 36.1436C127.496 36.1436 128.709 52.6858 130.04 56.6202C133.17 65.8695 143.326 67.3801 143.326 67.3801C144.255 70.1351 144.016 94.0476 144.016 94.0476Z" fill="#E30613" stroke="#1B1A1A" stroke-width="3" stroke-miterlimit="10"/>
<path d="M161.027 68.1423C168.463 70.6837 179.572 75.0174 184.887 90.7269C192.49 113.194 177.548 126.046 177.548 126.046C177.548 126.046 176.334 109.504 175.003 105.57C171.874 96.3205 161.718 94.8099 161.718 94.8099C160.789 92.0549 161.027 68.1423 161.027 68.1423Z" fill="#E30613" stroke="#1B1A1A" stroke-width="3" stroke-miterlimit="10"/>
<path d="M144 83.0224C144 96.8427 147.767 108.046 152.414 108.046C157.06 108.046 160.827 96.8427 160.827 83.0224C160.827 69.2021 157.06 57.9986 152.414 57.9986C147.767 57.9986 144 69.2021 144 83.0224Z" fill="#FFFBF1" stroke="#1B1A1A" stroke-width="3" stroke-miterlimit="10"/>
<path d="M144.362 83.0225C144.362 87.5631 148.043 91.2441 152.584 91.2441C157.124 91.2441 160.805 87.5631 160.805 83.0225C160.805 78.4818 157.124 74.8009 152.584 74.8009C148.043 74.8009 144.362 78.4818 144.362 83.0225Z" fill="#1B1A1A" stroke="#1B1A1A" stroke-width="3" stroke-miterlimit="10"/>
<path d="M134.827 53.0238C134.827 39.2035 131.06 28 126.414 28C121.767 28 118 39.2035 118 53.0238C118 66.8441 121.767 78.0477 126.414 78.0477C131.06 78.0477 134.827 66.8441 134.827 53.0238Z" fill="#FFFBF1" stroke="#1B1A1A" stroke-width="3" stroke-miterlimit="10"/>
<path d="M134.806 53.0237C134.806 48.4831 131.125 44.8021 126.584 44.8021C122.044 44.8021 118.363 48.4831 118.363 53.0237C118.363 57.5644 122.044 61.2453 126.584 61.2453C131.125 61.2453 134.806 57.5644 134.806 53.0237Z" fill="#1B1A1A" stroke="#1B1A1A" stroke-width="3" stroke-miterlimit="10"/>
<path d="M186.827 108.024C186.827 94.2035 183.06 83 178.414 83C173.767 83 170 94.2035 170 108.024C170 121.844 173.767 133.048 178.414 133.048C183.06 133.048 186.827 121.844 186.827 108.024Z" fill="#FFFBF1" stroke="#1B1A1A" stroke-width="3" stroke-miterlimit="10"/>
<path d="M186.806 108.024C186.806 103.483 183.125 99.8021 178.584 99.8021C174.044 99.8021 170.363 103.483 170.363 108.024C170.363 112.564 174.044 116.245 178.584 116.245C183.125 116.245 186.806 112.564 186.806 108.024Z" fill="#1B1A1A" stroke="#1B1A1A" stroke-width="3" stroke-miterlimit="10"/>
</svg>
