<svg width="114" height="138" viewBox="0 0 114 138" fill="none" xmlns="http://www.w3.org/2000/svg">
<path d="M86.0278 19.5461C100.439 19.5461 112.121 15.6183 112.121 10.7731C112.121 5.92783 100.439 2 86.0278 2C71.6169 2 59.9346 5.92783 59.9346 10.7731C59.9346 15.6183 71.6169 19.5461 86.0278 19.5461Z" fill="#FFFBF1" stroke="#1B1A1A" stroke-width="3" stroke-miterlimit="10"/>
<path d="M86.0285 19.527C90.7632 19.527 94.6014 15.6888 94.6014 10.9541C94.6014 6.2194 90.7632 2.38116 86.0285 2.38116C81.2938 2.38116 77.4556 6.2194 77.4556 10.9541C77.4556 15.6888 81.2938 19.527 86.0285 19.527Z" fill="#1B1A1A" stroke="#1B1A1A" stroke-width="3" stroke-miterlimit="10"/>
<path d="M86.0288 66.1296C100.44 66.1296 112.122 62.2018 112.122 57.3566C112.122 52.5113 100.44 48.5835 86.0288 48.5835C71.6179 48.5835 59.9355 52.5113 59.9355 57.3566C59.9355 62.2018 71.6179 66.1296 86.0288 66.1296Z" fill="#FFFBF1" stroke="#1B1A1A" stroke-width="3" stroke-miterlimit="10"/>
<path d="M86.0295 66.1083C90.7642 66.1083 94.6024 62.27 94.6024 57.5353C94.6024 52.8006 90.7642 48.9624 86.0295 48.9624C81.2948 48.9624 77.4565 52.8006 77.4565 57.5353C77.4565 62.27 81.2948 66.1083 86.0295 66.1083Z" fill="#1B1A1A" stroke="#1B1A1A" stroke-width="3" stroke-miterlimit="10"/>
<path d="M86.0288 112.711C100.44 112.711 112.122 108.783 112.122 103.938C112.122 99.0924 100.44 95.1646 86.0288 95.1646C71.6179 95.1646 59.9355 99.0924 59.9355 103.938C59.9355 108.783 71.6179 112.711 86.0288 112.711Z" fill="#FFFBF1" stroke="#1B1A1A" stroke-width="3" stroke-miterlimit="10"/>
<path d="M86.0295 112.687C90.7642 112.687 94.6024 108.849 94.6024 104.114C94.6024 99.3796 90.7642 95.5413 86.0295 95.5413C81.2948 95.5413 77.4565 99.3796 77.4565 104.114C77.4565 108.849 81.2948 112.687 86.0295 112.687Z" fill="#1B1A1A" stroke="#1B1A1A" stroke-width="3" stroke-miterlimit="10"/>
<path d="M28.0932 42.8425C42.5041 42.8425 54.1864 38.9147 54.1864 34.0694C54.1864 29.2242 42.5041 25.2964 28.0932 25.2964C13.6823 25.2964 2 29.2242 2 34.0694C2 38.9147 13.6823 42.8425 28.0932 42.8425Z" fill="#FFFBF1" stroke="#1B1A1A" stroke-width="3" stroke-miterlimit="10"/>
<path d="M28.0934 42.8231C32.8281 42.8231 36.6664 38.9849 36.6664 34.2502C36.6664 29.5155 32.8281 25.6772 28.0934 25.6772C23.3587 25.6772 19.5205 29.5155 19.5205 34.2502C19.5205 38.9849 23.3587 42.8231 28.0934 42.8231Z" fill="#1B1A1A" stroke="#1B1A1A" stroke-width="3" stroke-miterlimit="10"/>
<path d="M28.0974 89.4165C42.5083 89.4165 54.1906 85.4886 54.1906 80.6434C54.1906 75.7982 42.5083 71.8704 28.0974 71.8704C13.6865 71.8704 2.00415 75.7982 2.00415 80.6434C2.00415 85.4886 13.6865 89.4165 28.0974 89.4165Z" fill="#FFFBF1" stroke="#1B1A1A" stroke-width="3" stroke-miterlimit="10"/>
<path d="M28.0969 89.3951C32.8316 89.3951 36.6698 85.5568 36.6698 80.8221C36.6698 76.0874 32.8316 72.2492 28.0969 72.2492C23.3622 72.2492 19.5239 76.0874 19.5239 80.8221C19.5239 85.5568 23.3622 89.3951 28.0969 89.3951Z" fill="#1B1A1A" stroke="#1B1A1A" stroke-width="3" stroke-miterlimit="10"/>
<path d="M28.0974 136C42.5083 136 54.1906 132.072 54.1906 127.227C54.1906 122.382 42.5083 118.454 28.0974 118.454C13.6865 118.454 2.00415 122.382 2.00415 127.227C2.00415 132.072 13.6865 136 28.0974 136Z" fill="#FFFBF1" stroke="#1B1A1A" stroke-width="3" stroke-miterlimit="10"/>
<path d="M28.0969 135.979C32.8316 135.979 36.6698 132.141 36.6698 127.406C36.6698 122.671 32.8316 118.833 28.0969 118.833C23.3622 118.833 19.5239 122.671 19.5239 127.406C19.5239 132.141 23.3622 135.979 28.0969 135.979Z" fill="#1B1A1A" stroke="#1B1A1A" stroke-width="3" stroke-miterlimit="10"/>
</svg>
