<svg width="58" height="126" viewBox="0 0 58 126" fill="none" xmlns="http://www.w3.org/2000/svg">
<path d="M29.0016 87.4865C14.0907 87.4865 2.00313 95.7666 2.00313 105.981C2.00313 116.194 14.0907 124.475 29.0016 124.475C43.9124 124.475 56 116.194 56 105.981C56 95.7666 43.9124 87.4865 29.0016 87.4865Z" fill="#009FE3" stroke="#1B1A1A" stroke-width="3" stroke-miterlimit="10"/>
<path d="M28.9984 73.2128C14.0876 73.2128 2.00002 81.4929 2.00002 91.7068C2.00002 101.921 14.0876 110.201 28.9984 110.201C43.9093 110.201 55.9969 101.921 55.9969 91.7068C55.9969 81.4929 43.9093 73.2128 28.9984 73.2128Z" fill="#E30613" stroke="#1B1A1A" stroke-width="3" stroke-miterlimit="10"/>
<path d="M29.0016 53.2615C14.0908 53.2615 2.00319 61.5415 2.00319 71.7555C2.00319 81.9695 14.0908 90.2495 29.0016 90.2495C43.9124 90.2495 56.0001 81.9694 56.0001 71.7555C56.0001 61.5415 43.9124 53.2615 29.0016 53.2615Z" fill="#FFDE00" stroke="#1B1A1A" stroke-width="3" stroke-miterlimit="10"/>
<path d="M29.0016 27.6308C14.0908 27.6308 2.00319 35.9109 2.00319 46.1249C2.00319 56.3389 14.0908 64.6189 29.0016 64.6189C43.9124 64.6189 56.0001 56.3389 56.0001 46.1249C56.0001 35.9109 43.9124 27.6308 29.0016 27.6308Z" fill="#E30613" stroke="#1B1A1A" stroke-width="3" stroke-miterlimit="10"/>
<path d="M28.9984 1.99998C14.0876 1.99998 2.00002 10.28 2.00002 20.494C2.00002 30.708 14.0876 38.988 28.9984 38.988C43.9093 38.988 55.9969 30.708 55.9969 20.494C55.9969 10.28 43.9093 1.99998 28.9984 1.99998Z" fill="#009FE3" stroke="#1B1A1A" stroke-width="3" stroke-miterlimit="10"/>
<path d="M28.8577 28.6864C42.0428 28.6864 52.7314 25.0938 52.7314 20.6622C52.7314 16.2306 42.0428 12.6381 28.8577 12.6381C15.6727 12.6381 4.98407 16.2306 4.98407 20.6622C4.98407 25.0938 15.6727 28.6864 28.8577 28.6864Z" fill="#FFFBF1" stroke="#1B1A1A" stroke-width="3" stroke-miterlimit="10"/>
<path d="M28.8572 28.6637C33.1874 28.6637 36.6977 25.1536 36.6977 20.8236C36.6977 16.4937 33.1874 12.9835 28.8572 12.9835C24.5271 12.9835 21.0168 16.4937 21.0168 20.8236C21.0168 25.1536 24.5271 28.6637 28.8572 28.6637Z" fill="#1B1A1A" stroke="#1B1A1A" stroke-width="3" stroke-miterlimit="10"/>
</svg>
