<svg width="133" height="135" viewBox="0 0 133 135" fill="none" xmlns="http://www.w3.org/2000/svg">
<path d="M26.1099 52.543C22.6493 59.5976 17.858 70.5177 25.2081 85.3843C35.7189 106.647 55.3724 105.169 55.3724 105.169C55.3724 105.169 44.5333 92.614 42.6925 88.8908C38.3652 80.1376 44.4786 71.8879 44.4786 71.8879C43.1872 69.2832 26.1099 52.543 26.1099 52.543Z" fill="#E30613" stroke="#1B1A1A" stroke-width="3" stroke-miterlimit="10"/>
<path d="M35.0219 63.593C44.7943 73.3654 55.3799 78.624 58.6656 75.3383C61.9513 72.0526 56.6928 61.4669 46.9204 51.6945C37.1479 41.9221 26.5623 36.6636 23.2766 39.9492C19.9909 43.2349 25.2494 53.8206 35.0219 63.593Z" fill="#FFFBF1" stroke="#1B1A1A" stroke-width="3" stroke-miterlimit="10"/>
<path d="M35.0368 63.5782C38.2475 66.7889 43.4532 66.7889 46.6639 63.5782C49.8746 60.3675 49.8746 55.1618 46.6639 51.9511C43.4532 48.7404 38.2475 48.7404 35.0368 51.9511C31.8261 55.1618 31.8261 60.3675 35.0368 63.5782Z" fill="#1B1A1A" stroke="#1B1A1A" stroke-width="3" stroke-miterlimit="10"/>
<path d="M85.2063 118.236C92.9997 117.301 104.754 115.385 113.149 101.259C125.156 81.057 113.145 65.5384 113.145 65.5384C113.145 65.5384 108.595 81.3133 106.493 84.8511C101.55 93.168 91.3028 92.5454 91.3028 92.5454C89.8339 95.0233 85.2063 118.236 85.2063 118.236Z" fill="#E30613" stroke="#1B1A1A" stroke-width="3" stroke-miterlimit="10"/>
<path d="M89.5551 104.873C92.3645 91.4857 90.9554 79.8594 86.4078 78.9051C81.8602 77.9508 75.8962 88.0299 73.0868 101.417C70.2774 114.805 71.6866 126.431 76.2342 127.385C80.7818 128.34 86.7458 118.261 89.5551 104.873Z" fill="#FFFBF1" stroke="#1B1A1A" stroke-width="3" stroke-miterlimit="10"/>
<path d="M89.5346 104.869C90.4576 100.47 87.6034 96.1487 83.1595 95.2162C78.7156 94.2836 74.3649 97.0933 73.4419 101.492C72.5189 105.89 75.3731 110.212 79.817 111.144C84.2608 112.077 88.6115 109.267 89.5346 104.869Z" fill="#1B1A1A" stroke="#1B1A1A" stroke-width="3" stroke-miterlimit="10"/>
<path d="M113.155 27.9851C107.236 22.8166 97.928 15.3622 81.6657 18.6141C58.4075 23.2636 54.7479 42.6298 54.7479 42.6298C54.7479 42.6298 69.6806 35.4096 73.7534 34.5951C83.3283 32.6808 89.7146 40.721 89.7146 40.721C92.5648 40.1478 113.155 27.9851 113.155 27.9851Z" fill="#E30613" stroke="#1B1A1A" stroke-width="3" stroke-miterlimit="10"/>
<path d="M108.589 48.3078C120.558 41.3977 128.377 32.5337 126.053 28.5096C123.73 24.4855 112.144 26.8251 100.175 33.7352C88.2066 40.6454 80.3875 49.5093 82.7108 53.5334C85.0341 57.5576 96.6201 55.218 108.589 48.3078Z" fill="#FFFBF1" stroke="#1B1A1A" stroke-width="3" stroke-miterlimit="10"/>
<path d="M108.408 47.9943C112.34 45.724 113.687 40.6958 111.417 36.7634C109.147 32.8311 104.119 31.4838 100.186 33.7541C96.2539 36.0245 94.9066 41.0527 97.177 44.985C99.4473 48.9174 104.476 50.2647 108.408 47.9943Z" fill="#1B1A1A" stroke="#1B1A1A" stroke-width="3" stroke-miterlimit="10"/>
</svg>
