<svg width="216" height="68" viewBox="0 0 216 68" fill="none" xmlns="http://www.w3.org/2000/svg">
<path d="M108.001 18.1315C108.001 54.4225 346.499 18.1315 108.001 18.1315C346.499 18.1315 108.001 -18.1595 108.001 18.1315C108.001 -18.1643 -130.496 18.1315 108.001 18.1315C-130.501 18.1315 108.001 54.4274 108.001 18.1315Z" fill="#E30613"/>
<path d="M108.001 18.1315C346.499 18.1315 108.001 54.4225 108.001 18.1315ZM108.001 18.1315C108.001 -18.1595 346.499 18.1315 108.001 18.1315ZM108.001 18.1315C-130.496 18.1315 108.001 -18.1643 108.001 18.1315ZM108.001 18.1315C108.001 54.4274 -130.501 18.1315 108.001 18.1315Z" stroke="#1B1A1A" stroke-width="3" stroke-miterlimit="10"/>
<path d="M74.2128 14.8397C71.0712 13.3249 65.8339 12.5 60.4182 12.5C55.0025 12.5 49.7653 13.3249 46.6237 14.8397C45.3917 15.4338 44.5715 16.0148 44.0783 16.5317C43.5925 17.0408 43.5 17.401 43.5 17.6144C43.5 17.8278 43.5925 18.188 44.0783 18.6971C44.5715 19.214 45.3917 19.795 46.6237 20.3891C49.7653 21.9038 55.0025 22.7288 60.4182 22.7288C65.8339 22.7288 71.0712 21.9038 74.2128 20.3891C75.4447 19.795 76.265 19.214 76.7582 18.6971C77.244 18.188 77.3364 17.8278 77.3364 17.6144C77.3364 17.401 77.244 17.0408 76.7582 16.5317C76.265 16.0148 75.4447 15.4338 74.2128 14.8397Z" fill="white" stroke="#1B1A1A" stroke-width="3"/>
<circle r="4.51175" transform="matrix(-1 0 0 1 60.4892 17.5352)" fill="#1B1A1A" stroke="#1B1A1A" stroke-width="3"/>
<path d="M140.072 15.188C143.214 13.6732 148.451 12.8483 153.867 12.8483C159.283 12.8483 164.52 13.6732 167.661 15.188C168.893 15.782 169.714 16.3631 170.207 16.8799C170.693 17.389 170.785 17.7493 170.785 17.9627C170.785 18.176 170.693 18.5363 170.207 19.0454C169.714 19.5622 168.893 20.1433 167.661 20.7373C164.52 22.2521 159.283 23.0771 153.867 23.0771C148.451 23.0771 143.214 22.2521 140.072 20.7373C138.84 20.1433 138.02 19.5622 137.527 19.0454C137.041 18.5363 136.949 18.176 136.949 17.9627C136.949 17.7493 137.041 17.389 137.527 16.8799C138.02 16.3631 138.84 15.782 140.072 15.188Z" fill="white" stroke="#1B1A1A" stroke-width="3"/>
<circle cx="153.796" cy="17.8835" r="4.51175" fill="#1B1A1A" stroke="#1B1A1A" stroke-width="3"/>
<path d="M108.001 50.1315C108.001 86.4225 346.499 50.1315 108.001 50.1315C346.499 50.1315 108.001 13.8405 108.001 50.1315C108.001 13.8357 -130.496 50.1315 108.001 50.1315C-130.501 50.1315 108.001 86.4274 108.001 50.1315Z" fill="#E30613"/>
<path d="M108.001 50.1315C346.499 50.1315 108.001 86.4225 108.001 50.1315ZM108.001 50.1315C108.001 13.8405 346.499 50.1315 108.001 50.1315ZM108.001 50.1315C-130.496 50.1315 108.001 13.8357 108.001 50.1315ZM108.001 50.1315C108.001 86.4274 -130.501 50.1315 108.001 50.1315Z" stroke="#1B1A1A" stroke-width="3" stroke-miterlimit="10"/>
<path d="M74.4534 47.188C71.3118 45.6732 66.0745 44.8483 60.6588 44.8483C55.2431 44.8483 50.0059 45.6732 46.8643 47.188C45.6323 47.782 44.8121 48.3631 44.3189 48.8799C43.8331 49.389 43.7406 49.7493 43.7406 49.9627C43.7406 50.176 43.8331 50.5363 44.3189 51.0454C44.8121 51.5622 45.6323 52.1433 46.8643 52.7373C50.0059 54.2521 55.2431 55.0771 60.6588 55.0771C66.0745 55.0771 71.3118 54.2521 74.4534 52.7373C75.6853 52.1433 76.5056 51.5622 76.9988 51.0454C77.4846 50.5363 77.577 50.176 77.577 49.9627C77.577 49.7493 77.4846 49.389 76.9988 48.8799C76.5056 48.3631 75.6853 47.782 74.4534 47.188Z" fill="white" stroke="#1B1A1A" stroke-width="3"/>
<circle r="4.51175" transform="matrix(-1 0 0 1 60.7298 49.8835)" fill="#1B1A1A" stroke="#1B1A1A" stroke-width="3"/>
<path d="M140.072 47.188C143.214 45.6732 148.451 44.8483 153.867 44.8483C159.283 44.8483 164.52 45.6732 167.661 47.188C168.893 47.782 169.714 48.3631 170.207 48.8799C170.693 49.389 170.785 49.7493 170.785 49.9627C170.785 50.176 170.693 50.5363 170.207 51.0454C169.714 51.5622 168.893 52.1433 167.661 52.7373C164.52 54.2521 159.283 55.0771 153.867 55.0771C148.451 55.0771 143.214 54.2521 140.072 52.7373C138.84 52.1433 138.02 51.5622 137.527 51.0454C137.041 50.5363 136.949 50.176 136.949 49.9627C136.949 49.7493 137.041 49.389 137.527 48.8799C138.02 48.3631 138.84 47.782 140.072 47.188Z" fill="white" stroke="#1B1A1A" stroke-width="3"/>
<circle cx="153.796" cy="49.8835" r="4.51175" fill="#1B1A1A" stroke="#1B1A1A" stroke-width="3"/>
<path d="M130.449 28.4874C125.346 26.0267 116.971 24.7288 108.418 24.7288C99.8652 24.7288 91.4906 26.0267 86.3873 28.4874C84.4004 29.4454 83.0139 30.4115 82.1433 31.3239C81.28 32.2286 80.9988 32.9949 80.9988 33.6144C80.9988 34.2338 81.28 35.0002 82.1433 35.9048C83.0139 36.8172 84.4004 37.7833 86.3873 38.7414C91.4906 41.2021 99.8652 42.5 108.418 42.5C116.971 42.5 125.346 41.2021 130.449 38.7414C132.436 37.7833 133.823 36.8172 134.693 35.9048C135.556 35.0002 135.838 34.2338 135.838 33.6144C135.838 32.9949 135.556 32.2286 134.693 31.3239C133.823 30.4115 132.436 29.4454 130.449 28.4874Z" fill="white" stroke="#1B1A1A" stroke-width="3"/>
<circle r="7.93937" transform="matrix(-1 0 0 1 108.53 33.4901)" fill="#1B1A1A" stroke="#1B1A1A" stroke-width="3"/>
</svg>
