<svg width="78" height="78" viewBox="0 0 78 78" fill="none" xmlns="http://www.w3.org/2000/svg">
<path d="M39 76C59.4345 76 76 59.4345 76 39C76 18.5655 59.4345 2 39 2C18.5655 2 2 18.5655 2 39C2 59.4345 18.5655 76 39 76Z" fill="#E30613" stroke="#1B1A1A" stroke-width="3" stroke-miterlimit="10"/>
<path d="M38.7258 65.4516C53.4861 65.4516 65.4516 53.4861 65.4516 38.7258C65.4516 23.9655 53.4861 12 38.7258 12C23.9655 12 12 23.9655 12 38.7258C12 53.4861 23.9655 65.4516 38.7258 65.4516Z" fill="#FFDE00" stroke="#1B1A1A" stroke-width="3" stroke-miterlimit="10"/>
<path d="M38.7131 46.2682C51.2573 46.2682 61.4263 42.8503 61.4263 38.6341C61.4263 34.4179 51.2573 31 38.7131 31C26.169 31 16 34.4179 16 38.6341C16 42.8503 26.169 46.2682 38.7131 46.2682Z" fill="#FFFBF1" stroke="#1B1A1A" stroke-width="3" stroke-miterlimit="10"/>
<path d="M39.4611 45.9222C43.5818 45.9222 46.9222 42.5818 46.9222 38.4611C46.9222 34.3404 43.5818 31 39.4611 31C35.3405 31 32 34.3404 32 38.4611C32 42.5818 35.3405 45.9222 39.4611 45.9222Z" fill="#1B1A1A" stroke="#1B1A1A" stroke-width="3" stroke-miterlimit="10"/>
</svg>
