<svg width="114" height="92" viewBox="0 0 114 92" fill="none" xmlns="http://www.w3.org/2000/svg">
<path d="M86.0288 43.1296C100.44 43.1296 112.122 39.2018 112.122 34.3566C112.122 29.5113 100.44 25.5835 86.0288 25.5835C71.6179 25.5835 59.9355 29.5113 59.9355 34.3566C59.9355 39.2018 71.6179 43.1296 86.0288 43.1296Z" fill="#FFFBF1" stroke="#1B1A1A" stroke-width="3" stroke-miterlimit="10"/>
<path d="M86.0295 43.1083C90.7642 43.1083 94.6024 39.27 94.6024 34.5353C94.6024 29.8006 90.7642 25.9624 86.0295 25.9624C81.2948 25.9624 77.4565 29.8006 77.4565 34.5353C77.4565 39.27 81.2948 43.1083 86.0295 43.1083Z" fill="#1B1A1A" stroke="#1B1A1A" stroke-width="3" stroke-miterlimit="10"/>
<path d="M86.0288 89.7107C100.44 89.7107 112.122 85.7828 112.122 80.9376C112.122 76.0924 100.44 72.1646 86.0288 72.1646C71.6179 72.1646 59.9355 76.0924 59.9355 80.9376C59.9355 85.7828 71.6179 89.7107 86.0288 89.7107Z" fill="#FFFBF1" stroke="#1B1A1A" stroke-width="3" stroke-miterlimit="10"/>
<path d="M86.0295 89.6871C90.7642 89.6871 94.6024 85.8489 94.6024 81.1142C94.6024 76.3795 90.7642 72.5413 86.0295 72.5413C81.2948 72.5413 77.4565 76.3795 77.4565 81.1142C77.4565 85.8489 81.2948 89.6871 86.0295 89.6871Z" fill="#1B1A1A" stroke="#1B1A1A" stroke-width="3" stroke-miterlimit="10"/>
<path d="M28.0932 19.8425C42.5041 19.8425 54.1864 15.9147 54.1864 11.0694C54.1864 6.22422 42.5041 2.29639 28.0932 2.29639C13.6823 2.29639 2 6.22422 2 11.0694C2 15.9147 13.6823 19.8425 28.0932 19.8425Z" fill="#FFFBF1" stroke="#1B1A1A" stroke-width="3" stroke-miterlimit="10"/>
<path d="M28.0934 19.8231C32.8281 19.8231 36.6664 15.9849 36.6664 11.2502C36.6664 6.51548 32.8281 2.67725 28.0934 2.67725C23.3587 2.67725 19.5205 6.51548 19.5205 11.2502C19.5205 15.9849 23.3587 19.8231 28.0934 19.8231Z" fill="#1B1A1A" stroke="#1B1A1A" stroke-width="3" stroke-miterlimit="10"/>
<path d="M28.0974 66.4165C42.5083 66.4165 54.1906 62.4886 54.1906 57.6434C54.1906 52.7982 42.5083 48.8704 28.0974 48.8704C13.6865 48.8704 2.00415 52.7982 2.00415 57.6434C2.00415 62.4886 13.6865 66.4165 28.0974 66.4165Z" fill="#FFFBF1" stroke="#1B1A1A" stroke-width="3" stroke-miterlimit="10"/>
<path d="M28.0969 66.3951C32.8316 66.3951 36.6698 62.5568 36.6698 57.8221C36.6698 53.0874 32.8316 49.2492 28.0969 49.2492C23.3622 49.2492 19.5239 53.0874 19.5239 57.8221C19.5239 62.5568 23.3622 66.3951 28.0969 66.3951Z" fill="#1B1A1A" stroke="#1B1A1A" stroke-width="3" stroke-miterlimit="10"/>
</svg>
