<svg width="842" height="142" viewBox="0 0 842 142" fill="none" xmlns="http://www.w3.org/2000/svg">
<path d="M248 75.0407C145.6 75.0407 43.3333 118.347 5 140H839C819.167 118.347 750.6 75.0407 635 75.0407C490.5 75.0407 528.5 5.0846 431.5 2.08648C334.5 -0.911639 376 75.0407 248 75.0407Z" fill="#FFFBF1" stroke="#FF8A00" stroke-width="2.5"/>
<mask id="mask0" mask-type="alpha" maskUnits="userSpaceOnUse" x="409" y="43" width="40" height="46">
<path d="M425.8 54.5255L415.263 65.0627C414.013 66.3124 411.987 66.3124 410.737 65.0627C409.488 63.8131 409.488 61.7869 410.737 60.5372L426.737 44.5372C427.987 43.2876 430.013 43.2876 431.263 44.5372L447.263 60.5373C448.513 61.7869 448.513 63.8131 447.263 65.0627C446.013 66.3124 443.987 66.3124 442.737 65.0627L432.2 54.5255L432.2 85.2C432.2 86.9673 430.768 88.4 429 88.4C427.233 88.4 425.8 86.9673 425.8 85.2L425.8 54.5255Z" fill="white"/>
</mask>
<g mask="url(#mask0)">
</g>
<path d="M426 54.9255L415.463 65.4628C414.213 66.7124 412.187 66.7124 410.937 65.4628C409.687 64.2131 409.687 62.1869 410.937 60.9373L426.937 44.9373C428.187 43.6876 430.213 43.6876 431.463 44.9373L447.463 60.9373C448.712 62.187 448.712 64.2131 447.463 65.4628C446.213 66.7124 444.187 66.7124 442.937 65.4628L432.4 54.9255L432.4 85.6C432.4 87.3673 430.967 88.8 429.2 88.8C427.433 88.8 426 87.3673 426 85.6L426 54.9255Z" fill="#FF8A00" stroke="#1B1A1A" stroke-width="2.5"/>
<rect x="459.5" y="96.5" width="61" height="61" transform="rotate(-180 459.5 96.5)" stroke="#FFFBF1" stroke-width="3"/>
</svg>
