<svg width="306" height="164" viewBox="0 0 306 164" fill="none" xmlns="http://www.w3.org/2000/svg">
<rect x="1.44728" y="-1.44728" width="215.946" height="7.60978" rx="3.80489" transform="matrix(1 0 0 -1 37.8901 90.4734)" fill="#009FE3" stroke="#1B1A1A" stroke-width="2.89457"/>
<path d="M249.418 65.2936C262.099 48.412 275.648 31.4117 264.597 2.00049C289.205 33.2282 265.383 51.2516 264.716 75.4359C263.782 84.9777 273.173 91.3389 281.971 89.174C294.052 86.8683 295.393 72.4926 286.914 65.175C281.756 59.8888 285.669 52.4526 288.204 46.8328C288.508 46.9218 288.419 46.8995 288.723 46.9885C285.966 67.3473 307.453 64.9748 303.517 86.4605C303.465 86.7423 303.406 87.0314 303.339 87.3206C299.892 102.438 285.595 112.55 270.141 111.32C247.513 109.511 235.78 83.4505 249.418 65.2936Z" fill="#009FE3" stroke="#1B1A1A" stroke-width="2.89457" stroke-miterlimit="10" stroke-linecap="round" stroke-linejoin="round"/>
<path d="M56.5824 65.2931C43.9007 48.4115 30.3518 31.4113 41.4029 2C16.7954 33.2277 40.6172 51.2511 41.2843 75.4355C42.2182 84.9773 32.8273 91.3384 24.0294 89.1736C11.9481 86.8678 10.6065 72.4921 19.0857 65.1745C24.2444 59.8883 20.3309 52.4521 17.796 46.8323C17.4921 46.9213 17.5811 46.8991 17.2772 46.988C20.0344 67.3468 -1.45261 64.9743 2.4831 86.46C2.53498 86.7418 2.59427 87.0309 2.66098 87.3201C6.1075 102.437 20.405 112.55 35.8588 111.319C58.4873 109.51 70.2203 83.45 56.5824 65.2931Z" fill="#009FE3" stroke="#1B1A1A" stroke-width="2.89457" stroke-miterlimit="10" stroke-linecap="round" stroke-linejoin="round"/>
<rect x="1.44728" y="1.44728" width="54.004" height="7.60978" rx="3.80489" transform="matrix(0 1 1 0 112.295 84.2847)" fill="#FFDE00" stroke="#1B1A1A" stroke-width="2.89457"/>
<rect x="1.44728" y="1.44728" width="14.6127" height="11.1112" rx="5.55561" transform="matrix(0 1 1 0 110.544 128.053)" fill="#FF8A00" stroke="#1B1A1A" stroke-width="2.89457"/>
<rect x="1.44728" y="1.44728" width="75.3453" height="7.60978" rx="3.80489" transform="matrix(0 1 1 0 147.473 84.2847)" fill="#FFDE00" stroke="#1B1A1A" stroke-width="2.89457"/>
<rect x="1.44728" y="1.44728" width="14.9336" height="11.1112" rx="5.55561" transform="matrix(0 1 1 0 145.561 145.37)" fill="#E30613" stroke="#1B1A1A" stroke-width="2.89457"/>
<rect x="1.44728" y="1.44728" width="75.3453" height="7.60978" rx="3.80489" transform="matrix(0 1 1 0 181.913 84)" fill="#FFDE00" stroke="#1B1A1A" stroke-width="2.89457"/>
<rect x="1.44728" y="1.44728" width="14.9336" height="11.1112" rx="5.55561" transform="matrix(0 1 1 0 180 145.085)" fill="#E30613" stroke="#1B1A1A" stroke-width="2.89457"/>
<rect x="1.44728" y="1.44728" width="75.3453" height="7.60978" rx="3.80489" transform="matrix(0 1 1 0 216.626 84.2847)" fill="#FFDE00" stroke="#1B1A1A" stroke-width="2.89457"/>
<rect x="1.44728" y="1.44728" width="14.9336" height="11.1112" rx="5.55561" transform="matrix(0 1 1 0 214.713 145.37)" fill="#E30613" stroke="#1B1A1A" stroke-width="2.89457"/>
<rect x="1.44728" y="1.44728" width="32.1199" height="7.60978" rx="3.80489" transform="matrix(0 1 1 0 78.1558 84.2847)" fill="#E5E3E3" stroke="#1B1A1A" stroke-width="2.89457"/>
<rect x="1.44728" y="1.44728" width="14.9336" height="11.1112" rx="5.55561" transform="matrix(0 1 1 0 76.4048 111.421)" fill="#1B1A1A" stroke="#1B1A1A" stroke-width="2.89457"/>
</svg>
