<svg width="677" height="1594" viewBox="0 0 677 1594" fill="none" xmlns="http://www.w3.org/2000/svg">
<path d="M137.393 513L96.1698 513C96.1698 513 94.043 541.766 104.823 553.411C110.762 559.824 113.439 562.78 113.439 574.317C113.439 584.757 108.931 585.601 108.971 588.211C108.971 588.211 103.642 602.065 116.781 602.065C129.92 602.065 124.591 588.211 124.591 588.211C124.632 585.602 120.123 584.758 120.123 574.317C120.123 562.78 122.801 559.824 128.739 553.411C139.521 541.766 137.393 513 137.393 513Z" fill="#009FE3" stroke="#1B1A1A" stroke-width="2.15533" stroke-miterlimit="10"/>
<path d="M583.393 513L542.17 513C542.17 513 540.043 541.766 550.824 553.411C556.762 559.824 559.44 562.78 559.44 574.317C559.44 584.757 554.931 585.601 554.972 588.211C554.972 588.211 549.643 602.065 562.782 602.065C575.921 602.065 570.592 588.211 570.592 588.211C570.632 585.602 566.124 584.758 566.124 574.317C566.124 562.78 568.801 559.824 574.739 553.411C585.521 541.765 583.393 513 583.393 513Z" fill="#009FE3" stroke="#1B1A1A" stroke-width="2.15533" stroke-miterlimit="10"/>
<path d="M346.05 744.767C346.05 744.767 344.523 762.283 350.036 783.927C355.548 805.571 345.258 822.626 345.258 822.626" stroke="#1B1A1A" stroke-width="8"/>
<path fill-rule="evenodd" clip-rule="evenodd" d="M341.065 744.421C341.065 744.42 341.065 744.419 345.05 744.767C349.035 745.114 349.035 745.113 349.035 745.113L349.035 745.112C349.035 745.112 349.035 745.112 349.035 745.114L349.033 745.139C349.031 745.164 349.028 745.205 349.023 745.263C349.015 745.378 349.002 745.558 348.988 745.799C348.959 746.282 348.923 747.01 348.896 747.957C348.841 749.852 348.823 752.621 348.972 756.057C349.27 762.937 350.239 772.444 352.912 782.939C355.88 794.596 354.587 804.992 352.575 812.436C351.568 816.162 350.374 819.175 349.422 821.275C348.945 822.326 348.527 823.153 348.22 823.729C348.067 824.018 347.941 824.245 347.849 824.406C347.803 824.487 347.766 824.551 347.738 824.599L347.703 824.658L347.691 824.678L347.686 824.686L347.684 824.689C347.683 824.691 347.682 824.692 344.257 822.626C340.833 820.559 340.832 820.561 340.831 820.562L340.836 820.553C340.846 820.535 340.866 820.501 340.894 820.452C340.951 820.353 341.04 820.192 341.158 819.972C341.392 819.531 341.735 818.856 342.136 817.97C342.941 816.196 343.976 813.592 344.852 810.349C346.607 803.854 347.703 794.901 345.159 784.914C342.32 773.765 341.296 763.693 340.979 756.404C340.821 752.755 340.84 749.792 340.899 747.727C340.929 746.694 340.969 745.884 341.002 745.324C341.019 745.044 341.034 744.827 341.045 744.675C341.051 744.599 341.055 744.54 341.059 744.497L341.063 744.445L341.064 744.429L341.065 744.421Z" fill="#FFDE00" stroke="#1B1A1A" stroke-width="3"/>
<path d="M330.366 818.91C330.366 818.91 331.893 801.394 326.38 779.75C320.868 758.107 331.158 741.051 331.158 741.051" stroke="#1B1A1A" stroke-width="8"/>
<path fill-rule="evenodd" clip-rule="evenodd" d="M335.351 819.256C335.351 819.257 335.351 819.258 331.366 818.91C327.381 818.563 327.381 818.564 327.381 818.564L327.381 818.566C327.381 818.565 327.381 818.565 327.381 818.563L327.383 818.539C327.385 818.514 327.388 818.472 327.393 818.415C327.401 818.299 327.414 818.119 327.428 817.878C327.457 817.395 327.493 816.667 327.52 815.72C327.575 813.825 327.593 811.056 327.444 807.62C327.146 800.741 326.177 791.233 323.504 780.738C320.536 769.081 321.829 758.685 323.841 751.241C324.848 747.515 326.042 744.502 326.994 742.402C327.471 741.351 327.889 740.525 328.196 739.948C328.349 739.659 328.475 739.433 328.567 739.271C328.613 739.191 328.65 739.126 328.678 739.078L328.713 739.019L328.725 738.999L328.73 738.991L328.732 738.988C328.733 738.986 328.734 738.985 332.159 741.051C335.583 743.118 335.584 743.117 335.585 743.115L335.58 743.124C335.57 743.142 335.55 743.176 335.522 743.225C335.465 743.324 335.376 743.485 335.258 743.705C335.024 744.146 334.681 744.821 334.28 745.707C333.475 747.481 332.44 750.085 331.564 753.328C329.809 759.823 328.713 768.776 331.257 778.763C334.096 789.912 335.12 799.984 335.437 807.274C335.595 810.922 335.576 813.885 335.517 815.95C335.487 816.984 335.447 817.793 335.414 818.353C335.397 818.633 335.382 818.85 335.371 819.002C335.365 819.078 335.361 819.138 335.357 819.18L335.353 819.232L335.352 819.248L335.351 819.256Z" fill="#FFDE00" stroke="#1B1A1A" stroke-width="3"/>
<path d="M219.795 9.93861C219.795 9.93861 200.744 62.5171 155.858 117.578C110.971 172.639 117.82 235.623 117.82 235.623" stroke="black" stroke-width="9.01411"/>
<path d="M219.795 9.93861C219.795 9.93861 200.744 62.5171 155.858 117.578C110.971 172.639 117.82 235.623 117.82 235.623" stroke="black" stroke-width="2.70423"/>
<path d="M219.795 9.93861C219.795 9.93861 200.744 62.5171 155.858 117.578C110.971 172.639 117.82 235.623 117.82 235.623" stroke="#FFDE00" stroke-width="2.70423"/>
<path d="M457.577 11.9386C457.577 11.9386 476.628 64.5171 521.514 119.578C566.401 174.639 559.552 237.623 559.552 237.623" stroke="black" stroke-width="9.01411"/>
<path d="M457.577 11.9386C457.577 11.9386 476.628 64.5171 521.514 119.578C566.401 174.639 559.552 237.623 559.552 237.623" stroke="black" stroke-width="2.70423"/>
<path d="M457.577 11.9386C457.577 11.9386 476.628 64.5171 521.514 119.578C566.401 174.639 559.552 237.623 559.552 237.623" stroke="#FFDE00" stroke-width="2.70423"/>
<path d="M218.795 1583.4C218.795 1583.4 199.744 1530.82 154.858 1475.76C109.971 1420.7 116.82 1357.72 116.82 1357.72" stroke="black" stroke-width="9.01411"/>
<path d="M218.795 1583.4C218.795 1583.4 199.744 1530.82 154.858 1475.76C109.971 1420.7 116.82 1357.72 116.82 1357.72" stroke="black" stroke-width="2.70423"/>
<path d="M218.795 1583.4C218.795 1583.4 199.744 1530.82 154.858 1475.76C109.971 1420.7 116.82 1357.72 116.82 1357.72" stroke="#FFDE00" stroke-width="2.70423"/>
<path d="M456.577 1581.4C456.577 1581.4 475.628 1528.82 520.514 1473.76C565.401 1418.7 558.552 1355.72 558.552 1355.72" stroke="black" stroke-width="9.01411"/>
<path d="M456.577 1581.4C456.577 1581.4 475.628 1528.82 520.514 1473.76C565.401 1418.7 558.552 1355.72 558.552 1355.72" stroke="black" stroke-width="2.70423"/>
<path d="M456.577 1581.4C456.577 1581.4 475.628 1528.82 520.514 1473.76C565.401 1418.7 558.552 1355.72 558.552 1355.72" stroke="#FFDE00" stroke-width="2.70423"/>
<rect x="482.364" y="427.868" width="179.521" height="14.7588" transform="rotate(-135 482.364 427.868)" fill="#FFDE00" stroke="#1B1A1A" stroke-width="2.5"/>
<rect x="493.318" y="428.385" width="157.144" height="14.7588" rx="5.93444" transform="rotate(180 493.318 428.385)" fill="#FFDE00" stroke="#1B1A1A" stroke-width="2.5"/>
<rect x="430.322" y="302.833" width="77.3218" height="14.7588" rx="5.93444" transform="rotate(180 430.322 302.833)" fill="#FFDE00" stroke="#1B1A1A" stroke-width="2.5"/>
<path d="M446.475 296.546C439.954 302.433 440.164 310.472 441.557 315.393C441.751 316.079 440.943 316.737 440.343 316.353L409.292 296.47C408.688 296.083 408.962 295.146 409.68 295.146L445.983 295.146C446.681 295.146 446.993 296.078 446.475 296.546Z" fill="#009FE3" stroke="#1B1A1A" stroke-width="2.5"/>
<path d="M446.475 294.363C439.954 288.475 440.164 280.437 441.557 275.515C441.751 274.83 440.943 274.171 440.343 274.556L409.292 294.439C408.688 294.826 408.962 295.763 409.68 295.763L445.983 295.763C446.681 295.763 446.993 294.831 446.475 294.363Z" fill="#009FE3" stroke="#1B1A1A" stroke-width="2.5"/>
<path d="M405.275 295.403C404.691 296.414 412.61 302.078 422.963 308.055C433.315 314.032 442.18 318.058 442.764 317.048C443.347 316.037 435.428 310.373 425.076 304.396C414.723 298.419 405.858 294.393 405.275 295.403Z" fill="#E30613" stroke="#1B1A1A" stroke-width="2.5" stroke-miterlimit="10"/>
<path d="M405.354 295.308C405.938 296.318 414.803 292.292 425.155 286.315C435.507 280.338 443.427 274.674 442.843 273.663C442.26 272.653 433.395 276.679 423.042 282.656C412.69 288.633 404.771 294.297 405.354 295.308Z" fill="#E30613" stroke="#1B1A1A" stroke-width="2.5" stroke-miterlimit="10"/>
<path d="M405.542 295.023C405.542 296.19 415.233 297.136 427.187 297.136C439.141 297.136 448.831 296.19 448.831 295.023C448.831 293.857 439.141 292.911 427.187 292.911C415.233 292.911 405.542 293.857 405.542 295.023Z" fill="#E30613" stroke="#1B1A1A" stroke-width="2.5" stroke-miterlimit="10"/>
<rect x="-1.49012e-07" y="-1.76777" width="179.521" height="14.7588" transform="matrix(0.707107 -0.707107 -0.707107 -0.707107 186.052 426.618)" fill="#FFDE00" stroke="#1B1A1A" stroke-width="2.5"/>
<rect x="1.25" y="-1.25" width="157.144" height="14.7588" rx="5.93444" transform="matrix(1 -8.74228e-08 -8.74228e-08 -1 175.099 427.135)" fill="#FFDE00" stroke="#1B1A1A" stroke-width="2.5"/>
<rect x="1.25" y="-1.25" width="77.3218" height="14.7588" rx="5.93444" transform="matrix(1 -8.74228e-08 -8.74228e-08 -1 238.093 301.583)" fill="#FFDE00" stroke="#1B1A1A" stroke-width="2.5"/>
<path d="M223.191 296.546C229.713 302.433 229.502 310.472 228.109 315.393C227.915 316.079 228.723 316.737 229.323 316.353L260.374 296.47C260.978 296.083 260.704 295.146 259.987 295.146L223.684 295.146C222.986 295.146 222.673 296.078 223.191 296.546Z" fill="#009FE3" stroke="#1B1A1A" stroke-width="2.5"/>
<path d="M223.191 294.363C229.713 288.476 229.502 280.437 228.109 275.515C227.915 274.83 228.723 274.171 229.323 274.556L260.374 294.439C260.978 294.826 260.704 295.763 259.987 295.763L223.684 295.763C222.986 295.763 222.673 294.831 223.191 294.363Z" fill="#009FE3" stroke="#1B1A1A" stroke-width="2.5"/>
<path d="M264.392 295.403C264.975 296.414 257.056 302.078 246.704 308.055C236.351 314.032 227.486 318.058 226.903 317.048C226.319 316.037 234.238 310.373 244.591 304.396C254.943 298.419 263.808 294.393 264.392 295.403Z" fill="#E30613" stroke="#1B1A1A" stroke-width="2.5" stroke-miterlimit="10"/>
<path d="M264.312 295.308C263.729 296.318 254.864 292.292 244.511 286.315C234.159 280.338 226.24 274.674 226.823 273.663C227.406 272.653 236.272 276.679 246.624 282.656C256.976 288.633 264.896 294.297 264.312 295.308Z" fill="#E30613" stroke="#1B1A1A" stroke-width="2.5" stroke-miterlimit="10"/>
<path d="M264.124 295.024C264.124 296.19 254.433 297.136 242.48 297.136C230.526 297.136 220.835 296.19 220.835 295.024C220.835 293.857 230.526 292.911 242.48 292.911C254.433 292.911 264.124 293.857 264.124 295.024Z" fill="#E30613" stroke="#1B1A1A" stroke-width="2.5" stroke-miterlimit="10"/>
<path d="M593.186 426.506L523.084 426.506C507.595 426.506 495.038 439.064 495.038 454.553L495.038 482.631C495.038 517.48 523.286 545.721 558.127 545.721C592.976 545.721 621.217 517.472 621.217 482.631L621.217 454.553C621.233 439.064 608.675 426.506 593.186 426.506Z" fill="#009FE3" stroke="#1B1A1A" stroke-width="2.5" stroke-miterlimit="10"/>
<path d="M572.31 544.136L572.171 543.003L558.132 518.687L544.093 543.003L543.953 544.136C548.514 545.183 553.253 545.734 558.132 545.734C563.01 545.734 567.749 545.175 572.31 544.136Z" fill="#E30613" stroke="#1B1A1A" stroke-width="2.5" stroke-miterlimit="10"/>
<path d="M501.039 509.509C505.095 518.119 511.044 525.658 518.351 531.591L529 505.437L501.039 509.509Z" fill="#E30613" stroke="#1B1A1A" stroke-width="2.5" stroke-miterlimit="10"/>
<path d="M495.041 482.632C495.041 492.249 497.19 501.363 501.037 509.515L521.723 490.202L495.041 482.632Z" fill="#FFDE00" stroke="#1B1A1A" stroke-width="2.5" stroke-miterlimit="10"/>
<path d="M518.345 531.61C525.69 537.59 534.408 541.941 543.956 544.136L541.249 515.065L518.345 531.61Z" fill="#FFDE00" stroke="#1B1A1A" stroke-width="2.5" stroke-miterlimit="10"/>
<path d="M495.041 454.553L495.041 482.631L519.357 468.592L495.041 454.553Z" fill="#E30613" stroke="#1B1A1A" stroke-width="2.5" stroke-miterlimit="10"/>
<path d="M615.227 509.509C611.171 518.119 605.222 525.658 597.915 531.591L587.266 505.437L615.227 509.509Z" fill="#E30613" stroke="#1B1A1A" stroke-width="2.5" stroke-miterlimit="10"/>
<path d="M621.22 482.632C621.22 492.249 619.072 501.363 615.225 509.515L594.539 490.202L621.22 482.632Z" fill="#FFDE00" stroke="#1B1A1A" stroke-width="2.5" stroke-miterlimit="10"/>
<path d="M597.921 531.61C590.576 537.59 581.858 541.941 572.31 544.136L575.017 515.065L597.921 531.61Z" fill="#FFDE00" stroke="#1B1A1A" stroke-width="2.5" stroke-miterlimit="10"/>
<path d="M621.222 454.553L621.222 482.631L596.906 468.592L621.222 454.553Z" fill="#E30613" stroke="#1B1A1A" stroke-width="2.5" stroke-miterlimit="10"/>
<path d="M539.806 323.052H581.029C581.029 323.052 583.156 294.286 572.376 282.642C566.437 276.229 563.76 273.272 563.76 261.735C563.76 251.295 568.268 250.452 568.228 247.841C568.228 247.841 573.557 233.988 560.418 233.988C547.279 233.988 552.608 247.841 552.608 247.841C552.567 250.451 557.076 251.295 557.076 261.735C557.076 273.272 554.398 276.229 548.46 282.642C537.678 294.287 539.806 323.052 539.806 323.052Z" fill="#009FE3" stroke="#1B1A1A" stroke-width="2.5" stroke-miterlimit="10"/>
<path d="M595.89 315.798L525.789 315.798C510.3 315.798 497.742 328.355 497.742 343.845L497.742 371.922C497.742 406.771 525.991 435.012 560.832 435.012C595.681 435.012 623.922 406.764 623.922 371.922L623.922 343.845C623.937 328.355 611.38 315.798 595.89 315.798Z" fill="#009FE3" stroke="#1B1A1A" stroke-width="2.5" stroke-miterlimit="10"/>
<path d="M575.014 433.428L574.874 432.295L560.836 407.979L546.797 432.295L546.657 433.428C551.218 434.475 555.957 435.026 560.836 435.026C565.714 435.026 570.453 434.467 575.014 433.428Z" fill="#E30613" stroke="#1B1A1A" stroke-width="2.5" stroke-miterlimit="10"/>
<path d="M503.744 398.801C507.8 407.41 513.75 414.95 521.056 420.883L531.705 394.729L503.744 398.801Z" fill="#E30613" stroke="#1B1A1A" stroke-width="2.5" stroke-miterlimit="10"/>
<path d="M497.747 371.923C497.747 381.541 499.896 390.655 503.743 398.807L524.429 379.494L497.747 371.923Z" fill="#FFDE00" stroke="#1B1A1A" stroke-width="2.5" stroke-miterlimit="10"/>
<path d="M521.047 420.9C528.392 426.88 537.11 431.232 546.658 433.427L543.951 404.356L521.047 420.9Z" fill="#FFDE00" stroke="#1B1A1A" stroke-width="2.5" stroke-miterlimit="10"/>
<path d="M497.747 343.844L497.747 371.922L522.063 357.883L497.747 343.844Z" fill="#E30613" stroke="#1B1A1A" stroke-width="2.5" stroke-miterlimit="10"/>
<path d="M617.932 398.801C613.876 407.41 607.927 414.95 600.62 420.883L589.971 394.729L617.932 398.801Z" fill="#E30613" stroke="#1B1A1A" stroke-width="2.5" stroke-miterlimit="10"/>
<path d="M623.924 371.923C623.924 381.541 621.776 390.655 617.929 398.807L597.243 379.494L623.924 371.923Z" fill="#FFDE00" stroke="#1B1A1A" stroke-width="2.5" stroke-miterlimit="10"/>
<path d="M600.625 420.9C593.28 426.88 584.562 431.232 575.014 433.427L577.721 404.356L600.625 420.9Z" fill="#FFDE00" stroke="#1B1A1A" stroke-width="2.5" stroke-miterlimit="10"/>
<path d="M623.927 343.844L623.927 371.922L599.611 357.883L623.927 343.844Z" fill="#E30613" stroke="#1B1A1A" stroke-width="2.5" stroke-miterlimit="10"/>
<path d="M561.125 303.871C540.425 300.793 508.826 297.462 477.045 328.144C431.59 372.031 451.228 420.709 451.228 420.709C451.228 420.709 474.318 383.039 482.284 375.362C500.992 357.293 560.739 361.337 560.739 361.337L561.125 303.871Z" fill="#E30613" stroke="#1B1A1A" stroke-width="2.5" stroke-miterlimit="10"/>
<path d="M561.007 303.871C581.707 300.793 613.306 297.462 645.087 328.144C690.543 372.031 670.905 420.709 670.905 420.709C670.905 420.709 647.815 383.039 639.848 375.362C621.14 357.293 561.393 361.337 561.393 361.337L561.007 303.871Z" fill="#E30613" stroke="#1B1A1A" stroke-width="2.5" stroke-miterlimit="10"/>
<path d="M561.007 354.647C581.707 351.569 613.306 348.237 645.087 378.92C690.543 422.806 670.905 471.485 670.905 471.485C670.905 471.485 647.815 433.814 639.848 426.138C621.14 408.069 561.393 412.112 561.393 412.112L561.007 354.647Z" fill="#E30613" stroke="#1B1A1A" stroke-width="2.5" stroke-miterlimit="10"/>
<path d="M561.007 395.905C581.707 392.827 613.306 389.496 645.087 420.178C690.543 464.065 670.905 512.743 670.905 512.743C670.905 512.743 647.815 475.073 639.848 467.396C621.14 449.327 561.393 453.371 561.393 453.371L561.007 395.905Z" fill="#E30613" stroke="#1B1A1A" stroke-width="2.5" stroke-miterlimit="10"/>
<path d="M561.125 354.647C540.425 351.569 508.826 348.237 477.045 378.92C431.59 422.806 451.228 471.485 451.228 471.485C451.228 471.485 474.318 433.814 482.284 426.138C500.992 408.069 560.739 412.112 560.739 412.112L561.125 354.647Z" fill="#E30613" stroke="#1B1A1A" stroke-width="2.5" stroke-miterlimit="10"/>
<path d="M561.125 395.905C540.425 392.827 508.826 389.496 477.045 420.178C431.59 464.065 451.228 512.743 451.228 512.743C451.228 512.743 474.318 475.073 482.284 467.396C500.992 449.327 560.739 453.371 560.739 453.371L561.125 395.905Z" fill="#E30613" stroke="#1B1A1A" stroke-width="2.5" stroke-miterlimit="10"/>
<path d="M561.038 341.647C589.254 341.647 612.127 333.959 612.127 324.475C612.127 314.991 589.254 307.303 561.038 307.303C532.822 307.303 509.948 314.991 509.948 324.475C509.948 333.959 532.822 341.647 561.038 341.647Z" fill="#FFFBF1" stroke="#1B1A1A" stroke-width="2.5" stroke-miterlimit="10"/>
<path d="M561.033 341.603C570.3 341.603 577.812 334.091 577.812 324.825C577.812 315.559 570.3 308.047 561.033 308.047C551.767 308.047 544.255 315.559 544.255 324.825C544.255 334.091 551.767 341.603 561.033 341.603Z" fill="#1B1A1A" stroke="#1B1A1A" stroke-width="2.5" stroke-miterlimit="10"/>
<path d="M561.038 460.006C589.254 460.006 612.127 452.318 612.127 442.834C612.127 433.351 589.254 425.663 561.038 425.663C532.822 425.663 509.948 433.351 509.948 442.834C509.948 452.318 532.822 460.006 561.038 460.006Z" fill="#FFFBF1" stroke="#1B1A1A" stroke-width="2.5" stroke-miterlimit="10"/>
<path d="M561.033 459.968C570.3 459.968 577.812 452.457 577.812 443.191C577.812 433.924 570.3 426.413 561.033 426.413C551.767 426.413 544.255 433.924 544.255 443.191C544.255 452.457 551.767 459.968 561.033 459.968Z" fill="#1B1A1A" stroke="#1B1A1A" stroke-width="2.5" stroke-miterlimit="10"/>
<path d="M561.038 352.089C589.254 352.089 612.127 368.837 612.127 389.496C612.127 410.155 589.254 426.903 561.038 426.903C532.822 426.903 509.948 410.155 509.948 389.496C509.948 368.837 532.822 352.089 561.038 352.089Z" fill="#FFFBF1" stroke="#1B1A1A" stroke-width="2.5" stroke-miterlimit="10"/>
<path d="M561.033 352.188C570.3 352.188 577.812 368.551 577.812 388.737C577.812 408.922 570.3 425.286 561.033 425.286C551.767 425.286 544.255 408.922 544.255 388.737C544.255 368.551 551.767 352.188 561.033 352.188Z" fill="#1B1A1A" stroke="#1B1A1A" stroke-width="2.5" stroke-miterlimit="10"/>
<path d="M538.171 1053.84H579.393C579.393 1053.84 581.52 1025.08 570.74 1013.43C564.802 1007.02 562.124 1004.06 562.124 992.525C562.124 982.085 566.633 981.241 566.592 978.63C566.592 978.63 571.921 964.777 558.782 964.777C545.643 964.777 550.972 978.63 550.972 978.63C550.931 981.24 555.44 982.084 555.44 992.525C555.44 1004.06 552.762 1007.02 546.824 1013.43C536.043 1025.08 538.171 1053.84 538.171 1053.84Z" fill="#009FE3" stroke="#1B1A1A" stroke-width="2.5" stroke-miterlimit="10"/>
<path d="M95.1707 1053.84H136.393C136.393 1053.84 138.52 1025.08 127.74 1013.43C121.802 1007.02 119.124 1004.06 119.124 992.525C119.124 982.085 123.633 981.241 123.592 978.631C123.592 978.631 128.921 964.777 115.782 964.777C102.643 964.777 107.972 978.631 107.972 978.631C107.931 981.241 112.44 982.084 112.44 992.525C112.44 1004.06 109.762 1007.02 103.824 1013.43C93.0425 1025.08 95.1707 1053.84 95.1707 1053.84Z" fill="#009FE3" stroke="#1B1A1A" stroke-width="2.5" stroke-miterlimit="10"/>
<path d="M571.699 361.268C578.999 370.666 585.254 397.023 571.699 414.707C584.082 406.184 607.284 390.048 571.699 361.268Z" fill="#FFDE00" stroke="#1B1A1A" stroke-width="2.5"/>
<path d="M551.453 361.268C544.152 370.666 537.897 397.023 551.453 414.707C539.069 406.184 515.867 390.048 551.453 361.268Z" fill="#FFDE00" stroke="#1B1A1A" stroke-width="2.5"/>
<path d="M560.868 437.931C564.07 437.931 566.664 411.347 566.664 378.554C566.664 345.762 564.07 319.178 560.868 319.178C557.667 319.178 555.073 345.762 555.073 378.554C555.073 411.347 557.667 437.931 560.868 437.931Z" fill="#FFDE00" stroke="#1B1A1A" stroke-width="2.5" stroke-miterlimit="10"/>
<path d="M95.7454 313.049H136.968C136.968 313.049 139.095 284.283 128.315 272.638C122.376 266.225 119.699 263.269 119.699 251.732C119.699 241.292 124.207 240.448 124.167 237.838C124.167 237.838 129.496 223.984 116.357 223.984C103.218 223.984 108.547 237.838 108.547 237.838C108.506 240.447 113.015 241.291 113.015 251.732C113.015 263.269 110.337 266.225 104.399 272.638C93.6172 284.284 95.7454 313.049 95.7454 313.049Z" fill="#009FE3" stroke="#1B1A1A" stroke-width="2.5" stroke-miterlimit="10"/>
<path d="M152.583 428.124L82.4811 428.124C66.9918 428.124 54.4343 440.681 54.4343 456.171L54.4343 484.249C54.4343 519.098 82.6828 547.338 117.524 547.338C152.373 547.338 180.614 519.09 180.614 484.249L180.614 456.171C180.629 440.681 168.072 428.124 152.583 428.124Z" fill="#009FE3" stroke="#1B1A1A" stroke-width="2.5" stroke-miterlimit="10"/>
<path d="M131.706 545.755L131.567 544.622L117.528 520.306L103.489 544.622L103.349 545.755C107.91 546.802 112.649 547.352 117.528 547.352C122.406 547.352 127.145 546.794 131.706 545.755Z" fill="#E30613" stroke="#1B1A1A" stroke-width="2.5" stroke-miterlimit="10"/>
<path d="M60.4348 511.127C64.4914 519.737 70.4404 527.276 77.7469 533.21L88.3963 507.055L60.4348 511.127Z" fill="#E30613" stroke="#1B1A1A" stroke-width="2.5" stroke-miterlimit="10"/>
<path d="M54.437 484.25C54.437 493.868 56.5855 502.982 60.4326 511.133L81.1187 491.82L54.437 484.25Z" fill="#FFDE00" stroke="#1B1A1A" stroke-width="2.5" stroke-miterlimit="10"/>
<path d="M77.7407 533.228C85.0859 539.208 93.804 543.56 103.352 545.755L100.645 516.684L77.7407 533.228Z" fill="#FFDE00" stroke="#1B1A1A" stroke-width="2.5" stroke-miterlimit="10"/>
<path d="M54.437 456.172L54.437 484.25L78.753 470.211L54.437 456.172Z" fill="#E30613" stroke="#1B1A1A" stroke-width="2.5" stroke-miterlimit="10"/>
<path d="M174.623 511.127C170.567 519.737 164.618 527.276 157.311 533.21L146.662 507.055L174.623 511.127Z" fill="#E30613" stroke="#1B1A1A" stroke-width="2.5" stroke-miterlimit="10"/>
<path d="M180.615 484.25C180.615 493.868 178.467 502.982 174.62 511.133L153.934 491.82L180.615 484.25Z" fill="#FFDE00" stroke="#1B1A1A" stroke-width="2.5" stroke-miterlimit="10"/>
<path d="M157.317 533.228C149.972 539.208 141.254 543.56 131.706 545.755L134.413 516.684L157.317 533.228Z" fill="#FFDE00" stroke="#1B1A1A" stroke-width="2.5" stroke-miterlimit="10"/>
<path d="M180.618 456.172L180.618 484.25L156.302 470.211L180.618 456.172Z" fill="#E30613" stroke="#1B1A1A" stroke-width="2.5" stroke-miterlimit="10"/>
<path d="M117.064 294.962C96.3642 291.884 64.7648 288.553 32.9843 319.235C-12.4715 363.122 7.16649 411.8 7.16649 411.8C7.16649 411.8 30.2565 374.13 38.2227 366.453C56.9313 348.384 116.678 352.428 116.678 352.428L117.064 294.962Z" fill="#E30613" stroke="#1B1A1A" stroke-width="2.5" stroke-miterlimit="10"/>
<path d="M116.949 294.962C137.649 291.884 169.249 288.553 201.029 319.235C246.485 363.122 226.847 411.8 226.847 411.8C226.847 411.8 203.757 374.13 195.791 366.453C177.082 348.384 117.336 352.428 117.336 352.428L116.949 294.962Z" fill="#E30613" stroke="#1B1A1A" stroke-width="2.5" stroke-miterlimit="10"/>
<path d="M116.949 343.653C137.649 340.575 169.249 337.243 201.029 367.925C246.485 411.812 226.847 460.491 226.847 460.491C226.847 460.491 203.757 422.82 195.791 415.143C177.082 397.075 117.336 401.118 117.336 401.118L116.949 343.653Z" fill="#E30613" stroke="#1B1A1A" stroke-width="2.5" stroke-miterlimit="10"/>
<path d="M116.949 395.901C137.649 392.823 169.249 389.491 201.029 420.173C246.485 464.06 226.847 512.739 226.847 512.739C226.847 512.739 203.757 475.068 195.791 467.392C177.082 449.323 117.336 453.366 117.336 453.366L116.949 395.901Z" fill="#E30613" stroke="#1B1A1A" stroke-width="2.5" stroke-miterlimit="10"/>
<path d="M117.064 343.652C96.3642 340.575 64.7648 337.243 32.9843 367.925C-12.4715 411.812 7.16649 460.491 7.16649 460.491C7.16649 460.491 30.2565 422.82 38.2227 415.143C56.9313 397.074 116.678 401.118 116.678 401.118L117.064 343.652Z" fill="#E30613" stroke="#1B1A1A" stroke-width="2.5" stroke-miterlimit="10"/>
<path d="M117.064 395.902C96.3642 392.824 64.7648 389.493 32.9843 420.175C-12.4715 464.061 7.16649 512.74 7.16649 512.74C7.16649 512.74 30.2565 475.069 38.2227 467.393C56.9313 449.324 116.678 453.367 116.678 453.367L117.064 395.902Z" fill="#E30613" stroke="#1B1A1A" stroke-width="2.5" stroke-miterlimit="10"/>
<path d="M116.977 341.643C145.193 341.643 168.066 333.955 168.066 324.472C168.066 314.988 145.193 307.3 116.977 307.3C88.7606 307.3 65.887 314.988 65.887 324.472C65.887 333.955 88.7606 341.643 116.977 341.643Z" fill="#FFFBF1" stroke="#1B1A1A" stroke-width="2.5" stroke-miterlimit="10"/>
<path d="M116.972 341.6C126.238 341.6 133.75 334.088 133.75 324.822C133.75 315.556 126.238 308.044 116.972 308.044C107.705 308.044 100.193 315.556 100.193 324.822C100.193 334.088 107.705 341.6 116.972 341.6Z" fill="#1B1A1A" stroke="#1B1A1A" stroke-width="2.5" stroke-miterlimit="10"/>
<path d="M116.977 450.895C145.193 450.895 168.066 443.207 168.066 433.723C168.066 424.239 145.193 416.551 116.977 416.551C88.7606 416.551 65.887 424.239 65.887 433.723C65.887 443.207 88.7606 450.895 116.977 450.895Z" fill="#FFFBF1" stroke="#1B1A1A" stroke-width="2.5" stroke-miterlimit="10"/>
<path d="M116.972 450.857C126.238 450.857 133.75 443.345 133.75 434.079C133.75 424.813 126.238 417.301 116.972 417.301C107.705 417.301 100.193 424.813 100.193 434.079C100.193 443.345 107.705 450.857 116.972 450.857Z" fill="#1B1A1A" stroke="#1B1A1A" stroke-width="2.5" stroke-miterlimit="10"/>
<path d="M116.977 342.926C145.193 342.926 168.066 359.674 168.066 380.334C168.066 400.993 145.193 417.741 116.977 417.741C88.7606 417.741 65.887 400.993 65.887 380.334C65.887 359.674 88.7606 342.926 116.977 342.926Z" fill="#FFFBF1" stroke="#1B1A1A" stroke-width="2.5" stroke-miterlimit="10"/>
<path d="M116.972 343.024C126.238 343.024 133.75 359.388 133.75 379.574C133.75 399.759 126.238 416.123 116.972 416.123C107.705 416.123 100.193 399.759 100.193 379.574C100.193 359.388 107.705 343.024 116.972 343.024Z" fill="#1B1A1A" stroke="#1B1A1A" stroke-width="2.5" stroke-miterlimit="10"/>
<path d="M127.639 354.802C134.939 364.201 141.194 390.558 127.639 408.241C140.022 399.718 163.225 383.582 127.639 354.802Z" fill="#FFDE00" stroke="#1B1A1A" stroke-width="2.5"/>
<path d="M107.392 354.802C100.091 364.201 93.8365 390.558 107.392 408.241C95.0079 399.718 71.8058 383.582 107.392 354.802Z" fill="#FFDE00" stroke="#1B1A1A" stroke-width="2.5"/>
<path d="M116.807 437.928C120.008 437.928 122.603 411.344 122.603 378.551C122.603 345.758 120.008 319.175 116.807 319.175C113.606 319.175 111.011 345.758 111.011 378.551C111.011 411.344 113.606 437.928 116.807 437.928Z" fill="#FFDE00" stroke="#1B1A1A" stroke-width="2.5" stroke-miterlimit="10"/>
<path d="M309.327 439.745L361.696 439.745C373.268 439.745 382.649 430.364 382.649 418.793L382.649 397.817C382.649 371.783 361.546 350.686 335.518 350.686C309.484 350.686 288.387 371.789 288.387 397.817L288.387 418.793C288.375 430.364 297.756 439.745 309.327 439.745Z" fill="#009FE3" stroke="#1B1A1A" stroke-width="2.5" stroke-miterlimit="10"/>
<path d="M324.922 351.87L325.026 352.716L335.514 370.882L346.002 352.716L346.106 351.87C342.699 351.088 339.159 350.677 335.514 350.677C331.87 350.677 328.329 351.094 324.922 351.87Z" fill="#E30613" stroke="#1B1A1A" stroke-width="2.5" stroke-miterlimit="10"/>
<path d="M378.165 377.737C375.135 371.305 370.691 365.673 365.232 361.241L357.277 380.779L378.165 377.737Z" fill="#E30613" stroke="#1B1A1A" stroke-width="2.5" stroke-miterlimit="10"/>
<path d="M382.645 397.817C382.645 390.632 381.04 383.824 378.166 377.734L362.712 392.162L382.645 397.817Z" fill="#FFDE00" stroke="#1B1A1A" stroke-width="2.5" stroke-miterlimit="10"/>
<path d="M365.238 361.227C359.751 356.76 353.238 353.509 346.105 351.87L348.128 373.587L365.238 361.227Z" fill="#FFDE00" stroke="#1B1A1A" stroke-width="2.5" stroke-miterlimit="10"/>
<path d="M382.645 418.793L382.645 397.817L364.479 408.305L382.645 418.793Z" fill="#E30613" stroke="#1B1A1A" stroke-width="2.5" stroke-miterlimit="10"/>
<path d="M292.861 377.737C295.892 371.305 300.336 365.673 305.794 361.241L313.75 380.779L292.861 377.737Z" fill="#E30613" stroke="#1B1A1A" stroke-width="2.5" stroke-miterlimit="10"/>
<path d="M288.385 397.817C288.385 390.632 289.99 383.824 292.864 377.734L308.318 392.162L288.385 397.817Z" fill="#FFDE00" stroke="#1B1A1A" stroke-width="2.5" stroke-miterlimit="10"/>
<path d="M305.79 361.227C311.277 356.76 317.79 353.509 324.923 351.87L322.9 373.587L305.79 361.227Z" fill="#FFDE00" stroke="#1B1A1A" stroke-width="2.5" stroke-miterlimit="10"/>
<path d="M288.383 418.793L288.383 397.817L306.548 408.305L288.383 418.793Z" fill="#E30613" stroke="#1B1A1A" stroke-width="2.5" stroke-miterlimit="10"/>
<path d="M362.235 640.438H307.478C307.478 640.438 304.653 678.792 318.973 694.319C326.861 702.869 330.417 706.811 330.417 722.194C330.417 736.114 324.428 737.239 324.483 740.719C324.483 740.719 317.404 759.191 334.857 759.191C352.31 759.191 345.231 740.719 345.231 740.719C345.285 737.24 339.296 736.115 339.296 722.194C339.296 706.811 342.853 702.869 350.74 694.319C365.062 678.791 362.235 640.438 362.235 640.438Z" fill="#E30613" stroke="#1B1A1A" stroke-width="2.5" stroke-miterlimit="10"/>
<path d="M296.876 432.107C278.052 465.006 255.909 524.135 238.958 585.81L432.525 585.81C415.566 524.135 393.431 465.006 374.607 432.107C367.001 418.823 358.898 407.68 345.557 407.68L325.934 407.68C325.934 407.68 312.585 405.899 296.876 432.107Z" fill="#FFDE00" stroke="#1B1A1A" stroke-width="2.5" stroke-miterlimit="10"/>
<path d="M412.338 587L256.873 587C261.221 626.902 294.361 670.127 334.605 670.127C374.849 670.127 407.989 626.902 412.338 587Z" fill="#FFDE00" stroke="#1B1A1A" stroke-width="2.5" stroke-miterlimit="10"/>
<path d="M335.034 586.273C355.734 589.351 387.334 592.682 419.114 562C464.57 518.113 444.932 469.435 444.932 469.435C444.932 469.435 421.842 507.105 413.876 514.782C395.167 532.851 335.421 528.807 335.421 528.807L335.034 586.273Z" fill="#E30613" stroke="#1B1A1A" stroke-width="2.5" stroke-miterlimit="10"/>
<path d="M335.149 586.273C314.449 589.351 282.85 592.682 251.069 562C205.613 518.113 225.251 469.435 225.251 469.435C225.251 469.435 248.341 507.105 256.308 514.782C275.016 532.851 334.763 528.807 334.763 528.807L335.149 586.273Z" fill="#E30613" stroke="#1B1A1A" stroke-width="2.5" stroke-miterlimit="10"/>
<path d="M335.149 537.582C314.449 540.66 282.85 543.992 251.069 513.31C205.613 469.423 225.251 420.744 225.251 420.744C225.251 420.744 248.341 458.415 256.308 466.091C275.016 484.16 334.763 480.117 334.763 480.117L335.149 537.582Z" fill="#E30613" stroke="#1B1A1A" stroke-width="2.5" stroke-miterlimit="10"/>
<path d="M335.149 485.334C314.449 488.412 282.85 491.743 251.069 461.061C205.613 417.175 225.251 368.496 225.251 368.496C225.251 368.496 248.341 406.167 256.308 413.843C275.016 431.912 334.763 427.869 334.763 427.869L335.149 485.334Z" fill="#E30613" stroke="#1B1A1A" stroke-width="2.5" stroke-miterlimit="10"/>
<path d="M335.034 537.582C355.734 540.66 387.334 543.992 419.114 513.31C464.57 469.423 444.932 420.744 444.932 420.744C444.932 420.744 421.842 458.415 413.876 466.091C395.167 484.16 335.421 480.117 335.421 480.117L335.034 537.582Z" fill="#E30613" stroke="#1B1A1A" stroke-width="2.5" stroke-miterlimit="10"/>
<path d="M335.034 485.334C355.734 488.412 387.334 491.743 419.114 461.061C464.57 417.175 444.932 368.496 444.932 368.496C444.932 368.496 421.842 406.167 413.876 413.843C395.167 431.912 335.421 427.869 335.421 427.869L335.034 485.334Z" fill="#E30613" stroke="#1B1A1A" stroke-width="2.5" stroke-miterlimit="10"/>
<path d="M335.122 430.341C306.906 430.341 284.032 438.029 284.032 447.513C284.032 456.997 306.906 464.685 335.122 464.685C363.338 464.685 386.212 456.997 386.212 447.513C386.212 438.029 363.338 430.341 335.122 430.341Z" fill="#FFFBF1" stroke="#1B1A1A" stroke-width="2.5" stroke-miterlimit="10"/>
<path d="M335.126 430.378C325.86 430.378 318.348 437.89 318.348 447.156C318.348 456.422 325.86 463.934 335.126 463.934C344.393 463.934 351.905 456.422 351.905 447.156C351.905 437.89 344.393 430.378 335.126 430.378Z" fill="#1B1A1A" stroke="#1B1A1A" stroke-width="2.5" stroke-miterlimit="10"/>
<path d="M335.122 538.31C306.906 538.31 284.032 521.562 284.032 500.903C284.032 480.243 306.906 463.495 335.122 463.495C363.338 463.495 386.212 480.243 386.212 500.903C386.212 521.562 363.338 538.31 335.122 538.31Z" fill="#FFFBF1" stroke="#1B1A1A" stroke-width="2.5" stroke-miterlimit="10"/>
<path d="M335.119 538.3C325.751 538.3 318.157 521.93 318.157 501.736C318.157 481.543 325.751 465.173 335.119 465.173C344.488 465.173 352.082 481.543 352.082 501.736C352.082 521.93 344.488 538.3 335.119 538.3Z" fill="#1B1A1A" stroke="#1B1A1A" stroke-width="2.5" stroke-miterlimit="10"/>
<path d="M391.556 608.374C380.078 608.374 370.774 617.678 370.774 629.156C370.774 640.633 380.078 649.937 391.556 649.937C403.033 649.937 412.338 640.633 412.338 629.156C412.338 617.678 403.033 608.374 391.556 608.374Z" fill="#009FE3" stroke="#1B1A1A" stroke-width="2.5" stroke-miterlimit="10"/>
<path d="M277.553 608.374C266.075 608.374 256.771 617.678 256.771 629.156C256.771 640.633 266.075 649.937 277.553 649.937C289.03 649.937 298.335 640.633 298.335 629.156C298.335 617.678 289.03 608.374 277.553 608.374Z" fill="#009FE3" stroke="#1B1A1A" stroke-width="2.5" stroke-miterlimit="10"/>
<path d="M391.558 622.625C381.392 622.625 373.151 630.866 373.151 641.032C373.151 651.197 381.392 659.438 391.558 659.438C401.723 659.438 409.964 651.197 409.964 641.032C409.964 630.866 401.723 622.625 391.558 622.625Z" fill="#FFFBF1" stroke="#1B1A1A" stroke-width="2.5" stroke-miterlimit="10"/>
<path d="M391.551 622.671C388.212 622.671 385.506 630.723 385.506 640.656C385.506 650.588 388.212 658.64 391.551 658.64C394.889 658.64 397.596 650.588 397.596 640.656C397.596 630.723 394.889 622.671 391.551 622.671Z" fill="#1B1A1A" stroke="#1B1A1A" stroke-width="2.5" stroke-miterlimit="10"/>
<path d="M277.553 622.625C267.388 622.625 259.147 630.866 259.147 641.032C259.147 651.197 267.388 659.438 277.553 659.438C287.719 659.438 295.96 651.197 295.96 641.032C295.96 630.866 287.719 622.625 277.553 622.625Z" fill="#FFFBF1" stroke="#1B1A1A" stroke-width="2.5" stroke-miterlimit="10"/>
<path d="M277.545 622.671C274.206 622.671 271.5 630.723 271.5 640.656C271.5 650.588 274.206 658.64 277.545 658.64C280.883 658.64 283.59 650.588 283.59 640.656C283.59 630.723 280.883 622.671 277.545 622.671Z" fill="#1B1A1A" stroke="#1B1A1A" stroke-width="2.5" stroke-miterlimit="10"/>
<path d="M356.353 588.187H315.13C315.13 588.187 313.004 616.953 323.784 628.598C329.722 635.011 332.4 637.967 332.4 649.504C332.4 659.944 327.891 660.788 327.932 663.398C327.932 663.398 322.603 677.252 335.742 677.252C348.881 677.252 343.552 663.398 343.552 663.398C343.593 660.789 339.084 659.945 339.084 649.504C339.084 637.967 341.761 635.011 347.7 628.598C358.481 616.952 356.353 588.187 356.353 588.187Z" fill="#009FE3" stroke="#1B1A1A" stroke-width="2.5" stroke-miterlimit="10"/>
<path d="M324.46 526.434C317.159 517.035 310.905 490.678 324.46 472.995C312.076 481.518 288.874 497.654 324.46 526.434Z" fill="#FFDE00" stroke="#1B1A1A" stroke-width="2.5"/>
<path d="M344.707 526.434C352.007 517.035 358.262 490.678 344.707 472.995C357.091 481.518 380.293 497.654 344.707 526.434Z" fill="#FFDE00" stroke="#1B1A1A" stroke-width="2.5"/>
<path d="M335.122 539.593C306.906 539.593 284.032 547.281 284.032 556.764C284.032 566.248 306.906 573.936 335.122 573.936C363.338 573.936 386.212 566.248 386.212 556.764C386.212 547.281 363.338 539.593 335.122 539.593Z" fill="#FFFBF1" stroke="#1B1A1A" stroke-width="2.5" stroke-miterlimit="10"/>
<path d="M335.126 539.636C325.86 539.636 318.348 547.147 318.348 556.413C318.348 565.68 325.86 573.191 335.126 573.191C344.393 573.191 351.905 565.68 351.905 556.413C351.905 547.147 344.393 539.636 335.126 539.636Z" fill="#1B1A1A" stroke="#1B1A1A" stroke-width="2.5" stroke-miterlimit="10"/>
<path d="M326.036 399.579C326.036 415.405 330.348 428.234 335.667 428.234C340.986 428.234 345.298 415.405 345.298 399.579C345.298 383.754 340.986 370.925 335.667 370.925C330.348 370.925 326.036 383.754 326.036 399.579Z" fill="#FFFBF1" stroke="#1B1A1A" stroke-width="2.5" stroke-miterlimit="10"/>
<path d="M326.059 399.577C326.059 404.775 330.272 408.988 335.469 408.988C340.666 408.988 344.879 404.775 344.879 399.577C344.879 394.38 340.666 390.167 335.469 390.167C330.272 390.167 326.059 394.38 326.059 399.577Z" fill="#1B1A1A" stroke="#1B1A1A" stroke-width="2.5" stroke-miterlimit="10"/>
<path d="M358.869 574.884L313.546 574.884L313.546 585.752C313.546 598.268 323.691 608.413 336.207 608.413C348.722 608.413 358.867 598.268 358.867 585.752L358.867 574.884L358.869 574.884Z" fill="#E30613" stroke="#1B1A1A" stroke-width="2.5" stroke-miterlimit="10"/>
<path d="M351.463 574.83L320.719 574.83L320.719 582.251C320.719 590.797 327.601 597.725 336.091 597.725C344.581 597.725 351.462 590.797 351.462 582.251L351.462 574.83L351.463 574.83Z" fill="#FFDE00" stroke="#1B1A1A" stroke-width="2.5" stroke-miterlimit="10"/>
<circle cx="559.402" cy="483.162" r="16.8434" transform="rotate(180 559.402 483.162)" fill="#FFDE00" stroke="#1B1A1A" stroke-width="2.5"/>
<circle cx="116.476" cy="483.162" r="16.8434" transform="rotate(180 116.476 483.162)" fill="#FFDE00" stroke="#1B1A1A" stroke-width="2.5"/>
<path d="M241.871 452.11C238.583 454.412 255.038 483.585 278.623 517.268C302.209 550.952 323.994 576.391 327.282 574.089C330.57 571.787 314.116 542.614 290.53 508.931C266.945 475.247 245.159 449.808 241.871 452.11Z" fill="#FFDE00" stroke="#1B1A1A" stroke-width="2.5" stroke-miterlimit="10"/>
<path d="M342.893 573.984C339.605 571.682 356.059 542.51 379.645 508.826C403.23 475.143 425.015 449.703 428.303 452.005C431.591 454.308 415.137 483.48 391.552 517.163C367.966 550.847 346.181 576.286 342.893 573.984Z" fill="#FFDE00" stroke="#1B1A1A" stroke-width="2.5" stroke-miterlimit="10"/>
<rect x="191.073" y="1134.89" width="179.521" height="14.7588" transform="rotate(45 191.073 1134.89)" fill="#FFDE00" stroke="#1B1A1A" stroke-width="2.5"/>
<rect x="180.119" y="1134.37" width="157.144" height="14.7588" rx="5.93444" fill="#FFDE00" stroke="#1B1A1A" stroke-width="2.5"/>
<rect x="243.114" y="1259.92" width="77.3218" height="14.7588" rx="5.93444" fill="#FFDE00" stroke="#1B1A1A" stroke-width="2.5"/>
<path d="M226.961 1266.21C233.483 1260.32 233.273 1252.28 231.879 1247.36C231.685 1246.68 232.493 1246.02 233.094 1246.4L264.144 1266.29C264.749 1266.67 264.475 1267.61 263.757 1267.61H227.454C226.756 1267.61 226.443 1266.68 226.961 1266.21Z" fill="#009FE3" stroke="#1B1A1A" stroke-width="2.5"/>
<path d="M226.961 1268.39C233.483 1274.28 233.273 1282.32 231.879 1287.24C231.685 1287.93 232.493 1288.58 233.094 1288.2L264.144 1268.32C264.749 1267.93 264.475 1266.99 263.757 1266.99H227.454C226.756 1266.99 226.443 1267.92 226.961 1268.39Z" fill="#009FE3" stroke="#1B1A1A" stroke-width="2.5"/>
<path d="M268.162 1267.35C268.745 1266.34 260.826 1260.68 250.474 1254.7C240.121 1248.72 231.256 1244.7 230.673 1245.71C230.089 1246.72 238.009 1252.38 248.361 1258.36C258.713 1264.34 267.579 1268.36 268.162 1267.35Z" fill="#E30613" stroke="#1B1A1A" stroke-width="2.5" stroke-miterlimit="10"/>
<path d="M268.082 1267.45C267.499 1266.44 258.634 1270.46 248.281 1276.44C237.929 1282.42 230.01 1288.08 230.593 1289.09C231.177 1290.1 240.042 1286.08 250.394 1280.1C260.747 1274.12 268.666 1268.46 268.082 1267.45Z" fill="#E30613" stroke="#1B1A1A" stroke-width="2.5" stroke-miterlimit="10"/>
<path d="M267.894 1267.73C267.894 1266.56 258.204 1265.62 246.25 1265.62C234.296 1265.62 224.605 1266.56 224.605 1267.73C224.605 1268.9 234.296 1269.84 246.25 1269.84C258.204 1269.84 267.894 1268.9 267.894 1267.73Z" fill="#E30613" stroke="#1B1A1A" stroke-width="2.5" stroke-miterlimit="10"/>
<rect y="1.76777" width="179.521" height="14.7588" transform="matrix(-0.707107 0.707107 0.707107 0.707107 484.885 1133.64)" fill="#FFDE00" stroke="#1B1A1A" stroke-width="2.5"/>
<rect x="-1.25" y="1.25" width="157.144" height="14.7588" rx="5.93444" transform="matrix(-1 0 0 1 495.837 1133.12)" fill="#FFDE00" stroke="#1B1A1A" stroke-width="2.5"/>
<rect x="-1.25" y="1.25" width="77.3218" height="14.7588" rx="5.93444" transform="matrix(-1 0 0 1 432.845 1258.67)" fill="#FFDE00" stroke="#1B1A1A" stroke-width="2.5"/>
<path d="M450.247 1266.21C443.725 1260.32 443.936 1252.28 445.329 1247.36C445.523 1246.68 444.715 1246.02 444.115 1246.4L413.064 1266.29C412.46 1266.67 412.734 1267.61 413.451 1267.61H449.754C450.452 1267.61 450.765 1266.68 450.247 1266.21Z" fill="#009FE3" stroke="#1B1A1A" stroke-width="2.5"/>
<path d="M450.247 1268.39C443.725 1274.28 443.936 1282.32 445.329 1287.24C445.523 1287.93 444.715 1288.58 444.115 1288.2L413.064 1268.32C412.46 1267.93 412.734 1266.99 413.451 1266.99H449.754C450.452 1266.99 450.765 1267.92 450.247 1268.39Z" fill="#009FE3" stroke="#1B1A1A" stroke-width="2.5"/>
<path d="M409.046 1267.35C408.463 1266.34 416.382 1260.68 426.734 1254.7C437.087 1248.72 445.952 1244.7 446.535 1245.71C447.119 1246.72 439.2 1252.38 428.847 1258.36C418.495 1264.34 409.63 1268.36 409.046 1267.35Z" fill="#E30613" stroke="#1B1A1A" stroke-width="2.5" stroke-miterlimit="10"/>
<path d="M409.126 1267.45C409.709 1266.44 418.574 1270.46 428.927 1276.44C439.279 1282.42 447.198 1288.08 446.615 1289.09C446.032 1290.1 437.166 1286.08 426.814 1280.1C416.462 1274.12 408.542 1268.46 409.126 1267.45Z" fill="#E30613" stroke="#1B1A1A" stroke-width="2.5" stroke-miterlimit="10"/>
<path d="M409.314 1267.73C409.314 1266.56 419.005 1265.62 430.958 1265.62C442.912 1265.62 452.603 1266.56 452.603 1267.73C452.603 1268.9 442.912 1269.84 430.958 1269.84C419.005 1269.84 409.314 1268.9 409.314 1267.73Z" fill="#E30613" stroke="#1B1A1A" stroke-width="2.5" stroke-miterlimit="10"/>
<path d="M80.2519 1136.25H150.353C165.843 1136.25 178.4 1123.69 178.4 1108.2V1080.12C178.4 1045.27 150.152 1017.03 115.31 1017.03C80.4613 1017.03 52.2206 1045.28 52.2206 1080.12V1108.2C52.2051 1123.69 64.7626 1136.25 80.2519 1136.25Z" fill="#009FE3" stroke="#1B1A1A" stroke-width="2.5" stroke-miterlimit="10"/>
<path d="M101.128 1018.62L101.268 1019.75L115.307 1044.07L129.345 1019.75L129.485 1018.62C124.924 1017.57 120.185 1017.02 115.307 1017.02C110.428 1017.02 105.689 1017.58 101.128 1018.62Z" fill="#E30613" stroke="#1B1A1A" stroke-width="2.5" stroke-miterlimit="10"/>
<path d="M172.399 1053.25C168.343 1044.64 162.394 1037.1 155.087 1031.16L144.438 1057.32L172.399 1053.25Z" fill="#E30613" stroke="#1B1A1A" stroke-width="2.5" stroke-miterlimit="10"/>
<path d="M178.397 1080.12C178.397 1070.51 176.249 1061.39 172.402 1053.24L151.716 1072.55L178.397 1080.12Z" fill="#FFDE00" stroke="#1B1A1A" stroke-width="2.5" stroke-miterlimit="10"/>
<path d="M155.094 1031.15C147.748 1025.16 139.03 1020.81 129.482 1018.62L132.189 1047.69L155.094 1031.15Z" fill="#FFDE00" stroke="#1B1A1A" stroke-width="2.5" stroke-miterlimit="10"/>
<path d="M178.397 1108.2V1080.12L154.081 1094.16L178.397 1108.2Z" fill="#E30613" stroke="#1B1A1A" stroke-width="2.5" stroke-miterlimit="10"/>
<path d="M58.2106 1053.25C62.2672 1044.64 68.2163 1037.1 75.5227 1031.16L86.1721 1057.32L58.2106 1053.25Z" fill="#E30613" stroke="#1B1A1A" stroke-width="2.5" stroke-miterlimit="10"/>
<path d="M52.218 1080.12C52.218 1070.51 54.3665 1061.39 58.2136 1053.24L78.8997 1072.55L52.218 1080.12Z" fill="#FFDE00" stroke="#1B1A1A" stroke-width="2.5" stroke-miterlimit="10"/>
<path d="M75.5171 1031.15C82.8623 1025.16 91.5804 1020.81 101.128 1018.62L98.4215 1047.69L75.5171 1031.15Z" fill="#FFDE00" stroke="#1B1A1A" stroke-width="2.5" stroke-miterlimit="10"/>
<path d="M52.2165 1108.2V1080.12L76.5325 1094.16L52.2165 1108.2Z" fill="#E30613" stroke="#1B1A1A" stroke-width="2.5" stroke-miterlimit="10"/>
<path d="M80.9277 1246.96H151.029C166.518 1246.96 179.076 1234.4 179.076 1218.91V1190.83C179.076 1155.98 150.827 1127.74 115.986 1127.74C81.1371 1127.74 52.8964 1155.99 52.8964 1190.83V1218.91C52.8809 1234.4 65.4383 1246.96 80.9277 1246.96Z" fill="#009FE3" stroke="#1B1A1A" stroke-width="2.5" stroke-miterlimit="10"/>
<path d="M101.803 1129.33L101.943 1130.46L115.982 1154.78L130.021 1130.46L130.16 1129.33C125.6 1128.28 120.861 1127.73 115.982 1127.73C111.103 1127.73 106.364 1128.29 101.803 1129.33Z" fill="#E30613" stroke="#1B1A1A" stroke-width="2.5" stroke-miterlimit="10"/>
<path d="M173.074 1163.95C169.017 1155.34 163.068 1147.81 155.762 1141.87L145.112 1168.03L173.074 1163.95Z" fill="#E30613" stroke="#1B1A1A" stroke-width="2.5" stroke-miterlimit="10"/>
<path d="M179.071 1190.83C179.071 1181.21 176.922 1172.1 173.075 1163.95L152.389 1183.26L179.071 1190.83Z" fill="#FFDE00" stroke="#1B1A1A" stroke-width="2.5" stroke-miterlimit="10"/>
<path d="M155.771 1141.85C148.426 1135.87 139.708 1131.52 130.16 1129.33L132.867 1158.4L155.771 1141.85Z" fill="#FFDE00" stroke="#1B1A1A" stroke-width="2.5" stroke-miterlimit="10"/>
<path d="M179.071 1218.91V1190.83L154.755 1204.87L179.071 1218.91Z" fill="#E30613" stroke="#1B1A1A" stroke-width="2.5" stroke-miterlimit="10"/>
<path d="M58.885 1163.95C62.9415 1155.34 68.8906 1147.81 76.197 1141.87L86.8464 1168.03L58.885 1163.95Z" fill="#E30613" stroke="#1B1A1A" stroke-width="2.5" stroke-miterlimit="10"/>
<path d="M52.8933 1190.83C52.8933 1181.21 55.0418 1172.1 58.8889 1163.95L79.575 1183.26L52.8933 1190.83Z" fill="#FFDE00" stroke="#1B1A1A" stroke-width="2.5" stroke-miterlimit="10"/>
<path d="M76.1924 1141.85C83.5376 1135.87 92.2557 1131.52 101.804 1129.33L99.0968 1158.4L76.1924 1141.85Z" fill="#FFDE00" stroke="#1B1A1A" stroke-width="2.5" stroke-miterlimit="10"/>
<path d="M52.8908 1218.91V1190.83L77.2068 1204.87L52.8908 1218.91Z" fill="#E30613" stroke="#1B1A1A" stroke-width="2.5" stroke-miterlimit="10"/>
<path d="M115.693 1267.79C136.393 1270.87 167.992 1274.2 199.773 1243.52C245.229 1199.63 225.591 1150.95 225.591 1150.95C225.591 1150.95 202.501 1188.62 194.534 1196.3C175.826 1214.37 116.079 1210.32 116.079 1210.32L115.693 1267.79Z" fill="#E30613" stroke="#1B1A1A" stroke-width="2.5" stroke-miterlimit="10"/>
<path d="M115.808 1267.79C95.1076 1270.87 63.5082 1274.2 31.7277 1243.52C-13.7281 1199.63 5.9099 1150.95 5.9099 1150.95C5.9099 1150.95 28.9999 1188.62 36.9661 1196.3C55.6747 1214.37 115.422 1210.32 115.422 1210.32L115.808 1267.79Z" fill="#E30613" stroke="#1B1A1A" stroke-width="2.5" stroke-miterlimit="10"/>
<path d="M115.808 1219.1C95.1076 1222.18 63.5082 1225.51 31.7277 1194.83C-13.7281 1150.94 5.9099 1102.26 5.9099 1102.26C5.9099 1102.26 28.9999 1139.93 36.9661 1147.61C55.6747 1165.68 115.422 1161.63 115.422 1161.63L115.808 1219.1Z" fill="#E30613" stroke="#1B1A1A" stroke-width="2.5" stroke-miterlimit="10"/>
<path d="M115.808 1166.85C95.1076 1169.93 63.5082 1173.26 31.7277 1142.58C-13.7281 1098.69 5.9099 1050.01 5.9099 1050.01C5.9099 1050.01 28.9999 1087.68 36.9661 1095.36C55.6747 1113.43 115.422 1109.38 115.422 1109.38L115.808 1166.85Z" fill="#E30613" stroke="#1B1A1A" stroke-width="2.5" stroke-miterlimit="10"/>
<path d="M115.693 1219.1C136.393 1222.18 167.992 1225.51 199.773 1194.83C245.229 1150.94 225.591 1102.26 225.591 1102.26C225.591 1102.26 202.501 1139.93 194.534 1147.61C175.826 1165.68 116.079 1161.63 116.079 1161.63L115.693 1219.1Z" fill="#E30613" stroke="#1B1A1A" stroke-width="2.5" stroke-miterlimit="10"/>
<path d="M115.693 1166.85C136.393 1169.93 167.992 1173.26 199.773 1142.58C245.229 1098.69 225.591 1050.01 225.591 1050.01C225.591 1050.01 202.501 1087.68 194.534 1095.36C175.826 1113.43 116.079 1109.38 116.079 1109.38L115.693 1166.85Z" fill="#E30613" stroke="#1B1A1A" stroke-width="2.5" stroke-miterlimit="10"/>
<path d="M115.78 1221.11C87.5644 1221.11 64.6908 1228.8 64.6908 1238.28C64.6908 1247.76 87.5644 1255.45 115.78 1255.45C143.996 1255.45 166.87 1247.76 166.87 1238.28C166.87 1228.8 143.996 1221.11 115.78 1221.11Z" fill="#FFFBF1" stroke="#1B1A1A" stroke-width="2.5" stroke-miterlimit="10"/>
<path d="M115.785 1221.15C106.519 1221.15 99.0066 1228.66 99.0066 1237.93C99.0066 1247.2 106.519 1254.71 115.785 1254.71C125.052 1254.71 132.564 1247.2 132.564 1237.93C132.564 1228.66 125.052 1221.15 115.785 1221.15Z" fill="#1B1A1A" stroke="#1B1A1A" stroke-width="2.5" stroke-miterlimit="10"/>
<path d="M115.78 1111.86C87.5644 1111.86 64.6908 1119.55 64.6908 1129.03C64.6908 1138.51 87.5644 1146.2 115.78 1146.2C143.996 1146.2 166.87 1138.51 166.87 1129.03C166.87 1119.55 143.996 1111.86 115.78 1111.86Z" fill="#FFFBF1" stroke="#1B1A1A" stroke-width="2.5" stroke-miterlimit="10"/>
<path d="M115.785 1111.9C106.519 1111.9 99.0066 1119.41 99.0066 1128.67C99.0066 1137.94 106.519 1145.45 115.785 1145.45C125.052 1145.45 132.564 1137.94 132.564 1128.67C132.564 1119.41 125.052 1111.9 115.785 1111.9Z" fill="#1B1A1A" stroke="#1B1A1A" stroke-width="2.5" stroke-miterlimit="10"/>
<path d="M115.78 1219.83C87.5644 1219.83 64.6908 1203.08 64.6908 1182.42C64.6908 1161.76 87.5644 1145.01 115.78 1145.01C143.996 1145.01 166.87 1161.76 166.87 1182.42C166.87 1203.08 143.996 1219.83 115.78 1219.83Z" fill="#FFFBF1" stroke="#1B1A1A" stroke-width="2.5" stroke-miterlimit="10"/>
<path d="M115.785 1219.73C106.519 1219.73 99.0066 1203.36 99.0066 1183.18C99.0066 1162.99 106.519 1146.63 115.785 1146.63C125.052 1146.63 132.564 1162.99 132.564 1183.18C132.564 1203.36 125.052 1219.73 115.785 1219.73Z" fill="#1B1A1A" stroke="#1B1A1A" stroke-width="2.5" stroke-miterlimit="10"/>
<path d="M137.012 1269.7L95.7889 1269.7C95.7889 1269.7 93.6621 1298.47 104.443 1310.11C110.381 1316.53 113.058 1319.48 113.058 1331.02C113.058 1341.46 108.55 1342.3 108.59 1344.91C108.59 1344.91 103.261 1358.77 116.4 1358.77C129.539 1358.77 124.21 1344.91 124.21 1344.91C124.251 1342.3 119.742 1341.46 119.742 1331.02C119.742 1319.48 122.42 1316.53 128.358 1310.11C139.14 1298.47 137.012 1269.7 137.012 1269.7Z" fill="#009FE3" stroke="#1B1A1A" stroke-width="2.5" stroke-miterlimit="10"/>
<path d="M105.12 1207.95C97.8192 1198.55 91.5645 1172.19 105.12 1154.51C92.7359 1163.03 69.5338 1179.17 105.12 1207.95Z" fill="#FFDE00" stroke="#1B1A1A" stroke-width="2.5"/>
<path d="M125.366 1207.95C132.666 1198.55 138.921 1172.19 125.366 1154.51C137.749 1163.03 160.951 1179.17 125.366 1207.95Z" fill="#FFDE00" stroke="#1B1A1A" stroke-width="2.5"/>
<path d="M115.95 1124.82C112.749 1124.82 110.154 1151.41 110.154 1184.2C110.154 1216.99 112.749 1243.58 115.95 1243.58C119.151 1243.58 121.746 1216.99 121.746 1184.2C121.746 1151.41 119.151 1124.82 115.95 1124.82Z" fill="#FFDE00" stroke="#1B1A1A" stroke-width="2.5" stroke-miterlimit="10"/>
<path d="M524.231 1134.63H594.333C609.822 1134.63 622.38 1122.07 622.38 1106.58V1078.51C622.38 1043.66 594.131 1015.42 559.29 1015.42C524.441 1015.42 496.2 1043.66 496.2 1078.51V1106.58C496.185 1122.07 508.742 1134.63 524.231 1134.63Z" fill="#009FE3" stroke="#1B1A1A" stroke-width="2.5" stroke-miterlimit="10"/>
<path d="M545.107 1017L545.247 1018.13L559.286 1042.45L573.325 1018.13L573.464 1017C568.904 1015.95 564.165 1015.4 559.286 1015.4C554.407 1015.4 549.668 1015.96 545.107 1017Z" fill="#E30613" stroke="#1B1A1A" stroke-width="2.5" stroke-miterlimit="10"/>
<path d="M616.379 1051.63C612.322 1043.02 606.373 1035.48 599.067 1029.54L588.417 1055.7L616.379 1051.63Z" fill="#E30613" stroke="#1B1A1A" stroke-width="2.5" stroke-miterlimit="10"/>
<path d="M622.376 1078.5C622.376 1068.89 620.228 1059.77 616.381 1051.62L595.695 1070.93L622.376 1078.5Z" fill="#FFDE00" stroke="#1B1A1A" stroke-width="2.5" stroke-miterlimit="10"/>
<path d="M599.073 1029.53C591.728 1023.55 583.009 1019.19 573.461 1017L576.168 1046.07L599.073 1029.53Z" fill="#FFDE00" stroke="#1B1A1A" stroke-width="2.5" stroke-miterlimit="10"/>
<path d="M622.376 1106.58V1078.5L598.06 1092.54L622.376 1106.58Z" fill="#E30613" stroke="#1B1A1A" stroke-width="2.5" stroke-miterlimit="10"/>
<path d="M502.19 1051.63C506.246 1043.02 512.196 1035.48 519.502 1029.54L530.151 1055.7L502.19 1051.63Z" fill="#E30613" stroke="#1B1A1A" stroke-width="2.5" stroke-miterlimit="10"/>
<path d="M496.197 1078.5C496.197 1068.89 498.346 1059.77 502.193 1051.62L522.879 1070.93L496.197 1078.5Z" fill="#FFDE00" stroke="#1B1A1A" stroke-width="2.5" stroke-miterlimit="10"/>
<path d="M519.496 1029.53C526.842 1023.55 535.56 1019.19 545.108 1017L542.401 1046.07L519.496 1029.53Z" fill="#FFDE00" stroke="#1B1A1A" stroke-width="2.5" stroke-miterlimit="10"/>
<path d="M496.196 1106.58V1078.5L520.512 1092.54L496.196 1106.58Z" fill="#E30613" stroke="#1B1A1A" stroke-width="2.5" stroke-miterlimit="10"/>
<path d="M559.75 1267.79C580.45 1270.87 612.049 1274.2 643.83 1243.52C689.285 1199.63 669.647 1150.95 669.647 1150.95C669.647 1150.95 646.557 1188.62 638.591 1196.3C619.883 1214.37 560.136 1210.33 560.136 1210.33L559.75 1267.79Z" fill="#E30613" stroke="#1B1A1A" stroke-width="2.5" stroke-miterlimit="10"/>
<path d="M559.865 1267.79C539.165 1270.87 507.566 1274.2 475.785 1243.52C430.329 1199.63 449.967 1150.95 449.967 1150.95C449.967 1150.95 473.057 1188.62 481.024 1196.3C499.732 1214.37 559.479 1210.33 559.479 1210.33L559.865 1267.79Z" fill="#E30613" stroke="#1B1A1A" stroke-width="2.5" stroke-miterlimit="10"/>
<path d="M559.865 1219.1C539.165 1222.18 507.566 1225.51 475.785 1194.83C430.329 1150.94 449.967 1102.26 449.967 1102.26C449.967 1102.26 473.057 1139.93 481.024 1147.61C499.732 1165.68 559.479 1161.64 559.479 1161.64L559.865 1219.1Z" fill="#E30613" stroke="#1B1A1A" stroke-width="2.5" stroke-miterlimit="10"/>
<path d="M559.865 1166.85C539.165 1169.93 507.566 1173.26 475.785 1142.58C430.329 1098.69 449.967 1050.02 449.967 1050.02C449.967 1050.02 473.057 1087.69 481.024 1095.36C499.732 1113.43 559.479 1109.39 559.479 1109.39L559.865 1166.85Z" fill="#E30613" stroke="#1B1A1A" stroke-width="2.5" stroke-miterlimit="10"/>
<path d="M559.75 1219.1C580.45 1222.18 612.049 1225.51 643.83 1194.83C689.285 1150.94 669.647 1102.26 669.647 1102.26C669.647 1102.26 646.557 1139.93 638.591 1147.61C619.883 1165.68 560.136 1161.64 560.136 1161.64L559.75 1219.1Z" fill="#E30613" stroke="#1B1A1A" stroke-width="2.5" stroke-miterlimit="10"/>
<path d="M559.75 1166.85C580.45 1169.93 612.049 1173.26 643.83 1142.58C689.285 1098.69 669.647 1050.01 669.647 1050.01C669.647 1050.01 646.557 1087.68 638.591 1095.36C619.883 1113.43 560.136 1109.39 560.136 1109.39L559.75 1166.85Z" fill="#E30613" stroke="#1B1A1A" stroke-width="2.5" stroke-miterlimit="10"/>
<path d="M559.837 1221.11C531.621 1221.11 508.747 1228.8 508.747 1238.28C508.747 1247.77 531.621 1255.45 559.837 1255.45C588.053 1255.45 610.927 1247.77 610.927 1238.28C610.927 1228.8 588.053 1221.11 559.837 1221.11Z" fill="#FFFBF1" stroke="#1B1A1A" stroke-width="2.5" stroke-miterlimit="10"/>
<path d="M559.841 1221.15C550.575 1221.15 543.063 1228.67 543.063 1237.93C543.063 1247.2 550.575 1254.71 559.841 1254.71C569.108 1254.71 576.62 1247.2 576.62 1237.93C576.62 1228.67 569.108 1221.15 559.841 1221.15Z" fill="#1B1A1A" stroke="#1B1A1A" stroke-width="2.5" stroke-miterlimit="10"/>
<path d="M559.837 1111.86C531.621 1111.86 508.747 1119.55 508.747 1129.03C508.747 1138.52 531.621 1146.2 559.837 1146.2C588.053 1146.2 610.927 1138.52 610.927 1129.03C610.927 1119.55 588.053 1111.86 559.837 1111.86Z" fill="#FFFBF1" stroke="#1B1A1A" stroke-width="2.5" stroke-miterlimit="10"/>
<path d="M559.841 1111.9C550.575 1111.9 543.063 1119.41 543.063 1128.68C543.063 1137.94 550.575 1145.45 559.841 1145.45C569.108 1145.45 576.62 1137.94 576.62 1128.68C576.62 1119.41 569.108 1111.9 559.841 1111.9Z" fill="#1B1A1A" stroke="#1B1A1A" stroke-width="2.5" stroke-miterlimit="10"/>
<path d="M559.837 1219.83C531.621 1219.83 508.747 1203.08 508.747 1182.42C508.747 1161.76 531.621 1145.01 559.837 1145.01C588.053 1145.01 610.927 1161.76 610.927 1182.42C610.927 1203.08 588.053 1219.83 559.837 1219.83Z" fill="#FFFBF1" stroke="#1B1A1A" stroke-width="2.5" stroke-miterlimit="10"/>
<path d="M559.841 1219.73C550.575 1219.73 543.063 1203.37 543.063 1183.18C543.063 1163 550.575 1146.63 559.841 1146.63C569.108 1146.63 576.62 1163 576.62 1183.18C576.62 1203.37 569.108 1219.73 559.841 1219.73Z" fill="#1B1A1A" stroke="#1B1A1A" stroke-width="2.5" stroke-miterlimit="10"/>
<path d="M581.069 1269.71L539.846 1269.71C539.846 1269.71 537.719 1298.47 548.499 1310.12C554.438 1316.53 557.115 1319.49 557.115 1331.02C557.115 1341.46 552.607 1342.31 552.647 1344.92C552.647 1344.92 547.318 1358.77 560.457 1358.77C573.596 1358.77 568.267 1344.92 568.267 1344.92C568.308 1342.31 563.799 1341.46 563.799 1331.02C563.799 1319.49 566.477 1316.53 572.415 1310.12C583.197 1298.47 581.069 1269.71 581.069 1269.71Z" fill="#009FE3" stroke="#1B1A1A" stroke-width="2.5" stroke-miterlimit="10"/>
<path d="M549.176 1207.95C541.876 1198.55 535.621 1172.2 549.176 1154.51C536.792 1163.04 513.59 1179.17 549.176 1207.95Z" fill="#FFDE00" stroke="#1B1A1A" stroke-width="2.5"/>
<path d="M569.422 1207.95C576.723 1198.55 582.977 1172.2 569.422 1154.51C581.806 1163.04 605.008 1179.17 569.422 1207.95Z" fill="#FFDE00" stroke="#1B1A1A" stroke-width="2.5"/>
<path d="M560.007 1124.83C556.805 1124.83 554.211 1151.41 554.211 1184.2C554.211 1217 556.805 1243.58 560.007 1243.58C563.208 1243.58 565.802 1217 565.802 1184.2C565.802 1151.41 563.208 1124.83 560.007 1124.83Z" fill="#FFDE00" stroke="#1B1A1A" stroke-width="2.5" stroke-miterlimit="10"/>
<path d="M364.11 1123.12H311.741C300.17 1123.12 290.789 1132.5 290.789 1144.07V1165.04C290.789 1191.08 311.892 1212.17 337.92 1212.17C363.953 1212.17 385.051 1191.07 385.051 1165.04V1144.07C385.062 1132.5 375.681 1123.12 364.11 1123.12Z" fill="#009FE3" stroke="#1B1A1A" stroke-width="2.5" stroke-miterlimit="10"/>
<path d="M348.516 1210.99L348.411 1210.14L337.924 1191.98L327.436 1210.14L327.332 1210.99C330.739 1211.77 334.279 1212.18 337.924 1212.18C341.568 1212.18 345.109 1211.77 348.516 1210.99Z" fill="#E30613" stroke="#1B1A1A" stroke-width="2.5" stroke-miterlimit="10"/>
<path d="M295.272 1185.12C298.303 1191.55 302.747 1197.19 308.205 1201.62L316.161 1182.08L295.272 1185.12Z" fill="#E30613" stroke="#1B1A1A" stroke-width="2.5" stroke-miterlimit="10"/>
<path d="M290.793 1165.04C290.793 1172.23 292.398 1179.04 295.272 1185.13L310.726 1170.7L290.793 1165.04Z" fill="#FFDE00" stroke="#1B1A1A" stroke-width="2.5" stroke-miterlimit="10"/>
<path d="M308.199 1201.63C313.687 1206.1 320.2 1209.35 327.332 1210.99L325.31 1189.27L308.199 1201.63Z" fill="#FFDE00" stroke="#1B1A1A" stroke-width="2.5" stroke-miterlimit="10"/>
<path d="M290.793 1144.07V1165.04L308.958 1154.56L290.793 1144.07Z" fill="#E30613" stroke="#1B1A1A" stroke-width="2.5" stroke-miterlimit="10"/>
<path d="M380.576 1185.12C377.546 1191.55 373.102 1197.19 367.643 1201.62L359.688 1182.08L380.576 1185.12Z" fill="#E30613" stroke="#1B1A1A" stroke-width="2.5" stroke-miterlimit="10"/>
<path d="M385.053 1165.04C385.053 1172.23 383.448 1179.04 380.574 1185.13L365.12 1170.7L385.053 1165.04Z" fill="#FFDE00" stroke="#1B1A1A" stroke-width="2.5" stroke-miterlimit="10"/>
<path d="M367.648 1201.63C362.161 1206.1 355.648 1209.35 348.515 1210.99L350.537 1189.27L367.648 1201.63Z" fill="#FFDE00" stroke="#1B1A1A" stroke-width="2.5" stroke-miterlimit="10"/>
<path d="M385.055 1144.07V1165.04L366.89 1154.56L385.055 1144.07Z" fill="#E30613" stroke="#1B1A1A" stroke-width="2.5" stroke-miterlimit="10"/>
<path d="M311.202 922.422L365.959 922.422C365.959 922.422 368.784 884.068 354.464 868.541C346.577 859.991 343.02 856.049 343.02 840.666C343.02 826.746 349.009 825.621 348.955 822.141C348.955 822.141 356.034 803.669 338.581 803.669C321.128 803.669 328.206 822.141 328.206 822.141C328.152 825.62 334.141 826.745 334.141 840.666C334.141 856.049 330.585 859.991 322.697 868.541C308.375 884.069 311.202 922.422 311.202 922.422Z" fill="#E30613" stroke="#1B1A1A" stroke-width="2.5" stroke-miterlimit="10"/>
<path d="M376.562 1130.75C395.385 1097.85 417.529 1038.73 434.48 977.05H240.912C257.871 1038.73 280.007 1097.85 298.83 1130.75C306.436 1144.04 314.539 1155.18 327.881 1155.18H347.503C347.503 1155.18 360.853 1156.96 376.562 1130.75Z" fill="#FFDE00" stroke="#1B1A1A" stroke-width="2.5" stroke-miterlimit="10"/>
<path d="M261.1 975.86H416.565C412.216 935.958 379.076 892.733 338.832 892.733C298.588 892.733 265.448 935.958 261.1 975.86Z" fill="#FFDE00" stroke="#1B1A1A" stroke-width="2.5" stroke-miterlimit="10"/>
<path d="M338.403 976.587C317.703 973.509 286.103 970.178 254.323 1000.86C208.867 1044.75 228.505 1093.43 228.505 1093.43C228.505 1093.43 251.595 1055.75 259.561 1048.08C278.27 1030.01 338.017 1034.05 338.017 1034.05L338.403 976.587Z" fill="#E30613" stroke="#1B1A1A" stroke-width="2.5" stroke-miterlimit="10"/>
<path d="M338.288 976.587C358.988 973.509 390.588 970.178 422.368 1000.86C467.824 1044.75 448.186 1093.43 448.186 1093.43C448.186 1093.43 425.096 1055.75 417.13 1048.08C398.421 1030.01 338.674 1034.05 338.674 1034.05L338.288 976.587Z" fill="#E30613" stroke="#1B1A1A" stroke-width="2.5" stroke-miterlimit="10"/>
<path d="M338.288 1025.28C358.988 1022.2 390.588 1018.87 422.368 1049.55C467.824 1093.44 448.186 1142.12 448.186 1142.12C448.186 1142.12 425.096 1104.45 417.13 1096.77C398.421 1078.7 338.674 1082.74 338.674 1082.74L338.288 1025.28Z" fill="#E30613" stroke="#1B1A1A" stroke-width="2.5" stroke-miterlimit="10"/>
<path d="M338.288 1077.53C358.988 1074.45 390.588 1071.12 422.368 1101.8C467.824 1145.69 448.186 1194.36 448.186 1194.36C448.186 1194.36 425.096 1156.69 417.13 1149.02C398.421 1130.95 338.674 1134.99 338.674 1134.99L338.288 1077.53Z" fill="#E30613" stroke="#1B1A1A" stroke-width="2.5" stroke-miterlimit="10"/>
<path d="M338.403 1025.28C317.703 1022.2 286.103 1018.87 254.323 1049.55C208.867 1093.44 228.505 1142.12 228.505 1142.12C228.505 1142.12 251.595 1104.45 259.561 1096.77C278.27 1078.7 338.017 1082.74 338.017 1082.74L338.403 1025.28Z" fill="#E30613" stroke="#1B1A1A" stroke-width="2.5" stroke-miterlimit="10"/>
<path d="M338.403 1077.53C317.703 1074.45 286.103 1071.12 254.323 1101.8C208.867 1145.69 228.505 1194.36 228.505 1194.36C228.505 1194.36 251.595 1156.69 259.561 1149.02C278.27 1130.95 338.017 1134.99 338.017 1134.99L338.403 1077.53Z" fill="#E30613" stroke="#1B1A1A" stroke-width="2.5" stroke-miterlimit="10"/>
<path d="M338.315 1132.52C366.531 1132.52 389.405 1124.83 389.405 1115.35C389.405 1105.86 366.531 1098.18 338.315 1098.18C310.099 1098.18 287.226 1105.86 287.226 1115.35C287.226 1124.83 310.099 1132.52 338.315 1132.52Z" fill="#FFFBF1" stroke="#1B1A1A" stroke-width="2.5" stroke-miterlimit="10"/>
<path d="M338.311 1132.48C347.577 1132.48 355.089 1124.97 355.089 1115.7C355.089 1106.44 347.577 1098.93 338.311 1098.93C329.044 1098.93 321.532 1106.44 321.532 1115.7C321.532 1124.97 329.044 1132.48 338.311 1132.48Z" fill="#1B1A1A" stroke="#1B1A1A" stroke-width="2.5" stroke-miterlimit="10"/>
<path d="M338.315 1024.55C366.531 1024.55 389.405 1041.3 389.405 1061.96C389.405 1082.62 366.531 1099.36 338.315 1099.36C310.099 1099.36 287.226 1082.62 287.226 1061.96C287.226 1041.3 310.099 1024.55 338.315 1024.55Z" fill="#FFFBF1" stroke="#1B1A1A" stroke-width="2.5" stroke-miterlimit="10"/>
<path d="M338.317 1024.56C347.685 1024.56 355.28 1040.93 355.28 1061.12C355.28 1081.32 347.685 1097.69 338.317 1097.69C328.949 1097.69 321.355 1081.32 321.355 1061.12C321.355 1040.93 328.949 1024.56 338.317 1024.56Z" fill="#1B1A1A" stroke="#1B1A1A" stroke-width="2.5" stroke-miterlimit="10"/>
<path d="M281.881 954.486C293.359 954.486 302.663 945.182 302.663 933.704C302.663 922.227 293.359 912.923 281.881 912.923C270.404 912.923 261.1 922.227 261.1 933.704C261.1 945.182 270.404 954.486 281.881 954.486Z" fill="#009FE3" stroke="#1B1A1A" stroke-width="2.5" stroke-miterlimit="10"/>
<path d="M395.884 954.486C407.362 954.486 416.666 945.182 416.666 933.704C416.666 922.227 407.362 912.923 395.884 912.923C384.407 912.923 375.103 922.227 375.103 933.704C375.103 945.182 384.407 954.486 395.884 954.486Z" fill="#009FE3" stroke="#1B1A1A" stroke-width="2.5" stroke-miterlimit="10"/>
<path d="M281.88 940.235C292.045 940.235 300.286 931.994 300.286 921.828C300.286 911.663 292.045 903.422 281.88 903.422C271.714 903.422 263.473 911.663 263.473 921.828C263.473 931.994 271.714 940.235 281.88 940.235Z" fill="#FFFBF1" stroke="#1B1A1A" stroke-width="2.5" stroke-miterlimit="10"/>
<path d="M281.887 940.189C285.225 940.189 287.932 932.137 287.932 922.204C287.932 912.272 285.225 904.22 281.887 904.22C278.548 904.22 275.842 912.272 275.842 922.204C275.842 932.137 278.548 940.189 281.887 940.189Z" fill="#1B1A1A" stroke="#1B1A1A" stroke-width="2.5" stroke-miterlimit="10"/>
<path d="M395.884 940.235C406.049 940.235 414.29 931.994 414.29 921.828C414.29 911.663 406.049 903.422 395.884 903.422C385.718 903.422 377.477 911.663 377.477 921.828C377.477 931.994 385.718 940.235 395.884 940.235Z" fill="#FFFBF1" stroke="#1B1A1A" stroke-width="2.5" stroke-miterlimit="10"/>
<path d="M395.893 940.189C399.232 940.189 401.938 932.137 401.938 922.204C401.938 912.272 399.232 904.22 395.893 904.22C392.554 904.22 389.848 912.272 389.848 922.204C389.848 932.137 392.554 940.189 395.893 940.189Z" fill="#1B1A1A" stroke="#1B1A1A" stroke-width="2.5" stroke-miterlimit="10"/>
<path d="M317.084 974.673L358.307 974.673C358.307 974.673 360.434 945.907 349.653 934.262C343.715 927.849 341.037 924.893 341.037 913.356C341.037 902.916 345.546 902.072 345.505 899.462C345.505 899.462 350.835 885.608 337.695 885.608C324.556 885.608 329.885 899.462 329.885 899.462C329.845 902.071 334.353 902.915 334.353 913.356C334.353 924.893 331.676 927.849 325.738 934.262C314.956 945.908 317.084 974.673 317.084 974.673Z" fill="#009FE3" stroke="#1B1A1A" stroke-width="2.5" stroke-miterlimit="10"/>
<path d="M348.977 1036.43C356.278 1045.82 362.532 1072.18 348.977 1089.86C361.361 1081.34 384.563 1065.21 348.977 1036.43Z" fill="#FFDE00" stroke="#1B1A1A" stroke-width="2.5"/>
<path d="M328.73 1036.43C321.43 1045.82 315.175 1072.18 328.73 1089.86C316.347 1081.34 293.144 1065.21 328.73 1036.43Z" fill="#FFDE00" stroke="#1B1A1A" stroke-width="2.5"/>
<path d="M338.315 1023.27C366.531 1023.27 389.405 1015.58 389.405 1006.1C389.405 996.612 366.531 988.924 338.315 988.924C310.099 988.924 287.226 996.612 287.226 1006.1C287.226 1015.58 310.099 1023.27 338.315 1023.27Z" fill="#FFFBF1" stroke="#1B1A1A" stroke-width="2.5" stroke-miterlimit="10"/>
<path d="M338.311 1023.22C347.577 1023.22 355.089 1015.71 355.089 1006.45C355.089 997.18 347.577 989.669 338.311 989.669C329.044 989.669 321.532 997.18 321.532 1006.45C321.532 1015.71 329.044 1023.22 338.311 1023.22Z" fill="#1B1A1A" stroke="#1B1A1A" stroke-width="2.5" stroke-miterlimit="10"/>
<path d="M347.401 1163.28C347.401 1147.46 343.089 1134.63 337.77 1134.63C332.451 1134.63 328.139 1147.46 328.139 1163.28C328.139 1179.11 332.451 1191.93 337.77 1191.93C343.089 1191.93 347.401 1179.11 347.401 1163.28Z" fill="#FFFBF1" stroke="#1B1A1A" stroke-width="2.5" stroke-miterlimit="10"/>
<path d="M347.378 1163.28C347.378 1158.08 343.164 1153.87 337.967 1153.87C332.77 1153.87 328.557 1158.08 328.557 1163.28C328.557 1168.48 332.77 1172.69 337.967 1172.69C343.164 1172.69 347.378 1168.48 347.378 1163.28Z" fill="#1B1A1A" stroke="#1B1A1A" stroke-width="2.5" stroke-miterlimit="10"/>
<path d="M314.569 987.976H359.892V977.108C359.892 964.592 349.747 954.448 337.231 954.448C324.716 954.448 314.571 964.592 314.571 977.108V987.976H314.569Z" fill="#E30613" stroke="#1B1A1A" stroke-width="2.5" stroke-miterlimit="10"/>
<path d="M321.975 988.03H352.719V980.609C352.719 972.063 345.837 965.136 337.347 965.136C328.857 965.136 321.976 972.063 321.976 980.609V988.03H321.975Z" fill="#FFDE00" stroke="#1B1A1A" stroke-width="2.5" stroke-miterlimit="10"/>
<circle cx="114.035" cy="1079.59" r="16.8434" fill="#FFDE00" stroke="#1B1A1A" stroke-width="2.5"/>
<circle cx="560.339" cy="1079.59" r="16.8434" fill="#FFDE00" stroke="#1B1A1A" stroke-width="2.5"/>
<path d="M431.566 1110.75C434.854 1108.45 418.4 1079.28 394.814 1045.59C371.229 1011.91 349.444 986.469 346.156 988.771C342.868 991.073 359.322 1020.25 382.908 1053.93C406.493 1087.61 428.278 1113.05 431.566 1110.75Z" fill="#FFDE00" stroke="#1B1A1A" stroke-width="2.5" stroke-miterlimit="10"/>
<path d="M330.545 988.771C333.833 991.073 317.378 1020.25 293.793 1053.93C270.208 1087.61 248.422 1113.05 245.134 1110.75C241.846 1108.45 258.301 1079.28 281.886 1045.59C305.472 1011.91 327.257 986.469 330.545 988.771Z" fill="#FFDE00" stroke="#1B1A1A" stroke-width="2.5" stroke-miterlimit="10"/>
</svg>
