<svg width="834" height="1194" viewBox="0 0 834 1194" fill="none" xmlns="http://www.w3.org/2000/svg">
<path d="M18.5314 144.62C-26.4897 177.279 -7.6505 265.173 5.76532 291.899C7.84158 296.031 13.6606 296.226 15.9766 292.222C18.4535 287.931 24.1866 286.883 28.0202 290.025C36.3516 296.846 49.7827 306.963 56.7192 309.621C58.0969 310.145 59.5896 309.21 59.7206 307.743C59.827 306.573 58.9066 305.842 57.8334 305.351C46.4211 300.103 27.4602 285.19 27.5007 263.709C27.5435 241.016 60.1243 195.694 60.1243 195.694L92.0765 156.389L92.0985 144.758L18.5314 144.62Z" fill="#FFFBF1" stroke="#E5E3E3" stroke-width="3" stroke-miterlimit="10"/>
<path d="M18.5531 134.127C-26.3446 101.299 -7.1739 13.4759 6.34264 -13.1986C8.43448 -17.3227 14.2541 -17.4961 16.5551 -13.4839C19.0158 -9.18291 24.7449 -8.11405 28.5903 -11.2409C36.9473 -18.0304 50.4165 -28.0967 57.363 -30.7287C58.7427 -31.2471 60.2318 -30.3065 60.3573 -28.8394C60.4593 -27.6689 59.5361 -26.9412 58.4611 -26.4543C47.029 -21.2497 28.0121 -6.40856 27.9716 15.0732C27.9287 37.7653 60.3383 83.2108 60.3383 83.2108L92.1421 122.636L92.1201 134.266L18.5531 134.127Z" fill="#FFFBF1" stroke="#E5E3E3" stroke-width="3" stroke-miterlimit="10"/>
<path d="M55.4724 184.471C43.6534 199.318 -1.2615 260.624 28.0202 290.025C35.6206 297.654 49.7827 306.963 56.7192 309.621C58.0969 310.145 59.5896 309.21 59.7206 307.743C59.827 306.573 58.9066 305.842 57.8334 305.351C46.4211 300.103 27.4602 285.19 27.5007 263.709C27.5435 241.016 60.1243 195.694 60.1243 195.694L92.0765 156.389L92.0985 144.758L55.4724 184.471Z" fill="#FFFBF1" stroke="#E5E3E3" stroke-width="3" stroke-miterlimit="10"/>
<path d="M55.6441 94.4158C43.8812 79.5247 -0.8021 18.0488 28.5903 -11.2409C36.2195 -18.8413 50.4165 -28.0967 57.363 -30.7287C58.7427 -31.2471 60.2318 -30.3065 60.3573 -28.8394C60.4593 -27.6689 59.5361 -26.9412 58.4611 -26.4543C47.029 -21.2497 28.0121 -6.40856 27.9716 15.0732C27.9287 37.7653 60.3383 83.2108 60.3383 83.2108L92.1421 122.636L92.1201 134.266L55.6441 94.4158Z" fill="#FFFBF1" stroke="#E5E3E3" stroke-width="3" stroke-miterlimit="10"/>
<path d="M117.447 148.997L117.483 130.12L137.817 126.568C142.411 125.767 147.202 127.235 150.273 130.735C152.353 133.112 153.613 136.216 153.607 139.623C153.601 143.029 152.328 146.129 150.24 148.498C147.155 151.987 142.351 153.445 137.768 152.618L117.447 148.997Z" fill="#FFFBF1" stroke="#E5E3E3" stroke-width="3" stroke-miterlimit="10"/>
<path d="M113.154 124.845L113.098 154.262C113.096 155.465 114.064 156.437 115.266 156.439C116.469 156.441 117.44 155.473 117.443 154.271L117.498 124.853C117.5 123.651 116.532 122.679 115.33 122.677C114.128 122.675 113.156 123.643 113.154 124.845Z" fill="#FFFBF1" stroke="#E5E3E3" stroke-width="3" stroke-miterlimit="10"/>
<path d="M103.068 122.648L103.004 156.409L92.0787 156.389L92.1423 122.627L103.068 122.648Z" fill="#FFFBF1" stroke="#E5E3E3" stroke-width="3" stroke-miterlimit="10"/>
<path d="M107.477 158.557C107.475 159.583 106.64 160.415 105.614 160.413L104.845 160.412C103.819 160.41 102.986 159.574 102.988 158.548L103.059 121.076C103.061 120.05 103.896 119.218 104.922 119.219L105.692 119.221C106.718 119.223 107.55 120.058 107.548 121.084L107.477 158.557Z" fill="#FFFBF1" stroke="#E5E3E3" stroke-width="3" stroke-miterlimit="10"/>
<path d="M107.541 125.63C107.538 127.177 108.786 128.438 110.341 128.441C111.888 128.444 113.149 127.196 113.152 125.641L113.153 124.903L113.098 154.2L113.099 153.343C113.102 151.796 111.854 150.535 110.299 150.532C108.752 150.529 107.491 151.777 107.488 153.332L107.541 125.63Z" fill="#FFFBF1" stroke="#E5E3E3" stroke-width="3" stroke-miterlimit="10" stroke-linecap="round" stroke-linejoin="round"/>
<path d="M92.1175 134.257L92.0977 144.757L28.2936 144.637L28.3134 134.137L92.1175 134.257Z" fill="#FFFBF1" stroke="#E5E3E3" stroke-width="3" stroke-miterlimit="10"/>
<path d="M50.2667 139.439C50.2613 142.34 47.9083 144.685 45.0066 144.679L18.5312 144.629L18.551 134.129L45.0344 134.179C47.9281 134.184 50.2722 136.537 50.2667 139.439Z" fill="#FFFBF1" stroke="#E5E3E3" stroke-width="3" stroke-miterlimit="10"/>
<path d="M18.5324 459.62C-26.4888 492.279 -7.64953 580.173 5.7663 606.899C7.84256 611.031 13.6615 611.226 15.9776 607.222C18.4545 602.931 24.1876 601.883 28.0212 605.025C36.3526 611.846 49.7837 621.963 56.7202 624.621C58.0979 625.145 59.5905 624.21 59.7216 622.743C59.828 621.573 58.9076 620.842 57.8344 620.351C46.422 615.103 27.4612 600.19 27.5017 578.709C27.5445 556.016 60.1253 510.694 60.1253 510.694L92.0775 471.389L92.0994 459.758L18.5324 459.62Z" fill="#FFFBF1" stroke="#E5E3E3" stroke-width="3" stroke-miterlimit="10"/>
<path d="M18.5541 449.127C-26.3436 416.299 -7.17293 328.476 6.34362 301.801C8.43545 297.677 14.2551 297.504 16.556 301.516C19.0167 305.817 24.7459 306.886 28.5913 303.759C36.9483 296.97 50.4175 286.903 57.364 284.271C58.7437 283.753 60.2328 284.694 60.3583 286.161C60.4603 287.331 59.5371 288.059 58.4621 288.546C47.03 293.75 28.013 308.591 27.9725 330.073C27.9297 352.765 60.3393 398.211 60.3393 398.211L92.143 437.636L92.1211 449.266L18.5541 449.127Z" fill="#FFFBF1" stroke="#E5E3E3" stroke-width="3" stroke-miterlimit="10"/>
<path d="M55.4733 499.471C43.6544 514.318 -1.26052 575.624 28.0212 605.025C35.6216 612.654 49.7837 621.963 56.7202 624.621C58.0979 625.145 59.5905 624.21 59.7216 622.743C59.828 621.573 58.9076 620.842 57.8344 620.351C46.422 615.103 27.4612 600.19 27.5017 578.709C27.5445 556.016 60.1253 510.694 60.1253 510.694L92.0775 471.389L92.0994 459.758L55.4733 499.471Z" fill="#FFFBF1" stroke="#E5E3E3" stroke-width="3" stroke-miterlimit="10"/>
<path d="M55.6451 409.416C43.8822 394.525 -0.801123 333.049 28.5913 303.759C36.2204 296.159 50.4175 286.903 57.364 284.271C58.7437 283.753 60.2328 284.694 60.3583 286.161C60.4603 287.331 59.5371 288.059 58.4621 288.546C47.03 293.75 28.013 308.591 27.9725 330.073C27.9297 352.765 60.3393 398.211 60.3393 398.211L92.143 437.636L92.1211 449.266L55.6451 409.416Z" fill="#FFFBF1" stroke="#E5E3E3" stroke-width="3" stroke-miterlimit="10"/>
<path d="M117.448 463.997L117.484 445.12L137.818 441.568C142.412 440.767 147.203 442.235 150.274 445.735C152.354 448.112 153.614 451.216 153.608 454.623C153.602 458.029 152.329 461.129 150.241 463.498C147.156 466.987 142.352 468.445 137.769 467.618L117.448 463.997Z" fill="#FFFBF1" stroke="#E5E3E3" stroke-width="3" stroke-miterlimit="10"/>
<path d="M113.155 439.845L113.099 469.262C113.097 470.465 114.065 471.436 115.267 471.439C116.47 471.441 117.441 470.473 117.444 469.27L117.499 439.853C117.501 438.651 116.533 437.679 115.331 437.677C114.129 437.675 113.157 438.643 113.155 439.845Z" fill="#FFFBF1" stroke="#E5E3E3" stroke-width="3" stroke-miterlimit="10"/>
<path d="M103.069 437.647L103.005 471.409L92.0796 471.388L92.1433 437.627L103.069 437.647Z" fill="#FFFBF1" stroke="#E5E3E3" stroke-width="3" stroke-miterlimit="10"/>
<path d="M107.478 473.557C107.476 474.583 106.641 475.415 105.615 475.413L104.845 475.412C103.82 475.41 102.987 474.575 102.989 473.549L103.06 436.076C103.062 435.05 103.897 434.218 104.923 434.22L105.693 434.221C106.719 434.223 107.551 435.058 107.549 436.084L107.478 473.557Z" fill="#FFFBF1" stroke="#E5E3E3" stroke-width="3" stroke-miterlimit="10"/>
<path d="M107.542 440.63C107.539 442.177 108.787 443.438 110.342 443.441C111.889 443.444 113.15 442.195 113.153 440.64L113.154 439.903L113.099 469.2L113.1 468.342C113.103 466.795 111.855 465.534 110.3 465.532C108.753 465.529 107.492 466.777 107.489 468.332L107.542 440.63Z" fill="#FFFBF1" stroke="#E5E3E3" stroke-width="3" stroke-miterlimit="10" stroke-linecap="round" stroke-linejoin="round"/>
<path d="M92.1184 449.257L92.0986 459.757L28.2946 459.637L28.3144 449.137L92.1184 449.257Z" fill="#FFFBF1" stroke="#E5E3E3" stroke-width="3" stroke-miterlimit="10"/>
<path d="M50.2677 454.439C50.2622 457.34 47.9092 459.685 45.0076 459.679L18.5321 459.629L18.5519 449.129L45.0354 449.179C47.929 449.184 50.2732 451.537 50.2677 454.439Z" fill="#FFFBF1" stroke="#E5E3E3" stroke-width="3" stroke-miterlimit="10"/>
<path d="M18.5314 774.619C-26.4897 807.278 -7.6505 895.173 5.76532 921.898C7.84158 926.03 13.6606 926.226 15.9766 922.222C18.4535 917.93 24.1866 916.883 28.0202 920.025C36.3516 926.846 49.7827 936.963 56.7192 939.621C58.0969 940.144 59.5896 939.209 59.7206 937.743C59.827 936.573 58.9066 935.842 57.8334 935.351C46.4211 930.103 27.4602 915.19 27.5007 893.708C27.5435 871.016 60.1243 825.693 60.1243 825.693L92.0765 786.389L92.0985 774.758L18.5314 774.619Z" fill="#FFFBF1" stroke="#E5E3E3" stroke-width="3" stroke-miterlimit="10"/>
<path d="M18.5531 764.127C-26.3446 731.299 -7.1739 643.476 6.34264 616.801C8.43448 612.677 14.2541 612.504 16.5551 616.516C19.0158 620.817 24.7449 621.886 28.5903 618.759C36.9473 611.969 50.4165 601.903 57.363 599.271C58.7427 598.753 60.2318 599.693 60.3573 601.16C60.4593 602.331 59.5361 603.059 58.4611 603.545C47.029 608.75 28.0121 623.591 27.9716 645.073C27.9287 667.765 60.3383 713.211 60.3383 713.211L92.1421 752.635L92.1201 764.266L18.5531 764.127Z" fill="#FFFBF1" stroke="#E5E3E3" stroke-width="3" stroke-miterlimit="10"/>
<path d="M55.4724 814.471C43.6534 829.317 -1.2615 890.624 28.0202 920.025C35.6206 927.654 49.7827 936.963 56.7192 939.621C58.0969 940.144 59.5896 939.209 59.7206 937.743C59.827 936.573 58.9066 935.842 57.8334 935.351C46.4211 930.103 27.4602 915.19 27.5007 893.708C27.5435 871.016 60.1243 825.693 60.1243 825.693L92.0765 786.389L92.0985 774.758L55.4724 814.471Z" fill="#FFFBF1" stroke="#E5E3E3" stroke-width="3" stroke-miterlimit="10"/>
<path d="M55.6441 724.416C43.8812 709.524 -0.8021 648.049 28.5903 618.759C36.2195 611.158 50.4165 601.903 57.363 599.271C58.7427 598.753 60.2318 599.693 60.3573 601.16C60.4593 602.331 59.5361 603.059 58.4611 603.545C47.029 608.75 28.0121 623.591 27.9716 645.073C27.9287 667.765 60.3383 713.211 60.3383 713.211L92.1421 752.635L92.1201 764.266L55.6441 724.416Z" fill="#FFFBF1" stroke="#E5E3E3" stroke-width="3" stroke-miterlimit="10"/>
<path d="M117.447 778.997L117.483 760.12L137.817 756.567C142.411 755.767 147.202 757.234 150.273 760.735C152.353 763.112 153.613 766.216 153.607 769.623C153.601 773.029 152.328 776.129 150.24 778.498C147.155 781.987 142.351 783.444 137.768 782.618L117.447 778.997Z" fill="#FFFBF1" stroke="#E5E3E3" stroke-width="3" stroke-miterlimit="10"/>
<path d="M113.154 754.845L113.098 784.262C113.096 785.464 114.064 786.436 115.266 786.438C116.469 786.441 117.44 785.472 117.443 784.27L117.498 754.853C117.5 753.651 116.532 752.679 115.33 752.677C114.128 752.674 113.156 753.642 113.154 754.845Z" fill="#FFFBF1" stroke="#E5E3E3" stroke-width="3" stroke-miterlimit="10"/>
<path d="M103.068 752.647L103.004 786.409L92.0787 786.388L92.1423 752.626L103.068 752.647Z" fill="#FFFBF1" stroke="#E5E3E3" stroke-width="3" stroke-miterlimit="10"/>
<path d="M107.477 788.557C107.475 789.583 106.64 790.415 105.614 790.413L104.845 790.412C103.819 790.41 102.986 789.574 102.988 788.548L103.059 751.076C103.061 750.05 103.896 749.218 104.922 749.219L105.692 749.221C106.718 749.223 107.55 750.058 107.548 751.084L107.477 788.557Z" fill="#FFFBF1" stroke="#E5E3E3" stroke-width="3" stroke-miterlimit="10"/>
<path d="M107.541 755.63C107.538 757.177 108.786 758.437 110.341 758.44C111.888 758.443 113.149 757.195 113.152 755.64L113.153 754.903L113.098 784.2L113.099 783.342C113.102 781.795 111.854 780.534 110.299 780.531C108.752 780.528 107.491 781.776 107.488 783.331L107.541 755.63Z" fill="#FFFBF1" stroke="#E5E3E3" stroke-width="3" stroke-miterlimit="10" stroke-linecap="round" stroke-linejoin="round"/>
<path d="M92.1175 764.257L92.0977 774.757L28.2936 774.637L28.3134 764.137L92.1175 764.257Z" fill="#FFFBF1" stroke="#E5E3E3" stroke-width="3" stroke-miterlimit="10"/>
<path d="M50.2667 769.438C50.2613 772.34 47.9083 774.684 45.0066 774.679L18.5312 774.629L18.551 764.128L45.0344 764.178C47.9281 764.184 50.2722 766.537 50.2667 769.438Z" fill="#FFFBF1" stroke="#E5E3E3" stroke-width="3" stroke-miterlimit="10"/>
<path d="M18.5314 1089.62C-26.4897 1122.28 -7.6505 1210.17 5.76532 1236.9C7.84158 1241.03 13.6606 1241.23 15.9766 1237.22C18.4535 1232.93 24.1866 1231.88 28.0202 1235.02C36.3516 1241.85 49.7827 1251.96 56.7192 1254.62C58.0969 1255.14 59.5896 1254.21 59.7206 1252.74C59.827 1251.57 58.9066 1250.84 57.8334 1250.35C46.4211 1245.1 27.4602 1230.19 27.5007 1208.71C27.5435 1186.02 60.1243 1140.69 60.1243 1140.69L92.0765 1101.39L92.0985 1089.76L18.5314 1089.62Z" fill="#FFFBF1" stroke="#E5E3E3" stroke-width="3" stroke-miterlimit="10"/>
<path d="M18.5531 1079.13C-26.3446 1046.3 -7.1739 958.475 6.34264 931.801C8.43448 927.677 14.2541 927.503 16.5551 931.516C19.0158 935.817 24.7449 936.885 28.5903 933.759C36.9473 926.969 50.4165 916.903 57.363 914.271C58.7427 913.752 60.2318 914.693 60.3573 916.16C60.4593 917.331 59.5361 918.058 58.4611 918.545C47.029 923.75 28.0121 938.591 27.9716 960.073C27.9287 982.765 60.3383 1028.21 60.3383 1028.21L92.1421 1067.64L92.1201 1079.27L18.5531 1079.13Z" fill="#FFFBF1" stroke="#E5E3E3" stroke-width="3" stroke-miterlimit="10"/>
<path d="M55.4724 1129.47C43.6534 1144.32 -1.2615 1205.62 28.0202 1235.02C35.6206 1242.65 49.7827 1251.96 56.7192 1254.62C58.0969 1255.14 59.5896 1254.21 59.7206 1252.74C59.827 1251.57 58.9066 1250.84 57.8334 1250.35C46.4211 1245.1 27.4602 1230.19 27.5007 1208.71C27.5435 1186.02 60.1243 1140.69 60.1243 1140.69L92.0765 1101.39L92.0985 1089.76L55.4724 1129.47Z" fill="#FFFBF1" stroke="#E5E3E3" stroke-width="3" stroke-miterlimit="10"/>
<path d="M55.6441 1039.42C43.8812 1024.52 -0.8021 963.048 28.5903 933.759C36.2195 926.158 50.4165 916.903 57.363 914.271C58.7427 913.752 60.2318 914.693 60.3573 916.16C60.4593 917.331 59.5361 918.058 58.4611 918.545C47.029 923.75 28.0121 938.591 27.9716 960.073C27.9287 982.765 60.3383 1028.21 60.3383 1028.21L92.1421 1067.64L92.1201 1079.27L55.6441 1039.42Z" fill="#FFFBF1" stroke="#E5E3E3" stroke-width="3" stroke-miterlimit="10"/>
<path d="M117.447 1094L117.483 1075.12L137.817 1071.57C142.411 1070.77 147.202 1072.23 150.273 1075.73C152.353 1078.11 153.613 1081.22 153.607 1084.62C153.601 1088.03 152.328 1091.13 150.24 1093.5C147.155 1096.99 142.351 1098.44 137.768 1097.62L117.447 1094Z" fill="#FFFBF1" stroke="#E5E3E3" stroke-width="3" stroke-miterlimit="10"/>
<path d="M113.154 1069.84L113.098 1099.26C113.096 1100.46 114.064 1101.44 115.266 1101.44C116.469 1101.44 117.44 1100.47 117.443 1099.27L117.498 1069.85C117.5 1068.65 116.532 1067.68 115.33 1067.68C114.128 1067.67 113.156 1068.64 113.154 1069.84Z" fill="#FFFBF1" stroke="#E5E3E3" stroke-width="3" stroke-miterlimit="10"/>
<path d="M103.068 1067.65L103.004 1101.41L92.0787 1101.39L92.1423 1067.63L103.068 1067.65Z" fill="#FFFBF1" stroke="#E5E3E3" stroke-width="3" stroke-miterlimit="10"/>
<path d="M107.477 1103.56C107.475 1104.58 106.64 1105.41 105.614 1105.41L104.845 1105.41C103.819 1105.41 102.986 1104.57 102.988 1103.55L103.059 1066.08C103.061 1065.05 103.896 1064.22 104.922 1064.22L105.692 1064.22C106.718 1064.22 107.55 1065.06 107.548 1066.08L107.477 1103.56Z" fill="#FFFBF1" stroke="#E5E3E3" stroke-width="3" stroke-miterlimit="10"/>
<path d="M107.541 1070.63C107.538 1072.18 108.786 1073.44 110.341 1073.44C111.888 1073.44 113.149 1072.2 113.152 1070.64L113.153 1069.9L113.098 1099.2L113.099 1098.34C113.102 1096.8 111.854 1095.53 110.299 1095.53C108.752 1095.53 107.491 1096.78 107.488 1098.33L107.541 1070.63Z" fill="#FFFBF1" stroke="#E5E3E3" stroke-width="3" stroke-miterlimit="10" stroke-linecap="round" stroke-linejoin="round"/>
<path d="M92.1175 1079.26L92.0977 1089.76L28.2936 1089.64L28.3134 1079.14L92.1175 1079.26Z" fill="#FFFBF1" stroke="#E5E3E3" stroke-width="3" stroke-miterlimit="10"/>
<path d="M50.2667 1084.44C50.2613 1087.34 47.9083 1089.68 45.0066 1089.68L18.5312 1089.63L18.551 1079.13L45.0344 1079.18C47.9281 1079.18 50.2722 1081.54 50.2667 1084.44Z" fill="#FFFBF1" stroke="#E5E3E3" stroke-width="3" stroke-miterlimit="10"/>
<path d="M805.469 1079.21C850.49 1046.55 831.65 958.659 818.235 931.934C816.158 927.802 810.339 927.606 808.023 931.61C805.546 935.902 799.813 936.949 795.98 933.807C787.648 926.986 774.217 916.87 767.281 914.211C765.903 913.688 764.41 914.623 764.279 916.089C764.173 917.259 765.093 917.991 766.167 918.481C777.579 923.729 796.54 938.642 796.499 960.124C796.456 982.816 763.876 1028.14 763.876 1028.14L731.923 1067.44L731.902 1079.07L805.469 1079.21Z" fill="#FFFBF1" stroke="#E5E3E3" stroke-width="3" stroke-miterlimit="10"/>
<path d="M805.447 1089.7C850.345 1122.53 831.174 1210.36 817.657 1237.03C815.566 1241.15 809.746 1241.33 807.445 1237.32C804.984 1233.02 799.255 1231.95 795.41 1235.07C787.053 1241.86 773.583 1251.93 766.637 1254.56C765.257 1255.08 763.768 1254.14 763.643 1252.67C763.541 1251.5 764.464 1250.77 765.539 1250.29C776.971 1245.08 795.988 1230.24 796.028 1208.76C796.071 1186.07 763.662 1140.62 763.662 1140.62L731.858 1101.2L731.88 1089.57L805.447 1089.7Z" fill="#FFFBF1" stroke="#E5E3E3" stroke-width="3" stroke-miterlimit="10"/>
<path d="M768.528 1039.36C780.347 1024.51 825.261 963.208 795.98 933.807C788.379 926.178 774.217 916.87 767.281 914.211C765.903 913.688 764.41 914.623 764.279 916.089C764.173 917.259 765.093 917.991 766.167 918.481C777.579 923.729 796.54 938.642 796.499 960.124C796.456 982.816 763.876 1028.14 763.876 1028.14L731.923 1067.44L731.902 1079.07L768.528 1039.36Z" fill="#FFFBF1" stroke="#E5E3E3" stroke-width="3" stroke-miterlimit="10"/>
<path d="M768.356 1129.42C780.119 1144.31 824.802 1205.78 795.41 1235.07C787.781 1242.67 773.583 1251.93 766.637 1254.56C765.257 1255.08 763.768 1254.14 763.643 1252.67C763.541 1251.5 764.464 1250.77 765.539 1250.29C776.971 1245.08 795.988 1230.24 796.028 1208.76C796.071 1186.07 763.662 1140.62 763.662 1140.62L731.858 1101.2L731.88 1089.57L768.356 1129.42Z" fill="#FFFBF1" stroke="#E5E3E3" stroke-width="3" stroke-miterlimit="10"/>
<path d="M706.553 1074.84L706.517 1093.71L686.183 1097.26C681.589 1098.07 676.798 1096.6 673.727 1093.1C671.647 1090.72 670.387 1087.62 670.393 1084.21C670.399 1080.8 671.672 1077.7 673.76 1075.33C676.845 1071.85 681.649 1070.39 686.232 1071.21L706.553 1074.84Z" fill="#FFFBF1" stroke="#E5E3E3" stroke-width="3" stroke-miterlimit="10"/>
<path d="M710.846 1098.99L710.902 1069.57C710.904 1068.37 709.936 1067.4 708.734 1067.39C707.531 1067.39 706.56 1068.36 706.557 1069.56L706.502 1098.98C706.5 1100.18 707.468 1101.15 708.67 1101.16C709.872 1101.16 710.844 1100.19 710.846 1098.99Z" fill="#FFFBF1" stroke="#E5E3E3" stroke-width="3" stroke-miterlimit="10"/>
<path d="M720.932 1101.18L720.996 1067.42L731.921 1067.44L731.858 1101.21L720.932 1101.18Z" fill="#FFFBF1" stroke="#E5E3E3" stroke-width="3" stroke-miterlimit="10"/>
<path d="M716.523 1065.28C716.525 1064.25 717.36 1063.42 718.386 1063.42L719.155 1063.42C720.181 1063.42 721.014 1064.26 721.012 1065.28L720.941 1102.76C720.939 1103.78 720.104 1104.61 719.078 1104.61L718.308 1104.61C717.282 1104.61 716.45 1103.77 716.452 1102.75L716.523 1065.28Z" fill="#FFFBF1" stroke="#E5E3E3" stroke-width="3" stroke-miterlimit="10"/>
<path d="M716.459 1098.2C716.462 1096.66 715.214 1095.39 713.659 1095.39C712.112 1095.39 710.851 1096.64 710.848 1098.19L710.847 1098.93L710.902 1069.63L710.901 1070.49C710.898 1072.04 712.146 1073.3 713.701 1073.3C715.248 1073.3 716.509 1072.06 716.512 1070.5L716.459 1098.2Z" fill="#FFFBF1" stroke="#E5E3E3" stroke-width="3" stroke-miterlimit="10" stroke-linecap="round" stroke-linejoin="round"/>
<path d="M731.883 1089.58L731.902 1079.07L795.706 1079.2L795.687 1089.7L731.883 1089.58Z" fill="#FFFBF1" stroke="#E5E3E3" stroke-width="3" stroke-miterlimit="10"/>
<path d="M773.733 1084.39C773.739 1081.49 776.092 1079.15 778.993 1079.15L805.469 1079.2L805.449 1089.7L778.966 1089.65C776.072 1089.65 773.728 1087.3 773.733 1084.39Z" fill="#FFFBF1" stroke="#E5E3E3" stroke-width="3" stroke-miterlimit="10"/>
<path d="M805.468 764.213C850.489 731.554 831.65 643.659 818.234 616.934C816.157 612.802 810.338 612.606 808.022 616.61C805.546 620.902 799.812 621.949 795.979 618.807C787.647 611.986 774.216 601.87 767.28 599.211C765.902 598.688 764.409 599.623 764.278 601.089C764.172 602.259 765.092 602.991 766.166 603.481C777.578 608.729 796.539 623.642 796.498 645.124C796.455 667.816 763.875 713.139 763.875 713.139L731.922 752.443L731.901 764.074L805.468 764.213Z" fill="#FFFBF1" stroke="#E5E3E3" stroke-width="3" stroke-miterlimit="10"/>
<path d="M805.446 774.705C850.344 807.533 831.173 895.356 817.656 922.031C815.565 926.155 809.745 926.328 807.444 922.316C804.983 918.015 799.254 916.946 795.409 920.073C787.052 926.863 773.582 936.929 766.636 939.561C765.256 940.079 763.767 939.139 763.642 937.672C763.54 936.501 764.463 935.774 765.538 935.287C776.97 930.082 795.987 915.241 796.027 893.759C796.07 871.067 763.661 825.621 763.661 825.621L731.857 786.197L731.879 774.566L805.446 774.705Z" fill="#FFFBF1" stroke="#E5E3E3" stroke-width="3" stroke-miterlimit="10"/>
<path d="M768.527 724.361C780.346 709.515 825.261 648.208 795.979 618.807C788.378 611.178 774.216 601.87 767.28 599.211C765.902 598.688 764.409 599.623 764.278 601.089C764.172 602.259 765.092 602.991 766.166 603.481C777.578 608.729 796.539 623.642 796.498 645.124C796.455 667.816 763.875 713.139 763.875 713.139L731.922 752.443L731.901 764.074L768.527 724.361Z" fill="#FFFBF1" stroke="#E5E3E3" stroke-width="3" stroke-miterlimit="10"/>
<path d="M768.355 814.416C780.118 829.308 824.801 890.783 795.409 920.073C787.78 927.674 773.582 936.929 766.636 939.561C765.256 940.079 763.767 939.139 763.642 937.672C763.54 936.501 764.463 935.774 765.538 935.287C776.97 930.082 795.987 915.241 796.027 893.759C796.07 871.067 763.661 825.621 763.661 825.621L731.857 786.197L731.879 774.566L768.355 814.416Z" fill="#FFFBF1" stroke="#E5E3E3" stroke-width="3" stroke-miterlimit="10"/>
<path d="M706.552 759.835L706.516 778.712L686.182 782.265C681.588 783.065 676.797 781.598 673.726 778.097C671.646 775.72 670.386 772.616 670.392 769.209C670.398 765.803 671.671 762.703 673.759 760.334C676.844 756.845 681.648 755.388 686.231 756.214L706.552 759.835Z" fill="#FFFBF1" stroke="#E5E3E3" stroke-width="3" stroke-miterlimit="10"/>
<path d="M710.845 783.987L710.901 754.57C710.903 753.368 709.935 752.396 708.733 752.394C707.53 752.391 706.559 753.36 706.556 754.562L706.501 783.979C706.499 785.181 707.467 786.153 708.669 786.155C709.871 786.158 710.843 785.19 710.845 783.987Z" fill="#FFFBF1" stroke="#E5E3E3" stroke-width="3" stroke-miterlimit="10"/>
<path d="M720.931 786.185L720.995 752.423L731.92 752.444L731.857 786.206L720.931 786.185Z" fill="#FFFBF1" stroke="#E5E3E3" stroke-width="3" stroke-miterlimit="10"/>
<path d="M716.522 750.275C716.524 749.249 717.359 748.417 718.385 748.419L719.155 748.42C720.18 748.422 721.013 749.258 721.011 750.284L720.94 787.756C720.938 788.782 720.103 789.615 719.077 789.613L718.307 789.611C717.281 789.609 716.449 788.774 716.451 787.748L716.522 750.275Z" fill="#FFFBF1" stroke="#E5E3E3" stroke-width="3" stroke-miterlimit="10"/>
<path d="M716.458 783.202C716.461 781.655 715.213 780.395 713.658 780.392C712.111 780.389 710.85 781.637 710.847 783.192L710.846 783.929L710.901 754.632L710.9 755.49C710.897 757.037 712.145 758.298 713.7 758.301C715.247 758.304 716.508 757.056 716.511 755.501L716.458 783.202Z" fill="#FFFBF1" stroke="#E5E3E3" stroke-width="3" stroke-miterlimit="10" stroke-linecap="round" stroke-linejoin="round"/>
<path d="M731.882 774.575L731.901 764.075L795.705 764.195L795.686 774.696L731.882 774.575Z" fill="#FFFBF1" stroke="#E5E3E3" stroke-width="3" stroke-miterlimit="10"/>
<path d="M773.732 769.394C773.738 766.492 776.091 764.148 778.992 764.153L805.468 764.203L805.448 774.704L778.965 774.654C776.071 774.648 773.727 772.295 773.732 769.394Z" fill="#FFFBF1" stroke="#E5E3E3" stroke-width="3" stroke-miterlimit="10"/>
<path d="M805.469 449.213C850.49 416.554 831.65 328.659 818.235 301.934C816.158 297.802 810.339 297.607 808.023 301.61C805.546 305.902 799.813 306.949 795.98 303.808C787.648 296.987 774.217 286.87 767.281 284.212C765.903 283.688 764.41 284.623 764.279 286.09C764.173 287.26 765.093 287.991 766.167 288.482C777.579 293.729 796.54 308.642 796.499 330.124C796.456 352.816 763.876 398.139 763.876 398.139L731.923 437.443L731.902 449.074L805.469 449.213Z" fill="#FFFBF1" stroke="#E5E3E3" stroke-width="3" stroke-miterlimit="10"/>
<path d="M805.447 459.705C850.345 492.534 831.174 580.357 817.657 607.031C815.566 611.155 809.746 611.329 807.445 607.316C804.984 603.015 799.255 601.947 795.41 605.073C787.053 611.863 773.583 621.929 766.637 624.561C765.257 625.08 763.768 624.139 763.643 622.672C763.541 621.501 764.464 620.774 765.539 620.287C776.971 615.082 795.988 600.241 796.028 578.759C796.071 556.067 763.662 510.622 763.662 510.622L731.858 471.197L731.88 459.566L805.447 459.705Z" fill="#FFFBF1" stroke="#E5E3E3" stroke-width="3" stroke-miterlimit="10"/>
<path d="M768.528 409.362C780.347 394.515 825.261 333.208 795.98 303.808C788.379 296.179 774.217 286.87 767.281 284.212C765.903 283.688 764.41 284.623 764.279 286.09C764.173 287.26 765.093 287.991 766.167 288.482C777.579 293.729 796.54 308.642 796.499 330.124C796.456 352.816 763.876 398.139 763.876 398.139L731.923 437.443L731.902 449.074L768.528 409.362Z" fill="#FFFBF1" stroke="#E5E3E3" stroke-width="3" stroke-miterlimit="10"/>
<path d="M768.356 499.417C780.119 514.308 824.802 575.784 795.41 605.073C787.781 612.674 773.583 621.929 766.637 624.561C765.257 625.08 763.768 624.139 763.643 622.672C763.541 621.501 764.464 620.774 765.539 620.287C776.971 615.082 795.988 600.241 796.028 578.759C796.071 556.067 763.662 510.622 763.662 510.622L731.858 471.197L731.88 459.566L768.356 499.417Z" fill="#FFFBF1" stroke="#E5E3E3" stroke-width="3" stroke-miterlimit="10"/>
<path d="M706.553 444.835L706.517 463.712L686.183 467.265C681.589 468.066 676.798 466.598 673.727 463.097C671.647 460.721 670.387 457.616 670.393 454.21C670.399 450.803 671.672 447.703 673.76 445.335C676.845 441.846 681.649 440.388 686.232 441.214L706.553 444.835Z" fill="#FFFBF1" stroke="#E5E3E3" stroke-width="3" stroke-miterlimit="10"/>
<path d="M710.846 468.988L710.902 439.57C710.904 438.368 709.936 437.396 708.734 437.394C707.531 437.392 706.56 438.36 706.557 439.562L706.502 468.979C706.5 470.182 707.468 471.153 708.67 471.156C709.872 471.158 710.844 470.19 710.846 468.988Z" fill="#FFFBF1" stroke="#E5E3E3" stroke-width="3" stroke-miterlimit="10"/>
<path d="M720.932 471.185L720.996 437.424L731.921 437.444L731.858 471.206L720.932 471.185Z" fill="#FFFBF1" stroke="#E5E3E3" stroke-width="3" stroke-miterlimit="10"/>
<path d="M716.523 435.275C716.525 434.249 717.36 433.417 718.386 433.419L719.155 433.421C720.181 433.423 721.014 434.258 721.012 435.284L720.941 472.757C720.939 473.783 720.104 474.615 719.078 474.613L718.308 474.611C717.282 474.609 716.45 473.774 716.452 472.748L716.523 435.275Z" fill="#FFFBF1" stroke="#E5E3E3" stroke-width="3" stroke-miterlimit="10"/>
<path d="M716.459 468.203C716.462 466.656 715.214 465.395 713.659 465.392C712.112 465.389 710.851 466.637 710.848 468.192L710.847 468.93L710.902 439.633L710.901 440.49C710.898 442.037 712.146 443.298 713.701 443.301C715.248 443.304 716.509 442.056 716.512 440.501L716.459 468.203Z" fill="#FFFBF1" stroke="#E5E3E3" stroke-width="3" stroke-miterlimit="10" stroke-linecap="round" stroke-linejoin="round"/>
<path d="M731.883 459.575L731.902 449.075L795.706 449.195L795.687 459.696L731.883 459.575Z" fill="#FFFBF1" stroke="#E5E3E3" stroke-width="3" stroke-miterlimit="10"/>
<path d="M773.733 454.394C773.739 451.492 776.092 449.148 778.993 449.154L805.469 449.204L805.449 459.704L778.966 459.654C776.072 459.649 773.728 457.296 773.733 454.394Z" fill="#FFFBF1" stroke="#E5E3E3" stroke-width="3" stroke-miterlimit="10"/>
<path d="M805.469 134.213C850.49 101.554 831.65 13.6593 818.235 -13.066C816.158 -17.198 810.339 -17.3933 808.023 -13.3899C805.546 -9.0982 799.813 -8.05096 795.98 -11.1923C787.648 -18.0133 774.217 -28.1303 767.281 -30.7885C765.903 -31.3121 764.41 -30.3771 764.279 -28.9105C764.173 -27.7404 765.093 -27.0092 766.167 -26.5183C777.579 -21.2706 796.54 -6.35782 796.499 15.1239C796.456 37.8161 763.876 83.139 763.876 83.139L731.923 122.443L731.902 134.074L805.469 134.213Z" fill="#FFFBF1" stroke="#E5E3E3" stroke-width="3" stroke-miterlimit="10"/>
<path d="M805.447 144.705C850.345 177.534 831.174 265.357 817.657 292.031C815.566 296.155 809.746 296.329 807.445 292.316C804.984 288.015 799.255 286.947 795.41 290.073C787.053 296.863 773.583 306.929 766.637 309.561C765.257 310.08 763.768 309.139 763.643 307.672C763.541 306.501 764.464 305.774 765.539 305.287C776.971 300.082 795.988 285.241 796.028 263.759C796.071 241.067 763.662 195.622 763.662 195.622L731.858 156.197L731.88 144.566L805.447 144.705Z" fill="#FFFBF1" stroke="#E5E3E3" stroke-width="3" stroke-miterlimit="10"/>
<path d="M768.528 94.3616C780.347 79.515 825.261 18.2081 795.98 -11.1923C788.379 -18.8215 774.217 -28.1303 767.281 -30.7885C765.903 -31.3121 764.41 -30.3771 764.279 -28.9105C764.173 -27.7404 765.093 -27.0092 766.167 -26.5183C777.579 -21.2706 796.54 -6.35782 796.499 15.1239C796.456 37.8161 763.876 83.139 763.876 83.139L731.923 122.443L731.902 134.074L768.528 94.3616Z" fill="#FFFBF1" stroke="#E5E3E3" stroke-width="3" stroke-miterlimit="10"/>
<path d="M768.356 184.417C780.119 199.308 824.802 260.784 795.41 290.073C787.781 297.674 773.583 306.929 766.637 309.561C765.257 310.08 763.768 309.139 763.643 307.672C763.541 306.501 764.464 305.774 765.539 305.287C776.971 300.082 795.988 285.241 796.028 263.759C796.071 241.067 763.662 195.622 763.662 195.622L731.858 156.197L731.88 144.566L768.356 184.417Z" fill="#FFFBF1" stroke="#E5E3E3" stroke-width="3" stroke-miterlimit="10"/>
<path d="M706.553 129.835L706.517 148.712L686.183 152.265C681.589 153.066 676.798 151.598 673.727 148.097C671.647 145.721 670.387 142.616 670.393 139.21C670.399 135.803 671.672 132.703 673.76 130.335C676.845 126.846 681.649 125.388 686.232 126.214L706.553 129.835Z" fill="#FFFBF1" stroke="#E5E3E3" stroke-width="3" stroke-miterlimit="10"/>
<path d="M710.846 153.988L710.902 124.57C710.904 123.368 709.936 122.396 708.734 122.394C707.531 122.392 706.56 123.36 706.557 124.562L706.502 153.979C706.5 155.182 707.468 156.153 708.67 156.156C709.872 156.158 710.844 155.19 710.846 153.988Z" fill="#FFFBF1" stroke="#E5E3E3" stroke-width="3" stroke-miterlimit="10"/>
<path d="M720.932 156.185L720.996 122.424L731.921 122.444L731.858 156.206L720.932 156.185Z" fill="#FFFBF1" stroke="#E5E3E3" stroke-width="3" stroke-miterlimit="10"/>
<path d="M716.523 120.275C716.525 119.249 717.36 118.417 718.386 118.419L719.155 118.421C720.181 118.423 721.014 119.258 721.012 120.284L720.941 157.757C720.939 158.783 720.104 159.615 719.078 159.613L718.308 159.611C717.282 159.609 716.45 158.774 716.452 157.748L716.523 120.275Z" fill="#FFFBF1" stroke="#E5E3E3" stroke-width="3" stroke-miterlimit="10"/>
<path d="M716.459 153.203C716.462 151.656 715.214 150.395 713.659 150.392C712.112 150.389 710.851 151.637 710.848 153.192L710.847 153.93L710.902 124.633L710.901 125.49C710.898 127.037 712.146 128.298 713.701 128.301C715.248 128.304 716.509 127.056 716.512 125.501L716.459 153.203Z" fill="#FFFBF1" stroke="#E5E3E3" stroke-width="3" stroke-miterlimit="10" stroke-linecap="round" stroke-linejoin="round"/>
<path d="M731.883 144.575L731.902 134.075L795.706 134.195L795.687 144.696L731.883 144.575Z" fill="#FFFBF1" stroke="#E5E3E3" stroke-width="3" stroke-miterlimit="10"/>
<path d="M773.733 139.394C773.739 136.492 776.092 134.148 778.993 134.154L805.469 134.204L805.449 144.704L778.966 144.654C776.072 144.649 773.728 142.296 773.733 139.394Z" fill="#FFFBF1" stroke="#E5E3E3" stroke-width="3" stroke-miterlimit="10"/>
</svg>
